<?xml version="1.0" encoding="utf-8" standalone="no"?>
<!DOCTYPE svg PUBLIC "-//W3C//DTD SVG 1.1//EN"
  "http://www.w3.org/Graphics/SVG/1.1/DTD/svg11.dtd">
<svg height="345.6pt" version="1.1" viewBox="0 0 460.8 345.6" width="460.8pt" xmlns="http://www.w3.org/2000/svg" xmlns:xlink="http://www.w3.org/1999/xlink">
 <metadata>
  <rdf:RDF xmlns:cc="http://creativecommons.org/ns#" xmlns:dc="http://purl.org/dc/elements/1.1/" xmlns:rdf="http://www.w3.org/1999/02/22-rdf-syntax-ns#">
   <cc:Work>
    <dc:type rdf:resource="http://purl.org/dc/dcmitype/StillImage"/>
    <dc:date>2023-10-27T10:17:08.847535</dc:date>
    <dc:format>image/svg+xml</dc:format>
    <dc:creator>
     <cc:Agent>
      <dc:title>Matplotlib v3.4.3, https://matplotlib.org/</dc:title>
     </cc:Agent>
    </dc:creator>
   </cc:Work>
  </rdf:RDF>
 </metadata>
 <defs>
  <style type="text/css">*{stroke-linecap:butt;stroke-linejoin:round;}</style>
 </defs>
 <g id="figure_1">
  <g id="patch_1">
   <path d="M 0 345.6 
L 460.8 345.6 
L 460.8 0 
L 0 0 
z
" style="fill:#ffffff;"/>
  </g>
  <g id="axes_1">
   <g id="patch_2">
    <path d="M 57.6 307.584 
L 414.72 307.584 
L 414.72 41.472 
L 57.6 41.472 
z
" style="fill:#ffffff;"/>
   </g>
   <g id="PathCollection_1">
    <defs>
     <path d="M 0 3 
C 0.795609 3 1.55874 2.683901 2.12132 2.12132 
C 2.683901 1.55874 3 0.795609 3 0 
C 3 -0.795609 2.683901 -1.55874 2.12132 -2.12132 
C 1.55874 -2.683901 0.795609 -3 0 -3 
C -0.795609 -3 -1.55874 -2.683901 -2.12132 -2.12132 
C -2.683901 -1.55874 -3 -0.795609 -3 0 
C -3 0.795609 -2.683901 1.55874 -2.12132 2.12132 
C -1.55874 2.683901 -0.795609 3 0 3 
z
" id="maef7cec32d" style="stroke:#0000ff;"/>
    </defs>
    <g clip-path="url(#p779ce3c7bc)">
     <use style="fill:#0000ff;stroke:#0000ff;" x="276.200727" xlink:href="#maef7cec32d" y="295.091424"/>
     <use style="fill:#0000ff;stroke:#0000ff;" x="349.789091" xlink:href="#maef7cec32d" y="295.482312"/>
    </g>
   </g>
   <g id="PathCollection_2">
    <defs>
     <path d="M 0 3 
C 0.795609 3 1.55874 2.683901 2.12132 2.12132 
C 2.683901 1.55874 3 0.795609 3 0 
C 3 -0.795609 2.683901 -1.55874 2.12132 -2.12132 
C 1.55874 -2.683901 0.795609 -3 0 -3 
C -0.795609 -3 -1.55874 -2.683901 -2.12132 -2.12132 
C -2.683901 -1.55874 -3 -0.795609 -3 0 
C -3 0.795609 -2.683901 1.55874 -2.12132 2.12132 
C -1.55874 2.683901 -0.795609 3 0 3 
z
" id="mad6acd33a6" style="stroke:#ff0000;"/>
    </defs>
    <g clip-path="url(#p779ce3c7bc)">
     <use style="fill:#ff0000;stroke:#ff0000;" x="181.374545" xlink:href="#mad6acd33a6" y="294.593215"/>
     <use style="fill:#ff0000;stroke:#ff0000;" x="194.901818" xlink:href="#mad6acd33a6" y="294.540622"/>
    </g>
   </g>
   <g id="PathCollection_3">
    <defs>
     <path d="M 0 3 
C 0.795609 3 1.55874 2.683901 2.12132 2.12132 
C 2.683901 1.55874 3 0.795609 3 0 
C 3 -0.795609 2.683901 -1.55874 2.12132 -2.12132 
C 1.55874 -2.683901 0.795609 -3 0 -3 
C -0.795609 -3 -1.55874 -2.683901 -2.12132 -2.12132 
C -2.683901 -1.55874 -3 -0.795609 -3 0 
C -3 0.795609 -2.683901 1.55874 -2.12132 2.12132 
C -1.55874 2.683901 -0.795609 3 0 3 
z
" id="ma13b9068fe" style="stroke:#ffa500;"/>
    </defs>
    <g clip-path="url(#p779ce3c7bc)">
     <use style="fill:#ffa500;stroke:#ffa500;" x="148.638545" xlink:href="#ma13b9068fe" y="293.787271"/>
     <use style="fill:#ffa500;stroke:#ffa500;" x="159.325091" xlink:href="#ma13b9068fe" y="293.170375"/>
    </g>
   </g>
   <g id="PathCollection_4">
    <defs>
     <path d="M 0 3 
C 0.795609 3 1.55874 2.683901 2.12132 2.12132 
C 2.683901 1.55874 3 0.795609 3 0 
C 3 -0.795609 2.683901 -1.55874 2.12132 -2.12132 
C 1.55874 -2.683901 0.795609 -3 0 -3 
C -0.795609 -3 -1.55874 -2.683901 -2.12132 -2.12132 
C -2.683901 -1.55874 -3 -0.795609 -3 0 
C -3 0.795609 -2.683901 1.55874 -2.12132 2.12132 
C -1.55874 2.683901 -0.795609 3 0 3 
z
" id="m68644d855c" style="stroke:#800080;"/>
    </defs>
    <g clip-path="url(#p779ce3c7bc)">
     <use style="fill:#800080;stroke:#800080;" x="127.536" xlink:href="#m68644d855c" y="294.315328"/>
     <use style="fill:#800080;stroke:#800080;" x="135.381818" xlink:href="#m68644d855c" y="294.100694"/>
    </g>
   </g>
   <g id="PathCollection_5">
    <defs>
     <path d="M 0 3 
C 0.795609 3 1.55874 2.683901 2.12132 2.12132 
C 2.683901 1.55874 3 0.795609 3 0 
C 3 -0.795609 2.683901 -1.55874 2.12132 -2.12132 
C 1.55874 -2.683901 0.795609 -3 0 -3 
C -0.795609 -3 -1.55874 -2.683901 -2.12132 -2.12132 
C -2.683901 -1.55874 -3 -0.795609 -3 0 
C -3 0.795609 -2.683901 1.55874 -2.12132 2.12132 
C -1.55874 2.683901 -0.795609 3 0 3 
z
" id="m298f08a534" style="stroke:#ffff00;"/>
    </defs>
    <g clip-path="url(#p779ce3c7bc)">
     <use style="fill:#ffff00;stroke:#ffff00;" x="119.825455" xlink:href="#m298f08a534" y="293.994087"/>
     <use style="fill:#ffff00;stroke:#ffff00;" x="121.042909" xlink:href="#m298f08a534" y="294.326344"/>
    </g>
   </g>
   <g id="PathCollection_6">
    <defs>
     <path d="M 0 3 
C 0.795609 3 1.55874 2.683901 2.12132 2.12132 
C 2.683901 1.55874 3 0.795609 3 0 
C 3 -0.795609 2.683901 -1.55874 2.12132 -2.12132 
C 1.55874 -2.683901 0.795609 -3 0 -3 
C -0.795609 -3 -1.55874 -2.683901 -2.12132 -2.12132 
C -2.683901 -1.55874 -3 -0.795609 -3 0 
C -3 0.795609 -2.683901 1.55874 -2.12132 2.12132 
C -1.55874 2.683901 -0.795609 3 0 3 
z
" id="m89916016a6" style="stroke:#ffc0cb;"/>
    </defs>
    <g clip-path="url(#p779ce3c7bc)">
     <use style="fill:#ffc0cb;stroke:#ffc0cb;" x="110.356364" xlink:href="#m89916016a6" y="290.643094"/>
     <use style="fill:#ffc0cb;stroke:#ffc0cb;" x="112.385455" xlink:href="#m89916016a6" y="294.347665"/>
    </g>
   </g>
   <g id="matplotlib.axis_1">
    <g id="xtick_1">
     <g id="line2d_1">
      <path clip-path="url(#p779ce3c7bc)" d="M 73.832727 307.584 
L 73.832727 41.472 
" style="fill:none;stroke:#b0b0b0;stroke-linecap:square;stroke-width:0.8;"/>
     </g>
     <g id="line2d_2">
      <defs>
       <path d="M 0 0 
L 0 3.5 
" id="m991978624d" style="stroke:#000000;stroke-width:0.8;"/>
      </defs>
      <g>
       <use style="stroke:#000000;stroke-width:0.8;" x="73.832727" xlink:href="#m991978624d" y="307.584"/>
      </g>
     </g>
     <g id="text_1">
      <!-- 0 -->
      <g transform="translate(70.651477 322.182437)scale(0.1 -0.1)">
       <defs>
        <path d="M 2034 4250 
Q 1547 4250 1301 3770 
Q 1056 3291 1056 2328 
Q 1056 1369 1301 889 
Q 1547 409 2034 409 
Q 2525 409 2770 889 
Q 3016 1369 3016 2328 
Q 3016 3291 2770 3770 
Q 2525 4250 2034 4250 
z
M 2034 4750 
Q 2819 4750 3233 4129 
Q 3647 3509 3647 2328 
Q 3647 1150 3233 529 
Q 2819 -91 2034 -91 
Q 1250 -91 836 529 
Q 422 1150 422 2328 
Q 422 3509 836 4129 
Q 1250 4750 2034 4750 
z
" id="DejaVuSans-30" transform="scale(0.015625)"/>
       </defs>
       <use xlink:href="#DejaVuSans-30"/>
      </g>
     </g>
    </g>
    <g id="xtick_2">
     <g id="line2d_3">
      <path clip-path="url(#p779ce3c7bc)" d="M 127.941818 307.584 
L 127.941818 41.472 
" style="fill:none;stroke:#b0b0b0;stroke-linecap:square;stroke-width:0.8;"/>
     </g>
     <g id="line2d_4">
      <g>
       <use style="stroke:#000000;stroke-width:0.8;" x="127.941818" xlink:href="#m991978624d" y="307.584"/>
      </g>
     </g>
     <g id="text_2">
      <!-- 2 -->
      <g transform="translate(124.760568 322.182437)scale(0.1 -0.1)">
       <defs>
        <path d="M 1228 531 
L 3431 531 
L 3431 0 
L 469 0 
L 469 531 
Q 828 903 1448 1529 
Q 2069 2156 2228 2338 
Q 2531 2678 2651 2914 
Q 2772 3150 2772 3378 
Q 2772 3750 2511 3984 
Q 2250 4219 1831 4219 
Q 1534 4219 1204 4116 
Q 875 4013 500 3803 
L 500 4441 
Q 881 4594 1212 4672 
Q 1544 4750 1819 4750 
Q 2544 4750 2975 4387 
Q 3406 4025 3406 3419 
Q 3406 3131 3298 2873 
Q 3191 2616 2906 2266 
Q 2828 2175 2409 1742 
Q 1991 1309 1228 531 
z
" id="DejaVuSans-32" transform="scale(0.015625)"/>
       </defs>
       <use xlink:href="#DejaVuSans-32"/>
      </g>
     </g>
    </g>
    <g id="xtick_3">
     <g id="line2d_5">
      <path clip-path="url(#p779ce3c7bc)" d="M 182.050909 307.584 
L 182.050909 41.472 
" style="fill:none;stroke:#b0b0b0;stroke-linecap:square;stroke-width:0.8;"/>
     </g>
     <g id="line2d_6">
      <g>
       <use style="stroke:#000000;stroke-width:0.8;" x="182.050909" xlink:href="#m991978624d" y="307.584"/>
      </g>
     </g>
     <g id="text_3">
      <!-- 4 -->
      <g transform="translate(178.869659 322.182437)scale(0.1 -0.1)">
       <defs>
        <path d="M 2419 4116 
L 825 1625 
L 2419 1625 
L 2419 4116 
z
M 2253 4666 
L 3047 4666 
L 3047 1625 
L 3713 1625 
L 3713 1100 
L 3047 1100 
L 3047 0 
L 2419 0 
L 2419 1100 
L 313 1100 
L 313 1709 
L 2253 4666 
z
" id="DejaVuSans-34" transform="scale(0.015625)"/>
       </defs>
       <use xlink:href="#DejaVuSans-34"/>
      </g>
     </g>
    </g>
    <g id="xtick_4">
     <g id="line2d_7">
      <path clip-path="url(#p779ce3c7bc)" d="M 236.16 307.584 
L 236.16 41.472 
" style="fill:none;stroke:#b0b0b0;stroke-linecap:square;stroke-width:0.8;"/>
     </g>
     <g id="line2d_8">
      <g>
       <use style="stroke:#000000;stroke-width:0.8;" x="236.16" xlink:href="#m991978624d" y="307.584"/>
      </g>
     </g>
     <g id="text_4">
      <!-- 6 -->
      <g transform="translate(232.97875 322.182437)scale(0.1 -0.1)">
       <defs>
        <path d="M 2113 2584 
Q 1688 2584 1439 2293 
Q 1191 2003 1191 1497 
Q 1191 994 1439 701 
Q 1688 409 2113 409 
Q 2538 409 2786 701 
Q 3034 994 3034 1497 
Q 3034 2003 2786 2293 
Q 2538 2584 2113 2584 
z
M 3366 4563 
L 3366 3988 
Q 3128 4100 2886 4159 
Q 2644 4219 2406 4219 
Q 1781 4219 1451 3797 
Q 1122 3375 1075 2522 
Q 1259 2794 1537 2939 
Q 1816 3084 2150 3084 
Q 2853 3084 3261 2657 
Q 3669 2231 3669 1497 
Q 3669 778 3244 343 
Q 2819 -91 2113 -91 
Q 1303 -91 875 529 
Q 447 1150 447 2328 
Q 447 3434 972 4092 
Q 1497 4750 2381 4750 
Q 2619 4750 2861 4703 
Q 3103 4656 3366 4563 
z
" id="DejaVuSans-36" transform="scale(0.015625)"/>
       </defs>
       <use xlink:href="#DejaVuSans-36"/>
      </g>
     </g>
    </g>
    <g id="xtick_5">
     <g id="line2d_9">
      <path clip-path="url(#p779ce3c7bc)" d="M 290.269091 307.584 
L 290.269091 41.472 
" style="fill:none;stroke:#b0b0b0;stroke-linecap:square;stroke-width:0.8;"/>
     </g>
     <g id="line2d_10">
      <g>
       <use style="stroke:#000000;stroke-width:0.8;" x="290.269091" xlink:href="#m991978624d" y="307.584"/>
      </g>
     </g>
     <g id="text_5">
      <!-- 8 -->
      <g transform="translate(287.087841 322.182437)scale(0.1 -0.1)">
       <defs>
        <path d="M 2034 2216 
Q 1584 2216 1326 1975 
Q 1069 1734 1069 1313 
Q 1069 891 1326 650 
Q 1584 409 2034 409 
Q 2484 409 2743 651 
Q 3003 894 3003 1313 
Q 3003 1734 2745 1975 
Q 2488 2216 2034 2216 
z
M 1403 2484 
Q 997 2584 770 2862 
Q 544 3141 544 3541 
Q 544 4100 942 4425 
Q 1341 4750 2034 4750 
Q 2731 4750 3128 4425 
Q 3525 4100 3525 3541 
Q 3525 3141 3298 2862 
Q 3072 2584 2669 2484 
Q 3125 2378 3379 2068 
Q 3634 1759 3634 1313 
Q 3634 634 3220 271 
Q 2806 -91 2034 -91 
Q 1263 -91 848 271 
Q 434 634 434 1313 
Q 434 1759 690 2068 
Q 947 2378 1403 2484 
z
M 1172 3481 
Q 1172 3119 1398 2916 
Q 1625 2713 2034 2713 
Q 2441 2713 2670 2916 
Q 2900 3119 2900 3481 
Q 2900 3844 2670 4047 
Q 2441 4250 2034 4250 
Q 1625 4250 1398 4047 
Q 1172 3844 1172 3481 
z
" id="DejaVuSans-38" transform="scale(0.015625)"/>
       </defs>
       <use xlink:href="#DejaVuSans-38"/>
      </g>
     </g>
    </g>
    <g id="xtick_6">
     <g id="line2d_11">
      <path clip-path="url(#p779ce3c7bc)" d="M 344.378182 307.584 
L 344.378182 41.472 
" style="fill:none;stroke:#b0b0b0;stroke-linecap:square;stroke-width:0.8;"/>
     </g>
     <g id="line2d_12">
      <g>
       <use style="stroke:#000000;stroke-width:0.8;" x="344.378182" xlink:href="#m991978624d" y="307.584"/>
      </g>
     </g>
     <g id="text_6">
      <!-- 10 -->
      <g transform="translate(338.015682 322.182437)scale(0.1 -0.1)">
       <defs>
        <path d="M 794 531 
L 1825 531 
L 1825 4091 
L 703 3866 
L 703 4441 
L 1819 4666 
L 2450 4666 
L 2450 531 
L 3481 531 
L 3481 0 
L 794 0 
L 794 531 
z
" id="DejaVuSans-31" transform="scale(0.015625)"/>
       </defs>
       <use xlink:href="#DejaVuSans-31"/>
       <use x="63.623047" xlink:href="#DejaVuSans-30"/>
      </g>
     </g>
    </g>
    <g id="xtick_7">
     <g id="line2d_13">
      <path clip-path="url(#p779ce3c7bc)" d="M 398.487273 307.584 
L 398.487273 41.472 
" style="fill:none;stroke:#b0b0b0;stroke-linecap:square;stroke-width:0.8;"/>
     </g>
     <g id="line2d_14">
      <g>
       <use style="stroke:#000000;stroke-width:0.8;" x="398.487273" xlink:href="#m991978624d" y="307.584"/>
      </g>
     </g>
     <g id="text_7">
      <!-- 12 -->
      <g transform="translate(392.124773 322.182437)scale(0.1 -0.1)">
       <use xlink:href="#DejaVuSans-31"/>
       <use x="63.623047" xlink:href="#DejaVuSans-32"/>
      </g>
     </g>
    </g>
    <g id="text_8">
     <!-- $B$ (T) -->
     <g transform="translate(224.16 335.860562)scale(0.1 -0.1)">
      <defs>
       <path d="M 1081 4666 
L 2694 4666 
Q 3350 4666 3675 4422 
Q 4000 4178 4000 3688 
Q 4000 3238 3720 2911 
Q 3441 2584 2988 2516 
Q 3375 2428 3569 2181 
Q 3763 1934 3763 1522 
Q 3763 819 3242 409 
Q 2722 0 1819 0 
L 172 0 
L 1081 4666 
z
M 1234 2228 
L 903 519 
L 1919 519 
Q 2491 519 2800 781 
Q 3109 1044 3109 1522 
Q 3109 1891 2904 2059 
Q 2700 2228 2247 2228 
L 1234 2228 
z
M 1606 4147 
L 1331 2741 
L 2272 2741 
Q 2775 2741 3058 2959 
Q 3341 3178 3341 3566 
Q 3341 3869 3150 4008 
Q 2959 4147 2541 4147 
L 1606 4147 
z
" id="DejaVuSans-Oblique-42" transform="scale(0.015625)"/>
       <path id="DejaVuSans-20" transform="scale(0.015625)"/>
       <path d="M 1984 4856 
Q 1566 4138 1362 3434 
Q 1159 2731 1159 2009 
Q 1159 1288 1364 580 
Q 1569 -128 1984 -844 
L 1484 -844 
Q 1016 -109 783 600 
Q 550 1309 550 2009 
Q 550 2706 781 3412 
Q 1013 4119 1484 4856 
L 1984 4856 
z
" id="DejaVuSans-28" transform="scale(0.015625)"/>
       <path d="M -19 4666 
L 3928 4666 
L 3928 4134 
L 2272 4134 
L 2272 0 
L 1638 0 
L 1638 4134 
L -19 4134 
L -19 4666 
z
" id="DejaVuSans-54" transform="scale(0.015625)"/>
       <path d="M 513 4856 
L 1013 4856 
Q 1481 4119 1714 3412 
Q 1947 2706 1947 2009 
Q 1947 1309 1714 600 
Q 1481 -109 1013 -844 
L 513 -844 
Q 928 -128 1133 580 
Q 1338 1288 1338 2009 
Q 1338 2731 1133 3434 
Q 928 4138 513 4856 
z
" id="DejaVuSans-29" transform="scale(0.015625)"/>
      </defs>
      <use transform="translate(0 0.125)" xlink:href="#DejaVuSans-Oblique-42"/>
      <use transform="translate(68.603516 0.125)" xlink:href="#DejaVuSans-20"/>
      <use transform="translate(100.390625 0.125)" xlink:href="#DejaVuSans-28"/>
      <use transform="translate(139.404297 0.125)" xlink:href="#DejaVuSans-54"/>
      <use transform="translate(200.488281 0.125)" xlink:href="#DejaVuSans-29"/>
     </g>
    </g>
   </g>
   <g id="matplotlib.axis_2">
    <g id="ytick_1">
     <g id="line2d_15">
      <path clip-path="url(#p779ce3c7bc)" d="M 57.6 294.276949 
L 414.72 294.276949 
" style="fill:none;stroke:#b0b0b0;stroke-linecap:square;stroke-width:0.8;"/>
     </g>
     <g id="line2d_16">
      <defs>
       <path d="M 0 0 
L -3.5 0 
" id="mc24acba264" style="stroke:#000000;stroke-width:0.8;"/>
      </defs>
      <g>
       <use style="stroke:#000000;stroke-width:0.8;" x="57.6" xlink:href="#mc24acba264" y="294.276949"/>
      </g>
     </g>
     <g id="text_9">
      <!-- 0.0000 -->
      <g transform="translate(15.609375 298.076168)scale(0.1 -0.1)">
       <defs>
        <path d="M 684 794 
L 1344 794 
L 1344 0 
L 684 0 
L 684 794 
z
" id="DejaVuSans-2e" transform="scale(0.015625)"/>
       </defs>
       <use xlink:href="#DejaVuSans-30"/>
       <use x="63.623047" xlink:href="#DejaVuSans-2e"/>
       <use x="95.410156" xlink:href="#DejaVuSans-30"/>
       <use x="159.033203" xlink:href="#DejaVuSans-30"/>
       <use x="222.65625" xlink:href="#DejaVuSans-30"/>
       <use x="286.279297" xlink:href="#DejaVuSans-30"/>
      </g>
     </g>
    </g>
    <g id="ytick_2">
     <g id="line2d_17">
      <path clip-path="url(#p779ce3c7bc)" d="M 57.6 264.467791 
L 414.72 264.467791 
" style="fill:none;stroke:#b0b0b0;stroke-linecap:square;stroke-width:0.8;"/>
     </g>
     <g id="line2d_18">
      <g>
       <use style="stroke:#000000;stroke-width:0.8;" x="57.6" xlink:href="#mc24acba264" y="264.467791"/>
      </g>
     </g>
     <g id="text_10">
      <!-- 0.0025 -->
      <g transform="translate(15.609375 268.26701)scale(0.1 -0.1)">
       <defs>
        <path d="M 691 4666 
L 3169 4666 
L 3169 4134 
L 1269 4134 
L 1269 2991 
Q 1406 3038 1543 3061 
Q 1681 3084 1819 3084 
Q 2600 3084 3056 2656 
Q 3513 2228 3513 1497 
Q 3513 744 3044 326 
Q 2575 -91 1722 -91 
Q 1428 -91 1123 -41 
Q 819 9 494 109 
L 494 744 
Q 775 591 1075 516 
Q 1375 441 1709 441 
Q 2250 441 2565 725 
Q 2881 1009 2881 1497 
Q 2881 1984 2565 2268 
Q 2250 2553 1709 2553 
Q 1456 2553 1204 2497 
Q 953 2441 691 2322 
L 691 4666 
z
" id="DejaVuSans-35" transform="scale(0.015625)"/>
       </defs>
       <use xlink:href="#DejaVuSans-30"/>
       <use x="63.623047" xlink:href="#DejaVuSans-2e"/>
       <use x="95.410156" xlink:href="#DejaVuSans-30"/>
       <use x="159.033203" xlink:href="#DejaVuSans-30"/>
       <use x="222.65625" xlink:href="#DejaVuSans-32"/>
       <use x="286.279297" xlink:href="#DejaVuSans-35"/>
      </g>
     </g>
    </g>
    <g id="ytick_3">
     <g id="line2d_19">
      <path clip-path="url(#p779ce3c7bc)" d="M 57.6 234.658634 
L 414.72 234.658634 
" style="fill:none;stroke:#b0b0b0;stroke-linecap:square;stroke-width:0.8;"/>
     </g>
     <g id="line2d_20">
      <g>
       <use style="stroke:#000000;stroke-width:0.8;" x="57.6" xlink:href="#mc24acba264" y="234.658634"/>
      </g>
     </g>
     <g id="text_11">
      <!-- 0.0050 -->
      <g transform="translate(15.609375 238.457852)scale(0.1 -0.1)">
       <use xlink:href="#DejaVuSans-30"/>
       <use x="63.623047" xlink:href="#DejaVuSans-2e"/>
       <use x="95.410156" xlink:href="#DejaVuSans-30"/>
       <use x="159.033203" xlink:href="#DejaVuSans-30"/>
       <use x="222.65625" xlink:href="#DejaVuSans-35"/>
       <use x="286.279297" xlink:href="#DejaVuSans-30"/>
      </g>
     </g>
    </g>
    <g id="ytick_4">
     <g id="line2d_21">
      <path clip-path="url(#p779ce3c7bc)" d="M 57.6 204.849476 
L 414.72 204.849476 
" style="fill:none;stroke:#b0b0b0;stroke-linecap:square;stroke-width:0.8;"/>
     </g>
     <g id="line2d_22">
      <g>
       <use style="stroke:#000000;stroke-width:0.8;" x="57.6" xlink:href="#mc24acba264" y="204.849476"/>
      </g>
     </g>
     <g id="text_12">
      <!-- 0.0075 -->
      <g transform="translate(15.609375 208.648695)scale(0.1 -0.1)">
       <defs>
        <path d="M 525 4666 
L 3525 4666 
L 3525 4397 
L 1831 0 
L 1172 0 
L 2766 4134 
L 525 4134 
L 525 4666 
z
" id="DejaVuSans-37" transform="scale(0.015625)"/>
       </defs>
       <use xlink:href="#DejaVuSans-30"/>
       <use x="63.623047" xlink:href="#DejaVuSans-2e"/>
       <use x="95.410156" xlink:href="#DejaVuSans-30"/>
       <use x="159.033203" xlink:href="#DejaVuSans-30"/>
       <use x="222.65625" xlink:href="#DejaVuSans-37"/>
       <use x="286.279297" xlink:href="#DejaVuSans-35"/>
      </g>
     </g>
    </g>
    <g id="ytick_5">
     <g id="line2d_23">
      <path clip-path="url(#p779ce3c7bc)" d="M 57.6 175.040318 
L 414.72 175.040318 
" style="fill:none;stroke:#b0b0b0;stroke-linecap:square;stroke-width:0.8;"/>
     </g>
     <g id="line2d_24">
      <g>
       <use style="stroke:#000000;stroke-width:0.8;" x="57.6" xlink:href="#mc24acba264" y="175.040318"/>
      </g>
     </g>
     <g id="text_13">
      <!-- 0.0100 -->
      <g transform="translate(15.609375 178.839537)scale(0.1 -0.1)">
       <use xlink:href="#DejaVuSans-30"/>
       <use x="63.623047" xlink:href="#DejaVuSans-2e"/>
       <use x="95.410156" xlink:href="#DejaVuSans-30"/>
       <use x="159.033203" xlink:href="#DejaVuSans-31"/>
       <use x="222.65625" xlink:href="#DejaVuSans-30"/>
       <use x="286.279297" xlink:href="#DejaVuSans-30"/>
      </g>
     </g>
    </g>
    <g id="ytick_6">
     <g id="line2d_25">
      <path clip-path="url(#p779ce3c7bc)" d="M 57.6 145.23116 
L 414.72 145.23116 
" style="fill:none;stroke:#b0b0b0;stroke-linecap:square;stroke-width:0.8;"/>
     </g>
     <g id="line2d_26">
      <g>
       <use style="stroke:#000000;stroke-width:0.8;" x="57.6" xlink:href="#mc24acba264" y="145.23116"/>
      </g>
     </g>
     <g id="text_14">
      <!-- 0.0125 -->
      <g transform="translate(15.609375 149.030379)scale(0.1 -0.1)">
       <use xlink:href="#DejaVuSans-30"/>
       <use x="63.623047" xlink:href="#DejaVuSans-2e"/>
       <use x="95.410156" xlink:href="#DejaVuSans-30"/>
       <use x="159.033203" xlink:href="#DejaVuSans-31"/>
       <use x="222.65625" xlink:href="#DejaVuSans-32"/>
       <use x="286.279297" xlink:href="#DejaVuSans-35"/>
      </g>
     </g>
    </g>
    <g id="ytick_7">
     <g id="line2d_27">
      <path clip-path="url(#p779ce3c7bc)" d="M 57.6 115.422002 
L 414.72 115.422002 
" style="fill:none;stroke:#b0b0b0;stroke-linecap:square;stroke-width:0.8;"/>
     </g>
     <g id="line2d_28">
      <g>
       <use style="stroke:#000000;stroke-width:0.8;" x="57.6" xlink:href="#mc24acba264" y="115.422002"/>
      </g>
     </g>
     <g id="text_15">
      <!-- 0.0150 -->
      <g transform="translate(15.609375 119.221221)scale(0.1 -0.1)">
       <use xlink:href="#DejaVuSans-30"/>
       <use x="63.623047" xlink:href="#DejaVuSans-2e"/>
       <use x="95.410156" xlink:href="#DejaVuSans-30"/>
       <use x="159.033203" xlink:href="#DejaVuSans-31"/>
       <use x="222.65625" xlink:href="#DejaVuSans-35"/>
       <use x="286.279297" xlink:href="#DejaVuSans-30"/>
      </g>
     </g>
    </g>
    <g id="ytick_8">
     <g id="line2d_29">
      <path clip-path="url(#p779ce3c7bc)" d="M 57.6 85.612845 
L 414.72 85.612845 
" style="fill:none;stroke:#b0b0b0;stroke-linecap:square;stroke-width:0.8;"/>
     </g>
     <g id="line2d_30">
      <g>
       <use style="stroke:#000000;stroke-width:0.8;" x="57.6" xlink:href="#mc24acba264" y="85.612845"/>
      </g>
     </g>
     <g id="text_16">
      <!-- 0.0175 -->
      <g transform="translate(15.609375 89.412063)scale(0.1 -0.1)">
       <use xlink:href="#DejaVuSans-30"/>
       <use x="63.623047" xlink:href="#DejaVuSans-2e"/>
       <use x="95.410156" xlink:href="#DejaVuSans-30"/>
       <use x="159.033203" xlink:href="#DejaVuSans-31"/>
       <use x="222.65625" xlink:href="#DejaVuSans-37"/>
       <use x="286.279297" xlink:href="#DejaVuSans-35"/>
      </g>
     </g>
    </g>
    <g id="ytick_9">
     <g id="line2d_31">
      <path clip-path="url(#p779ce3c7bc)" d="M 57.6 55.803687 
L 414.72 55.803687 
" style="fill:none;stroke:#b0b0b0;stroke-linecap:square;stroke-width:0.8;"/>
     </g>
     <g id="line2d_32">
      <g>
       <use style="stroke:#000000;stroke-width:0.8;" x="57.6" xlink:href="#mc24acba264" y="55.803687"/>
      </g>
     </g>
     <g id="text_17">
      <!-- 0.0200 -->
      <g transform="translate(15.609375 59.602906)scale(0.1 -0.1)">
       <use xlink:href="#DejaVuSans-30"/>
       <use x="63.623047" xlink:href="#DejaVuSans-2e"/>
       <use x="95.410156" xlink:href="#DejaVuSans-30"/>
       <use x="159.033203" xlink:href="#DejaVuSans-32"/>
       <use x="222.65625" xlink:href="#DejaVuSans-30"/>
       <use x="286.279297" xlink:href="#DejaVuSans-30"/>
      </g>
     </g>
    </g>
    <g id="text_18">
     <!-- $\rho_\mathrm{xx}$ ($\Omega$) -->
     <g transform="translate(9.509375 191.328)rotate(-90)scale(0.1 -0.1)">
      <defs>
       <path d="M 1203 2875 
Q 1453 3194 1981 3475 
Q 2188 3584 2756 3584 
Q 3394 3584 3694 3078 
Q 3994 2572 3834 1747 
Q 3672 922 3175 415 
Q 2678 -91 2041 -91 
Q 1656 -91 1409 63 
Q 1163 213 1044 525 
L 681 -1331 
L 103 -1331 
L 697 1716 
Q 838 2438 1203 2875 
z
M 3238 1747 
Q 3359 2381 3169 2744 
Q 2978 3103 2522 3103 
Q 2066 3103 1734 2744 
Q 1403 2381 1281 1747 
Q 1156 1113 1347 750 
Q 1538 391 1994 391 
Q 2450 391 2781 750 
Q 3113 1113 3238 1747 
z
" id="DejaVuSans-Oblique-3c1" transform="scale(0.015625)"/>
       <path d="M 3513 3500 
L 2247 1797 
L 3578 0 
L 2900 0 
L 1881 1375 
L 863 0 
L 184 0 
L 1544 1831 
L 300 3500 
L 978 3500 
L 1906 2253 
L 2834 3500 
L 3513 3500 
z
" id="DejaVuSans-78" transform="scale(0.015625)"/>
       <path d="M 4647 556 
L 4647 0 
L 2772 0 
L 2772 556 
Q 3325 859 3634 1378 
Q 3944 1897 3944 2528 
Q 3944 3278 3531 3731 
Q 3119 4184 2444 4184 
Q 1769 4184 1355 3729 
Q 941 3275 941 2528 
Q 941 1897 1250 1378 
Q 1563 859 2119 556 
L 2119 0 
L 244 0 
L 244 556 
L 1241 556 
Q 747 991 519 1456 
Q 294 1922 294 2497 
Q 294 3491 894 4106 
Q 1491 4722 2444 4722 
Q 3391 4722 3994 4106 
Q 4594 3494 4594 2528 
Q 4594 1922 4372 1459 
Q 4150 997 3647 556 
L 4647 556 
z
" id="DejaVuSans-3a9" transform="scale(0.015625)"/>
      </defs>
      <use transform="translate(0 0.125)" xlink:href="#DejaVuSans-Oblique-3c1"/>
      <use transform="translate(63.476562 -16.28125)scale(0.7)" xlink:href="#DejaVuSans-78"/>
      <use transform="translate(104.902344 -16.28125)scale(0.7)" xlink:href="#DejaVuSans-78"/>
      <use transform="translate(149.0625 0.125)" xlink:href="#DejaVuSans-20"/>
      <use transform="translate(180.849609 0.125)" xlink:href="#DejaVuSans-28"/>
      <use transform="translate(219.863281 0.125)" xlink:href="#DejaVuSans-3a9"/>
      <use transform="translate(296.279297 0.125)" xlink:href="#DejaVuSans-29"/>
     </g>
    </g>
   </g>
   <g id="line2d_33">
    <path clip-path="url(#p779ce3c7bc)" d="M 73.832727 293.924882 
L 78.093818 294.013942 
L 78.161455 293.943272 
L 78.229091 294.068178 
L 78.296727 293.767326 
L 78.364364 294.12739 
L 78.432 293.882683 
L 78.499636 294.02176 
L 78.567273 294.078749 
L 78.634909 293.657788 
L 78.702545 294.126767 
L 78.770182 294.065158 
L 78.837818 293.66263 
L 78.973091 294.108956 
L 79.040727 293.707848 
L 79.176 294.156795 
L 79.311273 293.754178 
L 79.378909 294.128544 
L 79.446545 294.04668 
L 79.514182 293.698566 
L 79.581818 293.753778 
L 79.649455 294.181003 
L 79.717091 293.989645 
L 79.784727 293.612392 
L 79.852364 293.689815 
L 79.987636 294.216095 
L 80.122909 293.319179 
L 80.258182 294.222225 
L 80.325818 294.139871 
L 80.461091 293.160159 
L 80.664 294.223335 
L 80.731636 294.009101 
L 80.866909 293.115606 
L 81.069818 294.211964 
L 81.137455 294.113575 
L 81.272727 293.023522 
L 81.340364 293.234428 
L 81.475636 294.174252 
L 81.610909 293.996841 
L 81.746182 293.136527 
L 81.813818 293.244021 
L 82.016727 294.0887 
L 82.287273 293.087489 
L 82.557818 293.969656 
L 82.625455 293.881261 
L 82.693091 293.749425 
L 82.896 292.593984 
L 83.166545 294.060627 
L 83.234182 293.999861 
L 83.504727 292.711969 
L 83.572364 292.039641 
L 83.64 292.173245 
L 83.978182 294.182647 
L 84.045818 294.065958 
L 84.248727 292.897107 
L 84.451636 291.628143 
L 84.925091 294.135873 
L 85.060364 294.070843 
L 85.128 293.876642 
L 85.398545 290.773861 
L 85.466182 290.854166 
L 85.804364 292.965954 
L 85.939636 293.112542 
L 86.007273 292.960541 
L 86.277818 293.932522 
L 86.345455 293.861005 
L 86.480727 293.076916 
L 86.616 290.91103 
L 86.683636 290.956865 
L 86.954182 291.784141 
L 87.157091 292.489866 
L 87.224727 292.383257 
L 87.427636 291.680727 
L 87.630545 291.922729 
L 87.833455 293.093263 
L 87.968727 292.576575 
L 88.104 292.119231 
L 88.239273 292.90884 
L 88.306909 292.786229 
L 88.509818 291.500918 
L 88.577455 291.68961 
L 88.712727 292.155479 
L 89.186182 291.034333 
L 89.253818 290.978184 
L 89.592 290.230523 
L 89.997818 292.323567 
L 90.133091 292.773793 
L 90.268364 292.591504 
L 90.403636 292.832791 
L 90.674182 293.418411 
L 90.809455 292.351635 
L 91.147636 289.933099 
L 91.350545 289.296304 
L 91.418182 289.534384 
L 91.688727 288.889063 
L 91.824 288.622557 
L 91.891636 288.669453 
L 92.026909 288.580622 
L 92.162182 288.381604 
L 92.297455 289.73054 
L 92.500364 292.196699 
L 92.838545 291.670425 
L 92.906182 291.73083 
L 93.447273 293.232917 
L 93.514909 293.187787 
L 93.853091 293.599644 
L 93.988364 293.109254 
L 94.123636 290.637406 
L 94.326545 287.97366 
L 94.597091 286.568587 
L 95.138182 285.866415 
L 95.273455 286.132217 
L 95.408727 287.507433 
L 95.611636 289.643831 
L 95.679273 289.704248 
L 96.017455 289.398645 
L 96.220364 290.143468 
L 96.558545 291.768151 
L 96.693818 292.245741 
L 96.761455 292.045317 
L 96.829091 291.45401 
L 96.896727 291.708449 
L 97.032 291.498795 
L 97.167273 292.115678 
L 97.234909 291.952217 
L 97.302545 292.016187 
L 97.370182 292.130606 
L 97.505455 291.444066 
L 97.573091 291.583358 
L 97.640727 291.431272 
L 97.708364 290.889699 
L 97.776 290.923813 
L 97.843636 291.226578 
L 98.046545 290.481755 
L 98.114182 290.51303 
L 98.317091 290.169045 
L 98.587636 290.549982 
L 98.722909 290.963614 
L 98.790545 290.864123 
L 98.858182 290.551413 
L 99.331636 281.906268 
L 99.534545 281.934766 
L 99.669818 282.138064 
L 99.805091 282.777685 
L 100.143273 286.395181 
L 100.278545 286.510316 
L 100.549091 286.4897 
L 100.752 287.026289 
L 101.428364 289.409662 
L 101.698909 290.584811 
L 102.104727 292.34844 
L 102.375273 292.99661 
L 102.510545 293.349828 
L 102.781091 291.786621 
L 102.916364 290.7234 
L 103.051636 290.78452 
L 103.186909 289.522305 
L 103.322182 290.043965 
L 103.457455 288.703579 
L 103.592727 288.737692 
L 103.728 288.23449 
L 103.863273 288.169101 
L 104.404364 286.443508 
L 104.539636 286.319848 
L 104.945455 285.528116 
L 105.080727 285.363236 
L 105.216 285.421507 
L 105.486545 285.944586 
L 105.621818 286.031295 
L 106.839273 290.132093 
L 107.109818 284.781874 
L 107.380364 280.983853 
L 107.786182 280.514777 
L 108.056727 280.318632 
L 108.462545 280.250429 
L 108.733091 280.644148 
L 109.138909 282.048517 
L 109.409455 286.910439 
L 109.68 288.902573 
L 109.950545 288.12788 
L 110.356364 290.643094 
L 110.897455 292.427685 
L 111.844364 294.241414 
L 112.385455 294.347665 
L 112.656 294.349086 
L 112.791273 294.229332 
L 113.061818 293.059508 
L 113.197091 291.5393 
L 113.602909 284.70939 
L 114.008727 280.071216 
L 114.144 278.956831 
L 114.279273 278.880162 
L 114.414545 279.012276 
L 114.549818 278.163788 
L 114.685091 278.220545 
L 114.955636 277.127502 
L 115.090909 276.522019 
L 115.496727 277.435968 
L 115.632 277.214187 
L 116.443636 281.263821 
L 117.255273 282.735046 
L 117.661091 283.673176 
L 118.337455 285.607003 
L 118.743273 287.545815 
L 119.554909 293.234694 
L 119.825455 293.994087 
L 120.096 294.26309 
L 120.501818 294.375738 
L 121.042909 294.326344 
L 121.178182 294.294006 
L 121.313455 294.147245 
L 121.448727 293.795443 
L 121.719273 291.422746 
L 122.395636 276.284619 
L 122.801455 267.898229 
L 123.207273 264.907536 
L 123.477818 264.617553 
L 123.613091 264.637465 
L 123.748364 264.793904 
L 124.018909 266.823669 
L 125.101091 284.131581 
L 125.371636 286.206132 
L 126.048 288.693623 
L 126.453818 290.542875 
L 126.589091 291.235819 
L 126.859636 293.195605 
L 127.130182 294.01683 
L 127.400727 294.265933 
L 127.941818 294.376093 
L 129.294545 294.399903 
L 131.594182 294.384267 
L 134.570182 294.308221 
L 135.381818 294.100694 
L 136.328727 293.444707 
L 136.869818 292.37367 
L 137.681455 288.996388 
L 138.357818 284.210468 
L 138.898909 277.791293 
L 139.845818 263.542992 
L 140.386909 258.158743 
L 140.657455 256.876591 
L 140.792727 256.634899 
L 141.063273 256.63776 
L 141.333818 257.402544 
L 141.604364 259.003057 
L 141.874909 261.214778 
L 142.821818 270.849098 
L 143.498182 276.740937 
L 144.039273 280.126661 
L 144.174545 280.634132 
L 144.580364 282.756366 
L 145.256727 285.977996 
L 146.203636 290.916706 
L 146.338909 291.23155 
L 146.609455 291.317544 
L 147.015273 292.026847 
L 147.285818 292.746082 
L 147.826909 293.301856 
L 148.232727 293.525017 
L 148.773818 293.874687 
L 149.991273 294.266289 
L 150.397091 294.365077 
L 151.208727 294.443255 
L 152.426182 294.427619 
L 154.455273 294.390663 
L 157.972364 293.756 
L 159.325091 293.170375 
L 160.272 292.564139 
L 160.813091 291.788052 
L 161.218909 290.03259 
L 161.624727 286.885566 
L 162.436364 273.774449 
L 163.248 260.987274 
L 163.653818 257.359857 
L 163.924364 256.268246 
L 164.194909 255.887285 
L 164.330182 255.893008 
L 164.736 256.569557 
L 165.412364 258.218361 
L 165.818182 258.934854 
L 166.088727 259.378295 
L 166.494545 259.651228 
L 166.900364 259.605679 
L 167.306182 259.264543 
L 168.253091 257.428061 
L 171.229091 247.830704 
L 172.176 242.969308 
L 172.446545 241.849199 
L 172.717091 241.149876 
L 172.852364 240.865616 
L 172.987636 240.962317 
L 173.258182 240.422175 
L 173.664 241.311918 
L 174.746182 252.322348 
L 175.693091 265.226017 
L 176.098909 270.280458 
L 176.775273 276.131161 
L 177.045818 278.2618 
L 178.669091 286.690829 
L 178.939636 287.64744 
L 180.157091 293.370794 
L 180.562909 294.394216 
L 181.104 294.707639 
L 181.780364 294.554126 
L 183.133091 294.561233 
L 193.413818 294.555547 
L 194.496 294.54844 
L 195.984 294.191664 
L 196.525091 293.424097 
L 197.066182 292.25001 
L 197.607273 290.466123 
L 198.689455 286.530217 
L 199.771636 284.348342 
L 200.448 283.627687 
L 200.853818 283.384623 
L 201.259636 283.286551 
L 202.341818 283.252438 
L 203.559273 283.478439 
L 205.317818 284.45922 
L 206.264727 285.788231 
L 207.617455 288.376632 
L 208.293818 289.24229 
L 208.564364 289.327568 
L 208.699636 289.432758 
L 208.970182 290.05676 
L 209.646545 289.600489 
L 209.917091 289.508092 
L 210.458182 288.639608 
L 210.999273 286.805964 
L 211.269818 285.45847 
L 211.810909 279.693236 
L 212.352 271.875367 
L 213.704727 246.159007 
L 214.245818 239.256637 
L 214.516364 238.375359 
L 214.786909 238.881399 
L 215.057455 240.916768 
L 215.598545 249.22935 
L 217.492364 282.76631 
L 218.033455 288.362407 
L 218.574545 291.628847 
L 219.115636 293.2251 
L 219.656727 293.840573 
L 220.197818 293.87753 
L 221.28 293.452525 
L 222.362182 292.819997 
L 223.714909 291.833528 
L 225.067636 290.171894 
L 225.879273 288.437753 
L 226.420364 286.601282 
L 226.961455 283.741403 
L 227.502545 278.152341 
L 228.314182 263.38095 
L 229.666909 239.83088 
L 230.208 237.693087 
L 230.478545 237.68164 
L 230.749091 238.466336 
L 231.560727 241.593436 
L 232.913455 245.789373 
L 233.725091 247.358647 
L 234.266182 248.120688 
L 234.807273 248.302643 
L 235.077818 248.348072 
L 235.618909 247.938733 
L 236.430545 247.097161 
L 237.242182 246.824228 
L 237.783273 246.812781 
L 238.594909 247.711348 
L 241.300364 255.352866 
L 241.841455 256.14889 
L 242.112 256.160218 
L 242.382545 256.501354 
L 242.653091 256.262523 
L 243.194182 256.251195 
L 243.735273 255.887285 
L 245.088 256.410376 
L 245.899636 257.683943 
L 246.440727 258.821102 
L 246.981818 260.367601 
L 249.416727 268.634516 
L 249.957818 269.612494 
L 250.228364 269.817104 
L 250.498909 269.771675 
L 250.769455 269.475968 
L 251.04 268.827798 
L 251.851636 265.666597 
L 252.663273 259.958262 
L 253.204364 254.72747 
L 254.557091 237.249526 
L 255.098182 231.620723 
L 255.368727 229.869614 
L 255.909818 225.446173 
L 256.180364 222.739859 
L 256.450909 218.521029 
L 257.803636 190.331224 
L 259.156364 171.534761 
L 259.697455 169.635322 
L 259.968 167.270859 
L 260.238545 167.509332 
L 260.509091 169.612667 
L 260.779636 173.149225 
L 261.050182 173.808604 
L 261.320727 174.808999 
L 262.402909 187.101819 
L 264.296727 207.67288 
L 265.649455 226.975621 
L 267.813818 251.955696 
L 271.330909 286.06399 
L 271.872 288.74053 
L 272.413091 291.031841 
L 272.954182 292.55987 
L 273.224727 293.442575 
L 274.036364 294.720432 
L 274.848 295.085739 
L 275.389091 295.115587 
L 276.741818 295.067259 
L 278.906182 295.058731 
L 284.317091 295.065838 
L 286.481455 295.054466 
L 287.563636 295.07721 
L 288.916364 295.060153 
L 295.68 295.051624 
L 297.303273 295.065838 
L 300.008727 295.054466 
L 307.854545 295.074367 
L 311.101091 295.050202 
L 312.453818 295.064417 
L 319.488 295.044517 
L 320.840727 295.072946 
L 326.522182 295.064417 
L 330.850909 295.105638 
L 333.556364 295.111323 
L 339.778909 295.196608 
L 344.919273 295.290421 
L 347.354182 295.374284 
L 351.953455 295.425456 
L 353.306182 294.987658 
L 353.847273 294.692004 
L 354.929455 293.751024 
L 355.741091 292.55987 
L 356.282182 291.34882 
L 357.093818 288.767537 
L 357.634909 286.200444 
L 358.446545 280.875825 
L 359.258182 272.87612 
L 360.340364 256.262523 
L 361.152 239.592049 
L 362.504727 198.006843 
L 363.316364 169.078487 
L 364.128 136.170369 
L 365.751273 79.039329 
L 366.292364 65.962648 
L 366.833455 57.821171 
L 367.104 55.205119 
L 367.374545 53.863707 
L 367.645091 53.568 
L 367.915636 54.364501 
L 368.186182 56.274672 
L 368.727273 62.573943 
L 369.268364 72.012714 
L 370.621091 105.387048 
L 373.326545 171.113856 
L 374.408727 192.662419 
L 375.220364 206.023957 
L 376.032 218.964589 
L 378.466909 242.332584 
L 378.737455 243.378647 
L 379.008 243.390094 
L 379.549091 241.729843 
L 379.819636 241.604764 
L 380.090182 241.889024 
L 380.631273 245.960001 
L 380.901818 246.096408 
L 381.442909 242.423562 
L 381.713455 241.650312 
L 381.984 241.286402 
L 382.254545 241.775391 
L 382.525091 242.855556 
L 382.795636 242.730477 
L 383.066182 242.867003 
L 383.877818 236.499051 
L 384.148364 235.930531 
L 384.418909 233.508358 
L 384.689455 232.382645 
L 384.96 232.143814 
L 385.230545 230.893022 
L 385.771636 224.934409 
L 386.042182 223.058221 
L 386.583273 224.036081 
L 386.853818 223.206074 
L 387.124364 221.625354 
L 388.206545 211.197992 
L 388.477091 210.07216 
L 388.747636 210.811307 
L 389.288727 214.552476 
L 389.559273 213.620046 
L 389.829818 210.299663 
L 390.641455 192.696521 
L 391.723636 182.814785 
L 392.264727 173.979112 
L 393.076364 167.316169 
L 393.888 160.253783 
L 394.970182 149.099197 
L 395.511273 144.948569 
L 395.781818 144.231957 
L 396.322909 142.105968 
L 396.593455 142.173933 
L 396.864 142.628225 
L 397.405091 143.015744 
L 397.675636 143.31145 
L 397.946182 143.129018 
L 398.487273 143.890941 
L 398.487273 143.890941 
" style="fill:none;stroke:#1f77b4;stroke-linecap:square;stroke-width:1.5;"/>
   </g>
   <g id="patch_3">
    <path d="M 57.6 307.584 
L 57.6 41.472 
" style="fill:none;stroke:#000000;stroke-linecap:square;stroke-linejoin:miter;stroke-width:0.8;"/>
   </g>
   <g id="patch_4">
    <path d="M 414.72 307.584 
L 414.72 41.472 
" style="fill:none;stroke:#000000;stroke-linecap:square;stroke-linejoin:miter;stroke-width:0.8;"/>
   </g>
   <g id="patch_5">
    <path d="M 57.6 307.584 
L 414.72 307.584 
" style="fill:none;stroke:#000000;stroke-linecap:square;stroke-linejoin:miter;stroke-width:0.8;"/>
   </g>
   <g id="patch_6">
    <path d="M 57.6 41.472 
L 414.72 41.472 
" style="fill:none;stroke:#000000;stroke-linecap:square;stroke-linejoin:miter;stroke-width:0.8;"/>
   </g>
   <g id="text_19">
    <!-- Long. Resistivity with scattered filling factor minima start &amp; endpoints -->
    <g transform="translate(26.007188 35.472)scale(0.12 -0.12)">
     <defs>
      <path d="M 628 4666 
L 1259 4666 
L 1259 531 
L 3531 531 
L 3531 0 
L 628 0 
L 628 4666 
z
" id="DejaVuSans-4c" transform="scale(0.015625)"/>
      <path d="M 1959 3097 
Q 1497 3097 1228 2736 
Q 959 2375 959 1747 
Q 959 1119 1226 758 
Q 1494 397 1959 397 
Q 2419 397 2687 759 
Q 2956 1122 2956 1747 
Q 2956 2369 2687 2733 
Q 2419 3097 1959 3097 
z
M 1959 3584 
Q 2709 3584 3137 3096 
Q 3566 2609 3566 1747 
Q 3566 888 3137 398 
Q 2709 -91 1959 -91 
Q 1206 -91 779 398 
Q 353 888 353 1747 
Q 353 2609 779 3096 
Q 1206 3584 1959 3584 
z
" id="DejaVuSans-6f" transform="scale(0.015625)"/>
      <path d="M 3513 2113 
L 3513 0 
L 2938 0 
L 2938 2094 
Q 2938 2591 2744 2837 
Q 2550 3084 2163 3084 
Q 1697 3084 1428 2787 
Q 1159 2491 1159 1978 
L 1159 0 
L 581 0 
L 581 3500 
L 1159 3500 
L 1159 2956 
Q 1366 3272 1645 3428 
Q 1925 3584 2291 3584 
Q 2894 3584 3203 3211 
Q 3513 2838 3513 2113 
z
" id="DejaVuSans-6e" transform="scale(0.015625)"/>
      <path d="M 2906 1791 
Q 2906 2416 2648 2759 
Q 2391 3103 1925 3103 
Q 1463 3103 1205 2759 
Q 947 2416 947 1791 
Q 947 1169 1205 825 
Q 1463 481 1925 481 
Q 2391 481 2648 825 
Q 2906 1169 2906 1791 
z
M 3481 434 
Q 3481 -459 3084 -895 
Q 2688 -1331 1869 -1331 
Q 1566 -1331 1297 -1286 
Q 1028 -1241 775 -1147 
L 775 -588 
Q 1028 -725 1275 -790 
Q 1522 -856 1778 -856 
Q 2344 -856 2625 -561 
Q 2906 -266 2906 331 
L 2906 616 
Q 2728 306 2450 153 
Q 2172 0 1784 0 
Q 1141 0 747 490 
Q 353 981 353 1791 
Q 353 2603 747 3093 
Q 1141 3584 1784 3584 
Q 2172 3584 2450 3431 
Q 2728 3278 2906 2969 
L 2906 3500 
L 3481 3500 
L 3481 434 
z
" id="DejaVuSans-67" transform="scale(0.015625)"/>
      <path d="M 2841 2188 
Q 3044 2119 3236 1894 
Q 3428 1669 3622 1275 
L 4263 0 
L 3584 0 
L 2988 1197 
Q 2756 1666 2539 1819 
Q 2322 1972 1947 1972 
L 1259 1972 
L 1259 0 
L 628 0 
L 628 4666 
L 2053 4666 
Q 2853 4666 3247 4331 
Q 3641 3997 3641 3322 
Q 3641 2881 3436 2590 
Q 3231 2300 2841 2188 
z
M 1259 4147 
L 1259 2491 
L 2053 2491 
Q 2509 2491 2742 2702 
Q 2975 2913 2975 3322 
Q 2975 3731 2742 3939 
Q 2509 4147 2053 4147 
L 1259 4147 
z
" id="DejaVuSans-52" transform="scale(0.015625)"/>
      <path d="M 3597 1894 
L 3597 1613 
L 953 1613 
Q 991 1019 1311 708 
Q 1631 397 2203 397 
Q 2534 397 2845 478 
Q 3156 559 3463 722 
L 3463 178 
Q 3153 47 2828 -22 
Q 2503 -91 2169 -91 
Q 1331 -91 842 396 
Q 353 884 353 1716 
Q 353 2575 817 3079 
Q 1281 3584 2069 3584 
Q 2775 3584 3186 3129 
Q 3597 2675 3597 1894 
z
M 3022 2063 
Q 3016 2534 2758 2815 
Q 2500 3097 2075 3097 
Q 1594 3097 1305 2825 
Q 1016 2553 972 2059 
L 3022 2063 
z
" id="DejaVuSans-65" transform="scale(0.015625)"/>
      <path d="M 2834 3397 
L 2834 2853 
Q 2591 2978 2328 3040 
Q 2066 3103 1784 3103 
Q 1356 3103 1142 2972 
Q 928 2841 928 2578 
Q 928 2378 1081 2264 
Q 1234 2150 1697 2047 
L 1894 2003 
Q 2506 1872 2764 1633 
Q 3022 1394 3022 966 
Q 3022 478 2636 193 
Q 2250 -91 1575 -91 
Q 1294 -91 989 -36 
Q 684 19 347 128 
L 347 722 
Q 666 556 975 473 
Q 1284 391 1588 391 
Q 1994 391 2212 530 
Q 2431 669 2431 922 
Q 2431 1156 2273 1281 
Q 2116 1406 1581 1522 
L 1381 1569 
Q 847 1681 609 1914 
Q 372 2147 372 2553 
Q 372 3047 722 3315 
Q 1072 3584 1716 3584 
Q 2034 3584 2315 3537 
Q 2597 3491 2834 3397 
z
" id="DejaVuSans-73" transform="scale(0.015625)"/>
      <path d="M 603 3500 
L 1178 3500 
L 1178 0 
L 603 0 
L 603 3500 
z
M 603 4863 
L 1178 4863 
L 1178 4134 
L 603 4134 
L 603 4863 
z
" id="DejaVuSans-69" transform="scale(0.015625)"/>
      <path d="M 1172 4494 
L 1172 3500 
L 2356 3500 
L 2356 3053 
L 1172 3053 
L 1172 1153 
Q 1172 725 1289 603 
Q 1406 481 1766 481 
L 2356 481 
L 2356 0 
L 1766 0 
Q 1100 0 847 248 
Q 594 497 594 1153 
L 594 3053 
L 172 3053 
L 172 3500 
L 594 3500 
L 594 4494 
L 1172 4494 
z
" id="DejaVuSans-74" transform="scale(0.015625)"/>
      <path d="M 191 3500 
L 800 3500 
L 1894 563 
L 2988 3500 
L 3597 3500 
L 2284 0 
L 1503 0 
L 191 3500 
z
" id="DejaVuSans-76" transform="scale(0.015625)"/>
      <path d="M 2059 -325 
Q 1816 -950 1584 -1140 
Q 1353 -1331 966 -1331 
L 506 -1331 
L 506 -850 
L 844 -850 
Q 1081 -850 1212 -737 
Q 1344 -625 1503 -206 
L 1606 56 
L 191 3500 
L 800 3500 
L 1894 763 
L 2988 3500 
L 3597 3500 
L 2059 -325 
z
" id="DejaVuSans-79" transform="scale(0.015625)"/>
      <path d="M 269 3500 
L 844 3500 
L 1563 769 
L 2278 3500 
L 2956 3500 
L 3675 769 
L 4391 3500 
L 4966 3500 
L 4050 0 
L 3372 0 
L 2619 2869 
L 1863 0 
L 1184 0 
L 269 3500 
z
" id="DejaVuSans-77" transform="scale(0.015625)"/>
      <path d="M 3513 2113 
L 3513 0 
L 2938 0 
L 2938 2094 
Q 2938 2591 2744 2837 
Q 2550 3084 2163 3084 
Q 1697 3084 1428 2787 
Q 1159 2491 1159 1978 
L 1159 0 
L 581 0 
L 581 4863 
L 1159 4863 
L 1159 2956 
Q 1366 3272 1645 3428 
Q 1925 3584 2291 3584 
Q 2894 3584 3203 3211 
Q 3513 2838 3513 2113 
z
" id="DejaVuSans-68" transform="scale(0.015625)"/>
      <path d="M 3122 3366 
L 3122 2828 
Q 2878 2963 2633 3030 
Q 2388 3097 2138 3097 
Q 1578 3097 1268 2742 
Q 959 2388 959 1747 
Q 959 1106 1268 751 
Q 1578 397 2138 397 
Q 2388 397 2633 464 
Q 2878 531 3122 666 
L 3122 134 
Q 2881 22 2623 -34 
Q 2366 -91 2075 -91 
Q 1284 -91 818 406 
Q 353 903 353 1747 
Q 353 2603 823 3093 
Q 1294 3584 2113 3584 
Q 2378 3584 2631 3529 
Q 2884 3475 3122 3366 
z
" id="DejaVuSans-63" transform="scale(0.015625)"/>
      <path d="M 2194 1759 
Q 1497 1759 1228 1600 
Q 959 1441 959 1056 
Q 959 750 1161 570 
Q 1363 391 1709 391 
Q 2188 391 2477 730 
Q 2766 1069 2766 1631 
L 2766 1759 
L 2194 1759 
z
M 3341 1997 
L 3341 0 
L 2766 0 
L 2766 531 
Q 2569 213 2275 61 
Q 1981 -91 1556 -91 
Q 1019 -91 701 211 
Q 384 513 384 1019 
Q 384 1609 779 1909 
Q 1175 2209 1959 2209 
L 2766 2209 
L 2766 2266 
Q 2766 2663 2505 2880 
Q 2244 3097 1772 3097 
Q 1472 3097 1187 3025 
Q 903 2953 641 2809 
L 641 3341 
Q 956 3463 1253 3523 
Q 1550 3584 1831 3584 
Q 2591 3584 2966 3190 
Q 3341 2797 3341 1997 
z
" id="DejaVuSans-61" transform="scale(0.015625)"/>
      <path d="M 2631 2963 
Q 2534 3019 2420 3045 
Q 2306 3072 2169 3072 
Q 1681 3072 1420 2755 
Q 1159 2438 1159 1844 
L 1159 0 
L 581 0 
L 581 3500 
L 1159 3500 
L 1159 2956 
Q 1341 3275 1631 3429 
Q 1922 3584 2338 3584 
Q 2397 3584 2469 3576 
Q 2541 3569 2628 3553 
L 2631 2963 
z
" id="DejaVuSans-72" transform="scale(0.015625)"/>
      <path d="M 2906 2969 
L 2906 4863 
L 3481 4863 
L 3481 0 
L 2906 0 
L 2906 525 
Q 2725 213 2448 61 
Q 2172 -91 1784 -91 
Q 1150 -91 751 415 
Q 353 922 353 1747 
Q 353 2572 751 3078 
Q 1150 3584 1784 3584 
Q 2172 3584 2448 3432 
Q 2725 3281 2906 2969 
z
M 947 1747 
Q 947 1113 1208 752 
Q 1469 391 1925 391 
Q 2381 391 2643 752 
Q 2906 1113 2906 1747 
Q 2906 2381 2643 2742 
Q 2381 3103 1925 3103 
Q 1469 3103 1208 2742 
Q 947 2381 947 1747 
z
" id="DejaVuSans-64" transform="scale(0.015625)"/>
      <path d="M 2375 4863 
L 2375 4384 
L 1825 4384 
Q 1516 4384 1395 4259 
Q 1275 4134 1275 3809 
L 1275 3500 
L 2222 3500 
L 2222 3053 
L 1275 3053 
L 1275 0 
L 697 0 
L 697 3053 
L 147 3053 
L 147 3500 
L 697 3500 
L 697 3744 
Q 697 4328 969 4595 
Q 1241 4863 1831 4863 
L 2375 4863 
z
" id="DejaVuSans-66" transform="scale(0.015625)"/>
      <path d="M 603 4863 
L 1178 4863 
L 1178 0 
L 603 0 
L 603 4863 
z
" id="DejaVuSans-6c" transform="scale(0.015625)"/>
      <path d="M 3328 2828 
Q 3544 3216 3844 3400 
Q 4144 3584 4550 3584 
Q 5097 3584 5394 3201 
Q 5691 2819 5691 2113 
L 5691 0 
L 5113 0 
L 5113 2094 
Q 5113 2597 4934 2840 
Q 4756 3084 4391 3084 
Q 3944 3084 3684 2787 
Q 3425 2491 3425 1978 
L 3425 0 
L 2847 0 
L 2847 2094 
Q 2847 2600 2669 2842 
Q 2491 3084 2119 3084 
Q 1678 3084 1418 2786 
Q 1159 2488 1159 1978 
L 1159 0 
L 581 0 
L 581 3500 
L 1159 3500 
L 1159 2956 
Q 1356 3278 1631 3431 
Q 1906 3584 2284 3584 
Q 2666 3584 2933 3390 
Q 3200 3197 3328 2828 
z
" id="DejaVuSans-6d" transform="scale(0.015625)"/>
      <path d="M 1556 2509 
Q 1272 2256 1139 2004 
Q 1006 1753 1006 1478 
Q 1006 1022 1337 719 
Q 1669 416 2169 416 
Q 2466 416 2725 514 
Q 2984 613 3213 813 
L 1556 2509 
z
M 1997 2859 
L 3584 1234 
Q 3769 1513 3872 1830 
Q 3975 2147 3994 2503 
L 4575 2503 
Q 4538 2091 4375 1687 
Q 4213 1284 3922 891 
L 4794 0 
L 4006 0 
L 3559 459 
Q 3234 181 2878 45 
Q 2522 -91 2113 -91 
Q 1359 -91 881 339 
Q 403 769 403 1441 
Q 403 1841 612 2192 
Q 822 2544 1241 2853 
Q 1091 3050 1012 3245 
Q 934 3441 934 3628 
Q 934 4134 1281 4442 
Q 1628 4750 2203 4750 
Q 2463 4750 2720 4694 
Q 2978 4638 3244 4525 
L 3244 3956 
Q 2972 4103 2725 4179 
Q 2478 4256 2266 4256 
Q 1938 4256 1733 4082 
Q 1528 3909 1528 3634 
Q 1528 3475 1620 3314 
Q 1713 3153 1997 2859 
z
" id="DejaVuSans-26" transform="scale(0.015625)"/>
      <path d="M 1159 525 
L 1159 -1331 
L 581 -1331 
L 581 3500 
L 1159 3500 
L 1159 2969 
Q 1341 3281 1617 3432 
Q 1894 3584 2278 3584 
Q 2916 3584 3314 3078 
Q 3713 2572 3713 1747 
Q 3713 922 3314 415 
Q 2916 -91 2278 -91 
Q 1894 -91 1617 61 
Q 1341 213 1159 525 
z
M 3116 1747 
Q 3116 2381 2855 2742 
Q 2594 3103 2138 3103 
Q 1681 3103 1420 2742 
Q 1159 2381 1159 1747 
Q 1159 1113 1420 752 
Q 1681 391 2138 391 
Q 2594 391 2855 752 
Q 3116 1113 3116 1747 
z
" id="DejaVuSans-70" transform="scale(0.015625)"/>
     </defs>
     <use xlink:href="#DejaVuSans-4c"/>
     <use x="53.962891" xlink:href="#DejaVuSans-6f"/>
     <use x="115.144531" xlink:href="#DejaVuSans-6e"/>
     <use x="178.523438" xlink:href="#DejaVuSans-67"/>
     <use x="242" xlink:href="#DejaVuSans-2e"/>
     <use x="273.787109" xlink:href="#DejaVuSans-20"/>
     <use x="305.574219" xlink:href="#DejaVuSans-52"/>
     <use x="370.556641" xlink:href="#DejaVuSans-65"/>
     <use x="432.080078" xlink:href="#DejaVuSans-73"/>
     <use x="484.179688" xlink:href="#DejaVuSans-69"/>
     <use x="511.962891" xlink:href="#DejaVuSans-73"/>
     <use x="564.0625" xlink:href="#DejaVuSans-74"/>
     <use x="603.271484" xlink:href="#DejaVuSans-69"/>
     <use x="631.054688" xlink:href="#DejaVuSans-76"/>
     <use x="690.234375" xlink:href="#DejaVuSans-69"/>
     <use x="718.017578" xlink:href="#DejaVuSans-74"/>
     <use x="757.226562" xlink:href="#DejaVuSans-79"/>
     <use x="816.40625" xlink:href="#DejaVuSans-20"/>
     <use x="848.193359" xlink:href="#DejaVuSans-77"/>
     <use x="929.980469" xlink:href="#DejaVuSans-69"/>
     <use x="957.763672" xlink:href="#DejaVuSans-74"/>
     <use x="996.972656" xlink:href="#DejaVuSans-68"/>
     <use x="1060.351562" xlink:href="#DejaVuSans-20"/>
     <use x="1092.138672" xlink:href="#DejaVuSans-73"/>
     <use x="1144.238281" xlink:href="#DejaVuSans-63"/>
     <use x="1199.21875" xlink:href="#DejaVuSans-61"/>
     <use x="1260.498047" xlink:href="#DejaVuSans-74"/>
     <use x="1299.707031" xlink:href="#DejaVuSans-74"/>
     <use x="1338.916016" xlink:href="#DejaVuSans-65"/>
     <use x="1400.439453" xlink:href="#DejaVuSans-72"/>
     <use x="1439.302734" xlink:href="#DejaVuSans-65"/>
     <use x="1500.826172" xlink:href="#DejaVuSans-64"/>
     <use x="1564.302734" xlink:href="#DejaVuSans-20"/>
     <use x="1596.089844" xlink:href="#DejaVuSans-66"/>
     <use x="1631.294922" xlink:href="#DejaVuSans-69"/>
     <use x="1659.078125" xlink:href="#DejaVuSans-6c"/>
     <use x="1686.861328" xlink:href="#DejaVuSans-6c"/>
     <use x="1714.644531" xlink:href="#DejaVuSans-69"/>
     <use x="1742.427734" xlink:href="#DejaVuSans-6e"/>
     <use x="1805.806641" xlink:href="#DejaVuSans-67"/>
     <use x="1869.283203" xlink:href="#DejaVuSans-20"/>
     <use x="1901.070312" xlink:href="#DejaVuSans-66"/>
     <use x="1936.275391" xlink:href="#DejaVuSans-61"/>
     <use x="1997.554688" xlink:href="#DejaVuSans-63"/>
     <use x="2052.535156" xlink:href="#DejaVuSans-74"/>
     <use x="2091.744141" xlink:href="#DejaVuSans-6f"/>
     <use x="2152.925781" xlink:href="#DejaVuSans-72"/>
     <use x="2194.039062" xlink:href="#DejaVuSans-20"/>
     <use x="2225.826172" xlink:href="#DejaVuSans-6d"/>
     <use x="2323.238281" xlink:href="#DejaVuSans-69"/>
     <use x="2351.021484" xlink:href="#DejaVuSans-6e"/>
     <use x="2414.400391" xlink:href="#DejaVuSans-69"/>
     <use x="2442.183594" xlink:href="#DejaVuSans-6d"/>
     <use x="2539.595703" xlink:href="#DejaVuSans-61"/>
     <use x="2600.875" xlink:href="#DejaVuSans-20"/>
     <use x="2632.662109" xlink:href="#DejaVuSans-73"/>
     <use x="2684.761719" xlink:href="#DejaVuSans-74"/>
     <use x="2723.970703" xlink:href="#DejaVuSans-61"/>
     <use x="2785.25" xlink:href="#DejaVuSans-72"/>
     <use x="2826.363281" xlink:href="#DejaVuSans-74"/>
     <use x="2865.572266" xlink:href="#DejaVuSans-20"/>
     <use x="2897.359375" xlink:href="#DejaVuSans-26"/>
     <use x="2975.337891" xlink:href="#DejaVuSans-20"/>
     <use x="3007.125" xlink:href="#DejaVuSans-65"/>
     <use x="3068.648438" xlink:href="#DejaVuSans-6e"/>
     <use x="3132.027344" xlink:href="#DejaVuSans-64"/>
     <use x="3195.503906" xlink:href="#DejaVuSans-70"/>
     <use x="3258.980469" xlink:href="#DejaVuSans-6f"/>
     <use x="3320.162109" xlink:href="#DejaVuSans-69"/>
     <use x="3347.945312" xlink:href="#DejaVuSans-6e"/>
     <use x="3411.324219" xlink:href="#DejaVuSans-74"/>
     <use x="3450.533203" xlink:href="#DejaVuSans-73"/>
    </g>
   </g>
   <g id="legend_1">
    <g id="patch_7">
     <path d="M 64.6 137.54075 
L 120.2 137.54075 
Q 122.2 137.54075 122.2 135.54075 
L 122.2 48.472 
Q 122.2 46.472 120.2 46.472 
L 64.6 46.472 
Q 62.6 46.472 62.6 48.472 
L 62.6 135.54075 
Q 62.6 137.54075 64.6 137.54075 
z
" style="fill:#ffffff;opacity:0.8;stroke:#cccccc;stroke-linejoin:miter;"/>
    </g>
    <g id="PathCollection_7">
     <g>
      <use style="fill:#0000ff;stroke:#0000ff;" x="76.6" xlink:href="#maef7cec32d" y="55.445438"/>
     </g>
    </g>
    <g id="text_20">
     <!-- $\nu$= 1 -->
     <g transform="translate(94.6 58.070438)scale(0.1 -0.1)">
      <defs>
       <path d="M 959 0 
L 572 3500 
L 1191 3500 
L 1522 563 
Q 1972 950 2391 1488 
Q 2706 1891 2788 2241 
Q 2825 2406 2809 2719 
Q 2794 3091 2544 3500 
L 3125 3500 
L 3125 3500 
Q 3288 3222 3353 2834 
Q 3416 2478 3369 2234 
Q 3250 1622 2719 1075 
Q 2025 363 1572 0 
L 959 0 
z
" id="DejaVuSans-Oblique-3bd" transform="scale(0.015625)"/>
       <path d="M 678 2906 
L 4684 2906 
L 4684 2381 
L 678 2381 
L 678 2906 
z
M 678 1631 
L 4684 1631 
L 4684 1100 
L 678 1100 
L 678 1631 
z
" id="DejaVuSans-3d" transform="scale(0.015625)"/>
      </defs>
      <use transform="translate(0 0.09375)" xlink:href="#DejaVuSans-Oblique-3bd"/>
      <use transform="translate(55.859375 0.09375)" xlink:href="#DejaVuSans-3d"/>
      <use transform="translate(139.648438 0.09375)" xlink:href="#DejaVuSans-20"/>
      <use transform="translate(171.435547 0.09375)" xlink:href="#DejaVuSans-31"/>
     </g>
    </g>
    <g id="PathCollection_8">
     <g>
      <use style="fill:#ff0000;stroke:#ff0000;" x="76.6" xlink:href="#mad6acd33a6" y="70.123563"/>
     </g>
    </g>
    <g id="text_21">
     <!-- $\nu$= 2 -->
     <g transform="translate(94.6 72.748563)scale(0.1 -0.1)">
      <use transform="translate(0 0.78125)" xlink:href="#DejaVuSans-Oblique-3bd"/>
      <use transform="translate(55.859375 0.78125)" xlink:href="#DejaVuSans-3d"/>
      <use transform="translate(139.648438 0.78125)" xlink:href="#DejaVuSans-20"/>
      <use transform="translate(171.435547 0.78125)" xlink:href="#DejaVuSans-32"/>
     </g>
    </g>
    <g id="PathCollection_9">
     <g>
      <use style="fill:#ffa500;stroke:#ffa500;" x="76.6" xlink:href="#ma13b9068fe" y="84.801688"/>
     </g>
    </g>
    <g id="text_22">
     <!-- $\nu$= 3 -->
     <g transform="translate(94.6 87.426688)scale(0.1 -0.1)">
      <defs>
       <path d="M 2597 2516 
Q 3050 2419 3304 2112 
Q 3559 1806 3559 1356 
Q 3559 666 3084 287 
Q 2609 -91 1734 -91 
Q 1441 -91 1130 -33 
Q 819 25 488 141 
L 488 750 
Q 750 597 1062 519 
Q 1375 441 1716 441 
Q 2309 441 2620 675 
Q 2931 909 2931 1356 
Q 2931 1769 2642 2001 
Q 2353 2234 1838 2234 
L 1294 2234 
L 1294 2753 
L 1863 2753 
Q 2328 2753 2575 2939 
Q 2822 3125 2822 3475 
Q 2822 3834 2567 4026 
Q 2313 4219 1838 4219 
Q 1578 4219 1281 4162 
Q 984 4106 628 3988 
L 628 4550 
Q 988 4650 1302 4700 
Q 1616 4750 1894 4750 
Q 2613 4750 3031 4423 
Q 3450 4097 3450 3541 
Q 3450 3153 3228 2886 
Q 3006 2619 2597 2516 
z
" id="DejaVuSans-33" transform="scale(0.015625)"/>
      </defs>
      <use transform="translate(0 0.78125)" xlink:href="#DejaVuSans-Oblique-3bd"/>
      <use transform="translate(55.859375 0.78125)" xlink:href="#DejaVuSans-3d"/>
      <use transform="translate(139.648438 0.78125)" xlink:href="#DejaVuSans-20"/>
      <use transform="translate(171.435547 0.78125)" xlink:href="#DejaVuSans-33"/>
     </g>
    </g>
    <g id="PathCollection_10">
     <g>
      <use style="fill:#800080;stroke:#800080;" x="76.6" xlink:href="#m68644d855c" y="99.479813"/>
     </g>
    </g>
    <g id="text_23">
     <!-- $\nu$= 4 -->
     <g transform="translate(94.6 102.104813)scale(0.1 -0.1)">
      <use transform="translate(0 0.09375)" xlink:href="#DejaVuSans-Oblique-3bd"/>
      <use transform="translate(55.859375 0.09375)" xlink:href="#DejaVuSans-3d"/>
      <use transform="translate(139.648438 0.09375)" xlink:href="#DejaVuSans-20"/>
      <use transform="translate(171.435547 0.09375)" xlink:href="#DejaVuSans-34"/>
     </g>
    </g>
    <g id="PathCollection_11">
     <g>
      <use style="fill:#ffff00;stroke:#ffff00;" x="76.6" xlink:href="#m298f08a534" y="114.157938"/>
     </g>
    </g>
    <g id="text_24">
     <!-- $\nu$= 5 -->
     <g transform="translate(94.6 116.782938)scale(0.1 -0.1)">
      <use transform="translate(0 0.09375)" xlink:href="#DejaVuSans-Oblique-3bd"/>
      <use transform="translate(55.859375 0.09375)" xlink:href="#DejaVuSans-3d"/>
      <use transform="translate(139.648438 0.09375)" xlink:href="#DejaVuSans-20"/>
      <use transform="translate(171.435547 0.09375)" xlink:href="#DejaVuSans-35"/>
     </g>
    </g>
    <g id="PathCollection_12">
     <g>
      <use style="fill:#ffc0cb;stroke:#ffc0cb;" x="76.6" xlink:href="#m89916016a6" y="128.836063"/>
     </g>
    </g>
    <g id="text_25">
     <!-- $\nu$= 6 -->
     <g transform="translate(94.6 131.461063)scale(0.1 -0.1)">
      <use transform="translate(0 0.78125)" xlink:href="#DejaVuSans-Oblique-3bd"/>
      <use transform="translate(55.859375 0.78125)" xlink:href="#DejaVuSans-3d"/>
      <use transform="translate(139.648438 0.78125)" xlink:href="#DejaVuSans-20"/>
      <use transform="translate(171.435547 0.78125)" xlink:href="#DejaVuSans-36"/>
     </g>
    </g>
   </g>
  </g>
 </g>
 <defs>
  <clipPath id="p779ce3c7bc">
   <rect height="266.112" width="357.12" x="57.6" y="41.472"/>
  </clipPath>
 </defs>
</svg>
