<?xml version="1.0" encoding="utf-8" standalone="no"?>
<!DOCTYPE svg PUBLIC "-//W3C//DTD SVG 1.1//EN"
  "http://www.w3.org/Graphics/SVG/1.1/DTD/svg11.dtd">
<svg height="345.6pt" version="1.1" viewBox="0 0 460.8 345.6" width="460.8pt" xmlns="http://www.w3.org/2000/svg" xmlns:xlink="http://www.w3.org/1999/xlink">
 <metadata>
  <rdf:RDF xmlns:cc="http://creativecommons.org/ns#" xmlns:dc="http://purl.org/dc/elements/1.1/" xmlns:rdf="http://www.w3.org/1999/02/22-rdf-syntax-ns#">
   <cc:Work>
    <dc:type rdf:resource="http://purl.org/dc/dcmitype/StillImage"/>
    <dc:date>2023-10-27T10:20:38.930773</dc:date>
    <dc:format>image/svg+xml</dc:format>
    <dc:creator>
     <cc:Agent>
      <dc:title>Matplotlib v3.4.3, https://matplotlib.org/</dc:title>
     </cc:Agent>
    </dc:creator>
   </cc:Work>
  </rdf:RDF>
 </metadata>
 <defs>
  <style type="text/css">*{stroke-linecap:butt;stroke-linejoin:round;}</style>
 </defs>
 <g id="figure_1">
  <g id="patch_1">
   <path d="M 0 345.6 
L 460.8 345.6 
L 460.8 0 
L 0 0 
z
" style="fill:#ffffff;"/>
  </g>
  <g id="axes_1">
   <g id="patch_2">
    <path d="M 57.6 307.584 
L 414.72 307.584 
L 414.72 41.472 
L 57.6 41.472 
z
" style="fill:#ffffff;"/>
   </g>
   <g id="PathCollection_1">
    <defs>
     <path d="M 0 3 
C 0.795609 3 1.55874 2.683901 2.12132 2.12132 
C 2.683901 1.55874 3 0.795609 3 0 
C 3 -0.795609 2.683901 -1.55874 2.12132 -2.12132 
C 1.55874 -2.683901 0.795609 -3 0 -3 
C -0.795609 -3 -1.55874 -2.683901 -2.12132 -2.12132 
C -2.683901 -1.55874 -3 -0.795609 -3 0 
C -3 0.795609 -2.683901 1.55874 -2.12132 2.12132 
C -1.55874 2.683901 -0.795609 3 0 3 
z
" id="m5b9b89a5d7" style="stroke:#0000ff;"/>
    </defs>
    <g clip-path="url(#p0d5f7d4963)">
     <use style="fill:#0000ff;stroke:#0000ff;" x="725.4144" xlink:href="#m5b9b89a5d7" y="310.681066"/>
     <use style="fill:#0000ff;stroke:#0000ff;" x="968.256" xlink:href="#m5b9b89a5d7" y="312.422352"/>
    </g>
   </g>
   <g id="PathCollection_2">
    <defs>
     <path d="M 0 3 
C 0.795609 3 1.55874 2.683901 2.12132 2.12132 
C 2.683901 1.55874 3 0.795609 3 0 
C 3 -0.795609 2.683901 -1.55874 2.12132 -2.12132 
C 1.55874 -2.683901 0.795609 -3 0 -3 
C -0.795609 -3 -1.55874 -2.683901 -2.12132 -2.12132 
C -2.683901 -1.55874 -3 -0.795609 -3 0 
C -3 0.795609 -2.683901 1.55874 -2.12132 2.12132 
C -1.55874 2.683901 -0.795609 3 0 3 
z
" id="mc0568347dd" style="stroke:#ff0000;"/>
    </defs>
    <g clip-path="url(#p0d5f7d4963)">
     <use style="fill:#ff0000;stroke:#ff0000;" x="412.488" xlink:href="#mc0568347dd" y="308.461702"/>
     <use style="fill:#ff0000;stroke:#ff0000;" x="457.128" xlink:href="#mc0568347dd" y="308.227417"/>
    </g>
   </g>
   <g id="PathCollection_3">
    <defs>
     <path d="M 0 3 
C 0.795609 3 1.55874 2.683901 2.12132 2.12132 
C 2.683901 1.55874 3 0.795609 3 0 
C 3 -0.795609 2.683901 -1.55874 2.12132 -2.12132 
C 1.55874 -2.683901 0.795609 -3 0 -3 
C -0.795609 -3 -1.55874 -2.683901 -2.12132 -2.12132 
C -2.683901 -1.55874 -3 -0.795609 -3 0 
C -3 0.795609 -2.683901 1.55874 -2.12132 2.12132 
C -1.55874 2.683901 -0.795609 3 0 3 
z
" id="m72e7427733" style="stroke:#ffa500;"/>
    </defs>
    <g clip-path="url(#p0d5f7d4963)">
     <use style="fill:#ffa500;stroke:#ffa500;" x="304.4592" xlink:href="#m72e7427733" y="304.871474"/>
     <use style="fill:#ffa500;stroke:#ffa500;" x="339.7248" xlink:href="#m72e7427733" y="302.123398"/>
    </g>
   </g>
   <g id="PathCollection_4">
    <defs>
     <path d="M 0 3 
C 0.795609 3 1.55874 2.683901 2.12132 2.12132 
C 2.683901 1.55874 3 0.795609 3 0 
C 3 -0.795609 2.683901 -1.55874 2.12132 -2.12132 
C 1.55874 -2.683901 0.795609 -3 0 -3 
C -0.795609 -3 -1.55874 -2.683901 -2.12132 -2.12132 
C -2.683901 -1.55874 -3 -0.795609 -3 0 
C -3 0.795609 -2.683901 1.55874 -2.12132 2.12132 
C -1.55874 2.683901 -0.795609 3 0 3 
z
" id="m0dffdcec49" style="stroke:#800080;"/>
    </defs>
    <g clip-path="url(#p0d5f7d4963)">
     <use style="fill:#800080;stroke:#800080;" x="234.8208" xlink:href="#m0dffdcec49" y="307.223802"/>
     <use style="fill:#800080;stroke:#800080;" x="260.712" xlink:href="#m0dffdcec49" y="306.267675"/>
    </g>
   </g>
   <g id="PathCollection_5">
    <defs>
     <path d="M 0 3 
C 0.795609 3 1.55874 2.683901 2.12132 2.12132 
C 2.683901 1.55874 3 0.795609 3 0 
C 3 -0.795609 2.683901 -1.55874 2.12132 -2.12132 
C 1.55874 -2.683901 0.795609 -3 0 -3 
C -0.795609 -3 -1.55874 -2.683901 -2.12132 -2.12132 
C -2.683901 -1.55874 -3 -0.795609 -3 0 
C -3 0.795609 -2.683901 1.55874 -2.12132 2.12132 
C -1.55874 2.683901 -0.795609 3 0 3 
z
" id="m8175a7b40a" style="stroke:#ffff00;"/>
    </defs>
    <g clip-path="url(#p0d5f7d4963)">
     <use style="fill:#ffff00;stroke:#ffff00;" x="209.376" xlink:href="#m8175a7b40a" y="305.792774"/>
     <use style="fill:#ffff00;stroke:#ffff00;" x="213.3936" xlink:href="#m8175a7b40a" y="307.272875"/>
    </g>
   </g>
   <g id="PathCollection_6">
    <defs>
     <path d="M 0 3 
C 0.795609 3 1.55874 2.683901 2.12132 2.12132 
C 2.683901 1.55874 3 0.795609 3 0 
C 3 -0.795609 2.683901 -1.55874 2.12132 -2.12132 
C 1.55874 -2.683901 0.795609 -3 0 -3 
C -0.795609 -3 -1.55874 -2.683901 -2.12132 -2.12132 
C -2.683901 -1.55874 -3 -0.795609 -3 0 
C -3 0.795609 -2.683901 1.55874 -2.12132 2.12132 
C -1.55874 2.683901 -0.795609 3 0 3 
z
" id="mc153fd839b" style="stroke:#ffc0cb;"/>
    </defs>
    <g clip-path="url(#p0d5f7d4963)">
     <use style="fill:#ffc0cb;stroke:#ffc0cb;" x="178.128" xlink:href="#mc153fd839b" y="290.865155"/>
     <use style="fill:#ffc0cb;stroke:#ffc0cb;" x="184.824" xlink:href="#mc153fd839b" y="307.367854"/>
    </g>
   </g>
   <g id="matplotlib.axis_1">
    <g id="xtick_1">
     <g id="line2d_1">
      <path clip-path="url(#p0d5f7d4963)" d="M 57.6 307.584 
L 57.6 41.472 
" style="fill:none;stroke:#b0b0b0;stroke-linecap:square;stroke-width:0.8;"/>
     </g>
     <g id="line2d_2">
      <defs>
       <path d="M 0 0 
L 0 3.5 
" id="mba2b2ee71a" style="stroke:#000000;stroke-width:0.8;"/>
      </defs>
      <g>
       <use style="stroke:#000000;stroke-width:0.8;" x="57.6" xlink:href="#mba2b2ee71a" y="307.584"/>
      </g>
     </g>
     <g id="text_1">
      <!-- 0.0 -->
      <g transform="translate(49.648438 322.182437)scale(0.1 -0.1)">
       <defs>
        <path d="M 2034 4250 
Q 1547 4250 1301 3770 
Q 1056 3291 1056 2328 
Q 1056 1369 1301 889 
Q 1547 409 2034 409 
Q 2525 409 2770 889 
Q 3016 1369 3016 2328 
Q 3016 3291 2770 3770 
Q 2525 4250 2034 4250 
z
M 2034 4750 
Q 2819 4750 3233 4129 
Q 3647 3509 3647 2328 
Q 3647 1150 3233 529 
Q 2819 -91 2034 -91 
Q 1250 -91 836 529 
Q 422 1150 422 2328 
Q 422 3509 836 4129 
Q 1250 4750 2034 4750 
z
" id="DejaVuSans-30" transform="scale(0.015625)"/>
        <path d="M 684 794 
L 1344 794 
L 1344 0 
L 684 0 
L 684 794 
z
" id="DejaVuSans-2e" transform="scale(0.015625)"/>
       </defs>
       <use xlink:href="#DejaVuSans-30"/>
       <use x="63.623047" xlink:href="#DejaVuSans-2e"/>
       <use x="95.410156" xlink:href="#DejaVuSans-30"/>
      </g>
     </g>
    </g>
    <g id="xtick_2">
     <g id="line2d_3">
      <path clip-path="url(#p0d5f7d4963)" d="M 102.24 307.584 
L 102.24 41.472 
" style="fill:none;stroke:#b0b0b0;stroke-linecap:square;stroke-width:0.8;"/>
     </g>
     <g id="line2d_4">
      <g>
       <use style="stroke:#000000;stroke-width:0.8;" x="102.24" xlink:href="#mba2b2ee71a" y="307.584"/>
      </g>
     </g>
     <g id="text_2">
      <!-- 0.5 -->
      <g transform="translate(94.288438 322.182437)scale(0.1 -0.1)">
       <defs>
        <path d="M 691 4666 
L 3169 4666 
L 3169 4134 
L 1269 4134 
L 1269 2991 
Q 1406 3038 1543 3061 
Q 1681 3084 1819 3084 
Q 2600 3084 3056 2656 
Q 3513 2228 3513 1497 
Q 3513 744 3044 326 
Q 2575 -91 1722 -91 
Q 1428 -91 1123 -41 
Q 819 9 494 109 
L 494 744 
Q 775 591 1075 516 
Q 1375 441 1709 441 
Q 2250 441 2565 725 
Q 2881 1009 2881 1497 
Q 2881 1984 2565 2268 
Q 2250 2553 1709 2553 
Q 1456 2553 1204 2497 
Q 953 2441 691 2322 
L 691 4666 
z
" id="DejaVuSans-35" transform="scale(0.015625)"/>
       </defs>
       <use xlink:href="#DejaVuSans-30"/>
       <use x="63.623047" xlink:href="#DejaVuSans-2e"/>
       <use x="95.410156" xlink:href="#DejaVuSans-35"/>
      </g>
     </g>
    </g>
    <g id="xtick_3">
     <g id="line2d_5">
      <path clip-path="url(#p0d5f7d4963)" d="M 146.88 307.584 
L 146.88 41.472 
" style="fill:none;stroke:#b0b0b0;stroke-linecap:square;stroke-width:0.8;"/>
     </g>
     <g id="line2d_6">
      <g>
       <use style="stroke:#000000;stroke-width:0.8;" x="146.88" xlink:href="#mba2b2ee71a" y="307.584"/>
      </g>
     </g>
     <g id="text_3">
      <!-- 1.0 -->
      <g transform="translate(138.928438 322.182437)scale(0.1 -0.1)">
       <defs>
        <path d="M 794 531 
L 1825 531 
L 1825 4091 
L 703 3866 
L 703 4441 
L 1819 4666 
L 2450 4666 
L 2450 531 
L 3481 531 
L 3481 0 
L 794 0 
L 794 531 
z
" id="DejaVuSans-31" transform="scale(0.015625)"/>
       </defs>
       <use xlink:href="#DejaVuSans-31"/>
       <use x="63.623047" xlink:href="#DejaVuSans-2e"/>
       <use x="95.410156" xlink:href="#DejaVuSans-30"/>
      </g>
     </g>
    </g>
    <g id="xtick_4">
     <g id="line2d_7">
      <path clip-path="url(#p0d5f7d4963)" d="M 191.52 307.584 
L 191.52 41.472 
" style="fill:none;stroke:#b0b0b0;stroke-linecap:square;stroke-width:0.8;"/>
     </g>
     <g id="line2d_8">
      <g>
       <use style="stroke:#000000;stroke-width:0.8;" x="191.52" xlink:href="#mba2b2ee71a" y="307.584"/>
      </g>
     </g>
     <g id="text_4">
      <!-- 1.5 -->
      <g transform="translate(183.568438 322.182437)scale(0.1 -0.1)">
       <use xlink:href="#DejaVuSans-31"/>
       <use x="63.623047" xlink:href="#DejaVuSans-2e"/>
       <use x="95.410156" xlink:href="#DejaVuSans-35"/>
      </g>
     </g>
    </g>
    <g id="xtick_5">
     <g id="line2d_9">
      <path clip-path="url(#p0d5f7d4963)" d="M 236.16 307.584 
L 236.16 41.472 
" style="fill:none;stroke:#b0b0b0;stroke-linecap:square;stroke-width:0.8;"/>
     </g>
     <g id="line2d_10">
      <g>
       <use style="stroke:#000000;stroke-width:0.8;" x="236.16" xlink:href="#mba2b2ee71a" y="307.584"/>
      </g>
     </g>
     <g id="text_5">
      <!-- 2.0 -->
      <g transform="translate(228.208438 322.182437)scale(0.1 -0.1)">
       <defs>
        <path d="M 1228 531 
L 3431 531 
L 3431 0 
L 469 0 
L 469 531 
Q 828 903 1448 1529 
Q 2069 2156 2228 2338 
Q 2531 2678 2651 2914 
Q 2772 3150 2772 3378 
Q 2772 3750 2511 3984 
Q 2250 4219 1831 4219 
Q 1534 4219 1204 4116 
Q 875 4013 500 3803 
L 500 4441 
Q 881 4594 1212 4672 
Q 1544 4750 1819 4750 
Q 2544 4750 2975 4387 
Q 3406 4025 3406 3419 
Q 3406 3131 3298 2873 
Q 3191 2616 2906 2266 
Q 2828 2175 2409 1742 
Q 1991 1309 1228 531 
z
" id="DejaVuSans-32" transform="scale(0.015625)"/>
       </defs>
       <use xlink:href="#DejaVuSans-32"/>
       <use x="63.623047" xlink:href="#DejaVuSans-2e"/>
       <use x="95.410156" xlink:href="#DejaVuSans-30"/>
      </g>
     </g>
    </g>
    <g id="xtick_6">
     <g id="line2d_11">
      <path clip-path="url(#p0d5f7d4963)" d="M 280.8 307.584 
L 280.8 41.472 
" style="fill:none;stroke:#b0b0b0;stroke-linecap:square;stroke-width:0.8;"/>
     </g>
     <g id="line2d_12">
      <g>
       <use style="stroke:#000000;stroke-width:0.8;" x="280.8" xlink:href="#mba2b2ee71a" y="307.584"/>
      </g>
     </g>
     <g id="text_6">
      <!-- 2.5 -->
      <g transform="translate(272.848437 322.182437)scale(0.1 -0.1)">
       <use xlink:href="#DejaVuSans-32"/>
       <use x="63.623047" xlink:href="#DejaVuSans-2e"/>
       <use x="95.410156" xlink:href="#DejaVuSans-35"/>
      </g>
     </g>
    </g>
    <g id="xtick_7">
     <g id="line2d_13">
      <path clip-path="url(#p0d5f7d4963)" d="M 325.44 307.584 
L 325.44 41.472 
" style="fill:none;stroke:#b0b0b0;stroke-linecap:square;stroke-width:0.8;"/>
     </g>
     <g id="line2d_14">
      <g>
       <use style="stroke:#000000;stroke-width:0.8;" x="325.44" xlink:href="#mba2b2ee71a" y="307.584"/>
      </g>
     </g>
     <g id="text_7">
      <!-- 3.0 -->
      <g transform="translate(317.488438 322.182437)scale(0.1 -0.1)">
       <defs>
        <path d="M 2597 2516 
Q 3050 2419 3304 2112 
Q 3559 1806 3559 1356 
Q 3559 666 3084 287 
Q 2609 -91 1734 -91 
Q 1441 -91 1130 -33 
Q 819 25 488 141 
L 488 750 
Q 750 597 1062 519 
Q 1375 441 1716 441 
Q 2309 441 2620 675 
Q 2931 909 2931 1356 
Q 2931 1769 2642 2001 
Q 2353 2234 1838 2234 
L 1294 2234 
L 1294 2753 
L 1863 2753 
Q 2328 2753 2575 2939 
Q 2822 3125 2822 3475 
Q 2822 3834 2567 4026 
Q 2313 4219 1838 4219 
Q 1578 4219 1281 4162 
Q 984 4106 628 3988 
L 628 4550 
Q 988 4650 1302 4700 
Q 1616 4750 1894 4750 
Q 2613 4750 3031 4423 
Q 3450 4097 3450 3541 
Q 3450 3153 3228 2886 
Q 3006 2619 2597 2516 
z
" id="DejaVuSans-33" transform="scale(0.015625)"/>
       </defs>
       <use xlink:href="#DejaVuSans-33"/>
       <use x="63.623047" xlink:href="#DejaVuSans-2e"/>
       <use x="95.410156" xlink:href="#DejaVuSans-30"/>
      </g>
     </g>
    </g>
    <g id="xtick_8">
     <g id="line2d_15">
      <path clip-path="url(#p0d5f7d4963)" d="M 370.08 307.584 
L 370.08 41.472 
" style="fill:none;stroke:#b0b0b0;stroke-linecap:square;stroke-width:0.8;"/>
     </g>
     <g id="line2d_16">
      <g>
       <use style="stroke:#000000;stroke-width:0.8;" x="370.08" xlink:href="#mba2b2ee71a" y="307.584"/>
      </g>
     </g>
     <g id="text_8">
      <!-- 3.5 -->
      <g transform="translate(362.128438 322.182437)scale(0.1 -0.1)">
       <use xlink:href="#DejaVuSans-33"/>
       <use x="63.623047" xlink:href="#DejaVuSans-2e"/>
       <use x="95.410156" xlink:href="#DejaVuSans-35"/>
      </g>
     </g>
    </g>
    <g id="xtick_9">
     <g id="line2d_17">
      <path clip-path="url(#p0d5f7d4963)" d="M 414.72 307.584 
L 414.72 41.472 
" style="fill:none;stroke:#b0b0b0;stroke-linecap:square;stroke-width:0.8;"/>
     </g>
     <g id="line2d_18">
      <g>
       <use style="stroke:#000000;stroke-width:0.8;" x="414.72" xlink:href="#mba2b2ee71a" y="307.584"/>
      </g>
     </g>
     <g id="text_9">
      <!-- 4.0 -->
      <g transform="translate(406.768438 322.182437)scale(0.1 -0.1)">
       <defs>
        <path d="M 2419 4116 
L 825 1625 
L 2419 1625 
L 2419 4116 
z
M 2253 4666 
L 3047 4666 
L 3047 1625 
L 3713 1625 
L 3713 1100 
L 3047 1100 
L 3047 0 
L 2419 0 
L 2419 1100 
L 313 1100 
L 313 1709 
L 2253 4666 
z
" id="DejaVuSans-34" transform="scale(0.015625)"/>
       </defs>
       <use xlink:href="#DejaVuSans-34"/>
       <use x="63.623047" xlink:href="#DejaVuSans-2e"/>
       <use x="95.410156" xlink:href="#DejaVuSans-30"/>
      </g>
     </g>
    </g>
    <g id="text_10">
     <!-- $B$ (T) -->
     <g transform="translate(224.16 335.860562)scale(0.1 -0.1)">
      <defs>
       <path d="M 1081 4666 
L 2694 4666 
Q 3350 4666 3675 4422 
Q 4000 4178 4000 3688 
Q 4000 3238 3720 2911 
Q 3441 2584 2988 2516 
Q 3375 2428 3569 2181 
Q 3763 1934 3763 1522 
Q 3763 819 3242 409 
Q 2722 0 1819 0 
L 172 0 
L 1081 4666 
z
M 1234 2228 
L 903 519 
L 1919 519 
Q 2491 519 2800 781 
Q 3109 1044 3109 1522 
Q 3109 1891 2904 2059 
Q 2700 2228 2247 2228 
L 1234 2228 
z
M 1606 4147 
L 1331 2741 
L 2272 2741 
Q 2775 2741 3058 2959 
Q 3341 3178 3341 3566 
Q 3341 3869 3150 4008 
Q 2959 4147 2541 4147 
L 1606 4147 
z
" id="DejaVuSans-Oblique-42" transform="scale(0.015625)"/>
       <path id="DejaVuSans-20" transform="scale(0.015625)"/>
       <path d="M 1984 4856 
Q 1566 4138 1362 3434 
Q 1159 2731 1159 2009 
Q 1159 1288 1364 580 
Q 1569 -128 1984 -844 
L 1484 -844 
Q 1016 -109 783 600 
Q 550 1309 550 2009 
Q 550 2706 781 3412 
Q 1013 4119 1484 4856 
L 1984 4856 
z
" id="DejaVuSans-28" transform="scale(0.015625)"/>
       <path d="M -19 4666 
L 3928 4666 
L 3928 4134 
L 2272 4134 
L 2272 0 
L 1638 0 
L 1638 4134 
L -19 4134 
L -19 4666 
z
" id="DejaVuSans-54" transform="scale(0.015625)"/>
       <path d="M 513 4856 
L 1013 4856 
Q 1481 4119 1714 3412 
Q 1947 2706 1947 2009 
Q 1947 1309 1714 600 
Q 1481 -109 1013 -844 
L 513 -844 
Q 928 -128 1133 580 
Q 1338 1288 1338 2009 
Q 1338 2731 1133 3434 
Q 928 4138 513 4856 
z
" id="DejaVuSans-29" transform="scale(0.015625)"/>
      </defs>
      <use transform="translate(0 0.125)" xlink:href="#DejaVuSans-Oblique-42"/>
      <use transform="translate(68.603516 0.125)" xlink:href="#DejaVuSans-20"/>
      <use transform="translate(100.390625 0.125)" xlink:href="#DejaVuSans-28"/>
      <use transform="translate(139.404297 0.125)" xlink:href="#DejaVuSans-54"/>
      <use transform="translate(200.488281 0.125)" xlink:href="#DejaVuSans-29"/>
     </g>
    </g>
   </g>
   <g id="matplotlib.axis_2">
    <g id="ytick_1">
     <g id="line2d_19">
      <path clip-path="url(#p0d5f7d4963)" d="M 57.6 307.052838 
L 414.72 307.052838 
" style="fill:none;stroke:#b0b0b0;stroke-linecap:square;stroke-width:0.8;"/>
     </g>
     <g id="line2d_20">
      <defs>
       <path d="M 0 0 
L -3.5 0 
" id="m1605d9525c" style="stroke:#000000;stroke-width:0.8;"/>
      </defs>
      <g>
       <use style="stroke:#000000;stroke-width:0.8;" x="57.6" xlink:href="#m1605d9525c" y="307.052838"/>
      </g>
     </g>
     <g id="text_11">
      <!-- 0.000 -->
      <g transform="translate(21.971875 310.852057)scale(0.1 -0.1)">
       <use xlink:href="#DejaVuSans-30"/>
       <use x="63.623047" xlink:href="#DejaVuSans-2e"/>
       <use x="95.410156" xlink:href="#DejaVuSans-30"/>
       <use x="159.033203" xlink:href="#DejaVuSans-30"/>
       <use x="222.65625" xlink:href="#DejaVuSans-30"/>
      </g>
     </g>
    </g>
    <g id="ytick_2">
     <g id="line2d_21">
      <path clip-path="url(#p0d5f7d4963)" d="M 57.6 253.936671 
L 414.72 253.936671 
" style="fill:none;stroke:#b0b0b0;stroke-linecap:square;stroke-width:0.8;"/>
     </g>
     <g id="line2d_22">
      <g>
       <use style="stroke:#000000;stroke-width:0.8;" x="57.6" xlink:href="#m1605d9525c" y="253.936671"/>
      </g>
     </g>
     <g id="text_12">
      <!-- 0.001 -->
      <g transform="translate(21.971875 257.735889)scale(0.1 -0.1)">
       <use xlink:href="#DejaVuSans-30"/>
       <use x="63.623047" xlink:href="#DejaVuSans-2e"/>
       <use x="95.410156" xlink:href="#DejaVuSans-30"/>
       <use x="159.033203" xlink:href="#DejaVuSans-30"/>
       <use x="222.65625" xlink:href="#DejaVuSans-31"/>
      </g>
     </g>
    </g>
    <g id="ytick_3">
     <g id="line2d_23">
      <path clip-path="url(#p0d5f7d4963)" d="M 57.6 200.820503 
L 414.72 200.820503 
" style="fill:none;stroke:#b0b0b0;stroke-linecap:square;stroke-width:0.8;"/>
     </g>
     <g id="line2d_24">
      <g>
       <use style="stroke:#000000;stroke-width:0.8;" x="57.6" xlink:href="#m1605d9525c" y="200.820503"/>
      </g>
     </g>
     <g id="text_13">
      <!-- 0.002 -->
      <g transform="translate(21.971875 204.619722)scale(0.1 -0.1)">
       <use xlink:href="#DejaVuSans-30"/>
       <use x="63.623047" xlink:href="#DejaVuSans-2e"/>
       <use x="95.410156" xlink:href="#DejaVuSans-30"/>
       <use x="159.033203" xlink:href="#DejaVuSans-30"/>
       <use x="222.65625" xlink:href="#DejaVuSans-32"/>
      </g>
     </g>
    </g>
    <g id="ytick_4">
     <g id="line2d_25">
      <path clip-path="url(#p0d5f7d4963)" d="M 57.6 147.704335 
L 414.72 147.704335 
" style="fill:none;stroke:#b0b0b0;stroke-linecap:square;stroke-width:0.8;"/>
     </g>
     <g id="line2d_26">
      <g>
       <use style="stroke:#000000;stroke-width:0.8;" x="57.6" xlink:href="#m1605d9525c" y="147.704335"/>
      </g>
     </g>
     <g id="text_14">
      <!-- 0.003 -->
      <g transform="translate(21.971875 151.503554)scale(0.1 -0.1)">
       <use xlink:href="#DejaVuSans-30"/>
       <use x="63.623047" xlink:href="#DejaVuSans-2e"/>
       <use x="95.410156" xlink:href="#DejaVuSans-30"/>
       <use x="159.033203" xlink:href="#DejaVuSans-30"/>
       <use x="222.65625" xlink:href="#DejaVuSans-33"/>
      </g>
     </g>
    </g>
    <g id="ytick_5">
     <g id="line2d_27">
      <path clip-path="url(#p0d5f7d4963)" d="M 57.6 94.588168 
L 414.72 94.588168 
" style="fill:none;stroke:#b0b0b0;stroke-linecap:square;stroke-width:0.8;"/>
     </g>
     <g id="line2d_28">
      <g>
       <use style="stroke:#000000;stroke-width:0.8;" x="57.6" xlink:href="#m1605d9525c" y="94.588168"/>
      </g>
     </g>
     <g id="text_15">
      <!-- 0.004 -->
      <g transform="translate(21.971875 98.387386)scale(0.1 -0.1)">
       <use xlink:href="#DejaVuSans-30"/>
       <use x="63.623047" xlink:href="#DejaVuSans-2e"/>
       <use x="95.410156" xlink:href="#DejaVuSans-30"/>
       <use x="159.033203" xlink:href="#DejaVuSans-30"/>
       <use x="222.65625" xlink:href="#DejaVuSans-34"/>
      </g>
     </g>
    </g>
    <g id="ytick_6">
     <g id="line2d_29">
      <path clip-path="url(#p0d5f7d4963)" d="M 57.6 41.472 
L 414.72 41.472 
" style="fill:none;stroke:#b0b0b0;stroke-linecap:square;stroke-width:0.8;"/>
     </g>
     <g id="line2d_30">
      <g>
       <use style="stroke:#000000;stroke-width:0.8;" x="57.6" xlink:href="#m1605d9525c" y="41.472"/>
      </g>
     </g>
     <g id="text_16">
      <!-- 0.005 -->
      <g transform="translate(21.971875 45.271219)scale(0.1 -0.1)">
       <use xlink:href="#DejaVuSans-30"/>
       <use x="63.623047" xlink:href="#DejaVuSans-2e"/>
       <use x="95.410156" xlink:href="#DejaVuSans-30"/>
       <use x="159.033203" xlink:href="#DejaVuSans-30"/>
       <use x="222.65625" xlink:href="#DejaVuSans-35"/>
      </g>
     </g>
    </g>
    <g id="text_17">
     <!-- $\rho_\mathrm{xx}$ ($\Omega$) -->
     <g transform="translate(15.871875 191.328)rotate(-90)scale(0.1 -0.1)">
      <defs>
       <path d="M 1203 2875 
Q 1453 3194 1981 3475 
Q 2188 3584 2756 3584 
Q 3394 3584 3694 3078 
Q 3994 2572 3834 1747 
Q 3672 922 3175 415 
Q 2678 -91 2041 -91 
Q 1656 -91 1409 63 
Q 1163 213 1044 525 
L 681 -1331 
L 103 -1331 
L 697 1716 
Q 838 2438 1203 2875 
z
M 3238 1747 
Q 3359 2381 3169 2744 
Q 2978 3103 2522 3103 
Q 2066 3103 1734 2744 
Q 1403 2381 1281 1747 
Q 1156 1113 1347 750 
Q 1538 391 1994 391 
Q 2450 391 2781 750 
Q 3113 1113 3238 1747 
z
" id="DejaVuSans-Oblique-3c1" transform="scale(0.015625)"/>
       <path d="M 3513 3500 
L 2247 1797 
L 3578 0 
L 2900 0 
L 1881 1375 
L 863 0 
L 184 0 
L 1544 1831 
L 300 3500 
L 978 3500 
L 1906 2253 
L 2834 3500 
L 3513 3500 
z
" id="DejaVuSans-78" transform="scale(0.015625)"/>
       <path d="M 4647 556 
L 4647 0 
L 2772 0 
L 2772 556 
Q 3325 859 3634 1378 
Q 3944 1897 3944 2528 
Q 3944 3278 3531 3731 
Q 3119 4184 2444 4184 
Q 1769 4184 1355 3729 
Q 941 3275 941 2528 
Q 941 1897 1250 1378 
Q 1563 859 2119 556 
L 2119 0 
L 244 0 
L 244 556 
L 1241 556 
Q 747 991 519 1456 
Q 294 1922 294 2497 
Q 294 3491 894 4106 
Q 1491 4722 2444 4722 
Q 3391 4722 3994 4106 
Q 4594 3494 4594 2528 
Q 4594 1922 4372 1459 
Q 4150 997 3647 556 
L 4647 556 
z
" id="DejaVuSans-3a9" transform="scale(0.015625)"/>
      </defs>
      <use transform="translate(0 0.125)" xlink:href="#DejaVuSans-Oblique-3c1"/>
      <use transform="translate(63.476562 -16.28125)scale(0.7)" xlink:href="#DejaVuSans-78"/>
      <use transform="translate(104.902344 -16.28125)scale(0.7)" xlink:href="#DejaVuSans-78"/>
      <use transform="translate(149.0625 0.125)" xlink:href="#DejaVuSans-20"/>
      <use transform="translate(180.849609 0.125)" xlink:href="#DejaVuSans-28"/>
      <use transform="translate(219.863281 0.125)" xlink:href="#DejaVuSans-3a9"/>
      <use transform="translate(296.279297 0.125)" xlink:href="#DejaVuSans-29"/>
     </g>
    </g>
   </g>
   <g id="line2d_31">
    <path clip-path="url(#p0d5f7d4963)" d="M 57.6 305.484488 
L 58.2696 305.570366 
L 58.9392 305.698982 
L 67.644 306.08622 
L 68.0904 305.934254 
L 68.3136 306.010439 
L 68.5368 306.230276 
L 68.76 306.206926 
L 68.9832 305.845609 
L 69.2064 306.279154 
L 69.4296 306.273608 
L 69.6528 305.734405 
L 69.876 306.521744 
L 70.0992 305.860449 
L 70.3224 305.94296 
L 70.5456 306.174472 
L 70.7688 305.841652 
L 70.992 306.257387 
L 71.2152 305.821664 
L 71.4384 306.072372 
L 71.8848 305.566409 
L 72.108 306.122827 
L 72.3312 304.782627 
L 72.5544 306.386597 
L 72.7776 305.296504 
L 73.0008 305.916051 
L 73.224 306.16992 
L 73.4472 304.29467 
L 73.6704 306.383824 
L 73.8936 306.109373 
L 74.1168 304.31624 
L 74.34 306.338118 
L 74.5632 306.304479 
L 74.7864 304.517673 
L 75.2328 306.517587 
L 75.456 305.219534 
L 75.6792 304.724056 
L 75.9024 306.391739 
L 76.1256 306.027059 
L 76.3488 304.476322 
L 76.572 304.722276 
L 76.7952 306.625429 
L 77.0184 305.772988 
L 77.2416 304.092446 
L 77.4648 304.43734 
L 77.688 306.520954 
L 77.9112 306.78175 
L 78.3576 302.786272 
L 78.804 306.809057 
L 79.0272 306.442199 
L 79.4736 302.077888 
L 79.92 306.48296 
L 80.1432 306.814004 
L 80.3664 305.859658 
L 80.5896 302.732056 
L 80.8128 301.879419 
L 81.2592 306.376505 
L 81.4824 306.763348 
L 81.7056 306.325057 
L 82.152 301.469214 
L 82.3752 302.408732 
L 82.5984 305.693048 
L 82.8216 306.595352 
L 83.0448 306.404407 
L 83.268 305.805044 
L 83.4912 304.362542 
L 83.7144 301.972617 
L 83.9376 302.45147 
L 84.384 306.242344 
L 84.6072 306.214246 
L 85.5 301.754166 
L 85.9464 304.226405 
L 86.1696 305.585403 
L 86.3928 305.683944 
L 86.8392 304.702883 
L 87.2856 300.674968 
L 87.5088 299.555757 
L 87.732 301.152216 
L 88.1784 305.270387 
L 88.4016 306.089189 
L 88.6248 305.818498 
L 89.2944 302.017335 
L 89.5176 300.081341 
L 89.7408 297.086333 
L 89.964 297.6815 
L 90.4104 302.387358 
L 90.8568 306.164778 
L 91.08 306.632751 
L 91.3032 306.112937 
L 91.7496 303.283726 
L 92.4192 295.731287 
L 92.6424 295.253241 
L 93.9816 305.744497 
L 94.2048 306.424389 
L 94.6512 306.134699 
L 94.8744 305.269596 
L 95.3208 298.716787 
L 95.7672 291.44768 
L 95.9904 291.805417 
L 96.4368 296.991361 
L 96.66 298.129482 
L 96.8832 300.62865 
L 97.3296 301.639026 
L 97.5528 301.865768 
L 97.776 301.188654 
L 98.6688 305.518525 
L 98.892 305.199939 
L 99.1152 304.178122 
L 99.3384 301.707068 
L 99.7848 292.058728 
L 100.008 292.262907 
L 100.4544 294.965139 
L 100.6776 295.840493 
L 100.9008 295.94816 
L 101.5704 299.091946 
L 101.7936 298.617035 
L 102.24 296.223567 
L 102.4632 295.487483 
L 102.6864 295.853188 
L 102.9096 295.516007 
L 103.1328 296.565529 
L 103.8024 301.77989 
L 104.0256 301.077057 
L 104.472 297.496284 
L 104.6952 297.440884 
L 105.1416 300.958342 
L 105.3648 300.412149 
L 106.0344 294.686492 
L 106.2576 295.527055 
L 106.4808 297.33327 
L 106.704 297.602357 
L 107.3736 294.816307 
L 107.5968 293.47863 
L 108.4896 292.357879 
L 108.936 290.550123 
L 109.1592 290.206621 
L 109.3824 289.098511 
L 109.6056 289.027283 
L 110.2752 292.748867 
L 110.4984 293.150956 
L 111.168 300.223799 
L 111.3912 300.356749 
L 111.6144 299.668151 
L 111.8376 299.544709 
L 112.0608 299.894532 
L 112.5072 301.585166 
L 112.9536 303.278977 
L 113.1768 303.22832 
L 113.4 301.873284 
L 114.0696 292.840705 
L 114.516 289.497414 
L 115.1856 284.998581 
L 115.4088 284.865631 
L 115.632 285.926201 
L 115.8552 284.764285 
L 116.0784 284.428697 
L 116.5248 283.051501 
L 116.9712 281.864302 
L 117.1944 282.073208 
L 117.4176 281.987744 
L 117.6408 281.677492 
L 118.0872 280.79093 
L 118.3104 283.173403 
L 118.5336 286.800015 
L 118.98 296.106446 
L 119.2032 297.785979 
L 119.4264 297.41082 
L 119.8728 295.927551 
L 120.096 295.903808 
L 120.3192 295.441591 
L 120.5424 295.710677 
L 120.7656 296.620929 
L 120.9888 296.537006 
L 122.1048 302.454242 
L 122.328 302.402003 
L 122.5512 302.200963 
L 123.6672 304.035654 
L 123.8904 303.404034 
L 124.1136 301.851124 
L 124.3368 298.055119 
L 124.7832 283.532734 
L 125.2296 278.973667 
L 125.8992 273.236908 
L 126.5688 271.467131 
L 126.792 271.691918 
L 127.4616 269.558029 
L 127.6848 269.678337 
L 127.908 269.586553 
L 128.1312 269.912633 
L 128.3544 270.770618 
L 128.5776 272.869663 
L 129.2472 284.814958 
L 129.4704 286.413755 
L 129.6936 286.682894 
L 130.3632 285.679264 
L 130.8096 285.321527 
L 131.0328 286.258655 
L 131.256 286.651237 
L 131.9256 292.318307 
L 133.0416 298.004446 
L 133.2648 297.111616 
L 133.488 294.477533 
L 133.7112 295.610978 
L 133.9344 294.75618 
L 134.1576 294.677037 
L 134.604 297.425055 
L 134.8272 296.696885 
L 135.0504 296.981854 
L 135.2736 297.491556 
L 135.4968 295.364041 
L 135.72 294.433234 
L 135.9432 295.053737 
L 136.1664 294.37624 
L 136.3896 291.963704 
L 136.6128 292.115669 
L 136.836 293.464395 
L 137.0592 291.729461 
L 137.2824 291.330506 
L 137.5056 290.14644 
L 137.7288 290.285764 
L 137.952 289.310657 
L 138.1752 289.310657 
L 138.3984 288.753416 
L 138.6216 289.03201 
L 138.8448 289.013047 
L 139.7376 292.292971 
L 139.9608 291.849769 
L 140.184 290.456745 
L 140.4072 284.340046 
L 141.0768 259.221145 
L 141.7464 251.945346 
L 142.1928 251.679765 
L 142.8624 252.977924 
L 143.0856 254.060431 
L 143.3088 255.827234 
L 144.2016 270.666139 
L 144.4248 271.942042 
L 144.648 272.473894 
L 145.0944 272.331437 
L 145.3176 272.584748 
L 145.5408 272.584748 
L 145.764 272.363094 
L 146.2104 273.490166 
L 146.6568 275.785528 
L 146.88 276.117929 
L 147.3264 278.774216 
L 147.7728 280.518657 
L 148.2192 284.746916 
L 148.6656 285.370606 
L 149.112 289.541766 
L 149.5584 290.605523 
L 150.4512 296.123868 
L 150.8976 298.461936 
L 151.344 299.533607 
L 152.2368 302.922807 
L 152.6832 299.907173 
L 153.576 291.222892 
L 154.0224 291.495166 
L 154.4688 285.872395 
L 154.9152 288.196227 
L 155.3616 282.225226 
L 155.808 282.377191 
L 156.2544 280.135583 
L 156.7008 279.844294 
L 157.1472 277.615433 
L 157.5936 273.702312 
L 158.04 272.404259 
L 158.4864 272.157322 
L 158.9328 271.606454 
L 159.8256 268.826726 
L 160.7184 267.34505 
L 161.1648 267.604629 
L 161.6112 268.978691 
L 162.0576 269.934782 
L 162.504 270.321043 
L 163.8432 277.146896 
L 164.736 282.592471 
L 165.6288 287.037498 
L 166.0752 288.538136 
L 166.5216 288.588809 
L 166.968 279.591036 
L 167.8608 252.952428 
L 168.3072 247.836279 
L 169.2 246.088757 
L 169.6464 245.746689 
L 170.0928 245.10717 
L 170.5392 244.872928 
L 171.432 244.66365 
L 171.8784 244.569103 
L 172.3248 245.214465 
L 172.7712 246.322999 
L 173.2176 248.671796 
L 173.664 252.015459 
L 174.1104 252.579021 
L 174.5568 269.906312 
L 175.896 283.111682 
L 176.3424 280.917559 
L 176.7888 279.660671 
L 177.2352 284.004458 
L 177.6816 289.49428 
L 178.128 290.865155 
L 178.5744 293.350407 
L 179.0208 295.125019 
L 179.4672 296.253684 
L 179.9136 298.814946 
L 180.36 300.136741 
L 180.8064 302.405168 
L 181.2528 303.108012 
L 182.1456 306.304081 
L 183.4848 307.139903 
L 185.2704 307.38685 
L 185.7168 307.374186 
L 186.1632 306.840717 
L 186.6096 304.795491 
L 187.056 301.629518 
L 187.5024 294.857472 
L 188.3952 272.081313 
L 189.7344 250.242441 
L 190.6272 238.80653 
L 191.0736 238.464993 
L 191.52 239.05352 
L 191.9664 235.273774 
L 192.4128 235.526607 
L 192.8592 231.404792 
L 193.3056 230.657448 
L 193.752 227.960209 
L 194.1984 229.594062 
L 194.6448 230.657448 
L 195.0912 232.031563 
L 195.5376 231.043602 
L 197.3232 243.733055 
L 197.7696 248.393467 
L 198.216 249.083446 
L 198.6624 250.039537 
L 199.1088 250.267406 
L 200.0016 252.813264 
L 201.3408 256.783379 
L 201.7872 258.594321 
L 202.68 261.285399 
L 204.0192 266.173626 
L 204.912 270.957428 
L 205.8048 277.067752 
L 206.2512 281.579334 
L 206.6976 287.575671 
L 207.144 291.518909 
L 207.5904 296.935908 
L 208.9296 304.470978 
L 209.376 305.792774 
L 209.8224 306.609599 
L 210.7152 307.266543 
L 211.1616 307.453335 
L 212.5008 307.467584 
L 213.3936 307.272875 
L 213.84 307.128822 
L 214.2864 306.475046 
L 214.7328 304.90788 
L 215.1792 301.091292 
L 215.6256 294.338262 
L 216.9648 257.30891 
L 218.7504 199.219051 
L 219.1968 189.543941 
L 220.0896 179.716918 
L 220.536 176.221343 
L 220.9824 175.246131 
L 221.4288 174.929558 
L 221.8752 175.018262 
L 222.3216 175.715146 
L 223.2144 184.757112 
L 224.1072 205.829889 
L 224.5536 218.46835 
L 225 226.85858 
L 225.8928 247.602037 
L 226.7856 261.858416 
L 227.232 267.319714 
L 227.6784 271.099885 
L 228.5712 276.42186 
L 229.464 280.151412 
L 230.3568 284.485691 
L 230.8032 286.899768 
L 231.696 293.50556 
L 232.1424 299.560537 
L 233.0352 304.49947 
L 233.4816 305.894088 
L 233.928 306.592187 
L 234.3744 307.003766 
L 235.2672 307.359939 
L 237.0528 307.633796 
L 239.2848 307.834836 
L 240.1776 307.584722 
L 242.4096 307.572061 
L 243.7488 307.540401 
L 245.088 307.52932 
L 247.32 307.57681 
L 248.6592 307.535652 
L 253.1232 307.534069 
L 254.4624 307.505575 
L 255.8016 307.450169 
L 256.248 307.462835 
L 257.1408 307.336194 
L 258.9264 307.146235 
L 261.6048 305.637643 
L 262.4976 304.975948 
L 262.944 304.640355 
L 263.3904 303.579742 
L 263.8368 303.345463 
L 265.6224 298.574329 
L 266.5152 294.350904 
L 266.9616 292.280329 
L 268.7472 279.597357 
L 269.64 271.872354 
L 270.0864 265.945705 
L 270.5328 262.209832 
L 270.9792 255.624596 
L 271.4256 247.392759 
L 271.872 241.643465 
L 272.7648 223.63549 
L 273.2112 213.213036 
L 273.6576 205.804924 
L 274.104 195.837675 
L 274.5504 189.429741 
L 275.4432 170.142729 
L 275.8896 163.21585 
L 276.7824 152.122007 
L 277.2288 146.157593 
L 277.6752 142.776217 
L 278.1216 140.446011 
L 278.568 139.369346 
L 279.0144 139.306138 
L 279.4608 139.382094 
L 279.9072 140.724871 
L 280.8 145.334292 
L 282.1392 159.771266 
L 282.5856 166.596694 
L 283.032 171.421767 
L 283.4784 179.15973 
L 287.0496 226.060775 
L 287.496 228.935422 
L 288.3888 237.11 
L 290.1744 250.508022 
L 290.6208 252.382492 
L 291.0672 255.732263 
L 292.4064 263.659851 
L 295.5312 284.947961 
L 295.9776 290.089447 
L 296.424 292.084012 
L 296.8704 293.486544 
L 297.3168 293.480223 
L 297.7632 293.869618 
L 298.656 295.547664 
L 299.1024 297.029339 
L 299.5488 299.077711 
L 299.9952 300.233307 
L 301.3344 302.22154 
L 301.7808 302.709104 
L 302.2272 302.918058 
L 304.9056 305.260885 
L 305.352 305.406524 
L 306.2448 305.932077 
L 307.1376 306.387983 
L 308.4768 306.900871 
L 308.9232 307.005349 
L 309.3696 307.293454 
L 311.6016 307.720859 
L 312.9408 307.793676 
L 313.3872 307.733527 
L 313.8336 307.844333 
L 314.7264 307.736693 
L 315.6192 307.774682 
L 316.0656 307.70503 
L 316.512 307.796842 
L 317.4048 307.739859 
L 318.744 307.762019 
L 319.6368 307.654374 
L 320.976 307.622716 
L 323.208 307.597391 
L 326.3328 307.223802 
L 329.0112 306.717244 
L 329.904 306.403812 
L 330.7968 306.004894 
L 331.2432 305.786443 
L 332.5824 305.681968 
L 333.0288 305.47618 
L 333.9216 305.359033 
L 334.368 305.017108 
L 334.8144 304.988611 
L 335.7072 304.516881 
L 336.1536 304.409241 
L 336.6 304.067317 
L 337.0464 303.940677 
L 337.9392 303.234652 
L 339.2784 302.402003 
L 340.6176 301.455403 
L 341.9568 300.464415 
L 343.7424 298.194389 
L 344.1888 297.257261 
L 344.6352 295.965582 
L 345.0816 293.799983 
L 346.4208 284.441392 
L 346.8672 280.053253 
L 347.3136 274.126551 
L 347.76 265.439136 
L 348.2064 259.246481 
L 350.4384 204.728259 
L 350.8848 192.139728 
L 351.3312 184.617416 
L 352.224 166.255157 
L 353.1168 151.767722 
L 353.5632 145.815524 
L 354.456 139.052774 
L 355.3488 136.368283 
L 355.7952 136.038963 
L 356.2416 136.064458 
L 357.1344 137.736024 
L 358.92 143.30791 
L 359.8128 146.423173 
L 360.2592 147.233726 
L 361.152 149.614924 
L 361.5984 150.830222 
L 362.0448 151.590314 
L 362.9376 152.451327 
L 363.384 152.806143 
L 363.8304 152.882099 
L 364.2768 152.654231 
L 364.7232 152.603239 
L 365.1696 152.147503 
L 365.616 151.514358 
L 366.0624 151.083586 
L 366.9552 149.057204 
L 367.4016 148.373599 
L 368.2944 145.714073 
L 368.7408 143.992046 
L 369.1872 142.902634 
L 370.08 139.205217 
L 370.5264 137.963893 
L 370.9728 135.583226 
L 371.8656 132.011695 
L 372.7584 127.833046 
L 374.0976 123.020721 
L 377.2224 107.79869 
L 377.6688 106.430948 
L 378.1152 104.60747 
L 378.5616 101.720075 
L 379.008 100.14943 
L 380.3472 91.967947 
L 380.7936 89.865609 
L 381.6864 83.508666 
L 382.5792 74.618613 
L 383.0256 73.503705 
L 383.472 71.350907 
L 383.9184 70.388442 
L 384.3648 69.122152 
L 384.8112 69.552924 
L 385.704 67.146762 
L 386.1504 68.489008 
L 386.5968 68.97024 
L 387.0432 71.11029 
L 387.4896 76.745916 
L 388.3824 84.483348 
L 390.168 111.256021 
L 392.8464 162.77233 
L 393.7392 177.640076 
L 394.1856 186.504633 
L 394.632 191.861399 
L 395.0784 200.15602 
L 395.5248 204.867424 
L 396.4176 216.828654 
L 396.864 222.501991 
L 397.3104 226.219061 
L 397.7568 232.588752 
L 399.096 242.092828 
L 399.5424 246.031391 
L 399.9888 248.393467 
L 400.8816 255.941222 
L 401.7744 261.972403 
L 403.1136 269.830303 
L 403.56 273.259058 
L 404.0064 275.019327 
L 404.8992 280.553448 
L 405.792 286.445465 
L 406.6848 292.188491 
L 407.5776 298.194389 
L 408.024 300.261777 
L 408.4704 303.016201 
L 408.9168 304.814486 
L 409.3632 305.802271 
L 409.8096 307.575226 
L 410.256 307.967812 
L 410.7024 308.62633 
L 411.1488 308.965095 
L 411.5952 308.971426 
L 412.9344 308.426874 
L 413.8272 308.287571 
L 414.72 308.376222 
L 415.1664 308.243251 
L 415.1664 308.243251 
" style="fill:none;stroke:#1f77b4;stroke-linecap:square;stroke-width:1.5;"/>
   </g>
   <g id="patch_3">
    <path d="M 57.6 307.584 
L 57.6 41.472 
" style="fill:none;stroke:#000000;stroke-linecap:square;stroke-linejoin:miter;stroke-width:0.8;"/>
   </g>
   <g id="patch_4">
    <path d="M 414.72 307.584 
L 414.72 41.472 
" style="fill:none;stroke:#000000;stroke-linecap:square;stroke-linejoin:miter;stroke-width:0.8;"/>
   </g>
   <g id="patch_5">
    <path d="M 57.6 307.584 
L 414.72 307.584 
" style="fill:none;stroke:#000000;stroke-linecap:square;stroke-linejoin:miter;stroke-width:0.8;"/>
   </g>
   <g id="patch_6">
    <path d="M 57.6 41.472 
L 414.72 41.472 
" style="fill:none;stroke:#000000;stroke-linecap:square;stroke-linejoin:miter;stroke-width:0.8;"/>
   </g>
   <g id="text_18">
    <!-- Long. Resistivity with scattered filling factor minima start &amp; endpoints -->
    <g transform="translate(26.007188 35.472)scale(0.12 -0.12)">
     <defs>
      <path d="M 628 4666 
L 1259 4666 
L 1259 531 
L 3531 531 
L 3531 0 
L 628 0 
L 628 4666 
z
" id="DejaVuSans-4c" transform="scale(0.015625)"/>
      <path d="M 1959 3097 
Q 1497 3097 1228 2736 
Q 959 2375 959 1747 
Q 959 1119 1226 758 
Q 1494 397 1959 397 
Q 2419 397 2687 759 
Q 2956 1122 2956 1747 
Q 2956 2369 2687 2733 
Q 2419 3097 1959 3097 
z
M 1959 3584 
Q 2709 3584 3137 3096 
Q 3566 2609 3566 1747 
Q 3566 888 3137 398 
Q 2709 -91 1959 -91 
Q 1206 -91 779 398 
Q 353 888 353 1747 
Q 353 2609 779 3096 
Q 1206 3584 1959 3584 
z
" id="DejaVuSans-6f" transform="scale(0.015625)"/>
      <path d="M 3513 2113 
L 3513 0 
L 2938 0 
L 2938 2094 
Q 2938 2591 2744 2837 
Q 2550 3084 2163 3084 
Q 1697 3084 1428 2787 
Q 1159 2491 1159 1978 
L 1159 0 
L 581 0 
L 581 3500 
L 1159 3500 
L 1159 2956 
Q 1366 3272 1645 3428 
Q 1925 3584 2291 3584 
Q 2894 3584 3203 3211 
Q 3513 2838 3513 2113 
z
" id="DejaVuSans-6e" transform="scale(0.015625)"/>
      <path d="M 2906 1791 
Q 2906 2416 2648 2759 
Q 2391 3103 1925 3103 
Q 1463 3103 1205 2759 
Q 947 2416 947 1791 
Q 947 1169 1205 825 
Q 1463 481 1925 481 
Q 2391 481 2648 825 
Q 2906 1169 2906 1791 
z
M 3481 434 
Q 3481 -459 3084 -895 
Q 2688 -1331 1869 -1331 
Q 1566 -1331 1297 -1286 
Q 1028 -1241 775 -1147 
L 775 -588 
Q 1028 -725 1275 -790 
Q 1522 -856 1778 -856 
Q 2344 -856 2625 -561 
Q 2906 -266 2906 331 
L 2906 616 
Q 2728 306 2450 153 
Q 2172 0 1784 0 
Q 1141 0 747 490 
Q 353 981 353 1791 
Q 353 2603 747 3093 
Q 1141 3584 1784 3584 
Q 2172 3584 2450 3431 
Q 2728 3278 2906 2969 
L 2906 3500 
L 3481 3500 
L 3481 434 
z
" id="DejaVuSans-67" transform="scale(0.015625)"/>
      <path d="M 2841 2188 
Q 3044 2119 3236 1894 
Q 3428 1669 3622 1275 
L 4263 0 
L 3584 0 
L 2988 1197 
Q 2756 1666 2539 1819 
Q 2322 1972 1947 1972 
L 1259 1972 
L 1259 0 
L 628 0 
L 628 4666 
L 2053 4666 
Q 2853 4666 3247 4331 
Q 3641 3997 3641 3322 
Q 3641 2881 3436 2590 
Q 3231 2300 2841 2188 
z
M 1259 4147 
L 1259 2491 
L 2053 2491 
Q 2509 2491 2742 2702 
Q 2975 2913 2975 3322 
Q 2975 3731 2742 3939 
Q 2509 4147 2053 4147 
L 1259 4147 
z
" id="DejaVuSans-52" transform="scale(0.015625)"/>
      <path d="M 3597 1894 
L 3597 1613 
L 953 1613 
Q 991 1019 1311 708 
Q 1631 397 2203 397 
Q 2534 397 2845 478 
Q 3156 559 3463 722 
L 3463 178 
Q 3153 47 2828 -22 
Q 2503 -91 2169 -91 
Q 1331 -91 842 396 
Q 353 884 353 1716 
Q 353 2575 817 3079 
Q 1281 3584 2069 3584 
Q 2775 3584 3186 3129 
Q 3597 2675 3597 1894 
z
M 3022 2063 
Q 3016 2534 2758 2815 
Q 2500 3097 2075 3097 
Q 1594 3097 1305 2825 
Q 1016 2553 972 2059 
L 3022 2063 
z
" id="DejaVuSans-65" transform="scale(0.015625)"/>
      <path d="M 2834 3397 
L 2834 2853 
Q 2591 2978 2328 3040 
Q 2066 3103 1784 3103 
Q 1356 3103 1142 2972 
Q 928 2841 928 2578 
Q 928 2378 1081 2264 
Q 1234 2150 1697 2047 
L 1894 2003 
Q 2506 1872 2764 1633 
Q 3022 1394 3022 966 
Q 3022 478 2636 193 
Q 2250 -91 1575 -91 
Q 1294 -91 989 -36 
Q 684 19 347 128 
L 347 722 
Q 666 556 975 473 
Q 1284 391 1588 391 
Q 1994 391 2212 530 
Q 2431 669 2431 922 
Q 2431 1156 2273 1281 
Q 2116 1406 1581 1522 
L 1381 1569 
Q 847 1681 609 1914 
Q 372 2147 372 2553 
Q 372 3047 722 3315 
Q 1072 3584 1716 3584 
Q 2034 3584 2315 3537 
Q 2597 3491 2834 3397 
z
" id="DejaVuSans-73" transform="scale(0.015625)"/>
      <path d="M 603 3500 
L 1178 3500 
L 1178 0 
L 603 0 
L 603 3500 
z
M 603 4863 
L 1178 4863 
L 1178 4134 
L 603 4134 
L 603 4863 
z
" id="DejaVuSans-69" transform="scale(0.015625)"/>
      <path d="M 1172 4494 
L 1172 3500 
L 2356 3500 
L 2356 3053 
L 1172 3053 
L 1172 1153 
Q 1172 725 1289 603 
Q 1406 481 1766 481 
L 2356 481 
L 2356 0 
L 1766 0 
Q 1100 0 847 248 
Q 594 497 594 1153 
L 594 3053 
L 172 3053 
L 172 3500 
L 594 3500 
L 594 4494 
L 1172 4494 
z
" id="DejaVuSans-74" transform="scale(0.015625)"/>
      <path d="M 191 3500 
L 800 3500 
L 1894 563 
L 2988 3500 
L 3597 3500 
L 2284 0 
L 1503 0 
L 191 3500 
z
" id="DejaVuSans-76" transform="scale(0.015625)"/>
      <path d="M 2059 -325 
Q 1816 -950 1584 -1140 
Q 1353 -1331 966 -1331 
L 506 -1331 
L 506 -850 
L 844 -850 
Q 1081 -850 1212 -737 
Q 1344 -625 1503 -206 
L 1606 56 
L 191 3500 
L 800 3500 
L 1894 763 
L 2988 3500 
L 3597 3500 
L 2059 -325 
z
" id="DejaVuSans-79" transform="scale(0.015625)"/>
      <path d="M 269 3500 
L 844 3500 
L 1563 769 
L 2278 3500 
L 2956 3500 
L 3675 769 
L 4391 3500 
L 4966 3500 
L 4050 0 
L 3372 0 
L 2619 2869 
L 1863 0 
L 1184 0 
L 269 3500 
z
" id="DejaVuSans-77" transform="scale(0.015625)"/>
      <path d="M 3513 2113 
L 3513 0 
L 2938 0 
L 2938 2094 
Q 2938 2591 2744 2837 
Q 2550 3084 2163 3084 
Q 1697 3084 1428 2787 
Q 1159 2491 1159 1978 
L 1159 0 
L 581 0 
L 581 4863 
L 1159 4863 
L 1159 2956 
Q 1366 3272 1645 3428 
Q 1925 3584 2291 3584 
Q 2894 3584 3203 3211 
Q 3513 2838 3513 2113 
z
" id="DejaVuSans-68" transform="scale(0.015625)"/>
      <path d="M 3122 3366 
L 3122 2828 
Q 2878 2963 2633 3030 
Q 2388 3097 2138 3097 
Q 1578 3097 1268 2742 
Q 959 2388 959 1747 
Q 959 1106 1268 751 
Q 1578 397 2138 397 
Q 2388 397 2633 464 
Q 2878 531 3122 666 
L 3122 134 
Q 2881 22 2623 -34 
Q 2366 -91 2075 -91 
Q 1284 -91 818 406 
Q 353 903 353 1747 
Q 353 2603 823 3093 
Q 1294 3584 2113 3584 
Q 2378 3584 2631 3529 
Q 2884 3475 3122 3366 
z
" id="DejaVuSans-63" transform="scale(0.015625)"/>
      <path d="M 2194 1759 
Q 1497 1759 1228 1600 
Q 959 1441 959 1056 
Q 959 750 1161 570 
Q 1363 391 1709 391 
Q 2188 391 2477 730 
Q 2766 1069 2766 1631 
L 2766 1759 
L 2194 1759 
z
M 3341 1997 
L 3341 0 
L 2766 0 
L 2766 531 
Q 2569 213 2275 61 
Q 1981 -91 1556 -91 
Q 1019 -91 701 211 
Q 384 513 384 1019 
Q 384 1609 779 1909 
Q 1175 2209 1959 2209 
L 2766 2209 
L 2766 2266 
Q 2766 2663 2505 2880 
Q 2244 3097 1772 3097 
Q 1472 3097 1187 3025 
Q 903 2953 641 2809 
L 641 3341 
Q 956 3463 1253 3523 
Q 1550 3584 1831 3584 
Q 2591 3584 2966 3190 
Q 3341 2797 3341 1997 
z
" id="DejaVuSans-61" transform="scale(0.015625)"/>
      <path d="M 2631 2963 
Q 2534 3019 2420 3045 
Q 2306 3072 2169 3072 
Q 1681 3072 1420 2755 
Q 1159 2438 1159 1844 
L 1159 0 
L 581 0 
L 581 3500 
L 1159 3500 
L 1159 2956 
Q 1341 3275 1631 3429 
Q 1922 3584 2338 3584 
Q 2397 3584 2469 3576 
Q 2541 3569 2628 3553 
L 2631 2963 
z
" id="DejaVuSans-72" transform="scale(0.015625)"/>
      <path d="M 2906 2969 
L 2906 4863 
L 3481 4863 
L 3481 0 
L 2906 0 
L 2906 525 
Q 2725 213 2448 61 
Q 2172 -91 1784 -91 
Q 1150 -91 751 415 
Q 353 922 353 1747 
Q 353 2572 751 3078 
Q 1150 3584 1784 3584 
Q 2172 3584 2448 3432 
Q 2725 3281 2906 2969 
z
M 947 1747 
Q 947 1113 1208 752 
Q 1469 391 1925 391 
Q 2381 391 2643 752 
Q 2906 1113 2906 1747 
Q 2906 2381 2643 2742 
Q 2381 3103 1925 3103 
Q 1469 3103 1208 2742 
Q 947 2381 947 1747 
z
" id="DejaVuSans-64" transform="scale(0.015625)"/>
      <path d="M 2375 4863 
L 2375 4384 
L 1825 4384 
Q 1516 4384 1395 4259 
Q 1275 4134 1275 3809 
L 1275 3500 
L 2222 3500 
L 2222 3053 
L 1275 3053 
L 1275 0 
L 697 0 
L 697 3053 
L 147 3053 
L 147 3500 
L 697 3500 
L 697 3744 
Q 697 4328 969 4595 
Q 1241 4863 1831 4863 
L 2375 4863 
z
" id="DejaVuSans-66" transform="scale(0.015625)"/>
      <path d="M 603 4863 
L 1178 4863 
L 1178 0 
L 603 0 
L 603 4863 
z
" id="DejaVuSans-6c" transform="scale(0.015625)"/>
      <path d="M 3328 2828 
Q 3544 3216 3844 3400 
Q 4144 3584 4550 3584 
Q 5097 3584 5394 3201 
Q 5691 2819 5691 2113 
L 5691 0 
L 5113 0 
L 5113 2094 
Q 5113 2597 4934 2840 
Q 4756 3084 4391 3084 
Q 3944 3084 3684 2787 
Q 3425 2491 3425 1978 
L 3425 0 
L 2847 0 
L 2847 2094 
Q 2847 2600 2669 2842 
Q 2491 3084 2119 3084 
Q 1678 3084 1418 2786 
Q 1159 2488 1159 1978 
L 1159 0 
L 581 0 
L 581 3500 
L 1159 3500 
L 1159 2956 
Q 1356 3278 1631 3431 
Q 1906 3584 2284 3584 
Q 2666 3584 2933 3390 
Q 3200 3197 3328 2828 
z
" id="DejaVuSans-6d" transform="scale(0.015625)"/>
      <path d="M 1556 2509 
Q 1272 2256 1139 2004 
Q 1006 1753 1006 1478 
Q 1006 1022 1337 719 
Q 1669 416 2169 416 
Q 2466 416 2725 514 
Q 2984 613 3213 813 
L 1556 2509 
z
M 1997 2859 
L 3584 1234 
Q 3769 1513 3872 1830 
Q 3975 2147 3994 2503 
L 4575 2503 
Q 4538 2091 4375 1687 
Q 4213 1284 3922 891 
L 4794 0 
L 4006 0 
L 3559 459 
Q 3234 181 2878 45 
Q 2522 -91 2113 -91 
Q 1359 -91 881 339 
Q 403 769 403 1441 
Q 403 1841 612 2192 
Q 822 2544 1241 2853 
Q 1091 3050 1012 3245 
Q 934 3441 934 3628 
Q 934 4134 1281 4442 
Q 1628 4750 2203 4750 
Q 2463 4750 2720 4694 
Q 2978 4638 3244 4525 
L 3244 3956 
Q 2972 4103 2725 4179 
Q 2478 4256 2266 4256 
Q 1938 4256 1733 4082 
Q 1528 3909 1528 3634 
Q 1528 3475 1620 3314 
Q 1713 3153 1997 2859 
z
" id="DejaVuSans-26" transform="scale(0.015625)"/>
      <path d="M 1159 525 
L 1159 -1331 
L 581 -1331 
L 581 3500 
L 1159 3500 
L 1159 2969 
Q 1341 3281 1617 3432 
Q 1894 3584 2278 3584 
Q 2916 3584 3314 3078 
Q 3713 2572 3713 1747 
Q 3713 922 3314 415 
Q 2916 -91 2278 -91 
Q 1894 -91 1617 61 
Q 1341 213 1159 525 
z
M 3116 1747 
Q 3116 2381 2855 2742 
Q 2594 3103 2138 3103 
Q 1681 3103 1420 2742 
Q 1159 2381 1159 1747 
Q 1159 1113 1420 752 
Q 1681 391 2138 391 
Q 2594 391 2855 752 
Q 3116 1113 3116 1747 
z
" id="DejaVuSans-70" transform="scale(0.015625)"/>
     </defs>
     <use xlink:href="#DejaVuSans-4c"/>
     <use x="53.962891" xlink:href="#DejaVuSans-6f"/>
     <use x="115.144531" xlink:href="#DejaVuSans-6e"/>
     <use x="178.523438" xlink:href="#DejaVuSans-67"/>
     <use x="242" xlink:href="#DejaVuSans-2e"/>
     <use x="273.787109" xlink:href="#DejaVuSans-20"/>
     <use x="305.574219" xlink:href="#DejaVuSans-52"/>
     <use x="370.556641" xlink:href="#DejaVuSans-65"/>
     <use x="432.080078" xlink:href="#DejaVuSans-73"/>
     <use x="484.179688" xlink:href="#DejaVuSans-69"/>
     <use x="511.962891" xlink:href="#DejaVuSans-73"/>
     <use x="564.0625" xlink:href="#DejaVuSans-74"/>
     <use x="603.271484" xlink:href="#DejaVuSans-69"/>
     <use x="631.054688" xlink:href="#DejaVuSans-76"/>
     <use x="690.234375" xlink:href="#DejaVuSans-69"/>
     <use x="718.017578" xlink:href="#DejaVuSans-74"/>
     <use x="757.226562" xlink:href="#DejaVuSans-79"/>
     <use x="816.40625" xlink:href="#DejaVuSans-20"/>
     <use x="848.193359" xlink:href="#DejaVuSans-77"/>
     <use x="929.980469" xlink:href="#DejaVuSans-69"/>
     <use x="957.763672" xlink:href="#DejaVuSans-74"/>
     <use x="996.972656" xlink:href="#DejaVuSans-68"/>
     <use x="1060.351562" xlink:href="#DejaVuSans-20"/>
     <use x="1092.138672" xlink:href="#DejaVuSans-73"/>
     <use x="1144.238281" xlink:href="#DejaVuSans-63"/>
     <use x="1199.21875" xlink:href="#DejaVuSans-61"/>
     <use x="1260.498047" xlink:href="#DejaVuSans-74"/>
     <use x="1299.707031" xlink:href="#DejaVuSans-74"/>
     <use x="1338.916016" xlink:href="#DejaVuSans-65"/>
     <use x="1400.439453" xlink:href="#DejaVuSans-72"/>
     <use x="1439.302734" xlink:href="#DejaVuSans-65"/>
     <use x="1500.826172" xlink:href="#DejaVuSans-64"/>
     <use x="1564.302734" xlink:href="#DejaVuSans-20"/>
     <use x="1596.089844" xlink:href="#DejaVuSans-66"/>
     <use x="1631.294922" xlink:href="#DejaVuSans-69"/>
     <use x="1659.078125" xlink:href="#DejaVuSans-6c"/>
     <use x="1686.861328" xlink:href="#DejaVuSans-6c"/>
     <use x="1714.644531" xlink:href="#DejaVuSans-69"/>
     <use x="1742.427734" xlink:href="#DejaVuSans-6e"/>
     <use x="1805.806641" xlink:href="#DejaVuSans-67"/>
     <use x="1869.283203" xlink:href="#DejaVuSans-20"/>
     <use x="1901.070312" xlink:href="#DejaVuSans-66"/>
     <use x="1936.275391" xlink:href="#DejaVuSans-61"/>
     <use x="1997.554688" xlink:href="#DejaVuSans-63"/>
     <use x="2052.535156" xlink:href="#DejaVuSans-74"/>
     <use x="2091.744141" xlink:href="#DejaVuSans-6f"/>
     <use x="2152.925781" xlink:href="#DejaVuSans-72"/>
     <use x="2194.039062" xlink:href="#DejaVuSans-20"/>
     <use x="2225.826172" xlink:href="#DejaVuSans-6d"/>
     <use x="2323.238281" xlink:href="#DejaVuSans-69"/>
     <use x="2351.021484" xlink:href="#DejaVuSans-6e"/>
     <use x="2414.400391" xlink:href="#DejaVuSans-69"/>
     <use x="2442.183594" xlink:href="#DejaVuSans-6d"/>
     <use x="2539.595703" xlink:href="#DejaVuSans-61"/>
     <use x="2600.875" xlink:href="#DejaVuSans-20"/>
     <use x="2632.662109" xlink:href="#DejaVuSans-73"/>
     <use x="2684.761719" xlink:href="#DejaVuSans-74"/>
     <use x="2723.970703" xlink:href="#DejaVuSans-61"/>
     <use x="2785.25" xlink:href="#DejaVuSans-72"/>
     <use x="2826.363281" xlink:href="#DejaVuSans-74"/>
     <use x="2865.572266" xlink:href="#DejaVuSans-20"/>
     <use x="2897.359375" xlink:href="#DejaVuSans-26"/>
     <use x="2975.337891" xlink:href="#DejaVuSans-20"/>
     <use x="3007.125" xlink:href="#DejaVuSans-65"/>
     <use x="3068.648438" xlink:href="#DejaVuSans-6e"/>
     <use x="3132.027344" xlink:href="#DejaVuSans-64"/>
     <use x="3195.503906" xlink:href="#DejaVuSans-70"/>
     <use x="3258.980469" xlink:href="#DejaVuSans-6f"/>
     <use x="3320.162109" xlink:href="#DejaVuSans-69"/>
     <use x="3347.945312" xlink:href="#DejaVuSans-6e"/>
     <use x="3411.324219" xlink:href="#DejaVuSans-74"/>
     <use x="3450.533203" xlink:href="#DejaVuSans-73"/>
    </g>
   </g>
   <g id="legend_1">
    <g id="patch_7">
     <path d="M 64.6 137.54075 
L 120.2 137.54075 
Q 122.2 137.54075 122.2 135.54075 
L 122.2 48.472 
Q 122.2 46.472 120.2 46.472 
L 64.6 46.472 
Q 62.6 46.472 62.6 48.472 
L 62.6 135.54075 
Q 62.6 137.54075 64.6 137.54075 
z
" style="fill:#ffffff;opacity:0.8;stroke:#cccccc;stroke-linejoin:miter;"/>
    </g>
    <g id="PathCollection_7">
     <g>
      <use style="fill:#0000ff;stroke:#0000ff;" x="76.6" xlink:href="#m5b9b89a5d7" y="55.445438"/>
     </g>
    </g>
    <g id="text_19">
     <!-- $\nu$= 1 -->
     <g transform="translate(94.6 58.070438)scale(0.1 -0.1)">
      <defs>
       <path d="M 959 0 
L 572 3500 
L 1191 3500 
L 1522 563 
Q 1972 950 2391 1488 
Q 2706 1891 2788 2241 
Q 2825 2406 2809 2719 
Q 2794 3091 2544 3500 
L 3125 3500 
L 3125 3500 
Q 3288 3222 3353 2834 
Q 3416 2478 3369 2234 
Q 3250 1622 2719 1075 
Q 2025 363 1572 0 
L 959 0 
z
" id="DejaVuSans-Oblique-3bd" transform="scale(0.015625)"/>
       <path d="M 678 2906 
L 4684 2906 
L 4684 2381 
L 678 2381 
L 678 2906 
z
M 678 1631 
L 4684 1631 
L 4684 1100 
L 678 1100 
L 678 1631 
z
" id="DejaVuSans-3d" transform="scale(0.015625)"/>
      </defs>
      <use transform="translate(0 0.09375)" xlink:href="#DejaVuSans-Oblique-3bd"/>
      <use transform="translate(55.859375 0.09375)" xlink:href="#DejaVuSans-3d"/>
      <use transform="translate(139.648438 0.09375)" xlink:href="#DejaVuSans-20"/>
      <use transform="translate(171.435547 0.09375)" xlink:href="#DejaVuSans-31"/>
     </g>
    </g>
    <g id="PathCollection_8">
     <g>
      <use style="fill:#ff0000;stroke:#ff0000;" x="76.6" xlink:href="#mc0568347dd" y="70.123563"/>
     </g>
    </g>
    <g id="text_20">
     <!-- $\nu$= 2 -->
     <g transform="translate(94.6 72.748563)scale(0.1 -0.1)">
      <use transform="translate(0 0.78125)" xlink:href="#DejaVuSans-Oblique-3bd"/>
      <use transform="translate(55.859375 0.78125)" xlink:href="#DejaVuSans-3d"/>
      <use transform="translate(139.648438 0.78125)" xlink:href="#DejaVuSans-20"/>
      <use transform="translate(171.435547 0.78125)" xlink:href="#DejaVuSans-32"/>
     </g>
    </g>
    <g id="PathCollection_9">
     <g>
      <use style="fill:#ffa500;stroke:#ffa500;" x="76.6" xlink:href="#m72e7427733" y="84.801688"/>
     </g>
    </g>
    <g id="text_21">
     <!-- $\nu$= 3 -->
     <g transform="translate(94.6 87.426688)scale(0.1 -0.1)">
      <use transform="translate(0 0.78125)" xlink:href="#DejaVuSans-Oblique-3bd"/>
      <use transform="translate(55.859375 0.78125)" xlink:href="#DejaVuSans-3d"/>
      <use transform="translate(139.648438 0.78125)" xlink:href="#DejaVuSans-20"/>
      <use transform="translate(171.435547 0.78125)" xlink:href="#DejaVuSans-33"/>
     </g>
    </g>
    <g id="PathCollection_10">
     <g>
      <use style="fill:#800080;stroke:#800080;" x="76.6" xlink:href="#m0dffdcec49" y="99.479813"/>
     </g>
    </g>
    <g id="text_22">
     <!-- $\nu$= 4 -->
     <g transform="translate(94.6 102.104813)scale(0.1 -0.1)">
      <use transform="translate(0 0.09375)" xlink:href="#DejaVuSans-Oblique-3bd"/>
      <use transform="translate(55.859375 0.09375)" xlink:href="#DejaVuSans-3d"/>
      <use transform="translate(139.648438 0.09375)" xlink:href="#DejaVuSans-20"/>
      <use transform="translate(171.435547 0.09375)" xlink:href="#DejaVuSans-34"/>
     </g>
    </g>
    <g id="PathCollection_11">
     <g>
      <use style="fill:#ffff00;stroke:#ffff00;" x="76.6" xlink:href="#m8175a7b40a" y="114.157938"/>
     </g>
    </g>
    <g id="text_23">
     <!-- $\nu$= 5 -->
     <g transform="translate(94.6 116.782938)scale(0.1 -0.1)">
      <use transform="translate(0 0.09375)" xlink:href="#DejaVuSans-Oblique-3bd"/>
      <use transform="translate(55.859375 0.09375)" xlink:href="#DejaVuSans-3d"/>
      <use transform="translate(139.648438 0.09375)" xlink:href="#DejaVuSans-20"/>
      <use transform="translate(171.435547 0.09375)" xlink:href="#DejaVuSans-35"/>
     </g>
    </g>
    <g id="PathCollection_12">
     <g>
      <use style="fill:#ffc0cb;stroke:#ffc0cb;" x="76.6" xlink:href="#mc153fd839b" y="128.836063"/>
     </g>
    </g>
    <g id="text_24">
     <!-- $\nu$= 6 -->
     <g transform="translate(94.6 131.461063)scale(0.1 -0.1)">
      <defs>
       <path d="M 2113 2584 
Q 1688 2584 1439 2293 
Q 1191 2003 1191 1497 
Q 1191 994 1439 701 
Q 1688 409 2113 409 
Q 2538 409 2786 701 
Q 3034 994 3034 1497 
Q 3034 2003 2786 2293 
Q 2538 2584 2113 2584 
z
M 3366 4563 
L 3366 3988 
Q 3128 4100 2886 4159 
Q 2644 4219 2406 4219 
Q 1781 4219 1451 3797 
Q 1122 3375 1075 2522 
Q 1259 2794 1537 2939 
Q 1816 3084 2150 3084 
Q 2853 3084 3261 2657 
Q 3669 2231 3669 1497 
Q 3669 778 3244 343 
Q 2819 -91 2113 -91 
Q 1303 -91 875 529 
Q 447 1150 447 2328 
Q 447 3434 972 4092 
Q 1497 4750 2381 4750 
Q 2619 4750 2861 4703 
Q 3103 4656 3366 4563 
z
" id="DejaVuSans-36" transform="scale(0.015625)"/>
      </defs>
      <use transform="translate(0 0.78125)" xlink:href="#DejaVuSans-Oblique-3bd"/>
      <use transform="translate(55.859375 0.78125)" xlink:href="#DejaVuSans-3d"/>
      <use transform="translate(139.648438 0.78125)" xlink:href="#DejaVuSans-20"/>
      <use transform="translate(171.435547 0.78125)" xlink:href="#DejaVuSans-36"/>
     </g>
    </g>
   </g>
  </g>
 </g>
 <defs>
  <clipPath id="p0d5f7d4963">
   <rect height="266.112" width="357.12" x="57.6" y="41.472"/>
  </clipPath>
 </defs>
</svg>
