<?xml version="1.0" encoding="utf-8" standalone="no"?>
<!DOCTYPE svg PUBLIC "-//W3C//DTD SVG 1.1//EN"
  "http://www.w3.org/Graphics/SVG/1.1/DTD/svg11.dtd">
<svg height="345.6pt" version="1.1" viewBox="0 0 460.8 345.6" width="460.8pt" xmlns="http://www.w3.org/2000/svg" xmlns:xlink="http://www.w3.org/1999/xlink">
 <metadata>
  <rdf:RDF xmlns:cc="http://creativecommons.org/ns#" xmlns:dc="http://purl.org/dc/elements/1.1/" xmlns:rdf="http://www.w3.org/1999/02/22-rdf-syntax-ns#">
   <cc:Work>
    <dc:type rdf:resource="http://purl.org/dc/dcmitype/StillImage"/>
    <dc:date>2023-10-27T10:18:11.516146</dc:date>
    <dc:format>image/svg+xml</dc:format>
    <dc:creator>
     <cc:Agent>
      <dc:title>Matplotlib v3.4.3, https://matplotlib.org/</dc:title>
     </cc:Agent>
    </dc:creator>
   </cc:Work>
  </rdf:RDF>
 </metadata>
 <defs>
  <style type="text/css">*{stroke-linecap:butt;stroke-linejoin:round;}</style>
 </defs>
 <g id="figure_1">
  <g id="patch_1">
   <path d="M 0 345.6 
L 460.8 345.6 
L 460.8 0 
L 0 0 
z
" style="fill:#ffffff;"/>
  </g>
  <g id="axes_1">
   <g id="patch_2">
    <path d="M 57.6 307.584 
L 414.72 307.584 
L 414.72 41.472 
L 57.6 41.472 
z
" style="fill:#ffffff;"/>
   </g>
   <g id="matplotlib.axis_1">
    <g id="xtick_1">
     <g id="line2d_1">
      <defs>
       <path d="M 0 0 
L 0 3.5 
" id="m2f58615928" style="stroke:#000000;stroke-width:0.8;"/>
      </defs>
      <g>
       <use style="stroke:#000000;stroke-width:0.8;" x="97.704385" xlink:href="#m2f58615928" y="307.584"/>
      </g>
     </g>
     <g id="text_1">
      <!-- 2 -->
      <g transform="translate(94.523135 322.182437)scale(0.1 -0.1)">
       <defs>
        <path d="M 1228 531 
L 3431 531 
L 3431 0 
L 469 0 
L 469 531 
Q 828 903 1448 1529 
Q 2069 2156 2228 2338 
Q 2531 2678 2651 2914 
Q 2772 3150 2772 3378 
Q 2772 3750 2511 3984 
Q 2250 4219 1831 4219 
Q 1534 4219 1204 4116 
Q 875 4013 500 3803 
L 500 4441 
Q 881 4594 1212 4672 
Q 1544 4750 1819 4750 
Q 2544 4750 2975 4387 
Q 3406 4025 3406 3419 
Q 3406 3131 3298 2873 
Q 3191 2616 2906 2266 
Q 2828 2175 2409 1742 
Q 1991 1309 1228 531 
z
" id="DejaVuSans-32" transform="scale(0.015625)"/>
       </defs>
       <use xlink:href="#DejaVuSans-32"/>
      </g>
     </g>
    </g>
    <g id="xtick_2">
     <g id="line2d_2">
      <g>
       <use style="stroke:#000000;stroke-width:0.8;" x="171.15564" xlink:href="#m2f58615928" y="307.584"/>
      </g>
     </g>
     <g id="text_2">
      <!-- 4 -->
      <g transform="translate(167.97439 322.182437)scale(0.1 -0.1)">
       <defs>
        <path d="M 2419 4116 
L 825 1625 
L 2419 1625 
L 2419 4116 
z
M 2253 4666 
L 3047 4666 
L 3047 1625 
L 3713 1625 
L 3713 1100 
L 3047 1100 
L 3047 0 
L 2419 0 
L 2419 1100 
L 313 1100 
L 313 1709 
L 2253 4666 
z
" id="DejaVuSans-34" transform="scale(0.015625)"/>
       </defs>
       <use xlink:href="#DejaVuSans-34"/>
      </g>
     </g>
    </g>
    <g id="xtick_3">
     <g id="line2d_3">
      <g>
       <use style="stroke:#000000;stroke-width:0.8;" x="244.606894" xlink:href="#m2f58615928" y="307.584"/>
      </g>
     </g>
     <g id="text_3">
      <!-- 6 -->
      <g transform="translate(241.425644 322.182437)scale(0.1 -0.1)">
       <defs>
        <path d="M 2113 2584 
Q 1688 2584 1439 2293 
Q 1191 2003 1191 1497 
Q 1191 994 1439 701 
Q 1688 409 2113 409 
Q 2538 409 2786 701 
Q 3034 994 3034 1497 
Q 3034 2003 2786 2293 
Q 2538 2584 2113 2584 
z
M 3366 4563 
L 3366 3988 
Q 3128 4100 2886 4159 
Q 2644 4219 2406 4219 
Q 1781 4219 1451 3797 
Q 1122 3375 1075 2522 
Q 1259 2794 1537 2939 
Q 1816 3084 2150 3084 
Q 2853 3084 3261 2657 
Q 3669 2231 3669 1497 
Q 3669 778 3244 343 
Q 2819 -91 2113 -91 
Q 1303 -91 875 529 
Q 447 1150 447 2328 
Q 447 3434 972 4092 
Q 1497 4750 2381 4750 
Q 2619 4750 2861 4703 
Q 3103 4656 3366 4563 
z
" id="DejaVuSans-36" transform="scale(0.015625)"/>
       </defs>
       <use xlink:href="#DejaVuSans-36"/>
      </g>
     </g>
    </g>
    <g id="xtick_4">
     <g id="line2d_4">
      <g>
       <use style="stroke:#000000;stroke-width:0.8;" x="318.058149" xlink:href="#m2f58615928" y="307.584"/>
      </g>
     </g>
     <g id="text_4">
      <!-- 8 -->
      <g transform="translate(314.876899 322.182437)scale(0.1 -0.1)">
       <defs>
        <path d="M 2034 2216 
Q 1584 2216 1326 1975 
Q 1069 1734 1069 1313 
Q 1069 891 1326 650 
Q 1584 409 2034 409 
Q 2484 409 2743 651 
Q 3003 894 3003 1313 
Q 3003 1734 2745 1975 
Q 2488 2216 2034 2216 
z
M 1403 2484 
Q 997 2584 770 2862 
Q 544 3141 544 3541 
Q 544 4100 942 4425 
Q 1341 4750 2034 4750 
Q 2731 4750 3128 4425 
Q 3525 4100 3525 3541 
Q 3525 3141 3298 2862 
Q 3072 2584 2669 2484 
Q 3125 2378 3379 2068 
Q 3634 1759 3634 1313 
Q 3634 634 3220 271 
Q 2806 -91 2034 -91 
Q 1263 -91 848 271 
Q 434 634 434 1313 
Q 434 1759 690 2068 
Q 947 2378 1403 2484 
z
M 1172 3481 
Q 1172 3119 1398 2916 
Q 1625 2713 2034 2713 
Q 2441 2713 2670 2916 
Q 2900 3119 2900 3481 
Q 2900 3844 2670 4047 
Q 2441 4250 2034 4250 
Q 1625 4250 1398 4047 
Q 1172 3844 1172 3481 
z
" id="DejaVuSans-38" transform="scale(0.015625)"/>
       </defs>
       <use xlink:href="#DejaVuSans-38"/>
      </g>
     </g>
    </g>
    <g id="xtick_5">
     <g id="line2d_5">
      <g>
       <use style="stroke:#000000;stroke-width:0.8;" x="391.509404" xlink:href="#m2f58615928" y="307.584"/>
      </g>
     </g>
     <g id="text_5">
      <!-- 10 -->
      <g transform="translate(385.146904 322.182437)scale(0.1 -0.1)">
       <defs>
        <path d="M 794 531 
L 1825 531 
L 1825 4091 
L 703 3866 
L 703 4441 
L 1819 4666 
L 2450 4666 
L 2450 531 
L 3481 531 
L 3481 0 
L 794 0 
L 794 531 
z
" id="DejaVuSans-31" transform="scale(0.015625)"/>
        <path d="M 2034 4250 
Q 1547 4250 1301 3770 
Q 1056 3291 1056 2328 
Q 1056 1369 1301 889 
Q 1547 409 2034 409 
Q 2525 409 2770 889 
Q 3016 1369 3016 2328 
Q 3016 3291 2770 3770 
Q 2525 4250 2034 4250 
z
M 2034 4750 
Q 2819 4750 3233 4129 
Q 3647 3509 3647 2328 
Q 3647 1150 3233 529 
Q 2819 -91 2034 -91 
Q 1250 -91 836 529 
Q 422 1150 422 2328 
Q 422 3509 836 4129 
Q 1250 4750 2034 4750 
z
" id="DejaVuSans-30" transform="scale(0.015625)"/>
       </defs>
       <use xlink:href="#DejaVuSans-31"/>
       <use x="63.623047" xlink:href="#DejaVuSans-30"/>
      </g>
     </g>
    </g>
    <g id="text_6">
     <!-- $B$ (T) -->
     <g transform="translate(224.16 335.860562)scale(0.1 -0.1)">
      <defs>
       <path d="M 1081 4666 
L 2694 4666 
Q 3350 4666 3675 4422 
Q 4000 4178 4000 3688 
Q 4000 3238 3720 2911 
Q 3441 2584 2988 2516 
Q 3375 2428 3569 2181 
Q 3763 1934 3763 1522 
Q 3763 819 3242 409 
Q 2722 0 1819 0 
L 172 0 
L 1081 4666 
z
M 1234 2228 
L 903 519 
L 1919 519 
Q 2491 519 2800 781 
Q 3109 1044 3109 1522 
Q 3109 1891 2904 2059 
Q 2700 2228 2247 2228 
L 1234 2228 
z
M 1606 4147 
L 1331 2741 
L 2272 2741 
Q 2775 2741 3058 2959 
Q 3341 3178 3341 3566 
Q 3341 3869 3150 4008 
Q 2959 4147 2541 4147 
L 1606 4147 
z
" id="DejaVuSans-Oblique-42" transform="scale(0.015625)"/>
       <path id="DejaVuSans-20" transform="scale(0.015625)"/>
       <path d="M 1984 4856 
Q 1566 4138 1362 3434 
Q 1159 2731 1159 2009 
Q 1159 1288 1364 580 
Q 1569 -128 1984 -844 
L 1484 -844 
Q 1016 -109 783 600 
Q 550 1309 550 2009 
Q 550 2706 781 3412 
Q 1013 4119 1484 4856 
L 1984 4856 
z
" id="DejaVuSans-28" transform="scale(0.015625)"/>
       <path d="M -19 4666 
L 3928 4666 
L 3928 4134 
L 2272 4134 
L 2272 0 
L 1638 0 
L 1638 4134 
L -19 4134 
L -19 4666 
z
" id="DejaVuSans-54" transform="scale(0.015625)"/>
       <path d="M 513 4856 
L 1013 4856 
Q 1481 4119 1714 3412 
Q 1947 2706 1947 2009 
Q 1947 1309 1714 600 
Q 1481 -109 1013 -844 
L 513 -844 
Q 928 -128 1133 580 
Q 1338 1288 1338 2009 
Q 1338 2731 1133 3434 
Q 928 4138 513 4856 
z
" id="DejaVuSans-29" transform="scale(0.015625)"/>
      </defs>
      <use transform="translate(0 0.125)" xlink:href="#DejaVuSans-Oblique-42"/>
      <use transform="translate(68.603516 0.125)" xlink:href="#DejaVuSans-20"/>
      <use transform="translate(100.390625 0.125)" xlink:href="#DejaVuSans-28"/>
      <use transform="translate(139.404297 0.125)" xlink:href="#DejaVuSans-54"/>
      <use transform="translate(200.488281 0.125)" xlink:href="#DejaVuSans-29"/>
     </g>
    </g>
   </g>
   <g id="matplotlib.axis_2">
    <g id="ytick_1">
     <g id="line2d_6">
      <defs>
       <path d="M 0 0 
L -3.5 0 
" id="m0c54d281b6" style="stroke:#000000;stroke-width:0.8;"/>
      </defs>
      <g>
       <use style="stroke:#000000;stroke-width:0.8;" x="57.6" xlink:href="#m0c54d281b6" y="299.425819"/>
      </g>
     </g>
     <g id="text_7">
      <!-- −2 -->
      <g transform="translate(35.857813 303.225038)scale(0.1 -0.1)">
       <defs>
        <path d="M 678 2272 
L 4684 2272 
L 4684 1741 
L 678 1741 
L 678 2272 
z
" id="DejaVuSans-2212" transform="scale(0.015625)"/>
       </defs>
       <use xlink:href="#DejaVuSans-2212"/>
       <use x="83.789062" xlink:href="#DejaVuSans-32"/>
      </g>
     </g>
    </g>
    <g id="ytick_2">
     <g id="line2d_7">
      <g>
       <use style="stroke:#000000;stroke-width:0.8;" x="57.6" xlink:href="#m0c54d281b6" y="267.703002"/>
      </g>
     </g>
     <g id="text_8">
      <!-- −1 -->
      <g transform="translate(35.857813 271.502221)scale(0.1 -0.1)">
       <use xlink:href="#DejaVuSans-2212"/>
       <use x="83.789062" xlink:href="#DejaVuSans-31"/>
      </g>
     </g>
    </g>
    <g id="ytick_3">
     <g id="line2d_8">
      <g>
       <use style="stroke:#000000;stroke-width:0.8;" x="57.6" xlink:href="#m0c54d281b6" y="235.980186"/>
      </g>
     </g>
     <g id="text_9">
      <!-- 0 -->
      <g transform="translate(44.2375 239.779405)scale(0.1 -0.1)">
       <use xlink:href="#DejaVuSans-30"/>
      </g>
     </g>
    </g>
    <g id="ytick_4">
     <g id="line2d_9">
      <g>
       <use style="stroke:#000000;stroke-width:0.8;" x="57.6" xlink:href="#m0c54d281b6" y="204.257369"/>
      </g>
     </g>
     <g id="text_10">
      <!-- 1 -->
      <g transform="translate(44.2375 208.056588)scale(0.1 -0.1)">
       <use xlink:href="#DejaVuSans-31"/>
      </g>
     </g>
    </g>
    <g id="ytick_5">
     <g id="line2d_10">
      <g>
       <use style="stroke:#000000;stroke-width:0.8;" x="57.6" xlink:href="#m0c54d281b6" y="172.534553"/>
      </g>
     </g>
     <g id="text_11">
      <!-- 2 -->
      <g transform="translate(44.2375 176.333771)scale(0.1 -0.1)">
       <use xlink:href="#DejaVuSans-32"/>
      </g>
     </g>
    </g>
    <g id="ytick_6">
     <g id="line2d_11">
      <g>
       <use style="stroke:#000000;stroke-width:0.8;" x="57.6" xlink:href="#m0c54d281b6" y="140.811736"/>
      </g>
     </g>
     <g id="text_12">
      <!-- 3 -->
      <g transform="translate(44.2375 144.610955)scale(0.1 -0.1)">
       <defs>
        <path d="M 2597 2516 
Q 3050 2419 3304 2112 
Q 3559 1806 3559 1356 
Q 3559 666 3084 287 
Q 2609 -91 1734 -91 
Q 1441 -91 1130 -33 
Q 819 25 488 141 
L 488 750 
Q 750 597 1062 519 
Q 1375 441 1716 441 
Q 2309 441 2620 675 
Q 2931 909 2931 1356 
Q 2931 1769 2642 2001 
Q 2353 2234 1838 2234 
L 1294 2234 
L 1294 2753 
L 1863 2753 
Q 2328 2753 2575 2939 
Q 2822 3125 2822 3475 
Q 2822 3834 2567 4026 
Q 2313 4219 1838 4219 
Q 1578 4219 1281 4162 
Q 984 4106 628 3988 
L 628 4550 
Q 988 4650 1302 4700 
Q 1616 4750 1894 4750 
Q 2613 4750 3031 4423 
Q 3450 4097 3450 3541 
Q 3450 3153 3228 2886 
Q 3006 2619 2597 2516 
z
" id="DejaVuSans-33" transform="scale(0.015625)"/>
       </defs>
       <use xlink:href="#DejaVuSans-33"/>
      </g>
     </g>
    </g>
    <g id="ytick_7">
     <g id="line2d_12">
      <g>
       <use style="stroke:#000000;stroke-width:0.8;" x="57.6" xlink:href="#m0c54d281b6" y="109.088919"/>
      </g>
     </g>
     <g id="text_13">
      <!-- 4 -->
      <g transform="translate(44.2375 112.888138)scale(0.1 -0.1)">
       <use xlink:href="#DejaVuSans-34"/>
      </g>
     </g>
    </g>
    <g id="ytick_8">
     <g id="line2d_13">
      <g>
       <use style="stroke:#000000;stroke-width:0.8;" x="57.6" xlink:href="#m0c54d281b6" y="77.366103"/>
      </g>
     </g>
     <g id="text_14">
      <!-- 5 -->
      <g transform="translate(44.2375 81.165322)scale(0.1 -0.1)">
       <defs>
        <path d="M 691 4666 
L 3169 4666 
L 3169 4134 
L 1269 4134 
L 1269 2991 
Q 1406 3038 1543 3061 
Q 1681 3084 1819 3084 
Q 2600 3084 3056 2656 
Q 3513 2228 3513 1497 
Q 3513 744 3044 326 
Q 2575 -91 1722 -91 
Q 1428 -91 1123 -41 
Q 819 9 494 109 
L 494 744 
Q 775 591 1075 516 
Q 1375 441 1709 441 
Q 2250 441 2565 725 
Q 2881 1009 2881 1497 
Q 2881 1984 2565 2268 
Q 2250 2553 1709 2553 
Q 1456 2553 1204 2497 
Q 953 2441 691 2322 
L 691 4666 
z
" id="DejaVuSans-35" transform="scale(0.015625)"/>
       </defs>
       <use xlink:href="#DejaVuSans-35"/>
      </g>
     </g>
    </g>
    <g id="ytick_9">
     <g id="line2d_14">
      <g>
       <use style="stroke:#000000;stroke-width:0.8;" x="57.6" xlink:href="#m0c54d281b6" y="45.643286"/>
      </g>
     </g>
     <g id="text_15">
      <!-- 6 -->
      <g transform="translate(44.2375 49.442505)scale(0.1 -0.1)">
       <use xlink:href="#DejaVuSans-36"/>
      </g>
     </g>
    </g>
    <g id="text_16">
     <!-- $\rho_\mathrm{xx}$ ($\Omega$) -->
     <g transform="translate(29.757812 191.328)rotate(-90)scale(0.1 -0.1)">
      <defs>
       <path d="M 1203 2875 
Q 1453 3194 1981 3475 
Q 2188 3584 2756 3584 
Q 3394 3584 3694 3078 
Q 3994 2572 3834 1747 
Q 3672 922 3175 415 
Q 2678 -91 2041 -91 
Q 1656 -91 1409 63 
Q 1163 213 1044 525 
L 681 -1331 
L 103 -1331 
L 697 1716 
Q 838 2438 1203 2875 
z
M 3238 1747 
Q 3359 2381 3169 2744 
Q 2978 3103 2522 3103 
Q 2066 3103 1734 2744 
Q 1403 2381 1281 1747 
Q 1156 1113 1347 750 
Q 1538 391 1994 391 
Q 2450 391 2781 750 
Q 3113 1113 3238 1747 
z
" id="DejaVuSans-Oblique-3c1" transform="scale(0.015625)"/>
       <path d="M 3513 3500 
L 2247 1797 
L 3578 0 
L 2900 0 
L 1881 1375 
L 863 0 
L 184 0 
L 1544 1831 
L 300 3500 
L 978 3500 
L 1906 2253 
L 2834 3500 
L 3513 3500 
z
" id="DejaVuSans-78" transform="scale(0.015625)"/>
       <path d="M 4647 556 
L 4647 0 
L 2772 0 
L 2772 556 
Q 3325 859 3634 1378 
Q 3944 1897 3944 2528 
Q 3944 3278 3531 3731 
Q 3119 4184 2444 4184 
Q 1769 4184 1355 3729 
Q 941 3275 941 2528 
Q 941 1897 1250 1378 
Q 1563 859 2119 556 
L 2119 0 
L 244 0 
L 244 556 
L 1241 556 
Q 747 991 519 1456 
Q 294 1922 294 2497 
Q 294 3491 894 4106 
Q 1491 4722 2444 4722 
Q 3391 4722 3994 4106 
Q 4594 3494 4594 2528 
Q 4594 1922 4372 1459 
Q 4150 997 3647 556 
L 4647 556 
z
" id="DejaVuSans-3a9" transform="scale(0.015625)"/>
      </defs>
      <use transform="translate(0 0.125)" xlink:href="#DejaVuSans-Oblique-3c1"/>
      <use transform="translate(63.476562 -16.28125)scale(0.7)" xlink:href="#DejaVuSans-78"/>
      <use transform="translate(104.902344 -16.28125)scale(0.7)" xlink:href="#DejaVuSans-78"/>
      <use transform="translate(149.0625 0.125)" xlink:href="#DejaVuSans-20"/>
      <use transform="translate(180.849609 0.125)" xlink:href="#DejaVuSans-28"/>
      <use transform="translate(219.863281 0.125)" xlink:href="#DejaVuSans-3a9"/>
      <use transform="translate(296.279297 0.125)" xlink:href="#DejaVuSans-29"/>
     </g>
    </g>
    <g id="text_17">
     <!-- 1e−5 -->
     <g transform="translate(57.6 38.472)scale(0.1 -0.1)">
      <defs>
       <path d="M 3597 1894 
L 3597 1613 
L 953 1613 
Q 991 1019 1311 708 
Q 1631 397 2203 397 
Q 2534 397 2845 478 
Q 3156 559 3463 722 
L 3463 178 
Q 3153 47 2828 -22 
Q 2503 -91 2169 -91 
Q 1331 -91 842 396 
Q 353 884 353 1716 
Q 353 2575 817 3079 
Q 1281 3584 2069 3584 
Q 2775 3584 3186 3129 
Q 3597 2675 3597 1894 
z
M 3022 2063 
Q 3016 2534 2758 2815 
Q 2500 3097 2075 3097 
Q 1594 3097 1305 2825 
Q 1016 2553 972 2059 
L 3022 2063 
z
" id="DejaVuSans-65" transform="scale(0.015625)"/>
      </defs>
      <use xlink:href="#DejaVuSans-31"/>
      <use x="63.623047" xlink:href="#DejaVuSans-65"/>
      <use x="125.146484" xlink:href="#DejaVuSans-2212"/>
      <use x="208.935547" xlink:href="#DejaVuSans-35"/>
     </g>
    </g>
   </g>
   <g id="line2d_15">
    <path clip-path="url(#pada8b62a29)" d="M 298.960823 276.86515 
L 299.328079 276.651111 
L 299.695335 275.652142 
L 300.062592 276.294319 
L 300.429848 275.366756 
L 300.797104 275.723488 
L 301.16436 275.652142 
L 301.531617 275.009964 
L 301.898873 275.152717 
L 302.266129 275.438103 
L 302.633385 275.224063 
L 303.000642 275.509449 
L 303.367898 275.224063 
L 303.735154 276.151626 
L 304.102411 274.938618 
L 304.836923 274.439193 
L 305.204179 275.723488 
L 305.571436 275.152717 
L 305.938692 275.224063 
L 306.305948 275.509449 
L 306.673204 275.937587 
L 307.040461 275.152717 
L 307.407717 274.653232 
L 307.774973 275.580795 
L 308.14223 275.580795 
L 308.509486 275.29541 
L 308.876742 274.867271 
L 309.243998 276.151626 
L 309.611255 275.723488 
L 309.978511 275.580795 
L 310.345767 274.938618 
L 310.713023 274.724579 
L 311.08028 275.794835 
L 311.447536 276.008934 
L 311.814792 275.866241 
L 312.549305 275.009964 
L 312.916561 275.009964 
L 313.283817 276.437012 
L 313.651074 275.366756 
L 314.385586 276.151626 
L 314.752842 274.867271 
L 315.120099 275.509449 
L 315.487355 275.509449 
L 316.589124 275.08137 
L 316.95638 275.366756 
L 317.323636 274.938618 
L 317.690893 275.794835 
L 318.058149 274.938618 
L 318.792661 274.724579 
L 319.159918 276.151626 
L 319.527174 275.152717 
L 319.89443 275.723488 
L 320.261687 275.009964 
L 320.628943 275.009964 
L 320.996199 275.794835 
L 321.363455 275.937587 
L 321.730712 275.438103 
L 322.097968 275.652142 
L 322.465224 276.294319 
L 322.83248 275.366756 
L 323.199737 275.224063 
L 323.566993 274.867271 
L 323.934249 275.08137 
L 324.301506 275.652142 
L 324.668762 274.510539 
L 325.036018 274.367847 
L 325.403274 274.867271 
L 325.770531 275.866241 
L 326.137787 275.509449 
L 326.505043 275.723488 
L 326.872299 275.29541 
L 327.239556 276.437012 
L 327.606812 275.580795 
L 327.974068 275.009964 
L 328.341325 275.29541 
L 328.708581 275.723488 
L 329.075837 275.509449 
L 329.443093 274.867271 
L 329.81035 275.723488 
L 330.177606 274.653232 
L 330.544862 274.510539 
L 330.912118 274.867271 
L 331.646631 275.224063 
L 332.381144 275.866241 
L 332.7484 275.509449 
L 333.115656 274.795925 
L 333.482912 275.152717 
L 333.850169 275.152717 
L 334.217425 274.938618 
L 334.584681 275.152717 
L 334.951937 275.937587 
L 335.319194 275.509449 
L 335.68645 274.724579 
L 336.053706 275.580795 
L 336.788219 274.938618 
L 337.155475 275.438103 
L 337.889988 275.366756 
L 338.257244 275.366756 
L 338.6245 275.937587 
L 338.991756 275.224063 
L 339.359013 276.222973 
L 339.726269 275.509449 
L 340.460782 275.937587 
L 340.828038 275.866241 
L 341.195294 276.151626 
L 341.56255 276.294319 
L 341.929807 276.008934 
L 342.664319 275.08137 
L 343.766088 275.509449 
L 344.133344 275.509449 
L 344.500601 276.294319 
L 344.867857 275.224063 
L 345.235113 275.224063 
L 345.969626 275.509449 
L 346.336882 274.795925 
L 346.704138 275.866241 
L 347.071394 276.365666 
L 347.438651 274.867271 
L 347.805907 274.938618 
L 348.173163 275.509449 
L 348.54042 275.29541 
L 348.907676 275.509449 
L 349.274932 274.724579 
L 349.642188 274.938618 
L 350.009445 275.366756 
L 350.376701 275.224063 
L 350.743957 275.652142 
L 351.111213 275.580795 
L 351.47847 275.366756 
L 351.845726 274.867271 
L 352.212982 275.009964 
L 352.580239 275.580795 
L 352.947495 275.794835 
L 353.682007 274.581886 
L 354.049264 275.652142 
L 354.41652 275.580795 
L 354.783776 275.794835 
L 355.151032 275.652142 
L 355.518289 275.29541 
L 356.620058 275.224063 
L 356.987314 275.652142 
L 357.35457 274.653232 
L 357.721826 274.510539 
L 358.089083 275.652142 
L 358.456339 275.580795 
L 358.823595 275.937587 
L 359.190852 275.580795 
L 359.558108 275.937587 
L 359.925364 275.652142 
L 360.29262 275.152717 
L 360.659877 276.508359 
L 361.027133 275.509449 
L 361.394389 275.224063 
L 361.761645 276.008934 
L 362.128902 275.009964 
L 362.496158 276.151626 
L 362.863414 276.08028 
L 363.230671 275.438103 
L 363.597927 275.652142 
L 364.332439 275.29541 
L 365.066952 275.366756 
L 365.434208 274.938618 
L 365.801464 275.366756 
L 366.168721 275.438103 
L 366.535977 275.723488 
L 366.903233 275.794835 
L 367.27049 275.509449 
L 367.637746 275.937587 
L 368.005002 275.866241 
L 368.372258 275.366756 
L 369.106771 275.937587 
L 369.474027 275.438103 
L 369.841283 275.723488 
L 370.20854 275.652142 
L 370.575796 276.008934 
L 370.943052 276.579765 
L 371.310309 275.652142 
L 371.677565 275.652142 
L 372.044821 276.437012 
L 372.412077 276.365666 
L 372.779334 277.578674 
L 373.14659 277.578674 
L 373.513846 277.07919 
L 373.881102 277.150536 
L 374.248359 277.650021 
L 375.350128 277.364635 
L 375.717384 277.650021 
L 376.08464 277.435982 
L 376.451896 277.578674 
L 376.819153 277.86406 
L 377.186409 278.292198 
L 377.553665 278.506238 
L 377.920921 278.934376 
L 378.288178 278.363545 
L 378.655434 279.219762 
L 379.02269 278.934376 
L 379.389947 278.934376 
L 379.757203 279.933285 
L 380.124459 279.6479 
L 380.491715 279.861939 
L 380.858972 279.933285 
L 381.226228 279.6479 
L 381.96074 280.718156 
L 383.062509 280.932195 
L 383.797022 281.788412 
L 384.164278 282.501936 
L 384.531534 281.788412 
L 384.898791 282.858728 
L 385.266047 282.145204 
L 385.633303 282.145204 
L 386.000559 283.286806 
L 386.367816 283.928984 
L 386.735072 284.071677 
L 387.102328 283.643598 
L 387.469585 284.499815 
L 387.836841 283.572252 
L 388.204097 284.143023 
L 388.571353 284.428468 
L 388.93861 285.712764 
L 389.305866 285.427378 
L 390.407635 285.998209 
L 390.774891 285.641417 
L 391.142147 286.354941 
L 391.509404 286.069556 
L 391.87666 286.069556 
L 392.243916 286.854426 
L 392.978429 288.709552 
L 393.345685 288.281474 
L 393.712941 289.209037 
L 394.080197 289.280383 
L 394.447454 289.637175 
L 394.81471 289.565769 
L 395.181966 290.065254 
L 395.549223 291.064163 
L 395.916479 291.420955 
L 396.283735 291.206916 
L 397.018248 293.133389 
L 397.385504 294.203645 
L 398.120016 294.845822 
L 398.487273 295.488 
L 398.487273 295.488 
" style="fill:none;stroke:#000000;stroke-linecap:square;stroke-width:1.5;"/>
   </g>
   <g id="line2d_16">
    <path clip-path="url(#pada8b62a29)" d="M 298.960823 276.86515 
L 299.328079 276.651111 
L 299.695335 275.652142 
L 300.062592 276.294319 
L 300.429848 275.366756 
L 300.797104 275.723488 
L 301.16436 275.652142 
L 301.531617 275.009964 
L 301.898873 275.152717 
L 302.266129 275.438102 
L 302.633385 275.224063 
L 303.000642 275.509449 
L 303.367898 275.224063 
L 303.735154 276.151626 
L 304.102411 274.938618 
L 304.836923 274.439193 
L 305.204179 275.723488 
L 305.571436 275.152717 
L 305.938692 275.224063 
L 306.305948 275.509449 
L 306.673204 275.937587 
L 307.040461 275.152717 
L 307.407717 274.653232 
L 307.774973 275.580795 
L 308.14223 275.580795 
L 308.509486 275.29541 
L 308.876742 274.867271 
L 309.243998 276.151626 
L 309.611255 275.723488 
L 309.978511 275.580795 
L 310.345767 274.938618 
L 310.713023 274.724579 
L 311.08028 275.794835 
L 311.447536 276.008934 
L 311.814792 275.866241 
L 312.549305 275.009964 
L 312.916561 275.009964 
L 313.283817 276.437012 
L 313.651074 275.366756 
L 314.385586 276.151626 
L 314.752842 274.867271 
L 315.120099 275.509449 
L 315.487355 275.509449 
L 316.589124 275.08137 
L 316.95638 275.366756 
L 317.323636 274.938618 
L 317.690893 275.794835 
L 318.058149 274.938618 
L 318.792661 274.724579 
L 319.159918 276.151626 
L 319.527174 275.152717 
L 319.89443 275.723488 
L 320.261687 275.009964 
L 320.628943 275.009964 
L 320.996199 275.794835 
L 321.363455 275.937587 
L 321.730712 275.438102 
L 322.097968 275.652142 
L 322.465224 276.294319 
L 322.83248 275.366756 
L 323.199737 275.224063 
L 323.566993 274.867271 
L 323.934249 275.08137 
L 324.301506 275.652142 
L 324.668762 274.510539 
L 325.036018 274.367846 
L 325.403274 274.867271 
L 325.770531 275.866241 
L 326.137787 275.509449 
L 326.505043 275.723488 
L 326.872299 275.29541 
L 327.239556 276.437012 
L 327.606812 275.580795 
L 327.974068 275.009964 
L 328.341325 275.29541 
L 328.708581 275.723488 
L 329.075837 275.509449 
L 329.443093 274.867271 
L 329.81035 275.723488 
L 330.177606 274.653232 
L 330.544862 274.510539 
L 330.912118 274.867271 
L 331.646631 275.224063 
L 332.381144 275.866241 
L 332.7484 275.509449 
L 333.115656 274.795925 
L 333.482912 275.152717 
L 333.850169 275.152717 
L 334.217425 274.938618 
L 334.584681 275.152717 
L 334.951937 275.937587 
L 335.319194 275.509449 
L 335.68645 274.724579 
L 336.053706 275.580795 
L 336.788219 274.938618 
L 337.155475 275.438102 
L 337.889988 275.366756 
L 338.257244 275.366756 
L 338.6245 275.937587 
L 338.991756 275.224063 
L 339.359013 276.222973 
L 339.726269 275.509449 
L 340.460782 275.937587 
L 340.828038 275.866241 
L 341.195294 276.151626 
L 341.56255 276.294319 
L 341.929807 276.008934 
L 342.664319 275.08137 
L 343.766088 275.509449 
L 344.133344 275.509449 
L 344.500601 276.294319 
L 344.867857 275.224063 
L 345.235113 275.224063 
L 345.969626 275.509449 
L 346.336882 274.795925 
L 346.704138 275.866241 
L 347.071394 276.365666 
L 347.438651 274.867271 
L 347.805907 274.938618 
L 348.173163 275.509449 
L 348.54042 275.29541 
L 348.907676 275.509449 
L 349.274932 274.724579 
L 349.642188 274.938618 
L 350.009445 275.366756 
L 350.376701 275.224063 
L 350.743957 275.652142 
L 351.111213 275.580795 
L 351.47847 275.366756 
L 351.845726 274.867271 
L 352.212982 275.009964 
L 352.580239 275.580795 
L 352.947495 275.794835 
L 353.682007 274.581886 
L 354.049264 275.652142 
L 354.41652 275.580795 
L 354.783776 275.794835 
L 355.151032 275.652142 
L 355.518289 275.29541 
L 356.620058 275.224063 
L 356.987314 275.652142 
L 357.35457 274.653232 
L 357.721826 274.510539 
L 358.089083 275.652142 
L 358.456339 275.580795 
L 358.823595 275.937587 
L 359.190852 275.580795 
L 359.558108 275.937587 
L 359.925364 275.652142 
L 360.29262 275.152717 
L 360.659877 276.508358 
L 361.027133 275.509449 
L 361.394389 275.224063 
L 361.761645 276.008934 
L 362.128902 275.009964 
L 362.496158 276.151626 
L 362.863414 276.08028 
L 363.230671 275.438102 
L 363.597927 275.652142 
L 364.332439 275.29541 
L 365.066952 275.366756 
L 365.434208 274.938618 
L 365.801464 275.366756 
L 366.168721 275.438102 
L 366.535977 275.723488 
L 366.903233 275.794835 
L 367.27049 275.509449 
L 367.637746 275.937587 
L 368.005002 275.866241 
L 368.372258 275.366756 
L 369.106771 275.937587 
L 369.474027 275.438102 
L 369.841283 275.723488 
L 370.20854 275.652142 
L 370.575796 276.008934 
L 370.943052 276.579765 
L 371.310309 275.652142 
L 371.677565 275.652142 
L 372.044821 276.437012 
L 372.412077 276.365666 
L 372.779334 277.578674 
L 373.14659 277.578674 
L 373.513846 277.07919 
L 373.881102 277.150536 
L 374.248359 277.650021 
L 375.350128 277.364635 
L 375.717384 277.650021 
L 376.08464 277.435982 
L 376.451896 277.578674 
L 376.819153 277.86406 
L 377.186409 278.292198 
L 377.553665 278.506238 
L 377.920921 278.934376 
L 378.288178 278.363545 
L 378.655434 279.219761 
L 379.02269 278.934376 
L 379.389947 278.934376 
L 379.757203 279.933285 
L 380.124459 279.6479 
L 380.491715 279.861939 
L 380.858972 279.933285 
L 381.226228 279.6479 
L 381.96074 280.718156 
L 383.062509 280.932195 
L 383.797022 281.788412 
L 384.164278 282.501936 
L 384.531534 281.788412 
L 384.898791 282.858728 
L 385.266047 282.145204 
L 385.633303 282.145204 
L 386.000559 283.286806 
L 386.367816 283.928984 
L 386.735072 284.071676 
L 387.102328 283.643598 
L 387.469585 284.499815 
L 387.836841 283.572252 
L 388.204097 284.143023 
L 388.571353 284.428468 
L 388.93861 285.712764 
L 389.305866 285.427378 
L 390.407635 285.998209 
L 390.774891 285.641417 
L 391.142147 286.354941 
L 391.509404 286.069556 
L 391.87666 286.069556 
L 392.243916 286.854426 
L 392.978429 288.709552 
L 393.345685 288.281474 
L 393.712941 289.209037 
L 394.080197 289.280383 
L 394.447454 289.637175 
L 394.81471 289.565769 
L 395.181966 290.065254 
L 395.549223 291.064163 
L 395.916479 291.420955 
L 396.283735 291.206916 
L 397.018248 293.133389 
L 397.385504 294.203645 
L 398.120016 294.845822 
L 398.487273 295.488 
L 398.487273 295.488 
" style="fill:none;stroke:#0000ff;stroke-dasharray:1.5,2.475;stroke-dashoffset:0;stroke-width:1.5;"/>
   </g>
   <g id="line2d_17">
    <path clip-path="url(#pada8b62a29)" d="M 170.237499 251.856079 
L 170.421127 251.463614 
L 170.604755 250.214992 
L 170.788383 249.893873 
L 170.972012 250.429031 
L 171.15564 250.892843 
L 171.339268 249.394448 
L 171.522896 249.8582 
L 171.706524 250.179319 
L 171.890152 249.679834 
L 172.07378 249.572814 
L 172.257408 249.537141 
L 172.441037 249.144676 
L 172.624665 250.250665 
L 172.808293 250.179319 
L 172.991921 251.035535 
L 173.175549 250.857169 
L 173.359177 249.430121 
L 173.542805 249.822527 
L 173.726434 250.143645 
L 173.910062 250.000893 
L 174.09369 249.323102 
L 174.277318 250.072299 
L 174.460946 249.679834 
L 174.644574 250.393358 
L 174.828202 249.465795 
L 175.011831 250.571724 
L 175.195459 250.393358 
L 175.379087 247.503589 
L 175.562715 249.893873 
L 175.746343 249.644161 
L 175.929971 249.608487 
L 176.113599 249.715507 
L 176.297227 249.75118 
L 176.480856 249.287369 
L 176.664484 249.537141 
L 176.848112 249.073329 
L 177.03174 249.608487 
L 177.215368 250.036566 
L 177.398996 249.608487 
L 177.582624 250.75009 
L 177.766253 249.965219 
L 177.949881 250.571724 
L 178.133509 250.393358 
L 178.317137 250.036566 
L 178.500765 249.8582 
L 178.684393 250.75009 
L 178.868021 250.214992 
L 179.05165 249.75118 
L 179.235278 249.786853 
L 179.418906 249.8582 
L 179.602534 250.393358 
L 179.786162 250.821436 
L 179.96979 249.394448 
L 180.153418 249.180349 
L 180.337046 250.536051 
L 180.520675 249.323102 
L 180.704303 249.715507 
L 180.887931 249.501468 
L 181.071559 250.357685 
L 181.255187 249.929546 
L 181.438815 250.75009 
L 181.622443 250.286338 
L 181.806072 249.715507 
L 181.9897 250.214992 
L 182.173328 250.928516 
L 182.356956 249.251696 
L 182.540584 250.571724 
L 182.724212 249.786853 
L 182.90784 249.251696 
L 183.091469 249.608487 
L 183.275097 249.572814 
L 183.458725 250.143645 
L 183.642353 249.8582 
L 183.825981 250.000893 
L 184.009609 249.001983 
L 184.193237 249.572814 
L 184.376865 250.536051 
L 184.560494 250.036566 
L 184.744122 249.929546 
L 184.92775 249.572814 
L 185.111378 249.715507 
L 185.295006 249.358775 
L 185.478634 250.107972 
L 185.662262 250.429031 
L 185.845891 250.072299 
L 186.029519 249.8582 
L 186.213147 249.644161 
L 186.396775 248.96631 
L 186.580403 249.965219 
L 186.764031 250.571724 
L 186.947659 250.286338 
L 187.131288 250.286338 
L 187.314916 249.572814 
L 187.498544 249.786853 
L 187.682172 250.072299 
L 187.8658 250.036566 
L 188.049428 249.608487 
L 188.233056 248.466825 
L 188.416684 250.000893 
" style="fill:none;stroke:#000000;stroke-linecap:square;stroke-width:1.5;"/>
   </g>
   <g id="line2d_18">
    <path clip-path="url(#pada8b62a29)" d="M 170.237499 251.856079 
L 170.421127 251.463614 
L 170.604755 250.214992 
L 170.788383 249.893873 
L 170.972012 250.429031 
L 171.15564 250.892843 
L 171.339268 249.394448 
L 171.522896 249.8582 
L 171.706524 250.179319 
L 171.890152 249.679834 
L 172.07378 249.572814 
L 172.257408 249.537141 
L 172.441037 249.144676 
L 172.624665 250.250665 
L 172.808293 250.179319 
L 172.991921 251.035535 
L 173.175549 250.857169 
L 173.359177 249.430121 
L 173.542805 249.822527 
L 173.726434 250.143645 
L 173.910062 250.000893 
L 174.09369 249.323102 
L 174.277318 250.072299 
L 174.460946 249.679834 
L 174.644574 250.393358 
L 174.828202 249.465795 
L 175.011831 250.571724 
L 175.195459 250.393358 
L 175.379087 247.503589 
L 175.562715 249.893873 
L 175.746343 249.644161 
L 175.929971 249.608487 
L 176.113599 249.715507 
L 176.297227 249.75118 
L 176.480856 249.287369 
L 176.664484 249.537141 
L 176.848112 249.073329 
L 177.03174 249.608487 
L 177.215368 250.036566 
L 177.398996 249.608487 
L 177.582624 250.75009 
L 177.766253 249.965219 
L 177.949881 250.571724 
L 178.133509 250.393358 
L 178.317137 250.036566 
L 178.500765 249.8582 
L 178.684393 250.75009 
L 178.868021 250.214992 
L 179.05165 249.75118 
L 179.235278 249.786853 
L 179.418906 249.8582 
L 179.602534 250.393358 
L 179.786162 250.821436 
L 179.96979 249.394448 
L 180.153418 249.180349 
L 180.337046 250.536051 
L 180.520675 249.323102 
L 180.704303 249.715507 
L 180.887931 249.501468 
L 181.071559 250.357685 
L 181.255187 249.929546 
L 181.438815 250.75009 
L 181.622443 250.286338 
L 181.806072 249.715507 
L 181.9897 250.214992 
L 182.173328 250.928516 
L 182.356956 249.251696 
L 182.540584 250.571724 
L 182.724212 249.786853 
L 182.90784 249.251696 
L 183.091469 249.608487 
L 183.275097 249.572814 
L 183.458725 250.143645 
L 183.642353 249.8582 
L 183.825981 250.000893 
L 184.009609 249.001983 
L 184.193237 249.572814 
L 184.376865 250.536051 
L 184.560494 250.036566 
L 184.744122 249.929546 
L 184.92775 249.572814 
L 185.111378 249.715507 
L 185.295006 249.358775 
L 185.478634 250.107972 
L 185.662262 250.429031 
L 185.845891 250.072299 
L 186.029519 249.8582 
L 186.213147 249.644161 
L 186.396775 248.96631 
L 186.580403 249.965219 
L 186.764031 250.571724 
L 186.947659 250.286338 
L 187.131288 250.286338 
L 187.314916 249.572814 
L 187.498544 249.786853 
L 187.682172 250.072299 
L 187.8658 250.036566 
L 188.049428 249.608487 
L 188.233056 248.466825 
L 188.416684 250.000893 
" style="fill:none;stroke:#ff0000;stroke-dasharray:1.5,2.475;stroke-dashoffset:0;stroke-width:1.5;"/>
   </g>
   <g id="line2d_19">
    <path clip-path="url(#pada8b62a29)" d="M 125.79949 211.399312 
L 125.983118 215.787416 
L 126.166746 217.428563 
L 126.350374 221.138935 
L 126.534002 223.350794 
L 126.717631 225.313 
L 126.901259 228.488214 
L 127.084887 230.735782 
L 127.268515 231.627696 
L 127.452143 234.267728 
L 127.635771 235.445044 
L 127.819399 238.691577 
L 128.003028 239.868888 
L 128.186656 240.404028 
L 128.370284 241.866755 
L 128.553912 243.008406 
L 128.73754 243.507831 
L 128.921168 243.864623 
L 129.104796 244.007315 
L 129.288425 244.328374 
L 129.472053 243.650583 
L 129.655681 244.899205 
L 129.839309 244.007315 
L 130.022937 243.686257 
L 130.206565 244.292701 
L 130.390193 244.114335 
L 130.573821 243.329465 
L 130.75745 244.364047 
L 130.941078 243.543504 
L 131.124706 243.72193 
L 131.308334 243.864623 
L 131.491962 242.865713 
L 131.67559 243.971642 
L 131.859218 242.758633 
L 132.042847 242.758633 
L 132.226475 243.044079 
L 132.410103 242.937059 
L 132.593731 242.401901 
L 132.777359 242.508921 
L 132.960987 241.938108 
L 133.144615 241.795409 
L 133.328244 242.544594 
L 133.511872 242.116516 
L 133.6955 241.688377 
L 133.879128 240.653777 
L 134.062756 240.867828 
L 134.246384 240.296997 
L 134.430012 239.654831 
L 134.61364 238.47752 
L 134.797269 237.906701 
L 134.980897 237.121824 
L 135.164525 236.622357 
L 135.348153 234.588811 
L 135.531781 233.589878 
L 135.715409 232.733655 
L 135.899037 232.198515 
L 136.082666 230.664429 
L 136.266294 228.66658 
L 136.449922 225.812484 
L 136.63355 224.171337 
L 136.817178 221.709707 
L 137.000806 221.317301 
L 137.184434 221.317301 
L 137.368063 220.532431 
L 137.551691 218.213493 
L 137.735319 217.892374 
L 137.918947 216.893405 
L 138.102575 213.0404 
L 138.286203 212.719281 
L 138.469831 209.829572 
L 138.653459 207.403554 
L 138.837088 206.190606 
L 139.020716 202.3376 
L 139.204344 200.910552 
L 139.387972 196.343903 
L 139.5716 192.954649 
L 139.755228 189.351416 
L 139.938856 186.318954 
L 140.122485 183.571878 
" style="fill:none;stroke:#000000;stroke-linecap:square;stroke-width:1.5;"/>
   </g>
   <g id="line2d_20">
    <path clip-path="url(#pada8b62a29)" d="M 125.79949 211.399312 
L 125.983118 215.787416 
L 126.166746 217.428563 
L 126.350374 221.138935 
L 126.534002 223.350794 
L 126.717631 225.313 
L 126.901259 228.488214 
L 127.084887 230.735782 
L 127.268515 231.627696 
L 127.452143 234.267728 
L 127.635771 235.445044 
L 127.819399 238.691577 
L 128.003028 239.868888 
L 128.186656 240.404028 
L 128.370284 241.866755 
L 128.553912 243.008406 
L 128.73754 243.507831 
L 128.921168 243.864623 
L 129.104796 244.007315 
L 129.288425 244.328374 
L 129.472053 243.650583 
L 129.655681 244.899205 
L 129.839309 244.007315 
L 130.022937 243.686257 
L 130.206565 244.292701 
L 130.390193 244.114335 
L 130.573821 243.329465 
L 130.75745 244.364047 
L 130.941078 243.543504 
L 131.124706 243.72193 
L 131.308334 243.864623 
L 131.491962 242.865713 
L 131.67559 243.971642 
L 131.859218 242.758633 
L 132.042847 242.758633 
L 132.226475 243.044079 
L 132.410103 242.937059 
L 132.593731 242.401901 
L 132.777359 242.508921 
L 132.960987 241.938108 
L 133.144615 241.795409 
L 133.328244 242.544594 
L 133.511872 242.116516 
L 133.6955 241.688377 
L 133.879128 240.653777 
L 134.062756 240.867828 
L 134.246384 240.296997 
L 134.430012 239.654831 
L 134.61364 238.47752 
L 134.797269 237.906701 
L 134.980897 237.121824 
L 135.164525 236.622357 
L 135.348153 234.588811 
L 135.531781 233.589878 
L 135.715409 232.733655 
L 135.899037 232.198515 
L 136.082666 230.664429 
L 136.266294 228.66658 
L 136.449922 225.812484 
L 136.63355 224.171337 
L 136.817178 221.709707 
L 137.000806 221.317301 
L 137.184434 221.317301 
L 137.368063 220.532431 
L 137.551691 218.213493 
L 137.735319 217.892374 
L 137.918947 216.893405 
L 138.102575 213.0404 
L 138.286203 212.719281 
L 138.469831 209.829572 
L 138.653459 207.403554 
L 138.837088 206.190605 
L 139.020716 202.3376 
L 139.204344 200.910552 
L 139.387972 196.343903 
L 139.5716 192.954649 
L 139.755228 189.351416 
L 139.938856 186.318954 
L 140.122485 183.571878 
" style="fill:none;stroke:#ffa500;stroke-dasharray:1.5,2.475;stroke-dashoffset:0;stroke-width:1.5;"/>
   </g>
   <g id="line2d_21">
    <path clip-path="url(#pada8b62a29)" d="M 97.153501 237.906701 
L 97.337129 239.440774 
L 97.520757 240.493217 
L 97.704385 240.957023 
L 97.888013 241.563515 
L 98.071641 242.526758 
L 98.255269 243.186772 
L 98.438898 243.900296 
L 98.622526 243.864623 
L 98.806154 244.114335 
L 98.989782 244.792186 
L 99.17341 243.347301 
L 99.357038 241.973763 
L 99.540666 242.152189 
L 99.724295 241.795409 
L 99.907923 242.366228 
L 100.091551 241.563515 
L 100.275179 241.831082 
L 100.458807 241.331616 
L 100.642435 241.777566 
L 100.826063 241.47432 
L 101.009691 241.117564 
L 101.19332 241.367295 
L 101.376948 241.349458 
L 101.560576 241.652704 
L 101.744204 241.724057 
L 101.927832 241.064049 
L 102.11146 241.438647 
L 102.295088 241.884598 
L 102.478717 241.349458 
L 102.662345 241.367295 
L 102.845973 241.42081 
L 103.029601 241.313779 
L 103.213229 241.706214 
L 103.396857 241.367295 
L 103.580485 241.278106 
L 103.764114 241.171074 
L 103.947742 241.295942 
L 104.13137 240.921344 
L 104.314998 241.117564 
L 104.498626 241.171074 
L 104.682254 241.402968 
L 104.865882 241.545673 
L 105.04951 241.385131 
L 105.233139 241.081885 
L 105.416767 240.582424 
L 105.600395 240.065103 
L 105.784023 240.457538 
L 105.967651 240.600261 
L 106.151279 239.387258 
L 106.334907 239.173201 
L 106.518536 238.513199 
L 106.702164 237.549939 
L 106.885792 236.729383 
L 107.06942 237.032629 
L 107.253048 234.410433 
L 107.436676 232.697976 
L 107.620304 229.237411 
" style="fill:none;stroke:#000000;stroke-linecap:square;stroke-width:1.5;"/>
   </g>
   <g id="line2d_22">
    <path clip-path="url(#pada8b62a29)" d="M 97.153501 237.906701 
L 97.337129 239.440774 
L 97.520757 240.493217 
L 97.704385 240.957023 
L 97.888013 241.563515 
L 98.071641 242.526758 
L 98.255269 243.186772 
L 98.438898 243.900296 
L 98.622526 243.864623 
L 98.806154 244.114335 
L 98.989782 244.792186 
L 99.17341 243.347301 
L 99.357038 241.973763 
L 99.540666 242.152189 
L 99.724295 241.795409 
L 99.907923 242.366228 
L 100.091551 241.563515 
L 100.275179 241.831082 
L 100.458807 241.331616 
L 100.642435 241.777566 
L 100.826063 241.47432 
L 101.009691 241.117564 
L 101.19332 241.367295 
L 101.376948 241.349458 
L 101.560576 241.652704 
L 101.744204 241.724057 
L 101.927832 241.064049 
L 102.11146 241.438647 
L 102.295088 241.884598 
L 102.478717 241.349458 
L 102.662345 241.367295 
L 102.845973 241.42081 
L 103.029601 241.313779 
L 103.213229 241.706214 
L 103.396857 241.367295 
L 103.580485 241.278106 
L 103.764114 241.171074 
L 103.947742 241.295942 
L 104.13137 240.921344 
L 104.314998 241.117564 
L 104.498626 241.171074 
L 104.682254 241.402968 
L 104.865882 241.545673 
L 105.04951 241.385131 
L 105.233139 241.081885 
L 105.416767 240.582424 
L 105.600395 240.065103 
L 105.784023 240.457538 
L 105.967651 240.600261 
L 106.151279 239.387258 
L 106.334907 239.173201 
L 106.518536 238.513199 
L 106.702164 237.549939 
L 106.885792 236.729383 
L 107.06942 237.032629 
L 107.253048 234.410433 
L 107.436676 232.697976 
L 107.620304 229.237411 
" style="fill:none;stroke:#800080;stroke-dasharray:1.5,2.475;stroke-dashoffset:0;stroke-width:1.5;"/>
   </g>
   <g id="line2d_23">
    <path clip-path="url(#pada8b62a29)" d="M 86.686697 221.781053 
L 86.870325 230.985512 
L 87.053953 235.284498 
L 87.237581 238.388331 
L 87.421209 240.493217 
L 87.604838 240.93918 
L 87.788466 241.349458 
L 87.972094 240.653777 
L 88.155722 240.047266 
" style="fill:none;stroke:#000000;stroke-linecap:square;stroke-width:1.5;"/>
   </g>
   <g id="line2d_24">
    <path clip-path="url(#pada8b62a29)" d="M 86.686697 221.781053 
L 86.870325 230.985512 
L 87.053953 235.284498 
L 87.237581 238.388331 
L 87.421209 240.493217 
L 87.604838 240.93918 
L 87.788466 241.349458 
L 87.972094 240.653777 
L 88.155722 240.047266 
" style="fill:none;stroke:#ffff00;stroke-dasharray:1.5,2.475;stroke-dashoffset:0;stroke-width:1.5;"/>
   </g>
   <g id="line2d_25">
    <path clip-path="url(#pada8b62a29)" d="M 73.832727 53.568005 
L 74.016355 81.573267 
L 74.199984 101.570612 
L 74.383612 114.289067 
L 74.56724 143.150845 
L 74.750868 158.045605 
L 74.934496 183.607551 
L 75.118124 191.527601 
L 75.301752 208.509543 
L 75.485381 227.542755 
L 75.669009 230.789298 
L 75.852637 234.196376 
L 76.036265 236.961283 
L 76.219893 237.906701 
L 76.403521 239.01266 
" style="fill:none;stroke:#000000;stroke-linecap:square;stroke-width:1.5;"/>
   </g>
   <g id="line2d_26">
    <path clip-path="url(#pada8b62a29)" d="M 73.832727 53.568 
L 74.016355 81.573263 
L 74.199984 101.570609 
L 74.383612 114.289065 
L 74.56724 143.150844 
L 74.750868 158.045604 
L 74.934496 183.607551 
L 75.118124 191.527601 
L 75.301752 208.509543 
L 75.485381 227.542755 
L 75.669009 230.789298 
L 75.852637 234.196376 
L 76.036265 236.961283 
L 76.219893 237.906701 
L 76.403521 239.01266 
" style="fill:none;stroke:#ffc0cb;stroke-dasharray:1.5,2.475;stroke-dashoffset:0;stroke-width:1.5;"/>
   </g>
   <g id="patch_3">
    <path d="M 57.6 307.584 
L 57.6 41.472 
" style="fill:none;stroke:#000000;stroke-linecap:square;stroke-linejoin:miter;stroke-width:0.8;"/>
   </g>
   <g id="patch_4">
    <path d="M 414.72 307.584 
L 414.72 41.472 
" style="fill:none;stroke:#000000;stroke-linecap:square;stroke-linejoin:miter;stroke-width:0.8;"/>
   </g>
   <g id="patch_5">
    <path d="M 57.6 307.584 
L 414.72 307.584 
" style="fill:none;stroke:#000000;stroke-linecap:square;stroke-linejoin:miter;stroke-width:0.8;"/>
   </g>
   <g id="patch_6">
    <path d="M 57.6 41.472 
L 414.72 41.472 
" style="fill:none;stroke:#000000;stroke-linecap:square;stroke-linejoin:miter;stroke-width:0.8;"/>
   </g>
   <g id="text_18">
    <!-- Parallel Resistivity, $\nu$ = 1-6 -->
    <g transform="translate(155.34 35.472)scale(0.12 -0.12)">
     <defs>
      <path d="M 1259 4147 
L 1259 2394 
L 2053 2394 
Q 2494 2394 2734 2622 
Q 2975 2850 2975 3272 
Q 2975 3691 2734 3919 
Q 2494 4147 2053 4147 
L 1259 4147 
z
M 628 4666 
L 2053 4666 
Q 2838 4666 3239 4311 
Q 3641 3956 3641 3272 
Q 3641 2581 3239 2228 
Q 2838 1875 2053 1875 
L 1259 1875 
L 1259 0 
L 628 0 
L 628 4666 
z
" id="DejaVuSans-50" transform="scale(0.015625)"/>
      <path d="M 2194 1759 
Q 1497 1759 1228 1600 
Q 959 1441 959 1056 
Q 959 750 1161 570 
Q 1363 391 1709 391 
Q 2188 391 2477 730 
Q 2766 1069 2766 1631 
L 2766 1759 
L 2194 1759 
z
M 3341 1997 
L 3341 0 
L 2766 0 
L 2766 531 
Q 2569 213 2275 61 
Q 1981 -91 1556 -91 
Q 1019 -91 701 211 
Q 384 513 384 1019 
Q 384 1609 779 1909 
Q 1175 2209 1959 2209 
L 2766 2209 
L 2766 2266 
Q 2766 2663 2505 2880 
Q 2244 3097 1772 3097 
Q 1472 3097 1187 3025 
Q 903 2953 641 2809 
L 641 3341 
Q 956 3463 1253 3523 
Q 1550 3584 1831 3584 
Q 2591 3584 2966 3190 
Q 3341 2797 3341 1997 
z
" id="DejaVuSans-61" transform="scale(0.015625)"/>
      <path d="M 2631 2963 
Q 2534 3019 2420 3045 
Q 2306 3072 2169 3072 
Q 1681 3072 1420 2755 
Q 1159 2438 1159 1844 
L 1159 0 
L 581 0 
L 581 3500 
L 1159 3500 
L 1159 2956 
Q 1341 3275 1631 3429 
Q 1922 3584 2338 3584 
Q 2397 3584 2469 3576 
Q 2541 3569 2628 3553 
L 2631 2963 
z
" id="DejaVuSans-72" transform="scale(0.015625)"/>
      <path d="M 603 4863 
L 1178 4863 
L 1178 0 
L 603 0 
L 603 4863 
z
" id="DejaVuSans-6c" transform="scale(0.015625)"/>
      <path d="M 2841 2188 
Q 3044 2119 3236 1894 
Q 3428 1669 3622 1275 
L 4263 0 
L 3584 0 
L 2988 1197 
Q 2756 1666 2539 1819 
Q 2322 1972 1947 1972 
L 1259 1972 
L 1259 0 
L 628 0 
L 628 4666 
L 2053 4666 
Q 2853 4666 3247 4331 
Q 3641 3997 3641 3322 
Q 3641 2881 3436 2590 
Q 3231 2300 2841 2188 
z
M 1259 4147 
L 1259 2491 
L 2053 2491 
Q 2509 2491 2742 2702 
Q 2975 2913 2975 3322 
Q 2975 3731 2742 3939 
Q 2509 4147 2053 4147 
L 1259 4147 
z
" id="DejaVuSans-52" transform="scale(0.015625)"/>
      <path d="M 2834 3397 
L 2834 2853 
Q 2591 2978 2328 3040 
Q 2066 3103 1784 3103 
Q 1356 3103 1142 2972 
Q 928 2841 928 2578 
Q 928 2378 1081 2264 
Q 1234 2150 1697 2047 
L 1894 2003 
Q 2506 1872 2764 1633 
Q 3022 1394 3022 966 
Q 3022 478 2636 193 
Q 2250 -91 1575 -91 
Q 1294 -91 989 -36 
Q 684 19 347 128 
L 347 722 
Q 666 556 975 473 
Q 1284 391 1588 391 
Q 1994 391 2212 530 
Q 2431 669 2431 922 
Q 2431 1156 2273 1281 
Q 2116 1406 1581 1522 
L 1381 1569 
Q 847 1681 609 1914 
Q 372 2147 372 2553 
Q 372 3047 722 3315 
Q 1072 3584 1716 3584 
Q 2034 3584 2315 3537 
Q 2597 3491 2834 3397 
z
" id="DejaVuSans-73" transform="scale(0.015625)"/>
      <path d="M 603 3500 
L 1178 3500 
L 1178 0 
L 603 0 
L 603 3500 
z
M 603 4863 
L 1178 4863 
L 1178 4134 
L 603 4134 
L 603 4863 
z
" id="DejaVuSans-69" transform="scale(0.015625)"/>
      <path d="M 1172 4494 
L 1172 3500 
L 2356 3500 
L 2356 3053 
L 1172 3053 
L 1172 1153 
Q 1172 725 1289 603 
Q 1406 481 1766 481 
L 2356 481 
L 2356 0 
L 1766 0 
Q 1100 0 847 248 
Q 594 497 594 1153 
L 594 3053 
L 172 3053 
L 172 3500 
L 594 3500 
L 594 4494 
L 1172 4494 
z
" id="DejaVuSans-74" transform="scale(0.015625)"/>
      <path d="M 191 3500 
L 800 3500 
L 1894 563 
L 2988 3500 
L 3597 3500 
L 2284 0 
L 1503 0 
L 191 3500 
z
" id="DejaVuSans-76" transform="scale(0.015625)"/>
      <path d="M 2059 -325 
Q 1816 -950 1584 -1140 
Q 1353 -1331 966 -1331 
L 506 -1331 
L 506 -850 
L 844 -850 
Q 1081 -850 1212 -737 
Q 1344 -625 1503 -206 
L 1606 56 
L 191 3500 
L 800 3500 
L 1894 763 
L 2988 3500 
L 3597 3500 
L 2059 -325 
z
" id="DejaVuSans-79" transform="scale(0.015625)"/>
      <path d="M 750 794 
L 1409 794 
L 1409 256 
L 897 -744 
L 494 -744 
L 750 256 
L 750 794 
z
" id="DejaVuSans-2c" transform="scale(0.015625)"/>
      <path d="M 959 0 
L 572 3500 
L 1191 3500 
L 1522 563 
Q 1972 950 2391 1488 
Q 2706 1891 2788 2241 
Q 2825 2406 2809 2719 
Q 2794 3091 2544 3500 
L 3125 3500 
L 3125 3500 
Q 3288 3222 3353 2834 
Q 3416 2478 3369 2234 
Q 3250 1622 2719 1075 
Q 2025 363 1572 0 
L 959 0 
z
" id="DejaVuSans-Oblique-3bd" transform="scale(0.015625)"/>
      <path d="M 678 2906 
L 4684 2906 
L 4684 2381 
L 678 2381 
L 678 2906 
z
M 678 1631 
L 4684 1631 
L 4684 1100 
L 678 1100 
L 678 1631 
z
" id="DejaVuSans-3d" transform="scale(0.015625)"/>
      <path d="M 313 2009 
L 1997 2009 
L 1997 1497 
L 313 1497 
L 313 2009 
z
" id="DejaVuSans-2d" transform="scale(0.015625)"/>
     </defs>
     <use transform="translate(0 0.015625)" xlink:href="#DejaVuSans-50"/>
     <use transform="translate(60.302734 0.015625)" xlink:href="#DejaVuSans-61"/>
     <use transform="translate(121.582031 0.015625)" xlink:href="#DejaVuSans-72"/>
     <use transform="translate(162.695312 0.015625)" xlink:href="#DejaVuSans-61"/>
     <use transform="translate(223.974609 0.015625)" xlink:href="#DejaVuSans-6c"/>
     <use transform="translate(251.757812 0.015625)" xlink:href="#DejaVuSans-6c"/>
     <use transform="translate(279.541016 0.015625)" xlink:href="#DejaVuSans-65"/>
     <use transform="translate(341.064453 0.015625)" xlink:href="#DejaVuSans-6c"/>
     <use transform="translate(368.847656 0.015625)" xlink:href="#DejaVuSans-20"/>
     <use transform="translate(400.634766 0.015625)" xlink:href="#DejaVuSans-52"/>
     <use transform="translate(470.117188 0.015625)" xlink:href="#DejaVuSans-65"/>
     <use transform="translate(531.640625 0.015625)" xlink:href="#DejaVuSans-73"/>
     <use transform="translate(583.740234 0.015625)" xlink:href="#DejaVuSans-69"/>
     <use transform="translate(611.523438 0.015625)" xlink:href="#DejaVuSans-73"/>
     <use transform="translate(663.623047 0.015625)" xlink:href="#DejaVuSans-74"/>
     <use transform="translate(702.832031 0.015625)" xlink:href="#DejaVuSans-69"/>
     <use transform="translate(730.615234 0.015625)" xlink:href="#DejaVuSans-76"/>
     <use transform="translate(789.794922 0.015625)" xlink:href="#DejaVuSans-69"/>
     <use transform="translate(817.578125 0.015625)" xlink:href="#DejaVuSans-74"/>
     <use transform="translate(856.787109 0.015625)" xlink:href="#DejaVuSans-79"/>
     <use transform="translate(915.966797 0.015625)" xlink:href="#DejaVuSans-2c"/>
     <use transform="translate(947.753906 0.015625)" xlink:href="#DejaVuSans-20"/>
     <use transform="translate(979.541016 0.015625)" xlink:href="#DejaVuSans-Oblique-3bd"/>
     <use transform="translate(1035.400391 0.015625)" xlink:href="#DejaVuSans-20"/>
     <use transform="translate(1067.1875 0.015625)" xlink:href="#DejaVuSans-3d"/>
     <use transform="translate(1150.976562 0.015625)" xlink:href="#DejaVuSans-20"/>
     <use transform="translate(1182.763672 0.015625)" xlink:href="#DejaVuSans-31"/>
     <use transform="translate(1246.386719 0.015625)" xlink:href="#DejaVuSans-2d"/>
     <use transform="translate(1282.470703 0.015625)" xlink:href="#DejaVuSans-36"/>
    </g>
   </g>
   <g id="legend_1">
    <g id="patch_7">
     <path d="M 358.82 83.272 
L 407.72 83.272 
Q 409.72 83.272 409.72 81.272 
L 409.72 48.472 
Q 409.72 46.472 407.72 46.472 
L 358.82 46.472 
Q 356.82 46.472 356.82 48.472 
L 356.82 81.272 
Q 356.82 83.272 358.82 83.272 
z
" style="fill:#ffffff;opacity:0.8;stroke:#cccccc;stroke-linejoin:miter;"/>
    </g>
    <g id="line2d_27">
     <path d="M 360.82 55.772 
L 380.82 55.772 
" style="fill:none;stroke:#000000;stroke-linecap:square;stroke-width:1.5;"/>
    </g>
    <g id="line2d_28"/>
    <g id="text_19">
     <!-- $\rho_\mathrm{xx}^\mathrm{tot}$ -->
     <g transform="translate(388.82 59.272)scale(0.1 -0.1)">
      <defs>
       <path d="M 1959 3097 
Q 1497 3097 1228 2736 
Q 959 2375 959 1747 
Q 959 1119 1226 758 
Q 1494 397 1959 397 
Q 2419 397 2687 759 
Q 2956 1122 2956 1747 
Q 2956 2369 2687 2733 
Q 2419 3097 1959 3097 
z
M 1959 3584 
Q 2709 3584 3137 3096 
Q 3566 2609 3566 1747 
Q 3566 888 3137 398 
Q 2709 -91 1959 -91 
Q 1206 -91 779 398 
Q 353 888 353 1747 
Q 353 2609 779 3096 
Q 1206 3584 1959 3584 
z
" id="DejaVuSans-6f" transform="scale(0.015625)"/>
      </defs>
      <use transform="translate(0 0.565625)" xlink:href="#DejaVuSans-Oblique-3c1"/>
      <use transform="translate(68.126458 38.846875)scale(0.7)" xlink:href="#DejaVuSans-74"/>
      <use transform="translate(95.572747 38.846875)scale(0.7)" xlink:href="#DejaVuSans-6f"/>
      <use transform="translate(138.399896 38.846875)scale(0.7)" xlink:href="#DejaVuSans-74"/>
      <use transform="translate(63.476562 -26.778125)scale(0.7)" xlink:href="#DejaVuSans-78"/>
      <use transform="translate(104.902344 -26.778125)scale(0.7)" xlink:href="#DejaVuSans-78"/>
     </g>
    </g>
    <g id="line2d_29">
     <path d="M 360.82 72.972 
L 380.82 72.972 
" style="fill:none;stroke:#0000ff;stroke-dasharray:1.5,2.475;stroke-dashoffset:0;stroke-width:1.5;"/>
    </g>
    <g id="line2d_30"/>
    <g id="text_20">
     <!-- $\rho_\mathrm{xx}^\mathrm{\|\|}$ -->
     <g transform="translate(388.82 76.472)scale(0.1 -0.1)">
      <defs>
       <path d="M 1344 4891 
L 1344 -1509 
L 813 -1509 
L 813 4891 
L 1344 4891 
z
" id="DejaVuSans-7c" transform="scale(0.015625)"/>
      </defs>
      <use transform="translate(0 0.5625)" xlink:href="#DejaVuSans-Oblique-3c1"/>
      <use transform="translate(68.126458 40.504688)scale(0.7)" xlink:href="#DejaVuSans-7c"/>
      <use transform="translate(91.710443 40.504688)scale(0.7)" xlink:href="#DejaVuSans-7c"/>
      <use transform="translate(63.476562 -26.78125)scale(0.7)" xlink:href="#DejaVuSans-78"/>
      <use transform="translate(104.902344 -26.78125)scale(0.7)" xlink:href="#DejaVuSans-78"/>
     </g>
    </g>
   </g>
  </g>
 </g>
 <defs>
  <clipPath id="pada8b62a29">
   <rect height="266.112" width="357.12" x="57.6" y="41.472"/>
  </clipPath>
 </defs>
</svg>
