<?xml version="1.0" encoding="utf-8" standalone="no"?>
<!DOCTYPE svg PUBLIC "-//W3C//DTD SVG 1.1//EN"
  "http://www.w3.org/Graphics/SVG/1.1/DTD/svg11.dtd">
<svg height="362.16pt" version="1.1" viewBox="0 0 513.36 362.16" width="513.36pt" xmlns="http://www.w3.org/2000/svg" xmlns:xlink="http://www.w3.org/1999/xlink">
 <metadata>
  <rdf:RDF xmlns:cc="http://creativecommons.org/ns#" xmlns:dc="http://purl.org/dc/elements/1.1/" xmlns:rdf="http://www.w3.org/1999/02/22-rdf-syntax-ns#">
   <cc:Work>
    <dc:type rdf:resource="http://purl.org/dc/dcmitype/StillImage"/>
    <dc:date>2023-10-27T04:12:35.128342</dc:date>
    <dc:format>image/svg+xml</dc:format>
    <dc:creator>
     <cc:Agent>
      <dc:title>Matplotlib v3.4.3, https://matplotlib.org/</dc:title>
     </cc:Agent>
    </dc:creator>
   </cc:Work>
  </rdf:RDF>
 </metadata>
 <defs>
  <style type="text/css">*{stroke-linecap:butt;stroke-linejoin:round;}</style>
 </defs>
 <g id="figure_1">
  <g id="patch_1">
   <path d="M 0 362.16 
L 513.36 362.16 
L 513.36 0 
L 0 0 
z
" style="fill:#ffffff;"/>
  </g>
  <g id="axes_1">
   <g id="patch_2">
    <path d="M 64.17 322.3224 
L 462.024 322.3224 
L 462.024 43.4592 
L 64.17 43.4592 
z
" style="fill:#ffffff;"/>
   </g>
   <g id="PathCollection_1">
    <defs>
     <path d="M 0 3 
C 0.795609 3 1.55874 2.683901 2.12132 2.12132 
C 2.683901 1.55874 3 0.795609 3 0 
C 3 -0.795609 2.683901 -1.55874 2.12132 -2.12132 
C 1.55874 -2.683901 0.795609 -3 0 -3 
C -0.795609 -3 -1.55874 -2.683901 -2.12132 -2.12132 
C -2.683901 -1.55874 -3 -0.795609 -3 0 
C -3 0.795609 -2.683901 1.55874 -2.12132 2.12132 
C -1.55874 2.683901 -0.795609 3 0 3 
z
" id="m46868a6e7a" style="stroke:#0000ff;"/>
    </defs>
    <g clip-path="url(#p3e10920fbe)">
     <use style="fill:#0000ff;stroke:#0000ff;" x="306.19785" xlink:href="#m46868a6e7a" y="309.442481"/>
     <use style="fill:#0000ff;stroke:#0000ff;" x="371.602636" xlink:href="#m46868a6e7a" y="309.627125"/>
    </g>
   </g>
   <g id="PathCollection_2">
    <defs>
     <path d="M 0 3 
C 0.795609 3 1.55874 2.683901 2.12132 2.12132 
C 2.683901 1.55874 3 0.795609 3 0 
C 3 -0.795609 2.683901 -1.55874 2.12132 -2.12132 
C 1.55874 -2.683901 0.795609 -3 0 -3 
C -0.795609 -3 -1.55874 -2.683901 -2.12132 -2.12132 
C -2.683901 -1.55874 -3 -0.795609 -3 0 
C -3 0.795609 -2.683901 1.55874 -2.12132 2.12132 
C -1.55874 2.683901 -0.795609 3 0 3 
z
" id="m0a089047ae" style="stroke:#ff0000;"/>
    </defs>
    <g clip-path="url(#p3e10920fbe)">
     <use style="fill:#ff0000;stroke:#ff0000;" x="199.802045" xlink:href="#m0a089047ae" y="308.90519"/>
     <use style="fill:#ff0000;stroke:#ff0000;" x="217.434211" xlink:href="#m0a089047ae" y="308.824976"/>
    </g>
   </g>
   <g id="PathCollection_3">
    <defs>
     <path d="M 0 3 
C 0.795609 3 1.55874 2.683901 2.12132 2.12132 
C 2.683901 1.55874 3 0.795609 3 0 
C 3 -0.795609 2.683901 -1.55874 2.12132 -2.12132 
C 1.55874 -2.683901 0.795609 -3 0 -3 
C -0.795609 -3 -1.55874 -2.683901 -2.12132 -2.12132 
C -2.683901 -1.55874 -3 -0.795609 -3 0 
C -3 0.795609 -2.683901 1.55874 -2.12132 2.12132 
C -1.55874 2.683901 -0.795609 3 0 3 
z
" id="m5ceb10f000" style="stroke:#ffa500;"/>
    </defs>
    <g clip-path="url(#p3e10920fbe)">
     <use style="fill:#ffa500;stroke:#ffa500;" x="162.879989" xlink:href="#m5ceb10f000" y="308.744761"/>
     <use style="fill:#ffa500;stroke:#ffa500;" x="172.977041" xlink:href="#m5ceb10f000" y="308.606277"/>
    </g>
   </g>
   <g id="PathCollection_4">
    <defs>
     <path d="M 0 3 
C 0.795609 3 1.55874 2.683901 2.12132 2.12132 
C 2.683901 1.55874 3 0.795609 3 0 
C 3 -0.795609 2.683901 -1.55874 2.12132 -2.12132 
C 1.55874 -2.683901 0.795609 -3 0 -3 
C -0.795609 -3 -1.55874 -2.683901 -2.12132 -2.12132 
C -2.683901 -1.55874 -3 -0.795609 -3 0 
C -3 0.795609 -2.683901 1.55874 -2.12132 2.12132 
C -1.55874 2.683901 -0.795609 3 0 3 
z
" id="m683f2ea741" style="stroke:#800080;"/>
    </defs>
    <g clip-path="url(#p3e10920fbe)">
     <use style="fill:#800080;stroke:#800080;" x="141.028159" xlink:href="#m683f2ea741" y="308.747788"/>
     <use style="fill:#800080;stroke:#800080;" x="150.070295" xlink:href="#m683f2ea741" y="308.60098"/>
    </g>
   </g>
   <g id="PathCollection_5">
    <defs>
     <path d="M 0 3 
C 0.795609 3 1.55874 2.683901 2.12132 2.12132 
C 2.683901 1.55874 3 0.795609 3 0 
C 3 -0.795609 2.683901 -1.55874 2.12132 -2.12132 
C 1.55874 -2.683901 0.795609 -3 0 -3 
C -0.795609 -3 -1.55874 -2.683901 -2.12132 -2.12132 
C -2.683901 -1.55874 -3 -0.795609 -3 0 
C -3 0.795609 -2.683901 1.55874 -2.12132 2.12132 
C -1.55874 2.683901 -0.795609 3 0 3 
z
" id="m5e22254562" style="stroke:#ffff00;"/>
    </defs>
    <g clip-path="url(#p3e10920fbe)">
     <use style="fill:#ffff00;stroke:#ffff00;" x="131.232511" xlink:href="#m5e22254562" y="308.684978"/>
     <use style="fill:#ffff00;stroke:#ffff00;" x="134.849366" xlink:href="#m5e22254562" y="308.678546"/>
    </g>
   </g>
   <g id="PathCollection_6">
    <defs>
     <path d="M 0 3 
C 0.795609 3 1.55874 2.683901 2.12132 2.12132 
C 2.683901 1.55874 3 0.795609 3 0 
C 3 -0.795609 2.683901 -1.55874 2.12132 -2.12132 
C 1.55874 -2.683901 0.795609 -3 0 -3 
C -0.795609 -3 -1.55874 -2.683901 -2.12132 -2.12132 
C -2.683901 -1.55874 -3 -0.795609 -3 0 
C -3 0.795609 -2.683901 1.55874 -2.12132 2.12132 
C -1.55874 2.683901 -0.795609 3 0 3 
z
" id="m8e2b9aaed7" style="stroke:#ffc0cb;"/>
    </defs>
    <g clip-path="url(#p3e10920fbe)">
     <use style="fill:#ffc0cb;stroke:#ffc0cb;" x="122.190375" xlink:href="#m8e2b9aaed7" y="308.599088"/>
     <use style="fill:#ffc0cb;stroke:#ffc0cb;" x="125.053718" xlink:href="#m8e2b9aaed7" y="308.683465"/>
    </g>
   </g>
   <g id="PathCollection_7">
    <defs>
     <path d="M 0 3 
C 0.795609 3 1.55874 2.683901 2.12132 2.12132 
C 2.683901 1.55874 3 0.795609 3 0 
C 3 -0.795609 2.683901 -1.55874 2.12132 -2.12132 
C 1.55874 -2.683901 0.795609 -3 0 -3 
C -0.795609 -3 -1.55874 -2.683901 -2.12132 -2.12132 
C -2.683901 -1.55874 -3 -0.795609 -3 0 
C -3 0.795609 -2.683901 1.55874 -2.12132 2.12132 
C -1.55874 2.683901 -0.795609 3 0 3 
z
" id="mec16180156" style="stroke:#00ffff;"/>
    </defs>
    <g clip-path="url(#p3e10920fbe)">
     <use style="fill:#00ffff;stroke:#00ffff;" x="117.970711" xlink:href="#mec16180156" y="308.661519"/>
     <use style="fill:#00ffff;stroke:#00ffff;" x="118.422818" xlink:href="#mec16180156" y="308.66606"/>
    </g>
   </g>
   <g id="matplotlib.axis_1">
    <g id="xtick_1">
     <g id="line2d_1">
      <path clip-path="url(#p3e10920fbe)" d="M 82.254273 322.3224 
L 82.254273 43.4592 
" style="fill:none;stroke:#b0b0b0;stroke-linecap:square;stroke-width:0.8;"/>
     </g>
     <g id="line2d_2">
      <defs>
       <path d="M 0 0 
L 0 3.5 
" id="mac1da30a3f" style="stroke:#000000;stroke-width:0.8;"/>
      </defs>
      <g>
       <use style="stroke:#000000;stroke-width:0.8;" x="82.254273" xlink:href="#mac1da30a3f" y="322.3224"/>
      </g>
     </g>
     <g id="text_1">
      <!-- 0 -->
      <g transform="translate(79.073023 336.920838)scale(0.1 -0.1)">
       <defs>
        <path d="M 2034 4250 
Q 1547 4250 1301 3770 
Q 1056 3291 1056 2328 
Q 1056 1369 1301 889 
Q 1547 409 2034 409 
Q 2525 409 2770 889 
Q 3016 1369 3016 2328 
Q 3016 3291 2770 3770 
Q 2525 4250 2034 4250 
z
M 2034 4750 
Q 2819 4750 3233 4129 
Q 3647 3509 3647 2328 
Q 3647 1150 3233 529 
Q 2819 -91 2034 -91 
Q 1250 -91 836 529 
Q 422 1150 422 2328 
Q 422 3509 836 4129 
Q 1250 4750 2034 4750 
z
" id="DejaVuSans-30" transform="scale(0.015625)"/>
       </defs>
       <use xlink:href="#DejaVuSans-30"/>
      </g>
     </g>
    </g>
    <g id="xtick_2">
     <g id="line2d_3">
      <path clip-path="url(#p3e10920fbe)" d="M 142.535182 322.3224 
L 142.535182 43.4592 
" style="fill:none;stroke:#b0b0b0;stroke-linecap:square;stroke-width:0.8;"/>
     </g>
     <g id="line2d_4">
      <g>
       <use style="stroke:#000000;stroke-width:0.8;" x="142.535182" xlink:href="#mac1da30a3f" y="322.3224"/>
      </g>
     </g>
     <g id="text_2">
      <!-- 2 -->
      <g transform="translate(139.353932 336.920838)scale(0.1 -0.1)">
       <defs>
        <path d="M 1228 531 
L 3431 531 
L 3431 0 
L 469 0 
L 469 531 
Q 828 903 1448 1529 
Q 2069 2156 2228 2338 
Q 2531 2678 2651 2914 
Q 2772 3150 2772 3378 
Q 2772 3750 2511 3984 
Q 2250 4219 1831 4219 
Q 1534 4219 1204 4116 
Q 875 4013 500 3803 
L 500 4441 
Q 881 4594 1212 4672 
Q 1544 4750 1819 4750 
Q 2544 4750 2975 4387 
Q 3406 4025 3406 3419 
Q 3406 3131 3298 2873 
Q 3191 2616 2906 2266 
Q 2828 2175 2409 1742 
Q 1991 1309 1228 531 
z
" id="DejaVuSans-32" transform="scale(0.015625)"/>
       </defs>
       <use xlink:href="#DejaVuSans-32"/>
      </g>
     </g>
    </g>
    <g id="xtick_3">
     <g id="line2d_5">
      <path clip-path="url(#p3e10920fbe)" d="M 202.816091 322.3224 
L 202.816091 43.4592 
" style="fill:none;stroke:#b0b0b0;stroke-linecap:square;stroke-width:0.8;"/>
     </g>
     <g id="line2d_6">
      <g>
       <use style="stroke:#000000;stroke-width:0.8;" x="202.816091" xlink:href="#mac1da30a3f" y="322.3224"/>
      </g>
     </g>
     <g id="text_3">
      <!-- 4 -->
      <g transform="translate(199.634841 336.920838)scale(0.1 -0.1)">
       <defs>
        <path d="M 2419 4116 
L 825 1625 
L 2419 1625 
L 2419 4116 
z
M 2253 4666 
L 3047 4666 
L 3047 1625 
L 3713 1625 
L 3713 1100 
L 3047 1100 
L 3047 0 
L 2419 0 
L 2419 1100 
L 313 1100 
L 313 1709 
L 2253 4666 
z
" id="DejaVuSans-34" transform="scale(0.015625)"/>
       </defs>
       <use xlink:href="#DejaVuSans-34"/>
      </g>
     </g>
    </g>
    <g id="xtick_4">
     <g id="line2d_7">
      <path clip-path="url(#p3e10920fbe)" d="M 263.097 322.3224 
L 263.097 43.4592 
" style="fill:none;stroke:#b0b0b0;stroke-linecap:square;stroke-width:0.8;"/>
     </g>
     <g id="line2d_8">
      <g>
       <use style="stroke:#000000;stroke-width:0.8;" x="263.097" xlink:href="#mac1da30a3f" y="322.3224"/>
      </g>
     </g>
     <g id="text_4">
      <!-- 6 -->
      <g transform="translate(259.91575 336.920838)scale(0.1 -0.1)">
       <defs>
        <path d="M 2113 2584 
Q 1688 2584 1439 2293 
Q 1191 2003 1191 1497 
Q 1191 994 1439 701 
Q 1688 409 2113 409 
Q 2538 409 2786 701 
Q 3034 994 3034 1497 
Q 3034 2003 2786 2293 
Q 2538 2584 2113 2584 
z
M 3366 4563 
L 3366 3988 
Q 3128 4100 2886 4159 
Q 2644 4219 2406 4219 
Q 1781 4219 1451 3797 
Q 1122 3375 1075 2522 
Q 1259 2794 1537 2939 
Q 1816 3084 2150 3084 
Q 2853 3084 3261 2657 
Q 3669 2231 3669 1497 
Q 3669 778 3244 343 
Q 2819 -91 2113 -91 
Q 1303 -91 875 529 
Q 447 1150 447 2328 
Q 447 3434 972 4092 
Q 1497 4750 2381 4750 
Q 2619 4750 2861 4703 
Q 3103 4656 3366 4563 
z
" id="DejaVuSans-36" transform="scale(0.015625)"/>
       </defs>
       <use xlink:href="#DejaVuSans-36"/>
      </g>
     </g>
    </g>
    <g id="xtick_5">
     <g id="line2d_9">
      <path clip-path="url(#p3e10920fbe)" d="M 323.377909 322.3224 
L 323.377909 43.4592 
" style="fill:none;stroke:#b0b0b0;stroke-linecap:square;stroke-width:0.8;"/>
     </g>
     <g id="line2d_10">
      <g>
       <use style="stroke:#000000;stroke-width:0.8;" x="323.377909" xlink:href="#mac1da30a3f" y="322.3224"/>
      </g>
     </g>
     <g id="text_5">
      <!-- 8 -->
      <g transform="translate(320.196659 336.920838)scale(0.1 -0.1)">
       <defs>
        <path d="M 2034 2216 
Q 1584 2216 1326 1975 
Q 1069 1734 1069 1313 
Q 1069 891 1326 650 
Q 1584 409 2034 409 
Q 2484 409 2743 651 
Q 3003 894 3003 1313 
Q 3003 1734 2745 1975 
Q 2488 2216 2034 2216 
z
M 1403 2484 
Q 997 2584 770 2862 
Q 544 3141 544 3541 
Q 544 4100 942 4425 
Q 1341 4750 2034 4750 
Q 2731 4750 3128 4425 
Q 3525 4100 3525 3541 
Q 3525 3141 3298 2862 
Q 3072 2584 2669 2484 
Q 3125 2378 3379 2068 
Q 3634 1759 3634 1313 
Q 3634 634 3220 271 
Q 2806 -91 2034 -91 
Q 1263 -91 848 271 
Q 434 634 434 1313 
Q 434 1759 690 2068 
Q 947 2378 1403 2484 
z
M 1172 3481 
Q 1172 3119 1398 2916 
Q 1625 2713 2034 2713 
Q 2441 2713 2670 2916 
Q 2900 3119 2900 3481 
Q 2900 3844 2670 4047 
Q 2441 4250 2034 4250 
Q 1625 4250 1398 4047 
Q 1172 3844 1172 3481 
z
" id="DejaVuSans-38" transform="scale(0.015625)"/>
       </defs>
       <use xlink:href="#DejaVuSans-38"/>
      </g>
     </g>
    </g>
    <g id="xtick_6">
     <g id="line2d_11">
      <path clip-path="url(#p3e10920fbe)" d="M 383.658818 322.3224 
L 383.658818 43.4592 
" style="fill:none;stroke:#b0b0b0;stroke-linecap:square;stroke-width:0.8;"/>
     </g>
     <g id="line2d_12">
      <g>
       <use style="stroke:#000000;stroke-width:0.8;" x="383.658818" xlink:href="#mac1da30a3f" y="322.3224"/>
      </g>
     </g>
     <g id="text_6">
      <!-- 10 -->
      <g transform="translate(377.296318 336.920838)scale(0.1 -0.1)">
       <defs>
        <path d="M 794 531 
L 1825 531 
L 1825 4091 
L 703 3866 
L 703 4441 
L 1819 4666 
L 2450 4666 
L 2450 531 
L 3481 531 
L 3481 0 
L 794 0 
L 794 531 
z
" id="DejaVuSans-31" transform="scale(0.015625)"/>
       </defs>
       <use xlink:href="#DejaVuSans-31"/>
       <use x="63.623047" xlink:href="#DejaVuSans-30"/>
      </g>
     </g>
    </g>
    <g id="xtick_7">
     <g id="line2d_13">
      <path clip-path="url(#p3e10920fbe)" d="M 443.939727 322.3224 
L 443.939727 43.4592 
" style="fill:none;stroke:#b0b0b0;stroke-linecap:square;stroke-width:0.8;"/>
     </g>
     <g id="line2d_14">
      <g>
       <use style="stroke:#000000;stroke-width:0.8;" x="443.939727" xlink:href="#mac1da30a3f" y="322.3224"/>
      </g>
     </g>
     <g id="text_7">
      <!-- 12 -->
      <g transform="translate(437.577227 336.920838)scale(0.1 -0.1)">
       <use xlink:href="#DejaVuSans-31"/>
       <use x="63.623047" xlink:href="#DejaVuSans-32"/>
      </g>
     </g>
    </g>
    <g id="text_8">
     <!-- $B$ (T) -->
     <g transform="translate(251.097 350.598963)scale(0.1 -0.1)">
      <defs>
       <path d="M 1081 4666 
L 2694 4666 
Q 3350 4666 3675 4422 
Q 4000 4178 4000 3688 
Q 4000 3238 3720 2911 
Q 3441 2584 2988 2516 
Q 3375 2428 3569 2181 
Q 3763 1934 3763 1522 
Q 3763 819 3242 409 
Q 2722 0 1819 0 
L 172 0 
L 1081 4666 
z
M 1234 2228 
L 903 519 
L 1919 519 
Q 2491 519 2800 781 
Q 3109 1044 3109 1522 
Q 3109 1891 2904 2059 
Q 2700 2228 2247 2228 
L 1234 2228 
z
M 1606 4147 
L 1331 2741 
L 2272 2741 
Q 2775 2741 3058 2959 
Q 3341 3178 3341 3566 
Q 3341 3869 3150 4008 
Q 2959 4147 2541 4147 
L 1606 4147 
z
" id="DejaVuSans-Oblique-42" transform="scale(0.015625)"/>
       <path id="DejaVuSans-20" transform="scale(0.015625)"/>
       <path d="M 1984 4856 
Q 1566 4138 1362 3434 
Q 1159 2731 1159 2009 
Q 1159 1288 1364 580 
Q 1569 -128 1984 -844 
L 1484 -844 
Q 1016 -109 783 600 
Q 550 1309 550 2009 
Q 550 2706 781 3412 
Q 1013 4119 1484 4856 
L 1984 4856 
z
" id="DejaVuSans-28" transform="scale(0.015625)"/>
       <path d="M -19 4666 
L 3928 4666 
L 3928 4134 
L 2272 4134 
L 2272 0 
L 1638 0 
L 1638 4134 
L -19 4134 
L -19 4666 
z
" id="DejaVuSans-54" transform="scale(0.015625)"/>
       <path d="M 513 4856 
L 1013 4856 
Q 1481 4119 1714 3412 
Q 1947 2706 1947 2009 
Q 1947 1309 1714 600 
Q 1481 -109 1013 -844 
L 513 -844 
Q 928 -128 1133 580 
Q 1338 1288 1338 2009 
Q 1338 2731 1133 3434 
Q 928 4138 513 4856 
z
" id="DejaVuSans-29" transform="scale(0.015625)"/>
      </defs>
      <use transform="translate(0 0.125)" xlink:href="#DejaVuSans-Oblique-42"/>
      <use transform="translate(68.603516 0.125)" xlink:href="#DejaVuSans-20"/>
      <use transform="translate(100.390625 0.125)" xlink:href="#DejaVuSans-28"/>
      <use transform="translate(139.404297 0.125)" xlink:href="#DejaVuSans-54"/>
      <use transform="translate(200.488281 0.125)" xlink:href="#DejaVuSans-29"/>
     </g>
    </g>
   </g>
   <g id="matplotlib.axis_2">
    <g id="ytick_1">
     <g id="line2d_15">
      <path clip-path="url(#p3e10920fbe)" d="M 64.17 308.608547 
L 462.024 308.608547 
" style="fill:none;stroke:#b0b0b0;stroke-linecap:square;stroke-width:0.8;"/>
     </g>
     <g id="line2d_16">
      <defs>
       <path d="M 0 0 
L -3.5 0 
" id="m37915ad4ed" style="stroke:#000000;stroke-width:0.8;"/>
      </defs>
      <g>
       <use style="stroke:#000000;stroke-width:0.8;" x="64.17" xlink:href="#m37915ad4ed" y="308.608547"/>
      </g>
     </g>
     <g id="text_9">
      <!-- 0.0000 -->
      <g transform="translate(22.179375 312.407766)scale(0.1 -0.1)">
       <defs>
        <path d="M 684 794 
L 1344 794 
L 1344 0 
L 684 0 
L 684 794 
z
" id="DejaVuSans-2e" transform="scale(0.015625)"/>
       </defs>
       <use xlink:href="#DejaVuSans-30"/>
       <use x="63.623047" xlink:href="#DejaVuSans-2e"/>
       <use x="95.410156" xlink:href="#DejaVuSans-30"/>
       <use x="159.033203" xlink:href="#DejaVuSans-30"/>
       <use x="222.65625" xlink:href="#DejaVuSans-30"/>
       <use x="286.279297" xlink:href="#DejaVuSans-30"/>
      </g>
     </g>
    </g>
    <g id="ytick_2">
     <g id="line2d_17">
      <path clip-path="url(#p3e10920fbe)" d="M 64.17 276.86857 
L 462.024 276.86857 
" style="fill:none;stroke:#b0b0b0;stroke-linecap:square;stroke-width:0.8;"/>
     </g>
     <g id="line2d_18">
      <g>
       <use style="stroke:#000000;stroke-width:0.8;" x="64.17" xlink:href="#m37915ad4ed" y="276.86857"/>
      </g>
     </g>
     <g id="text_10">
      <!-- 0.0025 -->
      <g transform="translate(22.179375 280.667788)scale(0.1 -0.1)">
       <defs>
        <path d="M 691 4666 
L 3169 4666 
L 3169 4134 
L 1269 4134 
L 1269 2991 
Q 1406 3038 1543 3061 
Q 1681 3084 1819 3084 
Q 2600 3084 3056 2656 
Q 3513 2228 3513 1497 
Q 3513 744 3044 326 
Q 2575 -91 1722 -91 
Q 1428 -91 1123 -41 
Q 819 9 494 109 
L 494 744 
Q 775 591 1075 516 
Q 1375 441 1709 441 
Q 2250 441 2565 725 
Q 2881 1009 2881 1497 
Q 2881 1984 2565 2268 
Q 2250 2553 1709 2553 
Q 1456 2553 1204 2497 
Q 953 2441 691 2322 
L 691 4666 
z
" id="DejaVuSans-35" transform="scale(0.015625)"/>
       </defs>
       <use xlink:href="#DejaVuSans-30"/>
       <use x="63.623047" xlink:href="#DejaVuSans-2e"/>
       <use x="95.410156" xlink:href="#DejaVuSans-30"/>
       <use x="159.033203" xlink:href="#DejaVuSans-30"/>
       <use x="222.65625" xlink:href="#DejaVuSans-32"/>
       <use x="286.279297" xlink:href="#DejaVuSans-35"/>
      </g>
     </g>
    </g>
    <g id="ytick_3">
     <g id="line2d_19">
      <path clip-path="url(#p3e10920fbe)" d="M 64.17 245.128592 
L 462.024 245.128592 
" style="fill:none;stroke:#b0b0b0;stroke-linecap:square;stroke-width:0.8;"/>
     </g>
     <g id="line2d_20">
      <g>
       <use style="stroke:#000000;stroke-width:0.8;" x="64.17" xlink:href="#m37915ad4ed" y="245.128592"/>
      </g>
     </g>
     <g id="text_11">
      <!-- 0.0050 -->
      <g transform="translate(22.179375 248.927811)scale(0.1 -0.1)">
       <use xlink:href="#DejaVuSans-30"/>
       <use x="63.623047" xlink:href="#DejaVuSans-2e"/>
       <use x="95.410156" xlink:href="#DejaVuSans-30"/>
       <use x="159.033203" xlink:href="#DejaVuSans-30"/>
       <use x="222.65625" xlink:href="#DejaVuSans-35"/>
       <use x="286.279297" xlink:href="#DejaVuSans-30"/>
      </g>
     </g>
    </g>
    <g id="ytick_4">
     <g id="line2d_21">
      <path clip-path="url(#p3e10920fbe)" d="M 64.17 213.388615 
L 462.024 213.388615 
" style="fill:none;stroke:#b0b0b0;stroke-linecap:square;stroke-width:0.8;"/>
     </g>
     <g id="line2d_22">
      <g>
       <use style="stroke:#000000;stroke-width:0.8;" x="64.17" xlink:href="#m37915ad4ed" y="213.388615"/>
      </g>
     </g>
     <g id="text_12">
      <!-- 0.0075 -->
      <g transform="translate(22.179375 217.187833)scale(0.1 -0.1)">
       <defs>
        <path d="M 525 4666 
L 3525 4666 
L 3525 4397 
L 1831 0 
L 1172 0 
L 2766 4134 
L 525 4134 
L 525 4666 
z
" id="DejaVuSans-37" transform="scale(0.015625)"/>
       </defs>
       <use xlink:href="#DejaVuSans-30"/>
       <use x="63.623047" xlink:href="#DejaVuSans-2e"/>
       <use x="95.410156" xlink:href="#DejaVuSans-30"/>
       <use x="159.033203" xlink:href="#DejaVuSans-30"/>
       <use x="222.65625" xlink:href="#DejaVuSans-37"/>
       <use x="286.279297" xlink:href="#DejaVuSans-35"/>
      </g>
     </g>
    </g>
    <g id="ytick_5">
     <g id="line2d_23">
      <path clip-path="url(#p3e10920fbe)" d="M 64.17 181.648637 
L 462.024 181.648637 
" style="fill:none;stroke:#b0b0b0;stroke-linecap:square;stroke-width:0.8;"/>
     </g>
     <g id="line2d_24">
      <g>
       <use style="stroke:#000000;stroke-width:0.8;" x="64.17" xlink:href="#m37915ad4ed" y="181.648637"/>
      </g>
     </g>
     <g id="text_13">
      <!-- 0.0100 -->
      <g transform="translate(22.179375 185.447856)scale(0.1 -0.1)">
       <use xlink:href="#DejaVuSans-30"/>
       <use x="63.623047" xlink:href="#DejaVuSans-2e"/>
       <use x="95.410156" xlink:href="#DejaVuSans-30"/>
       <use x="159.033203" xlink:href="#DejaVuSans-31"/>
       <use x="222.65625" xlink:href="#DejaVuSans-30"/>
       <use x="286.279297" xlink:href="#DejaVuSans-30"/>
      </g>
     </g>
    </g>
    <g id="ytick_6">
     <g id="line2d_25">
      <path clip-path="url(#p3e10920fbe)" d="M 64.17 149.908659 
L 462.024 149.908659 
" style="fill:none;stroke:#b0b0b0;stroke-linecap:square;stroke-width:0.8;"/>
     </g>
     <g id="line2d_26">
      <g>
       <use style="stroke:#000000;stroke-width:0.8;" x="64.17" xlink:href="#m37915ad4ed" y="149.908659"/>
      </g>
     </g>
     <g id="text_14">
      <!-- 0.0125 -->
      <g transform="translate(22.179375 153.707878)scale(0.1 -0.1)">
       <use xlink:href="#DejaVuSans-30"/>
       <use x="63.623047" xlink:href="#DejaVuSans-2e"/>
       <use x="95.410156" xlink:href="#DejaVuSans-30"/>
       <use x="159.033203" xlink:href="#DejaVuSans-31"/>
       <use x="222.65625" xlink:href="#DejaVuSans-32"/>
       <use x="286.279297" xlink:href="#DejaVuSans-35"/>
      </g>
     </g>
    </g>
    <g id="ytick_7">
     <g id="line2d_27">
      <path clip-path="url(#p3e10920fbe)" d="M 64.17 118.168682 
L 462.024 118.168682 
" style="fill:none;stroke:#b0b0b0;stroke-linecap:square;stroke-width:0.8;"/>
     </g>
     <g id="line2d_28">
      <g>
       <use style="stroke:#000000;stroke-width:0.8;" x="64.17" xlink:href="#m37915ad4ed" y="118.168682"/>
      </g>
     </g>
     <g id="text_15">
      <!-- 0.0150 -->
      <g transform="translate(22.179375 121.967901)scale(0.1 -0.1)">
       <use xlink:href="#DejaVuSans-30"/>
       <use x="63.623047" xlink:href="#DejaVuSans-2e"/>
       <use x="95.410156" xlink:href="#DejaVuSans-30"/>
       <use x="159.033203" xlink:href="#DejaVuSans-31"/>
       <use x="222.65625" xlink:href="#DejaVuSans-35"/>
       <use x="286.279297" xlink:href="#DejaVuSans-30"/>
      </g>
     </g>
    </g>
    <g id="ytick_8">
     <g id="line2d_29">
      <path clip-path="url(#p3e10920fbe)" d="M 64.17 86.428704 
L 462.024 86.428704 
" style="fill:none;stroke:#b0b0b0;stroke-linecap:square;stroke-width:0.8;"/>
     </g>
     <g id="line2d_30">
      <g>
       <use style="stroke:#000000;stroke-width:0.8;" x="64.17" xlink:href="#m37915ad4ed" y="86.428704"/>
      </g>
     </g>
     <g id="text_16">
      <!-- 0.0175 -->
      <g transform="translate(22.179375 90.227923)scale(0.1 -0.1)">
       <use xlink:href="#DejaVuSans-30"/>
       <use x="63.623047" xlink:href="#DejaVuSans-2e"/>
       <use x="95.410156" xlink:href="#DejaVuSans-30"/>
       <use x="159.033203" xlink:href="#DejaVuSans-31"/>
       <use x="222.65625" xlink:href="#DejaVuSans-37"/>
       <use x="286.279297" xlink:href="#DejaVuSans-35"/>
      </g>
     </g>
    </g>
    <g id="ytick_9">
     <g id="line2d_31">
      <path clip-path="url(#p3e10920fbe)" d="M 64.17 54.688727 
L 462.024 54.688727 
" style="fill:none;stroke:#b0b0b0;stroke-linecap:square;stroke-width:0.8;"/>
     </g>
     <g id="line2d_32">
      <g>
       <use style="stroke:#000000;stroke-width:0.8;" x="64.17" xlink:href="#m37915ad4ed" y="54.688727"/>
      </g>
     </g>
     <g id="text_17">
      <!-- 0.0200 -->
      <g transform="translate(22.179375 58.487945)scale(0.1 -0.1)">
       <use xlink:href="#DejaVuSans-30"/>
       <use x="63.623047" xlink:href="#DejaVuSans-2e"/>
       <use x="95.410156" xlink:href="#DejaVuSans-30"/>
       <use x="159.033203" xlink:href="#DejaVuSans-32"/>
       <use x="222.65625" xlink:href="#DejaVuSans-30"/>
       <use x="286.279297" xlink:href="#DejaVuSans-30"/>
      </g>
     </g>
    </g>
    <g id="text_18">
     <!-- $\rho_\mathrm{xx}$ ($\Omega$) -->
     <g transform="translate(16.079375 199.6908)rotate(-90)scale(0.1 -0.1)">
      <defs>
       <path d="M 1203 2875 
Q 1453 3194 1981 3475 
Q 2188 3584 2756 3584 
Q 3394 3584 3694 3078 
Q 3994 2572 3834 1747 
Q 3672 922 3175 415 
Q 2678 -91 2041 -91 
Q 1656 -91 1409 63 
Q 1163 213 1044 525 
L 681 -1331 
L 103 -1331 
L 697 1716 
Q 838 2438 1203 2875 
z
M 3238 1747 
Q 3359 2381 3169 2744 
Q 2978 3103 2522 3103 
Q 2066 3103 1734 2744 
Q 1403 2381 1281 1747 
Q 1156 1113 1347 750 
Q 1538 391 1994 391 
Q 2450 391 2781 750 
Q 3113 1113 3238 1747 
z
" id="DejaVuSans-Oblique-3c1" transform="scale(0.015625)"/>
       <path d="M 3513 3500 
L 2247 1797 
L 3578 0 
L 2900 0 
L 1881 1375 
L 863 0 
L 184 0 
L 1544 1831 
L 300 3500 
L 978 3500 
L 1906 2253 
L 2834 3500 
L 3513 3500 
z
" id="DejaVuSans-78" transform="scale(0.015625)"/>
       <path d="M 4647 556 
L 4647 0 
L 2772 0 
L 2772 556 
Q 3325 859 3634 1378 
Q 3944 1897 3944 2528 
Q 3944 3278 3531 3731 
Q 3119 4184 2444 4184 
Q 1769 4184 1355 3729 
Q 941 3275 941 2528 
Q 941 1897 1250 1378 
Q 1563 859 2119 556 
L 2119 0 
L 244 0 
L 244 556 
L 1241 556 
Q 747 991 519 1456 
Q 294 1922 294 2497 
Q 294 3491 894 4106 
Q 1491 4722 2444 4722 
Q 3391 4722 3994 4106 
Q 4594 3494 4594 2528 
Q 4594 1922 4372 1459 
Q 4150 997 3647 556 
L 4647 556 
z
" id="DejaVuSans-3a9" transform="scale(0.015625)"/>
      </defs>
      <use transform="translate(0 0.125)" xlink:href="#DejaVuSans-Oblique-3c1"/>
      <use transform="translate(63.476562 -16.28125)scale(0.7)" xlink:href="#DejaVuSans-78"/>
      <use transform="translate(104.902344 -16.28125)scale(0.7)" xlink:href="#DejaVuSans-78"/>
      <use transform="translate(149.0625 0.125)" xlink:href="#DejaVuSans-20"/>
      <use transform="translate(180.849609 0.125)" xlink:href="#DejaVuSans-28"/>
      <use transform="translate(219.863281 0.125)" xlink:href="#DejaVuSans-3a9"/>
      <use transform="translate(296.279297 0.125)" xlink:href="#DejaVuSans-29"/>
     </g>
    </g>
   </g>
   <g id="line2d_33">
    <path clip-path="url(#p3e10920fbe)" d="M 82.254273 308.198297 
L 83.083135 308.276621 
L 84.816211 308.367193 
L 85.494372 308.39349 
L 85.720425 308.383226 
L 85.871127 308.401577 
L 86.02183 308.401909 
L 86.549288 308.377409 
L 86.926043 308.23202 
L 87.001394 308.472144 
L 87.076745 308.223979 
L 87.227448 308.408436 
L 87.302799 308.205391 
L 87.37815 308.482502 
L 87.528852 308.249142 
L 87.604203 308.504447 
L 87.754906 308.242472 
L 87.830257 308.50038 
L 87.980959 308.147831 
L 88.131661 308.431611 
L 88.207013 308.021645 
L 88.357715 308.524785 
L 88.433066 308.344017 
L 88.508417 307.895175 
L 88.659119 308.538832 
L 88.73447 308.45384 
L 88.809822 307.860412 
L 88.885173 307.938735 
L 89.035875 308.556001 
L 89.186577 307.625205 
L 89.261928 307.932161 
L 89.412631 308.57071 
L 89.487982 308.378308 
L 89.638684 307.588172 
L 89.864738 308.58069 
L 89.940089 308.309728 
L 90.01544 307.350083 
L 90.090791 307.460093 
L 90.316844 308.590622 
L 90.392195 308.54219 
L 90.542898 307.224176 
L 90.618249 307.414122 
L 90.844302 308.548386 
L 90.919653 308.542001 
L 90.995005 308.348085 
L 91.145707 307.125617 
L 91.522463 308.402618 
L 91.597814 308.45578 
L 91.748516 307.548537 
L 91.823867 307.179347 
L 91.974569 307.92814 
L 92.125272 308.411131 
L 92.426676 307.928992 
L 92.577378 307.413933 
L 92.65273 307.440514 
L 92.878783 308.354281 
L 92.954134 308.149582 
L 93.255539 307.776601 
L 93.33089 307.375906 
L 93.406241 307.394731 
L 93.556943 307.773006 
L 93.632294 307.724764 
L 93.858348 308.159325 
L 93.933699 308.315688 
L 94.385806 306.628709 
L 94.68721 308.048935 
L 94.837913 308.080435 
L 94.913264 308.194513 
L 95.063966 307.837143 
L 95.139317 308.032476 
L 95.290019 307.208763 
L 95.36537 307.42746 
L 95.516073 306.847601 
L 95.666775 306.280052 
L 96.043531 308.103232 
L 96.194233 308.229798 
L 96.344935 308.369983 
L 96.420286 308.075232 
L 96.721691 305.537311 
L 96.797042 305.533896 
L 96.872393 305.687898 
L 97.173798 305.12525 
L 97.475202 307.326239 
L 97.851958 308.272742 
L 98.078011 308.416996 
L 98.304065 308.331201 
L 98.379416 307.998801 
L 98.756172 304.266721 
L 98.831523 304.251969 
L 98.982225 303.706739 
L 99.057576 303.775222 
L 99.358981 306.392424 
L 99.434332 306.348915 
L 99.509683 306.419289 
L 100.112492 308.437145 
L 100.263194 308.428631 
L 100.63995 307.379596 
L 100.790652 307.605766 
L 100.941355 307.909032 
L 101.016706 307.65363 
L 101.468813 302.507679 
L 101.544164 302.51677 
L 101.920919 305.434004 
L 101.99627 305.338644 
L 102.071622 305.503616 
L 102.373026 306.983816 
L 102.448377 307.076903 
L 102.674431 307.722399 
L 103.051186 308.586318 
L 103.201889 308.53344 
L 103.352591 307.51543 
L 103.653995 305.730277 
L 103.9554 305.303463 
L 104.106102 305.225523 
L 104.332156 305.859294 
L 104.63356 307.0735 
L 104.708911 306.960354 
L 104.859614 305.082109 
L 105.010316 303.538365 
L 105.161018 304.014731 
L 105.236369 303.948141 
L 105.537774 303.366208 
L 105.839178 303.340105 
L 105.91453 303.589441 
L 106.366636 307.550618 
L 106.894094 308.505724 
L 107.195499 308.647898 
L 107.496903 308.585467 
L 107.647606 307.110382 
L 108.024361 303.331395 
L 108.62717 302.822489 
L 108.702522 302.880764 
L 109.079277 304.490349 
L 109.531384 306.227071 
L 109.757438 307.081435 
L 110.058842 308.375849 
L 110.134193 308.46136 
L 110.209544 308.041462 
L 110.737002 300.127714 
L 110.887705 299.977127 
L 111.189109 299.936259 
L 111.339811 299.857556 
L 111.490514 300.014199 
L 111.641216 300.912453 
L 112.017972 306.562309 
L 112.319376 307.927478 
L 112.54543 308.27331 
L 112.846834 308.570332 
L 113.298941 308.664925 
L 114.052452 308.62775 
L 114.203155 308.219013 
L 114.353857 305.988133 
L 114.655261 299.879507 
L 114.956666 298.859423 
L 115.25807 298.379641 
L 115.408773 298.476512 
L 115.559475 298.409159 
L 116.463689 303.9803 
L 116.614391 304.407101 
L 117.367902 308.081096 
L 117.669307 308.568062 
L 117.970711 308.661519 
L 118.874925 308.628601 
L 119.025627 307.880939 
L 119.628436 293.903543 
L 119.929841 293.517584 
L 120.231245 293.493335 
L 120.381948 293.709802 
L 120.53265 294.25154 
L 120.683352 295.836253 
L 121.135459 304.167972 
L 121.587566 307.700454 
L 121.88897 308.434497 
L 122.341077 308.63125 
L 123.395993 308.687249 
L 124.601611 308.667195 
L 125.053718 308.683465 
L 125.656527 308.546873 
L 125.80723 308.086016 
L 126.108634 304.308732 
L 126.560741 291.999525 
L 126.862145 289.161717 
L 127.012848 288.436776 
L 127.314252 288.394371 
L 127.464955 288.793914 
L 127.766359 290.732719 
L 128.218466 295.752968 
L 129.273382 302.180745 
L 130.629702 308.195364 
L 131.081809 308.646763 
L 131.684618 308.714492 
L 133.342343 308.690654 
L 134.849366 308.678546 
L 135.15077 308.490117 
L 135.301473 308.110231 
L 135.602877 306.324691 
L 136.054984 297.99673 
L 136.657793 285.182793 
L 136.959198 280.596874 
L 137.260602 278.547614 
L 137.411305 278.732214 
L 137.712709 280.654387 
L 138.918327 296.470393 
L 139.06903 297.714473 
L 139.521136 303.385505 
L 139.973243 306.852895 
L 140.576052 308.529089 
L 141.028159 308.747788 
L 144.042205 308.720546 
L 146.905548 308.721681 
L 150.070295 308.60098 
L 150.3717 308.546873 
L 150.823807 308.009206 
L 150.974509 307.610401 
L 151.275914 306.270212 
L 151.72802 301.606378 
L 152.782936 284.849904 
L 153.385745 279.909767 
L 153.837852 278.138931 
L 154.289959 277.370188 
L 154.892768 276.840385 
L 155.344875 276.822229 
L 155.796982 276.452903 
L 156.098386 276.443889 
L 156.399791 276.083704 
L 156.701195 276.023144 
L 157.0026 276.347018 
L 157.454707 277.745482 
L 157.906814 280.336607 
L 158.208218 283.175811 
L 158.96173 291.206406 
L 159.112432 292.053991 
L 159.865943 298.940385 
L 160.468752 302.71503 
L 161.67437 307.920667 
L 162.27718 308.645628 
L 163.181393 308.756113 
L 166.496843 308.781841 
L 172.524934 308.677411 
L 173.881255 308.346714 
L 174.031957 308.252878 
L 174.333361 307.630076 
L 174.484064 307.174522 
L 174.93617 304.105165 
L 175.388277 298.964609 
L 176.292491 280.948046 
L 177.196705 269.191304 
L 177.648811 267.360034 
L 177.950216 267.214665 
L 178.100918 267.347846 
L 178.703727 268.667594 
L 179.306536 270.193145 
L 180.060048 271.63706 
L 180.512155 272.106303 
L 181.114964 272.387774 
L 182.019177 272.360477 
L 183.5262 271.900374 
L 184.581116 271.842862 
L 186.540245 272.054758 
L 187.143055 271.806551 
L 188.047268 270.753165 
L 188.650077 269.369936 
L 188.951482 268.909834 
L 189.403589 267.726187 
L 190.006398 265.925133 
L 191.061314 263.222157 
L 191.965527 260.270847 
L 192.417634 260.02264 
L 192.568336 259.33858 
L 192.719039 259.30519 
L 192.869741 259.453606 
L 193.321848 260.842928 
L 193.924657 265.344038 
L 195.130275 281.520127 
L 195.43168 284.338256 
L 195.883786 290.464833 
L 196.185191 293.055958 
L 196.637298 297.018275 
L 196.788 297.56918 
L 197.240107 300.771706 
L 197.390809 301.31352 
L 197.993618 304.590228 
L 198.74713 307.409865 
L 199.349939 308.554062 
L 199.802045 308.90519 
L 201.007664 308.907462 
L 203.117495 308.89384 
L 205.076625 308.914272 
L 205.830136 308.89611 
L 207.186457 308.908975 
L 208.241373 308.90292 
L 212.461036 308.905947 
L 214.872273 308.894597 
L 217.283509 308.86584 
L 218.187723 308.576007 
L 218.790532 307.969855 
L 219.845448 305.734441 
L 221.35247 300.858724 
L 222.558089 298.453049 
L 223.010195 297.902145 
L 223.763707 297.443553 
L 224.517218 297.230159 
L 225.27073 297.181724 
L 225.873539 296.879026 
L 226.325645 296.040519 
L 227.079157 293.134673 
L 227.531264 290.262078 
L 228.134073 283.248432 
L 228.736882 274.22209 
L 229.490393 262.298904 
L 230.093202 254.807 
L 230.545309 250.896127 
L 230.846714 250.157601 
L 231.29882 251.67109 
L 231.750927 255.878542 
L 233.559355 286.390563 
L 234.463568 298.371325 
L 235.066377 303.308314 
L 235.669186 306.469984 
L 236.271995 308.019801 
L 236.874805 308.737193 
L 237.477614 308.971783 
L 238.683232 309.026271 
L 242.601491 308.808328 
L 243.2043 308.476873 
L 243.807109 307.570294 
L 244.108514 306.663712 
L 244.711323 303.29318 
L 245.012727 300.685436 
L 245.916941 286.51765 
L 246.821155 268.234788 
L 247.423964 260.830867 
L 247.725368 258.736028 
L 248.026773 257.961065 
L 248.328177 257.991281 
L 248.930986 259.532194 
L 249.8352 262.541017 
L 250.438009 263.888061 
L 250.739414 264.227044 
L 251.040818 264.345117 
L 251.342223 264.221077 
L 251.945032 263.191813 
L 252.547841 261.533082 
L 253.452055 257.897458 
L 255.260482 249.370577 
L 255.863291 246.628116 
L 257.068909 242.844456 
L 257.671718 242.063526 
L 258.274527 241.639734 
L 258.575932 241.833475 
L 259.178741 242.63256 
L 260.082955 245.380988 
L 260.384359 246.35566 
L 261.288573 250.678264 
L 264.604023 266.842419 
L 265.809641 273.44116 
L 267.316664 282.08002 
L 268.220877 286.20901 
L 269.426495 290.095507 
L 270.029305 291.167049 
L 270.632114 291.693805 
L 270.933518 291.718055 
L 271.234923 291.572686 
L 271.837732 290.87047 
L 272.440541 289.169334 
L 273.344755 286.372408 
L 273.646159 285.779124 
L 273.947564 285.906211 
L 274.248968 286.778045 
L 274.550373 288.830352 
L 275.153182 295.689361 
L 275.755991 303.032862 
L 276.057395 304.950439 
L 276.3588 305.997782 
L 276.660205 306.54263 
L 276.961609 306.695503 
L 277.263014 306.689447 
L 277.865823 306.288368 
L 278.468632 305.531636 
L 279.071441 304.410135 
L 279.975655 301.858381 
L 280.578464 299.465567 
L 281.181273 296.532438 
L 282.085486 289.935157 
L 282.9897 280.621124 
L 284.496723 257.01369 
L 286.606555 221.849477 
L 287.510768 212.544585 
L 288.113577 207.664754 
L 289.017791 202.652123 
L 289.922005 198.517292 
L 290.826218 195.096738 
L 291.127623 194.600325 
L 291.429027 194.745694 
L 291.730432 195.569029 
L 292.031836 196.041193 
L 292.333241 197.07033 
L 293.538859 205.739534 
L 294.141668 211.914991 
L 294.744477 219.785109 
L 297.155714 257.125669 
L 297.758523 264.608432 
L 298.964141 280.372917 
L 299.868355 289.96842 
L 301.073973 298.949475 
L 302.279591 304.637152 
L 303.183805 306.951276 
L 304.088018 308.358822 
L 304.690827 308.89157 
L 305.896445 309.39859 
L 307.102064 309.483344 
L 370.999827 309.584748 
L 374.013873 309.634693 
L 375.520895 309.472751 
L 377.027918 308.989946 
L 378.233536 308.295256 
L 379.13775 307.506728 
L 380.041964 306.276268 
L 380.343368 305.639082 
L 380.644773 305.337895 
L 380.946177 304.279976 
L 381.247582 303.860742 
L 383.056009 295.52901 
L 383.960223 289.06637 
L 384.563032 284.180826 
L 385.165841 275.505528 
L 385.467245 272.605637 
L 387.275673 234.641323 
L 388.179886 208.597021 
L 389.0841 178.121691 
L 391.495336 93.971392 
L 392.39955 70.106738 
L 392.700955 64.537007 
L 393.303764 58.265187 
L 393.605168 56.351901 
L 393.906573 56.1348 
L 394.207977 57.296483 
L 394.509382 59.887735 
L 395.112191 67.902714 
L 395.715 78.897442 
L 396.619214 100.304153 
L 399.331855 169.173556 
L 400.537473 194.915186 
L 401.743091 216.491769 
L 403.551518 240.73159 
L 404.455732 249.715654 
L 405.66135 259.317378 
L 406.565564 264.790112 
L 407.469777 269.112589 
L 408.373991 272.284809 
L 409.278205 274.427892 
L 409.881014 275.239166 
L 410.182418 275.662958 
L 410.785227 275.98988 
L 411.086632 275.92932 
L 412.29225 273.979978 
L 412.895059 272.393868 
L 413.497868 270.105415 
L 414.100677 267.611161 
L 415.306295 257.634143 
L 415.909105 251.326013 
L 416.813318 240.428917 
L 417.416127 233.551626 
L 419.224555 199.479775 
L 419.525959 192.542051 
L 419.827364 188.449625 
L 420.128768 186.415474 
L 420.731577 180.144162 
L 422.2386 159.391295 
L 423.142814 148.22771 
L 423.444218 143.771417 
L 424.951241 130.877369 
L 425.252645 130.464749 
L 425.55405 129.532863 
L 425.855455 130.512994 
L 426.156859 130.827854 
L 426.759668 132.305668 
L 427.061073 132.498647 
L 427.362477 132.32979 
L 427.663882 133.298494 
L 427.965286 133.031878 
L 428.568095 136.337915 
L 428.8695 137.11237 
L 429.472309 139.58174 
L 430.677927 154.995943 
L 430.979332 157.744625 
L 431.280736 162.671939 
L 431.582141 164.959757 
L 432.486355 175.228274 
L 432.787759 181.487398 
L 433.390568 189.817745 
L 433.691973 194.515643 
L 433.993377 197.324631 
L 434.294782 198.147966 
L 434.596186 203.511768 
L 435.198995 210.377252 
L 435.5004 211.793871 
L 435.801805 214.251815 
L 436.706018 228.418002 
L 438.213041 240.404668 
L 439.117255 251.422884 
L 439.720064 254.546605 
L 440.021468 257.985314 
L 440.322873 259.438371 
L 441.227086 268.144012 
L 441.528491 269.923863 
L 442.432705 278.278206 
L 443.035514 282.794423 
L 443.939727 290.688791 
L 443.939727 290.688791 
" style="fill:none;stroke:#1f77b4;stroke-linecap:square;stroke-width:1.5;"/>
   </g>
   <g id="patch_3">
    <path d="M 64.17 322.3224 
L 64.17 43.4592 
" style="fill:none;stroke:#000000;stroke-linecap:square;stroke-linejoin:miter;stroke-width:0.8;"/>
   </g>
   <g id="patch_4">
    <path d="M 462.024 322.3224 
L 462.024 43.4592 
" style="fill:none;stroke:#000000;stroke-linecap:square;stroke-linejoin:miter;stroke-width:0.8;"/>
   </g>
   <g id="patch_5">
    <path d="M 64.17 322.3224 
L 462.024 322.3224 
" style="fill:none;stroke:#000000;stroke-linecap:square;stroke-linejoin:miter;stroke-width:0.8;"/>
   </g>
   <g id="patch_6">
    <path d="M 64.17 43.4592 
L 462.024 43.4592 
" style="fill:none;stroke:#000000;stroke-linecap:square;stroke-linejoin:miter;stroke-width:0.8;"/>
   </g>
   <g id="text_19">
    <!-- Long. Resistivity with scattered filling factor minima start &amp; endpoints -->
    <g transform="translate(52.944187 37.4592)scale(0.12 -0.12)">
     <defs>
      <path d="M 628 4666 
L 1259 4666 
L 1259 531 
L 3531 531 
L 3531 0 
L 628 0 
L 628 4666 
z
" id="DejaVuSans-4c" transform="scale(0.015625)"/>
      <path d="M 1959 3097 
Q 1497 3097 1228 2736 
Q 959 2375 959 1747 
Q 959 1119 1226 758 
Q 1494 397 1959 397 
Q 2419 397 2687 759 
Q 2956 1122 2956 1747 
Q 2956 2369 2687 2733 
Q 2419 3097 1959 3097 
z
M 1959 3584 
Q 2709 3584 3137 3096 
Q 3566 2609 3566 1747 
Q 3566 888 3137 398 
Q 2709 -91 1959 -91 
Q 1206 -91 779 398 
Q 353 888 353 1747 
Q 353 2609 779 3096 
Q 1206 3584 1959 3584 
z
" id="DejaVuSans-6f" transform="scale(0.015625)"/>
      <path d="M 3513 2113 
L 3513 0 
L 2938 0 
L 2938 2094 
Q 2938 2591 2744 2837 
Q 2550 3084 2163 3084 
Q 1697 3084 1428 2787 
Q 1159 2491 1159 1978 
L 1159 0 
L 581 0 
L 581 3500 
L 1159 3500 
L 1159 2956 
Q 1366 3272 1645 3428 
Q 1925 3584 2291 3584 
Q 2894 3584 3203 3211 
Q 3513 2838 3513 2113 
z
" id="DejaVuSans-6e" transform="scale(0.015625)"/>
      <path d="M 2906 1791 
Q 2906 2416 2648 2759 
Q 2391 3103 1925 3103 
Q 1463 3103 1205 2759 
Q 947 2416 947 1791 
Q 947 1169 1205 825 
Q 1463 481 1925 481 
Q 2391 481 2648 825 
Q 2906 1169 2906 1791 
z
M 3481 434 
Q 3481 -459 3084 -895 
Q 2688 -1331 1869 -1331 
Q 1566 -1331 1297 -1286 
Q 1028 -1241 775 -1147 
L 775 -588 
Q 1028 -725 1275 -790 
Q 1522 -856 1778 -856 
Q 2344 -856 2625 -561 
Q 2906 -266 2906 331 
L 2906 616 
Q 2728 306 2450 153 
Q 2172 0 1784 0 
Q 1141 0 747 490 
Q 353 981 353 1791 
Q 353 2603 747 3093 
Q 1141 3584 1784 3584 
Q 2172 3584 2450 3431 
Q 2728 3278 2906 2969 
L 2906 3500 
L 3481 3500 
L 3481 434 
z
" id="DejaVuSans-67" transform="scale(0.015625)"/>
      <path d="M 2841 2188 
Q 3044 2119 3236 1894 
Q 3428 1669 3622 1275 
L 4263 0 
L 3584 0 
L 2988 1197 
Q 2756 1666 2539 1819 
Q 2322 1972 1947 1972 
L 1259 1972 
L 1259 0 
L 628 0 
L 628 4666 
L 2053 4666 
Q 2853 4666 3247 4331 
Q 3641 3997 3641 3322 
Q 3641 2881 3436 2590 
Q 3231 2300 2841 2188 
z
M 1259 4147 
L 1259 2491 
L 2053 2491 
Q 2509 2491 2742 2702 
Q 2975 2913 2975 3322 
Q 2975 3731 2742 3939 
Q 2509 4147 2053 4147 
L 1259 4147 
z
" id="DejaVuSans-52" transform="scale(0.015625)"/>
      <path d="M 3597 1894 
L 3597 1613 
L 953 1613 
Q 991 1019 1311 708 
Q 1631 397 2203 397 
Q 2534 397 2845 478 
Q 3156 559 3463 722 
L 3463 178 
Q 3153 47 2828 -22 
Q 2503 -91 2169 -91 
Q 1331 -91 842 396 
Q 353 884 353 1716 
Q 353 2575 817 3079 
Q 1281 3584 2069 3584 
Q 2775 3584 3186 3129 
Q 3597 2675 3597 1894 
z
M 3022 2063 
Q 3016 2534 2758 2815 
Q 2500 3097 2075 3097 
Q 1594 3097 1305 2825 
Q 1016 2553 972 2059 
L 3022 2063 
z
" id="DejaVuSans-65" transform="scale(0.015625)"/>
      <path d="M 2834 3397 
L 2834 2853 
Q 2591 2978 2328 3040 
Q 2066 3103 1784 3103 
Q 1356 3103 1142 2972 
Q 928 2841 928 2578 
Q 928 2378 1081 2264 
Q 1234 2150 1697 2047 
L 1894 2003 
Q 2506 1872 2764 1633 
Q 3022 1394 3022 966 
Q 3022 478 2636 193 
Q 2250 -91 1575 -91 
Q 1294 -91 989 -36 
Q 684 19 347 128 
L 347 722 
Q 666 556 975 473 
Q 1284 391 1588 391 
Q 1994 391 2212 530 
Q 2431 669 2431 922 
Q 2431 1156 2273 1281 
Q 2116 1406 1581 1522 
L 1381 1569 
Q 847 1681 609 1914 
Q 372 2147 372 2553 
Q 372 3047 722 3315 
Q 1072 3584 1716 3584 
Q 2034 3584 2315 3537 
Q 2597 3491 2834 3397 
z
" id="DejaVuSans-73" transform="scale(0.015625)"/>
      <path d="M 603 3500 
L 1178 3500 
L 1178 0 
L 603 0 
L 603 3500 
z
M 603 4863 
L 1178 4863 
L 1178 4134 
L 603 4134 
L 603 4863 
z
" id="DejaVuSans-69" transform="scale(0.015625)"/>
      <path d="M 1172 4494 
L 1172 3500 
L 2356 3500 
L 2356 3053 
L 1172 3053 
L 1172 1153 
Q 1172 725 1289 603 
Q 1406 481 1766 481 
L 2356 481 
L 2356 0 
L 1766 0 
Q 1100 0 847 248 
Q 594 497 594 1153 
L 594 3053 
L 172 3053 
L 172 3500 
L 594 3500 
L 594 4494 
L 1172 4494 
z
" id="DejaVuSans-74" transform="scale(0.015625)"/>
      <path d="M 191 3500 
L 800 3500 
L 1894 563 
L 2988 3500 
L 3597 3500 
L 2284 0 
L 1503 0 
L 191 3500 
z
" id="DejaVuSans-76" transform="scale(0.015625)"/>
      <path d="M 2059 -325 
Q 1816 -950 1584 -1140 
Q 1353 -1331 966 -1331 
L 506 -1331 
L 506 -850 
L 844 -850 
Q 1081 -850 1212 -737 
Q 1344 -625 1503 -206 
L 1606 56 
L 191 3500 
L 800 3500 
L 1894 763 
L 2988 3500 
L 3597 3500 
L 2059 -325 
z
" id="DejaVuSans-79" transform="scale(0.015625)"/>
      <path d="M 269 3500 
L 844 3500 
L 1563 769 
L 2278 3500 
L 2956 3500 
L 3675 769 
L 4391 3500 
L 4966 3500 
L 4050 0 
L 3372 0 
L 2619 2869 
L 1863 0 
L 1184 0 
L 269 3500 
z
" id="DejaVuSans-77" transform="scale(0.015625)"/>
      <path d="M 3513 2113 
L 3513 0 
L 2938 0 
L 2938 2094 
Q 2938 2591 2744 2837 
Q 2550 3084 2163 3084 
Q 1697 3084 1428 2787 
Q 1159 2491 1159 1978 
L 1159 0 
L 581 0 
L 581 4863 
L 1159 4863 
L 1159 2956 
Q 1366 3272 1645 3428 
Q 1925 3584 2291 3584 
Q 2894 3584 3203 3211 
Q 3513 2838 3513 2113 
z
" id="DejaVuSans-68" transform="scale(0.015625)"/>
      <path d="M 3122 3366 
L 3122 2828 
Q 2878 2963 2633 3030 
Q 2388 3097 2138 3097 
Q 1578 3097 1268 2742 
Q 959 2388 959 1747 
Q 959 1106 1268 751 
Q 1578 397 2138 397 
Q 2388 397 2633 464 
Q 2878 531 3122 666 
L 3122 134 
Q 2881 22 2623 -34 
Q 2366 -91 2075 -91 
Q 1284 -91 818 406 
Q 353 903 353 1747 
Q 353 2603 823 3093 
Q 1294 3584 2113 3584 
Q 2378 3584 2631 3529 
Q 2884 3475 3122 3366 
z
" id="DejaVuSans-63" transform="scale(0.015625)"/>
      <path d="M 2194 1759 
Q 1497 1759 1228 1600 
Q 959 1441 959 1056 
Q 959 750 1161 570 
Q 1363 391 1709 391 
Q 2188 391 2477 730 
Q 2766 1069 2766 1631 
L 2766 1759 
L 2194 1759 
z
M 3341 1997 
L 3341 0 
L 2766 0 
L 2766 531 
Q 2569 213 2275 61 
Q 1981 -91 1556 -91 
Q 1019 -91 701 211 
Q 384 513 384 1019 
Q 384 1609 779 1909 
Q 1175 2209 1959 2209 
L 2766 2209 
L 2766 2266 
Q 2766 2663 2505 2880 
Q 2244 3097 1772 3097 
Q 1472 3097 1187 3025 
Q 903 2953 641 2809 
L 641 3341 
Q 956 3463 1253 3523 
Q 1550 3584 1831 3584 
Q 2591 3584 2966 3190 
Q 3341 2797 3341 1997 
z
" id="DejaVuSans-61" transform="scale(0.015625)"/>
      <path d="M 2631 2963 
Q 2534 3019 2420 3045 
Q 2306 3072 2169 3072 
Q 1681 3072 1420 2755 
Q 1159 2438 1159 1844 
L 1159 0 
L 581 0 
L 581 3500 
L 1159 3500 
L 1159 2956 
Q 1341 3275 1631 3429 
Q 1922 3584 2338 3584 
Q 2397 3584 2469 3576 
Q 2541 3569 2628 3553 
L 2631 2963 
z
" id="DejaVuSans-72" transform="scale(0.015625)"/>
      <path d="M 2906 2969 
L 2906 4863 
L 3481 4863 
L 3481 0 
L 2906 0 
L 2906 525 
Q 2725 213 2448 61 
Q 2172 -91 1784 -91 
Q 1150 -91 751 415 
Q 353 922 353 1747 
Q 353 2572 751 3078 
Q 1150 3584 1784 3584 
Q 2172 3584 2448 3432 
Q 2725 3281 2906 2969 
z
M 947 1747 
Q 947 1113 1208 752 
Q 1469 391 1925 391 
Q 2381 391 2643 752 
Q 2906 1113 2906 1747 
Q 2906 2381 2643 2742 
Q 2381 3103 1925 3103 
Q 1469 3103 1208 2742 
Q 947 2381 947 1747 
z
" id="DejaVuSans-64" transform="scale(0.015625)"/>
      <path d="M 2375 4863 
L 2375 4384 
L 1825 4384 
Q 1516 4384 1395 4259 
Q 1275 4134 1275 3809 
L 1275 3500 
L 2222 3500 
L 2222 3053 
L 1275 3053 
L 1275 0 
L 697 0 
L 697 3053 
L 147 3053 
L 147 3500 
L 697 3500 
L 697 3744 
Q 697 4328 969 4595 
Q 1241 4863 1831 4863 
L 2375 4863 
z
" id="DejaVuSans-66" transform="scale(0.015625)"/>
      <path d="M 603 4863 
L 1178 4863 
L 1178 0 
L 603 0 
L 603 4863 
z
" id="DejaVuSans-6c" transform="scale(0.015625)"/>
      <path d="M 3328 2828 
Q 3544 3216 3844 3400 
Q 4144 3584 4550 3584 
Q 5097 3584 5394 3201 
Q 5691 2819 5691 2113 
L 5691 0 
L 5113 0 
L 5113 2094 
Q 5113 2597 4934 2840 
Q 4756 3084 4391 3084 
Q 3944 3084 3684 2787 
Q 3425 2491 3425 1978 
L 3425 0 
L 2847 0 
L 2847 2094 
Q 2847 2600 2669 2842 
Q 2491 3084 2119 3084 
Q 1678 3084 1418 2786 
Q 1159 2488 1159 1978 
L 1159 0 
L 581 0 
L 581 3500 
L 1159 3500 
L 1159 2956 
Q 1356 3278 1631 3431 
Q 1906 3584 2284 3584 
Q 2666 3584 2933 3390 
Q 3200 3197 3328 2828 
z
" id="DejaVuSans-6d" transform="scale(0.015625)"/>
      <path d="M 1556 2509 
Q 1272 2256 1139 2004 
Q 1006 1753 1006 1478 
Q 1006 1022 1337 719 
Q 1669 416 2169 416 
Q 2466 416 2725 514 
Q 2984 613 3213 813 
L 1556 2509 
z
M 1997 2859 
L 3584 1234 
Q 3769 1513 3872 1830 
Q 3975 2147 3994 2503 
L 4575 2503 
Q 4538 2091 4375 1687 
Q 4213 1284 3922 891 
L 4794 0 
L 4006 0 
L 3559 459 
Q 3234 181 2878 45 
Q 2522 -91 2113 -91 
Q 1359 -91 881 339 
Q 403 769 403 1441 
Q 403 1841 612 2192 
Q 822 2544 1241 2853 
Q 1091 3050 1012 3245 
Q 934 3441 934 3628 
Q 934 4134 1281 4442 
Q 1628 4750 2203 4750 
Q 2463 4750 2720 4694 
Q 2978 4638 3244 4525 
L 3244 3956 
Q 2972 4103 2725 4179 
Q 2478 4256 2266 4256 
Q 1938 4256 1733 4082 
Q 1528 3909 1528 3634 
Q 1528 3475 1620 3314 
Q 1713 3153 1997 2859 
z
" id="DejaVuSans-26" transform="scale(0.015625)"/>
      <path d="M 1159 525 
L 1159 -1331 
L 581 -1331 
L 581 3500 
L 1159 3500 
L 1159 2969 
Q 1341 3281 1617 3432 
Q 1894 3584 2278 3584 
Q 2916 3584 3314 3078 
Q 3713 2572 3713 1747 
Q 3713 922 3314 415 
Q 2916 -91 2278 -91 
Q 1894 -91 1617 61 
Q 1341 213 1159 525 
z
M 3116 1747 
Q 3116 2381 2855 2742 
Q 2594 3103 2138 3103 
Q 1681 3103 1420 2742 
Q 1159 2381 1159 1747 
Q 1159 1113 1420 752 
Q 1681 391 2138 391 
Q 2594 391 2855 752 
Q 3116 1113 3116 1747 
z
" id="DejaVuSans-70" transform="scale(0.015625)"/>
     </defs>
     <use xlink:href="#DejaVuSans-4c"/>
     <use x="53.962891" xlink:href="#DejaVuSans-6f"/>
     <use x="115.144531" xlink:href="#DejaVuSans-6e"/>
     <use x="178.523438" xlink:href="#DejaVuSans-67"/>
     <use x="242" xlink:href="#DejaVuSans-2e"/>
     <use x="273.787109" xlink:href="#DejaVuSans-20"/>
     <use x="305.574219" xlink:href="#DejaVuSans-52"/>
     <use x="370.556641" xlink:href="#DejaVuSans-65"/>
     <use x="432.080078" xlink:href="#DejaVuSans-73"/>
     <use x="484.179688" xlink:href="#DejaVuSans-69"/>
     <use x="511.962891" xlink:href="#DejaVuSans-73"/>
     <use x="564.0625" xlink:href="#DejaVuSans-74"/>
     <use x="603.271484" xlink:href="#DejaVuSans-69"/>
     <use x="631.054688" xlink:href="#DejaVuSans-76"/>
     <use x="690.234375" xlink:href="#DejaVuSans-69"/>
     <use x="718.017578" xlink:href="#DejaVuSans-74"/>
     <use x="757.226562" xlink:href="#DejaVuSans-79"/>
     <use x="816.40625" xlink:href="#DejaVuSans-20"/>
     <use x="848.193359" xlink:href="#DejaVuSans-77"/>
     <use x="929.980469" xlink:href="#DejaVuSans-69"/>
     <use x="957.763672" xlink:href="#DejaVuSans-74"/>
     <use x="996.972656" xlink:href="#DejaVuSans-68"/>
     <use x="1060.351562" xlink:href="#DejaVuSans-20"/>
     <use x="1092.138672" xlink:href="#DejaVuSans-73"/>
     <use x="1144.238281" xlink:href="#DejaVuSans-63"/>
     <use x="1199.21875" xlink:href="#DejaVuSans-61"/>
     <use x="1260.498047" xlink:href="#DejaVuSans-74"/>
     <use x="1299.707031" xlink:href="#DejaVuSans-74"/>
     <use x="1338.916016" xlink:href="#DejaVuSans-65"/>
     <use x="1400.439453" xlink:href="#DejaVuSans-72"/>
     <use x="1439.302734" xlink:href="#DejaVuSans-65"/>
     <use x="1500.826172" xlink:href="#DejaVuSans-64"/>
     <use x="1564.302734" xlink:href="#DejaVuSans-20"/>
     <use x="1596.089844" xlink:href="#DejaVuSans-66"/>
     <use x="1631.294922" xlink:href="#DejaVuSans-69"/>
     <use x="1659.078125" xlink:href="#DejaVuSans-6c"/>
     <use x="1686.861328" xlink:href="#DejaVuSans-6c"/>
     <use x="1714.644531" xlink:href="#DejaVuSans-69"/>
     <use x="1742.427734" xlink:href="#DejaVuSans-6e"/>
     <use x="1805.806641" xlink:href="#DejaVuSans-67"/>
     <use x="1869.283203" xlink:href="#DejaVuSans-20"/>
     <use x="1901.070312" xlink:href="#DejaVuSans-66"/>
     <use x="1936.275391" xlink:href="#DejaVuSans-61"/>
     <use x="1997.554688" xlink:href="#DejaVuSans-63"/>
     <use x="2052.535156" xlink:href="#DejaVuSans-74"/>
     <use x="2091.744141" xlink:href="#DejaVuSans-6f"/>
     <use x="2152.925781" xlink:href="#DejaVuSans-72"/>
     <use x="2194.039062" xlink:href="#DejaVuSans-20"/>
     <use x="2225.826172" xlink:href="#DejaVuSans-6d"/>
     <use x="2323.238281" xlink:href="#DejaVuSans-69"/>
     <use x="2351.021484" xlink:href="#DejaVuSans-6e"/>
     <use x="2414.400391" xlink:href="#DejaVuSans-69"/>
     <use x="2442.183594" xlink:href="#DejaVuSans-6d"/>
     <use x="2539.595703" xlink:href="#DejaVuSans-61"/>
     <use x="2600.875" xlink:href="#DejaVuSans-20"/>
     <use x="2632.662109" xlink:href="#DejaVuSans-73"/>
     <use x="2684.761719" xlink:href="#DejaVuSans-74"/>
     <use x="2723.970703" xlink:href="#DejaVuSans-61"/>
     <use x="2785.25" xlink:href="#DejaVuSans-72"/>
     <use x="2826.363281" xlink:href="#DejaVuSans-74"/>
     <use x="2865.572266" xlink:href="#DejaVuSans-20"/>
     <use x="2897.359375" xlink:href="#DejaVuSans-26"/>
     <use x="2975.337891" xlink:href="#DejaVuSans-20"/>
     <use x="3007.125" xlink:href="#DejaVuSans-65"/>
     <use x="3068.648438" xlink:href="#DejaVuSans-6e"/>
     <use x="3132.027344" xlink:href="#DejaVuSans-64"/>
     <use x="3195.503906" xlink:href="#DejaVuSans-70"/>
     <use x="3258.980469" xlink:href="#DejaVuSans-6f"/>
     <use x="3320.162109" xlink:href="#DejaVuSans-69"/>
     <use x="3347.945312" xlink:href="#DejaVuSans-6e"/>
     <use x="3411.324219" xlink:href="#DejaVuSans-74"/>
     <use x="3450.533203" xlink:href="#DejaVuSans-73"/>
    </g>
   </g>
   <g id="legend_1">
    <g id="patch_7">
     <path d="M 71.17 154.206075 
L 126.77 154.206075 
Q 128.77 154.206075 128.77 152.206075 
L 128.77 50.4592 
Q 128.77 48.4592 126.77 48.4592 
L 71.17 48.4592 
Q 69.17 48.4592 69.17 50.4592 
L 69.17 152.206075 
Q 69.17 154.206075 71.17 154.206075 
z
" style="fill:#ffffff;opacity:0.8;stroke:#cccccc;stroke-linejoin:miter;"/>
    </g>
    <g id="PathCollection_8">
     <g>
      <use style="fill:#0000ff;stroke:#0000ff;" x="83.17" xlink:href="#m46868a6e7a" y="57.432637"/>
     </g>
    </g>
    <g id="text_20">
     <!-- $\nu$= 1 -->
     <g transform="translate(101.17 60.057637)scale(0.1 -0.1)">
      <defs>
       <path d="M 959 0 
L 572 3500 
L 1191 3500 
L 1522 563 
Q 1972 950 2391 1488 
Q 2706 1891 2788 2241 
Q 2825 2406 2809 2719 
Q 2794 3091 2544 3500 
L 3125 3500 
L 3125 3500 
Q 3288 3222 3353 2834 
Q 3416 2478 3369 2234 
Q 3250 1622 2719 1075 
Q 2025 363 1572 0 
L 959 0 
z
" id="DejaVuSans-Oblique-3bd" transform="scale(0.015625)"/>
       <path d="M 678 2906 
L 4684 2906 
L 4684 2381 
L 678 2381 
L 678 2906 
z
M 678 1631 
L 4684 1631 
L 4684 1100 
L 678 1100 
L 678 1631 
z
" id="DejaVuSans-3d" transform="scale(0.015625)"/>
      </defs>
      <use transform="translate(0 0.09375)" xlink:href="#DejaVuSans-Oblique-3bd"/>
      <use transform="translate(55.859375 0.09375)" xlink:href="#DejaVuSans-3d"/>
      <use transform="translate(139.648438 0.09375)" xlink:href="#DejaVuSans-20"/>
      <use transform="translate(171.435547 0.09375)" xlink:href="#DejaVuSans-31"/>
     </g>
    </g>
    <g id="PathCollection_9">
     <g>
      <use style="fill:#ff0000;stroke:#ff0000;" x="83.17" xlink:href="#m0a089047ae" y="72.110763"/>
     </g>
    </g>
    <g id="text_21">
     <!-- $\nu$= 2 -->
     <g transform="translate(101.17 74.735763)scale(0.1 -0.1)">
      <use transform="translate(0 0.78125)" xlink:href="#DejaVuSans-Oblique-3bd"/>
      <use transform="translate(55.859375 0.78125)" xlink:href="#DejaVuSans-3d"/>
      <use transform="translate(139.648438 0.78125)" xlink:href="#DejaVuSans-20"/>
      <use transform="translate(171.435547 0.78125)" xlink:href="#DejaVuSans-32"/>
     </g>
    </g>
    <g id="PathCollection_10">
     <g>
      <use style="fill:#ffa500;stroke:#ffa500;" x="83.17" xlink:href="#m5ceb10f000" y="86.788887"/>
     </g>
    </g>
    <g id="text_22">
     <!-- $\nu$= 3 -->
     <g transform="translate(101.17 89.413887)scale(0.1 -0.1)">
      <defs>
       <path d="M 2597 2516 
Q 3050 2419 3304 2112 
Q 3559 1806 3559 1356 
Q 3559 666 3084 287 
Q 2609 -91 1734 -91 
Q 1441 -91 1130 -33 
Q 819 25 488 141 
L 488 750 
Q 750 597 1062 519 
Q 1375 441 1716 441 
Q 2309 441 2620 675 
Q 2931 909 2931 1356 
Q 2931 1769 2642 2001 
Q 2353 2234 1838 2234 
L 1294 2234 
L 1294 2753 
L 1863 2753 
Q 2328 2753 2575 2939 
Q 2822 3125 2822 3475 
Q 2822 3834 2567 4026 
Q 2313 4219 1838 4219 
Q 1578 4219 1281 4162 
Q 984 4106 628 3988 
L 628 4550 
Q 988 4650 1302 4700 
Q 1616 4750 1894 4750 
Q 2613 4750 3031 4423 
Q 3450 4097 3450 3541 
Q 3450 3153 3228 2886 
Q 3006 2619 2597 2516 
z
" id="DejaVuSans-33" transform="scale(0.015625)"/>
      </defs>
      <use transform="translate(0 0.78125)" xlink:href="#DejaVuSans-Oblique-3bd"/>
      <use transform="translate(55.859375 0.78125)" xlink:href="#DejaVuSans-3d"/>
      <use transform="translate(139.648438 0.78125)" xlink:href="#DejaVuSans-20"/>
      <use transform="translate(171.435547 0.78125)" xlink:href="#DejaVuSans-33"/>
     </g>
    </g>
    <g id="PathCollection_11">
     <g>
      <use style="fill:#800080;stroke:#800080;" x="83.17" xlink:href="#m683f2ea741" y="101.467013"/>
     </g>
    </g>
    <g id="text_23">
     <!-- $\nu$= 4 -->
     <g transform="translate(101.17 104.092013)scale(0.1 -0.1)">
      <use transform="translate(0 0.09375)" xlink:href="#DejaVuSans-Oblique-3bd"/>
      <use transform="translate(55.859375 0.09375)" xlink:href="#DejaVuSans-3d"/>
      <use transform="translate(139.648438 0.09375)" xlink:href="#DejaVuSans-20"/>
      <use transform="translate(171.435547 0.09375)" xlink:href="#DejaVuSans-34"/>
     </g>
    </g>
    <g id="PathCollection_12">
     <g>
      <use style="fill:#ffff00;stroke:#ffff00;" x="83.17" xlink:href="#m5e22254562" y="116.145138"/>
     </g>
    </g>
    <g id="text_24">
     <!-- $\nu$= 5 -->
     <g transform="translate(101.17 118.770138)scale(0.1 -0.1)">
      <use transform="translate(0 0.09375)" xlink:href="#DejaVuSans-Oblique-3bd"/>
      <use transform="translate(55.859375 0.09375)" xlink:href="#DejaVuSans-3d"/>
      <use transform="translate(139.648438 0.09375)" xlink:href="#DejaVuSans-20"/>
      <use transform="translate(171.435547 0.09375)" xlink:href="#DejaVuSans-35"/>
     </g>
    </g>
    <g id="PathCollection_13">
     <g>
      <use style="fill:#ffc0cb;stroke:#ffc0cb;" x="83.17" xlink:href="#m8e2b9aaed7" y="130.823262"/>
     </g>
    </g>
    <g id="text_25">
     <!-- $\nu$= 6 -->
     <g transform="translate(101.17 133.448262)scale(0.1 -0.1)">
      <use transform="translate(0 0.78125)" xlink:href="#DejaVuSans-Oblique-3bd"/>
      <use transform="translate(55.859375 0.78125)" xlink:href="#DejaVuSans-3d"/>
      <use transform="translate(139.648438 0.78125)" xlink:href="#DejaVuSans-20"/>
      <use transform="translate(171.435547 0.78125)" xlink:href="#DejaVuSans-36"/>
     </g>
    </g>
    <g id="PathCollection_14">
     <g>
      <use style="fill:#00ffff;stroke:#00ffff;" x="83.17" xlink:href="#mec16180156" y="145.501387"/>
     </g>
    </g>
    <g id="text_26">
     <!-- $\nu$= 7 -->
     <g transform="translate(101.17 148.126387)scale(0.1 -0.1)">
      <use transform="translate(0 0.09375)" xlink:href="#DejaVuSans-Oblique-3bd"/>
      <use transform="translate(55.859375 0.09375)" xlink:href="#DejaVuSans-3d"/>
      <use transform="translate(139.648438 0.09375)" xlink:href="#DejaVuSans-20"/>
      <use transform="translate(171.435547 0.09375)" xlink:href="#DejaVuSans-37"/>
     </g>
    </g>
   </g>
  </g>
 </g>
 <defs>
  <clipPath id="p3e10920fbe">
   <rect height="278.8632" width="397.854" x="64.17" y="43.4592"/>
  </clipPath>
 </defs>
</svg>
