<?xml version="1.0" encoding="utf-8" standalone="no"?>
<!DOCTYPE svg PUBLIC "-//W3C//DTD SVG 1.1//EN"
  "http://www.w3.org/Graphics/SVG/1.1/DTD/svg11.dtd">
<svg height="345.6pt" version="1.1" viewBox="0 0 460.8 345.6" width="460.8pt" xmlns="http://www.w3.org/2000/svg" xmlns:xlink="http://www.w3.org/1999/xlink">
 <metadata>
  <rdf:RDF xmlns:cc="http://creativecommons.org/ns#" xmlns:dc="http://purl.org/dc/elements/1.1/" xmlns:rdf="http://www.w3.org/1999/02/22-rdf-syntax-ns#">
   <cc:Work>
    <dc:type rdf:resource="http://purl.org/dc/dcmitype/StillImage"/>
    <dc:date>2023-10-27T10:23:22.901667</dc:date>
    <dc:format>image/svg+xml</dc:format>
    <dc:creator>
     <cc:Agent>
      <dc:title>Matplotlib v3.4.3, https://matplotlib.org/</dc:title>
     </cc:Agent>
    </dc:creator>
   </cc:Work>
  </rdf:RDF>
 </metadata>
 <defs>
  <style type="text/css">*{stroke-linecap:butt;stroke-linejoin:round;}</style>
 </defs>
 <g id="figure_1">
  <g id="patch_1">
   <path d="M 0 345.6 
L 460.8 345.6 
L 460.8 0 
L 0 0 
z
" style="fill:#ffffff;"/>
  </g>
  <g id="axes_1">
   <g id="patch_2">
    <path d="M 57.6 307.584 
L 414.72 307.584 
L 414.72 41.472 
L 57.6 41.472 
z
" style="fill:#ffffff;"/>
   </g>
   <g id="PathCollection_1">
    <defs>
     <path d="M 0 3 
C 0.795609 3 1.55874 2.683901 2.12132 2.12132 
C 2.683901 1.55874 3 0.795609 3 0 
C 3 -0.795609 2.683901 -1.55874 2.12132 -2.12132 
C 1.55874 -2.683901 0.795609 -3 0 -3 
C -0.795609 -3 -1.55874 -2.683901 -2.12132 -2.12132 
C -2.683901 -1.55874 -3 -0.795609 -3 0 
C -3 0.795609 -2.683901 1.55874 -2.12132 2.12132 
C -1.55874 2.683901 -0.795609 3 0 3 
z
" id="mf6cc53d689" style="stroke:#0000ff;"/>
    </defs>
    <g clip-path="url(#p133ceb951c)">
     <use style="fill:#0000ff;stroke:#0000ff;" x="720.9504" xlink:href="#mf6cc53d689" y="310.541763"/>
     <use style="fill:#0000ff;stroke:#0000ff;" x="914.688" xlink:href="#mf6cc53d689" y="311.314258"/>
    </g>
   </g>
   <g id="PathCollection_2">
    <defs>
     <path d="M 0 3 
C 0.795609 3 1.55874 2.683901 2.12132 2.12132 
C 2.683901 1.55874 3 0.795609 3 0 
C 3 -0.795609 2.683901 -1.55874 2.12132 -2.12132 
C 1.55874 -2.683901 0.795609 -3 0 -3 
C -0.795609 -3 -1.55874 -2.683901 -2.12132 -2.12132 
C -2.683901 -1.55874 -3 -0.795609 -3 0 
C -3 0.795609 -2.683901 1.55874 -2.12132 2.12132 
C -1.55874 2.683901 -0.795609 3 0 3 
z
" id="m0d4b844348" style="stroke:#ff0000;"/>
    </defs>
    <g clip-path="url(#p133ceb951c)">
     <use style="fill:#ff0000;stroke:#ff0000;" x="405.792" xlink:href="#m0d4b844348" y="308.293903"/>
     <use style="fill:#ff0000;stroke:#ff0000;" x="458.0208" xlink:href="#m0d4b844348" y="307.95831"/>
    </g>
   </g>
   <g id="PathCollection_3">
    <defs>
     <path d="M 0 3 
C 0.795609 3 1.55874 2.683901 2.12132 2.12132 
C 2.683901 1.55874 3 0.795609 3 0 
C 3 -0.795609 2.683901 -1.55874 2.12132 -2.12132 
C 1.55874 -2.683901 0.795609 -3 0 -3 
C -0.795609 -3 -1.55874 -2.683901 -2.12132 -2.12132 
C -2.683901 -1.55874 -3 -0.795609 -3 0 
C -3 0.795609 -2.683901 1.55874 -2.12132 2.12132 
C -1.55874 2.683901 -0.795609 3 0 3 
z
" id="m07a401f834" style="stroke:#ffa500;"/>
    </defs>
    <g clip-path="url(#p133ceb951c)">
     <use style="fill:#ffa500;stroke:#ffa500;" x="296.424" xlink:href="#m07a401f834" y="307.622716"/>
     <use style="fill:#ffa500;stroke:#ffa500;" x="326.3328" xlink:href="#m07a401f834" y="307.04334"/>
    </g>
   </g>
   <g id="PathCollection_4">
    <defs>
     <path d="M 0 3 
C 0.795609 3 1.55874 2.683901 2.12132 2.12132 
C 2.683901 1.55874 3 0.795609 3 0 
C 3 -0.795609 2.683901 -1.55874 2.12132 -2.12132 
C 1.55874 -2.683901 0.795609 -3 0 -3 
C -0.795609 -3 -1.55874 -2.683901 -2.12132 -2.12132 
C -2.683901 -1.55874 -3 -0.795609 -3 0 
C -3 0.795609 -2.683901 1.55874 -2.12132 2.12132 
C -1.55874 2.683901 -0.795609 3 0 3 
z
" id="m19bb8680b7" style="stroke:#800080;"/>
    </defs>
    <g clip-path="url(#p133ceb951c)">
     <use style="fill:#800080;stroke:#800080;" x="231.696" xlink:href="#m19bb8680b7" y="307.635379"/>
     <use style="fill:#800080;stroke:#800080;" x="258.48" xlink:href="#m19bb8680b7" y="307.021178"/>
    </g>
   </g>
   <g id="PathCollection_5">
    <defs>
     <path d="M 0 3 
C 0.795609 3 1.55874 2.683901 2.12132 2.12132 
C 2.683901 1.55874 3 0.795609 3 0 
C 3 -0.795609 2.683901 -1.55874 2.12132 -2.12132 
C 1.55874 -2.683901 0.795609 -3 0 -3 
C -0.795609 -3 -1.55874 -2.683901 -2.12132 -2.12132 
C -2.683901 -1.55874 -3 -0.795609 -3 0 
C -3 0.795609 -2.683901 1.55874 -2.12132 2.12132 
C -1.55874 2.683901 -0.795609 3 0 3 
z
" id="m14baf6497b" style="stroke:#ffff00;"/>
    </defs>
    <g clip-path="url(#p133ceb951c)">
     <use style="fill:#ffff00;stroke:#ffff00;" x="202.68" xlink:href="#m14baf6497b" y="307.372603"/>
     <use style="fill:#ffff00;stroke:#ffff00;" x="213.3936" xlink:href="#m14baf6497b" y="307.345692"/>
    </g>
   </g>
   <g id="PathCollection_6">
    <defs>
     <path d="M 0 3 
C 0.795609 3 1.55874 2.683901 2.12132 2.12132 
C 2.683901 1.55874 3 0.795609 3 0 
C 3 -0.795609 2.683901 -1.55874 2.12132 -2.12132 
C 1.55874 -2.683901 0.795609 -3 0 -3 
C -0.795609 -3 -1.55874 -2.683901 -2.12132 -2.12132 
C -2.683901 -1.55874 -3 -0.795609 -3 0 
C -3 0.795609 -2.683901 1.55874 -2.12132 2.12132 
C -1.55874 2.683901 -0.795609 3 0 3 
z
" id="m4218774c01" style="stroke:#ffc0cb;"/>
    </defs>
    <g clip-path="url(#p133ceb951c)">
     <use style="fill:#ffc0cb;stroke:#ffc0cb;" x="175.896" xlink:href="#m4218774c01" y="307.013263"/>
     <use style="fill:#ffc0cb;stroke:#ffc0cb;" x="184.3776" xlink:href="#m4218774c01" y="307.366271"/>
    </g>
   </g>
   <g id="PathCollection_7">
    <defs>
     <path d="M 0 3 
C 0.795609 3 1.55874 2.683901 2.12132 2.12132 
C 2.683901 1.55874 3 0.795609 3 0 
C 3 -0.795609 2.683901 -1.55874 2.12132 -2.12132 
C 1.55874 -2.683901 0.795609 -3 0 -3 
C -0.795609 -3 -1.55874 -2.683901 -2.12132 -2.12132 
C -2.683901 -1.55874 -3 -0.795609 -3 0 
C -3 0.795609 -2.683901 1.55874 -2.12132 2.12132 
C -1.55874 2.683901 -0.795609 3 0 3 
z
" id="maa02bf44c6" style="stroke:#00ffff;"/>
    </defs>
    <g clip-path="url(#p133ceb951c)">
     <use style="fill:#00ffff;stroke:#00ffff;" x="163.3968" xlink:href="#maa02bf44c6" y="307.274458"/>
     <use style="fill:#00ffff;stroke:#00ffff;" x="164.736" xlink:href="#maa02bf44c6" y="307.293454"/>
    </g>
   </g>
   <g id="matplotlib.axis_1">
    <g id="xtick_1">
     <g id="line2d_1">
      <path clip-path="url(#p133ceb951c)" d="M 57.6 307.584 
L 57.6 41.472 
" style="fill:none;stroke:#b0b0b0;stroke-linecap:square;stroke-width:0.8;"/>
     </g>
     <g id="line2d_2">
      <defs>
       <path d="M 0 0 
L 0 3.5 
" id="mab5777a65a" style="stroke:#000000;stroke-width:0.8;"/>
      </defs>
      <g>
       <use style="stroke:#000000;stroke-width:0.8;" x="57.6" xlink:href="#mab5777a65a" y="307.584"/>
      </g>
     </g>
     <g id="text_1">
      <!-- 0.0 -->
      <g transform="translate(49.648438 322.182437)scale(0.1 -0.1)">
       <defs>
        <path d="M 2034 4250 
Q 1547 4250 1301 3770 
Q 1056 3291 1056 2328 
Q 1056 1369 1301 889 
Q 1547 409 2034 409 
Q 2525 409 2770 889 
Q 3016 1369 3016 2328 
Q 3016 3291 2770 3770 
Q 2525 4250 2034 4250 
z
M 2034 4750 
Q 2819 4750 3233 4129 
Q 3647 3509 3647 2328 
Q 3647 1150 3233 529 
Q 2819 -91 2034 -91 
Q 1250 -91 836 529 
Q 422 1150 422 2328 
Q 422 3509 836 4129 
Q 1250 4750 2034 4750 
z
" id="DejaVuSans-30" transform="scale(0.015625)"/>
        <path d="M 684 794 
L 1344 794 
L 1344 0 
L 684 0 
L 684 794 
z
" id="DejaVuSans-2e" transform="scale(0.015625)"/>
       </defs>
       <use xlink:href="#DejaVuSans-30"/>
       <use x="63.623047" xlink:href="#DejaVuSans-2e"/>
       <use x="95.410156" xlink:href="#DejaVuSans-30"/>
      </g>
     </g>
    </g>
    <g id="xtick_2">
     <g id="line2d_3">
      <path clip-path="url(#p133ceb951c)" d="M 102.24 307.584 
L 102.24 41.472 
" style="fill:none;stroke:#b0b0b0;stroke-linecap:square;stroke-width:0.8;"/>
     </g>
     <g id="line2d_4">
      <g>
       <use style="stroke:#000000;stroke-width:0.8;" x="102.24" xlink:href="#mab5777a65a" y="307.584"/>
      </g>
     </g>
     <g id="text_2">
      <!-- 0.5 -->
      <g transform="translate(94.288438 322.182437)scale(0.1 -0.1)">
       <defs>
        <path d="M 691 4666 
L 3169 4666 
L 3169 4134 
L 1269 4134 
L 1269 2991 
Q 1406 3038 1543 3061 
Q 1681 3084 1819 3084 
Q 2600 3084 3056 2656 
Q 3513 2228 3513 1497 
Q 3513 744 3044 326 
Q 2575 -91 1722 -91 
Q 1428 -91 1123 -41 
Q 819 9 494 109 
L 494 744 
Q 775 591 1075 516 
Q 1375 441 1709 441 
Q 2250 441 2565 725 
Q 2881 1009 2881 1497 
Q 2881 1984 2565 2268 
Q 2250 2553 1709 2553 
Q 1456 2553 1204 2497 
Q 953 2441 691 2322 
L 691 4666 
z
" id="DejaVuSans-35" transform="scale(0.015625)"/>
       </defs>
       <use xlink:href="#DejaVuSans-30"/>
       <use x="63.623047" xlink:href="#DejaVuSans-2e"/>
       <use x="95.410156" xlink:href="#DejaVuSans-35"/>
      </g>
     </g>
    </g>
    <g id="xtick_3">
     <g id="line2d_5">
      <path clip-path="url(#p133ceb951c)" d="M 146.88 307.584 
L 146.88 41.472 
" style="fill:none;stroke:#b0b0b0;stroke-linecap:square;stroke-width:0.8;"/>
     </g>
     <g id="line2d_6">
      <g>
       <use style="stroke:#000000;stroke-width:0.8;" x="146.88" xlink:href="#mab5777a65a" y="307.584"/>
      </g>
     </g>
     <g id="text_3">
      <!-- 1.0 -->
      <g transform="translate(138.928438 322.182437)scale(0.1 -0.1)">
       <defs>
        <path d="M 794 531 
L 1825 531 
L 1825 4091 
L 703 3866 
L 703 4441 
L 1819 4666 
L 2450 4666 
L 2450 531 
L 3481 531 
L 3481 0 
L 794 0 
L 794 531 
z
" id="DejaVuSans-31" transform="scale(0.015625)"/>
       </defs>
       <use xlink:href="#DejaVuSans-31"/>
       <use x="63.623047" xlink:href="#DejaVuSans-2e"/>
       <use x="95.410156" xlink:href="#DejaVuSans-30"/>
      </g>
     </g>
    </g>
    <g id="xtick_4">
     <g id="line2d_7">
      <path clip-path="url(#p133ceb951c)" d="M 191.52 307.584 
L 191.52 41.472 
" style="fill:none;stroke:#b0b0b0;stroke-linecap:square;stroke-width:0.8;"/>
     </g>
     <g id="line2d_8">
      <g>
       <use style="stroke:#000000;stroke-width:0.8;" x="191.52" xlink:href="#mab5777a65a" y="307.584"/>
      </g>
     </g>
     <g id="text_4">
      <!-- 1.5 -->
      <g transform="translate(183.568438 322.182437)scale(0.1 -0.1)">
       <use xlink:href="#DejaVuSans-31"/>
       <use x="63.623047" xlink:href="#DejaVuSans-2e"/>
       <use x="95.410156" xlink:href="#DejaVuSans-35"/>
      </g>
     </g>
    </g>
    <g id="xtick_5">
     <g id="line2d_9">
      <path clip-path="url(#p133ceb951c)" d="M 236.16 307.584 
L 236.16 41.472 
" style="fill:none;stroke:#b0b0b0;stroke-linecap:square;stroke-width:0.8;"/>
     </g>
     <g id="line2d_10">
      <g>
       <use style="stroke:#000000;stroke-width:0.8;" x="236.16" xlink:href="#mab5777a65a" y="307.584"/>
      </g>
     </g>
     <g id="text_5">
      <!-- 2.0 -->
      <g transform="translate(228.208438 322.182437)scale(0.1 -0.1)">
       <defs>
        <path d="M 1228 531 
L 3431 531 
L 3431 0 
L 469 0 
L 469 531 
Q 828 903 1448 1529 
Q 2069 2156 2228 2338 
Q 2531 2678 2651 2914 
Q 2772 3150 2772 3378 
Q 2772 3750 2511 3984 
Q 2250 4219 1831 4219 
Q 1534 4219 1204 4116 
Q 875 4013 500 3803 
L 500 4441 
Q 881 4594 1212 4672 
Q 1544 4750 1819 4750 
Q 2544 4750 2975 4387 
Q 3406 4025 3406 3419 
Q 3406 3131 3298 2873 
Q 3191 2616 2906 2266 
Q 2828 2175 2409 1742 
Q 1991 1309 1228 531 
z
" id="DejaVuSans-32" transform="scale(0.015625)"/>
       </defs>
       <use xlink:href="#DejaVuSans-32"/>
       <use x="63.623047" xlink:href="#DejaVuSans-2e"/>
       <use x="95.410156" xlink:href="#DejaVuSans-30"/>
      </g>
     </g>
    </g>
    <g id="xtick_6">
     <g id="line2d_11">
      <path clip-path="url(#p133ceb951c)" d="M 280.8 307.584 
L 280.8 41.472 
" style="fill:none;stroke:#b0b0b0;stroke-linecap:square;stroke-width:0.8;"/>
     </g>
     <g id="line2d_12">
      <g>
       <use style="stroke:#000000;stroke-width:0.8;" x="280.8" xlink:href="#mab5777a65a" y="307.584"/>
      </g>
     </g>
     <g id="text_6">
      <!-- 2.5 -->
      <g transform="translate(272.848437 322.182437)scale(0.1 -0.1)">
       <use xlink:href="#DejaVuSans-32"/>
       <use x="63.623047" xlink:href="#DejaVuSans-2e"/>
       <use x="95.410156" xlink:href="#DejaVuSans-35"/>
      </g>
     </g>
    </g>
    <g id="xtick_7">
     <g id="line2d_13">
      <path clip-path="url(#p133ceb951c)" d="M 325.44 307.584 
L 325.44 41.472 
" style="fill:none;stroke:#b0b0b0;stroke-linecap:square;stroke-width:0.8;"/>
     </g>
     <g id="line2d_14">
      <g>
       <use style="stroke:#000000;stroke-width:0.8;" x="325.44" xlink:href="#mab5777a65a" y="307.584"/>
      </g>
     </g>
     <g id="text_7">
      <!-- 3.0 -->
      <g transform="translate(317.488438 322.182437)scale(0.1 -0.1)">
       <defs>
        <path d="M 2597 2516 
Q 3050 2419 3304 2112 
Q 3559 1806 3559 1356 
Q 3559 666 3084 287 
Q 2609 -91 1734 -91 
Q 1441 -91 1130 -33 
Q 819 25 488 141 
L 488 750 
Q 750 597 1062 519 
Q 1375 441 1716 441 
Q 2309 441 2620 675 
Q 2931 909 2931 1356 
Q 2931 1769 2642 2001 
Q 2353 2234 1838 2234 
L 1294 2234 
L 1294 2753 
L 1863 2753 
Q 2328 2753 2575 2939 
Q 2822 3125 2822 3475 
Q 2822 3834 2567 4026 
Q 2313 4219 1838 4219 
Q 1578 4219 1281 4162 
Q 984 4106 628 3988 
L 628 4550 
Q 988 4650 1302 4700 
Q 1616 4750 1894 4750 
Q 2613 4750 3031 4423 
Q 3450 4097 3450 3541 
Q 3450 3153 3228 2886 
Q 3006 2619 2597 2516 
z
" id="DejaVuSans-33" transform="scale(0.015625)"/>
       </defs>
       <use xlink:href="#DejaVuSans-33"/>
       <use x="63.623047" xlink:href="#DejaVuSans-2e"/>
       <use x="95.410156" xlink:href="#DejaVuSans-30"/>
      </g>
     </g>
    </g>
    <g id="xtick_8">
     <g id="line2d_15">
      <path clip-path="url(#p133ceb951c)" d="M 370.08 307.584 
L 370.08 41.472 
" style="fill:none;stroke:#b0b0b0;stroke-linecap:square;stroke-width:0.8;"/>
     </g>
     <g id="line2d_16">
      <g>
       <use style="stroke:#000000;stroke-width:0.8;" x="370.08" xlink:href="#mab5777a65a" y="307.584"/>
      </g>
     </g>
     <g id="text_8">
      <!-- 3.5 -->
      <g transform="translate(362.128438 322.182437)scale(0.1 -0.1)">
       <use xlink:href="#DejaVuSans-33"/>
       <use x="63.623047" xlink:href="#DejaVuSans-2e"/>
       <use x="95.410156" xlink:href="#DejaVuSans-35"/>
      </g>
     </g>
    </g>
    <g id="xtick_9">
     <g id="line2d_17">
      <path clip-path="url(#p133ceb951c)" d="M 414.72 307.584 
L 414.72 41.472 
" style="fill:none;stroke:#b0b0b0;stroke-linecap:square;stroke-width:0.8;"/>
     </g>
     <g id="line2d_18">
      <g>
       <use style="stroke:#000000;stroke-width:0.8;" x="414.72" xlink:href="#mab5777a65a" y="307.584"/>
      </g>
     </g>
     <g id="text_9">
      <!-- 4.0 -->
      <g transform="translate(406.768438 322.182437)scale(0.1 -0.1)">
       <defs>
        <path d="M 2419 4116 
L 825 1625 
L 2419 1625 
L 2419 4116 
z
M 2253 4666 
L 3047 4666 
L 3047 1625 
L 3713 1625 
L 3713 1100 
L 3047 1100 
L 3047 0 
L 2419 0 
L 2419 1100 
L 313 1100 
L 313 1709 
L 2253 4666 
z
" id="DejaVuSans-34" transform="scale(0.015625)"/>
       </defs>
       <use xlink:href="#DejaVuSans-34"/>
       <use x="63.623047" xlink:href="#DejaVuSans-2e"/>
       <use x="95.410156" xlink:href="#DejaVuSans-30"/>
      </g>
     </g>
    </g>
    <g id="text_10">
     <!-- $B$ (T) -->
     <g transform="translate(224.16 335.860562)scale(0.1 -0.1)">
      <defs>
       <path d="M 1081 4666 
L 2694 4666 
Q 3350 4666 3675 4422 
Q 4000 4178 4000 3688 
Q 4000 3238 3720 2911 
Q 3441 2584 2988 2516 
Q 3375 2428 3569 2181 
Q 3763 1934 3763 1522 
Q 3763 819 3242 409 
Q 2722 0 1819 0 
L 172 0 
L 1081 4666 
z
M 1234 2228 
L 903 519 
L 1919 519 
Q 2491 519 2800 781 
Q 3109 1044 3109 1522 
Q 3109 1891 2904 2059 
Q 2700 2228 2247 2228 
L 1234 2228 
z
M 1606 4147 
L 1331 2741 
L 2272 2741 
Q 2775 2741 3058 2959 
Q 3341 3178 3341 3566 
Q 3341 3869 3150 4008 
Q 2959 4147 2541 4147 
L 1606 4147 
z
" id="DejaVuSans-Oblique-42" transform="scale(0.015625)"/>
       <path id="DejaVuSans-20" transform="scale(0.015625)"/>
       <path d="M 1984 4856 
Q 1566 4138 1362 3434 
Q 1159 2731 1159 2009 
Q 1159 1288 1364 580 
Q 1569 -128 1984 -844 
L 1484 -844 
Q 1016 -109 783 600 
Q 550 1309 550 2009 
Q 550 2706 781 3412 
Q 1013 4119 1484 4856 
L 1984 4856 
z
" id="DejaVuSans-28" transform="scale(0.015625)"/>
       <path d="M -19 4666 
L 3928 4666 
L 3928 4134 
L 2272 4134 
L 2272 0 
L 1638 0 
L 1638 4134 
L -19 4134 
L -19 4666 
z
" id="DejaVuSans-54" transform="scale(0.015625)"/>
       <path d="M 513 4856 
L 1013 4856 
Q 1481 4119 1714 3412 
Q 1947 2706 1947 2009 
Q 1947 1309 1714 600 
Q 1481 -109 1013 -844 
L 513 -844 
Q 928 -128 1133 580 
Q 1338 1288 1338 2009 
Q 1338 2731 1133 3434 
Q 928 4138 513 4856 
z
" id="DejaVuSans-29" transform="scale(0.015625)"/>
      </defs>
      <use transform="translate(0 0.125)" xlink:href="#DejaVuSans-Oblique-42"/>
      <use transform="translate(68.603516 0.125)" xlink:href="#DejaVuSans-20"/>
      <use transform="translate(100.390625 0.125)" xlink:href="#DejaVuSans-28"/>
      <use transform="translate(139.404297 0.125)" xlink:href="#DejaVuSans-54"/>
      <use transform="translate(200.488281 0.125)" xlink:href="#DejaVuSans-29"/>
     </g>
    </g>
   </g>
   <g id="matplotlib.axis_2">
    <g id="ytick_1">
     <g id="line2d_19">
      <path clip-path="url(#p133ceb951c)" d="M 57.6 307.052838 
L 414.72 307.052838 
" style="fill:none;stroke:#b0b0b0;stroke-linecap:square;stroke-width:0.8;"/>
     </g>
     <g id="line2d_20">
      <defs>
       <path d="M 0 0 
L -3.5 0 
" id="m22effc4db5" style="stroke:#000000;stroke-width:0.8;"/>
      </defs>
      <g>
       <use style="stroke:#000000;stroke-width:0.8;" x="57.6" xlink:href="#m22effc4db5" y="307.052838"/>
      </g>
     </g>
     <g id="text_11">
      <!-- 0.000 -->
      <g transform="translate(21.971875 310.852057)scale(0.1 -0.1)">
       <use xlink:href="#DejaVuSans-30"/>
       <use x="63.623047" xlink:href="#DejaVuSans-2e"/>
       <use x="95.410156" xlink:href="#DejaVuSans-30"/>
       <use x="159.033203" xlink:href="#DejaVuSans-30"/>
       <use x="222.65625" xlink:href="#DejaVuSans-30"/>
      </g>
     </g>
    </g>
    <g id="ytick_2">
     <g id="line2d_21">
      <path clip-path="url(#p133ceb951c)" d="M 57.6 253.936671 
L 414.72 253.936671 
" style="fill:none;stroke:#b0b0b0;stroke-linecap:square;stroke-width:0.8;"/>
     </g>
     <g id="line2d_22">
      <g>
       <use style="stroke:#000000;stroke-width:0.8;" x="57.6" xlink:href="#m22effc4db5" y="253.936671"/>
      </g>
     </g>
     <g id="text_12">
      <!-- 0.001 -->
      <g transform="translate(21.971875 257.735889)scale(0.1 -0.1)">
       <use xlink:href="#DejaVuSans-30"/>
       <use x="63.623047" xlink:href="#DejaVuSans-2e"/>
       <use x="95.410156" xlink:href="#DejaVuSans-30"/>
       <use x="159.033203" xlink:href="#DejaVuSans-30"/>
       <use x="222.65625" xlink:href="#DejaVuSans-31"/>
      </g>
     </g>
    </g>
    <g id="ytick_3">
     <g id="line2d_23">
      <path clip-path="url(#p133ceb951c)" d="M 57.6 200.820503 
L 414.72 200.820503 
" style="fill:none;stroke:#b0b0b0;stroke-linecap:square;stroke-width:0.8;"/>
     </g>
     <g id="line2d_24">
      <g>
       <use style="stroke:#000000;stroke-width:0.8;" x="57.6" xlink:href="#m22effc4db5" y="200.820503"/>
      </g>
     </g>
     <g id="text_13">
      <!-- 0.002 -->
      <g transform="translate(21.971875 204.619722)scale(0.1 -0.1)">
       <use xlink:href="#DejaVuSans-30"/>
       <use x="63.623047" xlink:href="#DejaVuSans-2e"/>
       <use x="95.410156" xlink:href="#DejaVuSans-30"/>
       <use x="159.033203" xlink:href="#DejaVuSans-30"/>
       <use x="222.65625" xlink:href="#DejaVuSans-32"/>
      </g>
     </g>
    </g>
    <g id="ytick_4">
     <g id="line2d_25">
      <path clip-path="url(#p133ceb951c)" d="M 57.6 147.704335 
L 414.72 147.704335 
" style="fill:none;stroke:#b0b0b0;stroke-linecap:square;stroke-width:0.8;"/>
     </g>
     <g id="line2d_26">
      <g>
       <use style="stroke:#000000;stroke-width:0.8;" x="57.6" xlink:href="#m22effc4db5" y="147.704335"/>
      </g>
     </g>
     <g id="text_14">
      <!-- 0.003 -->
      <g transform="translate(21.971875 151.503554)scale(0.1 -0.1)">
       <use xlink:href="#DejaVuSans-30"/>
       <use x="63.623047" xlink:href="#DejaVuSans-2e"/>
       <use x="95.410156" xlink:href="#DejaVuSans-30"/>
       <use x="159.033203" xlink:href="#DejaVuSans-30"/>
       <use x="222.65625" xlink:href="#DejaVuSans-33"/>
      </g>
     </g>
    </g>
    <g id="ytick_5">
     <g id="line2d_27">
      <path clip-path="url(#p133ceb951c)" d="M 57.6 94.588168 
L 414.72 94.588168 
" style="fill:none;stroke:#b0b0b0;stroke-linecap:square;stroke-width:0.8;"/>
     </g>
     <g id="line2d_28">
      <g>
       <use style="stroke:#000000;stroke-width:0.8;" x="57.6" xlink:href="#m22effc4db5" y="94.588168"/>
      </g>
     </g>
     <g id="text_15">
      <!-- 0.004 -->
      <g transform="translate(21.971875 98.387386)scale(0.1 -0.1)">
       <use xlink:href="#DejaVuSans-30"/>
       <use x="63.623047" xlink:href="#DejaVuSans-2e"/>
       <use x="95.410156" xlink:href="#DejaVuSans-30"/>
       <use x="159.033203" xlink:href="#DejaVuSans-30"/>
       <use x="222.65625" xlink:href="#DejaVuSans-34"/>
      </g>
     </g>
    </g>
    <g id="ytick_6">
     <g id="line2d_29">
      <path clip-path="url(#p133ceb951c)" d="M 57.6 41.472 
L 414.72 41.472 
" style="fill:none;stroke:#b0b0b0;stroke-linecap:square;stroke-width:0.8;"/>
     </g>
     <g id="line2d_30">
      <g>
       <use style="stroke:#000000;stroke-width:0.8;" x="57.6" xlink:href="#m22effc4db5" y="41.472"/>
      </g>
     </g>
     <g id="text_16">
      <!-- 0.005 -->
      <g transform="translate(21.971875 45.271219)scale(0.1 -0.1)">
       <use xlink:href="#DejaVuSans-30"/>
       <use x="63.623047" xlink:href="#DejaVuSans-2e"/>
       <use x="95.410156" xlink:href="#DejaVuSans-30"/>
       <use x="159.033203" xlink:href="#DejaVuSans-30"/>
       <use x="222.65625" xlink:href="#DejaVuSans-35"/>
      </g>
     </g>
    </g>
    <g id="text_17">
     <!-- $\rho_\mathrm{xx}$ ($\Omega$) -->
     <g transform="translate(15.871875 191.328)rotate(-90)scale(0.1 -0.1)">
      <defs>
       <path d="M 1203 2875 
Q 1453 3194 1981 3475 
Q 2188 3584 2756 3584 
Q 3394 3584 3694 3078 
Q 3994 2572 3834 1747 
Q 3672 922 3175 415 
Q 2678 -91 2041 -91 
Q 1656 -91 1409 63 
Q 1163 213 1044 525 
L 681 -1331 
L 103 -1331 
L 697 1716 
Q 838 2438 1203 2875 
z
M 3238 1747 
Q 3359 2381 3169 2744 
Q 2978 3103 2522 3103 
Q 2066 3103 1734 2744 
Q 1403 2381 1281 1747 
Q 1156 1113 1347 750 
Q 1538 391 1994 391 
Q 2450 391 2781 750 
Q 3113 1113 3238 1747 
z
" id="DejaVuSans-Oblique-3c1" transform="scale(0.015625)"/>
       <path d="M 3513 3500 
L 2247 1797 
L 3578 0 
L 2900 0 
L 1881 1375 
L 863 0 
L 184 0 
L 1544 1831 
L 300 3500 
L 978 3500 
L 1906 2253 
L 2834 3500 
L 3513 3500 
z
" id="DejaVuSans-78" transform="scale(0.015625)"/>
       <path d="M 4647 556 
L 4647 0 
L 2772 0 
L 2772 556 
Q 3325 859 3634 1378 
Q 3944 1897 3944 2528 
Q 3944 3278 3531 3731 
Q 3119 4184 2444 4184 
Q 1769 4184 1355 3729 
Q 941 3275 941 2528 
Q 941 1897 1250 1378 
Q 1563 859 2119 556 
L 2119 0 
L 244 0 
L 244 556 
L 1241 556 
Q 747 991 519 1456 
Q 294 1922 294 2497 
Q 294 3491 894 4106 
Q 1491 4722 2444 4722 
Q 3391 4722 3994 4106 
Q 4594 3494 4594 2528 
Q 4594 1922 4372 1459 
Q 4150 997 3647 556 
L 4647 556 
z
" id="DejaVuSans-3a9" transform="scale(0.015625)"/>
      </defs>
      <use transform="translate(0 0.125)" xlink:href="#DejaVuSans-Oblique-3c1"/>
      <use transform="translate(63.476562 -16.28125)scale(0.7)" xlink:href="#DejaVuSans-78"/>
      <use transform="translate(104.902344 -16.28125)scale(0.7)" xlink:href="#DejaVuSans-78"/>
      <use transform="translate(149.0625 0.125)" xlink:href="#DejaVuSans-20"/>
      <use transform="translate(180.849609 0.125)" xlink:href="#DejaVuSans-28"/>
      <use transform="translate(219.863281 0.125)" xlink:href="#DejaVuSans-3a9"/>
      <use transform="translate(296.279297 0.125)" xlink:href="#DejaVuSans-29"/>
     </g>
    </g>
   </g>
   <g id="line2d_31">
    <path clip-path="url(#p133ceb951c)" d="M 57.6 305.336474 
L 58.9392 305.646747 
L 60.2784 305.662576 
L 61.3944 305.763884 
L 62.064 305.772988 
L 62.9568 305.915457 
L 63.4032 305.889732 
L 64.0728 306.014396 
L 64.296 305.925947 
L 64.9656 306.060697 
L 66.0816 306.055157 
L 66.9744 306.2 
L 67.8672 306.110164 
L 68.0904 306.25481 
L 68.3136 306.186939 
L 68.5368 305.980556 
L 68.76 306.188325 
L 68.9832 306.234233 
L 69.2064 305.93188 
L 69.4296 306.329609 
L 69.6528 305.951666 
L 69.876 306.165373 
L 70.0992 305.995795 
L 70.3224 306.085827 
L 70.992 305.824633 
L 71.2152 306.326841 
L 71.4384 305.477562 
L 71.6616 306.482169 
L 71.8848 305.443923 
L 72.108 306.153497 
L 72.3312 306.215632 
L 72.5544 305.366156 
L 72.7776 306.525503 
L 73.0008 305.702153 
L 73.224 305.549194 
L 73.4472 306.617317 
L 73.6704 305.561065 
L 73.8936 305.521292 
L 74.1168 306.600299 
L 74.5632 305.125343 
L 74.7864 306.38086 
L 75.0096 306.31259 
L 75.2328 304.597416 
L 75.6792 306.702403 
L 75.9024 305.946126 
L 76.1256 304.068305 
L 76.572 306.761172 
L 76.7952 306.405591 
L 77.0184 303.922867 
L 77.2416 304.250546 
L 77.4648 306.432303 
L 77.688 306.833 
L 77.9112 305.69938 
L 78.1344 302.938832 
L 78.3576 304.223043 
L 78.5808 306.355928 
L 78.804 306.894539 
L 79.0272 306.089587 
L 79.2504 303.039944 
L 79.4736 302.783897 
L 79.92 306.801538 
L 80.1432 306.93629 
L 80.3664 305.80267 
L 80.5896 301.787804 
L 80.8128 302.248056 
L 81.2592 306.564485 
L 81.4824 306.977844 
L 81.7056 306.775221 
L 81.9288 304.662914 
L 82.152 301.261051 
L 82.3752 302.055728 
L 82.8216 306.398665 
L 83.0448 306.801142 
L 83.268 306.774429 
L 83.4912 305.963144 
L 83.9376 300.848711 
L 84.1608 302.165349 
L 84.6072 306.143405 
L 84.8304 306.251055 
L 85.0536 306.191294 
L 85.2768 306.413707 
L 85.5 305.322622 
L 85.9464 301.073498 
L 86.1696 302.086987 
L 86.616 305.703735 
L 86.8392 306.226908 
L 87.2856 305.535936 
L 87.5088 305.471825 
L 88.1784 302.054936 
L 88.4016 302.16614 
L 88.6248 303.155902 
L 89.0712 305.989065 
L 89.2944 305.132668 
L 89.5176 304.749583 
L 89.7408 304.857621 
L 90.1872 303.572226 
L 90.4104 301.895843 
L 90.6336 301.974598 
L 91.08 303.557189 
L 91.3032 303.355358 
L 91.7496 305.102588 
L 91.9728 305.173429 
L 92.196 305.827602 
L 92.6424 303.500594 
L 92.8656 303.508508 
L 93.5352 298.769797 
L 94.2048 304.319406 
L 94.428 304.711589 
L 94.6512 304.704466 
L 94.8744 304.843376 
L 95.0976 305.320646 
L 95.544 303.825516 
L 95.7672 304.642729 
L 96.2136 301.196568 
L 96.4368 302.111526 
L 96.66 301.247613 
L 97.3296 297.311121 
L 98.2224 304.527967 
L 98.6688 305.131871 
L 98.892 305.468266 
L 99.1152 306.18219 
L 99.3384 306.054759 
L 99.5616 304.821609 
L 100.2312 295.658464 
L 100.4544 294.203719 
L 100.6776 294.18943 
L 100.9008 294.83373 
L 101.3472 293.613173 
L 101.5704 292.413279 
L 101.7936 292.47978 
L 102.4632 300.795276 
L 103.5792 305.215773 
L 104.0256 305.933266 
L 104.2488 306.199601 
L 104.472 306.251448 
L 104.6952 306.087606 
L 104.9184 306.148158 
L 105.1416 305.892505 
L 105.3648 304.501844 
L 106.2576 289.795024 
L 106.4808 288.887959 
L 106.704 288.826238 
L 107.1504 286.545164 
L 107.3736 286.831673 
L 107.5968 289.367651 
L 108.0432 296.73173 
L 108.2664 297.781252 
L 108.4896 297.599223 
L 108.7128 297.893646 
L 110.2752 306.020329 
L 110.7216 306.534803 
L 110.9448 306.300124 
L 111.8376 302.079864 
L 112.0608 301.911278 
L 112.284 302.171282 
L 112.5072 302.857506 
L 112.7304 304.07998 
L 112.9536 304.126281 
L 113.1768 303.057754 
L 113.4 298.982315 
L 113.8464 287.585179 
L 114.2928 282.586097 
L 114.516 281.528661 
L 114.7392 281.566692 
L 114.9624 284.134274 
L 115.4088 291.900389 
L 115.632 293.524522 
L 115.8552 293.771512 
L 116.0784 293.372557 
L 116.3016 294.062748 
L 116.748 298.235554 
L 117.864 302.672693 
L 118.3104 304.352253 
L 118.7568 306.108975 
L 118.98 306.726346 
L 119.2032 306.959838 
L 119.4264 307.000995 
L 119.6496 306.738614 
L 119.8728 305.389107 
L 120.5424 296.733323 
L 120.7656 296.123868 
L 121.212 294.393662 
L 121.6584 293.420096 
L 122.328 292.899292 
L 122.7744 294.08017 
L 123.2208 297.434563 
L 123.444 299.318328 
L 123.8904 300.630669 
L 124.1136 300.157297 
L 124.3368 297.293699 
L 124.7832 286.586329 
L 125.0064 285.840737 
L 125.4528 287.833709 
L 125.676 287.555115 
L 126.1224 285.904052 
L 126.792 284.978025 
L 127.0152 284.650351 
L 127.2384 284.670907 
L 127.4616 285.011275 
L 127.6848 286.054424 
L 127.908 289.217226 
L 128.3544 298.914645 
L 128.5776 301.331908 
L 129.4704 304.205036 
L 130.14 305.946721 
L 130.5864 306.622659 
L 131.0328 307.057192 
L 131.4792 307.21747 
L 131.7024 307.157712 
L 132.1488 307.254274 
L 132.372 306.956276 
L 132.5952 304.661729 
L 133.0416 296.424612 
L 133.488 287.415791 
L 133.9344 284.974838 
L 134.3808 284.205503 
L 134.604 284.294154 
L 135.0504 282.662107 
L 135.2736 282.899536 
L 135.4968 282.677935 
L 135.9432 283.089532 
L 136.3896 285.625458 
L 136.836 288.642615 
L 137.5056 292.707702 
L 138.1752 296.234668 
L 138.8448 299.049241 
L 139.7376 305.232393 
L 139.9608 306.079299 
L 140.184 306.437052 
L 140.4072 304.680325 
L 140.6304 299.45882 
L 141.0768 284.392313 
L 141.5232 274.1487 
L 141.7464 272.312474 
L 142.1928 271.084057 
L 142.416 270.941599 
L 142.6392 270.989085 
L 143.3088 270.770618 
L 143.7552 270.441351 
L 143.9784 270.643989 
L 144.2016 271.096698 
L 144.4248 272.302967 
L 144.648 274.85472 
L 145.5408 295.883252 
L 145.9872 300.597418 
L 146.4336 303.497428 
L 146.88 304.904714 
L 147.7728 306.551029 
L 148.6656 307.139903 
L 150.0048 307.294641 
L 151.7904 307.133175 
L 152.2368 305.423144 
L 152.6832 296.089821 
L 153.1296 279.643249 
L 153.576 270.533189 
L 154.0224 267.370387 
L 155.3616 264.258204 
L 155.808 264.663481 
L 156.2544 264.381699 
L 156.7008 268.620901 
L 157.1472 271.546274 
L 158.04 282.374005 
L 160.7184 297.880951 
L 161.1648 302.132895 
L 161.6112 304.846143 
L 162.0576 306.441801 
L 162.9504 307.234882 
L 164.736 307.293454 
L 166.0752 307.136737 
L 166.5216 304.008745 
L 167.8608 251.844425 
L 168.3072 245.531568 
L 168.7536 244.201539 
L 169.6464 243.682594 
L 170.0928 243.815385 
L 170.5392 244.721016 
L 170.9856 246.987482 
L 171.432 253.617442 
L 172.3248 278.698206 
L 172.7712 288.474821 
L 173.2176 294.800479 
L 174.1104 303.253651 
L 175.0032 306.324663 
L 175.896 307.013263 
L 177.2352 307.337777 
L 179.9136 307.333028 
L 185.7168 307.306117 
L 186.1632 306.79481 
L 186.6096 304.866726 
L 187.5024 289.06372 
L 188.3952 249.982703 
L 188.8416 237.565737 
L 189.288 229.922851 
L 189.7344 225.693211 
L 190.1808 222.660278 
L 190.6272 222.710738 
L 191.0736 222.48287 
L 191.52 224.154435 
L 192.4128 232.265805 
L 192.8592 241.301397 
L 193.752 253.269 
L 194.1984 257.39124 
L 195.0912 267.009462 
L 199.5552 299.5241 
L 200.448 303.605073 
L 200.8944 305.324205 
L 201.7872 306.869211 
L 202.2336 307.212721 
L 203.1264 307.470749 
L 203.5728 307.410594 
L 204.0192 307.496077 
L 205.3584 307.453335 
L 206.6976 307.404262 
L 209.376 307.435922 
L 210.2688 307.450169 
L 211.1616 307.38685 
L 212.5008 307.42959 
L 213.3936 307.345692 
L 213.84 307.108243 
L 214.2864 306.557361 
L 214.7328 304.968034 
L 215.1792 302.048998 
L 215.6256 297.497877 
L 216.5184 278.090345 
L 218.304 216.910984 
L 218.7504 209.046604 
L 219.1968 197.902301 
L 219.6432 189.860513 
L 220.536 181.287032 
L 220.9824 182.059341 
L 221.8752 190.101129 
L 224.1072 233.437548 
L 224.5536 239.718535 
L 225.4464 256.270489 
L 225.8928 261.475342 
L 226.3392 270.94792 
L 226.7856 277.026587 
L 227.232 285.201219 
L 228.1248 296.275833 
L 228.5712 299.707722 
L 229.0176 301.582032 
L 229.464 304.323761 
L 229.9104 305.871928 
L 230.3568 306.72041 
L 230.8032 307.13832 
L 231.696 307.635379 
L 234.8208 307.507158 
L 237.9456 307.51349 
L 239.2848 307.481831 
L 240.1776 307.537235 
L 242.4096 307.519822 
L 244.1952 307.594225 
L 244.6416 307.489745 
L 245.5344 307.499243 
L 247.32 307.543567 
L 248.6592 307.524571 
L 255.3552 307.458085 
L 256.248 307.405846 
L 258.0336 307.152567 
L 259.3728 306.79481 
L 260.2656 305.73262 
L 260.712 304.545378 
L 261.1584 302.876898 
L 262.0512 297.269956 
L 263.3904 277.757891 
L 266.0688 216.854149 
L 266.5152 207.653898 
L 267.8544 190.797482 
L 268.7472 183.946559 
L 269.64 179.577223 
L 270.5328 177.0064 
L 272.3184 174.512065 
L 272.7648 174.144501 
L 273.2112 174.182745 
L 273.6576 174.030833 
L 274.104 174.068545 
L 274.5504 173.498609 
L 274.9968 173.131576 
L 275.4432 172.523396 
L 275.8896 172.650343 
L 276.336 172.485683 
L 277.2288 170.978778 
L 278.1216 170.725414 
L 278.568 171.269854 
L 279.0144 172.080407 
L 279.4608 173.942129 
L 279.9072 174.98055 
L 280.8 181.096876 
L 281.6928 188.771632 
L 282.1392 193.102193 
L 283.032 208.211087 
L 283.4784 213.403192 
L 284.8176 234.24757 
L 285.264 237.793605 
L 286.6032 257.448234 
L 288.3888 275.823506 
L 288.8352 278.153659 
L 289.2816 282.396154 
L 289.728 285.277175 
L 290.1744 289.367651 
L 292.4064 302.705939 
L 292.8528 304.174957 
L 293.2992 305.083594 
L 293.7456 306.296167 
L 294.192 306.929364 
L 295.0848 307.356773 
L 295.9776 307.489745 
L 296.424 307.622716 
L 297.7632 307.654374 
L 298.2096 307.771516 
L 299.5488 307.765185 
L 303.12 307.76835 
L 305.352 307.730362 
L 306.2448 307.800013 
L 307.1376 307.777847 
L 318.2976 307.676539 
L 324.9936 307.340943 
L 328.1184 306.511452 
L 329.0112 305.957408 
L 329.4576 305.564826 
L 329.904 304.440899 
L 330.3504 302.959212 
L 330.7968 301.053314 
L 331.6896 293.530896 
L 332.5824 281.962407 
L 333.4752 266.705532 
L 333.9216 253.243505 
L 334.368 243.904089 
L 335.7072 203.373266 
L 336.1536 191.329706 
L 336.6 182.89539 
L 337.0464 170.041277 
L 337.4928 160.898391 
L 337.9392 155.174062 
L 338.3856 147.664498 
L 338.832 142.143073 
L 339.7248 136.102171 
L 340.1712 134.481597 
L 340.6176 133.860669 
L 341.064 133.873416 
L 341.5104 134.430605 
L 342.8496 138.052597 
L 343.7424 141.864213 
L 345.0816 146.334469 
L 346.4208 150.273033 
L 347.3136 152.375371 
L 348.2064 153.907773 
L 349.0992 154.718325 
L 349.992 155.35147 
L 350.4384 155.51613 
L 351.7776 155.592086 
L 353.1168 155.40193 
L 354.456 154.781534 
L 354.9024 154.655117 
L 355.3488 154.389005 
L 355.7952 154.300301 
L 357.1344 153.54074 
L 360.2592 153.185924 
L 361.5984 153.42654 
L 362.0448 153.730365 
L 362.4912 153.869529 
L 362.9376 153.869529 
L 363.8304 154.325797 
L 364.2768 154.300301 
L 364.7232 154.389005 
L 365.1696 154.300301 
L 365.616 154.426718 
L 367.4016 153.717617 
L 367.848 153.54074 
L 368.2944 153.084472 
L 370.5264 149.918748 
L 371.4192 147.120057 
L 371.8656 145.308796 
L 372.312 144.397323 
L 372.7584 142.890417 
L 373.2048 142.130325 
L 374.0976 139.660954 
L 376.776 128.478407 
L 377.2224 126.996997 
L 377.6688 126.021785 
L 378.1152 124.476635 
L 378.5616 122.159177 
L 379.4544 119.018949 
L 380.3472 114.890229 
L 382.1328 106.646069 
L 382.5792 104.822591 
L 383.0256 104.417314 
L 383.472 103.847378 
L 383.9184 103.78417 
L 384.3648 100.922271 
L 384.8112 100.782575 
L 385.2576 101.403503 
L 386.5968 107.216005 
L 387.0432 112.015582 
L 387.4896 115.093133 
L 387.936 121.501067 
L 388.3824 126.04728 
L 388.8288 135.279401 
L 389.2752 140.661131 
L 391.9536 193.723121 
L 392.4 198.700106 
L 392.8464 205.513316 
L 393.7392 223.331666 
L 394.1856 231.145054 
L 394.632 235.109114 
L 395.5248 249.178524 
L 395.9712 252.977924 
L 396.4176 258.562664 
L 396.864 260.867481 
L 397.7568 271.479772 
L 398.6496 276.53266 
L 399.5424 283.979122 
L 400.8816 292.907206 
L 403.1136 303.424611 
L 403.56 304.899966 
L 404.0064 305.520501 
L 404.4528 306.824887 
L 405.3456 308.141938 
L 406.2384 308.350891 
L 406.6848 308.442708 
L 407.1312 308.25908 
L 408.9168 308.293903 
L 411.5952 308.290737 
L 412.0416 308.208423 
L 412.488 308.312903 
L 414.2736 308.227417 
L 414.72 308.338228 
L 415.1664 308.303405 
L 415.1664 308.303405 
" style="fill:none;stroke:#1f77b4;stroke-linecap:square;stroke-width:1.5;"/>
   </g>
   <g id="patch_3">
    <path d="M 57.6 307.584 
L 57.6 41.472 
" style="fill:none;stroke:#000000;stroke-linecap:square;stroke-linejoin:miter;stroke-width:0.8;"/>
   </g>
   <g id="patch_4">
    <path d="M 414.72 307.584 
L 414.72 41.472 
" style="fill:none;stroke:#000000;stroke-linecap:square;stroke-linejoin:miter;stroke-width:0.8;"/>
   </g>
   <g id="patch_5">
    <path d="M 57.6 307.584 
L 414.72 307.584 
" style="fill:none;stroke:#000000;stroke-linecap:square;stroke-linejoin:miter;stroke-width:0.8;"/>
   </g>
   <g id="patch_6">
    <path d="M 57.6 41.472 
L 414.72 41.472 
" style="fill:none;stroke:#000000;stroke-linecap:square;stroke-linejoin:miter;stroke-width:0.8;"/>
   </g>
   <g id="text_18">
    <!-- Long. Resistivity with minima start &amp; endpoints, $V_\mathrm{g}$ =100mV -->
    <g transform="translate(54.54 35.472)scale(0.12 -0.12)">
     <defs>
      <path d="M 628 4666 
L 1259 4666 
L 1259 531 
L 3531 531 
L 3531 0 
L 628 0 
L 628 4666 
z
" id="DejaVuSans-4c" transform="scale(0.015625)"/>
      <path d="M 1959 3097 
Q 1497 3097 1228 2736 
Q 959 2375 959 1747 
Q 959 1119 1226 758 
Q 1494 397 1959 397 
Q 2419 397 2687 759 
Q 2956 1122 2956 1747 
Q 2956 2369 2687 2733 
Q 2419 3097 1959 3097 
z
M 1959 3584 
Q 2709 3584 3137 3096 
Q 3566 2609 3566 1747 
Q 3566 888 3137 398 
Q 2709 -91 1959 -91 
Q 1206 -91 779 398 
Q 353 888 353 1747 
Q 353 2609 779 3096 
Q 1206 3584 1959 3584 
z
" id="DejaVuSans-6f" transform="scale(0.015625)"/>
      <path d="M 3513 2113 
L 3513 0 
L 2938 0 
L 2938 2094 
Q 2938 2591 2744 2837 
Q 2550 3084 2163 3084 
Q 1697 3084 1428 2787 
Q 1159 2491 1159 1978 
L 1159 0 
L 581 0 
L 581 3500 
L 1159 3500 
L 1159 2956 
Q 1366 3272 1645 3428 
Q 1925 3584 2291 3584 
Q 2894 3584 3203 3211 
Q 3513 2838 3513 2113 
z
" id="DejaVuSans-6e" transform="scale(0.015625)"/>
      <path d="M 2906 1791 
Q 2906 2416 2648 2759 
Q 2391 3103 1925 3103 
Q 1463 3103 1205 2759 
Q 947 2416 947 1791 
Q 947 1169 1205 825 
Q 1463 481 1925 481 
Q 2391 481 2648 825 
Q 2906 1169 2906 1791 
z
M 3481 434 
Q 3481 -459 3084 -895 
Q 2688 -1331 1869 -1331 
Q 1566 -1331 1297 -1286 
Q 1028 -1241 775 -1147 
L 775 -588 
Q 1028 -725 1275 -790 
Q 1522 -856 1778 -856 
Q 2344 -856 2625 -561 
Q 2906 -266 2906 331 
L 2906 616 
Q 2728 306 2450 153 
Q 2172 0 1784 0 
Q 1141 0 747 490 
Q 353 981 353 1791 
Q 353 2603 747 3093 
Q 1141 3584 1784 3584 
Q 2172 3584 2450 3431 
Q 2728 3278 2906 2969 
L 2906 3500 
L 3481 3500 
L 3481 434 
z
" id="DejaVuSans-67" transform="scale(0.015625)"/>
      <path d="M 2841 2188 
Q 3044 2119 3236 1894 
Q 3428 1669 3622 1275 
L 4263 0 
L 3584 0 
L 2988 1197 
Q 2756 1666 2539 1819 
Q 2322 1972 1947 1972 
L 1259 1972 
L 1259 0 
L 628 0 
L 628 4666 
L 2053 4666 
Q 2853 4666 3247 4331 
Q 3641 3997 3641 3322 
Q 3641 2881 3436 2590 
Q 3231 2300 2841 2188 
z
M 1259 4147 
L 1259 2491 
L 2053 2491 
Q 2509 2491 2742 2702 
Q 2975 2913 2975 3322 
Q 2975 3731 2742 3939 
Q 2509 4147 2053 4147 
L 1259 4147 
z
" id="DejaVuSans-52" transform="scale(0.015625)"/>
      <path d="M 3597 1894 
L 3597 1613 
L 953 1613 
Q 991 1019 1311 708 
Q 1631 397 2203 397 
Q 2534 397 2845 478 
Q 3156 559 3463 722 
L 3463 178 
Q 3153 47 2828 -22 
Q 2503 -91 2169 -91 
Q 1331 -91 842 396 
Q 353 884 353 1716 
Q 353 2575 817 3079 
Q 1281 3584 2069 3584 
Q 2775 3584 3186 3129 
Q 3597 2675 3597 1894 
z
M 3022 2063 
Q 3016 2534 2758 2815 
Q 2500 3097 2075 3097 
Q 1594 3097 1305 2825 
Q 1016 2553 972 2059 
L 3022 2063 
z
" id="DejaVuSans-65" transform="scale(0.015625)"/>
      <path d="M 2834 3397 
L 2834 2853 
Q 2591 2978 2328 3040 
Q 2066 3103 1784 3103 
Q 1356 3103 1142 2972 
Q 928 2841 928 2578 
Q 928 2378 1081 2264 
Q 1234 2150 1697 2047 
L 1894 2003 
Q 2506 1872 2764 1633 
Q 3022 1394 3022 966 
Q 3022 478 2636 193 
Q 2250 -91 1575 -91 
Q 1294 -91 989 -36 
Q 684 19 347 128 
L 347 722 
Q 666 556 975 473 
Q 1284 391 1588 391 
Q 1994 391 2212 530 
Q 2431 669 2431 922 
Q 2431 1156 2273 1281 
Q 2116 1406 1581 1522 
L 1381 1569 
Q 847 1681 609 1914 
Q 372 2147 372 2553 
Q 372 3047 722 3315 
Q 1072 3584 1716 3584 
Q 2034 3584 2315 3537 
Q 2597 3491 2834 3397 
z
" id="DejaVuSans-73" transform="scale(0.015625)"/>
      <path d="M 603 3500 
L 1178 3500 
L 1178 0 
L 603 0 
L 603 3500 
z
M 603 4863 
L 1178 4863 
L 1178 4134 
L 603 4134 
L 603 4863 
z
" id="DejaVuSans-69" transform="scale(0.015625)"/>
      <path d="M 1172 4494 
L 1172 3500 
L 2356 3500 
L 2356 3053 
L 1172 3053 
L 1172 1153 
Q 1172 725 1289 603 
Q 1406 481 1766 481 
L 2356 481 
L 2356 0 
L 1766 0 
Q 1100 0 847 248 
Q 594 497 594 1153 
L 594 3053 
L 172 3053 
L 172 3500 
L 594 3500 
L 594 4494 
L 1172 4494 
z
" id="DejaVuSans-74" transform="scale(0.015625)"/>
      <path d="M 191 3500 
L 800 3500 
L 1894 563 
L 2988 3500 
L 3597 3500 
L 2284 0 
L 1503 0 
L 191 3500 
z
" id="DejaVuSans-76" transform="scale(0.015625)"/>
      <path d="M 2059 -325 
Q 1816 -950 1584 -1140 
Q 1353 -1331 966 -1331 
L 506 -1331 
L 506 -850 
L 844 -850 
Q 1081 -850 1212 -737 
Q 1344 -625 1503 -206 
L 1606 56 
L 191 3500 
L 800 3500 
L 1894 763 
L 2988 3500 
L 3597 3500 
L 2059 -325 
z
" id="DejaVuSans-79" transform="scale(0.015625)"/>
      <path d="M 269 3500 
L 844 3500 
L 1563 769 
L 2278 3500 
L 2956 3500 
L 3675 769 
L 4391 3500 
L 4966 3500 
L 4050 0 
L 3372 0 
L 2619 2869 
L 1863 0 
L 1184 0 
L 269 3500 
z
" id="DejaVuSans-77" transform="scale(0.015625)"/>
      <path d="M 3513 2113 
L 3513 0 
L 2938 0 
L 2938 2094 
Q 2938 2591 2744 2837 
Q 2550 3084 2163 3084 
Q 1697 3084 1428 2787 
Q 1159 2491 1159 1978 
L 1159 0 
L 581 0 
L 581 4863 
L 1159 4863 
L 1159 2956 
Q 1366 3272 1645 3428 
Q 1925 3584 2291 3584 
Q 2894 3584 3203 3211 
Q 3513 2838 3513 2113 
z
" id="DejaVuSans-68" transform="scale(0.015625)"/>
      <path d="M 3328 2828 
Q 3544 3216 3844 3400 
Q 4144 3584 4550 3584 
Q 5097 3584 5394 3201 
Q 5691 2819 5691 2113 
L 5691 0 
L 5113 0 
L 5113 2094 
Q 5113 2597 4934 2840 
Q 4756 3084 4391 3084 
Q 3944 3084 3684 2787 
Q 3425 2491 3425 1978 
L 3425 0 
L 2847 0 
L 2847 2094 
Q 2847 2600 2669 2842 
Q 2491 3084 2119 3084 
Q 1678 3084 1418 2786 
Q 1159 2488 1159 1978 
L 1159 0 
L 581 0 
L 581 3500 
L 1159 3500 
L 1159 2956 
Q 1356 3278 1631 3431 
Q 1906 3584 2284 3584 
Q 2666 3584 2933 3390 
Q 3200 3197 3328 2828 
z
" id="DejaVuSans-6d" transform="scale(0.015625)"/>
      <path d="M 2194 1759 
Q 1497 1759 1228 1600 
Q 959 1441 959 1056 
Q 959 750 1161 570 
Q 1363 391 1709 391 
Q 2188 391 2477 730 
Q 2766 1069 2766 1631 
L 2766 1759 
L 2194 1759 
z
M 3341 1997 
L 3341 0 
L 2766 0 
L 2766 531 
Q 2569 213 2275 61 
Q 1981 -91 1556 -91 
Q 1019 -91 701 211 
Q 384 513 384 1019 
Q 384 1609 779 1909 
Q 1175 2209 1959 2209 
L 2766 2209 
L 2766 2266 
Q 2766 2663 2505 2880 
Q 2244 3097 1772 3097 
Q 1472 3097 1187 3025 
Q 903 2953 641 2809 
L 641 3341 
Q 956 3463 1253 3523 
Q 1550 3584 1831 3584 
Q 2591 3584 2966 3190 
Q 3341 2797 3341 1997 
z
" id="DejaVuSans-61" transform="scale(0.015625)"/>
      <path d="M 2631 2963 
Q 2534 3019 2420 3045 
Q 2306 3072 2169 3072 
Q 1681 3072 1420 2755 
Q 1159 2438 1159 1844 
L 1159 0 
L 581 0 
L 581 3500 
L 1159 3500 
L 1159 2956 
Q 1341 3275 1631 3429 
Q 1922 3584 2338 3584 
Q 2397 3584 2469 3576 
Q 2541 3569 2628 3553 
L 2631 2963 
z
" id="DejaVuSans-72" transform="scale(0.015625)"/>
      <path d="M 1556 2509 
Q 1272 2256 1139 2004 
Q 1006 1753 1006 1478 
Q 1006 1022 1337 719 
Q 1669 416 2169 416 
Q 2466 416 2725 514 
Q 2984 613 3213 813 
L 1556 2509 
z
M 1997 2859 
L 3584 1234 
Q 3769 1513 3872 1830 
Q 3975 2147 3994 2503 
L 4575 2503 
Q 4538 2091 4375 1687 
Q 4213 1284 3922 891 
L 4794 0 
L 4006 0 
L 3559 459 
Q 3234 181 2878 45 
Q 2522 -91 2113 -91 
Q 1359 -91 881 339 
Q 403 769 403 1441 
Q 403 1841 612 2192 
Q 822 2544 1241 2853 
Q 1091 3050 1012 3245 
Q 934 3441 934 3628 
Q 934 4134 1281 4442 
Q 1628 4750 2203 4750 
Q 2463 4750 2720 4694 
Q 2978 4638 3244 4525 
L 3244 3956 
Q 2972 4103 2725 4179 
Q 2478 4256 2266 4256 
Q 1938 4256 1733 4082 
Q 1528 3909 1528 3634 
Q 1528 3475 1620 3314 
Q 1713 3153 1997 2859 
z
" id="DejaVuSans-26" transform="scale(0.015625)"/>
      <path d="M 2906 2969 
L 2906 4863 
L 3481 4863 
L 3481 0 
L 2906 0 
L 2906 525 
Q 2725 213 2448 61 
Q 2172 -91 1784 -91 
Q 1150 -91 751 415 
Q 353 922 353 1747 
Q 353 2572 751 3078 
Q 1150 3584 1784 3584 
Q 2172 3584 2448 3432 
Q 2725 3281 2906 2969 
z
M 947 1747 
Q 947 1113 1208 752 
Q 1469 391 1925 391 
Q 2381 391 2643 752 
Q 2906 1113 2906 1747 
Q 2906 2381 2643 2742 
Q 2381 3103 1925 3103 
Q 1469 3103 1208 2742 
Q 947 2381 947 1747 
z
" id="DejaVuSans-64" transform="scale(0.015625)"/>
      <path d="M 1159 525 
L 1159 -1331 
L 581 -1331 
L 581 3500 
L 1159 3500 
L 1159 2969 
Q 1341 3281 1617 3432 
Q 1894 3584 2278 3584 
Q 2916 3584 3314 3078 
Q 3713 2572 3713 1747 
Q 3713 922 3314 415 
Q 2916 -91 2278 -91 
Q 1894 -91 1617 61 
Q 1341 213 1159 525 
z
M 3116 1747 
Q 3116 2381 2855 2742 
Q 2594 3103 2138 3103 
Q 1681 3103 1420 2742 
Q 1159 2381 1159 1747 
Q 1159 1113 1420 752 
Q 1681 391 2138 391 
Q 2594 391 2855 752 
Q 3116 1113 3116 1747 
z
" id="DejaVuSans-70" transform="scale(0.015625)"/>
      <path d="M 750 794 
L 1409 794 
L 1409 256 
L 897 -744 
L 494 -744 
L 750 256 
L 750 794 
z
" id="DejaVuSans-2c" transform="scale(0.015625)"/>
      <path d="M 1319 0 
L 500 4666 
L 1119 4666 
L 1797 653 
L 4063 4666 
L 4750 4666 
L 2053 0 
L 1319 0 
z
" id="DejaVuSans-Oblique-56" transform="scale(0.015625)"/>
      <path d="M 678 2906 
L 4684 2906 
L 4684 2381 
L 678 2381 
L 678 2906 
z
M 678 1631 
L 4684 1631 
L 4684 1100 
L 678 1100 
L 678 1631 
z
" id="DejaVuSans-3d" transform="scale(0.015625)"/>
      <path d="M 1831 0 
L 50 4666 
L 709 4666 
L 2188 738 
L 3669 4666 
L 4325 4666 
L 2547 0 
L 1831 0 
z
" id="DejaVuSans-56" transform="scale(0.015625)"/>
     </defs>
     <use transform="translate(0 0.015625)" xlink:href="#DejaVuSans-4c"/>
     <use transform="translate(55.712891 0.015625)" xlink:href="#DejaVuSans-6f"/>
     <use transform="translate(116.894531 0.015625)" xlink:href="#DejaVuSans-6e"/>
     <use transform="translate(180.273438 0.015625)" xlink:href="#DejaVuSans-67"/>
     <use transform="translate(243.75 0.015625)" xlink:href="#DejaVuSans-2e"/>
     <use transform="translate(275.537109 0.015625)" xlink:href="#DejaVuSans-20"/>
     <use transform="translate(307.324219 0.015625)" xlink:href="#DejaVuSans-52"/>
     <use transform="translate(376.806641 0.015625)" xlink:href="#DejaVuSans-65"/>
     <use transform="translate(438.330078 0.015625)" xlink:href="#DejaVuSans-73"/>
     <use transform="translate(490.429688 0.015625)" xlink:href="#DejaVuSans-69"/>
     <use transform="translate(518.212891 0.015625)" xlink:href="#DejaVuSans-73"/>
     <use transform="translate(570.3125 0.015625)" xlink:href="#DejaVuSans-74"/>
     <use transform="translate(609.521484 0.015625)" xlink:href="#DejaVuSans-69"/>
     <use transform="translate(637.304688 0.015625)" xlink:href="#DejaVuSans-76"/>
     <use transform="translate(696.484375 0.015625)" xlink:href="#DejaVuSans-69"/>
     <use transform="translate(724.267578 0.015625)" xlink:href="#DejaVuSans-74"/>
     <use transform="translate(763.476562 0.015625)" xlink:href="#DejaVuSans-79"/>
     <use transform="translate(822.65625 0.015625)" xlink:href="#DejaVuSans-20"/>
     <use transform="translate(854.443359 0.015625)" xlink:href="#DejaVuSans-77"/>
     <use transform="translate(936.230469 0.015625)" xlink:href="#DejaVuSans-69"/>
     <use transform="translate(964.013672 0.015625)" xlink:href="#DejaVuSans-74"/>
     <use transform="translate(1003.222656 0.015625)" xlink:href="#DejaVuSans-68"/>
     <use transform="translate(1066.601562 0.015625)" xlink:href="#DejaVuSans-20"/>
     <use transform="translate(1098.388672 0.015625)" xlink:href="#DejaVuSans-6d"/>
     <use transform="translate(1195.800781 0.015625)" xlink:href="#DejaVuSans-69"/>
     <use transform="translate(1223.583984 0.015625)" xlink:href="#DejaVuSans-6e"/>
     <use transform="translate(1286.962891 0.015625)" xlink:href="#DejaVuSans-69"/>
     <use transform="translate(1314.746094 0.015625)" xlink:href="#DejaVuSans-6d"/>
     <use transform="translate(1412.158203 0.015625)" xlink:href="#DejaVuSans-61"/>
     <use transform="translate(1473.4375 0.015625)" xlink:href="#DejaVuSans-20"/>
     <use transform="translate(1505.224609 0.015625)" xlink:href="#DejaVuSans-73"/>
     <use transform="translate(1557.324219 0.015625)" xlink:href="#DejaVuSans-74"/>
     <use transform="translate(1596.533203 0.015625)" xlink:href="#DejaVuSans-61"/>
     <use transform="translate(1657.8125 0.015625)" xlink:href="#DejaVuSans-72"/>
     <use transform="translate(1698.925781 0.015625)" xlink:href="#DejaVuSans-74"/>
     <use transform="translate(1738.134766 0.015625)" xlink:href="#DejaVuSans-20"/>
     <use transform="translate(1769.921875 0.015625)" xlink:href="#DejaVuSans-26"/>
     <use transform="translate(1847.900391 0.015625)" xlink:href="#DejaVuSans-20"/>
     <use transform="translate(1879.6875 0.015625)" xlink:href="#DejaVuSans-65"/>
     <use transform="translate(1941.210938 0.015625)" xlink:href="#DejaVuSans-6e"/>
     <use transform="translate(2004.589844 0.015625)" xlink:href="#DejaVuSans-64"/>
     <use transform="translate(2068.066406 0.015625)" xlink:href="#DejaVuSans-70"/>
     <use transform="translate(2131.542969 0.015625)" xlink:href="#DejaVuSans-6f"/>
     <use transform="translate(2192.724609 0.015625)" xlink:href="#DejaVuSans-69"/>
     <use transform="translate(2220.507812 0.015625)" xlink:href="#DejaVuSans-6e"/>
     <use transform="translate(2283.886719 0.015625)" xlink:href="#DejaVuSans-74"/>
     <use transform="translate(2323.095703 0.015625)" xlink:href="#DejaVuSans-73"/>
     <use transform="translate(2375.195312 0.015625)" xlink:href="#DejaVuSans-2c"/>
     <use transform="translate(2406.982422 0.015625)" xlink:href="#DejaVuSans-20"/>
     <use transform="translate(2438.769531 0.015625)" xlink:href="#DejaVuSans-Oblique-56"/>
     <use transform="translate(2507.177734 -16.390625)scale(0.7)" xlink:href="#DejaVuSans-67"/>
     <use transform="translate(2554.345703 0.015625)" xlink:href="#DejaVuSans-20"/>
     <use transform="translate(2586.132812 0.015625)" xlink:href="#DejaVuSans-3d"/>
     <use transform="translate(2669.921875 0.015625)" xlink:href="#DejaVuSans-31"/>
     <use transform="translate(2733.544922 0.015625)" xlink:href="#DejaVuSans-30"/>
     <use transform="translate(2797.167969 0.015625)" xlink:href="#DejaVuSans-30"/>
     <use transform="translate(2860.791016 0.015625)" xlink:href="#DejaVuSans-6d"/>
     <use transform="translate(2958.203125 0.015625)" xlink:href="#DejaVuSans-56"/>
    </g>
   </g>
   <g id="legend_1">
    <g id="patch_7">
     <path d="M 64.6 152.218875 
L 120.2 152.218875 
Q 122.2 152.218875 122.2 150.218875 
L 122.2 48.472 
Q 122.2 46.472 120.2 46.472 
L 64.6 46.472 
Q 62.6 46.472 62.6 48.472 
L 62.6 150.218875 
Q 62.6 152.218875 64.6 152.218875 
z
" style="fill:#ffffff;opacity:0.8;stroke:#cccccc;stroke-linejoin:miter;"/>
    </g>
    <g id="PathCollection_8">
     <g>
      <use style="fill:#0000ff;stroke:#0000ff;" x="76.6" xlink:href="#mf6cc53d689" y="55.445438"/>
     </g>
    </g>
    <g id="text_19">
     <!-- $\nu$= 1 -->
     <g transform="translate(94.6 58.070438)scale(0.1 -0.1)">
      <defs>
       <path d="M 959 0 
L 572 3500 
L 1191 3500 
L 1522 563 
Q 1972 950 2391 1488 
Q 2706 1891 2788 2241 
Q 2825 2406 2809 2719 
Q 2794 3091 2544 3500 
L 3125 3500 
L 3125 3500 
Q 3288 3222 3353 2834 
Q 3416 2478 3369 2234 
Q 3250 1622 2719 1075 
Q 2025 363 1572 0 
L 959 0 
z
" id="DejaVuSans-Oblique-3bd" transform="scale(0.015625)"/>
      </defs>
      <use transform="translate(0 0.09375)" xlink:href="#DejaVuSans-Oblique-3bd"/>
      <use transform="translate(55.859375 0.09375)" xlink:href="#DejaVuSans-3d"/>
      <use transform="translate(139.648438 0.09375)" xlink:href="#DejaVuSans-20"/>
      <use transform="translate(171.435547 0.09375)" xlink:href="#DejaVuSans-31"/>
     </g>
    </g>
    <g id="PathCollection_9">
     <g>
      <use style="fill:#ff0000;stroke:#ff0000;" x="76.6" xlink:href="#m0d4b844348" y="70.123563"/>
     </g>
    </g>
    <g id="text_20">
     <!-- $\nu$= 2 -->
     <g transform="translate(94.6 72.748563)scale(0.1 -0.1)">
      <use transform="translate(0 0.78125)" xlink:href="#DejaVuSans-Oblique-3bd"/>
      <use transform="translate(55.859375 0.78125)" xlink:href="#DejaVuSans-3d"/>
      <use transform="translate(139.648438 0.78125)" xlink:href="#DejaVuSans-20"/>
      <use transform="translate(171.435547 0.78125)" xlink:href="#DejaVuSans-32"/>
     </g>
    </g>
    <g id="PathCollection_10">
     <g>
      <use style="fill:#ffa500;stroke:#ffa500;" x="76.6" xlink:href="#m07a401f834" y="84.801688"/>
     </g>
    </g>
    <g id="text_21">
     <!-- $\nu$= 3 -->
     <g transform="translate(94.6 87.426688)scale(0.1 -0.1)">
      <use transform="translate(0 0.78125)" xlink:href="#DejaVuSans-Oblique-3bd"/>
      <use transform="translate(55.859375 0.78125)" xlink:href="#DejaVuSans-3d"/>
      <use transform="translate(139.648438 0.78125)" xlink:href="#DejaVuSans-20"/>
      <use transform="translate(171.435547 0.78125)" xlink:href="#DejaVuSans-33"/>
     </g>
    </g>
    <g id="PathCollection_11">
     <g>
      <use style="fill:#800080;stroke:#800080;" x="76.6" xlink:href="#m19bb8680b7" y="99.479813"/>
     </g>
    </g>
    <g id="text_22">
     <!-- $\nu$= 4 -->
     <g transform="translate(94.6 102.104813)scale(0.1 -0.1)">
      <use transform="translate(0 0.09375)" xlink:href="#DejaVuSans-Oblique-3bd"/>
      <use transform="translate(55.859375 0.09375)" xlink:href="#DejaVuSans-3d"/>
      <use transform="translate(139.648438 0.09375)" xlink:href="#DejaVuSans-20"/>
      <use transform="translate(171.435547 0.09375)" xlink:href="#DejaVuSans-34"/>
     </g>
    </g>
    <g id="PathCollection_12">
     <g>
      <use style="fill:#ffff00;stroke:#ffff00;" x="76.6" xlink:href="#m14baf6497b" y="114.157938"/>
     </g>
    </g>
    <g id="text_23">
     <!-- $\nu$= 5 -->
     <g transform="translate(94.6 116.782938)scale(0.1 -0.1)">
      <use transform="translate(0 0.09375)" xlink:href="#DejaVuSans-Oblique-3bd"/>
      <use transform="translate(55.859375 0.09375)" xlink:href="#DejaVuSans-3d"/>
      <use transform="translate(139.648438 0.09375)" xlink:href="#DejaVuSans-20"/>
      <use transform="translate(171.435547 0.09375)" xlink:href="#DejaVuSans-35"/>
     </g>
    </g>
    <g id="PathCollection_13">
     <g>
      <use style="fill:#ffc0cb;stroke:#ffc0cb;" x="76.6" xlink:href="#m4218774c01" y="128.836063"/>
     </g>
    </g>
    <g id="text_24">
     <!-- $\nu$= 6 -->
     <g transform="translate(94.6 131.461063)scale(0.1 -0.1)">
      <defs>
       <path d="M 2113 2584 
Q 1688 2584 1439 2293 
Q 1191 2003 1191 1497 
Q 1191 994 1439 701 
Q 1688 409 2113 409 
Q 2538 409 2786 701 
Q 3034 994 3034 1497 
Q 3034 2003 2786 2293 
Q 2538 2584 2113 2584 
z
M 3366 4563 
L 3366 3988 
Q 3128 4100 2886 4159 
Q 2644 4219 2406 4219 
Q 1781 4219 1451 3797 
Q 1122 3375 1075 2522 
Q 1259 2794 1537 2939 
Q 1816 3084 2150 3084 
Q 2853 3084 3261 2657 
Q 3669 2231 3669 1497 
Q 3669 778 3244 343 
Q 2819 -91 2113 -91 
Q 1303 -91 875 529 
Q 447 1150 447 2328 
Q 447 3434 972 4092 
Q 1497 4750 2381 4750 
Q 2619 4750 2861 4703 
Q 3103 4656 3366 4563 
z
" id="DejaVuSans-36" transform="scale(0.015625)"/>
      </defs>
      <use transform="translate(0 0.78125)" xlink:href="#DejaVuSans-Oblique-3bd"/>
      <use transform="translate(55.859375 0.78125)" xlink:href="#DejaVuSans-3d"/>
      <use transform="translate(139.648438 0.78125)" xlink:href="#DejaVuSans-20"/>
      <use transform="translate(171.435547 0.78125)" xlink:href="#DejaVuSans-36"/>
     </g>
    </g>
    <g id="PathCollection_14">
     <g>
      <use style="fill:#00ffff;stroke:#00ffff;" x="76.6" xlink:href="#maa02bf44c6" y="143.514188"/>
     </g>
    </g>
    <g id="text_25">
     <!-- $\nu$= 7 -->
     <g transform="translate(94.6 146.139188)scale(0.1 -0.1)">
      <defs>
       <path d="M 525 4666 
L 3525 4666 
L 3525 4397 
L 1831 0 
L 1172 0 
L 2766 4134 
L 525 4134 
L 525 4666 
z
" id="DejaVuSans-37" transform="scale(0.015625)"/>
      </defs>
      <use transform="translate(0 0.09375)" xlink:href="#DejaVuSans-Oblique-3bd"/>
      <use transform="translate(55.859375 0.09375)" xlink:href="#DejaVuSans-3d"/>
      <use transform="translate(139.648438 0.09375)" xlink:href="#DejaVuSans-20"/>
      <use transform="translate(171.435547 0.09375)" xlink:href="#DejaVuSans-37"/>
     </g>
    </g>
   </g>
  </g>
 </g>
 <defs>
  <clipPath id="p133ceb951c">
   <rect height="266.112" width="357.12" x="57.6" y="41.472"/>
  </clipPath>
 </defs>
</svg>
