<?xml version="1.0" encoding="utf-8" standalone="no"?>
<!DOCTYPE svg PUBLIC "-//W3C//DTD SVG 1.1//EN"
  "http://www.w3.org/Graphics/SVG/1.1/DTD/svg11.dtd">
<svg height="345.6pt" version="1.1" viewBox="0 0 460.8 345.6" width="460.8pt" xmlns="http://www.w3.org/2000/svg" xmlns:xlink="http://www.w3.org/1999/xlink">
 <metadata>
  <rdf:RDF xmlns:cc="http://creativecommons.org/ns#" xmlns:dc="http://purl.org/dc/elements/1.1/" xmlns:rdf="http://www.w3.org/1999/02/22-rdf-syntax-ns#">
   <cc:Work>
    <dc:type rdf:resource="http://purl.org/dc/dcmitype/StillImage"/>
    <dc:date>2023-10-27T04:11:38.617264</dc:date>
    <dc:format>image/svg+xml</dc:format>
    <dc:creator>
     <cc:Agent>
      <dc:title>Matplotlib v3.4.3, https://matplotlib.org/</dc:title>
     </cc:Agent>
    </dc:creator>
   </cc:Work>
  </rdf:RDF>
 </metadata>
 <defs>
  <style type="text/css">*{stroke-linecap:butt;stroke-linejoin:round;}</style>
 </defs>
 <g id="figure_1">
  <g id="patch_1">
   <path d="M 0 345.6 
L 460.8 345.6 
L 460.8 0 
L 0 0 
z
" style="fill:#ffffff;"/>
  </g>
  <g id="axes_1">
   <g id="patch_2">
    <path d="M 57.6 307.584 
L 414.72 307.584 
L 414.72 41.472 
L 57.6 41.472 
z
" style="fill:#ffffff;"/>
   </g>
   <g id="matplotlib.axis_1">
    <g id="xtick_1">
     <g id="line2d_1">
      <defs>
       <path d="M 0 0 
L 0 3.5 
" id="m577fa3f1fe" style="stroke:#000000;stroke-width:0.8;"/>
      </defs>
      <g>
       <use style="stroke:#000000;stroke-width:0.8;" x="105.31321" xlink:href="#m577fa3f1fe" y="307.584"/>
      </g>
     </g>
     <g id="text_1">
      <!-- 2 -->
      <g transform="translate(102.13196 322.182437)scale(0.1 -0.1)">
       <defs>
        <path d="M 1228 531 
L 3431 531 
L 3431 0 
L 469 0 
L 469 531 
Q 828 903 1448 1529 
Q 2069 2156 2228 2338 
Q 2531 2678 2651 2914 
Q 2772 3150 2772 3378 
Q 2772 3750 2511 3984 
Q 2250 4219 1831 4219 
Q 1534 4219 1204 4116 
Q 875 4013 500 3803 
L 500 4441 
Q 881 4594 1212 4672 
Q 1544 4750 1819 4750 
Q 2544 4750 2975 4387 
Q 3406 4025 3406 3419 
Q 3406 3131 3298 2873 
Q 3191 2616 2906 2266 
Q 2828 2175 2409 1742 
Q 1991 1309 1228 531 
z
" id="DejaVuSans-32" transform="scale(0.015625)"/>
       </defs>
       <use xlink:href="#DejaVuSans-32"/>
      </g>
     </g>
    </g>
    <g id="xtick_2">
     <g id="line2d_2">
      <g>
       <use style="stroke:#000000;stroke-width:0.8;" x="182.565927" xlink:href="#m577fa3f1fe" y="307.584"/>
      </g>
     </g>
     <g id="text_2">
      <!-- 4 -->
      <g transform="translate(179.384677 322.182437)scale(0.1 -0.1)">
       <defs>
        <path d="M 2419 4116 
L 825 1625 
L 2419 1625 
L 2419 4116 
z
M 2253 4666 
L 3047 4666 
L 3047 1625 
L 3713 1625 
L 3713 1100 
L 3047 1100 
L 3047 0 
L 2419 0 
L 2419 1100 
L 313 1100 
L 313 1709 
L 2253 4666 
z
" id="DejaVuSans-34" transform="scale(0.015625)"/>
       </defs>
       <use xlink:href="#DejaVuSans-34"/>
      </g>
     </g>
    </g>
    <g id="xtick_3">
     <g id="line2d_3">
      <g>
       <use style="stroke:#000000;stroke-width:0.8;" x="259.818645" xlink:href="#m577fa3f1fe" y="307.584"/>
      </g>
     </g>
     <g id="text_3">
      <!-- 6 -->
      <g transform="translate(256.637395 322.182437)scale(0.1 -0.1)">
       <defs>
        <path d="M 2113 2584 
Q 1688 2584 1439 2293 
Q 1191 2003 1191 1497 
Q 1191 994 1439 701 
Q 1688 409 2113 409 
Q 2538 409 2786 701 
Q 3034 994 3034 1497 
Q 3034 2003 2786 2293 
Q 2538 2584 2113 2584 
z
M 3366 4563 
L 3366 3988 
Q 3128 4100 2886 4159 
Q 2644 4219 2406 4219 
Q 1781 4219 1451 3797 
Q 1122 3375 1075 2522 
Q 1259 2794 1537 2939 
Q 1816 3084 2150 3084 
Q 2853 3084 3261 2657 
Q 3669 2231 3669 1497 
Q 3669 778 3244 343 
Q 2819 -91 2113 -91 
Q 1303 -91 875 529 
Q 447 1150 447 2328 
Q 447 3434 972 4092 
Q 1497 4750 2381 4750 
Q 2619 4750 2861 4703 
Q 3103 4656 3366 4563 
z
" id="DejaVuSans-36" transform="scale(0.015625)"/>
       </defs>
       <use xlink:href="#DejaVuSans-36"/>
      </g>
     </g>
    </g>
    <g id="xtick_4">
     <g id="line2d_4">
      <g>
       <use style="stroke:#000000;stroke-width:0.8;" x="337.071362" xlink:href="#m577fa3f1fe" y="307.584"/>
      </g>
     </g>
     <g id="text_4">
      <!-- 8 -->
      <g transform="translate(333.890112 322.182437)scale(0.1 -0.1)">
       <defs>
        <path d="M 2034 2216 
Q 1584 2216 1326 1975 
Q 1069 1734 1069 1313 
Q 1069 891 1326 650 
Q 1584 409 2034 409 
Q 2484 409 2743 651 
Q 3003 894 3003 1313 
Q 3003 1734 2745 1975 
Q 2488 2216 2034 2216 
z
M 1403 2484 
Q 997 2584 770 2862 
Q 544 3141 544 3541 
Q 544 4100 942 4425 
Q 1341 4750 2034 4750 
Q 2731 4750 3128 4425 
Q 3525 4100 3525 3541 
Q 3525 3141 3298 2862 
Q 3072 2584 2669 2484 
Q 3125 2378 3379 2068 
Q 3634 1759 3634 1313 
Q 3634 634 3220 271 
Q 2806 -91 2034 -91 
Q 1263 -91 848 271 
Q 434 634 434 1313 
Q 434 1759 690 2068 
Q 947 2378 1403 2484 
z
M 1172 3481 
Q 1172 3119 1398 2916 
Q 1625 2713 2034 2713 
Q 2441 2713 2670 2916 
Q 2900 3119 2900 3481 
Q 2900 3844 2670 4047 
Q 2441 4250 2034 4250 
Q 1625 4250 1398 4047 
Q 1172 3844 1172 3481 
z
" id="DejaVuSans-38" transform="scale(0.015625)"/>
       </defs>
       <use xlink:href="#DejaVuSans-38"/>
      </g>
     </g>
    </g>
    <g id="xtick_5">
     <g id="line2d_5">
      <g>
       <use style="stroke:#000000;stroke-width:0.8;" x="414.32408" xlink:href="#m577fa3f1fe" y="307.584"/>
      </g>
     </g>
     <g id="text_5">
      <!-- 10 -->
      <g transform="translate(407.96158 322.182437)scale(0.1 -0.1)">
       <defs>
        <path d="M 794 531 
L 1825 531 
L 1825 4091 
L 703 3866 
L 703 4441 
L 1819 4666 
L 2450 4666 
L 2450 531 
L 3481 531 
L 3481 0 
L 794 0 
L 794 531 
z
" id="DejaVuSans-31" transform="scale(0.015625)"/>
        <path d="M 2034 4250 
Q 1547 4250 1301 3770 
Q 1056 3291 1056 2328 
Q 1056 1369 1301 889 
Q 1547 409 2034 409 
Q 2525 409 2770 889 
Q 3016 1369 3016 2328 
Q 3016 3291 2770 3770 
Q 2525 4250 2034 4250 
z
M 2034 4750 
Q 2819 4750 3233 4129 
Q 3647 3509 3647 2328 
Q 3647 1150 3233 529 
Q 2819 -91 2034 -91 
Q 1250 -91 836 529 
Q 422 1150 422 2328 
Q 422 3509 836 4129 
Q 1250 4750 2034 4750 
z
" id="DejaVuSans-30" transform="scale(0.015625)"/>
       </defs>
       <use xlink:href="#DejaVuSans-31"/>
       <use x="63.623047" xlink:href="#DejaVuSans-30"/>
      </g>
     </g>
    </g>
    <g id="text_6">
     <!-- $B$ (T) -->
     <g transform="translate(224.16 335.860562)scale(0.1 -0.1)">
      <defs>
       <path d="M 1081 4666 
L 2694 4666 
Q 3350 4666 3675 4422 
Q 4000 4178 4000 3688 
Q 4000 3238 3720 2911 
Q 3441 2584 2988 2516 
Q 3375 2428 3569 2181 
Q 3763 1934 3763 1522 
Q 3763 819 3242 409 
Q 2722 0 1819 0 
L 172 0 
L 1081 4666 
z
M 1234 2228 
L 903 519 
L 1919 519 
Q 2491 519 2800 781 
Q 3109 1044 3109 1522 
Q 3109 1891 2904 2059 
Q 2700 2228 2247 2228 
L 1234 2228 
z
M 1606 4147 
L 1331 2741 
L 2272 2741 
Q 2775 2741 3058 2959 
Q 3341 3178 3341 3566 
Q 3341 3869 3150 4008 
Q 2959 4147 2541 4147 
L 1606 4147 
z
" id="DejaVuSans-Oblique-42" transform="scale(0.015625)"/>
       <path id="DejaVuSans-20" transform="scale(0.015625)"/>
       <path d="M 1984 4856 
Q 1566 4138 1362 3434 
Q 1159 2731 1159 2009 
Q 1159 1288 1364 580 
Q 1569 -128 1984 -844 
L 1484 -844 
Q 1016 -109 783 600 
Q 550 1309 550 2009 
Q 550 2706 781 3412 
Q 1013 4119 1484 4856 
L 1984 4856 
z
" id="DejaVuSans-28" transform="scale(0.015625)"/>
       <path d="M -19 4666 
L 3928 4666 
L 3928 4134 
L 2272 4134 
L 2272 0 
L 1638 0 
L 1638 4134 
L -19 4134 
L -19 4666 
z
" id="DejaVuSans-54" transform="scale(0.015625)"/>
       <path d="M 513 4856 
L 1013 4856 
Q 1481 4119 1714 3412 
Q 1947 2706 1947 2009 
Q 1947 1309 1714 600 
Q 1481 -109 1013 -844 
L 513 -844 
Q 928 -128 1133 580 
Q 1338 1288 1338 2009 
Q 1338 2731 1133 3434 
Q 928 4138 513 4856 
z
" id="DejaVuSans-29" transform="scale(0.015625)"/>
      </defs>
      <use transform="translate(0 0.125)" xlink:href="#DejaVuSans-Oblique-42"/>
      <use transform="translate(68.603516 0.125)" xlink:href="#DejaVuSans-20"/>
      <use transform="translate(100.390625 0.125)" xlink:href="#DejaVuSans-28"/>
      <use transform="translate(139.404297 0.125)" xlink:href="#DejaVuSans-54"/>
      <use transform="translate(200.488281 0.125)" xlink:href="#DejaVuSans-29"/>
     </g>
    </g>
   </g>
   <g id="matplotlib.axis_2">
    <g id="ytick_1">
     <g id="line2d_6">
      <defs>
       <path d="M 0 0 
L -3.5 0 
" id="m2fa9ea430b" style="stroke:#000000;stroke-width:0.8;"/>
      </defs>
      <g>
       <use style="stroke:#000000;stroke-width:0.8;" x="57.6" xlink:href="#m2fa9ea430b" y="283.921027"/>
      </g>
     </g>
     <g id="text_7">
      <!-- −1.4 -->
      <g transform="translate(26.317187 287.720245)scale(0.1 -0.1)">
       <defs>
        <path d="M 678 2272 
L 4684 2272 
L 4684 1741 
L 678 1741 
L 678 2272 
z
" id="DejaVuSans-2212" transform="scale(0.015625)"/>
        <path d="M 684 794 
L 1344 794 
L 1344 0 
L 684 0 
L 684 794 
z
" id="DejaVuSans-2e" transform="scale(0.015625)"/>
       </defs>
       <use xlink:href="#DejaVuSans-2212"/>
       <use x="83.789062" xlink:href="#DejaVuSans-31"/>
       <use x="147.412109" xlink:href="#DejaVuSans-2e"/>
       <use x="179.199219" xlink:href="#DejaVuSans-34"/>
      </g>
     </g>
    </g>
    <g id="ytick_2">
     <g id="line2d_7">
      <g>
       <use style="stroke:#000000;stroke-width:0.8;" x="57.6" xlink:href="#m2fa9ea430b" y="251.3406"/>
      </g>
     </g>
     <g id="text_8">
      <!-- −1.2 -->
      <g transform="translate(26.317187 255.139819)scale(0.1 -0.1)">
       <use xlink:href="#DejaVuSans-2212"/>
       <use x="83.789062" xlink:href="#DejaVuSans-31"/>
       <use x="147.412109" xlink:href="#DejaVuSans-2e"/>
       <use x="179.199219" xlink:href="#DejaVuSans-32"/>
      </g>
     </g>
    </g>
    <g id="ytick_3">
     <g id="line2d_8">
      <g>
       <use style="stroke:#000000;stroke-width:0.8;" x="57.6" xlink:href="#m2fa9ea430b" y="218.760174"/>
      </g>
     </g>
     <g id="text_9">
      <!-- −1.0 -->
      <g transform="translate(26.317187 222.559392)scale(0.1 -0.1)">
       <use xlink:href="#DejaVuSans-2212"/>
       <use x="83.789062" xlink:href="#DejaVuSans-31"/>
       <use x="147.412109" xlink:href="#DejaVuSans-2e"/>
       <use x="179.199219" xlink:href="#DejaVuSans-30"/>
      </g>
     </g>
    </g>
    <g id="ytick_4">
     <g id="line2d_9">
      <g>
       <use style="stroke:#000000;stroke-width:0.8;" x="57.6" xlink:href="#m2fa9ea430b" y="186.179747"/>
      </g>
     </g>
     <g id="text_10">
      <!-- −0.8 -->
      <g transform="translate(26.317187 189.978966)scale(0.1 -0.1)">
       <use xlink:href="#DejaVuSans-2212"/>
       <use x="83.789062" xlink:href="#DejaVuSans-30"/>
       <use x="147.412109" xlink:href="#DejaVuSans-2e"/>
       <use x="179.199219" xlink:href="#DejaVuSans-38"/>
      </g>
     </g>
    </g>
    <g id="ytick_5">
     <g id="line2d_10">
      <g>
       <use style="stroke:#000000;stroke-width:0.8;" x="57.6" xlink:href="#m2fa9ea430b" y="153.599321"/>
      </g>
     </g>
     <g id="text_11">
      <!-- −0.6 -->
      <g transform="translate(26.317187 157.398539)scale(0.1 -0.1)">
       <use xlink:href="#DejaVuSans-2212"/>
       <use x="83.789062" xlink:href="#DejaVuSans-30"/>
       <use x="147.412109" xlink:href="#DejaVuSans-2e"/>
       <use x="179.199219" xlink:href="#DejaVuSans-36"/>
      </g>
     </g>
    </g>
    <g id="ytick_6">
     <g id="line2d_11">
      <g>
       <use style="stroke:#000000;stroke-width:0.8;" x="57.6" xlink:href="#m2fa9ea430b" y="121.018894"/>
      </g>
     </g>
     <g id="text_12">
      <!-- −0.4 -->
      <g transform="translate(26.317187 124.818113)scale(0.1 -0.1)">
       <use xlink:href="#DejaVuSans-2212"/>
       <use x="83.789062" xlink:href="#DejaVuSans-30"/>
       <use x="147.412109" xlink:href="#DejaVuSans-2e"/>
       <use x="179.199219" xlink:href="#DejaVuSans-34"/>
      </g>
     </g>
    </g>
    <g id="ytick_7">
     <g id="line2d_12">
      <g>
       <use style="stroke:#000000;stroke-width:0.8;" x="57.6" xlink:href="#m2fa9ea430b" y="88.438468"/>
      </g>
     </g>
     <g id="text_13">
      <!-- −0.2 -->
      <g transform="translate(26.317187 92.237687)scale(0.1 -0.1)">
       <use xlink:href="#DejaVuSans-2212"/>
       <use x="83.789062" xlink:href="#DejaVuSans-30"/>
       <use x="147.412109" xlink:href="#DejaVuSans-2e"/>
       <use x="179.199219" xlink:href="#DejaVuSans-32"/>
      </g>
     </g>
    </g>
    <g id="ytick_8">
     <g id="line2d_13">
      <g>
       <use style="stroke:#000000;stroke-width:0.8;" x="57.6" xlink:href="#m2fa9ea430b" y="55.858041"/>
      </g>
     </g>
     <g id="text_14">
      <!-- 0.0 -->
      <g transform="translate(34.696875 59.65726)scale(0.1 -0.1)">
       <use xlink:href="#DejaVuSans-30"/>
       <use x="63.623047" xlink:href="#DejaVuSans-2e"/>
       <use x="95.410156" xlink:href="#DejaVuSans-30"/>
      </g>
     </g>
    </g>
    <g id="text_15">
     <!-- $\rho_\mathrm{xx}$ ($\Omega$) -->
     <g transform="translate(20.217187 191.328)rotate(-90)scale(0.1 -0.1)">
      <defs>
       <path d="M 1203 2875 
Q 1453 3194 1981 3475 
Q 2188 3584 2756 3584 
Q 3394 3584 3694 3078 
Q 3994 2572 3834 1747 
Q 3672 922 3175 415 
Q 2678 -91 2041 -91 
Q 1656 -91 1409 63 
Q 1163 213 1044 525 
L 681 -1331 
L 103 -1331 
L 697 1716 
Q 838 2438 1203 2875 
z
M 3238 1747 
Q 3359 2381 3169 2744 
Q 2978 3103 2522 3103 
Q 2066 3103 1734 2744 
Q 1403 2381 1281 1747 
Q 1156 1113 1347 750 
Q 1538 391 1994 391 
Q 2450 391 2781 750 
Q 3113 1113 3238 1747 
z
" id="DejaVuSans-Oblique-3c1" transform="scale(0.015625)"/>
       <path d="M 3513 3500 
L 2247 1797 
L 3578 0 
L 2900 0 
L 1881 1375 
L 863 0 
L 184 0 
L 1544 1831 
L 300 3500 
L 978 3500 
L 1906 2253 
L 2834 3500 
L 3513 3500 
z
" id="DejaVuSans-78" transform="scale(0.015625)"/>
       <path d="M 4647 556 
L 4647 0 
L 2772 0 
L 2772 556 
Q 3325 859 3634 1378 
Q 3944 1897 3944 2528 
Q 3944 3278 3531 3731 
Q 3119 4184 2444 4184 
Q 1769 4184 1355 3729 
Q 941 3275 941 2528 
Q 941 1897 1250 1378 
Q 1563 859 2119 556 
L 2119 0 
L 244 0 
L 244 556 
L 1241 556 
Q 747 991 519 1456 
Q 294 1922 294 2497 
Q 294 3491 894 4106 
Q 1491 4722 2444 4722 
Q 3391 4722 3994 4106 
Q 4594 3494 4594 2528 
Q 4594 1922 4372 1459 
Q 4150 997 3647 556 
L 4647 556 
z
" id="DejaVuSans-3a9" transform="scale(0.015625)"/>
      </defs>
      <use transform="translate(0 0.125)" xlink:href="#DejaVuSans-Oblique-3c1"/>
      <use transform="translate(63.476562 -16.28125)scale(0.7)" xlink:href="#DejaVuSans-78"/>
      <use transform="translate(104.902344 -16.28125)scale(0.7)" xlink:href="#DejaVuSans-78"/>
      <use transform="translate(149.0625 0.125)" xlink:href="#DejaVuSans-20"/>
      <use transform="translate(180.849609 0.125)" xlink:href="#DejaVuSans-28"/>
      <use transform="translate(219.863281 0.125)" xlink:href="#DejaVuSans-3a9"/>
      <use transform="translate(296.279297 0.125)" xlink:href="#DejaVuSans-29"/>
     </g>
    </g>
    <g id="text_16">
     <!-- 1e−5 -->
     <g transform="translate(57.6 38.472)scale(0.1 -0.1)">
      <defs>
       <path d="M 3597 1894 
L 3597 1613 
L 953 1613 
Q 991 1019 1311 708 
Q 1631 397 2203 397 
Q 2534 397 2845 478 
Q 3156 559 3463 722 
L 3463 178 
Q 3153 47 2828 -22 
Q 2503 -91 2169 -91 
Q 1331 -91 842 396 
Q 353 884 353 1716 
Q 353 2575 817 3079 
Q 1281 3584 2069 3584 
Q 2775 3584 3186 3129 
Q 3597 2675 3597 1894 
z
M 3022 2063 
Q 3016 2534 2758 2815 
Q 2500 3097 2075 3097 
Q 1594 3097 1305 2825 
Q 1016 2553 972 2059 
L 3022 2063 
z
" id="DejaVuSans-65" transform="scale(0.015625)"/>
       <path d="M 691 4666 
L 3169 4666 
L 3169 4134 
L 1269 4134 
L 1269 2991 
Q 1406 3038 1543 3061 
Q 1681 3084 1819 3084 
Q 2600 3084 3056 2656 
Q 3513 2228 3513 1497 
Q 3513 744 3044 326 
Q 2575 -91 1722 -91 
Q 1428 -91 1123 -41 
Q 819 9 494 109 
L 494 744 
Q 775 591 1075 516 
Q 1375 441 1709 441 
Q 2250 441 2565 725 
Q 2881 1009 2881 1497 
Q 2881 1984 2565 2268 
Q 2250 2553 1709 2553 
Q 1456 2553 1204 2497 
Q 953 2441 691 2322 
L 691 4666 
z
" id="DejaVuSans-35" transform="scale(0.015625)"/>
      </defs>
      <use xlink:href="#DejaVuSans-31"/>
      <use x="63.623047" xlink:href="#DejaVuSans-65"/>
      <use x="125.146484" xlink:href="#DejaVuSans-2212"/>
      <use x="208.935547" xlink:href="#DejaVuSans-35"/>
     </g>
    </g>
   </g>
   <g id="line2d_14">
    <path clip-path="url(#p0e806e0676)" d="M 315.054338 257.748494 
L 315.440601 266.542135 
L 315.826865 265.809383 
L 316.213129 267.641264 
L 316.599392 267.641264 
L 316.985656 261.412562 
L 317.371919 264.343879 
L 317.758183 260.67981 
L 318.144446 263.244443 
L 318.53071 258.481246 
L 318.916974 261.412562 
L 319.303237 260.313127 
L 319.689501 260.67981 
L 320.462028 255.916306 
L 320.848292 254.084425 
L 321.234555 258.11487 
L 321.620819 259.580374 
L 322.007082 252.985297 
L 322.393346 261.412562 
L 322.77961 258.11487 
L 323.165873 259.580374 
L 323.552137 252.985297 
L 323.9384 257.748494 
L 324.324664 258.11487 
L 324.710927 255.916306 
L 325.097191 257.015742 
L 325.483455 257.748494 
L 325.869718 255.54993 
L 326.255982 261.412562 
L 326.642245 260.67981 
L 327.028509 259.213998 
L 327.414773 259.213998 
L 327.801036 260.67981 
L 328.1873 258.11487 
L 328.573563 259.213998 
L 328.959827 259.213998 
L 329.346091 255.54993 
L 329.732354 257.382118 
L 330.118618 258.11487 
L 330.504881 259.580374 
L 330.891145 257.015742 
L 331.277408 261.046186 
L 332.049936 257.015742 
L 332.436199 258.11487 
L 332.822463 255.916306 
L 333.208726 259.94675 
L 334.367517 254.450801 
L 334.753781 256.282682 
L 335.140044 258.847622 
L 335.526308 259.94675 
L 335.912572 255.916306 
L 336.298835 261.046186 
L 336.685099 257.748494 
L 337.071362 257.748494 
L 337.457626 257.382118 
L 337.843889 255.183554 
L 338.230153 258.847622 
L 338.616417 261.412562 
L 339.00268 259.213998 
L 339.388944 259.580374 
L 339.775207 256.282682 
L 340.161471 258.11487 
L 340.547735 258.847622 
L 340.933998 257.015742 
L 341.320262 261.412562 
L 341.706525 255.916306 
L 342.092789 260.67981 
L 342.479053 258.11487 
L 342.865316 258.847622 
L 343.25158 261.046186 
L 343.637843 257.382118 
L 344.024107 258.11487 
L 344.41037 259.94675 
L 344.796634 255.183554 
L 345.182898 257.382118 
L 345.569161 252.985297 
L 345.955425 259.94675 
L 346.341688 258.847622 
L 346.727952 261.046186 
L 347.114216 258.11487 
L 347.500479 258.847622 
L 347.886743 262.145315 
L 348.273006 255.916306 
L 348.65927 257.748494 
L 349.045534 256.282682 
L 349.431797 262.511691 
L 350.204324 258.11487 
L 350.590588 257.382118 
L 350.976851 259.213998 
L 351.363115 255.916306 
L 351.749379 258.11487 
L 352.135642 258.847622 
L 352.521906 256.282682 
L 352.908169 257.748494 
L 353.294433 261.412562 
L 353.680697 259.94675 
L 354.06696 257.015742 
L 354.453224 259.580374 
L 354.839487 259.580374 
L 355.225751 260.313127 
L 355.612014 258.11487 
L 355.998278 261.412562 
L 356.384542 259.94675 
L 356.770805 257.382118 
L 357.157069 257.748494 
L 357.543332 261.046186 
L 357.929596 254.084425 
L 358.702123 257.382118 
L 359.088387 255.916306 
L 359.47465 258.11487 
L 359.860914 259.580374 
L 360.247178 255.183554 
L 360.633441 259.213998 
L 361.019705 255.54993 
L 361.405968 257.015742 
L 361.792232 259.94675 
L 362.178495 260.67981 
L 362.564759 259.580374 
L 362.951023 259.213998 
L 363.337286 258.11487 
L 363.72355 257.748494 
L 364.109813 258.11487 
L 364.496077 259.580374 
L 364.882341 258.11487 
L 365.268604 260.67981 
L 365.654868 258.481246 
L 366.041131 259.94675 
L 366.427395 257.382118 
L 366.813659 259.580374 
L 367.199922 258.11487 
L 367.586186 261.412562 
L 367.972449 259.213998 
L 368.358713 259.94675 
L 369.13124 256.282682 
L 369.517504 261.046186 
L 369.903767 255.54993 
L 370.290031 257.382118 
L 370.676294 257.015742 
L 371.062558 256.282682 
L 371.448822 259.213998 
L 371.835085 260.67981 
L 372.221349 257.015742 
L 372.607612 257.748494 
L 372.993876 254.084425 
L 373.38014 257.015742 
L 373.766403 257.382118 
L 374.152667 260.67981 
L 374.53893 260.313127 
L 375.311457 257.015742 
L 375.697721 257.015742 
L 376.083985 261.046186 
L 376.470248 262.145315 
L 376.856512 259.94675 
L 377.242775 261.046186 
L 377.629039 259.580374 
L 378.015303 256.282682 
L 378.401566 258.847622 
L 378.78783 259.580374 
L 379.174093 261.046186 
L 379.560357 260.67981 
L 379.946621 259.580374 
L 380.332884 259.94675 
L 380.719148 260.67981 
L 381.105411 258.847622 
L 381.491675 259.94675 
L 381.877938 259.580374 
L 382.264202 258.481246 
L 382.650466 261.778938 
L 383.036729 262.145315 
L 383.422993 262.145315 
L 383.809256 261.412562 
L 384.19552 259.94675 
L 384.581784 259.580374 
L 384.968047 260.67981 
L 385.354311 262.511691 
L 385.740574 262.145315 
L 386.126838 263.610819 
L 386.513102 260.67981 
L 386.899365 262.145315 
L 387.285629 262.145315 
L 387.671892 262.878067 
L 388.058156 263.244443 
L 388.444419 261.046186 
L 389.216947 264.343879 
L 389.60321 265.443007 
L 389.989474 265.809383 
L 390.375737 263.610819 
L 390.762001 266.175759 
L 391.148265 264.710255 
L 391.534528 265.076631 
L 391.920792 266.175759 
L 392.307055 266.542135 
L 392.693319 270.938956 
L 393.079582 271.305332 
L 393.465846 266.542135 
L 393.85211 273.503896 
L 394.238373 272.404768 
L 394.624637 274.236648 
L 395.0109 273.870272 
L 395.397164 277.900717 
L 395.783428 278.999845 
L 396.169691 281.198409 
L 396.555955 285.59523 
L 396.942218 287.060735 
L 397.328482 284.129726 
L 397.714746 290.724803 
L 398.101009 292.190615 
L 398.487273 295.488 
L 398.487273 295.488 
" style="fill:none;stroke:#000000;stroke-linecap:square;stroke-width:1.5;"/>
   </g>
   <g id="line2d_15">
    <path clip-path="url(#p0e806e0676)" d="M 315.054338 257.748494 
L 315.440601 266.542135 
L 315.826865 265.809383 
L 316.213129 267.641263 
L 316.599392 267.641263 
L 316.985656 261.412562 
L 317.371919 264.343878 
L 317.758183 260.67981 
L 318.144446 263.244443 
L 318.53071 258.481246 
L 318.916974 261.412562 
L 319.303237 260.313126 
L 319.689501 260.67981 
L 320.462028 255.916306 
L 320.848292 254.084425 
L 321.234555 258.11487 
L 321.620819 259.580374 
L 322.007082 252.985297 
L 322.393346 261.412562 
L 322.77961 258.11487 
L 323.165873 259.580374 
L 323.552137 252.985297 
L 323.9384 257.748494 
L 324.324664 258.11487 
L 324.710927 255.916306 
L 325.097191 257.015741 
L 325.483455 257.748494 
L 325.869718 255.549929 
L 326.255982 261.412562 
L 326.642245 260.67981 
L 327.028509 259.213998 
L 327.414773 259.213998 
L 327.801036 260.67981 
L 328.1873 258.11487 
L 328.573563 259.213998 
L 328.959827 259.213998 
L 329.346091 255.549929 
L 329.732354 257.382117 
L 330.118618 258.11487 
L 330.504881 259.580374 
L 330.891145 257.015741 
L 331.277408 261.046186 
L 332.049936 257.015741 
L 332.436199 258.11487 
L 332.822463 255.916306 
L 333.208726 259.94675 
L 334.367517 254.450801 
L 334.753781 256.282682 
L 335.140044 258.847622 
L 335.526308 259.94675 
L 335.912572 255.916306 
L 336.298835 261.046186 
L 336.685099 257.748494 
L 337.071362 257.748494 
L 337.457626 257.382117 
L 337.843889 255.183553 
L 338.230153 258.847622 
L 338.616417 261.412562 
L 339.00268 259.213998 
L 339.388944 259.580374 
L 339.775207 256.282682 
L 340.161471 258.11487 
L 340.547735 258.847622 
L 340.933998 257.015741 
L 341.320262 261.412562 
L 341.706525 255.916306 
L 342.092789 260.67981 
L 342.479053 258.11487 
L 342.865316 258.847622 
L 343.25158 261.046186 
L 343.637843 257.382117 
L 344.024107 258.11487 
L 344.41037 259.94675 
L 344.796634 255.183553 
L 345.182898 257.382117 
L 345.569161 252.985297 
L 345.955425 259.94675 
L 346.341688 258.847622 
L 346.727952 261.046186 
L 347.114216 258.11487 
L 347.500479 258.847622 
L 347.886743 262.145314 
L 348.273006 255.916306 
L 348.65927 257.748494 
L 349.045534 256.282682 
L 349.431797 262.51169 
L 350.204324 258.11487 
L 350.590588 257.382117 
L 350.976851 259.213998 
L 351.363115 255.916306 
L 351.749379 258.11487 
L 352.135642 258.847622 
L 352.521906 256.282682 
L 352.908169 257.748494 
L 353.294433 261.412562 
L 353.680697 259.94675 
L 354.06696 257.015741 
L 354.453224 259.580374 
L 354.839487 259.580374 
L 355.225751 260.313126 
L 355.612014 258.11487 
L 355.998278 261.412562 
L 356.384542 259.94675 
L 356.770805 257.382117 
L 357.157069 257.748494 
L 357.543332 261.046186 
L 357.929596 254.084425 
L 358.702123 257.382117 
L 359.088387 255.916306 
L 359.47465 258.11487 
L 359.860914 259.580374 
L 360.247178 255.183553 
L 360.633441 259.213998 
L 361.019705 255.549929 
L 361.405968 257.015741 
L 361.792232 259.94675 
L 362.178495 260.67981 
L 362.564759 259.580374 
L 362.951023 259.213998 
L 363.337286 258.11487 
L 363.72355 257.748494 
L 364.109813 258.11487 
L 364.496077 259.580374 
L 364.882341 258.11487 
L 365.268604 260.67981 
L 365.654868 258.481246 
L 366.041131 259.94675 
L 366.427395 257.382117 
L 366.813659 259.580374 
L 367.199922 258.11487 
L 367.586186 261.412562 
L 367.972449 259.213998 
L 368.358713 259.94675 
L 369.13124 256.282682 
L 369.517504 261.046186 
L 369.903767 255.549929 
L 370.290031 257.382117 
L 370.676294 257.015741 
L 371.062558 256.282682 
L 371.448822 259.213998 
L 371.835085 260.67981 
L 372.221349 257.015741 
L 372.607612 257.748494 
L 372.993876 254.084425 
L 373.38014 257.015741 
L 373.766403 257.382117 
L 374.152667 260.67981 
L 374.53893 260.313126 
L 375.311457 257.015741 
L 375.697721 257.015741 
L 376.083985 261.046186 
L 376.470248 262.145314 
L 376.856512 259.94675 
L 377.242775 261.046186 
L 377.629039 259.580374 
L 378.015303 256.282682 
L 378.401566 258.847622 
L 378.78783 259.580374 
L 379.174093 261.046186 
L 379.560357 260.67981 
L 379.946621 259.580374 
L 380.332884 259.94675 
L 380.719148 260.67981 
L 381.105411 258.847622 
L 381.491675 259.94675 
L 381.877938 259.580374 
L 382.264202 258.481246 
L 382.650466 261.778938 
L 383.036729 262.145314 
L 383.422993 262.145314 
L 383.809256 261.412562 
L 384.19552 259.94675 
L 384.581784 259.580374 
L 384.968047 260.67981 
L 385.354311 262.51169 
L 385.740574 262.145314 
L 386.126838 263.610819 
L 386.513102 260.67981 
L 386.899365 262.145314 
L 387.285629 262.145314 
L 387.671892 262.878067 
L 388.058156 263.244443 
L 388.444419 261.046186 
L 389.216947 264.343878 
L 389.60321 265.443007 
L 389.989474 265.809383 
L 390.375737 263.610819 
L 390.762001 266.175759 
L 391.148265 264.710254 
L 391.534528 265.076631 
L 391.920792 266.175759 
L 392.307055 266.542135 
L 392.693319 270.938956 
L 393.079582 271.305332 
L 393.465846 266.542135 
L 393.85211 273.503896 
L 394.238373 272.404768 
L 394.624637 274.236648 
L 395.0109 273.870272 
L 395.397164 277.900717 
L 395.783428 278.999845 
L 396.169691 281.198409 
L 396.555955 285.59523 
L 396.942218 287.060734 
L 397.328482 284.129725 
L 397.714746 290.724803 
L 398.101009 292.190615 
L 398.487273 295.488 
L 398.487273 295.488 
" style="fill:none;stroke:#0000ff;stroke-dasharray:1.5,2.475;stroke-dashoffset:0;stroke-width:1.5;"/>
   </g>
   <g id="line2d_16">
    <path clip-path="url(#p0e806e0676)" d="M 178.703291 127.6736 
L 178.896423 130.971292 
L 179.089555 136.284361 
L 179.282687 125.658531 
L 179.475819 124.559403 
L 179.66895 127.307224 
L 179.862082 125.658531 
L 180.055214 127.6736 
L 180.248346 128.223472 
L 180.441477 126.208096 
L 180.634609 130.788104 
L 180.827741 130.971292 
L 181.020873 128.039976 
L 181.214005 127.490412 
L 181.407136 122.727215 
L 181.600268 128.773036 
L 181.7934 126.940848 
L 181.986532 124.925779 
L 182.179664 129.3226 
L 182.372795 123.826343 
L 182.565927 130.23854 
L 182.759059 128.223472 
L 182.952191 124.925779 
L 183.145323 127.307224 
L 183.338454 130.421728 
L 183.531586 129.139412 
L 183.724718 128.773036 
L 183.91785 129.139412 
L 184.110982 128.773036 
L 184.304113 127.856788 
L 184.497245 126.208096 
L 184.690377 128.40666 
L 184.883509 124.559403 
L 185.076641 131.704045 
L 185.269772 128.40666 
L 185.462904 129.872164 
L 185.656036 124.925779 
L 185.849168 129.3226 
L 186.042299 127.856788 
L 186.235431 123.276779 
L 186.428563 125.475343 
L 186.621695 128.773036 
L 186.814827 126.391284 
L 187.007958 128.223472 
L 187.20109 127.124036 
L 187.394222 123.093591 
L 187.587354 129.139412 
L 187.780486 131.704045 
L 187.973617 125.658531 
L 188.166749 128.589848 
L 188.359881 124.925779 
L 188.553013 133.536233 
L 188.746145 125.292155 
L 188.939276 129.505788 
L 189.132408 126.208096 
L 189.32554 129.505788 
L 189.518672 127.124036 
L 189.711804 128.039976 
L 189.904935 124.009531 
L 190.098067 126.208096 
L 190.291199 124.742591 
L 190.484331 128.223472 
L 190.677463 126.940848 
L 190.870594 130.055352 
L 191.063726 127.124036 
L 191.256858 126.574472 
L 191.44999 121.261711 
L 191.643122 128.40666 
L 191.836253 123.643155 
L 192.029385 126.940848 
L 192.222517 127.124036 
L 192.415649 130.604916 
L 192.60878 127.856788 
L 192.801912 128.40666 
L 192.995044 127.307224 
L 193.188176 128.223472 
L 193.381308 124.925779 
L 193.574439 130.971292 
L 193.767571 124.925779 
L 193.960703 127.124036 
L 194.153835 126.024907 
L 194.346967 123.826343 
L 194.540098 129.688976 
L 194.73323 129.688976 
L 194.926362 127.856788 
L 195.119494 126.024907 
L 195.312626 127.490412 
L 195.505757 129.139412 
L 195.698889 124.925779 
L 195.892021 129.3226 
L 196.085153 131.520857 
L 196.278285 128.773036 
L 196.471416 127.124036 
L 196.664548 127.124036 
L 196.85768 125.658531 
L 197.050812 126.391284 
L 197.243944 129.505788 
L 197.437075 130.23854 
L 197.630207 127.490412 
L 197.823339 122.910403 
L 198.016471 125.108967 
L 198.209603 126.208096 
L 198.402734 127.856788 
L 198.595866 128.039976 
L 198.788998 128.039976 
L 198.98213 127.856788 
L 199.175261 129.872164 
L 199.368393 124.559403 
L 199.561525 126.208096 
L 199.754657 128.956224 
L 199.947789 125.658531 
L 200.14092 123.643155 
L 200.334052 124.742591 
L 200.527184 124.19272 
L 200.720316 119.979087 
L 200.913448 120.34577 
L 201.106579 118.147206 
" style="fill:none;stroke:#000000;stroke-linecap:square;stroke-width:1.5;"/>
   </g>
   <g id="line2d_17">
    <path clip-path="url(#p0e806e0676)" d="M 178.703291 127.6736 
L 178.896423 130.971292 
L 179.089555 136.284361 
L 179.282687 125.658531 
L 179.475819 124.559403 
L 179.66895 127.307224 
L 179.862082 125.658531 
L 180.055214 127.6736 
L 180.248346 128.223471 
L 180.441477 126.208095 
L 180.634609 130.788104 
L 180.827741 130.971292 
L 181.020873 128.039976 
L 181.214005 127.490412 
L 181.407136 122.727215 
L 181.600268 128.773036 
L 181.7934 126.940848 
L 181.986532 124.925779 
L 182.179664 129.3226 
L 182.372795 123.826343 
L 182.565927 130.23854 
L 182.759059 128.223471 
L 182.952191 124.925779 
L 183.145323 127.307224 
L 183.338454 130.421728 
L 183.531586 129.139412 
L 183.724718 128.773036 
L 183.91785 129.139412 
L 184.110982 128.773036 
L 184.304113 127.856788 
L 184.497245 126.208095 
L 184.690377 128.40666 
L 184.883509 124.559403 
L 185.076641 131.704045 
L 185.269772 128.40666 
L 185.462904 129.872164 
L 185.656036 124.925779 
L 185.849168 129.3226 
L 186.042299 127.856788 
L 186.235431 123.276779 
L 186.428563 125.475343 
L 186.621695 128.773036 
L 186.814827 126.391284 
L 187.007958 128.223471 
L 187.20109 127.124036 
L 187.394222 123.093591 
L 187.587354 129.139412 
L 187.780486 131.704045 
L 187.973617 125.658531 
L 188.166749 128.589848 
L 188.359881 124.925779 
L 188.553013 133.536233 
L 188.746145 125.292155 
L 188.939276 129.505788 
L 189.132408 126.208095 
L 189.32554 129.505788 
L 189.518672 127.124036 
L 189.711804 128.039976 
L 189.904935 124.009531 
L 190.098067 126.208095 
L 190.291199 124.742591 
L 190.484331 128.223471 
L 190.677463 126.940848 
L 190.870594 130.055352 
L 191.063726 127.124036 
L 191.256858 126.574472 
L 191.44999 121.261711 
L 191.643122 128.40666 
L 191.836253 123.643155 
L 192.029385 126.940848 
L 192.222517 127.124036 
L 192.415649 130.604916 
L 192.60878 127.856788 
L 192.801912 128.40666 
L 192.995044 127.307224 
L 193.188176 128.223471 
L 193.381308 124.925779 
L 193.574439 130.971292 
L 193.767571 124.925779 
L 193.960703 127.124036 
L 194.153835 126.024907 
L 194.346967 123.826343 
L 194.540098 129.688976 
L 194.73323 129.688976 
L 194.926362 127.856788 
L 195.119494 126.024907 
L 195.312626 127.490412 
L 195.505757 129.139412 
L 195.698889 124.925779 
L 195.892021 129.3226 
L 196.085153 131.520857 
L 196.278285 128.773036 
L 196.471416 127.124036 
L 196.664548 127.124036 
L 196.85768 125.658531 
L 197.050812 126.391284 
L 197.243944 129.505788 
L 197.437075 130.23854 
L 197.630207 127.490412 
L 197.823339 122.910403 
L 198.016471 125.108967 
L 198.209603 126.208095 
L 198.402734 127.856788 
L 198.595866 128.039976 
L 198.788998 128.039976 
L 198.98213 127.856788 
L 199.175261 129.872164 
L 199.368393 124.559403 
L 199.561525 126.208095 
L 199.754657 128.956224 
L 199.947789 125.658531 
L 200.14092 123.643155 
L 200.334052 124.742591 
L 200.527184 124.192719 
L 200.720316 119.979087 
L 200.913448 120.34577 
L 201.106579 118.147206 
" style="fill:none;stroke:#ff0000;stroke-dasharray:1.5,2.475;stroke-dashoffset:0;stroke-width:1.5;"/>
   </g>
   <g id="line2d_18">
    <path clip-path="url(#p0e806e0676)" d="M 131.386002 88.834658 
L 131.579134 88.468282 
L 131.772265 91.582786 
L 131.965397 90.666539 
L 132.158529 97.445111 
L 132.351661 95.613231 
L 132.544793 95.979607 
L 132.737924 97.078735 
L 132.931056 97.811488 
L 133.124188 95.613231 
L 133.31732 94.696983 
L 133.510452 98.727428 
L 133.703583 98.727428 
L 133.896715 100.742804 
L 134.089847 98.727428 
L 134.282979 97.261923 
L 134.476111 95.979607 
L 134.669242 95.063667 
L 134.862374 96.345983 
L 135.055506 94.330607 
L 135.248638 95.063667 
L 135.44177 98.361052 
L 135.634901 99.094111 
L 135.828033 95.979607 
L 136.021165 97.811488 
L 136.214297 97.811488 
L 136.407428 97.078735 
L 136.60056 97.811488 
L 136.793692 97.811488 
L 136.986824 96.162795 
L 137.179956 97.078735 
L 137.373087 95.796419 
L 137.566219 96.895547 
L 137.759351 98.54424 
L 137.952483 94.513795 
L 138.145615 95.246855 
L 138.338746 98.54424 
L 138.531878 97.6283 
L 138.72501 97.445111 
L 138.918142 97.994676 
L 139.111274 93.414667 
L 139.304405 97.078735 
L 139.497537 97.994676 
L 139.690669 96.895547 
L 139.883801 97.6283 
L 140.076933 97.6283 
L 140.270064 96.712359 
L 140.463196 94.513795 
L 140.656328 95.979607 
L 140.84946 91.949162 
L 141.042592 90.849727 
L 141.235723 92.865103 
L 141.428855 93.964231 
L 141.621987 91.949162 
L 141.815119 91.399598 
L 142.008251 87.73553 
L 142.201382 85.720215 
L 142.394514 84.987401 
L 142.587646 83.888181 
L 142.780778 85.536996 
L 142.973909 81.872959 
L 143.167041 83.338555 
L 143.360173 77.109608 
L 143.553305 75.643981 
L 143.746437 72.529538 
L 143.939568 66.483809 
L 144.1327 58.789302 
" style="fill:none;stroke:#000000;stroke-linecap:square;stroke-width:1.5;"/>
   </g>
   <g id="line2d_19">
    <path clip-path="url(#p0e806e0676)" d="M 131.386002 88.834658 
L 131.579134 88.468282 
L 131.772265 91.582786 
L 131.965397 90.666539 
L 132.158529 97.445111 
L 132.351661 95.613231 
L 132.544793 95.979607 
L 132.737924 97.078735 
L 132.931056 97.811488 
L 133.124188 95.613231 
L 133.31732 94.696983 
L 133.510452 98.727428 
L 133.703583 98.727428 
L 133.896715 100.742804 
L 134.089847 98.727428 
L 134.282979 97.261923 
L 134.476111 95.979607 
L 134.669242 95.063667 
L 134.862374 96.345983 
L 135.055506 94.330607 
L 135.248638 95.063667 
L 135.44177 98.361052 
L 135.634901 99.094111 
L 135.828033 95.979607 
L 136.021165 97.811488 
L 136.214297 97.811488 
L 136.407428 97.078735 
L 136.60056 97.811488 
L 136.793692 97.811488 
L 136.986824 96.162795 
L 137.179956 97.078735 
L 137.373087 95.796419 
L 137.566219 96.895547 
L 137.759351 98.54424 
L 137.952483 94.513795 
L 138.145615 95.246855 
L 138.338746 98.54424 
L 138.531878 97.6283 
L 138.72501 97.445111 
L 138.918142 97.994676 
L 139.111274 93.414667 
L 139.304405 97.078735 
L 139.497537 97.994676 
L 139.690669 96.895547 
L 139.883801 97.6283 
L 140.076933 97.6283 
L 140.270064 96.712359 
L 140.463196 94.513795 
L 140.656328 95.979607 
L 140.84946 91.949162 
L 141.042592 90.849727 
L 141.235723 92.865103 
L 141.428855 93.964231 
L 141.621987 91.949162 
L 141.815119 91.399598 
L 142.008251 87.73553 
L 142.201382 85.720215 
L 142.394514 84.987401 
L 142.587646 83.888181 
L 142.780778 85.536996 
L 142.973909 81.872959 
L 143.167041 83.338555 
L 143.360173 77.109608 
L 143.553305 75.643981 
L 143.746437 72.529538 
L 143.939568 66.483809 
L 144.1327 58.789302 
" style="fill:none;stroke:#ffa500;stroke-dasharray:1.5,2.475;stroke-dashoffset:0;stroke-width:1.5;"/>
   </g>
   <g id="line2d_20">
    <path clip-path="url(#p0e806e0676)" d="M 103.381892 89.56741 
L 103.575024 87.918718 
L 103.768155 87.00247 
L 103.961287 83.704962 
L 104.154419 80.407331 
L 104.347551 85.262184 
L 104.540682 82.239365 
L 104.733814 82.147741 
L 104.926946 82.972179 
L 105.120078 83.43018 
L 105.31321 81.048551 
L 105.506341 83.613368 
L 105.699473 80.682144 
L 105.892605 84.620995 
L 106.085737 82.514148 
L 106.278869 80.224143 
L 106.472 80.956926 
L 106.665132 80.682144 
L 106.858264 83.796587 
L 107.051396 83.888181 
L 107.244528 82.972179 
L 107.437659 84.346182 
L 107.630791 86.910876 
L 107.823923 82.056147 
L 108.017055 82.880554 
L 108.210187 85.445402 
L 108.403318 84.620995 
L 108.59645 85.353808 
L 108.789582 87.185966 
L 108.982714 81.140145 
L 109.175846 84.162994 
L 109.368977 81.68974 
L 109.562109 83.063773 
L 109.755241 86.910876 
L 109.948373 85.903403 
L 110.141505 84.254588 
L 110.334636 81.872959 
L 110.527768 84.529401 
L 110.7209 83.155367 
L 110.914032 83.246961 
L 111.107163 83.063773 
L 111.300295 79.033236 
L 111.493427 86.727688 
L 111.686559 81.323333 
L 111.879691 82.056147 
L 112.072822 84.254588 
L 112.265954 80.865332 
L 112.459086 83.063773 
L 112.652218 81.140145 
L 112.84535 82.330959 
L 113.038481 80.59055 
L 113.231613 84.712589 
L 113.424745 78.941612 
L 113.617877 79.308111 
L 113.811009 75.18598 
L 114.00414 76.2852 
L 114.197272 73.995165 
L 114.390404 71.430317 
L 114.583536 67.491436 
L 114.776668 61.628926 
" style="fill:none;stroke:#000000;stroke-linecap:square;stroke-width:1.5;"/>
   </g>
   <g id="line2d_21">
    <path clip-path="url(#p0e806e0676)" d="M 103.381892 89.56741 
L 103.575024 87.918718 
L 103.768155 87.00247 
L 103.961287 83.704962 
L 104.154419 80.407331 
L 104.347551 85.262184 
L 104.540682 82.239365 
L 104.733814 82.147741 
L 104.926946 82.972179 
L 105.120078 83.43018 
L 105.31321 81.048551 
L 105.506341 83.613368 
L 105.699473 80.682144 
L 105.892605 84.620995 
L 106.085737 82.514147 
L 106.278869 80.224143 
L 106.472 80.956926 
L 106.665132 80.682144 
L 106.858264 83.796587 
L 107.051396 83.888181 
L 107.244528 82.972179 
L 107.437659 84.346182 
L 107.630791 86.910876 
L 107.823923 82.056147 
L 108.017055 82.880554 
L 108.210187 85.445402 
L 108.403318 84.620995 
L 108.59645 85.353808 
L 108.789582 87.185965 
L 108.982714 81.140145 
L 109.175846 84.162994 
L 109.368977 81.68974 
L 109.562109 83.063773 
L 109.755241 86.910876 
L 109.948373 85.903403 
L 110.141505 84.254588 
L 110.334636 81.872959 
L 110.527768 84.529401 
L 110.7209 83.155367 
L 110.914032 83.246961 
L 111.107163 83.063773 
L 111.300295 79.033236 
L 111.493427 86.727688 
L 111.686559 81.323333 
L 111.879691 82.056147 
L 112.072822 84.254588 
L 112.265954 80.865332 
L 112.459086 83.063773 
L 112.652218 81.140145 
L 112.84535 82.330959 
L 113.038481 80.59055 
L 113.231613 84.712589 
L 113.424745 78.941612 
L 113.617877 79.308111 
L 113.811009 75.18598 
L 114.00414 76.2852 
L 114.197272 73.995165 
L 114.390404 71.430317 
L 114.583536 67.491436 
L 114.776668 61.628926 
" style="fill:none;stroke:#800080;stroke-dasharray:1.5,2.475;stroke-dashoffset:0;stroke-width:1.5;"/>
   </g>
   <g id="line2d_22">
    <path clip-path="url(#p0e806e0676)" d="M 90.828325 74.361572 
L 91.021457 80.040924 
L 91.214589 76.559982 
L 91.407721 81.506552 
L 91.600852 78.575235 
L 91.793984 77.567609 
L 91.987116 79.033236 
L 92.180248 76.376794 
L 92.373379 77.567609 
L 92.566511 76.193576 
L 92.759643 75.827199 
L 92.952775 77.750797 
L 93.145907 77.750797 
L 93.339038 75.277574 
L 93.53217 75.735575 
L 93.725302 78.02561 
L 93.918434 80.498925 
L 94.111566 78.850018 
L 94.304697 75.094386 
L 94.497829 75.18598 
L 94.690961 77.750797 
L 94.884093 79.491329 
L 95.077225 77.659203 
L 95.270356 73.720352 
" style="fill:none;stroke:#000000;stroke-linecap:square;stroke-width:1.5;"/>
   </g>
   <g id="line2d_23">
    <path clip-path="url(#p0e806e0676)" d="M 90.828325 74.361572 
L 91.021457 80.040924 
L 91.214589 76.559982 
L 91.407721 81.506552 
L 91.600852 78.575235 
L 91.793984 77.567609 
L 91.987116 79.033236 
L 92.180248 76.376794 
L 92.373379 77.567609 
L 92.566511 76.193576 
L 92.759643 75.827199 
L 92.952775 77.750797 
L 93.145907 77.750797 
L 93.339038 75.277574 
L 93.53217 75.735575 
L 93.725302 78.02561 
L 93.918434 80.498925 
L 94.111566 78.850017 
L 94.304697 75.094386 
L 94.497829 75.18598 
L 94.690961 77.750797 
L 94.884093 79.491329 
L 95.077225 77.659203 
L 95.270356 73.720352 
" style="fill:none;stroke:#ffff00;stroke-dasharray:1.5,2.475;stroke-dashoffset:0;stroke-width:1.5;"/>
   </g>
   <g id="line2d_24">
    <path clip-path="url(#p0e806e0676)" d="M 79.240418 53.568 
L 79.433549 61.354144 
L 79.626681 66.575434 
L 79.819813 72.34635 
L 80.012945 73.262351 
L 80.206076 74.453166 
L 80.399208 73.262351 
L 80.59234 70.147909 
L 80.785472 74.911167 
L 80.978604 72.071537 
L 81.171735 72.163131 
L 81.364867 71.338723 
L 81.557999 74.453166 
L 81.751131 73.44557 
L 81.944263 72.712757 
L 82.137394 73.628758 
L 82.330526 70.056315 
L 82.523658 77.292796 
L 82.71679 73.44557 
" style="fill:none;stroke:#000000;stroke-linecap:square;stroke-width:1.5;"/>
   </g>
   <g id="line2d_25">
    <path clip-path="url(#p0e806e0676)" d="M 79.240418 53.568 
L 79.433549 61.354144 
L 79.626681 66.575434 
L 79.819813 72.34635 
L 80.012945 73.262351 
L 80.206076 74.453166 
L 80.399208 73.262351 
L 80.59234 70.147909 
L 80.785472 74.911167 
L 80.978604 72.071537 
L 81.171735 72.163131 
L 81.364867 71.338723 
L 81.557999 74.453166 
L 81.751131 73.44557 
L 81.944263 72.712757 
L 82.137394 73.628758 
L 82.330526 70.056315 
L 82.523658 77.292796 
L 82.71679 73.44557 
" style="fill:none;stroke:#ffc0cb;stroke-dasharray:1.5,2.475;stroke-dashoffset:0;stroke-width:1.5;"/>
   </g>
   <g id="line2d_26">
    <path clip-path="url(#p0e806e0676)" d="M 73.832727 68.682281 
L 74.025859 70.880722 
L 74.218991 70.972316 
" style="fill:none;stroke:#000000;stroke-linecap:square;stroke-width:1.5;"/>
   </g>
   <g id="line2d_27">
    <path clip-path="url(#p0e806e0676)" d="M 73.832727 68.682281 
L 74.025859 70.880722 
L 74.218991 70.972316 
" style="fill:none;stroke:#00ffff;stroke-dasharray:1.5,2.475;stroke-dashoffset:0;stroke-width:1.5;"/>
   </g>
   <g id="patch_3">
    <path d="M 57.6 307.584 
L 57.6 41.472 
" style="fill:none;stroke:#000000;stroke-linecap:square;stroke-linejoin:miter;stroke-width:0.8;"/>
   </g>
   <g id="patch_4">
    <path d="M 414.72 307.584 
L 414.72 41.472 
" style="fill:none;stroke:#000000;stroke-linecap:square;stroke-linejoin:miter;stroke-width:0.8;"/>
   </g>
   <g id="patch_5">
    <path d="M 57.6 307.584 
L 414.72 307.584 
" style="fill:none;stroke:#000000;stroke-linecap:square;stroke-linejoin:miter;stroke-width:0.8;"/>
   </g>
   <g id="patch_6">
    <path d="M 57.6 41.472 
L 414.72 41.472 
" style="fill:none;stroke:#000000;stroke-linecap:square;stroke-linejoin:miter;stroke-width:0.8;"/>
   </g>
   <g id="text_17">
    <!-- Parallel Resistivity, $\nu$ = 1-7 -->
    <g transform="translate(155.34 35.472)scale(0.12 -0.12)">
     <defs>
      <path d="M 1259 4147 
L 1259 2394 
L 2053 2394 
Q 2494 2394 2734 2622 
Q 2975 2850 2975 3272 
Q 2975 3691 2734 3919 
Q 2494 4147 2053 4147 
L 1259 4147 
z
M 628 4666 
L 2053 4666 
Q 2838 4666 3239 4311 
Q 3641 3956 3641 3272 
Q 3641 2581 3239 2228 
Q 2838 1875 2053 1875 
L 1259 1875 
L 1259 0 
L 628 0 
L 628 4666 
z
" id="DejaVuSans-50" transform="scale(0.015625)"/>
      <path d="M 2194 1759 
Q 1497 1759 1228 1600 
Q 959 1441 959 1056 
Q 959 750 1161 570 
Q 1363 391 1709 391 
Q 2188 391 2477 730 
Q 2766 1069 2766 1631 
L 2766 1759 
L 2194 1759 
z
M 3341 1997 
L 3341 0 
L 2766 0 
L 2766 531 
Q 2569 213 2275 61 
Q 1981 -91 1556 -91 
Q 1019 -91 701 211 
Q 384 513 384 1019 
Q 384 1609 779 1909 
Q 1175 2209 1959 2209 
L 2766 2209 
L 2766 2266 
Q 2766 2663 2505 2880 
Q 2244 3097 1772 3097 
Q 1472 3097 1187 3025 
Q 903 2953 641 2809 
L 641 3341 
Q 956 3463 1253 3523 
Q 1550 3584 1831 3584 
Q 2591 3584 2966 3190 
Q 3341 2797 3341 1997 
z
" id="DejaVuSans-61" transform="scale(0.015625)"/>
      <path d="M 2631 2963 
Q 2534 3019 2420 3045 
Q 2306 3072 2169 3072 
Q 1681 3072 1420 2755 
Q 1159 2438 1159 1844 
L 1159 0 
L 581 0 
L 581 3500 
L 1159 3500 
L 1159 2956 
Q 1341 3275 1631 3429 
Q 1922 3584 2338 3584 
Q 2397 3584 2469 3576 
Q 2541 3569 2628 3553 
L 2631 2963 
z
" id="DejaVuSans-72" transform="scale(0.015625)"/>
      <path d="M 603 4863 
L 1178 4863 
L 1178 0 
L 603 0 
L 603 4863 
z
" id="DejaVuSans-6c" transform="scale(0.015625)"/>
      <path d="M 2841 2188 
Q 3044 2119 3236 1894 
Q 3428 1669 3622 1275 
L 4263 0 
L 3584 0 
L 2988 1197 
Q 2756 1666 2539 1819 
Q 2322 1972 1947 1972 
L 1259 1972 
L 1259 0 
L 628 0 
L 628 4666 
L 2053 4666 
Q 2853 4666 3247 4331 
Q 3641 3997 3641 3322 
Q 3641 2881 3436 2590 
Q 3231 2300 2841 2188 
z
M 1259 4147 
L 1259 2491 
L 2053 2491 
Q 2509 2491 2742 2702 
Q 2975 2913 2975 3322 
Q 2975 3731 2742 3939 
Q 2509 4147 2053 4147 
L 1259 4147 
z
" id="DejaVuSans-52" transform="scale(0.015625)"/>
      <path d="M 2834 3397 
L 2834 2853 
Q 2591 2978 2328 3040 
Q 2066 3103 1784 3103 
Q 1356 3103 1142 2972 
Q 928 2841 928 2578 
Q 928 2378 1081 2264 
Q 1234 2150 1697 2047 
L 1894 2003 
Q 2506 1872 2764 1633 
Q 3022 1394 3022 966 
Q 3022 478 2636 193 
Q 2250 -91 1575 -91 
Q 1294 -91 989 -36 
Q 684 19 347 128 
L 347 722 
Q 666 556 975 473 
Q 1284 391 1588 391 
Q 1994 391 2212 530 
Q 2431 669 2431 922 
Q 2431 1156 2273 1281 
Q 2116 1406 1581 1522 
L 1381 1569 
Q 847 1681 609 1914 
Q 372 2147 372 2553 
Q 372 3047 722 3315 
Q 1072 3584 1716 3584 
Q 2034 3584 2315 3537 
Q 2597 3491 2834 3397 
z
" id="DejaVuSans-73" transform="scale(0.015625)"/>
      <path d="M 603 3500 
L 1178 3500 
L 1178 0 
L 603 0 
L 603 3500 
z
M 603 4863 
L 1178 4863 
L 1178 4134 
L 603 4134 
L 603 4863 
z
" id="DejaVuSans-69" transform="scale(0.015625)"/>
      <path d="M 1172 4494 
L 1172 3500 
L 2356 3500 
L 2356 3053 
L 1172 3053 
L 1172 1153 
Q 1172 725 1289 603 
Q 1406 481 1766 481 
L 2356 481 
L 2356 0 
L 1766 0 
Q 1100 0 847 248 
Q 594 497 594 1153 
L 594 3053 
L 172 3053 
L 172 3500 
L 594 3500 
L 594 4494 
L 1172 4494 
z
" id="DejaVuSans-74" transform="scale(0.015625)"/>
      <path d="M 191 3500 
L 800 3500 
L 1894 563 
L 2988 3500 
L 3597 3500 
L 2284 0 
L 1503 0 
L 191 3500 
z
" id="DejaVuSans-76" transform="scale(0.015625)"/>
      <path d="M 2059 -325 
Q 1816 -950 1584 -1140 
Q 1353 -1331 966 -1331 
L 506 -1331 
L 506 -850 
L 844 -850 
Q 1081 -850 1212 -737 
Q 1344 -625 1503 -206 
L 1606 56 
L 191 3500 
L 800 3500 
L 1894 763 
L 2988 3500 
L 3597 3500 
L 2059 -325 
z
" id="DejaVuSans-79" transform="scale(0.015625)"/>
      <path d="M 750 794 
L 1409 794 
L 1409 256 
L 897 -744 
L 494 -744 
L 750 256 
L 750 794 
z
" id="DejaVuSans-2c" transform="scale(0.015625)"/>
      <path d="M 959 0 
L 572 3500 
L 1191 3500 
L 1522 563 
Q 1972 950 2391 1488 
Q 2706 1891 2788 2241 
Q 2825 2406 2809 2719 
Q 2794 3091 2544 3500 
L 3125 3500 
L 3125 3500 
Q 3288 3222 3353 2834 
Q 3416 2478 3369 2234 
Q 3250 1622 2719 1075 
Q 2025 363 1572 0 
L 959 0 
z
" id="DejaVuSans-Oblique-3bd" transform="scale(0.015625)"/>
      <path d="M 678 2906 
L 4684 2906 
L 4684 2381 
L 678 2381 
L 678 2906 
z
M 678 1631 
L 4684 1631 
L 4684 1100 
L 678 1100 
L 678 1631 
z
" id="DejaVuSans-3d" transform="scale(0.015625)"/>
      <path d="M 313 2009 
L 1997 2009 
L 1997 1497 
L 313 1497 
L 313 2009 
z
" id="DejaVuSans-2d" transform="scale(0.015625)"/>
      <path d="M 525 4666 
L 3525 4666 
L 3525 4397 
L 1831 0 
L 1172 0 
L 2766 4134 
L 525 4134 
L 525 4666 
z
" id="DejaVuSans-37" transform="scale(0.015625)"/>
     </defs>
     <use transform="translate(0 0.015625)" xlink:href="#DejaVuSans-50"/>
     <use transform="translate(60.302734 0.015625)" xlink:href="#DejaVuSans-61"/>
     <use transform="translate(121.582031 0.015625)" xlink:href="#DejaVuSans-72"/>
     <use transform="translate(162.695312 0.015625)" xlink:href="#DejaVuSans-61"/>
     <use transform="translate(223.974609 0.015625)" xlink:href="#DejaVuSans-6c"/>
     <use transform="translate(251.757812 0.015625)" xlink:href="#DejaVuSans-6c"/>
     <use transform="translate(279.541016 0.015625)" xlink:href="#DejaVuSans-65"/>
     <use transform="translate(341.064453 0.015625)" xlink:href="#DejaVuSans-6c"/>
     <use transform="translate(368.847656 0.015625)" xlink:href="#DejaVuSans-20"/>
     <use transform="translate(400.634766 0.015625)" xlink:href="#DejaVuSans-52"/>
     <use transform="translate(470.117188 0.015625)" xlink:href="#DejaVuSans-65"/>
     <use transform="translate(531.640625 0.015625)" xlink:href="#DejaVuSans-73"/>
     <use transform="translate(583.740234 0.015625)" xlink:href="#DejaVuSans-69"/>
     <use transform="translate(611.523438 0.015625)" xlink:href="#DejaVuSans-73"/>
     <use transform="translate(663.623047 0.015625)" xlink:href="#DejaVuSans-74"/>
     <use transform="translate(702.832031 0.015625)" xlink:href="#DejaVuSans-69"/>
     <use transform="translate(730.615234 0.015625)" xlink:href="#DejaVuSans-76"/>
     <use transform="translate(789.794922 0.015625)" xlink:href="#DejaVuSans-69"/>
     <use transform="translate(817.578125 0.015625)" xlink:href="#DejaVuSans-74"/>
     <use transform="translate(856.787109 0.015625)" xlink:href="#DejaVuSans-79"/>
     <use transform="translate(915.966797 0.015625)" xlink:href="#DejaVuSans-2c"/>
     <use transform="translate(947.753906 0.015625)" xlink:href="#DejaVuSans-20"/>
     <use transform="translate(979.541016 0.015625)" xlink:href="#DejaVuSans-Oblique-3bd"/>
     <use transform="translate(1035.400391 0.015625)" xlink:href="#DejaVuSans-20"/>
     <use transform="translate(1067.1875 0.015625)" xlink:href="#DejaVuSans-3d"/>
     <use transform="translate(1150.976562 0.015625)" xlink:href="#DejaVuSans-20"/>
     <use transform="translate(1182.763672 0.015625)" xlink:href="#DejaVuSans-31"/>
     <use transform="translate(1246.386719 0.015625)" xlink:href="#DejaVuSans-2d"/>
     <use transform="translate(1282.470703 0.015625)" xlink:href="#DejaVuSans-37"/>
    </g>
   </g>
   <g id="legend_1">
    <g id="patch_7">
     <path d="M 358.82 83.272 
L 407.72 83.272 
Q 409.72 83.272 409.72 81.272 
L 409.72 48.472 
Q 409.72 46.472 407.72 46.472 
L 358.82 46.472 
Q 356.82 46.472 356.82 48.472 
L 356.82 81.272 
Q 356.82 83.272 358.82 83.272 
z
" style="fill:#ffffff;opacity:0.8;stroke:#cccccc;stroke-linejoin:miter;"/>
    </g>
    <g id="line2d_28">
     <path d="M 360.82 55.772 
L 380.82 55.772 
" style="fill:none;stroke:#000000;stroke-linecap:square;stroke-width:1.5;"/>
    </g>
    <g id="line2d_29"/>
    <g id="text_18">
     <!-- $\rho_\mathrm{xx}^\mathrm{tot}$ -->
     <g transform="translate(388.82 59.272)scale(0.1 -0.1)">
      <defs>
       <path d="M 1959 3097 
Q 1497 3097 1228 2736 
Q 959 2375 959 1747 
Q 959 1119 1226 758 
Q 1494 397 1959 397 
Q 2419 397 2687 759 
Q 2956 1122 2956 1747 
Q 2956 2369 2687 2733 
Q 2419 3097 1959 3097 
z
M 1959 3584 
Q 2709 3584 3137 3096 
Q 3566 2609 3566 1747 
Q 3566 888 3137 398 
Q 2709 -91 1959 -91 
Q 1206 -91 779 398 
Q 353 888 353 1747 
Q 353 2609 779 3096 
Q 1206 3584 1959 3584 
z
" id="DejaVuSans-6f" transform="scale(0.015625)"/>
      </defs>
      <use transform="translate(0 0.565625)" xlink:href="#DejaVuSans-Oblique-3c1"/>
      <use transform="translate(68.126458 38.846875)scale(0.7)" xlink:href="#DejaVuSans-74"/>
      <use transform="translate(95.572747 38.846875)scale(0.7)" xlink:href="#DejaVuSans-6f"/>
      <use transform="translate(138.399896 38.846875)scale(0.7)" xlink:href="#DejaVuSans-74"/>
      <use transform="translate(63.476562 -26.778125)scale(0.7)" xlink:href="#DejaVuSans-78"/>
      <use transform="translate(104.902344 -26.778125)scale(0.7)" xlink:href="#DejaVuSans-78"/>
     </g>
    </g>
    <g id="line2d_30">
     <path d="M 360.82 72.972 
L 380.82 72.972 
" style="fill:none;stroke:#0000ff;stroke-dasharray:1.5,2.475;stroke-dashoffset:0;stroke-width:1.5;"/>
    </g>
    <g id="line2d_31"/>
    <g id="text_19">
     <!-- $\rho_\mathrm{xx}^\mathrm{\|\|}$ -->
     <g transform="translate(388.82 76.472)scale(0.1 -0.1)">
      <defs>
       <path d="M 1344 4891 
L 1344 -1509 
L 813 -1509 
L 813 4891 
L 1344 4891 
z
" id="DejaVuSans-7c" transform="scale(0.015625)"/>
      </defs>
      <use transform="translate(0 0.5625)" xlink:href="#DejaVuSans-Oblique-3c1"/>
      <use transform="translate(68.126458 40.504688)scale(0.7)" xlink:href="#DejaVuSans-7c"/>
      <use transform="translate(91.710443 40.504688)scale(0.7)" xlink:href="#DejaVuSans-7c"/>
      <use transform="translate(63.476562 -26.78125)scale(0.7)" xlink:href="#DejaVuSans-78"/>
      <use transform="translate(104.902344 -26.78125)scale(0.7)" xlink:href="#DejaVuSans-78"/>
     </g>
    </g>
   </g>
  </g>
 </g>
 <defs>
  <clipPath id="p0e806e0676">
   <rect height="266.112" width="357.12" x="57.6" y="41.472"/>
  </clipPath>
 </defs>
</svg>
