<?xml version="1.0" encoding="utf-8" standalone="no"?>
<!DOCTYPE svg PUBLIC "-//W3C//DTD SVG 1.1//EN"
  "http://www.w3.org/Graphics/SVG/1.1/DTD/svg11.dtd">
<svg height="501.12pt" version="1.1" viewBox="0 0 738.72 501.12" width="738.72pt" xmlns="http://www.w3.org/2000/svg" xmlns:xlink="http://www.w3.org/1999/xlink">
 <metadata>
  <rdf:RDF xmlns:cc="http://creativecommons.org/ns#" xmlns:dc="http://purl.org/dc/elements/1.1/" xmlns:rdf="http://www.w3.org/1999/02/22-rdf-syntax-ns#">
   <cc:Work>
    <dc:type rdf:resource="http://purl.org/dc/dcmitype/StillImage"/>
    <dc:date>2023-10-27T10:49:10.204416</dc:date>
    <dc:format>image/svg+xml</dc:format>
    <dc:creator>
     <cc:Agent>
      <dc:title>Matplotlib v3.4.3, https://matplotlib.org/</dc:title>
     </cc:Agent>
    </dc:creator>
   </cc:Work>
  </rdf:RDF>
 </metadata>
 <defs>
  <style type="text/css">*{stroke-linecap:butt;stroke-linejoin:round;}</style>
 </defs>
 <g id="figure_1">
  <g id="patch_1">
   <path d="M 0 501.12 
L 738.72 501.12 
L 738.72 0 
L 0 0 
z
" style="fill:#ffffff;"/>
  </g>
  <g id="axes_1">
   <g id="patch_2">
    <path d="M 92.34 445.9968 
L 664.848 445.9968 
L 664.848 60.1344 
L 92.34 60.1344 
z
" style="fill:#ffffff;"/>
   </g>
   <g id="matplotlib.axis_1">
    <g id="xtick_1">
     <g id="line2d_1">
      <path clip-path="url(#pa99d3df8f4)" d="M 92.34 445.9968 
L 92.34 60.1344 
" style="fill:none;stroke:#b0b0b0;stroke-linecap:square;stroke-width:0.8;"/>
     </g>
     <g id="line2d_2">
      <defs>
       <path d="M 0 0 
L 0 3.5 
" id="m998fe1af5a" style="stroke:#000000;stroke-width:0.8;"/>
      </defs>
      <g>
       <use style="stroke:#000000;stroke-width:0.8;" x="92.34" xlink:href="#m998fe1af5a" y="445.9968"/>
      </g>
     </g>
     <g id="text_1">
      <!-- 0.0 -->
      <g transform="translate(84.388438 460.595237)scale(0.1 -0.1)">
       <defs>
        <path d="M 2034 4250 
Q 1547 4250 1301 3770 
Q 1056 3291 1056 2328 
Q 1056 1369 1301 889 
Q 1547 409 2034 409 
Q 2525 409 2770 889 
Q 3016 1369 3016 2328 
Q 3016 3291 2770 3770 
Q 2525 4250 2034 4250 
z
M 2034 4750 
Q 2819 4750 3233 4129 
Q 3647 3509 3647 2328 
Q 3647 1150 3233 529 
Q 2819 -91 2034 -91 
Q 1250 -91 836 529 
Q 422 1150 422 2328 
Q 422 3509 836 4129 
Q 1250 4750 2034 4750 
z
" id="DejaVuSans-30" transform="scale(0.015625)"/>
        <path d="M 684 794 
L 1344 794 
L 1344 0 
L 684 0 
L 684 794 
z
" id="DejaVuSans-2e" transform="scale(0.015625)"/>
       </defs>
       <use xlink:href="#DejaVuSans-30"/>
       <use x="63.623047" xlink:href="#DejaVuSans-2e"/>
       <use x="95.410156" xlink:href="#DejaVuSans-30"/>
      </g>
     </g>
    </g>
    <g id="xtick_2">
     <g id="line2d_3">
      <path clip-path="url(#pa99d3df8f4)" d="M 206.8416 445.9968 
L 206.8416 60.1344 
" style="fill:none;stroke:#b0b0b0;stroke-linecap:square;stroke-width:0.8;"/>
     </g>
     <g id="line2d_4">
      <g>
       <use style="stroke:#000000;stroke-width:0.8;" x="206.8416" xlink:href="#m998fe1af5a" y="445.9968"/>
      </g>
     </g>
     <g id="text_2">
      <!-- 0.2 -->
      <g transform="translate(198.890038 460.595237)scale(0.1 -0.1)">
       <defs>
        <path d="M 1228 531 
L 3431 531 
L 3431 0 
L 469 0 
L 469 531 
Q 828 903 1448 1529 
Q 2069 2156 2228 2338 
Q 2531 2678 2651 2914 
Q 2772 3150 2772 3378 
Q 2772 3750 2511 3984 
Q 2250 4219 1831 4219 
Q 1534 4219 1204 4116 
Q 875 4013 500 3803 
L 500 4441 
Q 881 4594 1212 4672 
Q 1544 4750 1819 4750 
Q 2544 4750 2975 4387 
Q 3406 4025 3406 3419 
Q 3406 3131 3298 2873 
Q 3191 2616 2906 2266 
Q 2828 2175 2409 1742 
Q 1991 1309 1228 531 
z
" id="DejaVuSans-32" transform="scale(0.015625)"/>
       </defs>
       <use xlink:href="#DejaVuSans-30"/>
       <use x="63.623047" xlink:href="#DejaVuSans-2e"/>
       <use x="95.410156" xlink:href="#DejaVuSans-32"/>
      </g>
     </g>
    </g>
    <g id="xtick_3">
     <g id="line2d_5">
      <path clip-path="url(#pa99d3df8f4)" d="M 321.3432 445.9968 
L 321.3432 60.1344 
" style="fill:none;stroke:#b0b0b0;stroke-linecap:square;stroke-width:0.8;"/>
     </g>
     <g id="line2d_6">
      <g>
       <use style="stroke:#000000;stroke-width:0.8;" x="321.3432" xlink:href="#m998fe1af5a" y="445.9968"/>
      </g>
     </g>
     <g id="text_3">
      <!-- 0.4 -->
      <g transform="translate(313.391638 460.595237)scale(0.1 -0.1)">
       <defs>
        <path d="M 2419 4116 
L 825 1625 
L 2419 1625 
L 2419 4116 
z
M 2253 4666 
L 3047 4666 
L 3047 1625 
L 3713 1625 
L 3713 1100 
L 3047 1100 
L 3047 0 
L 2419 0 
L 2419 1100 
L 313 1100 
L 313 1709 
L 2253 4666 
z
" id="DejaVuSans-34" transform="scale(0.015625)"/>
       </defs>
       <use xlink:href="#DejaVuSans-30"/>
       <use x="63.623047" xlink:href="#DejaVuSans-2e"/>
       <use x="95.410156" xlink:href="#DejaVuSans-34"/>
      </g>
     </g>
    </g>
    <g id="xtick_4">
     <g id="line2d_7">
      <path clip-path="url(#pa99d3df8f4)" d="M 435.8448 445.9968 
L 435.8448 60.1344 
" style="fill:none;stroke:#b0b0b0;stroke-linecap:square;stroke-width:0.8;"/>
     </g>
     <g id="line2d_8">
      <g>
       <use style="stroke:#000000;stroke-width:0.8;" x="435.8448" xlink:href="#m998fe1af5a" y="445.9968"/>
      </g>
     </g>
     <g id="text_4">
      <!-- 0.6 -->
      <g transform="translate(427.893238 460.595237)scale(0.1 -0.1)">
       <defs>
        <path d="M 2113 2584 
Q 1688 2584 1439 2293 
Q 1191 2003 1191 1497 
Q 1191 994 1439 701 
Q 1688 409 2113 409 
Q 2538 409 2786 701 
Q 3034 994 3034 1497 
Q 3034 2003 2786 2293 
Q 2538 2584 2113 2584 
z
M 3366 4563 
L 3366 3988 
Q 3128 4100 2886 4159 
Q 2644 4219 2406 4219 
Q 1781 4219 1451 3797 
Q 1122 3375 1075 2522 
Q 1259 2794 1537 2939 
Q 1816 3084 2150 3084 
Q 2853 3084 3261 2657 
Q 3669 2231 3669 1497 
Q 3669 778 3244 343 
Q 2819 -91 2113 -91 
Q 1303 -91 875 529 
Q 447 1150 447 2328 
Q 447 3434 972 4092 
Q 1497 4750 2381 4750 
Q 2619 4750 2861 4703 
Q 3103 4656 3366 4563 
z
" id="DejaVuSans-36" transform="scale(0.015625)"/>
       </defs>
       <use xlink:href="#DejaVuSans-30"/>
       <use x="63.623047" xlink:href="#DejaVuSans-2e"/>
       <use x="95.410156" xlink:href="#DejaVuSans-36"/>
      </g>
     </g>
    </g>
    <g id="xtick_5">
     <g id="line2d_9">
      <path clip-path="url(#pa99d3df8f4)" d="M 550.3464 445.9968 
L 550.3464 60.1344 
" style="fill:none;stroke:#b0b0b0;stroke-linecap:square;stroke-width:0.8;"/>
     </g>
     <g id="line2d_10">
      <g>
       <use style="stroke:#000000;stroke-width:0.8;" x="550.3464" xlink:href="#m998fe1af5a" y="445.9968"/>
      </g>
     </g>
     <g id="text_5">
      <!-- 0.8 -->
      <g transform="translate(542.394837 460.595237)scale(0.1 -0.1)">
       <defs>
        <path d="M 2034 2216 
Q 1584 2216 1326 1975 
Q 1069 1734 1069 1313 
Q 1069 891 1326 650 
Q 1584 409 2034 409 
Q 2484 409 2743 651 
Q 3003 894 3003 1313 
Q 3003 1734 2745 1975 
Q 2488 2216 2034 2216 
z
M 1403 2484 
Q 997 2584 770 2862 
Q 544 3141 544 3541 
Q 544 4100 942 4425 
Q 1341 4750 2034 4750 
Q 2731 4750 3128 4425 
Q 3525 4100 3525 3541 
Q 3525 3141 3298 2862 
Q 3072 2584 2669 2484 
Q 3125 2378 3379 2068 
Q 3634 1759 3634 1313 
Q 3634 634 3220 271 
Q 2806 -91 2034 -91 
Q 1263 -91 848 271 
Q 434 634 434 1313 
Q 434 1759 690 2068 
Q 947 2378 1403 2484 
z
M 1172 3481 
Q 1172 3119 1398 2916 
Q 1625 2713 2034 2713 
Q 2441 2713 2670 2916 
Q 2900 3119 2900 3481 
Q 2900 3844 2670 4047 
Q 2441 4250 2034 4250 
Q 1625 4250 1398 4047 
Q 1172 3844 1172 3481 
z
" id="DejaVuSans-38" transform="scale(0.015625)"/>
       </defs>
       <use xlink:href="#DejaVuSans-30"/>
       <use x="63.623047" xlink:href="#DejaVuSans-2e"/>
       <use x="95.410156" xlink:href="#DejaVuSans-38"/>
      </g>
     </g>
    </g>
    <g id="xtick_6">
     <g id="line2d_11">
      <path clip-path="url(#pa99d3df8f4)" d="M 664.848 445.9968 
L 664.848 60.1344 
" style="fill:none;stroke:#b0b0b0;stroke-linecap:square;stroke-width:0.8;"/>
     </g>
     <g id="line2d_12">
      <g>
       <use style="stroke:#000000;stroke-width:0.8;" x="664.848" xlink:href="#m998fe1af5a" y="445.9968"/>
      </g>
     </g>
     <g id="text_6">
      <!-- 1.0 -->
      <g transform="translate(656.896438 460.595237)scale(0.1 -0.1)">
       <defs>
        <path d="M 794 531 
L 1825 531 
L 1825 4091 
L 703 3866 
L 703 4441 
L 1819 4666 
L 2450 4666 
L 2450 531 
L 3481 531 
L 3481 0 
L 794 0 
L 794 531 
z
" id="DejaVuSans-31" transform="scale(0.015625)"/>
       </defs>
       <use xlink:href="#DejaVuSans-31"/>
       <use x="63.623047" xlink:href="#DejaVuSans-2e"/>
       <use x="95.410156" xlink:href="#DejaVuSans-30"/>
      </g>
     </g>
    </g>
    <g id="text_7">
     <!-- $B$ (T) -->
     <g transform="translate(366.594 474.273363)scale(0.1 -0.1)">
      <defs>
       <path d="M 1081 4666 
L 2694 4666 
Q 3350 4666 3675 4422 
Q 4000 4178 4000 3688 
Q 4000 3238 3720 2911 
Q 3441 2584 2988 2516 
Q 3375 2428 3569 2181 
Q 3763 1934 3763 1522 
Q 3763 819 3242 409 
Q 2722 0 1819 0 
L 172 0 
L 1081 4666 
z
M 1234 2228 
L 903 519 
L 1919 519 
Q 2491 519 2800 781 
Q 3109 1044 3109 1522 
Q 3109 1891 2904 2059 
Q 2700 2228 2247 2228 
L 1234 2228 
z
M 1606 4147 
L 1331 2741 
L 2272 2741 
Q 2775 2741 3058 2959 
Q 3341 3178 3341 3566 
Q 3341 3869 3150 4008 
Q 2959 4147 2541 4147 
L 1606 4147 
z
" id="DejaVuSans-Oblique-42" transform="scale(0.015625)"/>
       <path id="DejaVuSans-20" transform="scale(0.015625)"/>
       <path d="M 1984 4856 
Q 1566 4138 1362 3434 
Q 1159 2731 1159 2009 
Q 1159 1288 1364 580 
Q 1569 -128 1984 -844 
L 1484 -844 
Q 1016 -109 783 600 
Q 550 1309 550 2009 
Q 550 2706 781 3412 
Q 1013 4119 1484 4856 
L 1984 4856 
z
" id="DejaVuSans-28" transform="scale(0.015625)"/>
       <path d="M -19 4666 
L 3928 4666 
L 3928 4134 
L 2272 4134 
L 2272 0 
L 1638 0 
L 1638 4134 
L -19 4134 
L -19 4666 
z
" id="DejaVuSans-54" transform="scale(0.015625)"/>
       <path d="M 513 4856 
L 1013 4856 
Q 1481 4119 1714 3412 
Q 1947 2706 1947 2009 
Q 1947 1309 1714 600 
Q 1481 -109 1013 -844 
L 513 -844 
Q 928 -128 1133 580 
Q 1338 1288 1338 2009 
Q 1338 2731 1133 3434 
Q 928 4138 513 4856 
z
" id="DejaVuSans-29" transform="scale(0.015625)"/>
      </defs>
      <use transform="translate(0 0.125)" xlink:href="#DejaVuSans-Oblique-42"/>
      <use transform="translate(68.603516 0.125)" xlink:href="#DejaVuSans-20"/>
      <use transform="translate(100.390625 0.125)" xlink:href="#DejaVuSans-28"/>
      <use transform="translate(139.404297 0.125)" xlink:href="#DejaVuSans-54"/>
      <use transform="translate(200.488281 0.125)" xlink:href="#DejaVuSans-29"/>
     </g>
    </g>
   </g>
   <g id="matplotlib.axis_2">
    <g id="ytick_1">
     <g id="line2d_13">
      <path clip-path="url(#pa99d3df8f4)" d="M 92.34 427.6224 
L 664.848 427.6224 
" style="fill:none;stroke:#b0b0b0;stroke-linecap:square;stroke-width:0.8;"/>
     </g>
     <g id="line2d_14">
      <defs>
       <path d="M 0 0 
L -3.5 0 
" id="m516c5f94ad" style="stroke:#000000;stroke-width:0.8;"/>
      </defs>
      <g>
       <use style="stroke:#000000;stroke-width:0.8;" x="92.34" xlink:href="#m516c5f94ad" y="427.6224"/>
      </g>
     </g>
     <g id="text_8">
      <!-- 0.000 -->
      <g transform="translate(56.711875 431.421619)scale(0.1 -0.1)">
       <use xlink:href="#DejaVuSans-30"/>
       <use x="63.623047" xlink:href="#DejaVuSans-2e"/>
       <use x="95.410156" xlink:href="#DejaVuSans-30"/>
       <use x="159.033203" xlink:href="#DejaVuSans-30"/>
       <use x="222.65625" xlink:href="#DejaVuSans-30"/>
      </g>
     </g>
    </g>
    <g id="ytick_2">
     <g id="line2d_15">
      <path clip-path="url(#pa99d3df8f4)" d="M 92.34 381.6864 
L 664.848 381.6864 
" style="fill:none;stroke:#b0b0b0;stroke-linecap:square;stroke-width:0.8;"/>
     </g>
     <g id="line2d_16">
      <g>
       <use style="stroke:#000000;stroke-width:0.8;" x="92.34" xlink:href="#m516c5f94ad" y="381.6864"/>
      </g>
     </g>
     <g id="text_9">
      <!-- 0.025 -->
      <g transform="translate(56.711875 385.485619)scale(0.1 -0.1)">
       <defs>
        <path d="M 691 4666 
L 3169 4666 
L 3169 4134 
L 1269 4134 
L 1269 2991 
Q 1406 3038 1543 3061 
Q 1681 3084 1819 3084 
Q 2600 3084 3056 2656 
Q 3513 2228 3513 1497 
Q 3513 744 3044 326 
Q 2575 -91 1722 -91 
Q 1428 -91 1123 -41 
Q 819 9 494 109 
L 494 744 
Q 775 591 1075 516 
Q 1375 441 1709 441 
Q 2250 441 2565 725 
Q 2881 1009 2881 1497 
Q 2881 1984 2565 2268 
Q 2250 2553 1709 2553 
Q 1456 2553 1204 2497 
Q 953 2441 691 2322 
L 691 4666 
z
" id="DejaVuSans-35" transform="scale(0.015625)"/>
       </defs>
       <use xlink:href="#DejaVuSans-30"/>
       <use x="63.623047" xlink:href="#DejaVuSans-2e"/>
       <use x="95.410156" xlink:href="#DejaVuSans-30"/>
       <use x="159.033203" xlink:href="#DejaVuSans-32"/>
       <use x="222.65625" xlink:href="#DejaVuSans-35"/>
      </g>
     </g>
    </g>
    <g id="ytick_3">
     <g id="line2d_17">
      <path clip-path="url(#pa99d3df8f4)" d="M 92.34 335.7504 
L 664.848 335.7504 
" style="fill:none;stroke:#b0b0b0;stroke-linecap:square;stroke-width:0.8;"/>
     </g>
     <g id="line2d_18">
      <g>
       <use style="stroke:#000000;stroke-width:0.8;" x="92.34" xlink:href="#m516c5f94ad" y="335.7504"/>
      </g>
     </g>
     <g id="text_10">
      <!-- 0.050 -->
      <g transform="translate(56.711875 339.549619)scale(0.1 -0.1)">
       <use xlink:href="#DejaVuSans-30"/>
       <use x="63.623047" xlink:href="#DejaVuSans-2e"/>
       <use x="95.410156" xlink:href="#DejaVuSans-30"/>
       <use x="159.033203" xlink:href="#DejaVuSans-35"/>
       <use x="222.65625" xlink:href="#DejaVuSans-30"/>
      </g>
     </g>
    </g>
    <g id="ytick_4">
     <g id="line2d_19">
      <path clip-path="url(#pa99d3df8f4)" d="M 92.34 289.8144 
L 664.848 289.8144 
" style="fill:none;stroke:#b0b0b0;stroke-linecap:square;stroke-width:0.8;"/>
     </g>
     <g id="line2d_20">
      <g>
       <use style="stroke:#000000;stroke-width:0.8;" x="92.34" xlink:href="#m516c5f94ad" y="289.8144"/>
      </g>
     </g>
     <g id="text_11">
      <!-- 0.075 -->
      <g transform="translate(56.711875 293.613619)scale(0.1 -0.1)">
       <defs>
        <path d="M 525 4666 
L 3525 4666 
L 3525 4397 
L 1831 0 
L 1172 0 
L 2766 4134 
L 525 4134 
L 525 4666 
z
" id="DejaVuSans-37" transform="scale(0.015625)"/>
       </defs>
       <use xlink:href="#DejaVuSans-30"/>
       <use x="63.623047" xlink:href="#DejaVuSans-2e"/>
       <use x="95.410156" xlink:href="#DejaVuSans-30"/>
       <use x="159.033203" xlink:href="#DejaVuSans-37"/>
       <use x="222.65625" xlink:href="#DejaVuSans-35"/>
      </g>
     </g>
    </g>
    <g id="ytick_5">
     <g id="line2d_21">
      <path clip-path="url(#pa99d3df8f4)" d="M 92.34 243.8784 
L 664.848 243.8784 
" style="fill:none;stroke:#b0b0b0;stroke-linecap:square;stroke-width:0.8;"/>
     </g>
     <g id="line2d_22">
      <g>
       <use style="stroke:#000000;stroke-width:0.8;" x="92.34" xlink:href="#m516c5f94ad" y="243.8784"/>
      </g>
     </g>
     <g id="text_12">
      <!-- 0.100 -->
      <g transform="translate(56.711875 247.677619)scale(0.1 -0.1)">
       <use xlink:href="#DejaVuSans-30"/>
       <use x="63.623047" xlink:href="#DejaVuSans-2e"/>
       <use x="95.410156" xlink:href="#DejaVuSans-31"/>
       <use x="159.033203" xlink:href="#DejaVuSans-30"/>
       <use x="222.65625" xlink:href="#DejaVuSans-30"/>
      </g>
     </g>
    </g>
    <g id="ytick_6">
     <g id="line2d_23">
      <path clip-path="url(#pa99d3df8f4)" d="M 92.34 197.9424 
L 664.848 197.9424 
" style="fill:none;stroke:#b0b0b0;stroke-linecap:square;stroke-width:0.8;"/>
     </g>
     <g id="line2d_24">
      <g>
       <use style="stroke:#000000;stroke-width:0.8;" x="92.34" xlink:href="#m516c5f94ad" y="197.9424"/>
      </g>
     </g>
     <g id="text_13">
      <!-- 0.125 -->
      <g transform="translate(56.711875 201.741619)scale(0.1 -0.1)">
       <use xlink:href="#DejaVuSans-30"/>
       <use x="63.623047" xlink:href="#DejaVuSans-2e"/>
       <use x="95.410156" xlink:href="#DejaVuSans-31"/>
       <use x="159.033203" xlink:href="#DejaVuSans-32"/>
       <use x="222.65625" xlink:href="#DejaVuSans-35"/>
      </g>
     </g>
    </g>
    <g id="ytick_7">
     <g id="line2d_25">
      <path clip-path="url(#pa99d3df8f4)" d="M 92.34 152.0064 
L 664.848 152.0064 
" style="fill:none;stroke:#b0b0b0;stroke-linecap:square;stroke-width:0.8;"/>
     </g>
     <g id="line2d_26">
      <g>
       <use style="stroke:#000000;stroke-width:0.8;" x="92.34" xlink:href="#m516c5f94ad" y="152.0064"/>
      </g>
     </g>
     <g id="text_14">
      <!-- 0.150 -->
      <g transform="translate(56.711875 155.805619)scale(0.1 -0.1)">
       <use xlink:href="#DejaVuSans-30"/>
       <use x="63.623047" xlink:href="#DejaVuSans-2e"/>
       <use x="95.410156" xlink:href="#DejaVuSans-31"/>
       <use x="159.033203" xlink:href="#DejaVuSans-35"/>
       <use x="222.65625" xlink:href="#DejaVuSans-30"/>
      </g>
     </g>
    </g>
    <g id="ytick_8">
     <g id="line2d_27">
      <path clip-path="url(#pa99d3df8f4)" d="M 92.34 106.0704 
L 664.848 106.0704 
" style="fill:none;stroke:#b0b0b0;stroke-linecap:square;stroke-width:0.8;"/>
     </g>
     <g id="line2d_28">
      <g>
       <use style="stroke:#000000;stroke-width:0.8;" x="92.34" xlink:href="#m516c5f94ad" y="106.0704"/>
      </g>
     </g>
     <g id="text_15">
      <!-- 0.175 -->
      <g transform="translate(56.711875 109.869619)scale(0.1 -0.1)">
       <use xlink:href="#DejaVuSans-30"/>
       <use x="63.623047" xlink:href="#DejaVuSans-2e"/>
       <use x="95.410156" xlink:href="#DejaVuSans-31"/>
       <use x="159.033203" xlink:href="#DejaVuSans-37"/>
       <use x="222.65625" xlink:href="#DejaVuSans-35"/>
      </g>
     </g>
    </g>
    <g id="ytick_9">
     <g id="line2d_29">
      <path clip-path="url(#pa99d3df8f4)" d="M 92.34 60.1344 
L 664.848 60.1344 
" style="fill:none;stroke:#b0b0b0;stroke-linecap:square;stroke-width:0.8;"/>
     </g>
     <g id="line2d_30">
      <g>
       <use style="stroke:#000000;stroke-width:0.8;" x="92.34" xlink:href="#m516c5f94ad" y="60.1344"/>
      </g>
     </g>
     <g id="text_16">
      <!-- 0.200 -->
      <g transform="translate(56.711875 63.933619)scale(0.1 -0.1)">
       <use xlink:href="#DejaVuSans-30"/>
       <use x="63.623047" xlink:href="#DejaVuSans-2e"/>
       <use x="95.410156" xlink:href="#DejaVuSans-32"/>
       <use x="159.033203" xlink:href="#DejaVuSans-30"/>
       <use x="222.65625" xlink:href="#DejaVuSans-30"/>
      </g>
     </g>
    </g>
    <g id="text_17">
     <!-- $\rho_\mathrm{xx}$ (m$\Omega$) -->
     <g transform="translate(50.611875 274.7156)rotate(-90)scale(0.1 -0.1)">
      <defs>
       <path d="M 1203 2875 
Q 1453 3194 1981 3475 
Q 2188 3584 2756 3584 
Q 3394 3584 3694 3078 
Q 3994 2572 3834 1747 
Q 3672 922 3175 415 
Q 2678 -91 2041 -91 
Q 1656 -91 1409 63 
Q 1163 213 1044 525 
L 681 -1331 
L 103 -1331 
L 697 1716 
Q 838 2438 1203 2875 
z
M 3238 1747 
Q 3359 2381 3169 2744 
Q 2978 3103 2522 3103 
Q 2066 3103 1734 2744 
Q 1403 2381 1281 1747 
Q 1156 1113 1347 750 
Q 1538 391 1994 391 
Q 2450 391 2781 750 
Q 3113 1113 3238 1747 
z
" id="DejaVuSans-Oblique-3c1" transform="scale(0.015625)"/>
       <path d="M 3513 3500 
L 2247 1797 
L 3578 0 
L 2900 0 
L 1881 1375 
L 863 0 
L 184 0 
L 1544 1831 
L 300 3500 
L 978 3500 
L 1906 2253 
L 2834 3500 
L 3513 3500 
z
" id="DejaVuSans-78" transform="scale(0.015625)"/>
       <path d="M 3328 2828 
Q 3544 3216 3844 3400 
Q 4144 3584 4550 3584 
Q 5097 3584 5394 3201 
Q 5691 2819 5691 2113 
L 5691 0 
L 5113 0 
L 5113 2094 
Q 5113 2597 4934 2840 
Q 4756 3084 4391 3084 
Q 3944 3084 3684 2787 
Q 3425 2491 3425 1978 
L 3425 0 
L 2847 0 
L 2847 2094 
Q 2847 2600 2669 2842 
Q 2491 3084 2119 3084 
Q 1678 3084 1418 2786 
Q 1159 2488 1159 1978 
L 1159 0 
L 581 0 
L 581 3500 
L 1159 3500 
L 1159 2956 
Q 1356 3278 1631 3431 
Q 1906 3584 2284 3584 
Q 2666 3584 2933 3390 
Q 3200 3197 3328 2828 
z
" id="DejaVuSans-6d" transform="scale(0.015625)"/>
       <path d="M 4647 556 
L 4647 0 
L 2772 0 
L 2772 556 
Q 3325 859 3634 1378 
Q 3944 1897 3944 2528 
Q 3944 3278 3531 3731 
Q 3119 4184 2444 4184 
Q 1769 4184 1355 3729 
Q 941 3275 941 2528 
Q 941 1897 1250 1378 
Q 1563 859 2119 556 
L 2119 0 
L 244 0 
L 244 556 
L 1241 556 
Q 747 991 519 1456 
Q 294 1922 294 2497 
Q 294 3491 894 4106 
Q 1491 4722 2444 4722 
Q 3391 4722 3994 4106 
Q 4594 3494 4594 2528 
Q 4594 1922 4372 1459 
Q 4150 997 3647 556 
L 4647 556 
z
" id="DejaVuSans-3a9" transform="scale(0.015625)"/>
      </defs>
      <use transform="translate(0 0.125)" xlink:href="#DejaVuSans-Oblique-3c1"/>
      <use transform="translate(63.476562 -16.28125)scale(0.7)" xlink:href="#DejaVuSans-78"/>
      <use transform="translate(104.902344 -16.28125)scale(0.7)" xlink:href="#DejaVuSans-78"/>
      <use transform="translate(149.0625 0.125)" xlink:href="#DejaVuSans-20"/>
      <use transform="translate(180.849609 0.125)" xlink:href="#DejaVuSans-28"/>
      <use transform="translate(219.863281 0.125)" xlink:href="#DejaVuSans-6d"/>
      <use transform="translate(317.275391 0.125)" xlink:href="#DejaVuSans-3a9"/>
      <use transform="translate(393.691406 0.125)" xlink:href="#DejaVuSans-29"/>
     </g>
    </g>
   </g>
   <g id="line2d_31">
    <path clip-path="url(#pa99d3df8f4)" d="M 92.34 413.602975 
L 93.77127 413.471269 
L 95.20254 413.902617 
L 96.63381 414.691745 
L 98.06508 415.241903 
L 100.92762 415.386575 
L 102.35889 415.30389 
L 103.79016 415.753335 
L 105.22143 415.740438 
L 106.6527 415.283228 
L 108.08397 415.208343 
L 109.51524 415.506667 
L 110.94651 415.520881 
L 112.37778 415.666837 
L 113.80905 415.625477 
L 115.24032 415.336201 
L 116.67159 415.54671 
L 118.10286 415.403355 
L 119.53413 415.413686 
L 120.9654 415.656505 
L 122.39667 415.4253 
L 123.82794 415.713327 
L 125.25921 415.722341 
L 126.69048 415.289711 
L 128.12175 415.774032 
L 129.55302 415.736555 
L 130.98429 415.262565 
L 133.84683 415.509267 
L 135.2781 415.541544 
L 136.70937 415.369761 
L 138.14064 415.620311 
L 141.00318 415.830854 
L 142.43445 415.086934 
L 143.86572 415.934167 
L 145.29699 416.599285 
L 146.72826 416.176952 
L 148.15953 416.435268 
L 149.5908 416.129178 
L 151.02207 416.600568 
L 152.45334 417.31613 
L 153.88461 417.148229 
L 155.31588 416.489524 
L 156.74715 414.655586 
L 158.17842 415.996154 
L 159.60969 419.545256 
L 161.04096 416.79818 
L 162.47223 414.624557 
L 163.9035 418.887869 
L 165.33477 415.759818 
L 166.76604 417.184389 
L 168.19731 418.060016 
L 169.62858 414.269412 
L 171.05985 419.332148 
L 172.49112 412.830661 
L 173.92239 419.868126 
L 175.35366 412.749294 
L 176.78493 419.613727 
L 178.2162 415.580304 
L 179.64747 417.39878 
L 181.07874 421.352084 
L 182.51001 411.025151 
L 183.94128 422.235477 
L 185.37255 413.538422 
L 186.80382 416.095619 
L 188.23509 423.300984 
L 189.66636 408.624206 
L 191.09763 417.925709 
L 192.5289 423.594177 
L 193.96017 408.311668 
L 195.39144 416.728426 
L 196.82271 424.43752 
L 198.25398 413.794139 
L 199.68525 409.650989 
L 201.11652 423.441773 
L 202.54779 422.557098 
L 203.97906 403.837814 
L 205.41033 414.624557 
L 206.8416 424.491763 
L 208.27287 422.053362 
L 209.70414 402.570847 
L 211.13541 411.882716 
L 212.56668 424.310952 
L 213.99795 424.252833 
L 216.86049 399.583586 
L 218.29176 419.214621 
L 219.72303 425.722581 
L 221.1543 423.160229 
L 222.58557 407.114455 
L 224.01684 396.062912 
L 225.44811 417.491761 
L 226.87938 425.661879 
L 228.31065 425.328672 
L 229.74192 415.359429 
L 231.17319 392.689545 
L 232.60446 401.887631 
L 234.03573 420.978841 
L 235.467 426.396751 
L 236.89827 425.660586 
L 238.32954 416.155006 
L 239.76081 395.180837 
L 241.19208 390.328608 
L 242.62335 414.012413 
L 244.05462 424.992878 
L 245.48589 426.843617 
L 246.91716 425.683835 
L 248.34843 415.376244 
L 249.7797 392.608074 
L 251.21097 382.879003 
L 252.64224 404.127124 
L 254.07351 421.815743 
L 255.50478 427.500998 
L 256.93605 427.6224 
L 258.36732 425.379038 
L 259.79859 414.690428 
L 261.22986 391.897713 
L 262.66113 378.213985 
L 264.0924 391.304878 
L 265.52367 414.296522 
L 266.95494 425.931806 
L 268.38621 427.338267 
L 269.81748 427.743802 
L 271.24875 426.746752 
L 272.68002 419.164282 
L 275.54256 377.400311 
L 276.97383 380.564522 
L 278.4051 395.827858 
L 279.83637 415.027512 
L 281.26764 425.220183 
L 282.69891 427.696016 
L 284.13018 427.998233 
L 285.56145 427.765758 
L 286.99272 426.467787 
L 288.42399 418.909849 
L 289.85526 395.982862 
L 291.28653 375.827393 
L 292.7178 379.097343 
L 294.14907 387.541593 
L 295.58034 402.280254 
L 297.01161 418.656698 
L 298.44288 426.139738 
L 299.87415 428.01373 
L 301.30542 427.857456 
L 302.73669 428.027937 
L 304.16796 427.759301 
L 305.59923 426.261138 
L 307.0305 417.719084 
L 308.46177 394.861816 
L 309.89304 377.015489 
L 311.32431 380.918489 
L 314.18685 390.884001 
L 315.61812 403.052568 
L 317.04939 418.075512 
L 318.48066 426.018336 
L 319.91193 427.764467 
L 321.3432 428.281074 
L 322.77447 428.296574 
L 325.63701 427.959486 
L 327.06828 427.544909 
L 328.49955 424.143051 
L 329.93082 410.649308 
L 331.36209 387.789474 
L 332.79336 379.44091 
L 334.22463 384.61729 
L 335.6559 386.955346 
L 337.08717 389.034427 
L 338.51844 394.179917 
L 339.94971 404.331149 
L 341.38098 417.458167 
L 342.81225 425.625716 
L 344.24352 427.940112 
L 345.67479 428.63753 
L 347.10606 428.226828 
L 348.53733 428.139005 
L 349.9686 428.299157 
L 351.39987 428.195834 
L 352.83114 427.79288 
L 354.26241 427.152289 
L 355.69368 423.236431 
L 357.12495 411.382897 
L 358.55622 384.397837 
L 359.98749 382.390868 
L 361.41876 392.619861 
L 362.85003 391.519477 
L 364.2813 385.947874 
L 365.71257 387.983272 
L 367.14384 393.487653 
L 368.57511 400.053693 
L 371.43765 418.047119 
L 372.86892 424.447851 
L 374.30019 427.382178 
L 375.73146 428.247494 
L 377.16273 428.216496 
L 378.594 428.417973 
L 380.02527 428.322402 
L 381.45654 428.084762 
L 384.31908 428.200999 
L 385.75035 427.431255 
L 387.18162 425.739371 
L 388.61289 422.551932 
L 390.04416 416.16662 
L 391.47543 400.640044 
L 392.9067 376.031592 
L 394.33797 378.965602 
L 395.76924 396.822329 
L 397.20051 410.607983 
L 398.63178 413.41313 
L 400.06305 403.899802 
L 401.49432 390.253724 
L 402.92559 388.949142 
L 404.35686 393.557406 
L 408.65067 418.01869 
L 410.08194 422.704301 
L 411.51321 425.716122 
L 412.94448 427.229777 
L 414.37575 428.239745 
L 415.80702 428.392145 
L 421.5321 428.392145 
L 422.96337 428.539376 
L 424.39464 428.283657 
L 425.82591 428.46705 
L 427.25718 428.255242 
L 428.68845 427.183283 
L 430.11972 423.654847 
L 431.55099 416.016817 
L 432.98226 406.128963 
L 434.41353 392.31755 
L 435.8448 376.010791 
L 437.27607 363.728718 
L 438.70734 373.58537 
L 440.13861 397.142633 
L 441.56988 413.963322 
L 443.00115 422.345272 
L 444.43242 425.958927 
L 445.86369 425.659296 
L 447.29496 422.771489 
L 448.72623 417.884384 
L 450.1575 411.178837 
L 451.58877 401.236727 
L 453.02004 399.418251 
L 454.45131 403.654417 
L 455.88258 409.740087 
L 458.74512 420.433815 
L 460.17639 424.326449 
L 461.60766 426.387713 
L 463.03893 427.056718 
L 464.4702 428.182916 
L 468.76401 428.611702 
L 470.19528 428.384397 
L 471.62655 428.580705 
L 474.48909 428.645279 
L 475.92036 428.239745 
L 481.64544 428.655613 
L 485.93925 428.167419 
L 487.37052 425.0807 
L 488.80179 415.192846 
L 491.66433 380.877233 
L 493.0956 369.695197 
L 494.52687 362.933071 
L 495.95814 359.244324 
L 497.38941 365.237152 
L 498.82068 382.925459 
L 500.25195 403.248897 
L 501.68322 417.207617 
L 503.11449 424.357446 
L 504.54576 426.919815 
L 505.97703 428.113177 
L 507.4083 428.663362 
L 508.83957 428.867418 
L 510.27084 428.523879 
L 511.70211 428.712439 
L 513.13338 428.46705 
L 514.56465 428.084762 
L 515.99592 428.087345 
L 517.42719 427.356348 
L 518.85846 423.869238 
L 520.28973 417.535686 
L 521.721 415.022346 
L 523.15227 415.554475 
L 524.58354 419.413515 
L 526.01481 422.588092 
L 527.44608 424.902462 
L 528.87735 425.878853 
L 531.73989 427.343433 
L 533.17116 428.306905 
L 534.60243 428.611702 
L 537.46497 428.944917 
L 538.89624 429.415024 
L 540.32751 428.702107 
L 543.19005 428.725353 
L 544.62132 428.58587 
L 546.05259 428.686607 
L 547.48386 429.151556 
L 548.91513 428.727936 
L 550.3464 428.820924 
L 551.77767 428.397311 
L 553.20894 428.67111 
L 554.64021 428.603954 
L 556.07148 428.854504 
L 557.50275 428.454136 
L 558.93402 428.795096 
L 560.36529 428.596202 
L 561.79656 428.640113 
L 563.22783 428.864835 
L 564.6591 428.417973 
L 566.09037 428.151922 
L 567.52164 427.26594 
L 568.95291 422.11795 
L 570.38418 411.574026 
L 571.81545 396.662195 
L 573.24672 378.500695 
L 574.67799 367.042697 
L 576.10926 362.829759 
L 577.54053 365.164694 
L 578.9718 370.165305 
L 580.40307 380.032704 
L 583.26561 403.858476 
L 584.69688 413.560368 
L 586.12815 419.893954 
L 587.55942 423.957089 
L 588.99069 426.55561 
L 590.42196 427.857456 
L 591.85323 428.492882 
L 593.2845 428.831259 
L 594.71577 428.931995 
L 596.14704 429.35045 
L 597.57831 428.939744 
L 601.87212 429.035322 
L 603.30339 428.895833 
L 604.73466 428.622033 
L 606.16593 428.911329 
L 610.45974 428.924247 
L 611.89101 429.050819 
L 619.04736 428.529045 
L 620.47863 425.55856 
L 621.9099 414.629723 
L 623.34117 393.002049 
L 624.77244 373.983019 
L 626.20371 384.33578 
L 627.63498 399.996871 
L 629.06625 413.790256 
L 630.49752 421.536764 
L 631.92879 427.09546 
L 634.79133 428.040851 
L 636.2226 428.795096 
L 637.65387 428.733101 
L 639.08514 429.285873 
L 640.51641 428.973327 
L 643.37895 428.895833 
L 644.81022 428.73827 
L 646.24149 428.85967 
L 647.67276 429.102479 
L 649.10403 428.549707 
L 650.5353 429.275541 
L 651.96657 429.04307 
L 653.39784 429.074068 
L 654.82911 428.986245 
L 656.26038 429.427938 
L 657.69165 428.888084 
L 659.12292 428.815758 
L 660.55419 429.045653 
L 667.71054 428.962996 
L 667.71054 428.962996 
" style="fill:none;stroke:#1f77b4;stroke-linecap:square;stroke-width:1.5;"/>
   </g>
   <g id="line2d_32">
    <path clip-path="url(#pa99d3df8f4)" d="M 92.34 416.419771 
L 96.63381 417.835293 
L 98.06508 417.700987 
L 99.49635 418.336394 
L 100.92762 418.444907 
L 102.35889 418.354491 
L 105.22143 418.615373 
L 106.6527 418.323498 
L 108.08397 418.558551 
L 109.51524 418.54822 
L 110.94651 418.824599 
L 112.37778 418.664464 
L 113.80905 418.819433 
L 115.24032 419.175896 
L 116.67159 419.209456 
L 119.53413 418.953739 
L 122.39667 419.627907 
L 123.82794 419.599513 
L 126.69048 420.198761 
L 128.12175 419.943045 
L 129.55302 420.030861 
L 130.98429 420.433815 
L 132.41556 420.366661 
L 133.84683 420.844535 
L 135.2781 420.267232 
L 136.70937 420.801892 
L 138.14064 421.101533 
L 139.57191 421.146741 
L 141.00318 421.03178 
L 142.43445 421.348201 
L 143.86572 420.93235 
L 145.29699 421.098933 
L 146.72826 421.110582 
L 148.15953 421.496722 
L 151.02207 421.702099 
L 152.45334 422.055962 
L 153.88461 421.749872 
L 155.31588 421.101533 
L 156.74715 420.937516 
L 158.17842 421.469611 
L 159.60969 422.413708 
L 161.04096 421.970712 
L 162.47223 420.62366 
L 163.9035 421.97976 
L 165.33477 422.279402 
L 166.76604 420.305957 
L 168.19731 422.901913 
L 169.62858 420.435097 
L 171.05985 421.829957 
L 172.49112 420.723125 
L 173.92239 421.310759 
L 175.35366 420.963344 
L 176.78493 421.299145 
L 178.2162 419.605961 
L 179.64747 422.88385 
L 181.07874 417.34064 
L 182.51001 423.897666 
L 183.94128 417.121084 
L 185.37255 421.752438 
L 186.80382 422.157992 
L 188.23509 416.6135 
L 189.66636 424.180507 
L 191.09763 418.806536 
L 192.5289 417.808182 
L 193.96017 424.779769 
L 195.39144 417.885667 
L 196.82271 417.626068 
L 198.25398 424.668698 
L 199.68525 418.553386 
L 201.11652 415.041726 
L 202.54779 423.236431 
L 203.97906 422.790834 
L 205.41033 411.595971 
L 206.8416 417.5447 
L 208.27287 425.335127 
L 209.70414 420.398938 
L 211.13541 408.142485 
L 212.56668 417.34064 
L 213.99795 425.718705 
L 215.42922 423.397848 
L 216.86049 407.193222 
L 218.29176 409.331968 
L 219.72303 423.572197 
L 221.1543 426.187522 
L 222.58557 418.788439 
L 224.01684 400.770468 
L 225.44811 409.152453 
L 226.87938 423.073696 
L 228.31065 426.589187 
L 229.74192 421.335304 
L 231.17319 401.430421 
L 232.60446 399.759217 
L 234.03573 416.167938 
L 235.467 425.982173 
L 236.89827 426.861696 
L 238.32954 419.462606 
L 239.76081 393.257765 
L 241.19208 396.261806 
L 242.62335 412.586559 
L 244.05462 424.434937 
L 245.48589 427.132916 
L 246.91716 425.810403 
L 248.34843 412.02347 
L 249.7797 389.819672 
L 251.21097 395.006488 
L 252.64224 412.785453 
L 254.07351 423.35264 
L 255.50478 425.97959 
L 256.93605 425.805238 
L 258.36732 420.510016 
L 261.22986 387.128343 
L 262.66113 395.72198 
L 264.0924 412.010574 
L 265.52367 421.686567 
L 266.95494 422.389198 
L 268.38621 421.99914 
L 269.81748 423.450822 
L 271.24875 416.329355 
L 272.68002 398.67693 
L 274.11129 388.595521 
L 275.54256 395.210513 
L 276.97383 409.042657 
L 278.4051 418.816867 
L 279.83637 422.231594 
L 281.26764 419.813904 
L 282.69891 417.721649 
L 284.13018 417.303198 
L 286.99272 400.999073 
L 288.42399 395.001322 
L 289.85526 395.727146 
L 291.28653 402.187273 
L 292.7178 414.175113 
L 294.14907 420.6792 
L 295.58034 415.089534 
L 297.01161 412.589159 
L 298.44288 413.29432 
L 299.87415 408.877357 
L 301.30542 404.904604 
L 302.73669 393.962926 
L 304.16796 394.476959 
L 305.59923 401.231561 
L 307.0305 404.806457 
L 308.46177 403.489116 
L 309.89304 410.486573 
L 311.32431 414.893205 
L 312.75558 415.355581 
L 314.18685 419.625341 
L 315.61812 412.511675 
L 317.04939 404.437062 
L 318.48066 404.488718 
L 319.91193 393.931932 
L 321.3432 384.682121 
L 322.77447 373.559368 
L 324.20574 384.989285 
L 325.63701 398.986903 
L 327.06828 409.781412 
L 328.49955 412.341174 
L 329.93082 412.294684 
L 331.36209 413.201339 
L 332.79336 416.316458 
L 334.22463 409.866663 
L 335.6559 406.557814 
L 337.08717 411.891729 
L 338.51844 398.935247 
L 339.94971 389.398794 
L 341.38098 395.370682 
L 342.81225 389.73196 
L 344.24352 379.536595 
L 345.67479 368.382988 
L 347.10606 364.038656 
L 348.53733 376.798463 
L 349.9686 393.185446 
L 351.39987 404.902004 
L 352.83114 411.142678 
L 354.26241 413.82385 
L 355.69368 415.084333 
L 357.12495 417.27997 
L 358.55622 421.939718 
L 359.98749 421.107982 
L 361.41876 413.059267 
L 362.85003 391.891472 
L 364.2813 368.886724 
L 365.71257 353.251843 
L 367.14384 343.756785 
L 368.57511 343.663526 
L 370.00638 347.868837 
L 371.43765 344.076777 
L 372.86892 339.902321 
L 374.30019 332.070666 
L 375.73146 332.504718 
L 377.16273 352.549109 
L 378.594 375.300429 
L 380.02527 386.779576 
L 381.45654 392.606687 
L 382.88781 399.890958 
L 384.31908 404.220105 
L 385.75035 410.409089 
L 387.18162 415.63196 
L 388.61289 418.452638 
L 391.47543 422.053362 
L 392.9067 422.391763 
L 394.33797 421.322373 
L 395.76924 421.717596 
L 397.20051 420.048958 
L 398.63178 410.972177 
L 400.06305 388.148642 
L 401.49432 358.800218 
L 402.92559 333.455333 
L 404.35686 314.981434 
L 405.78813 309.061064 
L 407.2194 308.658214 
L 408.65067 301.921743 
L 410.08194 293.76975 
L 411.51321 295.639778 
L 412.94448 312.191992 
L 414.37575 339.912722 
L 415.80702 360.256996 
L 417.23829 367.10718 
L 418.66956 365.919085 
L 420.10083 367.84077 
L 421.5321 375.982362 
L 422.96337 385.632736 
L 425.82591 401.337439 
L 427.25718 410.533064 
L 428.68845 416.755572 
L 430.11972 420.883259 
L 431.55099 422.941955 
L 432.98226 424.241209 
L 434.41353 422.709467 
L 435.8448 415.092099 
L 437.27607 405.423767 
L 438.70734 398.751849 
L 440.13861 395.164022 
L 441.56988 394.063673 
L 443.00115 395.760705 
L 444.43242 400.239656 
L 445.86369 408.218687 
L 447.29496 408.520894 
L 448.72623 401.546665 
L 450.1575 374.946462 
L 451.58877 332.453062 
L 453.02004 300.557877 
L 454.45131 282.724655 
L 455.88258 267.929103 
L 457.31385 261.027262 
L 458.74512 261.27549 
L 460.17639 278.033983 
L 461.60766 306.157909 
L 463.03893 328.723059 
L 464.4702 339.323701 
L 465.90147 340.935794 
L 467.33274 338.33183 
L 468.76401 342.836678 
L 470.19528 357.240128 
L 471.62655 370.072392 
L 473.05782 376.251044 
L 474.48909 383.256198 
L 475.92036 385.798105 
L 477.35163 395.675489 
L 478.7829 399.033394 
L 480.21417 403.424529 
L 483.07671 416.352618 
L 484.50798 421.461845 
L 485.93925 425.491399 
L 487.37052 427.01539 
L 488.80179 427.284022 
L 490.23306 425.571474 
L 491.66433 416.763303 
L 495.95814 360.267397 
L 497.38941 356.289512 
L 498.82068 349.026077 
L 501.68322 341.069962 
L 503.11449 338.642115 
L 504.54576 337.371161 
L 505.97703 336.410145 
L 507.4083 335.242851 
L 508.83957 340.026435 
L 510.27084 342.950391 
L 511.70211 352.549109 
L 514.56465 377.139603 
L 515.99592 382.801691 
L 517.42719 385.705193 
L 518.85846 382.615521 
L 520.28973 363.924942 
L 521.721 331.326677 
L 523.15227 294.038432 
L 524.58354 289.171989 
L 527.44608 302.180025 
L 528.87735 300.361652 
L 531.73989 289.58524 
L 533.17116 287.177847 
L 534.60243 284.470916 
L 536.0337 283.541102 
L 537.46497 281.402392 
L 538.89624 281.536559 
L 540.32751 283.758128 
L 541.75878 290.56671 
L 543.19005 311.210175 
L 544.62132 345.058594 
L 546.05259 374.504783 
L 547.48386 390.282152 
L 548.91513 395.499823 
L 550.3464 398.733752 
L 551.77767 403.43486 
L 553.20894 409.034926 
L 554.64021 413.550036 
L 556.07148 417.36262 
L 558.93402 423.298418 
L 561.79656 426.374799 
L 563.22783 427.650813 
L 566.09037 428.696942 
L 567.52164 428.306905 
L 568.95291 428.831259 
L 570.38418 428.937161 
L 571.81545 426.992141 
L 573.24672 412.015739 
L 574.67799 386.712318 
L 576.10926 358.252453 
L 577.54053 320.643523 
L 578.9718 299.452293 
L 580.40307 291.124876 
L 581.83434 283.520301 
L 583.26561 281.329934 
L 584.69688 278.49889 
L 586.12815 279.07751 
L 588.99069 268.425212 
L 590.42196 269.974902 
L 591.85323 268.528524 
L 593.2845 269.623708 
L 594.71577 271.215 
L 596.14704 277.971926 
L 597.57831 287.766868 
L 599.00958 299.607262 
L 601.87212 315.167605 
L 603.30339 325.272138 
L 606.16593 342.919536 
L 609.02847 357.012701 
L 611.89101 367.778713 
L 613.32228 375.383287 
L 617.61609 407.495429 
L 619.04736 415.740438 
L 620.47863 421.268151 
L 621.9099 423.603191 
L 623.34117 412.137114 
L 624.77244 378.056589 
L 626.20371 323.340053 
L 627.63498 279.718187 
L 629.06625 243.234949 
L 630.49752 212.858599 
L 631.92879 200.873637 
L 633.36006 196.038049 
L 634.79133 192.855811 
L 636.2226 191.925997 
L 637.65387 192.235935 
L 639.08514 191.760628 
L 640.51641 191.967253 
L 641.94768 190.810013 
L 643.37895 189.239521 
L 644.81022 188.660901 
L 646.24149 189.983511 
L 647.67276 192.938323 
L 649.10403 200.81158 
L 650.5353 217.46676 
L 651.96657 255.922646 
L 653.39784 300.351252 
L 654.82911 332.793855 
L 656.26038 354.719021 
L 657.69165 371.746196 
L 659.12292 385.488167 
L 660.55419 395.778802 
L 661.98546 404.4164 
L 664.848 413.601693 
L 667.71054 418.468135 
L 667.71054 418.468135 
" style="fill:none;stroke:#ff7f0e;stroke-linecap:square;stroke-width:1.5;"/>
   </g>
   <g id="line2d_33">
    <path clip-path="url(#pa99d3df8f4)" d="M 92.34 417.385848 
L 93.77127 417.454319 
L 96.63381 417.946372 
L 98.06508 418.466853 
L 100.92762 418.785839 
L 103.79016 419.023493 
L 105.22143 418.77166 
L 106.6527 418.709672 
L 108.08397 419.10226 
L 109.51524 419.234001 
L 112.37778 418.957622 
L 115.24032 419.483269 
L 120.9654 419.147468 
L 122.39667 419.545256 
L 123.82794 419.644721 
L 125.25921 420.183264 
L 126.69048 419.73642 
L 133.84683 420.059289 
L 135.2781 420.331785 
L 138.14064 420.448029 
L 139.57191 420.034744 
L 141.00318 420.82772 
L 142.43445 420.70118 
L 143.86572 421.326256 
L 145.29699 420.76185 
L 146.72826 420.44158 
L 148.15953 420.64304 
L 149.5908 421.128644 
L 153.88461 421.903559 
L 155.31588 421.841571 
L 159.60969 420.321454 
L 161.04096 420.818706 
L 162.47223 422.253574 
L 163.9035 422.10117 
L 165.33477 419.742868 
L 166.76604 422.572595 
L 168.19731 422.536401 
L 169.62858 419.017044 
L 171.05985 424.155969 
L 172.49112 419.839732 
L 173.92239 420.378275 
L 175.35366 421.889345 
L 176.78493 419.71704 
L 178.2162 422.430523 
L 179.64747 419.586582 
L 181.07874 421.222943 
L 182.51001 419.975321 
L 183.94128 417.920543 
L 185.37255 421.552261 
L 186.80382 412.804833 
L 188.23509 423.273873 
L 189.66636 416.158889 
L 191.09763 420.202644 
L 192.5289 421.859633 
L 193.96017 409.61996 
L 195.39144 423.255776 
L 196.82271 421.464445 
L 198.25398 409.76075 
L 199.68525 422.957452 
L 201.11652 422.737895 
L 202.54779 411.07549 
L 203.97906 419.454841 
L 205.41033 424.128837 
L 206.8416 415.656505 
L 208.27287 412.422542 
L 209.70414 423.307432 
L 211.13541 420.927185 
L 212.56668 410.805594 
L 213.99795 412.410928 
L 215.42922 424.832719 
L 216.86049 419.268878 
L 218.29176 408.300054 
L 219.72303 410.551161 
L 221.1543 424.150817 
L 222.58557 425.853022 
L 224.01684 410.884362 
L 225.44811 399.774714 
L 228.31065 426.03125 
L 229.74192 423.636785 
L 232.60446 395.151126 
L 235.467 423.902832 
L 236.89827 426.06354 
L 238.32954 419.834567 
L 239.76081 399.420851 
L 241.19208 393.85573 
L 242.62335 412.589159 
L 244.05462 423.208002 
L 245.48589 425.732912 
L 246.91716 422.872202 
L 248.34843 407.665929 
L 249.7797 391.178338 
L 251.21097 397.310534 
L 252.64224 418.747114 
L 254.07351 424.636411 
L 255.50478 423.390117 
L 256.93605 419.478103 
L 258.36732 410.062957 
L 259.79859 394.464027 
L 261.22986 397.589478 
L 262.66113 411.739326 
L 264.0924 422.332341 
L 265.52367 422.148944 
L 266.95494 414.779561 
L 268.38621 409.551524 
L 269.81748 401.828209 
L 271.24875 393.038208 
L 272.68002 399.568089 
L 275.54256 418.044519 
L 276.97383 418.687692 
L 278.4051 416.117564 
L 279.83637 412.284352 
L 281.26764 397.499097 
L 282.69891 385.99433 
L 284.13018 378.689293 
L 285.56145 389.109311 
L 286.99272 405.005351 
L 288.42399 415.988423 
L 289.85526 421.332704 
L 291.28653 419.565919 
L 294.14907 404.798691 
L 295.58034 394.755903 
L 297.01161 382.119758 
L 298.44288 362.571477 
L 299.87415 366.456103 
L 301.30542 379.110517 
L 302.73669 397.171027 
L 304.16796 413.573299 
L 305.59923 421.826074 
L 307.0305 424.880506 
L 308.46177 421.487708 
L 309.89304 412.971451 
L 311.32431 403.021575 
L 312.75558 387.502764 
L 314.18685 367.200092 
L 315.61812 353.72715 
L 317.04939 350.606969 
L 318.48066 362.563503 
L 319.91193 376.470497 
L 321.3432 392.183383 
L 324.20574 415.012015 
L 325.63701 419.082915 
L 327.06828 423.520541 
L 328.49955 422.854139 
L 329.93082 421.629745 
L 331.36209 415.983258 
L 332.79336 397.369921 
L 337.08717 325.768247 
L 338.51844 328.103183 
L 341.38098 361.951601 
L 342.81225 369.380059 
L 344.24352 385.692019 
L 345.67479 389.504534 
L 347.10606 392.286695 
L 348.53733 393.766632 
L 349.9686 389.347138 
L 351.39987 397.258877 
L 352.83114 406.206447 
L 354.26241 412.359271 
L 355.69368 417.608005 
L 357.12495 415.528613 
L 358.55622 408.85926 
L 359.98749 392.730801 
L 362.85003 329.756532 
L 364.2813 331.089196 
L 365.71257 341.090763 
L 367.14384 348.72654 
L 368.57511 354.439938 
L 370.00638 355.142672 
L 371.43765 362.064968 
L 372.86892 372.479786 
L 374.30019 375.662024 
L 375.73146 372.562297 
L 377.16273 362.695244 
L 378.594 356.940243 
L 380.02527 352.135858 
L 381.45654 354.522796 
L 382.88781 352.322029 
L 384.31908 359.172213 
L 385.75035 371.942421 
L 387.18162 387.502764 
L 388.61289 393.206109 
L 390.04416 388.618749 
L 391.47543 378.18313 
L 392.9067 365.247206 
L 394.33797 364.885611 
L 395.76924 375.104205 
L 397.20051 387.843904 
L 398.63178 384.278924 
L 400.06305 371.549972 
L 401.49432 355.390553 
L 402.92559 346.907821 
L 404.35686 352.39414 
L 405.78813 364.183224 
L 407.2194 365.939539 
L 408.65067 360.422366 
L 410.08194 355.814205 
L 411.51321 347.755124 
L 412.94448 339.024163 
L 414.37575 337.030021 
L 415.80702 334.31269 
L 417.23829 333.34162 
L 418.66956 331.709072 
L 420.10083 325.489164 
L 421.5321 319.909934 
L 422.96337 317.66791 
L 424.39464 310.43533 
L 425.82591 309.970423 
L 427.25718 318.039905 
L 428.68845 325.034658 
L 430.11972 334.261034 
L 431.55099 336.885453 
L 432.98226 351.722607 
L 434.41353 370.826783 
L 435.8448 383.049572 
L 437.27607 383.91733 
L 438.70734 379.422882 
L 440.13861 378.617182 
L 441.56988 380.900461 
L 443.00115 385.632736 
L 445.86369 398.165498 
L 447.29496 402.990581 
L 448.72623 402.659946 
L 450.1575 393.815688 
L 451.58877 371.642884 
L 453.02004 351.867176 
L 454.45131 334.860455 
L 455.88258 321.2842 
L 457.31385 313.038948 
L 458.74512 301.322668 
L 461.60766 283.67527 
L 463.03893 282.807513 
L 464.4702 289.729808 
L 465.90147 282.146035 
L 467.33274 279.955668 
L 468.76401 276.174355 
L 470.19528 270.966773 
L 471.62655 266.565584 
L 473.05782 263.217976 
L 474.48909 264.581495 
L 475.92036 264.023676 
L 477.35163 261.998679 
L 478.7829 258.713128 
L 480.21417 256.212129 
L 481.64544 271.762419 
L 483.07671 295.433153 
L 484.50798 334.622628 
L 485.93925 356.175799 
L 487.37052 367.138035 
L 488.80179 364.689387 
L 491.66433 355.008158 
L 493.0956 354.853189 
L 494.52687 351.83632 
L 495.95814 353.592636 
L 497.38941 359.533807 
L 498.82068 358.986042 
L 500.25195 367.241348 
L 501.68322 372.955093 
L 503.11449 381.354967 
L 504.54576 388.907886 
L 505.97703 397.607575 
L 507.4083 397.266608 
L 508.83957 395.954434 
L 510.27084 398.578783 
L 511.70211 402.040035 
L 513.13338 404.540375 
L 514.56465 407.42311 
L 515.99592 407.929377 
L 517.42719 403.80682 
L 518.85846 393.67105 
L 520.28973 368.894697 
L 523.15227 274.107755 
L 524.58354 255.633509 
L 526.01481 244.350934 
L 527.44608 230.960503 
L 528.87735 213.871271 
L 530.30862 206.907374 
L 531.73989 203.497709 
L 533.17116 200.584153 
L 534.60243 195.356117 
L 536.0337 196.823295 
L 537.46497 192.669641 
L 538.89624 187.441604 
L 540.32751 182.8955 
L 541.75878 183.680745 
L 543.19005 183.081671 
L 544.62132 185.209981 
L 546.05259 190.810013 
L 547.48386 204.510381 
L 548.91513 230.795134 
L 550.3464 260.903495 
L 551.77767 282.476774 
L 553.20894 292.912046 
L 554.64021 294.668708 
L 556.07148 292.044289 
L 557.50275 290.701225 
L 558.93402 288.118062 
L 560.36529 286.588826 
L 561.79656 285.783126 
L 563.22783 291.899721 
L 564.6591 294.462083 
L 567.52164 321.242598 
L 568.95291 331.45079 
L 570.38418 339.447815 
L 571.81545 349.181046 
L 573.24672 354.677765 
L 574.67799 362.819358 
L 576.10926 368.563958 
L 577.54053 362.7365 
L 578.9718 345.543955 
L 580.40307 352.941905 
L 581.83434 347.362674 
L 583.26561 346.846111 
L 584.69688 357.446753 
L 586.12815 364.782299 
L 587.55942 360.029569 
L 588.99069 361.889544 
L 590.42196 365.216351 
L 591.85323 351.330158 
L 593.2845 345.254818 
L 594.71577 349.304814 
L 596.14704 344.882823 
L 597.57831 329.136309 
L 599.00958 330.12818 
L 600.44085 338.931251 
L 601.87212 327.607421 
L 603.30339 325.003456 
L 604.73466 317.275114 
L 606.16593 318.184474 
L 607.5972 311.819997 
L 609.02847 311.819997 
L 610.45974 308.182906 
L 611.89101 310.001279 
L 613.32228 309.877511 
L 614.75355 315.167605 
L 616.18482 319.258856 
L 617.61609 326.243555 
L 619.04736 331.285421 
L 620.47863 328.392666 
L 621.9099 319.300458 
L 623.34117 279.377047 
L 624.77244 216.020383 
L 626.20371 163.36802 
L 627.63498 115.42713 
L 629.06625 99.970446 
L 630.49752 78.314655 
L 631.92879 67.93832 
L 633.36006 67.279615 
L 634.79133 66.204886 
L 636.2226 68.766901 
L 637.65387 70.957962 
L 639.08514 74.677911 
L 640.51641 81.743388 
L 641.94768 93.275231 
L 643.37895 118.526856 
L 644.81022 147.436028 
L 646.24149 173.080103 
L 647.67276 190.12808 
L 649.10403 198.455843 
L 650.5353 201.927218 
L 651.96657 201.803451 
L 653.39784 200.997404 
L 654.82911 202.650753 
L 656.26038 202.650753 
L 657.69165 201.204029 
L 660.55419 208.560376 
L 661.98546 216.805628 
L 663.41673 223.542099 
L 664.848 225.711665 
L 667.71054 243.049125 
L 667.71054 243.049125 
" style="fill:none;stroke:#2ca02c;stroke-linecap:square;stroke-width:1.5;"/>
   </g>
   <g id="line2d_34">
    <path clip-path="url(#pa99d3df8f4)" d="M 92.34 420.286577 
L 93.77127 419.922382 
L 95.20254 419.762248 
L 96.63381 419.434178 
L 102.35889 416.802063 
L 103.79016 415.732672 
L 105.22143 415.404637 
L 106.6527 414.306854 
L 109.51524 413.423461 
L 110.94651 412.323112 
L 112.37778 412.150046 
L 113.80905 411.669607 
L 115.24032 410.987674 
L 116.67159 410.876631 
L 118.10286 410.432351 
L 119.53413 409.853731 
L 120.9654 409.840834 
L 122.39667 409.223489 
L 123.82794 409.290642 
L 125.25921 408.332331 
L 129.55302 407.758911 
L 130.98429 407.252644 
L 132.41556 406.950437 
L 133.84683 407.004659 
L 136.70937 405.720843 
L 138.14064 406.017884 
L 139.57191 406.68179 
L 141.00318 405.333386 
L 142.43445 405.315289 
L 143.86572 404.894273 
L 145.29699 404.734103 
L 146.72826 404.963991 
L 148.15953 403.783557 
L 151.02207 404.651453 
L 152.45334 403.473619 
L 153.88461 402.954421 
L 155.31588 403.367707 
L 156.74715 404.173615 
L 158.17842 402.913096 
L 159.60969 403.14555 
L 161.04096 402.12012 
L 162.47223 402.016772 
L 165.33477 402.099422 
L 166.76604 401.556996 
L 168.19731 401.495009 
L 169.62858 401.96255 
L 171.05985 405.914572 
L 172.49112 402.021938 
L 173.92239 401.009404 
L 175.35366 402.791687 
L 176.78493 401.18247 
L 178.2162 398.049254 
L 179.64747 403.119722 
L 181.07874 395.164022 
L 182.51001 401.856638 
L 183.94128 397.207186 
L 185.37255 400.035596 
L 186.80382 397.398349 
L 188.23509 397.907216 
L 189.66636 396.031918 
L 191.09763 399.242619 
L 192.5289 397.499097 
L 193.96017 398.948143 
L 195.39144 398.348895 
L 196.82271 399.828971 
L 198.25398 397.891719 
L 199.68525 398.033757 
L 201.11652 401.549265 
L 202.54779 399.08765 
L 203.97906 401.665474 
L 205.41033 399.867695 
L 206.8416 401.414924 
L 208.27287 404.527478 
L 209.70414 396.899814 
L 211.13541 401.603487 
L 212.56668 407.05115 
L 213.99795 398.638205 
L 215.42922 398.757015 
L 216.86049 403.664748 
L 218.29176 397.573981 
L 219.72303 397.52749 
L 221.1543 407.226816 
L 222.58557 404.377675 
L 224.01684 390.274525 
L 226.87938 407.733083 
L 228.31065 398.356661 
L 229.74192 390.579263 
L 231.17319 401.068827 
L 232.60446 409.486937 
L 234.03573 395.564411 
L 235.467 390.625719 
L 236.89827 402.24926 
L 238.32954 407.038253 
L 239.76081 401.123048 
L 241.19208 388.275182 
L 242.62335 390.92803 
L 244.05462 400.064024 
L 245.48589 404.576569 
L 246.91716 404.245934 
L 248.34843 394.926403 
L 249.7797 393.438597 
L 251.21097 396.442638 
L 252.64224 401.497609 
L 254.07351 402.437823 
L 255.50478 400.296478 
L 256.93605 396.791336 
L 258.36732 401.639646 
L 259.79859 399.914221 
L 261.22986 399.937449 
L 262.66113 398.366992 
L 264.0924 401.611253 
L 265.52367 399.144472 
L 266.95494 397.697991 
L 268.38621 399.302041 
L 269.81748 394.905741 
L 271.24875 401.164373 
L 272.68002 400.699432 
L 274.11129 403.370272 
L 275.54256 399.823805 
L 276.97383 399.229722 
L 278.4051 401.802381 
L 279.83637 400.118281 
L 281.26764 397.160696 
L 282.69891 394.577706 
L 284.13018 398.826768 
L 285.56145 396.176591 
L 286.99272 399.562923 
L 288.42399 405.139658 
L 289.85526 407.095075 
L 291.28653 406.183185 
L 292.7178 406.699887 
L 294.14907 402.337076 
L 295.58034 390.279379 
L 297.01161 381.137941 
L 298.44288 384.731003 
L 299.87415 390.282152 
L 301.30542 392.976221 
L 302.73669 400.025265 
L 304.16796 404.243333 
L 305.59923 412.320512 
L 307.0305 403.765495 
L 308.46177 397.132302 
L 309.89304 382.718833 
L 311.32431 380.032704 
L 312.75558 381.344567 
L 314.18685 378.472267 
L 315.61812 389.558964 
L 317.04939 395.489492 
L 318.48066 397.297602 
L 319.91193 406.947837 
L 321.3432 403.920464 
L 322.77447 389.259426 
L 324.20574 380.383898 
L 325.63701 378.555125 
L 327.06828 382.419296 
L 328.49955 390.726258 
L 329.93082 389.414395 
L 331.36209 383.442022 
L 332.79336 393.67105 
L 334.22463 394.435633 
L 335.6559 394.714578 
L 337.08717 394.043011 
L 338.51844 395.117532 
L 339.94971 371.580827 
L 341.38098 354.946448 
L 342.81225 356.341169 
L 344.24352 358.645249 
L 345.67479 365.588345 
L 347.10606 368.594813 
L 348.53733 364.162423 
L 349.9686 365.732914 
L 351.39987 379.681164 
L 352.83114 394.910906 
L 354.26241 395.396511 
L 355.69368 395.696152 
L 357.12495 394.104998 
L 359.98749 371.787452 
L 361.41876 361.600061 
L 362.85003 361.76543 
L 364.2813 366.229023 
L 365.71257 358.851874 
L 367.14384 362.385306 
L 368.57511 363.005182 
L 370.00638 369.121777 
L 371.43765 368.129906 
L 372.86892 375.341685 
L 374.30019 372.84138 
L 375.73146 381.726962 
L 377.16273 379.764022 
L 378.594 362.013311 
L 380.02527 348.933165 
L 381.45654 345.606012 
L 382.88781 330.417664 
L 384.31908 338.228517 
L 385.75035 352.714478 
L 387.18162 360.38111 
L 388.61289 362.137425 
L 390.04416 360.856071 
L 391.47543 354.719021 
L 392.9067 361.145554 
L 394.33797 375.052548 
L 395.76924 377.738677 
L 397.20051 390.406266 
L 398.63178 384.723376 
L 400.06305 371.994077 
L 401.49432 370.196506 
L 402.92559 363.955797 
L 404.35686 349.098188 
L 405.78813 330.314351 
L 407.2194 331.264966 
L 408.65067 323.288397 
L 410.08194 326.883885 
L 411.51321 341.390301 
L 412.94448 347.858436 
L 414.37575 333.579101 
L 415.80702 329.136309 
L 417.23829 319.692908 
L 418.66956 340.108946 
L 420.10083 338.869194 
L 421.5321 340.646311 
L 422.96337 334.674284 
L 424.39464 340.852936 
L 425.82591 353.334354 
L 427.25718 375.424543 
L 428.68845 377.325427 
L 430.11972 378.276042 
L 431.55099 377.387484 
L 432.98226 366.290733 
L 434.41353 356.640706 
L 435.8448 356.620252 
L 437.27607 344.841568 
L 438.70734 331.264966 
L 440.13861 325.189627 
L 441.56988 331.574904 
L 443.00115 342.464683 
L 444.43242 365.712459 
L 445.86369 381.2312 
L 447.29496 370.279018 
L 448.72623 373.564569 
L 450.1575 348.809051 
L 451.58877 311.819997 
L 453.02004 301.81843 
L 454.45131 276.628861 
L 455.88258 276.256866 
L 457.31385 275.347854 
L 458.74512 297.768435 
L 460.17639 335.335763 
L 461.60766 337.608641 
L 463.03893 340.832482 
L 464.4702 351.453925 
L 465.90147 352.115403 
L 467.33274 348.333744 
L 468.76401 354.057889 
L 470.19528 350.482855 
L 471.62655 329.363736 
L 473.05782 327.814046 
L 474.48909 317.729967 
L 475.92036 313.328432 
L 477.35163 314.836866 
L 478.7829 307.89377 
L 480.21417 308.017537 
L 481.64544 320.788091 
L 483.07671 356.516592 
L 484.50798 361.972056 
L 485.93925 369.121777 
L 487.37052 354.222912 
L 488.80179 341.100817 
L 490.23306 348.023806 
L 491.66433 346.949423 
L 493.0956 345.482245 
L 494.52687 351.040674 
L 495.95814 340.956249 
L 497.38941 354.305771 
L 498.82068 298.305453 
L 500.25195 258.216326 
L 501.68322 280.162293 
L 503.11449 288.03555 
L 504.54576 280.327663 
L 505.97703 276.236412 
L 507.4083 292.912046 
L 508.83957 301.673862 
L 510.27084 307.997082 
L 511.70211 310.166648 
L 513.13338 311.013951 
L 514.56465 327.607421 
L 515.99592 309.195578 
L 518.85846 301.777174 
L 520.28973 281.960211 
L 521.721 252.03802 
L 523.15227 229.824064 
L 524.58354 230.051144 
L 526.01481 202.671208 
L 527.44608 215.751701 
L 528.87735 262.226105 
L 530.30862 289.688553 
L 531.73989 322.0899 
L 533.17116 342.196348 
L 534.60243 323.123027 
L 536.0337 335.170393 
L 537.46497 368.522702 
L 538.89624 358.562391 
L 540.32751 372.407328 
L 541.75878 352.652421 
L 543.19005 345.420188 
L 544.62132 335.955639 
L 546.05259 307.315149 
L 547.48386 261.027262 
L 550.3464 225.071335 
L 551.77767 239.577404 
L 553.20894 242.139766 
L 554.64021 244.288877 
L 556.07148 234.742163 
L 557.50275 268.466467 
L 558.93402 317.89499 
L 560.36529 333.062537 
L 561.79656 327.235426 
L 563.22783 316.283243 
L 564.6591 303.926286 
L 566.09037 307.852514 
L 567.52164 268.673093 
L 568.95291 262.804379 
L 570.38418 255.530196 
L 571.81545 253.422341 
L 573.24672 234.163543 
L 574.67799 203.663079 
L 576.10926 220.979737 
L 577.54053 228.666824 
L 578.9718 222.012864 
L 580.40307 213.664646 
L 581.83434 166.012893 
L 583.26561 152.044189 
L 584.69688 149.977589 
L 586.12815 93.977965 
L 587.55942 98.896064 
L 588.99069 100.383697 
L 590.42196 109.558763 
L 591.85323 170.558997 
L 593.2845 170.558997 
L 594.71577 208.622433 
L 596.14704 236.395166 
L 597.57831 234.659305 
L 599.00958 264.126989 
L 600.44085 287.68401 
L 601.87212 285.121994 
L 603.30339 317.729967 
L 604.73466 340.377629 
L 606.16593 349.883434 
L 607.5972 345.833439 
L 609.02847 306.488648 
L 610.45974 302.272937 
L 611.89101 316.117874 
L 613.32228 303.678058 
L 614.75355 298.636192 
L 616.18482 298.801562 
L 617.61609 321.366712 
L 619.04736 345.957553 
L 620.47863 340.419231 
L 621.9099 344.345459 
L 623.34117 288.84125 
L 624.77244 268.053217 
L 626.20371 243.049125 
L 627.63498 201.596825 
L 629.06625 121.502469 
L 630.49752 131.793173 
L 631.92879 198.662468 
L 633.36006 225.27796 
L 634.79133 278.468035 
L 636.2226 280.699658 
L 637.65387 297.520207 
L 639.08514 309.794653 
L 640.51641 301.611805 
L 641.94768 315.746225 
L 643.37895 323.22634 
L 644.81022 318.597724 
L 646.24149 303.223552 
L 647.67276 271.855331 
L 649.10403 212.8794 
L 650.5353 177.915691 
L 651.96657 233.791548 
L 653.39784 172.460227 
L 654.82911 139.645629 
L 656.26038 78.727213 
L 657.69165 112.286148 
L 659.12292 109.228023 
L 660.55419 101.044828 
L 661.98546 72.278838 
L 663.41673 82.363264 
L 664.848 54.424469 
L 667.71054 10.370978 
L 667.71054 10.370978 
" style="fill:none;stroke:#d62728;stroke-linecap:square;stroke-width:1.5;"/>
   </g>
   <g id="line2d_35">
    <path clip-path="url(#pa99d3df8f4)" d="M 92.34 420.017964 
L 93.77127 419.661501 
L 95.20254 418.868524 
L 96.63381 418.496564 
L 102.35889 416.011651 
L 103.79016 415.048174 
L 105.22143 415.112762 
L 106.6527 414.492851 
L 109.51524 413.74633 
L 110.94651 413.059267 
L 112.37778 412.976616 
L 113.80905 412.439356 
L 115.24032 412.452253 
L 118.10286 411.832342 
L 119.53413 411.971814 
L 120.9654 411.837508 
L 123.82794 411.062593 
L 125.25921 411.11425 
L 126.69048 410.974778 
L 128.12175 410.440083 
L 129.55302 410.41942 
L 130.98429 410.034563 
L 132.41556 410.101716 
L 133.84683 409.670334 
L 135.2781 409.946713 
L 138.14064 408.841198 
L 141.00318 408.910951 
L 142.43445 408.386587 
L 143.86572 408.526059 
L 145.29699 408.812769 
L 146.72826 407.598776 
L 148.15953 409.161502 
L 149.5908 407.54712 
L 151.02207 407.54712 
L 152.45334 408.314268 
L 153.88461 407.792505 
L 155.31588 406.694721 
L 156.74715 407.038253 
L 158.17842 406.581043 
L 159.60969 406.671458 
L 161.04096 406.643065 
L 162.47223 404.963991 
L 163.9035 404.318252 
L 165.33477 404.165849 
L 166.76604 404.654053 
L 168.19731 406.433735 
L 169.62858 407.286203 
L 171.05985 405.731175 
L 172.49112 406.423404 
L 173.92239 408.6578 
L 175.35366 405.687249 
L 178.2162 406.619802 
L 179.64747 402.559233 
L 181.07874 404.579134 
L 182.51001 402.53597 
L 183.94128 403.093893 
L 185.37255 402.114954 
L 186.80382 402.254426 
L 188.23509 401.838541 
L 189.66636 402.435223 
L 191.09763 402.520473 
L 192.5289 404.912335 
L 193.96017 402.907931 
L 195.39144 407.562617 
L 196.82271 404.883941 
L 198.25398 408.329765 
L 199.68525 402.267323 
L 201.11652 408.838598 
L 202.54779 405.201645 
L 203.97906 404.938163 
L 205.41033 408.805038 
L 206.8416 402.714202 
L 208.27287 407.330129 
L 209.70414 405.44963 
L 211.13541 401.42269 
L 212.56668 410.065557 
L 213.99795 404.447393 
L 215.42922 398.157767 
L 216.86049 400.944817 
L 218.29176 401.169539 
L 219.72303 399.227122 
L 221.1543 401.18247 
L 222.58557 404.713441 
L 224.01684 402.287985 
L 225.44811 395.148526 
L 226.87938 400.141509 
L 228.31065 408.345262 
L 229.74192 404.963991 
L 231.17319 394.185083 
L 232.60446 396.693189 
L 234.03573 408.985835 
L 235.467 409.543793 
L 236.89827 404.863279 
L 238.32954 399.588751 
L 241.19208 406.456998 
L 242.62335 401.138545 
L 244.05462 401.156642 
L 245.48589 402.949256 
L 246.91716 407.105406 
L 248.34843 403.380603 
L 249.7797 406.242607 
L 251.21097 406.415673 
L 252.64224 399.500935 
L 254.07351 394.665521 
L 255.50478 397.227884 
L 256.93605 401.972882 
L 258.36732 409.412052 
L 259.79859 407.203553 
L 262.66113 389.716359 
L 264.0924 393.826019 
L 265.52367 401.451118 
L 266.95494 408.342662 
L 268.38621 406.22711 
L 269.81748 392.043668 
L 271.24875 387.368597 
L 272.68002 388.011701 
L 274.11129 398.317901 
L 275.54256 410.186932 
L 276.97383 413.296886 
L 278.4051 401.569928 
L 279.83637 379.588252 
L 281.26764 378.064216 
L 282.69891 378.686866 
L 284.13018 392.098098 
L 285.56145 403.522676 
L 286.99272 409.370727 
L 288.42399 404.217505 
L 289.85526 388.45338 
L 291.28653 374.956863 
L 292.7178 375.556284 
L 294.14907 375.408942 
L 297.01161 403.310885 
L 298.44288 405.454796 
L 299.87415 395.902777 
L 301.30542 387.655307 
L 302.73669 385.004886 
L 304.16796 383.628193 
L 305.59923 384.924801 
L 307.0305 392.596633 
L 308.46177 398.320467 
L 309.89304 400.704597 
L 311.32431 397.44484 
L 312.75558 399.839302 
L 314.18685 383.003116 
L 315.61812 382.819719 
L 317.04939 387.748219 
L 318.48066 381.696107 
L 319.91193 395.489492 
L 321.3432 400.826007 
L 322.77447 395.559245 
L 324.20574 404.062536 
L 325.63701 406.469999 
L 327.06828 393.492819 
L 328.49955 388.734889 
L 329.93082 394.928969 
L 331.36209 396.533019 
L 332.79336 384.542406 
L 334.22463 381.905159 
L 335.6559 388.610775 
L 337.08717 404.716041 
L 338.51844 405.40827 
L 339.94971 401.09722 
L 341.38098 395.288032 
L 342.81225 399.413085 
L 344.24352 394.309058 
L 345.67479 392.614661 
L 347.10606 381.437826 
L 348.53733 388.58512 
L 349.9686 384.62249 
L 351.39987 368.819813 
L 352.83114 380.797148 
L 354.26241 381.226 
L 355.69368 399.617145 
L 357.12495 406.792868 
L 358.55622 407.841561 
L 359.98749 410.034563 
L 361.41876 416.90281 
L 362.85003 421.082154 
L 364.2813 412.261124 
L 365.71257 411.801348 
L 367.14384 408.177362 
L 368.57511 398.901653 
L 370.00638 386.939745 
L 371.43765 369.811684 
L 372.86892 364.586074 
L 374.30019 357.178071 
L 375.73146 368.884297 
L 377.16273 376.478471 
L 378.594 392.462119 
L 380.02527 395.499823 
L 381.45654 397.597244 
L 382.88781 392.214238 
L 384.31908 397.700556 
L 385.75035 403.961789 
L 387.18162 412.75446 
L 388.61289 409.864062 
L 390.04416 397.183958 
L 391.47543 390.054726 
L 392.9067 384.61729 
L 394.33797 378.70732 
L 395.76924 361.9412 
L 397.20051 371.849509 
L 398.63178 380.47681 
L 400.06305 378.720494 
L 401.49432 368.512302 
L 402.92559 352.063747 
L 404.35686 364.131568 
L 405.78813 374.639298 
L 407.2194 376.798463 
L 408.65067 398.382489 
L 410.08194 385.42611 
L 411.51321 390.095982 
L 412.94448 391.976757 
L 414.37575 391.800987 
L 415.80702 388.804573 
L 417.23829 388.070984 
L 418.66956 375.827393 
L 420.10083 386.087242 
L 421.5321 374.721809 
L 422.96337 346.360403 
L 424.39464 348.901963 
L 425.82591 358.004572 
L 427.25718 376.395613 
L 428.68845 374.794267 
L 430.11972 371.735796 
L 431.55099 368.25402 
L 432.98226 360.349908 
L 434.41353 359.347637 
L 435.8448 348.271687 
L 437.27607 335.614499 
L 438.70734 338.5076 
L 440.13861 350.85485 
L 443.00115 367.91288 
L 444.43242 382.191869 
L 445.86369 402.174341 
L 447.29496 399.271047 
L 450.1575 383.214942 
L 451.58877 359.203068 
L 453.02004 319.982391 
L 454.45131 308.813183 
L 455.88258 302.066311 
L 457.31385 318.938864 
L 458.74512 338.631714 
L 460.17639 378.038562 
L 461.60766 370.454788 
L 463.03893 352.311628 
L 464.4702 346.267491 
L 465.90147 308.771927 
L 467.33274 309.268036 
L 468.76401 300.888616 
L 470.19528 295.929262 
L 471.62655 296.373367 
L 473.05782 295.825949 
L 474.48909 293.511468 
L 475.92036 290.824992 
L 477.35163 278.788373 
L 478.7829 286.423803 
L 480.21417 306.974009 
L 481.64544 321.85242 
L 483.07671 313.627969 
L 484.50798 332.132723 
L 485.93925 352.776535 
L 487.37052 369.783256 
L 490.23306 362.16828 
L 491.66433 357.229727 
L 493.0956 340.429285 
L 494.52687 319.55874 
L 495.95814 303.264807 
L 497.38941 309.371349 
L 498.82068 303.915885 
L 500.25195 318.494412 
L 501.68322 320.643523 
L 503.11449 307.924625 
L 504.54576 300.134226 
L 505.97703 324.858888 
L 507.4083 333.569047 
L 508.83957 345.978007 
L 510.27084 333.682413 
L 513.13338 311.241377 
L 514.56465 309.061064 
L 515.99592 288.386744 
L 517.42719 294.472484 
L 518.85846 296.383768 
L 520.28973 286.031007 
L 521.721 242.428903 
L 523.15227 219.450502 
L 524.58354 239.763228 
L 526.01481 258.092558 
L 527.44608 259.684198 
L 528.87735 242.90421 
L 530.30862 265.614969 
L 531.73989 261.420058 
L 533.17116 236.126483 
L 534.60243 249.413601 
L 536.0337 274.748432 
L 537.46497 270.47101 
L 538.89624 278.302665 
L 540.32751 266.999289 
L 541.75878 254.786207 
L 543.19005 254.91032 
L 544.62132 267.288772 
L 546.05259 268.218586 
L 548.91513 282.29095 
L 550.3464 314.671496 
L 551.77767 341.617727 
L 553.20894 352.115403 
L 554.64021 361.620862 
L 557.50275 344.262948 
L 558.93402 331.099597 
L 560.36529 332.566775 
L 561.79656 340.026435 
L 563.22783 285.659012 
L 564.6591 287.415674 
L 566.09037 264.085733 
L 567.52164 249.124118 
L 568.95291 242.26388 
L 570.38418 245.652743 
L 571.81545 253.938904 
L 573.24672 253.091602 
L 574.67799 238.626788 
L 576.10926 201.245285 
L 578.9718 223.748725 
L 580.40307 222.240291 
L 581.83434 200.976949 
L 583.26561 206.804061 
L 584.69688 201.720593 
L 586.12815 217.404703 
L 587.55942 250.012676 
L 588.99069 249.723539 
L 590.42196 239.639461 
L 591.85323 243.792768 
L 593.2845 206.576635 
L 594.71577 214.057095 
L 596.14704 178.432254 
L 597.57831 211.88753 
L 599.00958 213.767959 
L 600.44085 243.999394 
L 601.87212 210.854403 
L 603.30339 185.499464 
L 604.73466 197.401915 
L 606.16593 198.372985 
L 607.5972 171.075907 
L 609.02847 175.869892 
L 610.45974 168.575255 
L 611.89101 184.528048 
L 613.32228 144.047165 
L 614.75355 162.644831 
L 616.18482 177.357525 
L 619.04736 237.634918 
L 620.47863 246.541301 
L 621.9099 251.893105 
L 623.34117 254.682894 
L 624.77244 258.133814 
L 626.20371 269.561651 
L 627.63498 264.602296 
L 629.06625 267.226715 
L 630.49752 251.996418 
L 631.92879 291.217788 
L 633.36006 300.744048 
L 634.79133 335.377018 
L 636.2226 315.684168 
L 637.65387 261.688741 
L 639.08514 274.934256 
L 640.51641 297.78889 
L 641.94768 287.374072 
L 643.37895 248.318418 
L 644.81022 263.341743 
L 646.24149 291.259044 
L 647.67276 231.559578 
L 650.5353 253.670222 
L 651.96657 249.950966 
L 653.39784 212.032098 
L 654.82911 170.042434 
L 656.26038 149.440571 
L 657.69165 136.194709 
L 659.12292 147.498085 
L 660.55419 135.223639 
L 661.98546 179.2175 
L 663.41673 179.320812 
L 664.848 192.008509 
L 667.71054 234.762617 
L 667.71054 234.762617 
" style="fill:none;stroke:#9467bd;stroke-linecap:square;stroke-width:1.5;"/>
   </g>
   <g id="patch_3">
    <path d="M 92.34 445.9968 
L 92.34 60.1344 
" style="fill:none;stroke:#000000;stroke-linecap:square;stroke-linejoin:miter;stroke-width:0.8;"/>
   </g>
   <g id="patch_4">
    <path d="M 664.848 445.9968 
L 664.848 60.1344 
" style="fill:none;stroke:#000000;stroke-linecap:square;stroke-linejoin:miter;stroke-width:0.8;"/>
   </g>
   <g id="patch_5">
    <path d="M 92.34 445.9968 
L 664.848 445.9968 
" style="fill:none;stroke:#000000;stroke-linecap:square;stroke-linejoin:miter;stroke-width:0.8;"/>
   </g>
   <g id="patch_6">
    <path d="M 92.34 60.1344 
L 664.848 60.1344 
" style="fill:none;stroke:#000000;stroke-linecap:square;stroke-linejoin:miter;stroke-width:0.8;"/>
   </g>
   <g id="text_18">
    <!-- Long. Resistivity for different $V_\mathrm{g}$, Sample D230831B, $T$= 15 mK -->
    <g transform="translate(188.994 54.1344)scale(0.12 -0.12)">
     <defs>
      <path d="M 628 4666 
L 1259 4666 
L 1259 531 
L 3531 531 
L 3531 0 
L 628 0 
L 628 4666 
z
" id="DejaVuSans-4c" transform="scale(0.015625)"/>
      <path d="M 1959 3097 
Q 1497 3097 1228 2736 
Q 959 2375 959 1747 
Q 959 1119 1226 758 
Q 1494 397 1959 397 
Q 2419 397 2687 759 
Q 2956 1122 2956 1747 
Q 2956 2369 2687 2733 
Q 2419 3097 1959 3097 
z
M 1959 3584 
Q 2709 3584 3137 3096 
Q 3566 2609 3566 1747 
Q 3566 888 3137 398 
Q 2709 -91 1959 -91 
Q 1206 -91 779 398 
Q 353 888 353 1747 
Q 353 2609 779 3096 
Q 1206 3584 1959 3584 
z
" id="DejaVuSans-6f" transform="scale(0.015625)"/>
      <path d="M 3513 2113 
L 3513 0 
L 2938 0 
L 2938 2094 
Q 2938 2591 2744 2837 
Q 2550 3084 2163 3084 
Q 1697 3084 1428 2787 
Q 1159 2491 1159 1978 
L 1159 0 
L 581 0 
L 581 3500 
L 1159 3500 
L 1159 2956 
Q 1366 3272 1645 3428 
Q 1925 3584 2291 3584 
Q 2894 3584 3203 3211 
Q 3513 2838 3513 2113 
z
" id="DejaVuSans-6e" transform="scale(0.015625)"/>
      <path d="M 2906 1791 
Q 2906 2416 2648 2759 
Q 2391 3103 1925 3103 
Q 1463 3103 1205 2759 
Q 947 2416 947 1791 
Q 947 1169 1205 825 
Q 1463 481 1925 481 
Q 2391 481 2648 825 
Q 2906 1169 2906 1791 
z
M 3481 434 
Q 3481 -459 3084 -895 
Q 2688 -1331 1869 -1331 
Q 1566 -1331 1297 -1286 
Q 1028 -1241 775 -1147 
L 775 -588 
Q 1028 -725 1275 -790 
Q 1522 -856 1778 -856 
Q 2344 -856 2625 -561 
Q 2906 -266 2906 331 
L 2906 616 
Q 2728 306 2450 153 
Q 2172 0 1784 0 
Q 1141 0 747 490 
Q 353 981 353 1791 
Q 353 2603 747 3093 
Q 1141 3584 1784 3584 
Q 2172 3584 2450 3431 
Q 2728 3278 2906 2969 
L 2906 3500 
L 3481 3500 
L 3481 434 
z
" id="DejaVuSans-67" transform="scale(0.015625)"/>
      <path d="M 2841 2188 
Q 3044 2119 3236 1894 
Q 3428 1669 3622 1275 
L 4263 0 
L 3584 0 
L 2988 1197 
Q 2756 1666 2539 1819 
Q 2322 1972 1947 1972 
L 1259 1972 
L 1259 0 
L 628 0 
L 628 4666 
L 2053 4666 
Q 2853 4666 3247 4331 
Q 3641 3997 3641 3322 
Q 3641 2881 3436 2590 
Q 3231 2300 2841 2188 
z
M 1259 4147 
L 1259 2491 
L 2053 2491 
Q 2509 2491 2742 2702 
Q 2975 2913 2975 3322 
Q 2975 3731 2742 3939 
Q 2509 4147 2053 4147 
L 1259 4147 
z
" id="DejaVuSans-52" transform="scale(0.015625)"/>
      <path d="M 3597 1894 
L 3597 1613 
L 953 1613 
Q 991 1019 1311 708 
Q 1631 397 2203 397 
Q 2534 397 2845 478 
Q 3156 559 3463 722 
L 3463 178 
Q 3153 47 2828 -22 
Q 2503 -91 2169 -91 
Q 1331 -91 842 396 
Q 353 884 353 1716 
Q 353 2575 817 3079 
Q 1281 3584 2069 3584 
Q 2775 3584 3186 3129 
Q 3597 2675 3597 1894 
z
M 3022 2063 
Q 3016 2534 2758 2815 
Q 2500 3097 2075 3097 
Q 1594 3097 1305 2825 
Q 1016 2553 972 2059 
L 3022 2063 
z
" id="DejaVuSans-65" transform="scale(0.015625)"/>
      <path d="M 2834 3397 
L 2834 2853 
Q 2591 2978 2328 3040 
Q 2066 3103 1784 3103 
Q 1356 3103 1142 2972 
Q 928 2841 928 2578 
Q 928 2378 1081 2264 
Q 1234 2150 1697 2047 
L 1894 2003 
Q 2506 1872 2764 1633 
Q 3022 1394 3022 966 
Q 3022 478 2636 193 
Q 2250 -91 1575 -91 
Q 1294 -91 989 -36 
Q 684 19 347 128 
L 347 722 
Q 666 556 975 473 
Q 1284 391 1588 391 
Q 1994 391 2212 530 
Q 2431 669 2431 922 
Q 2431 1156 2273 1281 
Q 2116 1406 1581 1522 
L 1381 1569 
Q 847 1681 609 1914 
Q 372 2147 372 2553 
Q 372 3047 722 3315 
Q 1072 3584 1716 3584 
Q 2034 3584 2315 3537 
Q 2597 3491 2834 3397 
z
" id="DejaVuSans-73" transform="scale(0.015625)"/>
      <path d="M 603 3500 
L 1178 3500 
L 1178 0 
L 603 0 
L 603 3500 
z
M 603 4863 
L 1178 4863 
L 1178 4134 
L 603 4134 
L 603 4863 
z
" id="DejaVuSans-69" transform="scale(0.015625)"/>
      <path d="M 1172 4494 
L 1172 3500 
L 2356 3500 
L 2356 3053 
L 1172 3053 
L 1172 1153 
Q 1172 725 1289 603 
Q 1406 481 1766 481 
L 2356 481 
L 2356 0 
L 1766 0 
Q 1100 0 847 248 
Q 594 497 594 1153 
L 594 3053 
L 172 3053 
L 172 3500 
L 594 3500 
L 594 4494 
L 1172 4494 
z
" id="DejaVuSans-74" transform="scale(0.015625)"/>
      <path d="M 191 3500 
L 800 3500 
L 1894 563 
L 2988 3500 
L 3597 3500 
L 2284 0 
L 1503 0 
L 191 3500 
z
" id="DejaVuSans-76" transform="scale(0.015625)"/>
      <path d="M 2059 -325 
Q 1816 -950 1584 -1140 
Q 1353 -1331 966 -1331 
L 506 -1331 
L 506 -850 
L 844 -850 
Q 1081 -850 1212 -737 
Q 1344 -625 1503 -206 
L 1606 56 
L 191 3500 
L 800 3500 
L 1894 763 
L 2988 3500 
L 3597 3500 
L 2059 -325 
z
" id="DejaVuSans-79" transform="scale(0.015625)"/>
      <path d="M 2375 4863 
L 2375 4384 
L 1825 4384 
Q 1516 4384 1395 4259 
Q 1275 4134 1275 3809 
L 1275 3500 
L 2222 3500 
L 2222 3053 
L 1275 3053 
L 1275 0 
L 697 0 
L 697 3053 
L 147 3053 
L 147 3500 
L 697 3500 
L 697 3744 
Q 697 4328 969 4595 
Q 1241 4863 1831 4863 
L 2375 4863 
z
" id="DejaVuSans-66" transform="scale(0.015625)"/>
      <path d="M 2631 2963 
Q 2534 3019 2420 3045 
Q 2306 3072 2169 3072 
Q 1681 3072 1420 2755 
Q 1159 2438 1159 1844 
L 1159 0 
L 581 0 
L 581 3500 
L 1159 3500 
L 1159 2956 
Q 1341 3275 1631 3429 
Q 1922 3584 2338 3584 
Q 2397 3584 2469 3576 
Q 2541 3569 2628 3553 
L 2631 2963 
z
" id="DejaVuSans-72" transform="scale(0.015625)"/>
      <path d="M 2906 2969 
L 2906 4863 
L 3481 4863 
L 3481 0 
L 2906 0 
L 2906 525 
Q 2725 213 2448 61 
Q 2172 -91 1784 -91 
Q 1150 -91 751 415 
Q 353 922 353 1747 
Q 353 2572 751 3078 
Q 1150 3584 1784 3584 
Q 2172 3584 2448 3432 
Q 2725 3281 2906 2969 
z
M 947 1747 
Q 947 1113 1208 752 
Q 1469 391 1925 391 
Q 2381 391 2643 752 
Q 2906 1113 2906 1747 
Q 2906 2381 2643 2742 
Q 2381 3103 1925 3103 
Q 1469 3103 1208 2742 
Q 947 2381 947 1747 
z
" id="DejaVuSans-64" transform="scale(0.015625)"/>
      <path d="M 1319 0 
L 500 4666 
L 1119 4666 
L 1797 653 
L 4063 4666 
L 4750 4666 
L 2053 0 
L 1319 0 
z
" id="DejaVuSans-Oblique-56" transform="scale(0.015625)"/>
      <path d="M 750 794 
L 1409 794 
L 1409 256 
L 897 -744 
L 494 -744 
L 750 256 
L 750 794 
z
" id="DejaVuSans-2c" transform="scale(0.015625)"/>
      <path d="M 3425 4513 
L 3425 3897 
Q 3066 4069 2747 4153 
Q 2428 4238 2131 4238 
Q 1616 4238 1336 4038 
Q 1056 3838 1056 3469 
Q 1056 3159 1242 3001 
Q 1428 2844 1947 2747 
L 2328 2669 
Q 3034 2534 3370 2195 
Q 3706 1856 3706 1288 
Q 3706 609 3251 259 
Q 2797 -91 1919 -91 
Q 1588 -91 1214 -16 
Q 841 59 441 206 
L 441 856 
Q 825 641 1194 531 
Q 1563 422 1919 422 
Q 2459 422 2753 634 
Q 3047 847 3047 1241 
Q 3047 1584 2836 1778 
Q 2625 1972 2144 2069 
L 1759 2144 
Q 1053 2284 737 2584 
Q 422 2884 422 3419 
Q 422 4038 858 4394 
Q 1294 4750 2059 4750 
Q 2388 4750 2728 4690 
Q 3069 4631 3425 4513 
z
" id="DejaVuSans-53" transform="scale(0.015625)"/>
      <path d="M 2194 1759 
Q 1497 1759 1228 1600 
Q 959 1441 959 1056 
Q 959 750 1161 570 
Q 1363 391 1709 391 
Q 2188 391 2477 730 
Q 2766 1069 2766 1631 
L 2766 1759 
L 2194 1759 
z
M 3341 1997 
L 3341 0 
L 2766 0 
L 2766 531 
Q 2569 213 2275 61 
Q 1981 -91 1556 -91 
Q 1019 -91 701 211 
Q 384 513 384 1019 
Q 384 1609 779 1909 
Q 1175 2209 1959 2209 
L 2766 2209 
L 2766 2266 
Q 2766 2663 2505 2880 
Q 2244 3097 1772 3097 
Q 1472 3097 1187 3025 
Q 903 2953 641 2809 
L 641 3341 
Q 956 3463 1253 3523 
Q 1550 3584 1831 3584 
Q 2591 3584 2966 3190 
Q 3341 2797 3341 1997 
z
" id="DejaVuSans-61" transform="scale(0.015625)"/>
      <path d="M 1159 525 
L 1159 -1331 
L 581 -1331 
L 581 3500 
L 1159 3500 
L 1159 2969 
Q 1341 3281 1617 3432 
Q 1894 3584 2278 3584 
Q 2916 3584 3314 3078 
Q 3713 2572 3713 1747 
Q 3713 922 3314 415 
Q 2916 -91 2278 -91 
Q 1894 -91 1617 61 
Q 1341 213 1159 525 
z
M 3116 1747 
Q 3116 2381 2855 2742 
Q 2594 3103 2138 3103 
Q 1681 3103 1420 2742 
Q 1159 2381 1159 1747 
Q 1159 1113 1420 752 
Q 1681 391 2138 391 
Q 2594 391 2855 752 
Q 3116 1113 3116 1747 
z
" id="DejaVuSans-70" transform="scale(0.015625)"/>
      <path d="M 603 4863 
L 1178 4863 
L 1178 0 
L 603 0 
L 603 4863 
z
" id="DejaVuSans-6c" transform="scale(0.015625)"/>
      <path d="M 1259 4147 
L 1259 519 
L 2022 519 
Q 2988 519 3436 956 
Q 3884 1394 3884 2338 
Q 3884 3275 3436 3711 
Q 2988 4147 2022 4147 
L 1259 4147 
z
M 628 4666 
L 1925 4666 
Q 3281 4666 3915 4102 
Q 4550 3538 4550 2338 
Q 4550 1131 3912 565 
Q 3275 0 1925 0 
L 628 0 
L 628 4666 
z
" id="DejaVuSans-44" transform="scale(0.015625)"/>
      <path d="M 2597 2516 
Q 3050 2419 3304 2112 
Q 3559 1806 3559 1356 
Q 3559 666 3084 287 
Q 2609 -91 1734 -91 
Q 1441 -91 1130 -33 
Q 819 25 488 141 
L 488 750 
Q 750 597 1062 519 
Q 1375 441 1716 441 
Q 2309 441 2620 675 
Q 2931 909 2931 1356 
Q 2931 1769 2642 2001 
Q 2353 2234 1838 2234 
L 1294 2234 
L 1294 2753 
L 1863 2753 
Q 2328 2753 2575 2939 
Q 2822 3125 2822 3475 
Q 2822 3834 2567 4026 
Q 2313 4219 1838 4219 
Q 1578 4219 1281 4162 
Q 984 4106 628 3988 
L 628 4550 
Q 988 4650 1302 4700 
Q 1616 4750 1894 4750 
Q 2613 4750 3031 4423 
Q 3450 4097 3450 3541 
Q 3450 3153 3228 2886 
Q 3006 2619 2597 2516 
z
" id="DejaVuSans-33" transform="scale(0.015625)"/>
      <path d="M 1259 2228 
L 1259 519 
L 2272 519 
Q 2781 519 3026 730 
Q 3272 941 3272 1375 
Q 3272 1813 3026 2020 
Q 2781 2228 2272 2228 
L 1259 2228 
z
M 1259 4147 
L 1259 2741 
L 2194 2741 
Q 2656 2741 2882 2914 
Q 3109 3088 3109 3444 
Q 3109 3797 2882 3972 
Q 2656 4147 2194 4147 
L 1259 4147 
z
M 628 4666 
L 2241 4666 
Q 2963 4666 3353 4366 
Q 3744 4066 3744 3513 
Q 3744 3084 3544 2831 
Q 3344 2578 2956 2516 
Q 3422 2416 3680 2098 
Q 3938 1781 3938 1306 
Q 3938 681 3513 340 
Q 3088 0 2303 0 
L 628 0 
L 628 4666 
z
" id="DejaVuSans-42" transform="scale(0.015625)"/>
      <path d="M 378 4666 
L 4325 4666 
L 4225 4134 
L 2559 4134 
L 1759 0 
L 1125 0 
L 1925 4134 
L 275 4134 
L 378 4666 
z
" id="DejaVuSans-Oblique-54" transform="scale(0.015625)"/>
      <path d="M 678 2906 
L 4684 2906 
L 4684 2381 
L 678 2381 
L 678 2906 
z
M 678 1631 
L 4684 1631 
L 4684 1100 
L 678 1100 
L 678 1631 
z
" id="DejaVuSans-3d" transform="scale(0.015625)"/>
      <path d="M 628 4666 
L 1259 4666 
L 1259 2694 
L 3353 4666 
L 4166 4666 
L 1850 2491 
L 4331 0 
L 3500 0 
L 1259 2247 
L 1259 0 
L 628 0 
L 628 4666 
z
" id="DejaVuSans-4b" transform="scale(0.015625)"/>
     </defs>
     <use transform="translate(0 0.015625)" xlink:href="#DejaVuSans-4c"/>
     <use transform="translate(55.712891 0.015625)" xlink:href="#DejaVuSans-6f"/>
     <use transform="translate(116.894531 0.015625)" xlink:href="#DejaVuSans-6e"/>
     <use transform="translate(180.273438 0.015625)" xlink:href="#DejaVuSans-67"/>
     <use transform="translate(243.75 0.015625)" xlink:href="#DejaVuSans-2e"/>
     <use transform="translate(275.537109 0.015625)" xlink:href="#DejaVuSans-20"/>
     <use transform="translate(307.324219 0.015625)" xlink:href="#DejaVuSans-52"/>
     <use transform="translate(376.806641 0.015625)" xlink:href="#DejaVuSans-65"/>
     <use transform="translate(438.330078 0.015625)" xlink:href="#DejaVuSans-73"/>
     <use transform="translate(490.429688 0.015625)" xlink:href="#DejaVuSans-69"/>
     <use transform="translate(518.212891 0.015625)" xlink:href="#DejaVuSans-73"/>
     <use transform="translate(570.3125 0.015625)" xlink:href="#DejaVuSans-74"/>
     <use transform="translate(609.521484 0.015625)" xlink:href="#DejaVuSans-69"/>
     <use transform="translate(637.304688 0.015625)" xlink:href="#DejaVuSans-76"/>
     <use transform="translate(696.484375 0.015625)" xlink:href="#DejaVuSans-69"/>
     <use transform="translate(724.267578 0.015625)" xlink:href="#DejaVuSans-74"/>
     <use transform="translate(763.476562 0.015625)" xlink:href="#DejaVuSans-79"/>
     <use transform="translate(822.65625 0.015625)" xlink:href="#DejaVuSans-20"/>
     <use transform="translate(854.443359 0.015625)" xlink:href="#DejaVuSans-66"/>
     <use transform="translate(889.648438 0.015625)" xlink:href="#DejaVuSans-6f"/>
     <use transform="translate(950.830078 0.015625)" xlink:href="#DejaVuSans-72"/>
     <use transform="translate(991.943359 0.015625)" xlink:href="#DejaVuSans-20"/>
     <use transform="translate(1023.730469 0.015625)" xlink:href="#DejaVuSans-64"/>
     <use transform="translate(1087.207031 0.015625)" xlink:href="#DejaVuSans-69"/>
     <use transform="translate(1114.990234 0.015625)" xlink:href="#DejaVuSans-66"/>
     <use transform="translate(1150.195312 0.015625)" xlink:href="#DejaVuSans-66"/>
     <use transform="translate(1185.400391 0.015625)" xlink:href="#DejaVuSans-65"/>
     <use transform="translate(1246.923828 0.015625)" xlink:href="#DejaVuSans-72"/>
     <use transform="translate(1288.037109 0.015625)" xlink:href="#DejaVuSans-65"/>
     <use transform="translate(1349.560547 0.015625)" xlink:href="#DejaVuSans-6e"/>
     <use transform="translate(1412.939453 0.015625)" xlink:href="#DejaVuSans-74"/>
     <use transform="translate(1452.148438 0.015625)" xlink:href="#DejaVuSans-20"/>
     <use transform="translate(1483.935547 0.015625)" xlink:href="#DejaVuSans-Oblique-56"/>
     <use transform="translate(1552.34375 -16.390625)scale(0.7)" xlink:href="#DejaVuSans-67"/>
     <use transform="translate(1599.511719 0.015625)" xlink:href="#DejaVuSans-2c"/>
     <use transform="translate(1631.298828 0.015625)" xlink:href="#DejaVuSans-20"/>
     <use transform="translate(1663.085938 0.015625)" xlink:href="#DejaVuSans-53"/>
     <use transform="translate(1726.5625 0.015625)" xlink:href="#DejaVuSans-61"/>
     <use transform="translate(1787.841797 0.015625)" xlink:href="#DejaVuSans-6d"/>
     <use transform="translate(1885.253906 0.015625)" xlink:href="#DejaVuSans-70"/>
     <use transform="translate(1948.730469 0.015625)" xlink:href="#DejaVuSans-6c"/>
     <use transform="translate(1976.513672 0.015625)" xlink:href="#DejaVuSans-65"/>
     <use transform="translate(2038.037109 0.015625)" xlink:href="#DejaVuSans-20"/>
     <use transform="translate(2069.824219 0.015625)" xlink:href="#DejaVuSans-44"/>
     <use transform="translate(2146.826172 0.015625)" xlink:href="#DejaVuSans-32"/>
     <use transform="translate(2210.449219 0.015625)" xlink:href="#DejaVuSans-33"/>
     <use transform="translate(2274.072266 0.015625)" xlink:href="#DejaVuSans-30"/>
     <use transform="translate(2337.695312 0.015625)" xlink:href="#DejaVuSans-38"/>
     <use transform="translate(2401.318359 0.015625)" xlink:href="#DejaVuSans-33"/>
     <use transform="translate(2464.941406 0.015625)" xlink:href="#DejaVuSans-31"/>
     <use transform="translate(2528.564453 0.015625)" xlink:href="#DejaVuSans-42"/>
     <use transform="translate(2597.167969 0.015625)" xlink:href="#DejaVuSans-2c"/>
     <use transform="translate(2628.955078 0.015625)" xlink:href="#DejaVuSans-20"/>
     <use transform="translate(2660.742188 0.015625)" xlink:href="#DejaVuSans-Oblique-54"/>
     <use transform="translate(2721.826172 0.015625)" xlink:href="#DejaVuSans-3d"/>
     <use transform="translate(2805.615234 0.015625)" xlink:href="#DejaVuSans-20"/>
     <use transform="translate(2837.402344 0.015625)" xlink:href="#DejaVuSans-31"/>
     <use transform="translate(2901.025391 0.015625)" xlink:href="#DejaVuSans-35"/>
     <use transform="translate(2964.648438 0.015625)" xlink:href="#DejaVuSans-20"/>
     <use transform="translate(2996.435547 0.015625)" xlink:href="#DejaVuSans-6d"/>
     <use transform="translate(3093.847656 0.015625)" xlink:href="#DejaVuSans-4b"/>
    </g>
   </g>
   <g id="legend_1">
    <g id="patch_7">
     <path d="M 99.34 146.626587 
L 190.14 146.626587 
Q 192.14 146.626587 192.14 144.626587 
L 192.14 67.1344 
Q 192.14 65.1344 190.14 65.1344 
L 99.34 65.1344 
Q 97.34 65.1344 97.34 67.1344 
L 97.34 144.626587 
Q 97.34 146.626587 99.34 146.626587 
z
" style="fill:#ffffff;opacity:0.8;stroke:#cccccc;stroke-linejoin:miter;"/>
    </g>
    <g id="line2d_36">
     <path d="M 101.34 73.232837 
L 121.34 73.232837 
" style="fill:none;stroke:#1f77b4;stroke-linecap:square;stroke-width:1.5;"/>
    </g>
    <g id="line2d_37"/>
    <g id="text_19">
     <!-- $V_\mathrm{g}$=   0mV -->
     <g transform="translate(129.34 76.732837)scale(0.1 -0.1)">
      <defs>
       <path d="M 1831 0 
L 50 4666 
L 709 4666 
L 2188 738 
L 3669 4666 
L 4325 4666 
L 2547 0 
L 1831 0 
z
" id="DejaVuSans-56" transform="scale(0.015625)"/>
      </defs>
      <use transform="translate(0 0.78125)" xlink:href="#DejaVuSans-Oblique-56"/>
      <use transform="translate(68.408203 -15.625)scale(0.7)" xlink:href="#DejaVuSans-67"/>
      <use transform="translate(115.576172 0.78125)" xlink:href="#DejaVuSans-3d"/>
      <use transform="translate(199.365234 0.78125)" xlink:href="#DejaVuSans-20"/>
      <use transform="translate(231.152344 0.78125)" xlink:href="#DejaVuSans-20"/>
      <use transform="translate(262.939453 0.78125)" xlink:href="#DejaVuSans-20"/>
      <use transform="translate(294.726562 0.78125)" xlink:href="#DejaVuSans-30"/>
      <use transform="translate(358.349609 0.78125)" xlink:href="#DejaVuSans-6d"/>
      <use transform="translate(455.761719 0.78125)" xlink:href="#DejaVuSans-56"/>
     </g>
    </g>
    <g id="line2d_38">
     <path d="M 101.34 88.931275 
L 121.34 88.931275 
" style="fill:none;stroke:#ff7f0e;stroke-linecap:square;stroke-width:1.5;"/>
    </g>
    <g id="line2d_39"/>
    <g id="text_20">
     <!-- $V_\mathrm{g}$= 100mV -->
     <g transform="translate(129.34 92.431275)scale(0.1 -0.1)">
      <use transform="translate(0 0.78125)" xlink:href="#DejaVuSans-Oblique-56"/>
      <use transform="translate(68.408203 -15.625)scale(0.7)" xlink:href="#DejaVuSans-67"/>
      <use transform="translate(115.576172 0.78125)" xlink:href="#DejaVuSans-3d"/>
      <use transform="translate(199.365234 0.78125)" xlink:href="#DejaVuSans-20"/>
      <use transform="translate(231.152344 0.78125)" xlink:href="#DejaVuSans-31"/>
      <use transform="translate(294.775391 0.78125)" xlink:href="#DejaVuSans-30"/>
      <use transform="translate(358.398438 0.78125)" xlink:href="#DejaVuSans-30"/>
      <use transform="translate(422.021484 0.78125)" xlink:href="#DejaVuSans-6d"/>
      <use transform="translate(519.433594 0.78125)" xlink:href="#DejaVuSans-56"/>
     </g>
    </g>
    <g id="line2d_40">
     <path d="M 101.34 104.629712 
L 121.34 104.629712 
" style="fill:none;stroke:#2ca02c;stroke-linecap:square;stroke-width:1.5;"/>
    </g>
    <g id="line2d_41"/>
    <g id="text_21">
     <!-- $V_\mathrm{g}$= 150mV -->
     <g transform="translate(129.34 108.129712)scale(0.1 -0.1)">
      <use transform="translate(0 0.78125)" xlink:href="#DejaVuSans-Oblique-56"/>
      <use transform="translate(68.408203 -15.625)scale(0.7)" xlink:href="#DejaVuSans-67"/>
      <use transform="translate(115.576172 0.78125)" xlink:href="#DejaVuSans-3d"/>
      <use transform="translate(199.365234 0.78125)" xlink:href="#DejaVuSans-20"/>
      <use transform="translate(231.152344 0.78125)" xlink:href="#DejaVuSans-31"/>
      <use transform="translate(294.775391 0.78125)" xlink:href="#DejaVuSans-35"/>
      <use transform="translate(358.398438 0.78125)" xlink:href="#DejaVuSans-30"/>
      <use transform="translate(422.021484 0.78125)" xlink:href="#DejaVuSans-6d"/>
      <use transform="translate(519.433594 0.78125)" xlink:href="#DejaVuSans-56"/>
     </g>
    </g>
    <g id="line2d_42">
     <path d="M 101.34 120.32815 
L 121.34 120.32815 
" style="fill:none;stroke:#d62728;stroke-linecap:square;stroke-width:1.5;"/>
    </g>
    <g id="line2d_43"/>
    <g id="text_22">
     <!-- $V_\mathrm{g}$= 450mV -->
     <g transform="translate(129.34 123.82815)scale(0.1 -0.1)">
      <use transform="translate(0 0.78125)" xlink:href="#DejaVuSans-Oblique-56"/>
      <use transform="translate(68.408203 -15.625)scale(0.7)" xlink:href="#DejaVuSans-67"/>
      <use transform="translate(115.576172 0.78125)" xlink:href="#DejaVuSans-3d"/>
      <use transform="translate(199.365234 0.78125)" xlink:href="#DejaVuSans-20"/>
      <use transform="translate(231.152344 0.78125)" xlink:href="#DejaVuSans-34"/>
      <use transform="translate(294.775391 0.78125)" xlink:href="#DejaVuSans-35"/>
      <use transform="translate(358.398438 0.78125)" xlink:href="#DejaVuSans-30"/>
      <use transform="translate(422.021484 0.78125)" xlink:href="#DejaVuSans-6d"/>
      <use transform="translate(519.433594 0.78125)" xlink:href="#DejaVuSans-56"/>
     </g>
    </g>
    <g id="line2d_44">
     <path d="M 101.34 136.026587 
L 121.34 136.026587 
" style="fill:none;stroke:#9467bd;stroke-linecap:square;stroke-width:1.5;"/>
    </g>
    <g id="line2d_45"/>
    <g id="text_23">
     <!-- $V_\mathrm{g}$= 500mV -->
     <g transform="translate(129.34 139.526587)scale(0.1 -0.1)">
      <use transform="translate(0 0.78125)" xlink:href="#DejaVuSans-Oblique-56"/>
      <use transform="translate(68.408203 -15.625)scale(0.7)" xlink:href="#DejaVuSans-67"/>
      <use transform="translate(115.576172 0.78125)" xlink:href="#DejaVuSans-3d"/>
      <use transform="translate(199.365234 0.78125)" xlink:href="#DejaVuSans-20"/>
      <use transform="translate(231.152344 0.78125)" xlink:href="#DejaVuSans-35"/>
      <use transform="translate(294.775391 0.78125)" xlink:href="#DejaVuSans-30"/>
      <use transform="translate(358.398438 0.78125)" xlink:href="#DejaVuSans-30"/>
      <use transform="translate(422.021484 0.78125)" xlink:href="#DejaVuSans-6d"/>
      <use transform="translate(519.433594 0.78125)" xlink:href="#DejaVuSans-56"/>
     </g>
    </g>
   </g>
  </g>
 </g>
 <defs>
  <clipPath id="pa99d3df8f4">
   <rect height="385.8624" width="572.508" x="92.34" y="60.1344"/>
  </clipPath>
 </defs>
</svg>
