<?xml version="1.0" encoding="utf-8" standalone="no"?>
<!DOCTYPE svg PUBLIC "-//W3C//DTD SVG 1.1//EN"
  "http://www.w3.org/Graphics/SVG/1.1/DTD/svg11.dtd">
<svg height="429.12pt" version="1.1" viewBox="0 0 573.84 429.12" width="573.84pt" xmlns="http://www.w3.org/2000/svg" xmlns:xlink="http://www.w3.org/1999/xlink">
 <metadata>
  <rdf:RDF xmlns:cc="http://creativecommons.org/ns#" xmlns:dc="http://purl.org/dc/elements/1.1/" xmlns:rdf="http://www.w3.org/1999/02/22-rdf-syntax-ns#">
   <cc:Work>
    <dc:type rdf:resource="http://purl.org/dc/dcmitype/StillImage"/>
    <dc:date>2023-10-27T10:49:31.100200</dc:date>
    <dc:format>image/svg+xml</dc:format>
    <dc:creator>
     <cc:Agent>
      <dc:title>Matplotlib v3.4.3, https://matplotlib.org/</dc:title>
     </cc:Agent>
    </dc:creator>
   </cc:Work>
  </rdf:RDF>
 </metadata>
 <defs>
  <style type="text/css">*{stroke-linecap:butt;stroke-linejoin:round;}</style>
 </defs>
 <g id="figure_1">
  <g id="patch_1">
   <path d="M 0 429.12 
L 573.84 429.12 
L 573.84 0 
L 0 0 
z
" style="fill:#ffffff;"/>
  </g>
  <g id="axes_1">
   <g id="patch_2">
    <path d="M 71.73 381.9168 
L 516.456 381.9168 
L 516.456 51.4944 
L 71.73 51.4944 
z
" style="fill:#ffffff;"/>
   </g>
   <g id="matplotlib.axis_1">
    <g id="xtick_1">
     <g id="line2d_1">
      <path clip-path="url(#p11e943d197)" d="M 71.73 381.9168 
L 71.73 51.4944 
" style="fill:none;stroke:#b0b0b0;stroke-linecap:square;stroke-width:0.8;"/>
     </g>
     <g id="line2d_2">
      <defs>
       <path d="M 0 0 
L 0 3.5 
" id="m1f2abdd557" style="stroke:#000000;stroke-width:0.8;"/>
      </defs>
      <g>
       <use style="stroke:#000000;stroke-width:0.8;" x="71.73" xlink:href="#m1f2abdd557" y="381.9168"/>
      </g>
     </g>
     <g id="text_1">
      <!-- 5 -->
      <g transform="translate(68.54875 396.515238)scale(0.1 -0.1)">
       <defs>
        <path d="M 691 4666 
L 3169 4666 
L 3169 4134 
L 1269 4134 
L 1269 2991 
Q 1406 3038 1543 3061 
Q 1681 3084 1819 3084 
Q 2600 3084 3056 2656 
Q 3513 2228 3513 1497 
Q 3513 744 3044 326 
Q 2575 -91 1722 -91 
Q 1428 -91 1123 -41 
Q 819 9 494 109 
L 494 744 
Q 775 591 1075 516 
Q 1375 441 1709 441 
Q 2250 441 2565 725 
Q 2881 1009 2881 1497 
Q 2881 1984 2565 2268 
Q 2250 2553 1709 2553 
Q 1456 2553 1204 2497 
Q 953 2441 691 2322 
L 691 4666 
z
" id="DejaVuSans-35" transform="scale(0.015625)"/>
       </defs>
       <use xlink:href="#DejaVuSans-35"/>
      </g>
     </g>
    </g>
    <g id="xtick_2">
     <g id="line2d_3">
      <path clip-path="url(#p11e943d197)" d="M 135.262286 381.9168 
L 135.262286 51.4944 
" style="fill:none;stroke:#b0b0b0;stroke-linecap:square;stroke-width:0.8;"/>
     </g>
     <g id="line2d_4">
      <g>
       <use style="stroke:#000000;stroke-width:0.8;" x="135.262286" xlink:href="#m1f2abdd557" y="381.9168"/>
      </g>
     </g>
     <g id="text_2">
      <!-- 6 -->
      <g transform="translate(132.081036 396.515238)scale(0.1 -0.1)">
       <defs>
        <path d="M 2113 2584 
Q 1688 2584 1439 2293 
Q 1191 2003 1191 1497 
Q 1191 994 1439 701 
Q 1688 409 2113 409 
Q 2538 409 2786 701 
Q 3034 994 3034 1497 
Q 3034 2003 2786 2293 
Q 2538 2584 2113 2584 
z
M 3366 4563 
L 3366 3988 
Q 3128 4100 2886 4159 
Q 2644 4219 2406 4219 
Q 1781 4219 1451 3797 
Q 1122 3375 1075 2522 
Q 1259 2794 1537 2939 
Q 1816 3084 2150 3084 
Q 2853 3084 3261 2657 
Q 3669 2231 3669 1497 
Q 3669 778 3244 343 
Q 2819 -91 2113 -91 
Q 1303 -91 875 529 
Q 447 1150 447 2328 
Q 447 3434 972 4092 
Q 1497 4750 2381 4750 
Q 2619 4750 2861 4703 
Q 3103 4656 3366 4563 
z
" id="DejaVuSans-36" transform="scale(0.015625)"/>
       </defs>
       <use xlink:href="#DejaVuSans-36"/>
      </g>
     </g>
    </g>
    <g id="xtick_3">
     <g id="line2d_5">
      <path clip-path="url(#p11e943d197)" d="M 198.794571 381.9168 
L 198.794571 51.4944 
" style="fill:none;stroke:#b0b0b0;stroke-linecap:square;stroke-width:0.8;"/>
     </g>
     <g id="line2d_6">
      <g>
       <use style="stroke:#000000;stroke-width:0.8;" x="198.794571" xlink:href="#m1f2abdd557" y="381.9168"/>
      </g>
     </g>
     <g id="text_3">
      <!-- 7 -->
      <g transform="translate(195.613321 396.515238)scale(0.1 -0.1)">
       <defs>
        <path d="M 525 4666 
L 3525 4666 
L 3525 4397 
L 1831 0 
L 1172 0 
L 2766 4134 
L 525 4134 
L 525 4666 
z
" id="DejaVuSans-37" transform="scale(0.015625)"/>
       </defs>
       <use xlink:href="#DejaVuSans-37"/>
      </g>
     </g>
    </g>
    <g id="xtick_4">
     <g id="line2d_7">
      <path clip-path="url(#p11e943d197)" d="M 262.326857 381.9168 
L 262.326857 51.4944 
" style="fill:none;stroke:#b0b0b0;stroke-linecap:square;stroke-width:0.8;"/>
     </g>
     <g id="line2d_8">
      <g>
       <use style="stroke:#000000;stroke-width:0.8;" x="262.326857" xlink:href="#m1f2abdd557" y="381.9168"/>
      </g>
     </g>
     <g id="text_4">
      <!-- 8 -->
      <g transform="translate(259.145607 396.515238)scale(0.1 -0.1)">
       <defs>
        <path d="M 2034 2216 
Q 1584 2216 1326 1975 
Q 1069 1734 1069 1313 
Q 1069 891 1326 650 
Q 1584 409 2034 409 
Q 2484 409 2743 651 
Q 3003 894 3003 1313 
Q 3003 1734 2745 1975 
Q 2488 2216 2034 2216 
z
M 1403 2484 
Q 997 2584 770 2862 
Q 544 3141 544 3541 
Q 544 4100 942 4425 
Q 1341 4750 2034 4750 
Q 2731 4750 3128 4425 
Q 3525 4100 3525 3541 
Q 3525 3141 3298 2862 
Q 3072 2584 2669 2484 
Q 3125 2378 3379 2068 
Q 3634 1759 3634 1313 
Q 3634 634 3220 271 
Q 2806 -91 2034 -91 
Q 1263 -91 848 271 
Q 434 634 434 1313 
Q 434 1759 690 2068 
Q 947 2378 1403 2484 
z
M 1172 3481 
Q 1172 3119 1398 2916 
Q 1625 2713 2034 2713 
Q 2441 2713 2670 2916 
Q 2900 3119 2900 3481 
Q 2900 3844 2670 4047 
Q 2441 4250 2034 4250 
Q 1625 4250 1398 4047 
Q 1172 3844 1172 3481 
z
" id="DejaVuSans-38" transform="scale(0.015625)"/>
       </defs>
       <use xlink:href="#DejaVuSans-38"/>
      </g>
     </g>
    </g>
    <g id="xtick_5">
     <g id="line2d_9">
      <path clip-path="url(#p11e943d197)" d="M 325.859143 381.9168 
L 325.859143 51.4944 
" style="fill:none;stroke:#b0b0b0;stroke-linecap:square;stroke-width:0.8;"/>
     </g>
     <g id="line2d_10">
      <g>
       <use style="stroke:#000000;stroke-width:0.8;" x="325.859143" xlink:href="#m1f2abdd557" y="381.9168"/>
      </g>
     </g>
     <g id="text_5">
      <!-- 9 -->
      <g transform="translate(322.677893 396.515238)scale(0.1 -0.1)">
       <defs>
        <path d="M 703 97 
L 703 672 
Q 941 559 1184 500 
Q 1428 441 1663 441 
Q 2288 441 2617 861 
Q 2947 1281 2994 2138 
Q 2813 1869 2534 1725 
Q 2256 1581 1919 1581 
Q 1219 1581 811 2004 
Q 403 2428 403 3163 
Q 403 3881 828 4315 
Q 1253 4750 1959 4750 
Q 2769 4750 3195 4129 
Q 3622 3509 3622 2328 
Q 3622 1225 3098 567 
Q 2575 -91 1691 -91 
Q 1453 -91 1209 -44 
Q 966 3 703 97 
z
M 1959 2075 
Q 2384 2075 2632 2365 
Q 2881 2656 2881 3163 
Q 2881 3666 2632 3958 
Q 2384 4250 1959 4250 
Q 1534 4250 1286 3958 
Q 1038 3666 1038 3163 
Q 1038 2656 1286 2365 
Q 1534 2075 1959 2075 
z
" id="DejaVuSans-39" transform="scale(0.015625)"/>
       </defs>
       <use xlink:href="#DejaVuSans-39"/>
      </g>
     </g>
    </g>
    <g id="xtick_6">
     <g id="line2d_11">
      <path clip-path="url(#p11e943d197)" d="M 389.391429 381.9168 
L 389.391429 51.4944 
" style="fill:none;stroke:#b0b0b0;stroke-linecap:square;stroke-width:0.8;"/>
     </g>
     <g id="line2d_12">
      <g>
       <use style="stroke:#000000;stroke-width:0.8;" x="389.391429" xlink:href="#m1f2abdd557" y="381.9168"/>
      </g>
     </g>
     <g id="text_6">
      <!-- 10 -->
      <g transform="translate(383.028929 396.515238)scale(0.1 -0.1)">
       <defs>
        <path d="M 794 531 
L 1825 531 
L 1825 4091 
L 703 3866 
L 703 4441 
L 1819 4666 
L 2450 4666 
L 2450 531 
L 3481 531 
L 3481 0 
L 794 0 
L 794 531 
z
" id="DejaVuSans-31" transform="scale(0.015625)"/>
        <path d="M 2034 4250 
Q 1547 4250 1301 3770 
Q 1056 3291 1056 2328 
Q 1056 1369 1301 889 
Q 1547 409 2034 409 
Q 2525 409 2770 889 
Q 3016 1369 3016 2328 
Q 3016 3291 2770 3770 
Q 2525 4250 2034 4250 
z
M 2034 4750 
Q 2819 4750 3233 4129 
Q 3647 3509 3647 2328 
Q 3647 1150 3233 529 
Q 2819 -91 2034 -91 
Q 1250 -91 836 529 
Q 422 1150 422 2328 
Q 422 3509 836 4129 
Q 1250 4750 2034 4750 
z
" id="DejaVuSans-30" transform="scale(0.015625)"/>
       </defs>
       <use xlink:href="#DejaVuSans-31"/>
       <use x="63.623047" xlink:href="#DejaVuSans-30"/>
      </g>
     </g>
    </g>
    <g id="xtick_7">
     <g id="line2d_13">
      <path clip-path="url(#p11e943d197)" d="M 452.923714 381.9168 
L 452.923714 51.4944 
" style="fill:none;stroke:#b0b0b0;stroke-linecap:square;stroke-width:0.8;"/>
     </g>
     <g id="line2d_14">
      <g>
       <use style="stroke:#000000;stroke-width:0.8;" x="452.923714" xlink:href="#m1f2abdd557" y="381.9168"/>
      </g>
     </g>
     <g id="text_7">
      <!-- 11 -->
      <g transform="translate(446.561214 396.515238)scale(0.1 -0.1)">
       <use xlink:href="#DejaVuSans-31"/>
       <use x="63.623047" xlink:href="#DejaVuSans-31"/>
      </g>
     </g>
    </g>
    <g id="xtick_8">
     <g id="line2d_15">
      <path clip-path="url(#p11e943d197)" d="M 516.456 381.9168 
L 516.456 51.4944 
" style="fill:none;stroke:#b0b0b0;stroke-linecap:square;stroke-width:0.8;"/>
     </g>
     <g id="line2d_16">
      <g>
       <use style="stroke:#000000;stroke-width:0.8;" x="516.456" xlink:href="#m1f2abdd557" y="381.9168"/>
      </g>
     </g>
     <g id="text_8">
      <!-- 12 -->
      <g transform="translate(510.0935 396.515238)scale(0.1 -0.1)">
       <defs>
        <path d="M 1228 531 
L 3431 531 
L 3431 0 
L 469 0 
L 469 531 
Q 828 903 1448 1529 
Q 2069 2156 2228 2338 
Q 2531 2678 2651 2914 
Q 2772 3150 2772 3378 
Q 2772 3750 2511 3984 
Q 2250 4219 1831 4219 
Q 1534 4219 1204 4116 
Q 875 4013 500 3803 
L 500 4441 
Q 881 4594 1212 4672 
Q 1544 4750 1819 4750 
Q 2544 4750 2975 4387 
Q 3406 4025 3406 3419 
Q 3406 3131 3298 2873 
Q 3191 2616 2906 2266 
Q 2828 2175 2409 1742 
Q 1991 1309 1228 531 
z
" id="DejaVuSans-32" transform="scale(0.015625)"/>
       </defs>
       <use xlink:href="#DejaVuSans-31"/>
       <use x="63.623047" xlink:href="#DejaVuSans-32"/>
      </g>
     </g>
    </g>
    <g id="text_9">
     <!-- $B$ (T) -->
     <g transform="translate(282.093 410.193363)scale(0.1 -0.1)">
      <defs>
       <path d="M 1081 4666 
L 2694 4666 
Q 3350 4666 3675 4422 
Q 4000 4178 4000 3688 
Q 4000 3238 3720 2911 
Q 3441 2584 2988 2516 
Q 3375 2428 3569 2181 
Q 3763 1934 3763 1522 
Q 3763 819 3242 409 
Q 2722 0 1819 0 
L 172 0 
L 1081 4666 
z
M 1234 2228 
L 903 519 
L 1919 519 
Q 2491 519 2800 781 
Q 3109 1044 3109 1522 
Q 3109 1891 2904 2059 
Q 2700 2228 2247 2228 
L 1234 2228 
z
M 1606 4147 
L 1331 2741 
L 2272 2741 
Q 2775 2741 3058 2959 
Q 3341 3178 3341 3566 
Q 3341 3869 3150 4008 
Q 2959 4147 2541 4147 
L 1606 4147 
z
" id="DejaVuSans-Oblique-42" transform="scale(0.015625)"/>
       <path id="DejaVuSans-20" transform="scale(0.015625)"/>
       <path d="M 1984 4856 
Q 1566 4138 1362 3434 
Q 1159 2731 1159 2009 
Q 1159 1288 1364 580 
Q 1569 -128 1984 -844 
L 1484 -844 
Q 1016 -109 783 600 
Q 550 1309 550 2009 
Q 550 2706 781 3412 
Q 1013 4119 1484 4856 
L 1984 4856 
z
" id="DejaVuSans-28" transform="scale(0.015625)"/>
       <path d="M -19 4666 
L 3928 4666 
L 3928 4134 
L 2272 4134 
L 2272 0 
L 1638 0 
L 1638 4134 
L -19 4134 
L -19 4666 
z
" id="DejaVuSans-54" transform="scale(0.015625)"/>
       <path d="M 513 4856 
L 1013 4856 
Q 1481 4119 1714 3412 
Q 1947 2706 1947 2009 
Q 1947 1309 1714 600 
Q 1481 -109 1013 -844 
L 513 -844 
Q 928 -128 1133 580 
Q 1338 1288 1338 2009 
Q 1338 2731 1133 3434 
Q 928 4138 513 4856 
z
" id="DejaVuSans-29" transform="scale(0.015625)"/>
      </defs>
      <use transform="translate(0 0.125)" xlink:href="#DejaVuSans-Oblique-42"/>
      <use transform="translate(68.603516 0.125)" xlink:href="#DejaVuSans-20"/>
      <use transform="translate(100.390625 0.125)" xlink:href="#DejaVuSans-28"/>
      <use transform="translate(139.404297 0.125)" xlink:href="#DejaVuSans-54"/>
      <use transform="translate(200.488281 0.125)" xlink:href="#DejaVuSans-29"/>
     </g>
    </g>
   </g>
   <g id="matplotlib.axis_2">
    <g id="ytick_1">
     <g id="line2d_17">
      <path clip-path="url(#p11e943d197)" d="M 71.73 364.117942 
L 516.456 364.117942 
" style="fill:none;stroke:#b0b0b0;stroke-linecap:square;stroke-width:0.8;"/>
     </g>
     <g id="line2d_18">
      <defs>
       <path d="M 0 0 
L -3.5 0 
" id="m57cb36c8dd" style="stroke:#000000;stroke-width:0.8;"/>
      </defs>
      <g>
       <use style="stroke:#000000;stroke-width:0.8;" x="71.73" xlink:href="#m57cb36c8dd" y="364.117942"/>
      </g>
     </g>
     <g id="text_10">
      <!-- 0.0 -->
      <g transform="translate(48.826875 367.917161)scale(0.1 -0.1)">
       <defs>
        <path d="M 684 794 
L 1344 794 
L 1344 0 
L 684 0 
L 684 794 
z
" id="DejaVuSans-2e" transform="scale(0.015625)"/>
       </defs>
       <use xlink:href="#DejaVuSans-30"/>
       <use x="63.623047" xlink:href="#DejaVuSans-2e"/>
       <use x="95.410156" xlink:href="#DejaVuSans-30"/>
      </g>
     </g>
    </g>
    <g id="ytick_2">
     <g id="line2d_19">
      <path clip-path="url(#p11e943d197)" d="M 71.73 326.894398 
L 516.456 326.894398 
" style="fill:none;stroke:#b0b0b0;stroke-linecap:square;stroke-width:0.8;"/>
     </g>
     <g id="line2d_20">
      <g>
       <use style="stroke:#000000;stroke-width:0.8;" x="71.73" xlink:href="#m57cb36c8dd" y="326.894398"/>
      </g>
     </g>
     <g id="text_11">
      <!-- 0.5 -->
      <g transform="translate(48.826875 330.693617)scale(0.1 -0.1)">
       <use xlink:href="#DejaVuSans-30"/>
       <use x="63.623047" xlink:href="#DejaVuSans-2e"/>
       <use x="95.410156" xlink:href="#DejaVuSans-35"/>
      </g>
     </g>
    </g>
    <g id="ytick_3">
     <g id="line2d_21">
      <path clip-path="url(#p11e943d197)" d="M 71.73 289.670854 
L 516.456 289.670854 
" style="fill:none;stroke:#b0b0b0;stroke-linecap:square;stroke-width:0.8;"/>
     </g>
     <g id="line2d_22">
      <g>
       <use style="stroke:#000000;stroke-width:0.8;" x="71.73" xlink:href="#m57cb36c8dd" y="289.670854"/>
      </g>
     </g>
     <g id="text_12">
      <!-- 1.0 -->
      <g transform="translate(48.826875 293.470073)scale(0.1 -0.1)">
       <use xlink:href="#DejaVuSans-31"/>
       <use x="63.623047" xlink:href="#DejaVuSans-2e"/>
       <use x="95.410156" xlink:href="#DejaVuSans-30"/>
      </g>
     </g>
    </g>
    <g id="ytick_4">
     <g id="line2d_23">
      <path clip-path="url(#p11e943d197)" d="M 71.73 252.44731 
L 516.456 252.44731 
" style="fill:none;stroke:#b0b0b0;stroke-linecap:square;stroke-width:0.8;"/>
     </g>
     <g id="line2d_24">
      <g>
       <use style="stroke:#000000;stroke-width:0.8;" x="71.73" xlink:href="#m57cb36c8dd" y="252.44731"/>
      </g>
     </g>
     <g id="text_13">
      <!-- 1.5 -->
      <g transform="translate(48.826875 256.246529)scale(0.1 -0.1)">
       <use xlink:href="#DejaVuSans-31"/>
       <use x="63.623047" xlink:href="#DejaVuSans-2e"/>
       <use x="95.410156" xlink:href="#DejaVuSans-35"/>
      </g>
     </g>
    </g>
    <g id="ytick_5">
     <g id="line2d_25">
      <path clip-path="url(#p11e943d197)" d="M 71.73 215.223766 
L 516.456 215.223766 
" style="fill:none;stroke:#b0b0b0;stroke-linecap:square;stroke-width:0.8;"/>
     </g>
     <g id="line2d_26">
      <g>
       <use style="stroke:#000000;stroke-width:0.8;" x="71.73" xlink:href="#m57cb36c8dd" y="215.223766"/>
      </g>
     </g>
     <g id="text_14">
      <!-- 2.0 -->
      <g transform="translate(48.826875 219.022985)scale(0.1 -0.1)">
       <use xlink:href="#DejaVuSans-32"/>
       <use x="63.623047" xlink:href="#DejaVuSans-2e"/>
       <use x="95.410156" xlink:href="#DejaVuSans-30"/>
      </g>
     </g>
    </g>
    <g id="ytick_6">
     <g id="line2d_27">
      <path clip-path="url(#p11e943d197)" d="M 71.73 178.000222 
L 516.456 178.000222 
" style="fill:none;stroke:#b0b0b0;stroke-linecap:square;stroke-width:0.8;"/>
     </g>
     <g id="line2d_28">
      <g>
       <use style="stroke:#000000;stroke-width:0.8;" x="71.73" xlink:href="#m57cb36c8dd" y="178.000222"/>
      </g>
     </g>
     <g id="text_15">
      <!-- 2.5 -->
      <g transform="translate(48.826875 181.79944)scale(0.1 -0.1)">
       <use xlink:href="#DejaVuSans-32"/>
       <use x="63.623047" xlink:href="#DejaVuSans-2e"/>
       <use x="95.410156" xlink:href="#DejaVuSans-35"/>
      </g>
     </g>
    </g>
    <g id="ytick_7">
     <g id="line2d_29">
      <path clip-path="url(#p11e943d197)" d="M 71.73 140.776678 
L 516.456 140.776678 
" style="fill:none;stroke:#b0b0b0;stroke-linecap:square;stroke-width:0.8;"/>
     </g>
     <g id="line2d_30">
      <g>
       <use style="stroke:#000000;stroke-width:0.8;" x="71.73" xlink:href="#m57cb36c8dd" y="140.776678"/>
      </g>
     </g>
     <g id="text_16">
      <!-- 3.0 -->
      <g transform="translate(48.826875 144.575896)scale(0.1 -0.1)">
       <defs>
        <path d="M 2597 2516 
Q 3050 2419 3304 2112 
Q 3559 1806 3559 1356 
Q 3559 666 3084 287 
Q 2609 -91 1734 -91 
Q 1441 -91 1130 -33 
Q 819 25 488 141 
L 488 750 
Q 750 597 1062 519 
Q 1375 441 1716 441 
Q 2309 441 2620 675 
Q 2931 909 2931 1356 
Q 2931 1769 2642 2001 
Q 2353 2234 1838 2234 
L 1294 2234 
L 1294 2753 
L 1863 2753 
Q 2328 2753 2575 2939 
Q 2822 3125 2822 3475 
Q 2822 3834 2567 4026 
Q 2313 4219 1838 4219 
Q 1578 4219 1281 4162 
Q 984 4106 628 3988 
L 628 4550 
Q 988 4650 1302 4700 
Q 1616 4750 1894 4750 
Q 2613 4750 3031 4423 
Q 3450 4097 3450 3541 
Q 3450 3153 3228 2886 
Q 3006 2619 2597 2516 
z
" id="DejaVuSans-33" transform="scale(0.015625)"/>
       </defs>
       <use xlink:href="#DejaVuSans-33"/>
       <use x="63.623047" xlink:href="#DejaVuSans-2e"/>
       <use x="95.410156" xlink:href="#DejaVuSans-30"/>
      </g>
     </g>
    </g>
    <g id="ytick_8">
     <g id="line2d_31">
      <path clip-path="url(#p11e943d197)" d="M 71.73 103.553133 
L 516.456 103.553133 
" style="fill:none;stroke:#b0b0b0;stroke-linecap:square;stroke-width:0.8;"/>
     </g>
     <g id="line2d_32">
      <g>
       <use style="stroke:#000000;stroke-width:0.8;" x="71.73" xlink:href="#m57cb36c8dd" y="103.553133"/>
      </g>
     </g>
     <g id="text_17">
      <!-- 3.5 -->
      <g transform="translate(48.826875 107.352352)scale(0.1 -0.1)">
       <use xlink:href="#DejaVuSans-33"/>
       <use x="63.623047" xlink:href="#DejaVuSans-2e"/>
       <use x="95.410156" xlink:href="#DejaVuSans-35"/>
      </g>
     </g>
    </g>
    <g id="ytick_9">
     <g id="line2d_33">
      <path clip-path="url(#p11e943d197)" d="M 71.73 66.329589 
L 516.456 66.329589 
" style="fill:none;stroke:#b0b0b0;stroke-linecap:square;stroke-width:0.8;"/>
     </g>
     <g id="line2d_34">
      <g>
       <use style="stroke:#000000;stroke-width:0.8;" x="71.73" xlink:href="#m57cb36c8dd" y="66.329589"/>
      </g>
     </g>
     <g id="text_18">
      <!-- 4.0 -->
      <g transform="translate(48.826875 70.128808)scale(0.1 -0.1)">
       <defs>
        <path d="M 2419 4116 
L 825 1625 
L 2419 1625 
L 2419 4116 
z
M 2253 4666 
L 3047 4666 
L 3047 1625 
L 3713 1625 
L 3713 1100 
L 3047 1100 
L 3047 0 
L 2419 0 
L 2419 1100 
L 313 1100 
L 313 1709 
L 2253 4666 
z
" id="DejaVuSans-34" transform="scale(0.015625)"/>
       </defs>
       <use xlink:href="#DejaVuSans-34"/>
       <use x="63.623047" xlink:href="#DejaVuSans-2e"/>
       <use x="95.410156" xlink:href="#DejaVuSans-30"/>
      </g>
     </g>
    </g>
    <g id="text_19">
     <!-- $\rho_\mathrm{xx}$ (m$\Omega$) -->
     <g transform="translate(42.726875 238.3556)rotate(-90)scale(0.1 -0.1)">
      <defs>
       <path d="M 1203 2875 
Q 1453 3194 1981 3475 
Q 2188 3584 2756 3584 
Q 3394 3584 3694 3078 
Q 3994 2572 3834 1747 
Q 3672 922 3175 415 
Q 2678 -91 2041 -91 
Q 1656 -91 1409 63 
Q 1163 213 1044 525 
L 681 -1331 
L 103 -1331 
L 697 1716 
Q 838 2438 1203 2875 
z
M 3238 1747 
Q 3359 2381 3169 2744 
Q 2978 3103 2522 3103 
Q 2066 3103 1734 2744 
Q 1403 2381 1281 1747 
Q 1156 1113 1347 750 
Q 1538 391 1994 391 
Q 2450 391 2781 750 
Q 3113 1113 3238 1747 
z
" id="DejaVuSans-Oblique-3c1" transform="scale(0.015625)"/>
       <path d="M 3513 3500 
L 2247 1797 
L 3578 0 
L 2900 0 
L 1881 1375 
L 863 0 
L 184 0 
L 1544 1831 
L 300 3500 
L 978 3500 
L 1906 2253 
L 2834 3500 
L 3513 3500 
z
" id="DejaVuSans-78" transform="scale(0.015625)"/>
       <path d="M 3328 2828 
Q 3544 3216 3844 3400 
Q 4144 3584 4550 3584 
Q 5097 3584 5394 3201 
Q 5691 2819 5691 2113 
L 5691 0 
L 5113 0 
L 5113 2094 
Q 5113 2597 4934 2840 
Q 4756 3084 4391 3084 
Q 3944 3084 3684 2787 
Q 3425 2491 3425 1978 
L 3425 0 
L 2847 0 
L 2847 2094 
Q 2847 2600 2669 2842 
Q 2491 3084 2119 3084 
Q 1678 3084 1418 2786 
Q 1159 2488 1159 1978 
L 1159 0 
L 581 0 
L 581 3500 
L 1159 3500 
L 1159 2956 
Q 1356 3278 1631 3431 
Q 1906 3584 2284 3584 
Q 2666 3584 2933 3390 
Q 3200 3197 3328 2828 
z
" id="DejaVuSans-6d" transform="scale(0.015625)"/>
       <path d="M 4647 556 
L 4647 0 
L 2772 0 
L 2772 556 
Q 3325 859 3634 1378 
Q 3944 1897 3944 2528 
Q 3944 3278 3531 3731 
Q 3119 4184 2444 4184 
Q 1769 4184 1355 3729 
Q 941 3275 941 2528 
Q 941 1897 1250 1378 
Q 1563 859 2119 556 
L 2119 0 
L 244 0 
L 244 556 
L 1241 556 
Q 747 991 519 1456 
Q 294 1922 294 2497 
Q 294 3491 894 4106 
Q 1491 4722 2444 4722 
Q 3391 4722 3994 4106 
Q 4594 3494 4594 2528 
Q 4594 1922 4372 1459 
Q 4150 997 3647 556 
L 4647 556 
z
" id="DejaVuSans-3a9" transform="scale(0.015625)"/>
      </defs>
      <use transform="translate(0 0.125)" xlink:href="#DejaVuSans-Oblique-3c1"/>
      <use transform="translate(63.476562 -16.28125)scale(0.7)" xlink:href="#DejaVuSans-78"/>
      <use transform="translate(104.902344 -16.28125)scale(0.7)" xlink:href="#DejaVuSans-78"/>
      <use transform="translate(149.0625 0.125)" xlink:href="#DejaVuSans-20"/>
      <use transform="translate(180.849609 0.125)" xlink:href="#DejaVuSans-28"/>
      <use transform="translate(219.863281 0.125)" xlink:href="#DejaVuSans-6d"/>
      <use transform="translate(317.275391 0.125)" xlink:href="#DejaVuSans-3a9"/>
      <use transform="translate(393.691406 0.125)" xlink:href="#DejaVuSans-29"/>
     </g>
    </g>
   </g>
   <g id="line2d_35">
    <path clip-path="url(#p11e943d197)" d="M 71.412339 364.079429 
L 71.73 363.994029 
L 72.365323 363.647409 
L 73.000646 363.081428 
L 73.635969 362.304453 
L 74.271291 360.852679 
L 74.906614 358.543541 
L 75.541937 355.273249 
L 76.17726 351.040145 
L 76.812583 345.735271 
L 80.62452 306.203726 
L 81.259843 302.546548 
L 81.895166 299.636369 
L 82.530489 297.580085 
L 83.165811 296.200285 
L 83.801134 295.530542 
L 84.436457 295.202273 
L 85.707103 295.302847 
L 86.977749 295.791669 
L 88.248394 296.173456 
L 89.51904 296.026107 
L 90.789686 295.430109 
L 91.425009 294.981319 
L 92.695654 293.735525 
L 95.236946 290.044916 
L 95.872269 289.167423 
L 97.142914 287.010705 
L 99.684206 283.367012 
L 100.954851 282.047472 
L 102.225497 281.190207 
L 102.86082 280.962511 
L 103.496143 280.855336 
L 104.131466 280.888767 
L 104.766789 281.17012 
L 105.402111 281.612167 
L 106.672757 283.139316 
L 107.943403 285.135341 
L 109.849371 289.54921 
L 116.2026 308.243155 
L 117.473246 311.699607 
L 118.743891 314.311717 
L 120.64986 317.479932 
L 121.920506 318.906507 
L 123.826474 320.098784 
L 124.461797 320.132355 
L 127.003089 319.810828 
L 127.638411 320.071955 
L 128.273734 320.607833 
L 128.909057 321.538843 
L 129.54438 323.333861 
L 130.179703 326.21398 
L 130.815026 330.279634 
L 132.085671 340.433936 
L 133.356317 350.648315 
L 133.99164 354.600107 
L 134.626963 357.463496 
L 135.262286 359.415949 
L 135.897609 360.874451 
L 136.532931 361.996355 
L 137.168254 362.659454 
L 138.4389 363.453168 
L 140.344869 363.938771 
L 142.250837 364.099523 
L 144.792129 364.002402 
L 146.698097 363.692621 
L 147.33342 363.560335 
L 148.604066 362.924026 
L 149.239389 362.483632 
L 149.874711 361.865749 
L 151.145357 360.216353 
L 151.78068 358.870069 
L 153.051326 354.7709 
L 154.321971 348.908402 
L 154.957294 345.753672 
L 158.133909 321.662734 
L 160.039877 305.631046 
L 160.6752 301.344298 
L 161.310523 296.133283 
L 162.581169 288.189498 
L 163.851814 281.719343 
L 164.487137 278.785566 
L 166.393106 271.973798 
L 167.663751 268.263102 
L 168.299074 266.856614 
L 169.56972 263.668312 
L 170.840366 261.076289 
L 172.111011 258.638217 
L 173.381657 256.602019 
L 174.01698 255.52366 
L 174.652303 254.11661 
L 175.922949 251.89289 
L 176.558271 251.303494 
L 177.193594 250.546662 
L 177.828917 250.024268 
L 178.46424 249.347783 
L 179.099563 249.09986 
L 180.370209 249.783087 
L 181.640854 251.115971 
L 182.276177 252.375251 
L 182.9115 254.190355 
L 184.182146 259.57597 
L 186.088114 271.156706 
L 186.723437 275.784927 
L 187.994083 287.298661 
L 191.170697 319.315123 
L 193.076666 336.816931 
L 194.347311 344.975068 
L 195.617957 351.693187 
L 196.888603 356.579346 
L 197.523926 358.401221 
L 198.794571 361.155763 
L 199.429894 362.001384 
L 201.335863 363.767972 
L 203.241831 364.498052 
L 204.512477 364.796113 
L 208.324414 365.042266 
L 230.560714 365.033893 
L 233.737329 365.047289 
L 238.819911 365.045615 
L 247.714431 365.042266 
L 249.6204 365.048964 
L 252.161691 365.035569 
L 257.879597 365.038917 
L 264.868149 365.057337 
L 302.352197 365.050638 
L 307.43478 365.060686 
L 325.22382 365.187946 
L 327.129789 365.184598 
L 330.306403 364.926723 
L 332.847694 364.536565 
L 335.388986 363.938771 
L 337.294954 363.171851 
L 338.5656 362.460188 
L 339.200923 362.289395 
L 339.836246 361.56768 
L 340.471569 361.346657 
L 341.106891 360.398875 
L 342.377537 358.967187 
L 343.01286 358.185212 
L 343.648183 357.095096 
L 344.283506 356.514043 
L 347.46012 348.121511 
L 348.730766 343.206879 
L 349.366089 341.42352 
L 350.001411 337.249005 
L 350.636734 334.964884 
L 351.272057 330.400294 
L 351.90738 327.20539 
L 355.083994 298.899624 
L 356.35464 281.833261 
L 358.260609 257.057551 
L 364.613837 138.824197 
L 365.24916 124.503668 
L 367.155129 94.751521 
L 367.790451 85.88389 
L 368.425774 79.293215 
L 369.061097 74.014495 
L 369.69642 70.049134 
L 370.331743 67.370444 
L 370.967066 66.780486 
L 371.602389 66.5136 
L 372.237711 68.200599 
L 372.873034 70.745847 
L 374.14368 80.069993 
L 375.414326 90.196202 
L 376.684971 104.450712 
L 377.320294 111.496497 
L 378.59094 127.83974 
L 383.673523 186.835546 
L 386.850137 215.931715 
L 388.756106 230.693871 
L 390.026751 238.651141 
L 391.297397 246.715446 
L 392.568043 254.002833 
L 395.109334 265.28255 
L 397.650626 274.364954 
L 398.921271 278.008647 
L 400.82724 282.402571 
L 401.462563 283.768886 
L 402.733209 285.671079 
L 404.003854 287.278574 
L 404.639177 287.787624 
L 405.2745 288.13598 
L 406.545146 289.12725 
L 409.086437 289.341601 
L 410.992406 288.350331 
L 412.263051 286.903529 
L 412.898374 286.314133 
L 413.533697 285.135341 
L 414.804343 283.447358 
L 416.074989 281.089774 
L 418.61628 274.981179 
L 420.522249 269.515639 
L 421.157571 266.756181 
L 421.792894 264.719983 
L 422.428217 262.30874 
L 428.146123 244.947117 
L 428.781446 243.178928 
L 429.416769 240.606852 
L 430.052091 239.186879 
L 430.687414 238.195609 
L 431.322737 236.561285 
L 431.95806 235.570015 
L 434.499351 232.649722 
L 435.134674 232.408542 
L 436.40532 231.390583 
L 437.040643 231.149403 
L 437.675966 231.524447 
L 438.311289 231.71197 
L 439.581934 232.4622 
L 440.217257 232.221019 
L 440.85258 232.408542 
L 441.487903 233.373123 
L 442.758549 234.632262 
L 444.664517 238.490307 
L 445.29984 239.990626 
L 445.935163 241.946478 
L 446.570486 243.527144 
L 447.841131 249.046342 
L 448.476454 250.600179 
L 449.111777 250.814531 
L 449.7471 254.297531 
L 450.382423 256.602019 
L 453.559037 273.212991 
L 454.19436 275.436711 
L 454.829683 278.624873 
L 455.465006 281.17012 
L 458.006297 296.441466 
L 458.64162 299.321585 
L 459.276943 302.804444 
L 460.547589 311.8603 
L 461.818234 319.18786 
L 463.724203 332.73119 
L 464.359526 336.910762 
L 464.994849 339.99849 
L 465.630171 341.210854 
L 466.900817 346.261036 
L 468.171463 349.723949 
L 468.806786 350.57464 
L 470.077431 354.894819 
L 471.348077 358.146696 
L 471.9834 358.816495 
L 472.618723 359.99533 
L 473.254046 360.541209 
L 473.889369 361.870764 
L 474.524691 362.771648 
L 475.160014 363.448145 
L 475.795337 363.776345 
L 476.43066 363.659129 
L 477.065983 363.799788 
L 477.701306 363.819882 
L 478.336629 363.699319 
L 479.607274 364.134687 
L 480.242597 364.590152 
L 480.87792 364.85472 
L 481.513243 364.864767 
L 483.419211 365.273346 
L 484.054534 365.085802 
L 484.689857 365.280043 
L 485.32518 365.347023 
L 486.595826 365.712065 
L 489.77244 366.023521 
L 494.855023 365.969933 
L 501.843574 365.919702 
L 516.456 365.913002 
L 516.456 365.913002 
" style="fill:none;stroke:#1f77b4;stroke-linecap:square;stroke-width:1.5;"/>
   </g>
   <g id="line2d_36">
    <path clip-path="url(#p11e943d197)" d="M 71.412339 324.800749 
L 71.73 328.344009 
L 73.635969 344.29184 
L 74.271291 348.973719 
L 74.906614 352.791661 
L 75.541937 355.929648 
L 76.812583 360.21971 
L 77.447906 361.751873 
L 78.083229 362.793416 
L 78.718551 363.466564 
L 79.989197 364.260274 
L 81.259843 364.51982 
L 83.165811 364.575081 
L 86.977749 364.5081 
L 92.060331 364.338976 
L 93.330977 363.972261 
L 93.9663 363.563684 
L 94.601623 362.969238 
L 95.236946 361.966211 
L 95.872269 360.39386 
L 96.507591 358.237114 
L 97.142914 355.351952 
L 98.41356 345.904392 
L 99.048883 339.676963 
L 100.319529 325.838935 
L 100.954851 319.449128 
L 101.590174 314.800679 
L 102.225497 311.25756 
L 102.86082 308.939868 
L 103.496143 308.082462 
L 104.131466 308.115893 
L 104.766789 308.846036 
L 106.037434 310.996293 
L 107.943403 313.970243 
L 108.578726 314.639986 
L 109.214049 315.015031 
L 109.849371 315.145664 
L 110.484694 315.008429 
L 111.120017 314.519466 
L 111.75534 313.869669 
L 113.025986 312.034478 
L 114.296631 309.459171 
L 116.837923 303.447498 
L 118.108569 300.038243 
L 120.64986 294.41201 
L 121.920506 292.147976 
L 122.555829 291.357713 
L 123.826474 290.493705 
L 125.09712 290.024829 
L 125.732443 290.23918 
L 127.003089 291.123275 
L 128.273734 292.992037 
L 129.54438 295.242446 
L 130.179703 297.024119 
L 130.815026 298.383832 
L 134.626963 307.941855 
L 137.803577 316.207308 
L 139.709546 321.451754 
L 144.792129 336.475317 
L 146.062774 339.33549 
L 148.604066 343.635441 
L 149.239389 344.318669 
L 149.874711 344.820976 
L 151.145357 345.40377 
L 151.78068 345.430599 
L 152.416003 345.269766 
L 153.686649 344.492847 
L 154.957294 342.61074 
L 156.22794 340.440538 
L 156.863263 339.51627 
L 157.498586 338.859871 
L 158.133909 339.000478 
L 158.769231 339.965059 
L 159.404554 342.235696 
L 160.6752 349.824382 
L 161.310523 354.744113 
L 161.945846 357.949102 
L 162.581169 360.070676 
L 163.216491 361.229437 
L 163.851814 361.832248 
L 164.487137 362.001384 
L 165.12246 361.994683 
L 166.393106 361.550937 
L 167.663751 360.713702 
L 168.299074 360.176166 
L 168.934397 359.472894 
L 170.840366 356.649677 
L 171.475689 355.494273 
L 173.381657 350.757148 
L 174.652303 346.147258 
L 175.287626 343.458033 
L 177.193594 333.153151 
L 179.734886 312.710964 
L 181.640854 295.316191 
L 182.276177 288.88621 
L 182.9115 283.996581 
L 183.546823 278.095737 
L 184.182146 273.795645 
L 184.817469 268.129238 
L 186.088114 261.076289 
L 187.35876 254.894091 
L 188.629406 250.385968 
L 189.264729 248.403288 
L 190.535374 245.154867 
L 191.170697 243.259275 
L 191.80602 242.314921 
L 192.441343 240.982037 
L 193.076666 240.017456 
L 193.711989 238.53048 
L 194.347311 237.981257 
L 194.982634 238.142091 
L 195.617957 239.053015 
L 196.25328 239.575408 
L 196.888603 240.714027 
L 197.523926 243.00475 
L 198.159249 244.839941 
L 198.794571 247.331671 
L 200.065217 253.440125 
L 201.335863 261.009287 
L 203.241831 275.70458 
L 203.877154 281.732687 
L 204.512477 286.582002 
L 205.783123 298.169481 
L 210.230383 329.502715 
L 211.501029 336.750069 
L 212.771674 343.494835 
L 214.677643 351.351601 
L 215.312966 353.431316 
L 217.218934 358.508382 
L 217.854257 359.724061 
L 219.760226 362.284367 
L 221.030871 363.421352 
L 222.301517 364.159805 
L 223.572163 364.596849 
L 225.478131 364.992031 
L 228.019423 365.085802 
L 362.072546 365.191295 
L 370.967066 365.201343 
L 375.414326 364.539915 
L 376.684971 364.215063 
L 377.320294 364.154781 
L 378.59094 363.490006 
L 379.861586 362.898909 
L 381.767554 361.53755 
L 382.402877 360.832578 
L 383.0382 360.49935 
L 383.673523 359.328888 
L 384.308846 358.865054 
L 384.944169 357.418294 
L 385.579491 356.383438 
L 387.48546 351.770219 
L 388.756106 347.476771 
L 390.026751 342.496822 
L 391.297397 337.091542 
L 392.568043 327.493346 
L 393.203366 324.284958 
L 393.838689 317.509992 
L 394.474011 312.154998 
L 396.37998 292.677252 
L 397.650626 273.48086 
L 398.921271 253.466954 
L 399.556594 243.319535 
L 401.462563 207.800127 
L 402.097886 198.543404 
L 403.368531 172.367527 
L 405.2745 137.350707 
L 406.545146 116.747124 
L 407.180469 107.531136 
L 408.451114 94.081497 
L 409.72176 87.142467 
L 410.357083 85.025641 
L 410.992406 84.785444 
L 411.627729 86.07071 
L 412.263051 88.937625 
L 412.898374 92.876297 
L 414.16902 103.190731 
L 415.439666 117.203639 
L 416.710311 133.653636 
L 420.522249 185.898636 
L 421.157571 193.2394 
L 422.428217 209.849529 
L 424.334186 231.95315 
L 426.240154 250.680667 
L 428.781446 272.22158 
L 431.322737 289.020074 
L 432.593383 295.744894 
L 433.864029 301.853348 
L 435.134674 307.131365 
L 436.40532 311.820127 
L 437.675966 315.637998 
L 438.946611 318.866333 
L 440.217257 321.719764 
L 441.487903 323.929999 
L 442.758549 325.617982 
L 444.029194 326.850292 
L 445.935163 327.881876 
L 446.570486 328.029225 
L 447.205809 327.962222 
L 447.841131 327.453173 
L 448.476454 327.104817 
L 449.7471 325.805504 
L 450.382423 325.055274 
L 451.653069 322.871727 
L 453.559037 318.759158 
L 455.465006 310.922548 
L 456.735651 304.639776 
L 460.547589 281.076289 
L 464.359526 243.379795 
L 464.994849 235.704019 
L 465.630171 231.176232 
L 466.265494 228.925682 
L 467.53614 221.987214 
L 468.806786 212.207956 
L 469.442109 206.152458 
L 470.077431 201.651921 
L 470.712754 199.026608 
L 471.9834 191.055151 
L 473.254046 181.745051 
L 474.524691 176.146068 
L 475.160014 173.760952 
L 475.795337 170.063881 
L 476.43066 167.479303 
L 477.065983 167.022788 
L 477.701306 165.991766 
L 478.336629 167.076165 
L 478.971951 167.424521 
L 480.242597 169.059548 
L 480.87792 169.273056 
L 481.513243 169.086236 
L 482.148566 170.157994 
L 482.783889 169.863014 
L 484.054534 173.520754 
L 484.689857 174.377598 
L 485.32518 175.97189 
L 485.960503 177.109666 
L 487.866471 190.237637 
L 488.501794 194.163668 
L 489.137117 197.204761 
L 489.77244 202.656255 
L 490.407763 205.187456 
L 491.678409 213.640712 
L 492.313731 216.548362 
L 492.949054 223.473346 
L 493.584377 227.425363 
L 494.855023 237.887566 
L 495.490346 240.995381 
L 496.125669 241.906305 
L 496.760991 247.840721 
L 498.031637 255.436571 
L 498.66696 257.003893 
L 499.302283 259.723319 
L 499.937606 265.175374 
L 500.572929 269.582642 
L 501.208251 275.396538 
L 501.843574 277.941645 
L 502.478897 279.977843 
L 503.11422 283.072314 
L 503.749543 284.719982 
L 505.020189 293.199646 
L 505.655511 298.303486 
L 506.290834 300.848733 
L 506.926157 302.831273 
L 507.56148 304.304764 
L 508.196803 308.109291 
L 508.832126 309.716927 
L 509.467449 313.347276 
L 510.102771 315.798692 
L 510.738094 319.348694 
L 511.373417 321.31789 
L 512.00874 324.546225 
L 512.644063 328.551619 
L 513.914709 332.757879 
L 516.456 344.29184 
L 516.456 344.29184 
" style="fill:none;stroke:#ff7f0e;stroke-linecap:square;stroke-width:1.5;"/>
   </g>
   <g id="line2d_37">
    <path clip-path="url(#p11e943d197)" d="M 71.412339 359.146366 
L 71.73 359.015746 
L 72.365323 358.587086 
L 73.000646 358.608858 
L 73.635969 358.500011 
L 74.906614 357.476897 
L 76.17726 355.31678 
L 76.812583 353.729371 
L 78.083229 346.937661 
L 78.718551 342.717916 
L 79.353874 337.727854 
L 81.895166 312.590444 
L 83.165811 302.482917 
L 83.801134 299.301498 
L 84.436457 298.263312 
L 85.07178 298.859451 
L 85.707103 301.257209 
L 86.342426 305.610959 
L 87.613071 316.870449 
L 89.51904 335.94281 
L 90.789686 346.309637 
L 92.060331 354.209948 
L 92.695654 357.150341 
L 93.330977 359.327202 
L 93.9663 360.998357 
L 94.601623 362.046586 
L 95.236946 362.878816 
L 95.872269 363.332604 
L 96.507591 363.603871 
L 97.142914 363.685922 
L 99.048883 363.531868 
L 100.319529 363.146732 
L 102.86082 362.401586 
L 106.037434 361.239481 
L 109.214049 359.282 
L 111.120017 357.239102 
L 112.390663 355.075655 
L 113.661309 351.706587 
L 114.296631 348.692506 
L 114.931954 345.122417 
L 116.2026 334.914738 
L 116.837923 327.721042 
L 117.473246 321.813455 
L 118.743891 308.25664 
L 119.379214 303.326978 
L 120.014537 299.977983 
L 120.64986 298.531181 
L 121.285183 297.459565 
L 121.920506 297.44608 
L 122.555829 298.370488 
L 123.826474 301.156776 
L 125.09712 303.099142 
L 125.732443 304.358422 
L 126.367766 305.13534 
L 127.638411 306.99736 
L 128.909057 308.296813 
L 130.179703 309.341882 
L 130.815026 309.743756 
L 132.085671 309.958107 
L 132.720994 310.011625 
L 133.99164 309.529404 
L 135.262286 308.779034 
L 136.532931 308.403989 
L 138.4389 308.149464 
L 139.074223 308.202982 
L 140.980191 309.261535 
L 143.521483 313.079407 
L 144.156806 314.191197 
L 146.698097 317.620538 
L 147.968743 318.799331 
L 148.604066 319.201345 
L 149.239389 319.214689 
L 149.874711 319.616563 
L 150.510034 319.335209 
L 151.78068 319.321865 
L 153.051326 318.893162 
L 155.592617 319.388868 
L 156.22794 319.509388 
L 158.133909 321.009707 
L 159.404554 322.349333 
L 160.6752 324.17118 
L 163.851814 329.824242 
L 165.12246 332.061307 
L 166.393106 333.909983 
L 167.663751 335.062087 
L 168.299074 335.303127 
L 168.934397 335.249609 
L 169.56972 334.901253 
L 170.205043 334.137679 
L 171.475689 331.86044 
L 172.111011 330.413639 
L 173.381657 326.408245 
L 174.652303 321.009707 
L 175.287626 317.526848 
L 175.922949 313.052578 
L 177.193594 305.738221 
L 178.46424 296.93703 
L 179.734886 290.306042 
L 180.370209 288.243156 
L 181.005531 284.961163 
L 181.640854 283.03214 
L 182.276177 279.843979 
L 182.9115 274.874004 
L 185.452791 247.11732 
L 186.723437 236.989987 
L 187.35876 232.435371 
L 187.994083 226.219741 
L 188.629406 222.026544 
L 189.264729 219.522032 
L 189.900051 218.155296 
L 190.535374 217.284405 
L 191.170697 214.49896 
L 191.80602 214.779893 
L 192.441343 217.257716 
L 193.076666 221.423944 
L 193.711989 222.200722 
L 194.347311 223.379234 
L 195.617957 231.122574 
L 199.429894 251.511103 
L 200.065217 253.75491 
L 201.335863 262.094388 
L 201.971186 266.96379 
L 203.241831 275.255791 
L 205.783123 292.824601 
L 210.230383 317.392843 
L 214.677643 339.750708 
L 215.312966 342.106748 
L 215.948289 346.629479 
L 216.583611 348.221944 
L 217.218934 350.773892 
L 217.854257 354.4427 
L 218.48958 356.344922 
L 219.124903 357.595787 
L 219.760226 359.148037 
L 221.030871 361.413631 
L 221.666194 362.095145 
L 222.301517 363.135012 
L 223.572163 364.236832 
L 224.207486 364.640385 
L 225.478131 364.988683 
L 226.748777 365.137712 
L 230.560714 365.048964 
L 235.007974 365.043941 
L 246.443786 365.030544 
L 248.349754 365.047289 
L 253.432337 365.033893 
L 255.973629 365.060686 
L 258.51492 365.042266 
L 297.269614 365.042266 
L 302.98752 365.064034 
L 315.058654 365.040592 
L 328.400434 365.038917 
L 371.602389 365.142736 
L 381.132231 365.246553 
L 385.579491 365.278369 
L 401.462563 365.514471 
L 404.639177 365.544615 
L 407.815791 365.390559 
L 409.086437 365.209715 
L 410.992406 364.807835 
L 412.898374 364.181573 
L 414.804343 363.069706 
L 416.710311 361.445446 
L 417.980957 359.734105 
L 419.251603 357.627603 
L 419.886926 356.281291 
L 421.157571 352.711286 
L 422.428217 348.330805 
L 423.698863 342.469993 
L 424.334186 338.906787 
L 426.240154 325.055274 
L 428.146123 307.118021 
L 428.781446 299.696629 
L 431.322737 262.442604 
L 435.134674 190.130883 
L 437.675966 142.039469 
L 439.581934 110.558183 
L 440.217257 102.038908 
L 440.85258 95.153254 
L 441.487903 89.58096 
L 442.123226 85.562222 
L 442.758549 82.480393 
L 443.393871 80.900149 
L 444.029194 80.551792 
L 444.664517 81.490107 
L 445.29984 83.740375 
L 445.935163 87.035712 
L 446.570486 91.161205 
L 447.205809 96.225012 
L 447.841131 102.28051 
L 449.7471 125.079579 
L 453.559037 174.605154 
L 455.465006 198.315849 
L 459.912266 244.411379 
L 460.547589 250.412657 
L 461.182911 254.71317 
L 463.08888 270.828437 
L 463.724203 275.396538 
L 468.171463 297.32556 
L 468.806786 299.884152 
L 469.442109 302.925105 
L 470.077431 304.157415 
L 470.712754 304.170899 
L 471.348077 303.005451 
L 471.9834 302.215048 
L 472.618723 302.067699 
L 473.254046 302.40257 
L 473.889369 305.041649 
L 474.524691 307.198368 
L 475.160014 307.359061 
L 476.43066 303.03228 
L 477.065983 302.121357 
L 477.701306 301.692654 
L 478.336629 302.268706 
L 478.971951 303.541189 
L 479.607274 303.39384 
L 480.242597 303.554674 
L 481.513243 297.80778 
L 482.148566 296.052936 
L 482.783889 295.383193 
L 483.419211 292.529763 
L 484.054534 291.203621 
L 484.689857 290.922268 
L 485.32518 289.448777 
L 485.960503 285.269205 
L 486.595826 282.429259 
L 487.231149 280.219024 
L 488.501794 281.370987 
L 489.137117 280.393202 
L 489.77244 278.531041 
L 490.407763 275.208875 
L 491.043086 272.529763 
L 492.313731 266.247131 
L 492.949054 264.920849 
L 493.584377 265.791599 
L 494.855023 270.198867 
L 495.490346 269.100421 
L 496.125669 265.188859 
L 498.031637 244.451552 
L 498.66696 241.7723 
L 499.302283 239.709413 
L 500.572929 232.810416 
L 501.843574 222.401589 
L 503.11422 216.427561 
L 503.749543 214.552337 
L 505.020189 209.166863 
L 505.655511 206.232524 
L 506.290834 202.602877 
L 506.926157 199.990206 
L 507.56148 195.663847 
L 509.467449 188.202282 
L 510.102771 187.35808 
L 510.738094 185.831213 
L 511.373417 184.853568 
L 512.00874 184.933634 
L 512.644063 185.46881 
L 513.914709 185.925325 
L 514.550031 186.273681 
L 515.185354 186.058768 
L 515.820677 186.634679 
L 516.456 186.956347 
L 516.456 186.956347 
" style="fill:none;stroke:#2ca02c;stroke-linecap:square;stroke-width:1.5;"/>
   </g>
   <g id="line2d_38">
    <path clip-path="url(#p11e943d197)" d="M 71.412339 359.298744 
L 71.73 359.077706 
L 72.365323 358.771279 
L 73.635969 359.086078 
L 75.541937 359.178181 
L 76.17726 359.332231 
L 76.812583 359.886482 
L 77.447906 359.092778 
L 83.801134 358.389492 
L 84.436457 358.590429 
L 85.07178 358.066321 
L 85.707103 357.945759 
L 86.342426 357.694577 
L 87.613071 357.470197 
L 89.51904 356.629577 
L 90.789686 356.264547 
L 91.425009 355.966478 
L 92.695654 355.956435 
L 93.330977 355.038825 
L 93.9663 354.529775 
L 95.872269 353.518377 
L 97.142914 352.506992 
L 98.41356 351.314757 
L 99.048883 351.545838 
L 99.684206 350.072235 
L 100.319529 349.435993 
L 100.954851 348.980461 
L 101.590174 348.337407 
L 102.86082 346.616134 
L 104.766789 344.646939 
L 106.672757 342.094949 
L 107.30808 340.98976 
L 107.943403 340.206099 
L 109.214049 338.096297 
L 109.849371 336.930849 
L 113.025986 329.408884 
L 115.567277 321.344579 
L 116.837923 316.816791 
L 117.473246 314.285028 
L 118.743891 308.658514 
L 120.014537 303.166145 
L 121.285183 300.500377 
L 121.920506 296.186941 
L 123.191151 292.061027 
L 124.461797 289.716646 
L 125.09712 288.73872 
L 125.732443 288.484336 
L 126.367766 288.390505 
L 127.003089 288.658374 
L 128.273734 289.770304 
L 131.450349 294.686621 
L 132.085671 295.34302 
L 132.720994 296.173456 
L 133.356317 296.709335 
L 135.897609 299.321585 
L 136.532931 299.696629 
L 137.803577 300.607553 
L 138.4389 300.942424 
L 140.980191 303.259976 
L 142.250837 305.028165 
L 142.88616 306.180268 
L 143.521483 307.62707 
L 146.062774 311.793298 
L 147.33342 313.909843 
L 148.604066 315.410303 
L 149.239389 315.959526 
L 149.874711 317.272323 
L 150.510034 316.468575 
L 152.416003 316.977625 
L 153.051326 316.642613 
L 153.686649 316.589095 
L 154.321971 316.133563 
L 154.957294 316.080046 
L 157.498586 315.10212 
L 159.404554 313.293618 
L 160.039877 312.516699 
L 160.6752 311.324422 
L 161.310523 310.560988 
L 163.216491 307.024189 
L 164.487137 303.621677 
L 167.663751 292.97195 
L 168.934397 287.439408 
L 169.56972 284.425284 
L 170.840366 277.352249 
L 172.111011 269.662988 
L 173.381657 261.705859 
L 174.652303 252.998078 
L 176.558271 240.580163 
L 178.46424 229.983955 
L 179.734886 223.795014 
L 181.005531 217.913694 
L 181.640854 216.025828 
L 183.546823 208.603594 
L 184.182146 205.52317 
L 184.817469 201.785364 
L 185.452791 196.975801 
L 186.723437 189.823262 
L 187.35876 187.478881 
L 187.994083 184.611966 
L 188.629406 182.816808 
L 189.900051 180.68734 
L 190.535374 180.392361 
L 191.170697 180.699982 
L 191.80602 183.312654 
L 192.441343 183.312654 
L 193.076666 183.09774 
L 193.711989 186.286323 
L 194.347311 186.232946 
L 194.982634 191.16331 
L 195.617957 194.083602 
L 196.25328 198.70494 
L 198.794571 211.685422 
L 200.065217 217.070896 
L 201.971186 224.960462 
L 202.606509 226.835966 
L 203.241831 229.488249 
L 204.512477 232.931076 
L 205.1478 234.993963 
L 207.689091 241.765698 
L 208.324414 244.176941 
L 209.59506 247.110577 
L 211.501029 252.482427 
L 212.136351 254.163526 
L 212.771674 255.316051 
L 215.948289 262.281911 
L 217.218934 264.545805 
L 217.854257 266.113127 
L 218.48958 267.358921 
L 219.124903 268.912899 
L 220.395549 272.516419 
L 221.666194 275.182187 
L 222.301517 277.164727 
L 228.654746 301.963894 
L 231.196037 313.497996 
L 231.83136 315.781976 
L 233.102006 322.36942 
L 233.737329 324.603114 
L 235.643297 333.441107 
L 236.913943 338.303906 
L 237.549266 340.119151 
L 238.184589 342.501879 
L 238.819911 343.762704 
L 239.455234 346.122115 
L 240.090557 347.756439 
L 240.72588 348.367607 
L 241.361203 349.826068 
L 241.996526 351.825478 
L 242.631849 353.047857 
L 243.267171 354.804387 
L 244.537817 356.904202 
L 246.443786 359.245156 
L 247.079109 360.385488 
L 248.985077 362.306139 
L 249.6204 362.565692 
L 250.255723 362.505404 
L 250.891046 362.878816 
L 251.526369 363.119941 
L 252.161691 362.878816 
L 252.797014 362.805138 
L 253.432337 363.305813 
L 254.06766 362.996029 
L 254.702983 363.369443 
L 255.338306 363.587126 
L 255.973629 363.434748 
L 259.150243 364.730808 
L 259.785566 364.410979 
L 260.420889 364.312183 
L 262.96218 364.600198 
L 263.597503 364.509774 
L 265.503471 365.023847 
L 273.762669 365.023847 
L 289.010417 365.040592 
L 299.810906 365.082454 
L 301.081551 365.12934 
L 302.98752 364.832952 
L 303.622843 364.940119 
L 304.258166 364.901606 
L 306.164134 364.014124 
L 306.799457 364.2586 
L 307.43478 364.807835 
L 308.705426 365.089152 
L 313.788009 365.032219 
L 322.682529 365.064034 
L 325.859143 365.042266 
L 363.343191 365.151108 
L 366.519806 365.119292 
L 383.0382 365.234833 
L 390.662074 365.283392 
L 394.474011 365.303486 
L 450.382423 365.681921 
L 453.559037 365.733823 
L 463.08888 365.907987 
L 463.724203 365.926403 
L 464.359526 366.063708 
L 464.994849 365.958218 
L 469.442109 366.152455 
L 470.712754 366.02855 
L 471.9834 366.234501 
L 485.32518 366.550986 
L 490.407763 366.646432 
L 493.584377 366.67992 
L 495.490346 366.678248 
L 496.125669 366.619645 
L 496.760991 366.745222 
L 499.302283 366.715092 
L 503.11422 366.716764 
L 516.456 366.823925 
L 516.456 366.823925 
" style="fill:none;stroke:#d62728;stroke-linecap:square;stroke-width:1.5;"/>
   </g>
   <g id="line2d_39">
    <path clip-path="url(#p11e943d197)" d="M 71.412339 358.958815 
L 71.73 358.891841 
L 73.000646 359.295386 
L 73.635969 359.303758 
L 74.271291 359.452793 
L 74.906614 359.377447 
L 75.541937 359.643686 
L 76.17726 360.229754 
L 76.812583 359.439392 
L 77.447906 359.236784 
L 80.62452 358.935372 
L 81.895166 358.474895 
L 83.165811 358.27563 
L 83.801134 358.54857 
L 84.436457 358.573685 
L 85.07178 357.888828 
L 86.977749 357.302747 
L 87.613071 357.054894 
L 88.248394 356.936018 
L 89.51904 356.359994 
L 90.154363 356.287991 
L 90.789686 355.963135 
L 91.425009 355.773913 
L 92.060331 356.529115 
L 92.695654 355.387111 
L 93.330977 354.780943 
L 95.236946 353.667411 
L 98.41356 351.696544 
L 100.319529 349.476167 
L 100.954851 349.12781 
L 101.590174 348.593617 
L 102.86082 346.960979 
L 104.131466 345.497602 
L 104.766789 345.01187 
L 105.402111 344.23158 
L 106.037434 343.009243 
L 106.672757 342.176981 
L 108.578726 339.238287 
L 109.849371 337.352809 
L 112.390663 332.031247 
L 114.931954 325.13225 
L 116.837923 319.633279 
L 118.108569 314.609786 
L 118.743891 312.479897 
L 119.379214 309.958107 
L 120.014537 306.783009 
L 121.920506 300.098503 
L 123.191151 296.33429 
L 123.826474 294.626221 
L 124.461797 293.387168 
L 125.09712 291.866762 
L 126.367766 290.219094 
L 127.003089 289.797133 
L 127.638411 289.797133 
L 128.273734 289.984656 
L 128.909057 290.41996 
L 129.54438 290.714658 
L 130.179703 291.538493 
L 130.815026 292.141374 
L 136.532931 298.919711 
L 138.4389 300.701384 
L 140.980191 303.956548 
L 142.88616 307.312145 
L 143.521483 308.698687 
L 144.156806 309.69684 
L 144.792129 310.460414 
L 145.427451 311.652691 
L 146.062774 312.463181 
L 146.698097 313.581714 
L 147.33342 314.238112 
L 147.968743 315.075291 
L 149.239389 315.992957 
L 150.510034 316.508748 
L 151.145357 316.615924 
L 151.78068 316.84362 
L 153.051326 316.508748 
L 153.686649 316.227395 
L 154.957294 315.885781 
L 155.592617 315.570996 
L 156.22794 315.095378 
L 157.498586 314.485895 
L 158.769231 313.554885 
L 160.039877 312.208657 
L 160.6752 311.572345 
L 163.851814 306.783009 
L 167.028429 299.42876 
L 168.299074 295.858671 
L 169.56972 291.498319 
L 170.205043 289.334859 
L 170.840366 286.736094 
L 171.475689 284.786985 
L 174.01698 272.871377 
L 175.287626 265.76477 
L 178.46424 243.647805 
L 182.276177 209.474484 
L 184.182146 193.319466 
L 185.452791 181.638296 
L 186.088114 176.748668 
L 187.35876 168.376882 
L 187.994083 163.567319 
L 189.264729 157.243531 
L 190.535374 152.769682 
L 191.170697 151.32288 
L 191.80602 151.082683 
L 192.441343 149.648523 
L 193.076666 149.340902 
L 193.711989 149.206054 
L 194.347311 149.406921 
L 194.982634 150.037614 
L 195.617957 151.92548 
L 196.25328 154.470728 
L 196.888603 156.466753 
L 197.523926 157.591887 
L 198.159249 160.606292 
L 198.794571 162.81723 
L 203.241831 183.9293 
L 204.512477 191.524308 
L 207.689091 214.296689 
L 208.959737 222.3749 
L 210.865706 232.408542 
L 212.771674 240.325638 
L 214.04232 244.612246 
L 215.948289 251.256578 
L 219.760226 267.774139 
L 221.030871 272.248409 
L 221.666194 273.467516 
L 222.301517 275.423227 
L 223.572163 281.41116 
L 224.207486 284.987992 
L 224.842809 287.787624 
L 225.478131 289.649644 
L 226.113454 292.543248 
L 226.748777 294.659792 
L 227.3841 295.959245 
L 228.019423 296.856684 
L 228.654746 296.896857 
L 229.290069 297.539911 
L 229.925391 297.861438 
L 231.196037 299.723458 
L 231.83136 300.969253 
L 232.466683 301.585478 
L 233.737329 303.300149 
L 234.372651 304.800469 
L 235.643297 308.712031 
L 236.27862 310.359981 
L 236.913943 312.329177 
L 237.549266 315.142293 
L 238.184589 316.562266 
L 238.819911 319.027167 
L 241.996526 327.131646 
L 242.631849 329.475886 
L 243.267171 330.802168 
L 243.902494 332.798052 
L 244.537817 334.030503 
L 245.17314 336.468575 
L 247.079109 341.585899 
L 248.349754 346.006511 
L 249.6204 348.967117 
L 250.255723 349.904729 
L 250.891046 351.385088 
L 251.526369 353.394471 
L 252.161691 354.21832 
L 252.797014 355.70861 
L 253.432337 356.472184 
L 254.06766 357.630946 
L 254.702983 358.287345 
L 255.338306 358.682532 
L 256.608951 360.072347 
L 257.244274 360.507722 
L 257.879597 360.732117 
L 258.51492 361.395216 
L 259.785566 362.304453 
L 262.326857 362.994355 
L 262.96218 363.332604 
L 263.597503 363.881838 
L 266.138794 364.930072 
L 266.774117 364.839649 
L 267.40944 365.038917 
L 270.586054 365.094175 
L 273.127346 365.053988 
L 273.762669 364.781043 
L 274.397991 365.02887 
L 276.30396 365.045615 
L 277.574606 364.990357 
L 279.480574 365.043941 
L 301.716874 365.089152 
L 302.352197 364.839649 
L 303.622843 363.925376 
L 304.893489 363.208689 
L 305.528811 362.820207 
L 307.43478 363.145058 
L 308.070103 363.081428 
L 308.705426 362.790068 
L 309.340749 362.781694 
L 309.976071 362.64271 
L 310.611394 362.890536 
L 311.246717 363.603871 
L 311.88204 364.491355 
L 312.517363 364.945142 
L 313.152686 365.166178 
L 314.423331 365.211389 
L 316.964623 365.050638 
L 323.317851 365.02887 
L 337.294954 364.968586 
L 341.106891 364.844674 
L 342.377537 365.022172 
L 344.283506 365.040592 
L 353.178026 365.070733 
L 356.35464 365.064034 
L 384.308846 365.234833 
L 389.391429 365.27502 
L 398.921271 365.306836 
L 401.462563 365.358744 
L 404.639177 365.348697 
L 414.16902 365.398932 
L 419.251603 365.415677 
L 429.416769 365.497726 
L 443.393871 365.608247 
L 474.524691 366.279717 
L 477.701306 366.360092 
L 478.336629 366.303161 
L 479.607274 366.432095 
L 480.87792 366.430423 
L 483.419211 366.455539 
L 484.689857 366.534242 
L 487.231149 366.53257 
L 491.678409 366.689963 
L 492.313731 366.547642 
L 494.2197 366.628017 
L 495.490346 366.716764 
L 496.125669 366.621317 
L 498.66696 366.810525 
L 499.302283 366.62466 
L 499.937606 366.756951 
L 503.11422 366.68662 
L 505.020189 366.748579 
L 506.290834 366.753594 
L 507.56148 366.674905 
L 508.196803 366.80551 
L 509.467449 366.67992 
L 512.00874 366.768666 
L 515.820677 366.753594 
L 516.456 366.8976 
L 516.456 366.8976 
" style="fill:none;stroke:#9467bd;stroke-linecap:square;stroke-width:1.5;"/>
   </g>
   <g id="patch_3">
    <path d="M 71.73 381.9168 
L 71.73 51.4944 
" style="fill:none;stroke:#000000;stroke-linecap:square;stroke-linejoin:miter;stroke-width:0.8;"/>
   </g>
   <g id="patch_4">
    <path d="M 516.456 381.9168 
L 516.456 51.4944 
" style="fill:none;stroke:#000000;stroke-linecap:square;stroke-linejoin:miter;stroke-width:0.8;"/>
   </g>
   <g id="patch_5">
    <path d="M 71.73 381.9168 
L 516.456 381.9168 
" style="fill:none;stroke:#000000;stroke-linecap:square;stroke-linejoin:miter;stroke-width:0.8;"/>
   </g>
   <g id="patch_6">
    <path d="M 71.73 51.4944 
L 516.456 51.4944 
" style="fill:none;stroke:#000000;stroke-linecap:square;stroke-linejoin:miter;stroke-width:0.8;"/>
   </g>
   <g id="text_20">
    <!-- Long. Resistivity for different $V_\mathrm{g}$, Sample D230831B, $T$= 15 mK -->
    <g transform="translate(104.493 45.4944)scale(0.12 -0.12)">
     <defs>
      <path d="M 628 4666 
L 1259 4666 
L 1259 531 
L 3531 531 
L 3531 0 
L 628 0 
L 628 4666 
z
" id="DejaVuSans-4c" transform="scale(0.015625)"/>
      <path d="M 1959 3097 
Q 1497 3097 1228 2736 
Q 959 2375 959 1747 
Q 959 1119 1226 758 
Q 1494 397 1959 397 
Q 2419 397 2687 759 
Q 2956 1122 2956 1747 
Q 2956 2369 2687 2733 
Q 2419 3097 1959 3097 
z
M 1959 3584 
Q 2709 3584 3137 3096 
Q 3566 2609 3566 1747 
Q 3566 888 3137 398 
Q 2709 -91 1959 -91 
Q 1206 -91 779 398 
Q 353 888 353 1747 
Q 353 2609 779 3096 
Q 1206 3584 1959 3584 
z
" id="DejaVuSans-6f" transform="scale(0.015625)"/>
      <path d="M 3513 2113 
L 3513 0 
L 2938 0 
L 2938 2094 
Q 2938 2591 2744 2837 
Q 2550 3084 2163 3084 
Q 1697 3084 1428 2787 
Q 1159 2491 1159 1978 
L 1159 0 
L 581 0 
L 581 3500 
L 1159 3500 
L 1159 2956 
Q 1366 3272 1645 3428 
Q 1925 3584 2291 3584 
Q 2894 3584 3203 3211 
Q 3513 2838 3513 2113 
z
" id="DejaVuSans-6e" transform="scale(0.015625)"/>
      <path d="M 2906 1791 
Q 2906 2416 2648 2759 
Q 2391 3103 1925 3103 
Q 1463 3103 1205 2759 
Q 947 2416 947 1791 
Q 947 1169 1205 825 
Q 1463 481 1925 481 
Q 2391 481 2648 825 
Q 2906 1169 2906 1791 
z
M 3481 434 
Q 3481 -459 3084 -895 
Q 2688 -1331 1869 -1331 
Q 1566 -1331 1297 -1286 
Q 1028 -1241 775 -1147 
L 775 -588 
Q 1028 -725 1275 -790 
Q 1522 -856 1778 -856 
Q 2344 -856 2625 -561 
Q 2906 -266 2906 331 
L 2906 616 
Q 2728 306 2450 153 
Q 2172 0 1784 0 
Q 1141 0 747 490 
Q 353 981 353 1791 
Q 353 2603 747 3093 
Q 1141 3584 1784 3584 
Q 2172 3584 2450 3431 
Q 2728 3278 2906 2969 
L 2906 3500 
L 3481 3500 
L 3481 434 
z
" id="DejaVuSans-67" transform="scale(0.015625)"/>
      <path d="M 2841 2188 
Q 3044 2119 3236 1894 
Q 3428 1669 3622 1275 
L 4263 0 
L 3584 0 
L 2988 1197 
Q 2756 1666 2539 1819 
Q 2322 1972 1947 1972 
L 1259 1972 
L 1259 0 
L 628 0 
L 628 4666 
L 2053 4666 
Q 2853 4666 3247 4331 
Q 3641 3997 3641 3322 
Q 3641 2881 3436 2590 
Q 3231 2300 2841 2188 
z
M 1259 4147 
L 1259 2491 
L 2053 2491 
Q 2509 2491 2742 2702 
Q 2975 2913 2975 3322 
Q 2975 3731 2742 3939 
Q 2509 4147 2053 4147 
L 1259 4147 
z
" id="DejaVuSans-52" transform="scale(0.015625)"/>
      <path d="M 3597 1894 
L 3597 1613 
L 953 1613 
Q 991 1019 1311 708 
Q 1631 397 2203 397 
Q 2534 397 2845 478 
Q 3156 559 3463 722 
L 3463 178 
Q 3153 47 2828 -22 
Q 2503 -91 2169 -91 
Q 1331 -91 842 396 
Q 353 884 353 1716 
Q 353 2575 817 3079 
Q 1281 3584 2069 3584 
Q 2775 3584 3186 3129 
Q 3597 2675 3597 1894 
z
M 3022 2063 
Q 3016 2534 2758 2815 
Q 2500 3097 2075 3097 
Q 1594 3097 1305 2825 
Q 1016 2553 972 2059 
L 3022 2063 
z
" id="DejaVuSans-65" transform="scale(0.015625)"/>
      <path d="M 2834 3397 
L 2834 2853 
Q 2591 2978 2328 3040 
Q 2066 3103 1784 3103 
Q 1356 3103 1142 2972 
Q 928 2841 928 2578 
Q 928 2378 1081 2264 
Q 1234 2150 1697 2047 
L 1894 2003 
Q 2506 1872 2764 1633 
Q 3022 1394 3022 966 
Q 3022 478 2636 193 
Q 2250 -91 1575 -91 
Q 1294 -91 989 -36 
Q 684 19 347 128 
L 347 722 
Q 666 556 975 473 
Q 1284 391 1588 391 
Q 1994 391 2212 530 
Q 2431 669 2431 922 
Q 2431 1156 2273 1281 
Q 2116 1406 1581 1522 
L 1381 1569 
Q 847 1681 609 1914 
Q 372 2147 372 2553 
Q 372 3047 722 3315 
Q 1072 3584 1716 3584 
Q 2034 3584 2315 3537 
Q 2597 3491 2834 3397 
z
" id="DejaVuSans-73" transform="scale(0.015625)"/>
      <path d="M 603 3500 
L 1178 3500 
L 1178 0 
L 603 0 
L 603 3500 
z
M 603 4863 
L 1178 4863 
L 1178 4134 
L 603 4134 
L 603 4863 
z
" id="DejaVuSans-69" transform="scale(0.015625)"/>
      <path d="M 1172 4494 
L 1172 3500 
L 2356 3500 
L 2356 3053 
L 1172 3053 
L 1172 1153 
Q 1172 725 1289 603 
Q 1406 481 1766 481 
L 2356 481 
L 2356 0 
L 1766 0 
Q 1100 0 847 248 
Q 594 497 594 1153 
L 594 3053 
L 172 3053 
L 172 3500 
L 594 3500 
L 594 4494 
L 1172 4494 
z
" id="DejaVuSans-74" transform="scale(0.015625)"/>
      <path d="M 191 3500 
L 800 3500 
L 1894 563 
L 2988 3500 
L 3597 3500 
L 2284 0 
L 1503 0 
L 191 3500 
z
" id="DejaVuSans-76" transform="scale(0.015625)"/>
      <path d="M 2059 -325 
Q 1816 -950 1584 -1140 
Q 1353 -1331 966 -1331 
L 506 -1331 
L 506 -850 
L 844 -850 
Q 1081 -850 1212 -737 
Q 1344 -625 1503 -206 
L 1606 56 
L 191 3500 
L 800 3500 
L 1894 763 
L 2988 3500 
L 3597 3500 
L 2059 -325 
z
" id="DejaVuSans-79" transform="scale(0.015625)"/>
      <path d="M 2375 4863 
L 2375 4384 
L 1825 4384 
Q 1516 4384 1395 4259 
Q 1275 4134 1275 3809 
L 1275 3500 
L 2222 3500 
L 2222 3053 
L 1275 3053 
L 1275 0 
L 697 0 
L 697 3053 
L 147 3053 
L 147 3500 
L 697 3500 
L 697 3744 
Q 697 4328 969 4595 
Q 1241 4863 1831 4863 
L 2375 4863 
z
" id="DejaVuSans-66" transform="scale(0.015625)"/>
      <path d="M 2631 2963 
Q 2534 3019 2420 3045 
Q 2306 3072 2169 3072 
Q 1681 3072 1420 2755 
Q 1159 2438 1159 1844 
L 1159 0 
L 581 0 
L 581 3500 
L 1159 3500 
L 1159 2956 
Q 1341 3275 1631 3429 
Q 1922 3584 2338 3584 
Q 2397 3584 2469 3576 
Q 2541 3569 2628 3553 
L 2631 2963 
z
" id="DejaVuSans-72" transform="scale(0.015625)"/>
      <path d="M 2906 2969 
L 2906 4863 
L 3481 4863 
L 3481 0 
L 2906 0 
L 2906 525 
Q 2725 213 2448 61 
Q 2172 -91 1784 -91 
Q 1150 -91 751 415 
Q 353 922 353 1747 
Q 353 2572 751 3078 
Q 1150 3584 1784 3584 
Q 2172 3584 2448 3432 
Q 2725 3281 2906 2969 
z
M 947 1747 
Q 947 1113 1208 752 
Q 1469 391 1925 391 
Q 2381 391 2643 752 
Q 2906 1113 2906 1747 
Q 2906 2381 2643 2742 
Q 2381 3103 1925 3103 
Q 1469 3103 1208 2742 
Q 947 2381 947 1747 
z
" id="DejaVuSans-64" transform="scale(0.015625)"/>
      <path d="M 1319 0 
L 500 4666 
L 1119 4666 
L 1797 653 
L 4063 4666 
L 4750 4666 
L 2053 0 
L 1319 0 
z
" id="DejaVuSans-Oblique-56" transform="scale(0.015625)"/>
      <path d="M 750 794 
L 1409 794 
L 1409 256 
L 897 -744 
L 494 -744 
L 750 256 
L 750 794 
z
" id="DejaVuSans-2c" transform="scale(0.015625)"/>
      <path d="M 3425 4513 
L 3425 3897 
Q 3066 4069 2747 4153 
Q 2428 4238 2131 4238 
Q 1616 4238 1336 4038 
Q 1056 3838 1056 3469 
Q 1056 3159 1242 3001 
Q 1428 2844 1947 2747 
L 2328 2669 
Q 3034 2534 3370 2195 
Q 3706 1856 3706 1288 
Q 3706 609 3251 259 
Q 2797 -91 1919 -91 
Q 1588 -91 1214 -16 
Q 841 59 441 206 
L 441 856 
Q 825 641 1194 531 
Q 1563 422 1919 422 
Q 2459 422 2753 634 
Q 3047 847 3047 1241 
Q 3047 1584 2836 1778 
Q 2625 1972 2144 2069 
L 1759 2144 
Q 1053 2284 737 2584 
Q 422 2884 422 3419 
Q 422 4038 858 4394 
Q 1294 4750 2059 4750 
Q 2388 4750 2728 4690 
Q 3069 4631 3425 4513 
z
" id="DejaVuSans-53" transform="scale(0.015625)"/>
      <path d="M 2194 1759 
Q 1497 1759 1228 1600 
Q 959 1441 959 1056 
Q 959 750 1161 570 
Q 1363 391 1709 391 
Q 2188 391 2477 730 
Q 2766 1069 2766 1631 
L 2766 1759 
L 2194 1759 
z
M 3341 1997 
L 3341 0 
L 2766 0 
L 2766 531 
Q 2569 213 2275 61 
Q 1981 -91 1556 -91 
Q 1019 -91 701 211 
Q 384 513 384 1019 
Q 384 1609 779 1909 
Q 1175 2209 1959 2209 
L 2766 2209 
L 2766 2266 
Q 2766 2663 2505 2880 
Q 2244 3097 1772 3097 
Q 1472 3097 1187 3025 
Q 903 2953 641 2809 
L 641 3341 
Q 956 3463 1253 3523 
Q 1550 3584 1831 3584 
Q 2591 3584 2966 3190 
Q 3341 2797 3341 1997 
z
" id="DejaVuSans-61" transform="scale(0.015625)"/>
      <path d="M 1159 525 
L 1159 -1331 
L 581 -1331 
L 581 3500 
L 1159 3500 
L 1159 2969 
Q 1341 3281 1617 3432 
Q 1894 3584 2278 3584 
Q 2916 3584 3314 3078 
Q 3713 2572 3713 1747 
Q 3713 922 3314 415 
Q 2916 -91 2278 -91 
Q 1894 -91 1617 61 
Q 1341 213 1159 525 
z
M 3116 1747 
Q 3116 2381 2855 2742 
Q 2594 3103 2138 3103 
Q 1681 3103 1420 2742 
Q 1159 2381 1159 1747 
Q 1159 1113 1420 752 
Q 1681 391 2138 391 
Q 2594 391 2855 752 
Q 3116 1113 3116 1747 
z
" id="DejaVuSans-70" transform="scale(0.015625)"/>
      <path d="M 603 4863 
L 1178 4863 
L 1178 0 
L 603 0 
L 603 4863 
z
" id="DejaVuSans-6c" transform="scale(0.015625)"/>
      <path d="M 1259 4147 
L 1259 519 
L 2022 519 
Q 2988 519 3436 956 
Q 3884 1394 3884 2338 
Q 3884 3275 3436 3711 
Q 2988 4147 2022 4147 
L 1259 4147 
z
M 628 4666 
L 1925 4666 
Q 3281 4666 3915 4102 
Q 4550 3538 4550 2338 
Q 4550 1131 3912 565 
Q 3275 0 1925 0 
L 628 0 
L 628 4666 
z
" id="DejaVuSans-44" transform="scale(0.015625)"/>
      <path d="M 1259 2228 
L 1259 519 
L 2272 519 
Q 2781 519 3026 730 
Q 3272 941 3272 1375 
Q 3272 1813 3026 2020 
Q 2781 2228 2272 2228 
L 1259 2228 
z
M 1259 4147 
L 1259 2741 
L 2194 2741 
Q 2656 2741 2882 2914 
Q 3109 3088 3109 3444 
Q 3109 3797 2882 3972 
Q 2656 4147 2194 4147 
L 1259 4147 
z
M 628 4666 
L 2241 4666 
Q 2963 4666 3353 4366 
Q 3744 4066 3744 3513 
Q 3744 3084 3544 2831 
Q 3344 2578 2956 2516 
Q 3422 2416 3680 2098 
Q 3938 1781 3938 1306 
Q 3938 681 3513 340 
Q 3088 0 2303 0 
L 628 0 
L 628 4666 
z
" id="DejaVuSans-42" transform="scale(0.015625)"/>
      <path d="M 378 4666 
L 4325 4666 
L 4225 4134 
L 2559 4134 
L 1759 0 
L 1125 0 
L 1925 4134 
L 275 4134 
L 378 4666 
z
" id="DejaVuSans-Oblique-54" transform="scale(0.015625)"/>
      <path d="M 678 2906 
L 4684 2906 
L 4684 2381 
L 678 2381 
L 678 2906 
z
M 678 1631 
L 4684 1631 
L 4684 1100 
L 678 1100 
L 678 1631 
z
" id="DejaVuSans-3d" transform="scale(0.015625)"/>
      <path d="M 628 4666 
L 1259 4666 
L 1259 2694 
L 3353 4666 
L 4166 4666 
L 1850 2491 
L 4331 0 
L 3500 0 
L 1259 2247 
L 1259 0 
L 628 0 
L 628 4666 
z
" id="DejaVuSans-4b" transform="scale(0.015625)"/>
     </defs>
     <use transform="translate(0 0.015625)" xlink:href="#DejaVuSans-4c"/>
     <use transform="translate(55.712891 0.015625)" xlink:href="#DejaVuSans-6f"/>
     <use transform="translate(116.894531 0.015625)" xlink:href="#DejaVuSans-6e"/>
     <use transform="translate(180.273438 0.015625)" xlink:href="#DejaVuSans-67"/>
     <use transform="translate(243.75 0.015625)" xlink:href="#DejaVuSans-2e"/>
     <use transform="translate(275.537109 0.015625)" xlink:href="#DejaVuSans-20"/>
     <use transform="translate(307.324219 0.015625)" xlink:href="#DejaVuSans-52"/>
     <use transform="translate(376.806641 0.015625)" xlink:href="#DejaVuSans-65"/>
     <use transform="translate(438.330078 0.015625)" xlink:href="#DejaVuSans-73"/>
     <use transform="translate(490.429688 0.015625)" xlink:href="#DejaVuSans-69"/>
     <use transform="translate(518.212891 0.015625)" xlink:href="#DejaVuSans-73"/>
     <use transform="translate(570.3125 0.015625)" xlink:href="#DejaVuSans-74"/>
     <use transform="translate(609.521484 0.015625)" xlink:href="#DejaVuSans-69"/>
     <use transform="translate(637.304688 0.015625)" xlink:href="#DejaVuSans-76"/>
     <use transform="translate(696.484375 0.015625)" xlink:href="#DejaVuSans-69"/>
     <use transform="translate(724.267578 0.015625)" xlink:href="#DejaVuSans-74"/>
     <use transform="translate(763.476562 0.015625)" xlink:href="#DejaVuSans-79"/>
     <use transform="translate(822.65625 0.015625)" xlink:href="#DejaVuSans-20"/>
     <use transform="translate(854.443359 0.015625)" xlink:href="#DejaVuSans-66"/>
     <use transform="translate(889.648438 0.015625)" xlink:href="#DejaVuSans-6f"/>
     <use transform="translate(950.830078 0.015625)" xlink:href="#DejaVuSans-72"/>
     <use transform="translate(991.943359 0.015625)" xlink:href="#DejaVuSans-20"/>
     <use transform="translate(1023.730469 0.015625)" xlink:href="#DejaVuSans-64"/>
     <use transform="translate(1087.207031 0.015625)" xlink:href="#DejaVuSans-69"/>
     <use transform="translate(1114.990234 0.015625)" xlink:href="#DejaVuSans-66"/>
     <use transform="translate(1150.195312 0.015625)" xlink:href="#DejaVuSans-66"/>
     <use transform="translate(1185.400391 0.015625)" xlink:href="#DejaVuSans-65"/>
     <use transform="translate(1246.923828 0.015625)" xlink:href="#DejaVuSans-72"/>
     <use transform="translate(1288.037109 0.015625)" xlink:href="#DejaVuSans-65"/>
     <use transform="translate(1349.560547 0.015625)" xlink:href="#DejaVuSans-6e"/>
     <use transform="translate(1412.939453 0.015625)" xlink:href="#DejaVuSans-74"/>
     <use transform="translate(1452.148438 0.015625)" xlink:href="#DejaVuSans-20"/>
     <use transform="translate(1483.935547 0.015625)" xlink:href="#DejaVuSans-Oblique-56"/>
     <use transform="translate(1552.34375 -16.390625)scale(0.7)" xlink:href="#DejaVuSans-67"/>
     <use transform="translate(1599.511719 0.015625)" xlink:href="#DejaVuSans-2c"/>
     <use transform="translate(1631.298828 0.015625)" xlink:href="#DejaVuSans-20"/>
     <use transform="translate(1663.085938 0.015625)" xlink:href="#DejaVuSans-53"/>
     <use transform="translate(1726.5625 0.015625)" xlink:href="#DejaVuSans-61"/>
     <use transform="translate(1787.841797 0.015625)" xlink:href="#DejaVuSans-6d"/>
     <use transform="translate(1885.253906 0.015625)" xlink:href="#DejaVuSans-70"/>
     <use transform="translate(1948.730469 0.015625)" xlink:href="#DejaVuSans-6c"/>
     <use transform="translate(1976.513672 0.015625)" xlink:href="#DejaVuSans-65"/>
     <use transform="translate(2038.037109 0.015625)" xlink:href="#DejaVuSans-20"/>
     <use transform="translate(2069.824219 0.015625)" xlink:href="#DejaVuSans-44"/>
     <use transform="translate(2146.826172 0.015625)" xlink:href="#DejaVuSans-32"/>
     <use transform="translate(2210.449219 0.015625)" xlink:href="#DejaVuSans-33"/>
     <use transform="translate(2274.072266 0.015625)" xlink:href="#DejaVuSans-30"/>
     <use transform="translate(2337.695312 0.015625)" xlink:href="#DejaVuSans-38"/>
     <use transform="translate(2401.318359 0.015625)" xlink:href="#DejaVuSans-33"/>
     <use transform="translate(2464.941406 0.015625)" xlink:href="#DejaVuSans-31"/>
     <use transform="translate(2528.564453 0.015625)" xlink:href="#DejaVuSans-42"/>
     <use transform="translate(2597.167969 0.015625)" xlink:href="#DejaVuSans-2c"/>
     <use transform="translate(2628.955078 0.015625)" xlink:href="#DejaVuSans-20"/>
     <use transform="translate(2660.742188 0.015625)" xlink:href="#DejaVuSans-Oblique-54"/>
     <use transform="translate(2721.826172 0.015625)" xlink:href="#DejaVuSans-3d"/>
     <use transform="translate(2805.615234 0.015625)" xlink:href="#DejaVuSans-20"/>
     <use transform="translate(2837.402344 0.015625)" xlink:href="#DejaVuSans-31"/>
     <use transform="translate(2901.025391 0.015625)" xlink:href="#DejaVuSans-35"/>
     <use transform="translate(2964.648438 0.015625)" xlink:href="#DejaVuSans-20"/>
     <use transform="translate(2996.435547 0.015625)" xlink:href="#DejaVuSans-6d"/>
     <use transform="translate(3093.847656 0.015625)" xlink:href="#DejaVuSans-4b"/>
    </g>
   </g>
   <g id="legend_1">
    <g id="patch_7">
     <path d="M 78.73 137.986587 
L 169.53 137.986587 
Q 171.53 137.986587 171.53 135.986587 
L 171.53 58.4944 
Q 171.53 56.4944 169.53 56.4944 
L 78.73 56.4944 
Q 76.73 56.4944 76.73 58.4944 
L 76.73 135.986587 
Q 76.73 137.986587 78.73 137.986587 
z
" style="fill:#ffffff;opacity:0.8;stroke:#cccccc;stroke-linejoin:miter;"/>
    </g>
    <g id="line2d_40">
     <path d="M 80.73 64.592837 
L 100.73 64.592837 
" style="fill:none;stroke:#1f77b4;stroke-linecap:square;stroke-width:1.5;"/>
    </g>
    <g id="line2d_41"/>
    <g id="text_21">
     <!-- $V_\mathrm{g}$=   0mV -->
     <g transform="translate(108.73 68.092837)scale(0.1 -0.1)">
      <defs>
       <path d="M 1831 0 
L 50 4666 
L 709 4666 
L 2188 738 
L 3669 4666 
L 4325 4666 
L 2547 0 
L 1831 0 
z
" id="DejaVuSans-56" transform="scale(0.015625)"/>
      </defs>
      <use transform="translate(0 0.78125)" xlink:href="#DejaVuSans-Oblique-56"/>
      <use transform="translate(68.408203 -15.625)scale(0.7)" xlink:href="#DejaVuSans-67"/>
      <use transform="translate(115.576172 0.78125)" xlink:href="#DejaVuSans-3d"/>
      <use transform="translate(199.365234 0.78125)" xlink:href="#DejaVuSans-20"/>
      <use transform="translate(231.152344 0.78125)" xlink:href="#DejaVuSans-20"/>
      <use transform="translate(262.939453 0.78125)" xlink:href="#DejaVuSans-20"/>
      <use transform="translate(294.726562 0.78125)" xlink:href="#DejaVuSans-30"/>
      <use transform="translate(358.349609 0.78125)" xlink:href="#DejaVuSans-6d"/>
      <use transform="translate(455.761719 0.78125)" xlink:href="#DejaVuSans-56"/>
     </g>
    </g>
    <g id="line2d_42">
     <path d="M 80.73 80.291275 
L 100.73 80.291275 
" style="fill:none;stroke:#ff7f0e;stroke-linecap:square;stroke-width:1.5;"/>
    </g>
    <g id="line2d_43"/>
    <g id="text_22">
     <!-- $V_\mathrm{g}$= 100mV -->
     <g transform="translate(108.73 83.791275)scale(0.1 -0.1)">
      <use transform="translate(0 0.78125)" xlink:href="#DejaVuSans-Oblique-56"/>
      <use transform="translate(68.408203 -15.625)scale(0.7)" xlink:href="#DejaVuSans-67"/>
      <use transform="translate(115.576172 0.78125)" xlink:href="#DejaVuSans-3d"/>
      <use transform="translate(199.365234 0.78125)" xlink:href="#DejaVuSans-20"/>
      <use transform="translate(231.152344 0.78125)" xlink:href="#DejaVuSans-31"/>
      <use transform="translate(294.775391 0.78125)" xlink:href="#DejaVuSans-30"/>
      <use transform="translate(358.398438 0.78125)" xlink:href="#DejaVuSans-30"/>
      <use transform="translate(422.021484 0.78125)" xlink:href="#DejaVuSans-6d"/>
      <use transform="translate(519.433594 0.78125)" xlink:href="#DejaVuSans-56"/>
     </g>
    </g>
    <g id="line2d_44">
     <path d="M 80.73 95.989712 
L 100.73 95.989712 
" style="fill:none;stroke:#2ca02c;stroke-linecap:square;stroke-width:1.5;"/>
    </g>
    <g id="line2d_45"/>
    <g id="text_23">
     <!-- $V_\mathrm{g}$= 150mV -->
     <g transform="translate(108.73 99.489712)scale(0.1 -0.1)">
      <use transform="translate(0 0.78125)" xlink:href="#DejaVuSans-Oblique-56"/>
      <use transform="translate(68.408203 -15.625)scale(0.7)" xlink:href="#DejaVuSans-67"/>
      <use transform="translate(115.576172 0.78125)" xlink:href="#DejaVuSans-3d"/>
      <use transform="translate(199.365234 0.78125)" xlink:href="#DejaVuSans-20"/>
      <use transform="translate(231.152344 0.78125)" xlink:href="#DejaVuSans-31"/>
      <use transform="translate(294.775391 0.78125)" xlink:href="#DejaVuSans-35"/>
      <use transform="translate(358.398438 0.78125)" xlink:href="#DejaVuSans-30"/>
      <use transform="translate(422.021484 0.78125)" xlink:href="#DejaVuSans-6d"/>
      <use transform="translate(519.433594 0.78125)" xlink:href="#DejaVuSans-56"/>
     </g>
    </g>
    <g id="line2d_46">
     <path d="M 80.73 111.68815 
L 100.73 111.68815 
" style="fill:none;stroke:#d62728;stroke-linecap:square;stroke-width:1.5;"/>
    </g>
    <g id="line2d_47"/>
    <g id="text_24">
     <!-- $V_\mathrm{g}$= 450mV -->
     <g transform="translate(108.73 115.18815)scale(0.1 -0.1)">
      <use transform="translate(0 0.78125)" xlink:href="#DejaVuSans-Oblique-56"/>
      <use transform="translate(68.408203 -15.625)scale(0.7)" xlink:href="#DejaVuSans-67"/>
      <use transform="translate(115.576172 0.78125)" xlink:href="#DejaVuSans-3d"/>
      <use transform="translate(199.365234 0.78125)" xlink:href="#DejaVuSans-20"/>
      <use transform="translate(231.152344 0.78125)" xlink:href="#DejaVuSans-34"/>
      <use transform="translate(294.775391 0.78125)" xlink:href="#DejaVuSans-35"/>
      <use transform="translate(358.398438 0.78125)" xlink:href="#DejaVuSans-30"/>
      <use transform="translate(422.021484 0.78125)" xlink:href="#DejaVuSans-6d"/>
      <use transform="translate(519.433594 0.78125)" xlink:href="#DejaVuSans-56"/>
     </g>
    </g>
    <g id="line2d_48">
     <path d="M 80.73 127.386587 
L 100.73 127.386587 
" style="fill:none;stroke:#9467bd;stroke-linecap:square;stroke-width:1.5;"/>
    </g>
    <g id="line2d_49"/>
    <g id="text_25">
     <!-- $V_\mathrm{g}$= 500mV -->
     <g transform="translate(108.73 130.886587)scale(0.1 -0.1)">
      <use transform="translate(0 0.78125)" xlink:href="#DejaVuSans-Oblique-56"/>
      <use transform="translate(68.408203 -15.625)scale(0.7)" xlink:href="#DejaVuSans-67"/>
      <use transform="translate(115.576172 0.78125)" xlink:href="#DejaVuSans-3d"/>
      <use transform="translate(199.365234 0.78125)" xlink:href="#DejaVuSans-20"/>
      <use transform="translate(231.152344 0.78125)" xlink:href="#DejaVuSans-35"/>
      <use transform="translate(294.775391 0.78125)" xlink:href="#DejaVuSans-30"/>
      <use transform="translate(358.398438 0.78125)" xlink:href="#DejaVuSans-30"/>
      <use transform="translate(422.021484 0.78125)" xlink:href="#DejaVuSans-6d"/>
      <use transform="translate(519.433594 0.78125)" xlink:href="#DejaVuSans-56"/>
     </g>
    </g>
   </g>
  </g>
 </g>
 <defs>
  <clipPath id="p11e943d197">
   <rect height="330.4224" width="444.726" x="71.73" y="51.4944"/>
  </clipPath>
 </defs>
</svg>
