<?xml version="1.0" encoding="utf-8" standalone="no"?>
<!DOCTYPE svg PUBLIC "-//W3C//DTD SVG 1.1//EN"
  "http://www.w3.org/Graphics/SVG/1.1/DTD/svg11.dtd">
<svg height="432.72pt" version="1.1" viewBox="0 0 547.2 432.72" width="547.2pt" xmlns="http://www.w3.org/2000/svg" xmlns:xlink="http://www.w3.org/1999/xlink">
 <metadata>
  <rdf:RDF xmlns:cc="http://creativecommons.org/ns#" xmlns:dc="http://purl.org/dc/elements/1.1/" xmlns:rdf="http://www.w3.org/1999/02/22-rdf-syntax-ns#">
   <cc:Work>
    <dc:type rdf:resource="http://purl.org/dc/dcmitype/StillImage"/>
    <dc:date>2023-10-27T10:49:49.173913</dc:date>
    <dc:format>image/svg+xml</dc:format>
    <dc:creator>
     <cc:Agent>
      <dc:title>Matplotlib v3.4.3, https://matplotlib.org/</dc:title>
     </cc:Agent>
    </dc:creator>
   </cc:Work>
  </rdf:RDF>
 </metadata>
 <defs>
  <style type="text/css">*{stroke-linecap:butt;stroke-linejoin:round;}</style>
 </defs>
 <g id="figure_1">
  <g id="patch_1">
   <path d="M 0 432.72 
L 547.2 432.72 
L 547.2 0 
L 0 0 
z
" style="fill:#ffffff;"/>
  </g>
  <g id="axes_1">
   <g id="patch_2">
    <path d="M 68.4 385.1208 
L 492.48 385.1208 
L 492.48 51.9264 
L 68.4 51.9264 
z
" style="fill:#ffffff;"/>
   </g>
   <g id="matplotlib.axis_1">
    <g id="xtick_1">
     <g id="line2d_1">
      <path clip-path="url(#pcedd1a81b9)" d="M 68.4 385.1208 
L 68.4 51.9264 
" style="fill:none;stroke:#b0b0b0;stroke-linecap:square;stroke-width:0.8;"/>
     </g>
     <g id="line2d_2">
      <defs>
       <path d="M 0 0 
L 0 3.5 
" id="mdc87dcb3a0" style="stroke:#000000;stroke-width:0.8;"/>
      </defs>
      <g>
       <use style="stroke:#000000;stroke-width:0.8;" x="68.4" xlink:href="#mdc87dcb3a0" y="385.1208"/>
      </g>
     </g>
     <g id="text_1">
      <!-- 1.0 -->
      <g transform="translate(60.448437 399.719237)scale(0.1 -0.1)">
       <defs>
        <path d="M 794 531 
L 1825 531 
L 1825 4091 
L 703 3866 
L 703 4441 
L 1819 4666 
L 2450 4666 
L 2450 531 
L 3481 531 
L 3481 0 
L 794 0 
L 794 531 
z
" id="DejaVuSans-31" transform="scale(0.015625)"/>
        <path d="M 684 794 
L 1344 794 
L 1344 0 
L 684 0 
L 684 794 
z
" id="DejaVuSans-2e" transform="scale(0.015625)"/>
        <path d="M 2034 4250 
Q 1547 4250 1301 3770 
Q 1056 3291 1056 2328 
Q 1056 1369 1301 889 
Q 1547 409 2034 409 
Q 2525 409 2770 889 
Q 3016 1369 3016 2328 
Q 3016 3291 2770 3770 
Q 2525 4250 2034 4250 
z
M 2034 4750 
Q 2819 4750 3233 4129 
Q 3647 3509 3647 2328 
Q 3647 1150 3233 529 
Q 2819 -91 2034 -91 
Q 1250 -91 836 529 
Q 422 1150 422 2328 
Q 422 3509 836 4129 
Q 1250 4750 2034 4750 
z
" id="DejaVuSans-30" transform="scale(0.015625)"/>
       </defs>
       <use xlink:href="#DejaVuSans-31"/>
       <use x="63.623047" xlink:href="#DejaVuSans-2e"/>
       <use x="95.410156" xlink:href="#DejaVuSans-30"/>
      </g>
     </g>
    </g>
    <g id="xtick_2">
     <g id="line2d_3">
      <path clip-path="url(#pcedd1a81b9)" d="M 121.41 385.1208 
L 121.41 51.9264 
" style="fill:none;stroke:#b0b0b0;stroke-linecap:square;stroke-width:0.8;"/>
     </g>
     <g id="line2d_4">
      <g>
       <use style="stroke:#000000;stroke-width:0.8;" x="121.41" xlink:href="#mdc87dcb3a0" y="385.1208"/>
      </g>
     </g>
     <g id="text_2">
      <!-- 1.5 -->
      <g transform="translate(113.458438 399.719237)scale(0.1 -0.1)">
       <defs>
        <path d="M 691 4666 
L 3169 4666 
L 3169 4134 
L 1269 4134 
L 1269 2991 
Q 1406 3038 1543 3061 
Q 1681 3084 1819 3084 
Q 2600 3084 3056 2656 
Q 3513 2228 3513 1497 
Q 3513 744 3044 326 
Q 2575 -91 1722 -91 
Q 1428 -91 1123 -41 
Q 819 9 494 109 
L 494 744 
Q 775 591 1075 516 
Q 1375 441 1709 441 
Q 2250 441 2565 725 
Q 2881 1009 2881 1497 
Q 2881 1984 2565 2268 
Q 2250 2553 1709 2553 
Q 1456 2553 1204 2497 
Q 953 2441 691 2322 
L 691 4666 
z
" id="DejaVuSans-35" transform="scale(0.015625)"/>
       </defs>
       <use xlink:href="#DejaVuSans-31"/>
       <use x="63.623047" xlink:href="#DejaVuSans-2e"/>
       <use x="95.410156" xlink:href="#DejaVuSans-35"/>
      </g>
     </g>
    </g>
    <g id="xtick_3">
     <g id="line2d_5">
      <path clip-path="url(#pcedd1a81b9)" d="M 174.42 385.1208 
L 174.42 51.9264 
" style="fill:none;stroke:#b0b0b0;stroke-linecap:square;stroke-width:0.8;"/>
     </g>
     <g id="line2d_6">
      <g>
       <use style="stroke:#000000;stroke-width:0.8;" x="174.42" xlink:href="#mdc87dcb3a0" y="385.1208"/>
      </g>
     </g>
     <g id="text_3">
      <!-- 2.0 -->
      <g transform="translate(166.468437 399.719237)scale(0.1 -0.1)">
       <defs>
        <path d="M 1228 531 
L 3431 531 
L 3431 0 
L 469 0 
L 469 531 
Q 828 903 1448 1529 
Q 2069 2156 2228 2338 
Q 2531 2678 2651 2914 
Q 2772 3150 2772 3378 
Q 2772 3750 2511 3984 
Q 2250 4219 1831 4219 
Q 1534 4219 1204 4116 
Q 875 4013 500 3803 
L 500 4441 
Q 881 4594 1212 4672 
Q 1544 4750 1819 4750 
Q 2544 4750 2975 4387 
Q 3406 4025 3406 3419 
Q 3406 3131 3298 2873 
Q 3191 2616 2906 2266 
Q 2828 2175 2409 1742 
Q 1991 1309 1228 531 
z
" id="DejaVuSans-32" transform="scale(0.015625)"/>
       </defs>
       <use xlink:href="#DejaVuSans-32"/>
       <use x="63.623047" xlink:href="#DejaVuSans-2e"/>
       <use x="95.410156" xlink:href="#DejaVuSans-30"/>
      </g>
     </g>
    </g>
    <g id="xtick_4">
     <g id="line2d_7">
      <path clip-path="url(#pcedd1a81b9)" d="M 227.43 385.1208 
L 227.43 51.9264 
" style="fill:none;stroke:#b0b0b0;stroke-linecap:square;stroke-width:0.8;"/>
     </g>
     <g id="line2d_8">
      <g>
       <use style="stroke:#000000;stroke-width:0.8;" x="227.43" xlink:href="#mdc87dcb3a0" y="385.1208"/>
      </g>
     </g>
     <g id="text_4">
      <!-- 2.5 -->
      <g transform="translate(219.478438 399.719237)scale(0.1 -0.1)">
       <use xlink:href="#DejaVuSans-32"/>
       <use x="63.623047" xlink:href="#DejaVuSans-2e"/>
       <use x="95.410156" xlink:href="#DejaVuSans-35"/>
      </g>
     </g>
    </g>
    <g id="xtick_5">
     <g id="line2d_9">
      <path clip-path="url(#pcedd1a81b9)" d="M 280.44 385.1208 
L 280.44 51.9264 
" style="fill:none;stroke:#b0b0b0;stroke-linecap:square;stroke-width:0.8;"/>
     </g>
     <g id="line2d_10">
      <g>
       <use style="stroke:#000000;stroke-width:0.8;" x="280.44" xlink:href="#mdc87dcb3a0" y="385.1208"/>
      </g>
     </g>
     <g id="text_5">
      <!-- 3.0 -->
      <g transform="translate(272.488437 399.719237)scale(0.1 -0.1)">
       <defs>
        <path d="M 2597 2516 
Q 3050 2419 3304 2112 
Q 3559 1806 3559 1356 
Q 3559 666 3084 287 
Q 2609 -91 1734 -91 
Q 1441 -91 1130 -33 
Q 819 25 488 141 
L 488 750 
Q 750 597 1062 519 
Q 1375 441 1716 441 
Q 2309 441 2620 675 
Q 2931 909 2931 1356 
Q 2931 1769 2642 2001 
Q 2353 2234 1838 2234 
L 1294 2234 
L 1294 2753 
L 1863 2753 
Q 2328 2753 2575 2939 
Q 2822 3125 2822 3475 
Q 2822 3834 2567 4026 
Q 2313 4219 1838 4219 
Q 1578 4219 1281 4162 
Q 984 4106 628 3988 
L 628 4550 
Q 988 4650 1302 4700 
Q 1616 4750 1894 4750 
Q 2613 4750 3031 4423 
Q 3450 4097 3450 3541 
Q 3450 3153 3228 2886 
Q 3006 2619 2597 2516 
z
" id="DejaVuSans-33" transform="scale(0.015625)"/>
       </defs>
       <use xlink:href="#DejaVuSans-33"/>
       <use x="63.623047" xlink:href="#DejaVuSans-2e"/>
       <use x="95.410156" xlink:href="#DejaVuSans-30"/>
      </g>
     </g>
    </g>
    <g id="xtick_6">
     <g id="line2d_11">
      <path clip-path="url(#pcedd1a81b9)" d="M 333.45 385.1208 
L 333.45 51.9264 
" style="fill:none;stroke:#b0b0b0;stroke-linecap:square;stroke-width:0.8;"/>
     </g>
     <g id="line2d_12">
      <g>
       <use style="stroke:#000000;stroke-width:0.8;" x="333.45" xlink:href="#mdc87dcb3a0" y="385.1208"/>
      </g>
     </g>
     <g id="text_6">
      <!-- 3.5 -->
      <g transform="translate(325.498437 399.719237)scale(0.1 -0.1)">
       <use xlink:href="#DejaVuSans-33"/>
       <use x="63.623047" xlink:href="#DejaVuSans-2e"/>
       <use x="95.410156" xlink:href="#DejaVuSans-35"/>
      </g>
     </g>
    </g>
    <g id="xtick_7">
     <g id="line2d_13">
      <path clip-path="url(#pcedd1a81b9)" d="M 386.46 385.1208 
L 386.46 51.9264 
" style="fill:none;stroke:#b0b0b0;stroke-linecap:square;stroke-width:0.8;"/>
     </g>
     <g id="line2d_14">
      <g>
       <use style="stroke:#000000;stroke-width:0.8;" x="386.46" xlink:href="#mdc87dcb3a0" y="385.1208"/>
      </g>
     </g>
     <g id="text_7">
      <!-- 4.0 -->
      <g transform="translate(378.508437 399.719237)scale(0.1 -0.1)">
       <defs>
        <path d="M 2419 4116 
L 825 1625 
L 2419 1625 
L 2419 4116 
z
M 2253 4666 
L 3047 4666 
L 3047 1625 
L 3713 1625 
L 3713 1100 
L 3047 1100 
L 3047 0 
L 2419 0 
L 2419 1100 
L 313 1100 
L 313 1709 
L 2253 4666 
z
" id="DejaVuSans-34" transform="scale(0.015625)"/>
       </defs>
       <use xlink:href="#DejaVuSans-34"/>
       <use x="63.623047" xlink:href="#DejaVuSans-2e"/>
       <use x="95.410156" xlink:href="#DejaVuSans-30"/>
      </g>
     </g>
    </g>
    <g id="xtick_8">
     <g id="line2d_15">
      <path clip-path="url(#pcedd1a81b9)" d="M 439.47 385.1208 
L 439.47 51.9264 
" style="fill:none;stroke:#b0b0b0;stroke-linecap:square;stroke-width:0.8;"/>
     </g>
     <g id="line2d_16">
      <g>
       <use style="stroke:#000000;stroke-width:0.8;" x="439.47" xlink:href="#mdc87dcb3a0" y="385.1208"/>
      </g>
     </g>
     <g id="text_8">
      <!-- 4.5 -->
      <g transform="translate(431.518437 399.719237)scale(0.1 -0.1)">
       <use xlink:href="#DejaVuSans-34"/>
       <use x="63.623047" xlink:href="#DejaVuSans-2e"/>
       <use x="95.410156" xlink:href="#DejaVuSans-35"/>
      </g>
     </g>
    </g>
    <g id="xtick_9">
     <g id="line2d_17">
      <path clip-path="url(#pcedd1a81b9)" d="M 492.48 385.1208 
L 492.48 51.9264 
" style="fill:none;stroke:#b0b0b0;stroke-linecap:square;stroke-width:0.8;"/>
     </g>
     <g id="line2d_18">
      <g>
       <use style="stroke:#000000;stroke-width:0.8;" x="492.48" xlink:href="#mdc87dcb3a0" y="385.1208"/>
      </g>
     </g>
     <g id="text_9">
      <!-- 5.0 -->
      <g transform="translate(484.528437 399.719237)scale(0.1 -0.1)">
       <use xlink:href="#DejaVuSans-35"/>
       <use x="63.623047" xlink:href="#DejaVuSans-2e"/>
       <use x="95.410156" xlink:href="#DejaVuSans-30"/>
      </g>
     </g>
    </g>
    <g id="text_10">
     <!-- $B$ (T) -->
     <g transform="translate(268.44 413.397362)scale(0.1 -0.1)">
      <defs>
       <path d="M 1081 4666 
L 2694 4666 
Q 3350 4666 3675 4422 
Q 4000 4178 4000 3688 
Q 4000 3238 3720 2911 
Q 3441 2584 2988 2516 
Q 3375 2428 3569 2181 
Q 3763 1934 3763 1522 
Q 3763 819 3242 409 
Q 2722 0 1819 0 
L 172 0 
L 1081 4666 
z
M 1234 2228 
L 903 519 
L 1919 519 
Q 2491 519 2800 781 
Q 3109 1044 3109 1522 
Q 3109 1891 2904 2059 
Q 2700 2228 2247 2228 
L 1234 2228 
z
M 1606 4147 
L 1331 2741 
L 2272 2741 
Q 2775 2741 3058 2959 
Q 3341 3178 3341 3566 
Q 3341 3869 3150 4008 
Q 2959 4147 2541 4147 
L 1606 4147 
z
" id="DejaVuSans-Oblique-42" transform="scale(0.015625)"/>
       <path id="DejaVuSans-20" transform="scale(0.015625)"/>
       <path d="M 1984 4856 
Q 1566 4138 1362 3434 
Q 1159 2731 1159 2009 
Q 1159 1288 1364 580 
Q 1569 -128 1984 -844 
L 1484 -844 
Q 1016 -109 783 600 
Q 550 1309 550 2009 
Q 550 2706 781 3412 
Q 1013 4119 1484 4856 
L 1984 4856 
z
" id="DejaVuSans-28" transform="scale(0.015625)"/>
       <path d="M -19 4666 
L 3928 4666 
L 3928 4134 
L 2272 4134 
L 2272 0 
L 1638 0 
L 1638 4134 
L -19 4134 
L -19 4666 
z
" id="DejaVuSans-54" transform="scale(0.015625)"/>
       <path d="M 513 4856 
L 1013 4856 
Q 1481 4119 1714 3412 
Q 1947 2706 1947 2009 
Q 1947 1309 1714 600 
Q 1481 -109 1013 -844 
L 513 -844 
Q 928 -128 1133 580 
Q 1338 1288 1338 2009 
Q 1338 2731 1133 3434 
Q 928 4138 513 4856 
z
" id="DejaVuSans-29" transform="scale(0.015625)"/>
      </defs>
      <use transform="translate(0 0.125)" xlink:href="#DejaVuSans-Oblique-42"/>
      <use transform="translate(68.603516 0.125)" xlink:href="#DejaVuSans-20"/>
      <use transform="translate(100.390625 0.125)" xlink:href="#DejaVuSans-28"/>
      <use transform="translate(139.404297 0.125)" xlink:href="#DejaVuSans-54"/>
      <use transform="translate(200.488281 0.125)" xlink:href="#DejaVuSans-29"/>
     </g>
    </g>
   </g>
   <g id="matplotlib.axis_2">
    <g id="ytick_1">
     <g id="line2d_19">
      <path clip-path="url(#pcedd1a81b9)" d="M 68.4 382.577331 
L 492.48 382.577331 
" style="fill:none;stroke:#b0b0b0;stroke-linecap:square;stroke-width:0.8;"/>
     </g>
     <g id="line2d_20">
      <defs>
       <path d="M 0 0 
L -3.5 0 
" id="m1071edd989" style="stroke:#000000;stroke-width:0.8;"/>
      </defs>
      <g>
       <use style="stroke:#000000;stroke-width:0.8;" x="68.4" xlink:href="#m1071edd989" y="382.577331"/>
      </g>
     </g>
     <g id="text_11">
      <!-- 0.0 -->
      <g transform="translate(45.496875 386.37655)scale(0.1 -0.1)">
       <use xlink:href="#DejaVuSans-30"/>
       <use x="63.623047" xlink:href="#DejaVuSans-2e"/>
       <use x="95.410156" xlink:href="#DejaVuSans-30"/>
      </g>
     </g>
    </g>
    <g id="ytick_2">
     <g id="line2d_21">
      <path clip-path="url(#pcedd1a81b9)" d="M 68.4 331.707957 
L 492.48 331.707957 
" style="fill:none;stroke:#b0b0b0;stroke-linecap:square;stroke-width:0.8;"/>
     </g>
     <g id="line2d_22">
      <g>
       <use style="stroke:#000000;stroke-width:0.8;" x="68.4" xlink:href="#m1071edd989" y="331.707957"/>
      </g>
     </g>
     <g id="text_12">
      <!-- 0.2 -->
      <g transform="translate(45.496875 335.507176)scale(0.1 -0.1)">
       <use xlink:href="#DejaVuSans-30"/>
       <use x="63.623047" xlink:href="#DejaVuSans-2e"/>
       <use x="95.410156" xlink:href="#DejaVuSans-32"/>
      </g>
     </g>
    </g>
    <g id="ytick_3">
     <g id="line2d_23">
      <path clip-path="url(#pcedd1a81b9)" d="M 68.4 280.838583 
L 492.48 280.838583 
" style="fill:none;stroke:#b0b0b0;stroke-linecap:square;stroke-width:0.8;"/>
     </g>
     <g id="line2d_24">
      <g>
       <use style="stroke:#000000;stroke-width:0.8;" x="68.4" xlink:href="#m1071edd989" y="280.838583"/>
      </g>
     </g>
     <g id="text_13">
      <!-- 0.4 -->
      <g transform="translate(45.496875 284.637802)scale(0.1 -0.1)">
       <use xlink:href="#DejaVuSans-30"/>
       <use x="63.623047" xlink:href="#DejaVuSans-2e"/>
       <use x="95.410156" xlink:href="#DejaVuSans-34"/>
      </g>
     </g>
    </g>
    <g id="ytick_4">
     <g id="line2d_25">
      <path clip-path="url(#pcedd1a81b9)" d="M 68.4 229.969209 
L 492.48 229.969209 
" style="fill:none;stroke:#b0b0b0;stroke-linecap:square;stroke-width:0.8;"/>
     </g>
     <g id="line2d_26">
      <g>
       <use style="stroke:#000000;stroke-width:0.8;" x="68.4" xlink:href="#m1071edd989" y="229.969209"/>
      </g>
     </g>
     <g id="text_14">
      <!-- 0.6 -->
      <g transform="translate(45.496875 233.768428)scale(0.1 -0.1)">
       <defs>
        <path d="M 2113 2584 
Q 1688 2584 1439 2293 
Q 1191 2003 1191 1497 
Q 1191 994 1439 701 
Q 1688 409 2113 409 
Q 2538 409 2786 701 
Q 3034 994 3034 1497 
Q 3034 2003 2786 2293 
Q 2538 2584 2113 2584 
z
M 3366 4563 
L 3366 3988 
Q 3128 4100 2886 4159 
Q 2644 4219 2406 4219 
Q 1781 4219 1451 3797 
Q 1122 3375 1075 2522 
Q 1259 2794 1537 2939 
Q 1816 3084 2150 3084 
Q 2853 3084 3261 2657 
Q 3669 2231 3669 1497 
Q 3669 778 3244 343 
Q 2819 -91 2113 -91 
Q 1303 -91 875 529 
Q 447 1150 447 2328 
Q 447 3434 972 4092 
Q 1497 4750 2381 4750 
Q 2619 4750 2861 4703 
Q 3103 4656 3366 4563 
z
" id="DejaVuSans-36" transform="scale(0.015625)"/>
       </defs>
       <use xlink:href="#DejaVuSans-30"/>
       <use x="63.623047" xlink:href="#DejaVuSans-2e"/>
       <use x="95.410156" xlink:href="#DejaVuSans-36"/>
      </g>
     </g>
    </g>
    <g id="ytick_5">
     <g id="line2d_27">
      <path clip-path="url(#pcedd1a81b9)" d="M 68.4 179.099835 
L 492.48 179.099835 
" style="fill:none;stroke:#b0b0b0;stroke-linecap:square;stroke-width:0.8;"/>
     </g>
     <g id="line2d_28">
      <g>
       <use style="stroke:#000000;stroke-width:0.8;" x="68.4" xlink:href="#m1071edd989" y="179.099835"/>
      </g>
     </g>
     <g id="text_15">
      <!-- 0.8 -->
      <g transform="translate(45.496875 182.899054)scale(0.1 -0.1)">
       <defs>
        <path d="M 2034 2216 
Q 1584 2216 1326 1975 
Q 1069 1734 1069 1313 
Q 1069 891 1326 650 
Q 1584 409 2034 409 
Q 2484 409 2743 651 
Q 3003 894 3003 1313 
Q 3003 1734 2745 1975 
Q 2488 2216 2034 2216 
z
M 1403 2484 
Q 997 2584 770 2862 
Q 544 3141 544 3541 
Q 544 4100 942 4425 
Q 1341 4750 2034 4750 
Q 2731 4750 3128 4425 
Q 3525 4100 3525 3541 
Q 3525 3141 3298 2862 
Q 3072 2584 2669 2484 
Q 3125 2378 3379 2068 
Q 3634 1759 3634 1313 
Q 3634 634 3220 271 
Q 2806 -91 2034 -91 
Q 1263 -91 848 271 
Q 434 634 434 1313 
Q 434 1759 690 2068 
Q 947 2378 1403 2484 
z
M 1172 3481 
Q 1172 3119 1398 2916 
Q 1625 2713 2034 2713 
Q 2441 2713 2670 2916 
Q 2900 3119 2900 3481 
Q 2900 3844 2670 4047 
Q 2441 4250 2034 4250 
Q 1625 4250 1398 4047 
Q 1172 3844 1172 3481 
z
" id="DejaVuSans-38" transform="scale(0.015625)"/>
       </defs>
       <use xlink:href="#DejaVuSans-30"/>
       <use x="63.623047" xlink:href="#DejaVuSans-2e"/>
       <use x="95.410156" xlink:href="#DejaVuSans-38"/>
      </g>
     </g>
    </g>
    <g id="ytick_6">
     <g id="line2d_29">
      <path clip-path="url(#pcedd1a81b9)" d="M 68.4 128.230461 
L 492.48 128.230461 
" style="fill:none;stroke:#b0b0b0;stroke-linecap:square;stroke-width:0.8;"/>
     </g>
     <g id="line2d_30">
      <g>
       <use style="stroke:#000000;stroke-width:0.8;" x="68.4" xlink:href="#m1071edd989" y="128.230461"/>
      </g>
     </g>
     <g id="text_16">
      <!-- 1.0 -->
      <g transform="translate(45.496875 132.02968)scale(0.1 -0.1)">
       <use xlink:href="#DejaVuSans-31"/>
       <use x="63.623047" xlink:href="#DejaVuSans-2e"/>
       <use x="95.410156" xlink:href="#DejaVuSans-30"/>
      </g>
     </g>
    </g>
    <g id="ytick_7">
     <g id="line2d_31">
      <path clip-path="url(#pcedd1a81b9)" d="M 68.4 77.361087 
L 492.48 77.361087 
" style="fill:none;stroke:#b0b0b0;stroke-linecap:square;stroke-width:0.8;"/>
     </g>
     <g id="line2d_32">
      <g>
       <use style="stroke:#000000;stroke-width:0.8;" x="68.4" xlink:href="#m1071edd989" y="77.361087"/>
      </g>
     </g>
     <g id="text_17">
      <!-- 1.2 -->
      <g transform="translate(45.496875 81.160306)scale(0.1 -0.1)">
       <use xlink:href="#DejaVuSans-31"/>
       <use x="63.623047" xlink:href="#DejaVuSans-2e"/>
       <use x="95.410156" xlink:href="#DejaVuSans-32"/>
      </g>
     </g>
    </g>
    <g id="text_18">
     <!-- $\rho_\mathrm{xx}$ (m$\Omega$) -->
     <g transform="translate(39.396875 240.1736)rotate(-90)scale(0.1 -0.1)">
      <defs>
       <path d="M 1203 2875 
Q 1453 3194 1981 3475 
Q 2188 3584 2756 3584 
Q 3394 3584 3694 3078 
Q 3994 2572 3834 1747 
Q 3672 922 3175 415 
Q 2678 -91 2041 -91 
Q 1656 -91 1409 63 
Q 1163 213 1044 525 
L 681 -1331 
L 103 -1331 
L 697 1716 
Q 838 2438 1203 2875 
z
M 3238 1747 
Q 3359 2381 3169 2744 
Q 2978 3103 2522 3103 
Q 2066 3103 1734 2744 
Q 1403 2381 1281 1747 
Q 1156 1113 1347 750 
Q 1538 391 1994 391 
Q 2450 391 2781 750 
Q 3113 1113 3238 1747 
z
" id="DejaVuSans-Oblique-3c1" transform="scale(0.015625)"/>
       <path d="M 3513 3500 
L 2247 1797 
L 3578 0 
L 2900 0 
L 1881 1375 
L 863 0 
L 184 0 
L 1544 1831 
L 300 3500 
L 978 3500 
L 1906 2253 
L 2834 3500 
L 3513 3500 
z
" id="DejaVuSans-78" transform="scale(0.015625)"/>
       <path d="M 3328 2828 
Q 3544 3216 3844 3400 
Q 4144 3584 4550 3584 
Q 5097 3584 5394 3201 
Q 5691 2819 5691 2113 
L 5691 0 
L 5113 0 
L 5113 2094 
Q 5113 2597 4934 2840 
Q 4756 3084 4391 3084 
Q 3944 3084 3684 2787 
Q 3425 2491 3425 1978 
L 3425 0 
L 2847 0 
L 2847 2094 
Q 2847 2600 2669 2842 
Q 2491 3084 2119 3084 
Q 1678 3084 1418 2786 
Q 1159 2488 1159 1978 
L 1159 0 
L 581 0 
L 581 3500 
L 1159 3500 
L 1159 2956 
Q 1356 3278 1631 3431 
Q 1906 3584 2284 3584 
Q 2666 3584 2933 3390 
Q 3200 3197 3328 2828 
z
" id="DejaVuSans-6d" transform="scale(0.015625)"/>
       <path d="M 4647 556 
L 4647 0 
L 2772 0 
L 2772 556 
Q 3325 859 3634 1378 
Q 3944 1897 3944 2528 
Q 3944 3278 3531 3731 
Q 3119 4184 2444 4184 
Q 1769 4184 1355 3729 
Q 941 3275 941 2528 
Q 941 1897 1250 1378 
Q 1563 859 2119 556 
L 2119 0 
L 244 0 
L 244 556 
L 1241 556 
Q 747 991 519 1456 
Q 294 1922 294 2497 
Q 294 3491 894 4106 
Q 1491 4722 2444 4722 
Q 3391 4722 3994 4106 
Q 4594 3494 4594 2528 
Q 4594 1922 4372 1459 
Q 4150 997 3647 556 
L 4647 556 
z
" id="DejaVuSans-3a9" transform="scale(0.015625)"/>
      </defs>
      <use transform="translate(0 0.125)" xlink:href="#DejaVuSans-Oblique-3c1"/>
      <use transform="translate(63.476562 -16.28125)scale(0.7)" xlink:href="#DejaVuSans-78"/>
      <use transform="translate(104.902344 -16.28125)scale(0.7)" xlink:href="#DejaVuSans-78"/>
      <use transform="translate(149.0625 0.125)" xlink:href="#DejaVuSans-20"/>
      <use transform="translate(180.849609 0.125)" xlink:href="#DejaVuSans-28"/>
      <use transform="translate(219.863281 0.125)" xlink:href="#DejaVuSans-6d"/>
      <use transform="translate(317.275391 0.125)" xlink:href="#DejaVuSans-3a9"/>
      <use transform="translate(393.691406 0.125)" xlink:href="#DejaVuSans-29"/>
     </g>
    </g>
   </g>
   <g id="line2d_33">
    <path clip-path="url(#pcedd1a81b9)" d="M 68.13495 382.759684 
L 71.5806 382.740019 
L 72.6408 382.775775 
L 73.1709 382.708197 
L 73.701 382.377458 
L 74.2311 380.524963 
L 74.7612 375.087968 
L 75.2913 372.668793 
L 75.8214 372.254016 
L 76.3515 373.167937 
L 77.4117 379.631073 
L 77.9418 381.288704 
L 78.4719 382.428588 
L 79.5321 382.844782 
L 86.9535 382.810457 
L 89.604 382.741806 
L 90.1341 382.424298 
L 90.6642 381.686301 
L 91.1943 379.091882 
L 91.7244 373.226533 
L 92.2545 371.518905 
L 92.7846 373.339549 
L 93.3147 377.490058 
L 94.3749 382.082473 
L 94.905 382.655994 
L 95.9652 382.866236 
L 102.3264 382.801876 
L 103.9167 382.884829 
L 104.9769 382.859085 
L 111.3381 382.859085 
L 111.8682 382.912002 
L 112.9284 382.770411 
L 113.4585 382.527273 
L 113.9886 381.702037 
L 114.5187 379.425119 
L 115.0488 376.428808 
L 115.5789 367.898973 
L 116.6391 354.504923 
L 117.1692 352.299544 
L 117.6993 353.13193 
L 118.2294 357.042153 
L 118.7595 364.645253 
L 119.8197 375.051495 
L 120.8799 380.994075 
L 121.41 382.302729 
L 122.4702 382.76326 
L 123.5304 382.95205 
L 128.3013 382.887689 
L 129.3615 382.920584 
L 129.8916 382.824759 
L 130.4217 382.950619 
L 144.7344 382.904851 
L 145.2645 382.776132 
L 145.7946 382.518692 
L 146.3247 382.059591 
L 147.3849 378.794397 
L 148.4451 370.094323 
L 148.9752 362.096601 
L 149.5053 352.205148 
L 151.6257 323.217571 
L 152.1558 322.090286 
L 152.6859 324.527697 
L 153.7461 337.548337 
L 154.8063 359.104522 
L 155.3364 364.716758 
L 155.8665 371.576109 
L 156.9267 378.755779 
L 157.9869 381.910851 
L 158.517 382.498669 
L 159.0471 382.846213 
L 159.5772 382.979224 
L 162.2277 382.976364 
L 164.8782 383.033572 
L 165.9384 382.974933 
L 178.6608 383.057884 
L 179.721 382.993526 
L 188.2026 382.95491 
L 188.7327 382.874817 
L 189.7929 381.629093 
L 190.323 379.385077 
L 190.8531 375.959706 
L 191.3832 370.516251 
L 194.0337 329.847866 
L 194.5638 317.324882 
L 195.0939 309.458845 
L 195.624 298.188879 
L 196.1541 290.517201 
L 196.6842 280.974395 
L 197.7444 267.828021 
L 198.2745 262.186799 
L 199.8648 253.605712 
L 200.3949 252.106985 
L 201.4551 250.321758 
L 202.5153 249.612466 
L 203.5755 250.253132 
L 204.1056 250.619296 
L 205.6959 252.312862 
L 206.226 253.18244 
L 206.7561 253.640265 
L 207.2862 254.566951 
L 209.4066 256.878148 
L 209.9367 258.033747 
L 210.4668 258.651378 
L 211.527 261.157414 
L 212.0571 262.850501 
L 212.5872 264.05217 
L 213.1173 266.145972 
L 213.6474 267.175837 
L 214.7076 271.649463 
L 215.2377 273.342549 
L 217.3581 285.768593 
L 219.4785 303.663575 
L 221.5989 331.730033 
L 222.129 337.885851 
L 223.7193 363.029095 
L 224.7795 371.72483 
L 225.3096 375.866749 
L 226.3698 380.211747 
L 226.8999 380.806717 
L 227.43 382.208333 
L 227.9601 383.095071 
L 229.5504 383.255257 
L 231.1407 383.169441 
L 232.2009 383.252397 
L 232.731 383.14942 
L 233.7912 383.198048 
L 235.3815 383.255257 
L 237.5019 383.206629 
L 239.6223 383.200908 
L 240.1524 383.246671 
L 240.6825 383.158 
L 242.2728 383.206629 
L 244.3932 383.23237 
L 246.5136 383.238091 
L 254.9952 383.180882 
L 256.0554 383.22951 
L 258.7059 383.175162 
L 259.236 383.29816 
L 260.2962 383.22379 
L 262.4166 383.278139 
L 265.5972 383.103652 
L 266.1273 382.883398 
L 266.6574 382.24552 
L 267.1875 381.338763 
L 268.2477 377.176827 
L 269.3079 367.914714 
L 270.3681 351.50435 
L 270.8982 340.248589 
L 271.4283 332.187857 
L 272.4885 304.927631 
L 273.0186 293.97248 
L 273.5487 279.818796 
L 274.0788 270.756849 
L 274.6089 255.974017 
L 275.139 247.175535 
L 275.6691 234.98992 
L 277.2594 210.607654 
L 278.3196 200.218784 
L 279.3798 194.325615 
L 279.9099 193.387411 
L 280.44 192.117116 
L 280.9701 191.785505 
L 282.0303 192.117116 
L 284.1507 195.859374 
L 284.6808 197.061043 
L 285.2109 197.964694 
L 286.2711 200.264374 
L 287.3313 201.946423 
L 288.3915 204.406389 
L 288.9216 205.0245 
L 289.4517 205.962704 
L 290.5119 207.244036 
L 291.5721 208.273901 
L 293.6925 209.71552 
L 299.5236 211.122586 
L 300.0537 211.431641 
L 301.1139 211.740697 
L 302.1741 212.312737 
L 302.7042 212.655866 
L 303.2343 212.839187 
L 303.7644 213.159281 
L 304.2945 213.342602 
L 304.8246 213.731321 
L 305.3547 213.971751 
L 305.8848 214.063412 
L 306.945 214.64697 
L 308.0052 215.001616 
L 310.6557 215.733943 
L 311.1858 215.825124 
L 311.7159 215.791051 
L 312.7761 215.871194 
L 315.9567 215.447443 
L 318.0771 214.623935 
L 319.1373 214.291844 
L 322.3179 212.690418 
L 323.3781 212.473024 
L 323.9082 212.598758 
L 324.4383 212.449989 
L 324.9684 212.152451 
L 326.0286 211.889466 
L 326.5587 211.649036 
L 327.0888 211.225764 
L 327.6189 211.191212 
L 328.149 211.374533 
L 328.6791 210.893674 
L 329.2092 210.928227 
L 329.7393 210.596616 
L 330.2694 210.424812 
L 330.7995 211.031405 
L 331.3296 211.282872 
L 332.3898 211.214247 
L 332.9199 211.225764 
L 333.45 212.049272 
L 333.9801 212.30122 
L 334.5102 211.202729 
L 335.0403 211.763252 
L 336.1005 213.628622 
L 336.6306 215.722425 
L 337.6908 218.056178 
L 338.2209 218.776987 
L 339.2811 226.054187 
L 339.8112 227.804861 
L 340.3413 230.997154 
L 342.4617 251.626125 
L 342.9918 258.251141 
L 344.052 274.086394 
L 344.5821 279.303864 
L 345.6423 300.906071 
L 346.1724 308.389148 
L 346.7025 324.9908 
L 347.2326 329.601677 
L 348.2928 343.606736 
L 348.8229 357.405389 
L 349.8831 368.458201 
L 350.4132 370.677881 
L 350.9433 375.695089 
L 351.4734 375.992579 
L 352.5336 379.894241 
L 353.0637 381.51897 
L 353.5938 382.645982 
L 354.654 383.532721 
L 355.7142 383.506974 
L 356.2443 383.73867 
L 363.1356 383.635693 
L 364.1958 383.721508 
L 371.6172 383.732949 
L 372.6774 383.627112 
L 376.3881 383.6786 
L 378.5085 383.681461 
L 382.2192 383.6786 
L 386.9901 383.695762 
L 388.0503 383.732949 
L 388.5804 383.67574 
L 389.6406 383.707207 
L 397.062 383.664299 
L 398.6523 383.6786 
L 400.7727 383.707207 
L 403.9533 383.735809 
L 405.5436 383.681461 
L 406.6038 383.707207 
L 408.7242 383.655719 
L 411.3747 383.74439 
L 411.9048 383.681461 
L 412.4349 383.781577 
L 413.4951 383.710067 
L 428.3379 383.775857 
L 428.868 383.841646 
L 429.9282 383.82162 
L 432.0486 383.584209 
L 433.1088 383.378255 
L 433.6389 383.000677 
L 435.2292 381.207184 
L 436.2894 378.915965 
L 437.3496 375.002882 
L 437.8797 372.640191 
L 438.9399 363.360897 
L 439.47 358.417978 
L 441.5904 328.017048 
L 444.2409 263.891883 
L 444.771 248.880139 
L 445.3011 237.347188 
L 446.3613 206.008294 
L 448.4817 155.732556 
L 449.5419 136.991031 
L 450.6021 125.801209 
L 451.1322 123.718923 
L 451.6623 123.055222 
L 452.1924 124.45125 
L 452.7225 128.364353 
L 453.2526 133.993577 
L 453.7827 140.835508 
L 455.9031 179.165101 
L 456.9633 206.305832 
L 458.0235 231.134406 
L 458.5536 240.905645 
L 459.6138 265.619522 
L 460.674 288.205524 
L 461.2041 296.238086 
L 461.7342 307.679377 
L 462.7944 324.475868 
L 463.3245 330.082537 
L 464.3847 344.510627 
L 465.975 358.480941 
L 466.5051 361.707595 
L 467.5653 368.795714 
L 468.0954 370.706483 
L 468.6255 373.074932 
L 469.6857 376.318671 
L 470.7459 378.76722 
L 471.8061 380.346186 
L 472.3362 380.689439 
L 473.3964 381.759246 
L 473.9265 382.148265 
L 476.0469 383.08077 
L 476.577 383.160861 
L 477.6372 383.464071 
L 478.6974 383.67002 
L 479.2275 383.652859 
L 480.2877 383.81304 
L 481.3479 383.81876 
L 482.4081 383.933178 
L 484.5285 383.950339 
L 485.0586 383.967505 
L 486.1188 383.82448 
L 487.7091 383.698622 
L 488.7693 383.612811 
L 489.2994 383.412582 
L 490.3596 383.235231 
L 490.8897 382.8977 
L 491.9499 382.445751 
L 492.48 382.153985 
L 493.5402 380.969763 
L 493.5402 380.969763 
" style="fill:none;stroke:#1f77b4;stroke-linecap:square;stroke-width:1.5;"/>
   </g>
   <g id="line2d_34">
    <path clip-path="url(#pcedd1a81b9)" d="M 68.13495 380.002938 
L 68.4 380.636521 
L 69.4602 382.123951 
L 70.5204 382.655994 
L 72.1107 382.795798 
L 74.2311 382.649915 
L 74.7612 381.104917 
L 75.2913 372.672344 
L 75.8214 357.813016 
L 76.3515 349.58216 
L 76.8816 346.724596 
L 77.4117 345.726309 
L 77.9418 344.490567 
L 78.4719 343.912768 
L 79.002 344.278931 
L 79.5321 344.024345 
L 80.0622 347.854424 
L 80.5923 350.497472 
L 81.1224 356.015264 
L 81.6525 360.280229 
L 84.8331 374.290614 
L 85.3632 378.132207 
L 85.8933 380.583602 
L 86.4234 382.025264 
L 87.4836 382.741806 
L 89.604 382.794725 
L 91.1943 382.653133 
L 91.7244 379.827021 
L 93.3147 332.697031 
L 93.8448 326.993422 
L 94.3749 325.791753 
L 95.4351 325.322891 
L 95.9652 325.442866 
L 96.4953 326.261095 
L 97.0254 328.308827 
L 97.5555 334.298936 
L 98.6157 356.959179 
L 99.1458 365.792261 
L 99.6759 371.507436 
L 100.7361 379.1448 
L 101.7963 381.919432 
L 102.8565 382.541576 
L 104.4468 382.834771 
L 108.1575 382.83191 
L 111.3381 382.799016 
L 111.8682 382.912002 
L 113.4585 382.786144 
L 114.5187 382.806167 
L 115.0488 382.344205 
L 115.5789 380.602198 
L 116.6391 366.324326 
L 117.6993 331.014982 
L 118.2294 319.796365 
L 118.7595 312.891088 
L 119.2896 309.069646 
L 119.8197 306.329419 
L 120.3498 306.375009 
L 120.8799 306.169132 
L 121.41 307.679377 
L 122.4702 315.007926 
L 123.0003 323.1715 
L 124.0605 333.984122 
L 124.5906 337.708528 
L 125.6508 346.398505 
L 130.9518 375.775184 
L 131.4819 377.843303 
L 132.5421 381.015526 
L 133.6023 382.411426 
L 134.1324 382.721784 
L 135.1926 382.95491 
L 135.7227 382.900561 
L 136.2528 382.977794 
L 138.3732 382.8977 
L 141.0237 382.919153 
L 142.0839 382.887689 
L 143.6742 382.936316 
L 144.7344 382.879108 
L 146.3247 382.917723 
L 147.915 382.627389 
L 148.4451 382.129672 
L 148.9752 380.69373 
L 149.5053 378.056407 
L 150.0354 373.944511 
L 151.0956 356.409981 
L 153.216 301.134984 
L 153.7461 294.029588 
L 154.2762 283.960811 
L 154.8063 276.695129 
L 155.8665 268.949067 
L 156.3966 269.646841 
L 157.4568 276.912523 
L 158.517 292.702185 
L 159.0471 299.384309 
L 159.5772 309.235691 
L 161.6976 336.695939 
L 162.2277 341.398477 
L 162.7578 349.956865 
L 163.2879 355.448886 
L 163.818 362.834591 
L 164.8782 372.840405 
L 165.4083 375.941086 
L 165.9384 377.634508 
L 166.4685 380.111635 
L 166.9986 381.510389 
L 167.5287 382.276985 
L 168.0588 382.654563 
L 169.119 383.103652 
L 173.3598 383.000677 
L 180.7812 383.062174 
L 181.8414 382.999247 
L 183.9618 383.066469 
L 184.4919 382.972073 
L 185.5521 382.980654 
L 188.7327 383.024991 
L 190.8531 382.939177 
L 191.3832 383.059314 
L 192.4434 382.986375 
L 194.0337 383.002107 
L 195.624 382.963492 
L 196.1541 383.027851 
L 197.2143 382.943468 
L 198.8046 382.860515 
L 200.3949 382.667435 
L 201.9852 382.344205 
L 203.0454 381.384526 
L 203.5755 380.311864 
L 204.1056 378.804407 
L 205.1658 373.738586 
L 206.7561 356.109612 
L 209.9367 301.083634 
L 210.4668 292.771291 
L 212.0571 277.541672 
L 213.1173 271.351925 
L 214.1775 267.404269 
L 215.2377 265.081555 
L 216.2979 263.960509 
L 216.828 263.159556 
L 217.8882 262.495855 
L 218.4183 262.530408 
L 218.9484 262.393156 
L 219.4785 262.427229 
L 220.0086 261.912297 
L 220.5387 261.580686 
L 221.0688 261.031201 
L 221.5989 261.145897 
L 222.129 260.997128 
L 223.1892 259.635652 
L 224.2494 259.40674 
L 224.7795 259.898637 
L 225.3096 260.630964 
L 225.8397 262.313013 
L 226.3698 263.251217 
L 227.43 268.777263 
L 228.4902 275.711334 
L 229.0203 279.623957 
L 230.0805 293.274705 
L 230.6106 297.965726 
L 232.2009 316.798432 
L 232.731 320.002242 
L 234.3213 337.760021 
L 235.9116 350.025491 
L 236.4417 354.361913 
L 236.9718 356.467185 
L 237.5019 360.300241 
L 238.032 362.903217 
L 238.5621 366.598925 
L 241.2126 378.649947 
L 241.7427 379.977191 
L 242.2728 380.798137 
L 242.8029 381.893685 
L 243.333 382.465774 
L 244.3932 382.851934 
L 249.6942 383.22093 
L 253.935 383.22379 
L 256.5855 383.189467 
L 257.6457 383.252397 
L 258.7059 383.23237 
L 274.6089 383.132259 
L 276.7293 383.014979 
L 278.3196 383.006398 
L 279.3798 382.886259 
L 280.44 382.743236 
L 281.5002 382.56875 
L 283.0905 382.24552 
L 284.1507 381.856503 
L 285.2109 381.232926 
L 285.741 380.217467 
L 286.2711 378.878777 
L 286.8012 377.156816 
L 287.8614 370.360379 
L 288.9216 359.908355 
L 289.9818 346.123906 
L 290.5119 333.961087 
L 291.042 325.523009 
L 292.6323 288.903778 
L 293.1624 278.022531 
L 293.6925 270.402203 
L 294.2226 258.788629 
L 294.7527 250.528115 
L 295.2828 245.356235 
L 295.8129 238.571412 
L 296.343 233.582854 
L 297.4032 228.124954 
L 297.9333 226.66078 
L 298.4634 226.099777 
L 298.9935 226.111295 
L 299.5236 226.61471 
L 301.1139 229.887146 
L 302.1741 233.330907 
L 303.2343 235.790873 
L 304.2945 238.651556 
L 304.8246 240.001514 
L 306.945 243.55997 
L 307.4751 244.212154 
L 308.5353 244.944481 
L 309.5955 245.516522 
L 310.6557 245.699363 
L 312.7761 245.630738 
L 313.3062 245.562112 
L 314.8965 245.001589 
L 315.4266 244.887373 
L 315.9567 244.646943 
L 316.4868 244.5668 
L 318.0771 243.880543 
L 321.7878 243.55997 
L 323.3781 243.777365 
L 323.9082 244.051867 
L 324.4383 244.177601 
L 324.9684 244.177601 
L 326.0286 244.589835 
L 327.6189 244.5668 
L 328.149 244.681016 
L 331.3296 243.468309 
L 333.9801 240.608107 
L 334.5102 239.486581 
L 335.5704 236.443057 
L 336.1005 235.619549 
L 336.6306 234.258073 
L 337.1607 233.571337 
L 338.2209 231.340283 
L 340.3413 224.177779 
L 340.8714 222.198192 
L 341.4015 221.236953 
L 341.9316 219.898513 
L 342.4617 219.017417 
L 342.9918 217.621388 
L 343.5219 215.527586 
L 344.5821 212.690418 
L 345.1122 211.019887 
L 346.7025 205.230377 
L 347.7627 201.511634 
L 348.2928 199.864138 
L 348.8229 199.497974 
L 349.353 198.983042 
L 349.8831 198.925934 
L 350.4132 196.340234 
L 350.9433 196.21402 
L 351.4734 196.775023 
L 352.0035 198.525217 
L 352.5336 199.864138 
L 353.0637 202.026566 
L 353.5938 206.36294 
L 354.1239 209.143479 
L 354.654 214.93299 
L 355.1841 219.040452 
L 355.7142 227.38159 
L 356.2443 232.243934 
L 359.4249 280.18496 
L 359.955 284.68162 
L 360.4851 290.837295 
L 361.0152 299.95635 
L 362.0754 313.995337 
L 362.6055 317.576829 
L 363.6657 330.288414 
L 364.1958 333.721137 
L 364.7259 338.766899 
L 365.256 340.84928 
L 366.3162 350.437389 
L 367.3764 355.002627 
L 368.4366 361.730438 
L 370.0269 369.796881 
L 371.6172 375.386177 
L 372.1473 378.046396 
L 373.2075 380.63223 
L 373.7376 381.192878 
L 374.2677 382.371379 
L 375.3279 383.561323 
L 376.3881 383.75011 
L 376.9182 383.833066 
L 377.4483 383.66716 
L 379.5687 383.698622 
L 382.7493 383.695762 
L 383.2794 383.621392 
L 383.8095 383.715788 
L 385.9299 383.638553 
L 386.46 383.73867 
L 388.0503 383.692901 
L 389.1105 383.721508 
L 399.7125 383.627112 
L 400.7727 383.761551 
L 401.3028 383.66716 
L 402.8931 383.790158 
L 403.4232 383.661439 
L 403.9533 383.727229 
L 405.0135 383.727229 
L 407.1339 383.67574 
L 408.7242 383.687181 
L 409.7844 383.690041 
L 412.965 383.690041 
L 414.0252 383.701482 
L 418.266 383.67288 
L 418.7961 383.638553 
L 419.8563 383.730089 
L 422.5068 383.655719 
L 423.567 383.758691 
L 425.6874 383.66716 
L 432.0486 383.732949 
L 433.1088 383.67574 
L 434.169 383.66716 
L 437.8797 383.395416 
L 440.5302 382.454333 
L 441.5904 381.315876 
L 442.1205 380.617929 
L 442.6506 380.163119 
L 443.7108 377.897651 
L 444.2409 376.953722 
L 444.771 375.686499 
L 445.3011 374.885594 
L 445.8312 373.086402 
L 446.3613 371.713409 
L 447.4215 367.751644 
L 448.4817 364.513665 
L 449.0118 361.953591 
L 449.5419 360.400348 
L 450.6021 356.318464 
L 451.1322 355.005507 
L 451.6623 353.28353 
L 452.7225 350.546086 
L 453.2526 348.969999 
L 453.7827 348.1033 
L 454.3128 346.870438 
L 454.8429 346.398505 
L 455.9031 344.190246 
L 456.4332 343.277764 
L 456.9633 342.854445 
L 457.4934 342.107865 
L 459.6138 340.477405 
L 460.1439 340.374419 
L 460.674 340.128422 
L 462.2643 339.8138 
L 462.7944 339.567803 
L 463.3245 339.584936 
L 464.3847 339.459106 
L 465.4449 339.384722 
L 466.5051 338.961402 
L 467.5653 338.240545 
L 468.6255 336.564351 
L 469.1556 335.071047 
L 470.2158 331.255412 
L 470.7459 329.481702 
L 471.8061 324.087149 
L 472.3362 320.700017 
L 472.8663 316.506653 
L 473.3964 313.228937 
L 474.4566 301.924419 
L 477.1071 261.717937 
L 480.8178 199.292097 
L 481.878 183.593137 
L 482.4081 179.211172 
L 482.9382 172.838103 
L 483.9984 164.42834 
L 485.0586 161.636763 
L 485.5887 163.558761 
L 486.1188 164.108247 
L 486.6489 167.357648 
L 488.2392 183.261526 
L 489.2994 202.667232 
L 489.8295 210.653724 
L 490.3596 221.385722 
L 490.8897 229.624161 
L 491.4198 240.996826 
L 491.9499 248.25099 
L 492.48 260.356462 
L 493.5402 279.578366 
L 493.5402 279.578366 
" style="fill:none;stroke:#ff7f0e;stroke-linecap:square;stroke-width:1.5;"/>
   </g>
   <g id="line2d_35">
    <path clip-path="url(#pcedd1a81b9)" d="M 68.13495 354.3276 
L 68.4 354.627922 
L 68.9301 357.027852 
L 69.4602 358.603939 
L 69.9903 362.424133 
L 70.5204 362.987631 
L 71.0505 366.756236 
L 71.5806 367.717331 
L 72.6408 372.703106 
L 73.1709 374.815529 
L 73.701 375.783774 
L 74.7612 378.845885 
L 75.2913 376.121288 
L 76.3515 368.275119 
L 76.8816 368.521115 
L 77.4117 363.440993 
L 77.9418 365.540554 
L 78.4719 360.145809 
L 79.002 360.283108 
L 79.5321 358.257835 
L 80.0622 357.994658 
L 80.5923 355.980903 
L 81.1224 352.445433 
L 81.6525 351.272654 
L 82.1826 351.049549 
L 82.7127 350.551845 
L 83.2428 349.127359 
L 83.7729 348.040386 
L 84.8331 346.701705 
L 85.3632 346.936232 
L 85.8933 348.177685 
L 86.4234 349.041504 
L 86.9535 349.390488 
L 88.5438 355.557583 
L 89.604 360.477612 
L 90.6642 364.493653 
L 91.1943 365.849466 
L 91.7244 365.895248 
L 92.2545 357.765842 
L 93.3147 333.698102 
L 93.8448 329.075707 
L 94.905 327.496837 
L 95.4351 327.187781 
L 95.9652 326.609982 
L 96.4953 326.398346 
L 97.5555 326.209266 
L 98.0856 326.123844 
L 98.6157 326.706922 
L 99.1458 327.708473 
L 99.6759 329.830589 
L 100.206 332.851558 
L 100.7361 333.360732 
L 101.2662 349.015782 
L 101.7963 352.928836 
L 102.3264 355.986614 
L 102.8565 360.946714 
L 103.3866 358.964344 
L 103.9167 357.828757 
L 104.4468 361.753329 
L 104.9769 366.713333 
L 105.507 367.951906 
L 106.0371 370.197309 
L 106.5672 371.800654 
L 107.0973 372.820393 
L 107.6274 375.13447 
L 108.1575 376.328701 
L 108.6876 378.378204 
L 109.2177 379.013217 
L 110.2779 381.900836 
L 111.8682 382.655994 
L 113.9886 382.879108 
L 114.5187 382.867666 
L 115.0488 382.385681 
L 115.5789 380.537839 
L 116.109 377.677411 
L 116.6391 371.558929 
L 117.6993 350.980875 
L 118.2294 344.070127 
L 118.7595 335.68887 
L 119.2896 331.249653 
L 119.8197 325.402554 
L 120.3498 320.917411 
L 120.8799 320.608836 
L 121.41 321.140565 
L 121.9401 317.725598 
L 122.4702 317.95403 
L 123.0003 314.230008 
L 123.5304 313.554789 
L 124.0605 311.117858 
L 124.5906 312.59403 
L 125.1207 313.554789 
L 125.6508 314.79629 
L 126.1809 313.903676 
L 128.3013 325.368481 
L 128.8314 329.579122 
L 129.3615 330.202512 
L 129.8916 331.066331 
L 130.4217 331.272208 
L 131.4819 333.572368 
L 133.0722 337.159331 
L 133.6023 338.795501 
L 134.6625 341.226865 
L 136.2528 345.643334 
L 137.313 349.965455 
L 138.3732 355.486078 
L 138.9033 359.562251 
L 139.4334 364.979887 
L 139.9635 368.542567 
L 140.4936 373.436777 
L 142.0839 380.244644 
L 142.614 381.438875 
L 143.1441 382.176869 
L 144.2043 382.770411 
L 144.7344 382.939177 
L 146.3247 382.95205 
L 147.3849 382.776132 
L 147.915 382.645982 
L 148.4451 382.055301 
L 148.9752 380.639381 
L 149.5053 377.191128 
L 150.0354 371.089827 
L 151.6257 337.634143 
L 153.7461 285.150483 
L 154.2762 276.409108 
L 155.3364 267.530483 
L 155.8665 264.372263 
L 156.3966 263.491167 
L 156.9267 263.205147 
L 157.4568 263.28529 
L 157.9869 263.914918 
L 159.0471 272.084252 
L 160.1073 291.123315 
L 160.6374 302.54205 
L 161.1675 310.122546 
L 162.2277 328.864071 
L 163.2879 341.744581 
L 163.818 346.678814 
L 164.3481 350.094165 
L 165.4083 354.90252 
L 166.4685 358.272136 
L 167.5287 362.188118 
L 168.0588 364.369215 
L 169.119 370.337488 
L 169.6491 375.808105 
L 170.7093 380.270386 
L 171.2394 381.530411 
L 171.7695 382.161137 
L 172.2996 382.532995 
L 173.3598 382.854794 
L 175.4802 383.102222 
L 178.1307 383.283859 
L 179.1909 383.057884 
L 181.8414 383.046444 
L 183.9618 382.989235 
L 187.6725 383.050735 
L 189.2628 383.013549 
L 199.8648 382.780423 
L 200.925 382.6374 
L 201.4551 382.661714 
L 204.6357 381.298715 
L 205.6959 380.70088 
L 206.226 380.397675 
L 206.7561 379.43942 
L 207.2862 379.227751 
L 209.4066 374.917075 
L 210.4668 371.101249 
L 210.9969 369.230503 
L 213.1173 357.771553 
L 214.1775 350.792083 
L 214.7076 345.437409 
L 215.2377 342.062082 
L 215.7678 336.112381 
L 216.2979 328.674991 
L 216.828 323.480556 
L 217.3581 316.226391 
L 218.4183 297.793921 
L 218.9484 291.10076 
L 219.4785 282.095441 
L 220.0086 276.30593 
L 221.0688 258.88029 
L 221.5989 252.621917 
L 222.6591 242.598731 
L 223.1892 237.209937 
L 223.7193 234.154895 
L 224.2494 232.049575 
L 224.7795 231.076818 
L 225.3096 231.01971 
L 225.8397 231.088335 
L 226.3698 232.301522 
L 226.8999 234.166412 
L 227.43 236.466092 
L 229.0203 249.509767 
L 229.5504 255.676479 
L 230.0805 260.035889 
L 230.6106 267.027068 
L 231.1407 272.233021 
L 231.6708 278.640162 
L 232.731 288.285668 
L 234.8514 309.401737 
L 235.3815 311.998954 
L 236.4417 319.384611 
L 238.5621 331.489603 
L 239.0922 333.183169 
L 239.6223 336.209657 
L 241.2126 343.372161 
L 242.8029 352.391061 
L 243.333 355.35449 
L 243.8631 357.499786 
L 244.3932 360.975316 
L 244.9233 362.605775 
L 245.4534 367.251061 
L 245.9835 369.053132 
L 246.5136 370.320308 
L 247.0437 370.314597 
L 247.5738 370.666411 
L 248.634 372.182511 
L 249.1641 373.521191 
L 249.6942 375.371876 
L 250.2243 376.415946 
L 251.8146 378.212297 
L 252.3447 378.652807 
L 252.8748 378.841595 
L 256.0554 380.958317 
L 256.5855 381.089901 
L 257.6457 381.564733 
L 258.7059 381.976641 
L 260.2962 382.44003 
L 260.8263 382.534425 
L 261.3564 382.794725 
L 264.0069 383.180882 
L 266.6574 383.29244 
L 267.7176 383.195188 
L 268.7778 383.22951 
L 269.3079 383.166581 
L 269.838 383.249532 
L 270.8982 383.198048 
L 272.4885 383.218069 
L 273.5487 383.120813 
L 275.139 383.092211 
L 278.3196 383.035002 
L 279.3798 382.969212 
L 282.5604 382.628819 
L 283.6206 382.385681 
L 285.2109 382.151125 
L 287.8614 381.401692 
L 288.9216 381.338763 
L 289.4517 381.152835 
L 290.5119 381.046993 
L 291.042 380.738067 
L 291.5721 380.712321 
L 292.6323 380.286117 
L 293.1624 380.188865 
L 293.6925 379.87994 
L 294.2226 379.765522 
L 295.2828 379.127634 
L 296.8731 378.375343 
L 298.4634 377.5201 
L 300.0537 376.624751 
L 302.1741 374.573803 
L 302.7042 373.727116 
L 303.2343 372.560096 
L 303.7644 370.603496 
L 305.3547 362.148095 
L 305.8848 358.183451 
L 306.4149 352.828729 
L 306.945 344.979729 
L 307.4751 339.384722 
L 309.5955 300.059528 
L 311.1858 271.958038 
L 311.7159 262.644624 
L 313.3062 242.278638 
L 313.8363 236.900881 
L 314.8965 230.790798 
L 315.9567 228.365384 
L 316.4868 228.067846 
L 317.0169 228.090882 
L 318.0771 229.601126 
L 320.1975 234.635274 
L 321.2577 237.449887 
L 321.7878 238.182214 
L 322.848 240.333604 
L 323.3781 241.431615 
L 323.9082 242.118351 
L 324.9684 242.896269 
L 325.4985 243.216842 
L 326.0286 243.285468 
L 326.5587 243.079591 
L 327.0888 243.03352 
L 327.6189 242.621766 
L 328.149 242.049726 
L 328.6791 241.660527 
L 329.7393 239.829709 
L 330.2694 239.212078 
L 331.3296 236.80922 
L 331.8597 235.253385 
L 332.3898 234.269111 
L 333.45 230.928529 
L 333.9801 229.807003 
L 334.5102 227.656092 
L 335.5704 224.429246 
L 336.1005 222.301371 
L 337.1607 219.189221 
L 338.2209 216.305983 
L 339.2811 212.598758 
L 339.8112 210.76794 
L 341.4015 204.131886 
L 342.9918 199.669778 
L 343.5219 197.061043 
L 344.052 195.64198 
L 345.6423 188.250084 
L 346.1724 186.350641 
L 347.2326 180.6072 
L 347.7627 176.075987 
L 348.2928 172.575118 
L 348.8229 171.567808 
L 349.353 169.622775 
L 349.8831 168.753196 
L 350.4132 167.609115 
L 350.9433 167.998314 
L 352.0035 165.824368 
L 352.5336 167.037075 
L 353.0637 167.471864 
L 353.5938 169.40538 
L 354.1239 174.497117 
L 355.1841 181.487816 
L 357.3045 205.676684 
L 359.4249 236.786665 
L 362.0754 273.663122 
L 362.6055 278.502911 
L 363.1356 285.997026 
L 363.6657 290.253737 
L 364.1958 296.36382 
L 366.3162 315.299705 
L 367.9065 323.886551 
L 368.4366 327.445008 
L 368.9667 329.579122 
L 370.0269 336.398449 
L 371.0871 341.847567 
L 372.1473 346.361312 
L 373.7376 353.635345 
L 374.7978 358.635372 
L 375.3279 361.618909 
L 376.3881 366.298556 
L 377.9784 374.573803 
L 378.5085 376.441669 
L 379.0386 378.930266 
L 379.5687 380.555 
L 380.0988 381.447455 
L 380.6289 383.049304 
L 381.159 383.404002 
L 381.6891 383.998967 
L 382.2192 384.305038 
L 382.7493 384.310758 
L 384.3396 383.81876 
L 385.3998 383.692901 
L 386.46 383.772997 
L 386.9901 383.652859 
L 388.5804 383.67574 
L 391.2309 383.715788 
L 392.2911 383.770137 
L 392.8212 383.655719 
L 394.4115 383.701482 
L 394.9416 383.647138 
L 396.5319 383.732949 
L 397.062 383.658579 
L 398.1222 383.732949 
L 398.6523 383.501254 
L 399.1824 383.692901 
L 402.8931 383.627112 
L 405.0135 383.761551 
L 406.0737 383.74725 
L 410.3145 383.690041 
L 411.3747 383.767272 
L 412.4349 383.635693 
L 412.965 383.74439 
L 413.4951 383.647138 
L 416.1456 383.761551 
L 417.7359 383.718648 
L 418.266 383.775857 
L 418.7961 383.641413 
L 419.3262 383.74725 
L 420.9165 383.67002 
L 430.9884 383.698622 
L 432.0486 383.724368 
L 435.2292 383.67002 
L 435.7593 383.578484 
L 436.2894 383.701482 
L 438.9399 383.358234 
L 439.47 383.189467 
L 441.0603 382.234079 
L 442.6506 380.191726 
L 443.7108 378.166534 
L 444.771 375.466273 
L 445.3011 374.419371 
L 445.8312 372.943392 
L 446.3613 370.529112 
L 446.8914 369.413585 
L 449.0118 360.797945 
L 449.5419 359.327724 
L 450.072 357.050695 
L 450.6021 355.340189 
L 451.1322 353.080437 
L 451.6623 351.398532 
L 452.7225 348.961409 
L 453.7827 345.877909 
L 455.373 343.520882 
L 456.4332 341.924783 
L 456.9633 341.232576 
L 457.4934 340.906484 
L 459.0837 339.258892 
L 460.674 338.492252 
L 461.2041 338.48083 
L 463.3245 337.977416 
L 463.8546 338.17763 
L 464.3847 338.028909 
L 464.9148 338.143317 
L 465.975 338.206232 
L 466.5051 338.263436 
L 467.0352 338.154739 
L 468.6255 338.612419 
L 469.1556 338.652443 
L 470.2158 339.098701 
L 470.7459 339.115834 
L 471.8061 339.562093 
L 472.3362 339.79662 
L 472.8663 339.899606 
L 473.3964 340.117001 
L 474.4566 340.763474 
L 475.5168 341.306912 
L 476.0469 341.5758 
L 477.1071 342.668484 
L 477.6372 343.063249 
L 478.1673 343.755457 
L 478.6974 344.213137 
L 481.3479 348.412212 
L 482.4081 350.643362 
L 482.9382 351.49576 
L 483.4683 352.765815 
L 483.9984 354.390515 
L 484.5285 355.282985 
L 485.0586 356.724604 
L 485.5887 357.697168 
L 486.6489 358.829924 
L 487.179 359.682418 
L 488.7693 361.604608 
L 489.2994 362.313996 
L 489.8295 362.388381 
L 490.3596 362.65722 
L 490.8897 363.080588 
L 491.9499 365.592047 
L 492.48 365.145789 
L 493.5402 363.681278 
L 493.5402 363.681278 
" style="fill:none;stroke:#2ca02c;stroke-linecap:square;stroke-width:1.5;"/>
   </g>
   <g id="line2d_36">
    <path clip-path="url(#pcedd1a81b9)" d="M 68.13495 334.784979 
L 68.4 330.917562 
L 68.9301 324.819476 
L 69.4602 322.610977 
L 70.5204 331.032258 
L 71.0505 342.48545 
L 71.5806 345.448831 
L 72.1107 346.432817 
L 72.6408 352.794417 
L 73.1709 353.377927 
L 73.701 346.947702 
L 74.2311 353.137641 
L 74.7612 352.142233 
L 75.2913 350.483171 
L 75.8214 353.011811 
L 76.3515 351.181138 
L 76.8816 355.734906 
L 77.4117 355.689172 
L 77.9418 337.588361 
L 78.4719 338.984245 
L 79.5321 346.970593 
L 80.0622 338.709647 
L 80.5923 343.52664 
L 81.1224 343.812661 
L 81.6525 355.448886 
L 82.1826 352.874512 
L 82.7127 345.036933 
L 83.2428 339.087232 
L 83.7729 342.897348 
L 84.303 339.567803 
L 84.8331 345.998028 
L 85.8933 337.199354 
L 86.4234 342.702845 
L 86.9535 344.327545 
L 87.4836 350.197151 
L 88.0137 344.464845 
L 88.5438 340.094109 
L 89.0739 331.558229 
L 89.604 327.473802 
L 90.1341 318.137352 
L 90.6642 313.972302 
L 91.1943 308.034502 
L 91.7244 310.368255 
L 92.2545 298.126012 
L 92.7846 297.793921 
L 93.8448 313.652209 
L 94.3749 310.15086 
L 94.905 319.144182 
L 95.4351 332.79397 
L 95.9652 336.764565 
L 96.4953 344.224559 
L 97.0254 340.117001 
L 97.5555 338.32064 
L 98.0856 331.238135 
L 98.6157 337.359545 
L 99.1458 338.801212 
L 99.6759 324.922175 
L 100.206 329.087225 
L 100.7361 338.114715 
L 101.2662 322.164671 
L 101.7963 334.613366 
L 102.3264 335.975082 
L 103.3866 324.155775 
L 103.9167 329.384283 
L 104.4468 325.254265 
L 104.9769 333.766727 
L 105.507 339.030028 
L 106.0371 328.331862 
L 106.5672 329.830589 
L 107.0973 325.299856 
L 107.6274 315.334258 
L 108.1575 324.407242 
L 108.6876 324.361652 
L 109.2177 328.286272 
L 109.7478 326.981904 
L 110.2779 342.599858 
L 110.808 345.837838 
L 111.3381 341.306912 
L 111.8682 341.810375 
L 112.3983 337.988837 
L 112.9284 331.993018 
L 113.4585 327.301998 
L 114.5187 322.908515 
L 115.0488 323.206053 
L 115.5789 325.71161 
L 116.109 322.553869 
L 116.6391 321.180876 
L 117.1692 310.91774 
L 117.6993 304.658887 
L 118.2294 313.02306 
L 118.7595 295.905996 
L 119.2896 297.336097 
L 119.8197 291.180423 
L 120.3498 297.816957 
L 120.8799 279.509741 
L 121.41 292.96565 
L 121.9401 264.326672 
L 122.4702 273.892034 
L 123.0003 296.55818 
L 123.5304 270.905618 
L 124.0605 287.725145 
L 124.5906 283.3427 
L 125.1207 276.008392 
L 125.6508 274.555736 
L 126.1809 271.843822 
L 126.711 267.232945 
L 127.2411 272.519041 
L 127.7712 274.5327 
L 128.3013 269.487034 
L 128.8314 273.949142 
L 129.3615 276.191714 
L 129.8916 290.940473 
L 130.4217 286.16883 
L 130.9518 302.599638 
L 131.4819 315.311222 
L 132.012 311.352529 
L 132.5421 316.890093 
L 133.0722 307.576678 
L 133.6023 325.448625 
L 134.1324 296.729984 
L 134.6625 314.430126 
L 135.1926 305.98629 
L 135.7227 332.656719 
L 136.2528 327.702714 
L 136.7829 311.581441 
L 137.313 324.018523 
L 137.8431 313.766425 
L 138.3732 333.606441 
L 138.9033 322.176188 
L 139.4334 313.972302 
L 139.9635 324.304544 
L 140.4936 318.034174 
L 141.0237 325.345446 
L 141.5538 323.1715 
L 142.0839 329.522014 
L 142.614 305.379697 
L 143.1441 319.796365 
L 143.6742 311.512336 
L 144.2043 319.636079 
L 144.7344 308.755312 
L 145.2645 318.537588 
L 145.7946 320.162529 
L 146.3247 329.018599 
L 146.8548 334.361803 
L 147.3849 321.466896 
L 147.915 323.080319 
L 148.4451 323.926863 
L 148.9752 313.995337 
L 149.5053 318.709392 
L 150.0354 303.217269 
L 150.5655 309.944983 
L 151.0956 307.324731 
L 151.6257 302.496459 
L 152.1558 303.366038 
L 152.6859 303.194233 
L 153.216 302.210439 
L 153.7461 302.679781 
L 154.2762 299.224023 
L 154.8063 299.201467 
L 155.3364 297.85103 
L 155.8665 289.212834 
L 156.3966 283.411326 
L 156.9267 286.203383 
L 157.4568 296.443963 
L 157.9869 294.430304 
L 158.517 279.566849 
L 159.0471 275.756925 
L 159.5772 277.004184 
L 160.1073 284.58996 
L 161.1675 266.340332 
L 161.6976 261.626276 
L 162.2277 265.905543 
L 162.7578 257.084025 
L 163.2879 258.457018 
L 163.818 251.397693 
L 164.3481 252.221201 
L 165.4083 237.404296 
L 165.9384 244.04035 
L 166.4685 234.292146 
L 166.9986 240.905645 
L 167.5287 237.598655 
L 168.0588 228.525671 
L 168.5889 228.022256 
L 169.119 225.161573 
L 169.6491 223.388344 
L 170.1792 217.495655 
L 170.7093 218.159356 
L 171.2394 218.411303 
L 172.2996 211.729179 
L 172.8297 213.983268 
L 173.3598 209.47509 
L 173.8899 207.861667 
L 174.42 211.454677 
L 174.9501 207.861667 
L 175.4802 202.404247 
L 176.0103 201.752063 
L 176.5404 199.921246 
L 177.0705 199.555082 
L 177.6006 196.065251 
L 178.1307 195.64198 
L 178.6608 195.836819 
L 179.1909 195.481693 
L 179.721 192.128634 
L 180.7812 189.439755 
L 181.3113 189.805919 
L 181.8414 189.188288 
L 182.3715 187.380505 
L 182.9016 186.911163 
L 183.9618 184.519823 
L 184.4919 184.371534 
L 185.022 184.680109 
L 186.0822 189.108145 
L 186.6123 190.218153 
L 187.1424 192.620531 
L 188.2026 199.429349 
L 188.7327 202.747375 
L 189.7929 213.559997 
L 190.323 220.802164 
L 191.9133 250.26465 
L 192.9735 262.23287 
L 193.5036 266.889337 
L 194.5638 273.342549 
L 195.0939 274.807203 
L 195.624 275.756925 
L 196.1541 276.146123 
L 196.6842 277.026739 
L 197.7444 276.855415 
L 198.2745 276.100053 
L 198.8046 276.59195 
L 199.3347 277.621815 
L 199.8648 277.770584 
L 200.3949 277.782102 
L 200.925 272.358755 
L 201.4551 272.576149 
L 201.9852 277.210061 
L 202.5153 277.106883 
L 203.0454 277.415938 
L 203.5755 277.004184 
L 204.1056 278.399733 
L 204.6357 277.381385 
L 205.1658 275.608156 
L 205.6959 276.157161 
L 206.226 279.315381 
L 206.7561 277.221579 
L 207.2862 279.544294 
L 207.8163 281.352076 
L 208.3464 277.35883 
L 208.8765 278.903147 
L 209.9367 268.308401 
L 210.4668 266.500618 
L 210.9969 271.695053 
L 211.527 267.816503 
L 212.5872 272.873687 
L 213.6474 284.1091 
L 214.1775 293.400439 
L 214.7076 298.034351 
L 215.2377 312.061821 
L 215.7678 302.817032 
L 216.2979 298.354444 
L 216.828 318.034174 
L 217.3581 303.217269 
L 217.8882 307.256105 
L 218.4183 319.682149 
L 218.9484 311.455228 
L 219.4785 279.384007 
L 220.0086 299.041181 
L 220.5387 313.54903 
L 221.0688 287.530305 
L 221.5989 284.098062 
L 222.129 285.413468 
L 222.6591 310.505506 
L 223.1892 302.770962 
L 224.2494 309.601855 
L 224.7795 306.718617 
L 225.8397 310.231004 
L 226.3698 310.67731 
L 226.8999 312.965472 
L 227.43 311.855944 
L 227.9601 323.858237 
L 228.4902 313.54903 
L 229.0203 293.102901 
L 229.5504 287.141587 
L 230.0805 287.884951 
L 230.6106 278.617127 
L 231.6708 298.446105 
L 232.2009 299.944832 
L 233.2611 317.027344 
L 233.7912 300.597016 
L 234.3213 293.697977 
L 234.8514 305.482875 
L 235.3815 303.675093 
L 235.9116 290.196628 
L 236.4417 288.354293 
L 236.9718 292.278913 
L 237.5019 302.713854 
L 238.032 307.599713 
L 238.5621 303.056982 
L 239.0922 297.233399 
L 239.6223 301.089393 
L 240.1524 299.166915 
L 240.6825 296.432446 
L 241.2126 286.203383 
L 241.7427 280.390837 
L 242.2728 293.022758 
L 242.8029 291.363745 
L 243.333 287.061443 
L 244.3932 281.47781 
L 245.4534 287.564858 
L 245.9835 284.887497 
L 247.0437 270.745332 
L 247.5738 274.143502 
L 248.1039 280.447945 
L 248.634 275.882658 
L 249.1641 275.390761 
L 249.6942 277.438973 
L 250.7544 268.640011 
L 251.2845 270.665188 
L 251.8146 271.099977 
L 252.8748 265.139143 
L 253.935 260.17314 
L 254.4651 255.276243 
L 254.9952 256.397769 
L 255.5253 256.843595 
L 256.0554 259.017541 
L 256.5855 256.351698 
L 257.1156 254.876006 
L 257.6457 255.916909 
L 258.1758 250.528115 
L 259.236 247.701985 
L 259.7661 249.292373 
L 260.2962 246.854962 
L 260.8263 248.720332 
L 261.3564 249.921521 
L 261.8865 250.276167 
L 262.4166 250.973942 
L 262.9467 255.928427 
L 263.4768 256.832078 
L 264.0069 260.665517 
L 264.537 263.056378 
L 265.0671 264.795534 
L 265.5972 269.280678 
L 266.1273 272.015626 
L 266.6574 270.56249 
L 267.1875 275.241992 
L 267.7176 275.699817 
L 268.7778 283.960811 
L 269.3079 282.061368 
L 269.838 287.404572 
L 270.8982 291.661282 
L 271.4283 292.004411 
L 271.9584 292.576451 
L 272.4885 295.471207 
L 273.0186 300.322513 
L 273.5487 299.304166 
L 274.0788 297.118702 
L 274.6089 303.869452 
L 275.139 304.384385 
L 275.6691 305.334106 
L 276.1992 309.510194 
L 277.2594 314.716147 
L 277.7895 315.197006 
L 278.3196 317.851332 
L 278.8497 317.633937 
L 279.3798 320.127976 
L 279.9099 321.283575 
L 280.44 323.823684 
L 281.5002 323.515109 
L 282.0303 326.947352 
L 282.5604 328.354898 
L 283.0905 327.782857 
L 283.6206 328.984046 
L 284.1507 329.464426 
L 284.6808 329.727891 
L 285.2109 330.208271 
L 285.741 328.686508 
L 286.2711 326.729957 
L 286.8012 325.608911 
L 287.8614 321.02059 
L 288.3915 317.942993 
L 288.9216 316.341087 
L 289.4517 315.242597 
L 289.9818 315.494064 
L 290.5119 317.119005 
L 291.042 318.377782 
L 291.5721 320.894856 
L 292.6323 324.098667 
L 293.1624 324.807959 
L 293.6925 325.826306 
L 294.7527 328.251719 
L 296.343 330.219788 
L 296.8731 331.272208 
L 297.4032 331.913354 
L 297.9333 332.02757 
L 298.4634 333.160134 
L 300.5838 335.334176 
L 301.1139 336.146742 
L 302.1741 336.993429 
L 302.7042 337.645613 
L 303.2343 338.057511 
L 303.7644 338.19481 
L 304.8246 338.91562 
L 305.3547 339.487708 
L 306.945 340.391599 
L 307.4751 340.54032 
L 308.0052 340.494586 
L 311.7159 341.055205 
L 313.3062 340.780606 
L 313.8363 340.55179 
L 314.3664 340.55179 
L 315.4266 340.277191 
L 316.4868 339.579225 
L 317.0169 338.824103 
L 317.547 338.412205 
L 318.0771 337.73713 
L 318.6072 337.588361 
L 319.1373 336.741674 
L 319.6674 336.455654 
L 320.7276 334.659149 
L 321.7878 332.920184 
L 322.848 330.677612 
L 323.9082 329.098262 
L 326.0286 323.12591 
L 326.5587 320.49414 
L 327.0888 318.640767 
L 327.6189 315.871745 
L 328.149 313.720835 
L 329.7393 304.063812 
L 331.3296 293.148492 
L 331.8597 288.731974 
L 332.3898 283.033645 
L 332.9199 279.051916 
L 333.9801 268.50276 
L 337.1607 225.344895 
L 339.2811 191.499485 
L 339.8112 182.025784 
L 340.3413 170.103634 
L 340.8714 163.192598 
L 341.9316 140.995795 
L 342.9918 117.12846 
L 345.1122 80.148825 
L 346.1724 67.72326 
L 346.7025 64.840023 
L 347.2326 64.542485 
L 348.2928 59.645108 
L 348.8229 57.562823 
L 349.353 56.579028 
L 349.8831 54.587924 
L 350.4132 56.555993 
L 350.9433 61.475925 
L 351.4734 64.748362 
L 352.0035 70.743749 
L 352.5336 75.434769 
L 354.1239 107.036648 
L 354.654 113.307018 
L 355.1841 125.274758 
L 356.2443 142.277127 
L 356.7744 147.402936 
L 357.3045 158.661864 
L 358.3647 176.362007 
L 360.4851 200.516321 
L 361.0152 204.188994 
L 361.5453 208.845942 
L 362.0754 215.310191 
L 362.6055 218.502484 
L 364.1958 230.49374 
L 364.7259 232.084127 
L 365.256 234.921295 
L 365.7861 238.765772 
L 366.3162 240.322087 
L 366.8463 242.941859 
L 367.3764 246.889515 
L 367.9065 249.623984 
L 368.4366 251.271479 
L 369.4968 256.523502 
L 370.557 264.761462 
L 371.0871 266.649387 
L 371.6172 267.73636 
L 372.6774 275.425314 
L 373.2075 277.850727 
L 373.7376 282.953501 
L 374.2677 283.960811 
L 374.7978 288.75453 
L 375.3279 290.402505 
L 375.858 296.935861 
L 376.3881 299.184191 
L 376.9182 302.050152 
L 377.4483 307.382319 
L 377.9784 308.789385 
L 378.5085 309.201139 
L 379.0386 313.920953 
L 379.5687 316.438027 
L 380.0988 323.783852 
L 380.6289 326.95311 
L 381.159 330.83166 
L 381.6891 330.465977 
L 382.2192 336.41563 
L 382.7493 335.482945 
L 383.2794 338.246255 
L 384.3396 341.066674 
L 384.8697 343.569544 
L 386.46 347.908797 
L 386.9901 350.082743 
L 387.5202 349.390488 
L 388.5804 354.459189 
L 389.1105 356.349898 
L 389.6406 357.130791 
L 390.1707 356.581593 
L 390.7008 356.447174 
L 391.2309 355.883675 
L 391.761 358.995825 
L 392.2911 360.606321 
L 392.8212 360.935244 
L 393.3513 361.46443 
L 393.8814 363.1006 
L 394.4115 365.391785 
L 394.9416 370.045709 
L 395.4717 368.103507 
L 396.0018 371.264318 
L 397.062 374.10187 
L 398.1222 376.384465 
L 398.6523 376.679075 
L 399.1824 377.128214 
L 399.7125 378.801547 
L 400.2426 379.42798 
L 400.7727 380.786696 
L 401.3028 380.76667 
L 401.8329 381.550432 
L 402.363 381.527551 
L 402.8931 382.485797 
L 403.4232 382.926305 
L 403.9533 382.934886 
L 404.4834 383.372535 
L 405.0135 383.60137 
L 405.5436 383.692901 
L 406.0737 383.587069 
L 406.6038 383.615671 
L 407.1339 383.495533 
L 407.664 383.504114 
L 408.7242 382.800446 
L 409.7844 383.269558 
L 410.8446 383.15228 
L 411.9048 383.143699 
L 415.0854 383.429744 
L 416.1456 383.649998 
L 418.266 383.612811 
L 425.6874 383.695762 
L 426.2175 383.59279 
L 427.2777 383.575624 
L 428.3379 383.506974 
L 433.6389 383.624252 
L 434.169 383.721508 
L 435.2292 383.692901 
L 437.8797 383.690041 
L 440.0001 383.129398 
L 441.5904 382.256962 
L 442.1205 381.58762 
L 443.1807 380.729487 
L 443.7108 379.980051 
L 445.8312 375.700848 
L 446.3613 373.996004 
L 447.4215 371.610422 
L 448.4817 367.474214 
L 449.0118 365.065741 
L 449.5419 363.86436 
L 450.072 361.976435 
L 450.6021 359.476445 
L 451.6623 357.062165 
L 452.1924 354.60791 
L 452.7225 353.492335 
L 453.7827 350.065563 
L 454.3128 349.13878 
L 454.8429 349.110178 
L 455.9031 346.461419 
L 456.4332 345.191413 
L 457.4934 343.778348 
L 458.0235 343.36645 
L 458.5536 342.508293 
L 459.0837 341.941964 
L 460.674 340.826389 
L 461.2041 340.689089 
L 461.7342 340.088399 
L 462.7944 339.727994 
L 463.8546 339.710814 
L 464.3847 339.384722 
L 467.5653 338.978535 
L 468.0954 338.738249 
L 469.1556 338.91562 
L 469.6857 338.852705 
L 472.8663 339.550623 
L 473.9265 339.916787 
L 474.4566 339.968232 
L 474.9867 340.282902 
L 475.5168 340.734872 
L 476.0469 341.003711 
L 477.1071 341.901892 
L 478.6974 343.635338 
L 480.2877 345.694828 
L 482.9382 350.448859 
L 484.5285 354.842485 
L 485.5887 357.113658 
L 487.179 359.516468 
L 487.7091 360.494744 
L 488.2392 360.952424 
L 488.7693 361.867785 
L 489.2994 362.394091 
L 489.8295 363.080588 
L 490.3596 363.400969 
L 490.8897 364.230476 
L 491.4198 366.07833 
L 491.9499 366.112643 
L 492.48 365.357472 
L 493.5402 364.310571 
L 493.5402 364.310571 
" style="fill:none;stroke:#d62728;stroke-linecap:square;stroke-width:1.5;"/>
   </g>
   <g id="line2d_37">
    <path clip-path="url(#pcedd1a81b9)" d="M 68.13495 348.206287 
L 68.4 349.962576 
L 69.4602 360.58914 
L 69.9903 361.061122 
L 70.5204 366.713333 
L 71.0505 353.031823 
L 71.5806 351.959151 
L 72.1107 340.949387 
L 72.6408 340.151314 
L 73.1709 336.54717 
L 73.701 335.591642 
L 74.2311 333.772486 
L 74.7612 336.713072 
L 75.2913 330.4487 
L 75.8214 332.645201 
L 76.3515 346.936232 
L 77.4117 336.530038 
L 77.9418 336.123851 
L 78.4719 335.088179 
L 79.002 339.367589 
L 79.5321 336.816058 
L 80.5923 319.464755 
L 81.1224 321.838819 
L 81.6525 328.091433 
L 82.1826 324.985042 
L 82.7127 333.183169 
L 83.2428 345.42594 
L 83.7729 342.256586 
L 84.303 355.151396 
L 84.8331 347.285215 
L 85.3632 350.065563 
L 85.8933 341.175372 
L 86.4234 338.33211 
L 86.9535 339.642188 
L 87.4836 339.888185 
L 88.0137 352.680008 
L 88.5438 346.896209 
L 89.0739 344.745154 
L 89.604 339.865293 
L 90.1341 327.24489 
L 90.6642 335.122492 
L 91.1943 346.318409 
L 91.7244 344.041525 
L 92.2545 337.800045 
L 92.7846 324.08139 
L 93.3147 319.258398 
L 93.8448 317.015826 
L 94.3749 310.969089 
L 94.905 319.659114 
L 95.4351 314.825084 
L 95.9652 306.712858 
L 96.4953 306.266552 
L 97.0254 305.345624 
L 97.5555 295.139596 
L 98.0856 307.479258 
L 98.6157 306.65575 
L 99.1458 301.587049 
L 99.6759 316.266703 
L 100.206 307.342007 
L 100.7361 318.909511 
L 101.2662 320.917411 
L 101.7963 324.687504 
L 102.3264 332.925943 
L 102.8565 325.08822 
L 103.3866 321.935759 
L 103.9167 324.32134 
L 104.4468 327.376382 
L 104.9769 328.812242 
L 105.507 322.444932 
L 106.0371 319.756534 
L 106.5672 320.44279 
L 107.0973 323.291955 
L 107.6274 323.944139 
L 108.1575 321.958794 
L 108.6876 314.933541 
L 109.2177 314.218491 
L 109.7478 311.369326 
L 110.2779 303.989427 
L 111.3381 305.614368 
L 111.8682 309.349908 
L 112.3983 304.801898 
L 112.9284 301.735818 
L 113.4585 297.239157 
L 113.9886 295.151114 
L 114.5187 295.116561 
L 115.0488 300.745785 
L 115.5789 297.8971 
L 116.109 300.825928 
L 116.6391 307.439427 
L 117.1692 307.942841 
L 117.6993 310.082235 
L 118.2294 303.869452 
L 118.7595 306.237758 
L 119.2896 303.183196 
L 119.8197 302.462386 
L 120.3498 293.835228 
L 120.8799 300.253888 
L 121.41 295.482724 
L 121.9401 300.28844 
L 122.4702 284.784319 
L 123.0003 292.668112 
L 123.5304 298.171603 
L 124.0605 273.262406 
L 124.5906 292.427682 
L 125.1207 272.690365 
L 125.6508 271.729606 
L 126.1809 275.138814 
L 126.711 276.511807 
L 127.2411 277.152953 
L 127.7712 289.006957 
L 128.3013 272.244058 
L 128.8314 269.807128 
L 129.3615 275.665264 
L 129.8916 260.333426 
L 130.9518 264.921748 
L 131.4819 259.006024 
L 132.012 248.319616 
L 132.5421 259.509439 
L 133.0722 240.516446 
L 133.6023 259.69276 
L 134.1324 262.404194 
L 134.6625 261.077271 
L 135.1926 279.979083 
L 135.7227 272.553114 
L 136.2528 296.420928 
L 136.7829 297.61108 
L 137.313 292.164697 
L 137.8431 306.283828 
L 138.3732 303.961113 
L 138.9033 319.784848 
L 139.4334 297.073112 
L 139.9635 326.833136 
L 140.4936 315.734494 
L 141.0237 314.235767 
L 141.5538 286.924192 
L 142.0839 330.288414 
L 142.614 313.686282 
L 143.1441 328.984046 
L 143.6742 297.885582 
L 144.2043 301.386451 
L 144.7344 315.677386 
L 145.2645 313.343153 
L 145.7946 318.789536 
L 146.3247 308.846493 
L 146.8548 316.363642 
L 147.3849 320.379924 
L 147.915 295.517277 
L 148.4451 317.199148 
L 148.9752 306.455152 
L 149.5053 303.183196 
L 150.5655 322.370548 
L 151.0956 325.116534 
L 151.6257 319.853474 
L 152.1558 315.986441 
L 152.6859 314.670556 
L 153.216 315.769047 
L 153.7461 299.944832 
L 154.2762 307.942841 
L 154.8063 284.200761 
L 155.3364 285.058822 
L 155.8665 285.185035 
L 156.3966 287.278838 
L 156.9267 288.376849 
L 157.4568 285.104892 
L 157.9869 277.519117 
L 158.517 272.152878 
L 159.0471 269.166461 
L 160.1073 254.040501 
L 160.6374 249.566875 
L 161.1675 248.354169 
L 161.6976 252.038359 
L 162.2277 254.520881 
L 162.7578 252.335897 
L 163.818 250.505079 
L 164.3481 251.534944 
L 164.8782 252.301344 
L 165.4083 254.910079 
L 165.9384 255.013258 
L 166.4685 255.390459 
L 166.9986 260.859876 
L 168.5889 246.225813 
L 169.119 247.770611 
L 169.6491 244.784195 
L 170.1792 235.196277 
L 170.7093 235.802391 
L 171.2394 233.457121 
L 171.7695 233.674515 
L 173.3598 224.887071 
L 173.8899 222.564356 
L 174.42 219.189221 
L 174.9501 218.925756 
L 175.4802 217.598833 
L 176.0103 219.326472 
L 176.5404 214.40654 
L 177.0705 218.216464 
L 177.6006 211.2488 
L 178.1307 208.70869 
L 178.6608 207.575647 
L 179.1909 207.633235 
L 179.721 206.614888 
L 180.2511 206.546262 
L 180.7812 204.635301 
L 181.3113 206.809247 
L 181.8414 207.08375 
L 182.3715 204.623783 
L 182.9016 202.735858 
L 183.4317 204.372316 
L 183.9618 204.486532 
L 184.4919 202.301069 
L 185.022 201.683438 
L 185.5521 202.827519 
L 186.0822 205.321558 
L 186.6123 204.669374 
L 187.1424 204.451979 
L 187.6725 204.074778 
L 188.2026 202.747375 
L 188.7327 203.033396 
L 189.2628 204.692409 
L 189.7929 204.154921 
L 190.323 204.01719 
L 191.3832 208.307974 
L 191.9133 209.795663 
L 192.4434 208.914567 
L 194.0337 214.189145 
L 194.5638 211.237282 
L 195.0939 213.822982 
L 195.624 219.62401 
L 196.1541 222.552838 
L 196.6842 227.507323 
L 197.2143 228.102399 
L 197.7444 228.124954 
L 198.2745 234.738453 
L 198.8046 238.445679 
L 199.8648 249.829861 
L 200.3949 253.742963 
L 200.925 260.104514 
L 203.0454 278.765896 
L 204.1056 283.308627 
L 204.6357 285.528164 
L 205.1658 286.283046 
L 205.6959 288.731974 
L 206.226 288.651831 
L 206.7561 289.555962 
L 207.2862 288.068273 
L 207.8163 292.267396 
L 208.3464 292.347539 
L 209.4066 291.524031 
L 209.9367 292.873989 
L 210.4668 290.242219 
L 210.9969 293.937927 
L 212.5872 281.500845 
L 213.1173 280.859699 
L 213.6474 268.193705 
L 214.1775 268.834851 
L 214.7076 261.408882 
L 215.2377 267.930719 
L 215.7678 241.546311 
L 216.2979 251.260442 
L 216.828 246.695155 
L 217.3581 257.255829 
L 217.8882 277.255652 
L 218.4183 286.878122 
L 218.9484 323.114392 
L 219.4785 285.802666 
L 220.0086 299.132842 
L 220.5387 309.315835 
L 221.0688 266.752086 
L 221.5989 322.691121 
L 222.129 282.221654 
L 223.1892 303.961113 
L 223.7193 264.475441 
L 224.2494 288.411401 
L 224.7795 318.640767 
L 225.3096 251.878073 
L 225.8397 277.392903 
L 226.8999 238.58293 
L 227.43 278.193856 
L 227.9601 267.541521 
L 228.4902 244.28078 
L 229.0203 289.246907 
L 229.5504 320.597318 
L 230.0805 294.521485 
L 230.6106 292.862472 
L 231.1407 322.679603 
L 231.6708 318.022656 
L 232.2009 262.107136 
L 232.731 303.743719 
L 233.2611 332.759898 
L 233.7912 333.709619 
L 234.3213 316.627107 
L 234.8514 323.89231 
L 235.3815 322.347992 
L 235.9116 322.324957 
L 236.4417 305.631644 
L 236.9718 320.986517 
L 237.5019 312.038786 
L 238.032 311.718693 
L 238.5621 324.876584 
L 239.0922 329.819072 
L 239.6223 313.949747 
L 240.1524 321.203911 
L 240.6825 314.178659 
L 241.2126 309.315835 
L 241.7427 308.182791 
L 242.2728 315.150936 
L 242.8029 308.5264 
L 243.333 310.482951 
L 243.8631 311.180725 
L 244.3932 316.924645 
L 244.9233 307.622268 
L 245.4534 306.054916 
L 245.9835 306.27231 
L 246.5136 312.828221 
L 247.5738 290.757151 
L 248.634 296.020692 
L 249.1641 296.969934 
L 249.6942 297.473828 
L 250.2243 295.368508 
L 250.7544 286.100204 
L 251.2845 289.475819 
L 251.8146 296.592732 
L 252.3447 299.76199 
L 252.8748 291.295119 
L 253.4049 286.946747 
L 253.935 286.443332 
L 254.4651 292.748255 
L 254.9952 292.15318 
L 255.5253 292.370574 
L 256.0554 286.74087 
L 256.5855 283.891705 
L 257.1156 285.036266 
L 257.6457 284.521334 
L 258.1758 280.733965 
L 258.7059 280.99695 
L 259.236 278.743341 
L 259.7661 278.250964 
L 260.2962 277.038257 
L 260.8263 270.940171 
L 261.8865 270.32206 
L 262.4166 268.21674 
L 262.9467 268.800298 
L 263.4768 266.363367 
L 264.0069 265.962651 
L 264.537 266.39744 
L 265.0671 265.276394 
L 265.5972 261.145897 
L 266.1273 261.99244 
L 266.6574 263.674489 
L 267.1875 259.955745 
L 267.7176 259.452331 
L 268.2477 258.136445 
L 268.7778 259.475366 
L 269.3079 261.477507 
L 269.838 259.143755 
L 270.8982 262.873536 
L 271.4283 261.637794 
L 271.9584 257.129616 
L 272.4885 259.898637 
L 273.0186 258.274177 
L 273.5487 261.351774 
L 274.0788 261.889741 
L 274.6089 261.283148 
L 275.6691 266.72953 
L 276.1992 263.388468 
L 276.7293 264.807052 
L 277.2594 264.726909 
L 277.7895 265.173215 
L 278.8497 275.345171 
L 279.3798 276.374556 
L 279.9099 277.038257 
L 280.44 279.372489 
L 280.9701 283.365735 
L 282.0303 286.832531 
L 282.5604 287.26732 
L 283.0905 287.873434 
L 283.6206 292.954132 
L 284.6808 300.059528 
L 285.2109 302.496459 
L 285.741 303.080017 
L 286.2711 304.487563 
L 286.8012 309.395978 
L 287.3313 310.013609 
L 287.8614 312.187555 
L 288.3915 312.061821 
L 288.9216 314.235767 
L 289.4517 317.38199 
L 289.9818 322.416618 
L 290.5119 322.714156 
L 291.042 325.95204 
L 291.5721 328.388971 
L 292.1022 329.235994 
L 292.6323 331.249653 
L 293.1624 332.359181 
L 293.6925 333.068953 
L 294.2226 332.920184 
L 294.7527 334.727774 
L 295.2828 334.704883 
L 295.8129 334.979482 
L 296.343 336.215368 
L 296.8731 336.833239 
L 297.4032 337.096368 
L 297.9333 338.343531 
L 298.4634 338.160449 
L 298.9935 337.14215 
L 299.5236 337.279449 
L 300.0537 336.10096 
L 300.5838 333.160134 
L 301.1139 333.583405 
L 301.644 331.901837 
L 303.7644 330.460218 
L 304.2945 329.601677 
L 304.8246 330.11661 
L 305.3547 330.047984 
L 305.8848 330.517326 
L 307.4751 331.066331 
L 308.0052 330.97467 
L 308.5353 331.192065 
L 309.0654 330.952115 
L 309.5955 331.398422 
L 310.1256 332.016053 
L 310.6557 332.210412 
L 311.1858 331.833211 
L 311.7159 331.855766 
L 312.246 331.615816 
L 312.7761 332.096196 
L 313.3062 333.217242 
L 313.8363 332.279038 
L 314.3664 332.611129 
L 314.8965 333.286348 
L 315.4266 333.743692 
L 315.9567 332.98881 
L 316.4868 332.908666 
L 317.547 332.313591 
L 318.0771 331.867284 
L 318.6072 331.615816 
L 319.1373 330.860454 
L 319.6674 329.704856 
L 320.1975 329.052672 
L 321.2577 326.420902 
L 321.7878 324.89914 
L 323.3781 321.821542 
L 323.9082 321.764434 
L 325.4985 318.560624 
L 326.5587 315.528617 
L 327.0888 314.373018 
L 327.6189 312.942917 
L 328.149 311.844426 
L 329.7393 302.439351 
L 330.2694 300.368584 
L 331.3296 293.73205 
L 332.3898 283.079715 
L 333.9801 268.445652 
L 335.0403 257.724691 
L 335.5704 247.907862 
L 336.1005 242.46148 
L 337.1607 225.711059 
L 337.6908 219.738226 
L 338.2209 211.831878 
L 338.751 200.584947 
L 339.2811 194.119738 
L 340.3413 171.682504 
L 341.9316 138.135592 
L 342.4617 128.936394 
L 343.5219 107.517508 
L 344.052 96.739439 
L 344.5821 90.102905 
L 345.6423 72.322619 
L 346.1724 66.006659 
L 346.7025 62.894989 
L 348.2928 50.263067 
L 348.8229 47.745993 
L 349.353 48.9587 
L 349.8831 47.769028 
L 350.4132 48.9587 
L 350.9433 47.150918 
L 352.0035 58.043682 
L 352.5336 64.267982 
L 353.5938 81.819356 
L 354.1239 89.714187 
L 355.1841 109.531167 
L 355.7142 114.954514 
L 356.2443 125.709548 
L 358.8948 167.128736 
L 359.4249 172.368761 
L 359.955 179.737622 
L 360.4851 185.183524 
L 361.0152 188.684873 
L 362.6055 205.07009 
L 363.1356 208.342527 
L 363.6657 213.491371 
L 364.1958 216.626076 
L 364.7259 217.587316 
L 365.7861 224.383656 
L 366.8463 229.00605 
L 367.3764 232.64465 
L 367.9065 235.436227 
L 368.4366 237.610173 
L 368.9667 238.685628 
L 369.4968 243.445754 
L 370.0269 245.848132 
L 370.557 249.234785 
L 371.0871 251.065602 
L 371.6172 255.00174 
L 372.1473 257.908013 
L 372.6774 260.104514 
L 373.2075 261.798081 
L 374.2677 270.127701 
L 374.7978 272.599184 
L 375.3279 277.084327 
L 375.858 276.809345 
L 377.4483 287.633484 
L 377.9784 289.532927 
L 378.5085 292.187733 
L 379.0386 297.565009 
L 379.5687 298.045869 
L 380.0988 304.727513 
L 380.6289 306.924494 
L 381.159 314.086998 
L 381.6891 316.123693 
L 382.7493 324.819476 
L 383.2794 324.773406 
L 383.8095 324.842031 
L 384.3396 325.826306 
L 384.8697 331.684442 
L 385.3998 329.87666 
L 385.9299 333.858388 
L 386.46 335.96366 
L 386.9901 338.984245 
L 387.5202 340.197096 
L 388.0503 344.510627 
L 388.5804 346.284096 
L 389.6406 353.641104 
L 390.1707 357.336764 
L 390.7008 358.995825 
L 392.2911 367.331156 
L 392.8212 366.953619 
L 393.3513 367.365517 
L 393.8814 368.555428 
L 394.4115 369.053132 
L 394.9416 370.334609 
L 395.4717 370.958238 
L 396.0018 372.268317 
L 396.5319 372.823225 
L 397.062 372.817514 
L 397.5921 373.481119 
L 398.6523 376.272888 
L 399.1824 377.21114 
L 399.7125 378.6242 
L 400.2426 380.586462 
L 400.7727 381.164276 
L 401.3028 382.291288 
L 401.8329 382.202613 
L 402.363 382.5001 
L 402.8931 382.265543 
L 403.4232 382.411426 
L 403.9533 382.425728 
L 404.4834 382.617377 
L 405.0135 382.686028 
L 406.0737 383.129398 
L 406.6038 383.026421 
L 407.1339 383.183742 
L 407.664 382.95205 
L 408.1941 382.992096 
L 409.2543 383.421163 
L 409.7844 383.355374 
L 411.3747 383.6786 
L 414.0252 383.695762 
L 414.5553 383.75011 
L 415.6155 383.621392 
L 416.6757 383.721508 
L 417.7359 383.681461 
L 418.266 383.732949 
L 418.7961 383.638553 
L 419.3262 383.74153 
L 421.4466 383.66716 
L 424.0971 383.692901 
L 425.1573 383.718648 
L 427.2777 383.684321 
L 429.9282 383.758691 
L 430.9884 383.67574 
L 432.0486 383.715788 
L 433.1088 383.74153 
L 434.169 383.681461 
L 438.4098 383.59565 
L 441.0603 382.657424 
L 442.6506 381.152835 
L 443.1807 380.534979 
L 444.771 377.849028 
L 445.3011 376.993746 
L 446.8914 373.403904 
L 447.4215 371.43881 
L 447.9516 369.942723 
L 448.4817 367.465624 
L 451.1322 358.209173 
L 452.1924 354.945423 
L 453.7827 351.149656 
L 454.3128 349.851047 
L 455.373 348.011784 
L 455.9031 346.447118 
L 456.4332 346.069533 
L 458.0235 343.543773 
L 458.5536 342.745748 
L 460.674 340.717691 
L 461.2041 340.40878 
L 461.7342 340.328684 
L 463.3245 339.687922 
L 463.8546 339.401902 
L 464.3847 339.419035 
L 465.4449 339.115834 
L 466.5051 338.801212 
L 467.0352 338.9328 
L 467.5653 338.869837 
L 468.6255 338.532324 
L 469.1556 338.452228 
L 470.2158 338.503722 
L 470.7459 338.47512 
L 472.8663 338.990004 
L 473.3964 339.127303 
L 473.9265 339.441926 
L 474.4566 340.265722 
L 474.9867 340.471695 
L 475.5168 340.179916 
L 476.0469 340.734872 
L 476.577 341.638763 
L 477.1071 341.346984 
L 477.6372 341.930494 
L 478.1673 342.817253 
L 479.7576 344.035766 
L 480.2877 344.979729 
L 480.8178 345.528926 
L 481.878 347.273794 
L 482.4081 348.120481 
L 485.0586 354.413406 
L 485.5887 355.500379 
L 486.1188 356.329886 
L 487.179 358.395135 
L 487.7091 359.064451 
L 488.7693 361.158397 
L 489.8295 362.193829 
L 490.8897 363.515377 
L 491.4198 365.660673 
L 491.9499 364.951285 
L 492.48 364.722469 
L 493.5402 365.334581 
L 493.5402 365.334581 
" style="fill:none;stroke:#9467bd;stroke-linecap:square;stroke-width:1.5;"/>
   </g>
   <g id="patch_3">
    <path d="M 68.4 385.1208 
L 68.4 51.9264 
" style="fill:none;stroke:#000000;stroke-linecap:square;stroke-linejoin:miter;stroke-width:0.8;"/>
   </g>
   <g id="patch_4">
    <path d="M 492.48 385.1208 
L 492.48 51.9264 
" style="fill:none;stroke:#000000;stroke-linecap:square;stroke-linejoin:miter;stroke-width:0.8;"/>
   </g>
   <g id="patch_5">
    <path d="M 68.4 385.1208 
L 492.48 385.1208 
" style="fill:none;stroke:#000000;stroke-linecap:square;stroke-linejoin:miter;stroke-width:0.8;"/>
   </g>
   <g id="patch_6">
    <path d="M 68.4 51.9264 
L 492.48 51.9264 
" style="fill:none;stroke:#000000;stroke-linecap:square;stroke-linejoin:miter;stroke-width:0.8;"/>
   </g>
   <g id="text_19">
    <!-- Long. Resistivity for different $V_\mathrm{g}$, Sample D230831B, $T$= 15 mK -->
    <g transform="translate(90.84 45.9264)scale(0.12 -0.12)">
     <defs>
      <path d="M 628 4666 
L 1259 4666 
L 1259 531 
L 3531 531 
L 3531 0 
L 628 0 
L 628 4666 
z
" id="DejaVuSans-4c" transform="scale(0.015625)"/>
      <path d="M 1959 3097 
Q 1497 3097 1228 2736 
Q 959 2375 959 1747 
Q 959 1119 1226 758 
Q 1494 397 1959 397 
Q 2419 397 2687 759 
Q 2956 1122 2956 1747 
Q 2956 2369 2687 2733 
Q 2419 3097 1959 3097 
z
M 1959 3584 
Q 2709 3584 3137 3096 
Q 3566 2609 3566 1747 
Q 3566 888 3137 398 
Q 2709 -91 1959 -91 
Q 1206 -91 779 398 
Q 353 888 353 1747 
Q 353 2609 779 3096 
Q 1206 3584 1959 3584 
z
" id="DejaVuSans-6f" transform="scale(0.015625)"/>
      <path d="M 3513 2113 
L 3513 0 
L 2938 0 
L 2938 2094 
Q 2938 2591 2744 2837 
Q 2550 3084 2163 3084 
Q 1697 3084 1428 2787 
Q 1159 2491 1159 1978 
L 1159 0 
L 581 0 
L 581 3500 
L 1159 3500 
L 1159 2956 
Q 1366 3272 1645 3428 
Q 1925 3584 2291 3584 
Q 2894 3584 3203 3211 
Q 3513 2838 3513 2113 
z
" id="DejaVuSans-6e" transform="scale(0.015625)"/>
      <path d="M 2906 1791 
Q 2906 2416 2648 2759 
Q 2391 3103 1925 3103 
Q 1463 3103 1205 2759 
Q 947 2416 947 1791 
Q 947 1169 1205 825 
Q 1463 481 1925 481 
Q 2391 481 2648 825 
Q 2906 1169 2906 1791 
z
M 3481 434 
Q 3481 -459 3084 -895 
Q 2688 -1331 1869 -1331 
Q 1566 -1331 1297 -1286 
Q 1028 -1241 775 -1147 
L 775 -588 
Q 1028 -725 1275 -790 
Q 1522 -856 1778 -856 
Q 2344 -856 2625 -561 
Q 2906 -266 2906 331 
L 2906 616 
Q 2728 306 2450 153 
Q 2172 0 1784 0 
Q 1141 0 747 490 
Q 353 981 353 1791 
Q 353 2603 747 3093 
Q 1141 3584 1784 3584 
Q 2172 3584 2450 3431 
Q 2728 3278 2906 2969 
L 2906 3500 
L 3481 3500 
L 3481 434 
z
" id="DejaVuSans-67" transform="scale(0.015625)"/>
      <path d="M 2841 2188 
Q 3044 2119 3236 1894 
Q 3428 1669 3622 1275 
L 4263 0 
L 3584 0 
L 2988 1197 
Q 2756 1666 2539 1819 
Q 2322 1972 1947 1972 
L 1259 1972 
L 1259 0 
L 628 0 
L 628 4666 
L 2053 4666 
Q 2853 4666 3247 4331 
Q 3641 3997 3641 3322 
Q 3641 2881 3436 2590 
Q 3231 2300 2841 2188 
z
M 1259 4147 
L 1259 2491 
L 2053 2491 
Q 2509 2491 2742 2702 
Q 2975 2913 2975 3322 
Q 2975 3731 2742 3939 
Q 2509 4147 2053 4147 
L 1259 4147 
z
" id="DejaVuSans-52" transform="scale(0.015625)"/>
      <path d="M 3597 1894 
L 3597 1613 
L 953 1613 
Q 991 1019 1311 708 
Q 1631 397 2203 397 
Q 2534 397 2845 478 
Q 3156 559 3463 722 
L 3463 178 
Q 3153 47 2828 -22 
Q 2503 -91 2169 -91 
Q 1331 -91 842 396 
Q 353 884 353 1716 
Q 353 2575 817 3079 
Q 1281 3584 2069 3584 
Q 2775 3584 3186 3129 
Q 3597 2675 3597 1894 
z
M 3022 2063 
Q 3016 2534 2758 2815 
Q 2500 3097 2075 3097 
Q 1594 3097 1305 2825 
Q 1016 2553 972 2059 
L 3022 2063 
z
" id="DejaVuSans-65" transform="scale(0.015625)"/>
      <path d="M 2834 3397 
L 2834 2853 
Q 2591 2978 2328 3040 
Q 2066 3103 1784 3103 
Q 1356 3103 1142 2972 
Q 928 2841 928 2578 
Q 928 2378 1081 2264 
Q 1234 2150 1697 2047 
L 1894 2003 
Q 2506 1872 2764 1633 
Q 3022 1394 3022 966 
Q 3022 478 2636 193 
Q 2250 -91 1575 -91 
Q 1294 -91 989 -36 
Q 684 19 347 128 
L 347 722 
Q 666 556 975 473 
Q 1284 391 1588 391 
Q 1994 391 2212 530 
Q 2431 669 2431 922 
Q 2431 1156 2273 1281 
Q 2116 1406 1581 1522 
L 1381 1569 
Q 847 1681 609 1914 
Q 372 2147 372 2553 
Q 372 3047 722 3315 
Q 1072 3584 1716 3584 
Q 2034 3584 2315 3537 
Q 2597 3491 2834 3397 
z
" id="DejaVuSans-73" transform="scale(0.015625)"/>
      <path d="M 603 3500 
L 1178 3500 
L 1178 0 
L 603 0 
L 603 3500 
z
M 603 4863 
L 1178 4863 
L 1178 4134 
L 603 4134 
L 603 4863 
z
" id="DejaVuSans-69" transform="scale(0.015625)"/>
      <path d="M 1172 4494 
L 1172 3500 
L 2356 3500 
L 2356 3053 
L 1172 3053 
L 1172 1153 
Q 1172 725 1289 603 
Q 1406 481 1766 481 
L 2356 481 
L 2356 0 
L 1766 0 
Q 1100 0 847 248 
Q 594 497 594 1153 
L 594 3053 
L 172 3053 
L 172 3500 
L 594 3500 
L 594 4494 
L 1172 4494 
z
" id="DejaVuSans-74" transform="scale(0.015625)"/>
      <path d="M 191 3500 
L 800 3500 
L 1894 563 
L 2988 3500 
L 3597 3500 
L 2284 0 
L 1503 0 
L 191 3500 
z
" id="DejaVuSans-76" transform="scale(0.015625)"/>
      <path d="M 2059 -325 
Q 1816 -950 1584 -1140 
Q 1353 -1331 966 -1331 
L 506 -1331 
L 506 -850 
L 844 -850 
Q 1081 -850 1212 -737 
Q 1344 -625 1503 -206 
L 1606 56 
L 191 3500 
L 800 3500 
L 1894 763 
L 2988 3500 
L 3597 3500 
L 2059 -325 
z
" id="DejaVuSans-79" transform="scale(0.015625)"/>
      <path d="M 2375 4863 
L 2375 4384 
L 1825 4384 
Q 1516 4384 1395 4259 
Q 1275 4134 1275 3809 
L 1275 3500 
L 2222 3500 
L 2222 3053 
L 1275 3053 
L 1275 0 
L 697 0 
L 697 3053 
L 147 3053 
L 147 3500 
L 697 3500 
L 697 3744 
Q 697 4328 969 4595 
Q 1241 4863 1831 4863 
L 2375 4863 
z
" id="DejaVuSans-66" transform="scale(0.015625)"/>
      <path d="M 2631 2963 
Q 2534 3019 2420 3045 
Q 2306 3072 2169 3072 
Q 1681 3072 1420 2755 
Q 1159 2438 1159 1844 
L 1159 0 
L 581 0 
L 581 3500 
L 1159 3500 
L 1159 2956 
Q 1341 3275 1631 3429 
Q 1922 3584 2338 3584 
Q 2397 3584 2469 3576 
Q 2541 3569 2628 3553 
L 2631 2963 
z
" id="DejaVuSans-72" transform="scale(0.015625)"/>
      <path d="M 2906 2969 
L 2906 4863 
L 3481 4863 
L 3481 0 
L 2906 0 
L 2906 525 
Q 2725 213 2448 61 
Q 2172 -91 1784 -91 
Q 1150 -91 751 415 
Q 353 922 353 1747 
Q 353 2572 751 3078 
Q 1150 3584 1784 3584 
Q 2172 3584 2448 3432 
Q 2725 3281 2906 2969 
z
M 947 1747 
Q 947 1113 1208 752 
Q 1469 391 1925 391 
Q 2381 391 2643 752 
Q 2906 1113 2906 1747 
Q 2906 2381 2643 2742 
Q 2381 3103 1925 3103 
Q 1469 3103 1208 2742 
Q 947 2381 947 1747 
z
" id="DejaVuSans-64" transform="scale(0.015625)"/>
      <path d="M 1319 0 
L 500 4666 
L 1119 4666 
L 1797 653 
L 4063 4666 
L 4750 4666 
L 2053 0 
L 1319 0 
z
" id="DejaVuSans-Oblique-56" transform="scale(0.015625)"/>
      <path d="M 750 794 
L 1409 794 
L 1409 256 
L 897 -744 
L 494 -744 
L 750 256 
L 750 794 
z
" id="DejaVuSans-2c" transform="scale(0.015625)"/>
      <path d="M 3425 4513 
L 3425 3897 
Q 3066 4069 2747 4153 
Q 2428 4238 2131 4238 
Q 1616 4238 1336 4038 
Q 1056 3838 1056 3469 
Q 1056 3159 1242 3001 
Q 1428 2844 1947 2747 
L 2328 2669 
Q 3034 2534 3370 2195 
Q 3706 1856 3706 1288 
Q 3706 609 3251 259 
Q 2797 -91 1919 -91 
Q 1588 -91 1214 -16 
Q 841 59 441 206 
L 441 856 
Q 825 641 1194 531 
Q 1563 422 1919 422 
Q 2459 422 2753 634 
Q 3047 847 3047 1241 
Q 3047 1584 2836 1778 
Q 2625 1972 2144 2069 
L 1759 2144 
Q 1053 2284 737 2584 
Q 422 2884 422 3419 
Q 422 4038 858 4394 
Q 1294 4750 2059 4750 
Q 2388 4750 2728 4690 
Q 3069 4631 3425 4513 
z
" id="DejaVuSans-53" transform="scale(0.015625)"/>
      <path d="M 2194 1759 
Q 1497 1759 1228 1600 
Q 959 1441 959 1056 
Q 959 750 1161 570 
Q 1363 391 1709 391 
Q 2188 391 2477 730 
Q 2766 1069 2766 1631 
L 2766 1759 
L 2194 1759 
z
M 3341 1997 
L 3341 0 
L 2766 0 
L 2766 531 
Q 2569 213 2275 61 
Q 1981 -91 1556 -91 
Q 1019 -91 701 211 
Q 384 513 384 1019 
Q 384 1609 779 1909 
Q 1175 2209 1959 2209 
L 2766 2209 
L 2766 2266 
Q 2766 2663 2505 2880 
Q 2244 3097 1772 3097 
Q 1472 3097 1187 3025 
Q 903 2953 641 2809 
L 641 3341 
Q 956 3463 1253 3523 
Q 1550 3584 1831 3584 
Q 2591 3584 2966 3190 
Q 3341 2797 3341 1997 
z
" id="DejaVuSans-61" transform="scale(0.015625)"/>
      <path d="M 1159 525 
L 1159 -1331 
L 581 -1331 
L 581 3500 
L 1159 3500 
L 1159 2969 
Q 1341 3281 1617 3432 
Q 1894 3584 2278 3584 
Q 2916 3584 3314 3078 
Q 3713 2572 3713 1747 
Q 3713 922 3314 415 
Q 2916 -91 2278 -91 
Q 1894 -91 1617 61 
Q 1341 213 1159 525 
z
M 3116 1747 
Q 3116 2381 2855 2742 
Q 2594 3103 2138 3103 
Q 1681 3103 1420 2742 
Q 1159 2381 1159 1747 
Q 1159 1113 1420 752 
Q 1681 391 2138 391 
Q 2594 391 2855 752 
Q 3116 1113 3116 1747 
z
" id="DejaVuSans-70" transform="scale(0.015625)"/>
      <path d="M 603 4863 
L 1178 4863 
L 1178 0 
L 603 0 
L 603 4863 
z
" id="DejaVuSans-6c" transform="scale(0.015625)"/>
      <path d="M 1259 4147 
L 1259 519 
L 2022 519 
Q 2988 519 3436 956 
Q 3884 1394 3884 2338 
Q 3884 3275 3436 3711 
Q 2988 4147 2022 4147 
L 1259 4147 
z
M 628 4666 
L 1925 4666 
Q 3281 4666 3915 4102 
Q 4550 3538 4550 2338 
Q 4550 1131 3912 565 
Q 3275 0 1925 0 
L 628 0 
L 628 4666 
z
" id="DejaVuSans-44" transform="scale(0.015625)"/>
      <path d="M 1259 2228 
L 1259 519 
L 2272 519 
Q 2781 519 3026 730 
Q 3272 941 3272 1375 
Q 3272 1813 3026 2020 
Q 2781 2228 2272 2228 
L 1259 2228 
z
M 1259 4147 
L 1259 2741 
L 2194 2741 
Q 2656 2741 2882 2914 
Q 3109 3088 3109 3444 
Q 3109 3797 2882 3972 
Q 2656 4147 2194 4147 
L 1259 4147 
z
M 628 4666 
L 2241 4666 
Q 2963 4666 3353 4366 
Q 3744 4066 3744 3513 
Q 3744 3084 3544 2831 
Q 3344 2578 2956 2516 
Q 3422 2416 3680 2098 
Q 3938 1781 3938 1306 
Q 3938 681 3513 340 
Q 3088 0 2303 0 
L 628 0 
L 628 4666 
z
" id="DejaVuSans-42" transform="scale(0.015625)"/>
      <path d="M 378 4666 
L 4325 4666 
L 4225 4134 
L 2559 4134 
L 1759 0 
L 1125 0 
L 1925 4134 
L 275 4134 
L 378 4666 
z
" id="DejaVuSans-Oblique-54" transform="scale(0.015625)"/>
      <path d="M 678 2906 
L 4684 2906 
L 4684 2381 
L 678 2381 
L 678 2906 
z
M 678 1631 
L 4684 1631 
L 4684 1100 
L 678 1100 
L 678 1631 
z
" id="DejaVuSans-3d" transform="scale(0.015625)"/>
      <path d="M 628 4666 
L 1259 4666 
L 1259 2694 
L 3353 4666 
L 4166 4666 
L 1850 2491 
L 4331 0 
L 3500 0 
L 1259 2247 
L 1259 0 
L 628 0 
L 628 4666 
z
" id="DejaVuSans-4b" transform="scale(0.015625)"/>
     </defs>
     <use transform="translate(0 0.015625)" xlink:href="#DejaVuSans-4c"/>
     <use transform="translate(55.712891 0.015625)" xlink:href="#DejaVuSans-6f"/>
     <use transform="translate(116.894531 0.015625)" xlink:href="#DejaVuSans-6e"/>
     <use transform="translate(180.273438 0.015625)" xlink:href="#DejaVuSans-67"/>
     <use transform="translate(243.75 0.015625)" xlink:href="#DejaVuSans-2e"/>
     <use transform="translate(275.537109 0.015625)" xlink:href="#DejaVuSans-20"/>
     <use transform="translate(307.324219 0.015625)" xlink:href="#DejaVuSans-52"/>
     <use transform="translate(376.806641 0.015625)" xlink:href="#DejaVuSans-65"/>
     <use transform="translate(438.330078 0.015625)" xlink:href="#DejaVuSans-73"/>
     <use transform="translate(490.429688 0.015625)" xlink:href="#DejaVuSans-69"/>
     <use transform="translate(518.212891 0.015625)" xlink:href="#DejaVuSans-73"/>
     <use transform="translate(570.3125 0.015625)" xlink:href="#DejaVuSans-74"/>
     <use transform="translate(609.521484 0.015625)" xlink:href="#DejaVuSans-69"/>
     <use transform="translate(637.304688 0.015625)" xlink:href="#DejaVuSans-76"/>
     <use transform="translate(696.484375 0.015625)" xlink:href="#DejaVuSans-69"/>
     <use transform="translate(724.267578 0.015625)" xlink:href="#DejaVuSans-74"/>
     <use transform="translate(763.476562 0.015625)" xlink:href="#DejaVuSans-79"/>
     <use transform="translate(822.65625 0.015625)" xlink:href="#DejaVuSans-20"/>
     <use transform="translate(854.443359 0.015625)" xlink:href="#DejaVuSans-66"/>
     <use transform="translate(889.648438 0.015625)" xlink:href="#DejaVuSans-6f"/>
     <use transform="translate(950.830078 0.015625)" xlink:href="#DejaVuSans-72"/>
     <use transform="translate(991.943359 0.015625)" xlink:href="#DejaVuSans-20"/>
     <use transform="translate(1023.730469 0.015625)" xlink:href="#DejaVuSans-64"/>
     <use transform="translate(1087.207031 0.015625)" xlink:href="#DejaVuSans-69"/>
     <use transform="translate(1114.990234 0.015625)" xlink:href="#DejaVuSans-66"/>
     <use transform="translate(1150.195312 0.015625)" xlink:href="#DejaVuSans-66"/>
     <use transform="translate(1185.400391 0.015625)" xlink:href="#DejaVuSans-65"/>
     <use transform="translate(1246.923828 0.015625)" xlink:href="#DejaVuSans-72"/>
     <use transform="translate(1288.037109 0.015625)" xlink:href="#DejaVuSans-65"/>
     <use transform="translate(1349.560547 0.015625)" xlink:href="#DejaVuSans-6e"/>
     <use transform="translate(1412.939453 0.015625)" xlink:href="#DejaVuSans-74"/>
     <use transform="translate(1452.148438 0.015625)" xlink:href="#DejaVuSans-20"/>
     <use transform="translate(1483.935547 0.015625)" xlink:href="#DejaVuSans-Oblique-56"/>
     <use transform="translate(1552.34375 -16.390625)scale(0.7)" xlink:href="#DejaVuSans-67"/>
     <use transform="translate(1599.511719 0.015625)" xlink:href="#DejaVuSans-2c"/>
     <use transform="translate(1631.298828 0.015625)" xlink:href="#DejaVuSans-20"/>
     <use transform="translate(1663.085938 0.015625)" xlink:href="#DejaVuSans-53"/>
     <use transform="translate(1726.5625 0.015625)" xlink:href="#DejaVuSans-61"/>
     <use transform="translate(1787.841797 0.015625)" xlink:href="#DejaVuSans-6d"/>
     <use transform="translate(1885.253906 0.015625)" xlink:href="#DejaVuSans-70"/>
     <use transform="translate(1948.730469 0.015625)" xlink:href="#DejaVuSans-6c"/>
     <use transform="translate(1976.513672 0.015625)" xlink:href="#DejaVuSans-65"/>
     <use transform="translate(2038.037109 0.015625)" xlink:href="#DejaVuSans-20"/>
     <use transform="translate(2069.824219 0.015625)" xlink:href="#DejaVuSans-44"/>
     <use transform="translate(2146.826172 0.015625)" xlink:href="#DejaVuSans-32"/>
     <use transform="translate(2210.449219 0.015625)" xlink:href="#DejaVuSans-33"/>
     <use transform="translate(2274.072266 0.015625)" xlink:href="#DejaVuSans-30"/>
     <use transform="translate(2337.695312 0.015625)" xlink:href="#DejaVuSans-38"/>
     <use transform="translate(2401.318359 0.015625)" xlink:href="#DejaVuSans-33"/>
     <use transform="translate(2464.941406 0.015625)" xlink:href="#DejaVuSans-31"/>
     <use transform="translate(2528.564453 0.015625)" xlink:href="#DejaVuSans-42"/>
     <use transform="translate(2597.167969 0.015625)" xlink:href="#DejaVuSans-2c"/>
     <use transform="translate(2628.955078 0.015625)" xlink:href="#DejaVuSans-20"/>
     <use transform="translate(2660.742188 0.015625)" xlink:href="#DejaVuSans-Oblique-54"/>
     <use transform="translate(2721.826172 0.015625)" xlink:href="#DejaVuSans-3d"/>
     <use transform="translate(2805.615234 0.015625)" xlink:href="#DejaVuSans-20"/>
     <use transform="translate(2837.402344 0.015625)" xlink:href="#DejaVuSans-31"/>
     <use transform="translate(2901.025391 0.015625)" xlink:href="#DejaVuSans-35"/>
     <use transform="translate(2964.648438 0.015625)" xlink:href="#DejaVuSans-20"/>
     <use transform="translate(2996.435547 0.015625)" xlink:href="#DejaVuSans-6d"/>
     <use transform="translate(3093.847656 0.015625)" xlink:href="#DejaVuSans-4b"/>
    </g>
   </g>
   <g id="legend_1">
    <g id="patch_7">
     <path d="M 75.4 138.418588 
L 166.2 138.418588 
Q 168.2 138.418588 168.2 136.418588 
L 168.2 58.9264 
Q 168.2 56.9264 166.2 56.9264 
L 75.4 56.9264 
Q 73.4 56.9264 73.4 58.9264 
L 73.4 136.418588 
Q 73.4 138.418588 75.4 138.418588 
z
" style="fill:#ffffff;opacity:0.8;stroke:#cccccc;stroke-linejoin:miter;"/>
    </g>
    <g id="line2d_38">
     <path d="M 77.4 65.024837 
L 97.4 65.024837 
" style="fill:none;stroke:#1f77b4;stroke-linecap:square;stroke-width:1.5;"/>
    </g>
    <g id="line2d_39"/>
    <g id="text_20">
     <!-- $V_\mathrm{g}$=   0mV -->
     <g transform="translate(105.4 68.524837)scale(0.1 -0.1)">
      <defs>
       <path d="M 1831 0 
L 50 4666 
L 709 4666 
L 2188 738 
L 3669 4666 
L 4325 4666 
L 2547 0 
L 1831 0 
z
" id="DejaVuSans-56" transform="scale(0.015625)"/>
      </defs>
      <use transform="translate(0 0.78125)" xlink:href="#DejaVuSans-Oblique-56"/>
      <use transform="translate(68.408203 -15.625)scale(0.7)" xlink:href="#DejaVuSans-67"/>
      <use transform="translate(115.576172 0.78125)" xlink:href="#DejaVuSans-3d"/>
      <use transform="translate(199.365234 0.78125)" xlink:href="#DejaVuSans-20"/>
      <use transform="translate(231.152344 0.78125)" xlink:href="#DejaVuSans-20"/>
      <use transform="translate(262.939453 0.78125)" xlink:href="#DejaVuSans-20"/>
      <use transform="translate(294.726562 0.78125)" xlink:href="#DejaVuSans-30"/>
      <use transform="translate(358.349609 0.78125)" xlink:href="#DejaVuSans-6d"/>
      <use transform="translate(455.761719 0.78125)" xlink:href="#DejaVuSans-56"/>
     </g>
    </g>
    <g id="line2d_40">
     <path d="M 77.4 80.723275 
L 97.4 80.723275 
" style="fill:none;stroke:#ff7f0e;stroke-linecap:square;stroke-width:1.5;"/>
    </g>
    <g id="line2d_41"/>
    <g id="text_21">
     <!-- $V_\mathrm{g}$= 100mV -->
     <g transform="translate(105.4 84.223275)scale(0.1 -0.1)">
      <use transform="translate(0 0.78125)" xlink:href="#DejaVuSans-Oblique-56"/>
      <use transform="translate(68.408203 -15.625)scale(0.7)" xlink:href="#DejaVuSans-67"/>
      <use transform="translate(115.576172 0.78125)" xlink:href="#DejaVuSans-3d"/>
      <use transform="translate(199.365234 0.78125)" xlink:href="#DejaVuSans-20"/>
      <use transform="translate(231.152344 0.78125)" xlink:href="#DejaVuSans-31"/>
      <use transform="translate(294.775391 0.78125)" xlink:href="#DejaVuSans-30"/>
      <use transform="translate(358.398438 0.78125)" xlink:href="#DejaVuSans-30"/>
      <use transform="translate(422.021484 0.78125)" xlink:href="#DejaVuSans-6d"/>
      <use transform="translate(519.433594 0.78125)" xlink:href="#DejaVuSans-56"/>
     </g>
    </g>
    <g id="line2d_42">
     <path d="M 77.4 96.421713 
L 97.4 96.421713 
" style="fill:none;stroke:#2ca02c;stroke-linecap:square;stroke-width:1.5;"/>
    </g>
    <g id="line2d_43"/>
    <g id="text_22">
     <!-- $V_\mathrm{g}$= 150mV -->
     <g transform="translate(105.4 99.921713)scale(0.1 -0.1)">
      <use transform="translate(0 0.78125)" xlink:href="#DejaVuSans-Oblique-56"/>
      <use transform="translate(68.408203 -15.625)scale(0.7)" xlink:href="#DejaVuSans-67"/>
      <use transform="translate(115.576172 0.78125)" xlink:href="#DejaVuSans-3d"/>
      <use transform="translate(199.365234 0.78125)" xlink:href="#DejaVuSans-20"/>
      <use transform="translate(231.152344 0.78125)" xlink:href="#DejaVuSans-31"/>
      <use transform="translate(294.775391 0.78125)" xlink:href="#DejaVuSans-35"/>
      <use transform="translate(358.398438 0.78125)" xlink:href="#DejaVuSans-30"/>
      <use transform="translate(422.021484 0.78125)" xlink:href="#DejaVuSans-6d"/>
      <use transform="translate(519.433594 0.78125)" xlink:href="#DejaVuSans-56"/>
     </g>
    </g>
    <g id="line2d_44">
     <path d="M 77.4 112.12015 
L 97.4 112.12015 
" style="fill:none;stroke:#d62728;stroke-linecap:square;stroke-width:1.5;"/>
    </g>
    <g id="line2d_45"/>
    <g id="text_23">
     <!-- $V_\mathrm{g}$= 450mV -->
     <g transform="translate(105.4 115.62015)scale(0.1 -0.1)">
      <use transform="translate(0 0.78125)" xlink:href="#DejaVuSans-Oblique-56"/>
      <use transform="translate(68.408203 -15.625)scale(0.7)" xlink:href="#DejaVuSans-67"/>
      <use transform="translate(115.576172 0.78125)" xlink:href="#DejaVuSans-3d"/>
      <use transform="translate(199.365234 0.78125)" xlink:href="#DejaVuSans-20"/>
      <use transform="translate(231.152344 0.78125)" xlink:href="#DejaVuSans-34"/>
      <use transform="translate(294.775391 0.78125)" xlink:href="#DejaVuSans-35"/>
      <use transform="translate(358.398438 0.78125)" xlink:href="#DejaVuSans-30"/>
      <use transform="translate(422.021484 0.78125)" xlink:href="#DejaVuSans-6d"/>
      <use transform="translate(519.433594 0.78125)" xlink:href="#DejaVuSans-56"/>
     </g>
    </g>
    <g id="line2d_46">
     <path d="M 77.4 127.818587 
L 97.4 127.818587 
" style="fill:none;stroke:#9467bd;stroke-linecap:square;stroke-width:1.5;"/>
    </g>
    <g id="line2d_47"/>
    <g id="text_24">
     <!-- $V_\mathrm{g}$= 500mV -->
     <g transform="translate(105.4 131.318587)scale(0.1 -0.1)">
      <use transform="translate(0 0.78125)" xlink:href="#DejaVuSans-Oblique-56"/>
      <use transform="translate(68.408203 -15.625)scale(0.7)" xlink:href="#DejaVuSans-67"/>
      <use transform="translate(115.576172 0.78125)" xlink:href="#DejaVuSans-3d"/>
      <use transform="translate(199.365234 0.78125)" xlink:href="#DejaVuSans-20"/>
      <use transform="translate(231.152344 0.78125)" xlink:href="#DejaVuSans-35"/>
      <use transform="translate(294.775391 0.78125)" xlink:href="#DejaVuSans-30"/>
      <use transform="translate(358.398438 0.78125)" xlink:href="#DejaVuSans-30"/>
      <use transform="translate(422.021484 0.78125)" xlink:href="#DejaVuSans-6d"/>
      <use transform="translate(519.433594 0.78125)" xlink:href="#DejaVuSans-56"/>
     </g>
    </g>
   </g>
  </g>
 </g>
 <defs>
  <clipPath id="pcedd1a81b9">
   <rect height="333.1944" width="424.08" x="68.4" y="51.9264"/>
  </clipPath>
 </defs>
</svg>
