<?xml version="1.0" encoding="utf-8" standalone="no"?>
<!DOCTYPE svg PUBLIC "-//W3C//DTD SVG 1.1//EN"
  "http://www.w3.org/Graphics/SVG/1.1/DTD/svg11.dtd">
<svg height="385.2pt" version="1.1" viewBox="0 0 535.68 385.2" width="535.68pt" xmlns="http://www.w3.org/2000/svg" xmlns:xlink="http://www.w3.org/1999/xlink">
 <metadata>
  <rdf:RDF xmlns:cc="http://creativecommons.org/ns#" xmlns:dc="http://purl.org/dc/elements/1.1/" xmlns:rdf="http://www.w3.org/1999/02/22-rdf-syntax-ns#">
   <cc:Work>
    <dc:type rdf:resource="http://purl.org/dc/dcmitype/StillImage"/>
    <dc:date>2023-10-27T04:15:25.089364</dc:date>
    <dc:format>image/svg+xml</dc:format>
    <dc:creator>
     <cc:Agent>
      <dc:title>Matplotlib v3.4.3, https://matplotlib.org/</dc:title>
     </cc:Agent>
    </dc:creator>
   </cc:Work>
  </rdf:RDF>
 </metadata>
 <defs>
  <style type="text/css">*{stroke-linecap:butt;stroke-linejoin:round;}</style>
 </defs>
 <g id="figure_1">
  <g id="patch_1">
   <path d="M 0 385.2 
L 535.68 385.2 
L 535.68 0 
L 0 0 
z
" style="fill:#ffffff;"/>
  </g>
  <g id="axes_1">
   <g id="patch_2">
    <path d="M 66.96 342.828 
L 482.112 342.828 
L 482.112 46.224 
L 66.96 46.224 
z
" style="fill:#ffffff;"/>
   </g>
   <g id="PathCollection_1">
    <defs>
     <path d="M 0 3 
C 0.795609 3 1.55874 2.683901 2.12132 2.12132 
C 2.683901 1.55874 3 0.795609 3 0 
C 3 -0.795609 2.683901 -1.55874 2.12132 -2.12132 
C 1.55874 -2.683901 0.795609 -3 0 -3 
C -0.795609 -3 -1.55874 -2.683901 -2.12132 -2.12132 
C -2.683901 -1.55874 -3 -0.795609 -3 0 
C -3 0.795609 -2.683901 1.55874 -2.12132 2.12132 
C -1.55874 2.683901 -0.795609 3 0 3 
z
" id="mc90b0d973e" style="stroke:#0000ff;"/>
    </defs>
    <g clip-path="url(#p8853447f74)">
     <use style="fill:#0000ff;stroke:#0000ff;" x="309.132" xlink:href="#mc90b0d973e" y="328.289241"/>
     <use style="fill:#0000ff;stroke:#0000ff;" x="368.888727" xlink:href="#mc90b0d973e" y="328.625414"/>
    </g>
   </g>
   <g id="PathCollection_2">
    <defs>
     <path d="M 0 3 
C 0.795609 3 1.55874 2.683901 2.12132 2.12132 
C 2.683901 1.55874 3 0.795609 3 0 
C 3 -0.795609 2.683901 -1.55874 2.12132 -2.12132 
C 1.55874 -2.683901 0.795609 -3 0 -3 
C -0.795609 -3 -1.55874 -2.683901 -2.12132 -2.12132 
C -2.683901 -1.55874 -3 -0.795609 -3 0 
C -3 0.795609 -2.683901 1.55874 -2.12132 2.12132 
C -1.55874 2.683901 -0.795609 3 0 3 
z
" id="m61856343ed" style="stroke:#ff0000;"/>
    </defs>
    <g clip-path="url(#p8853447f74)">
     <use style="fill:#ff0000;stroke:#ff0000;" x="202.198909" xlink:href="#m61856343ed" y="327.882217"/>
     <use style="fill:#ff0000;stroke:#ff0000;" x="224.214545" xlink:href="#m61856343ed" y="327.963621"/>
    </g>
   </g>
   <g id="PathCollection_3">
    <defs>
     <path d="M 0 3 
C 0.795609 3 1.55874 2.683901 2.12132 2.12132 
C 2.683901 1.55874 3 0.795609 3 0 
C 3 -0.795609 2.683901 -1.55874 2.12132 -2.12132 
C 1.55874 -2.683901 0.795609 -3 0 -3 
C -0.795609 -3 -1.55874 -2.683901 -2.12132 -2.12132 
C -2.683901 -1.55874 -3 -0.795609 -3 0 
C -3 0.795609 -2.683901 1.55874 -2.12132 2.12132 
C -1.55874 2.683901 -0.795609 3 0 3 
z
" id="m8707ed82fe" style="stroke:#ffa500;"/>
    </defs>
    <g clip-path="url(#p8853447f74)">
     <use style="fill:#ffa500;stroke:#ffa500;" x="165.244091" xlink:href="#m8707ed82fe" y="327.799303"/>
     <use style="fill:#ffa500;stroke:#ffa500;" x="174.679364" xlink:href="#m8707ed82fe" y="327.808349"/>
    </g>
   </g>
   <g id="PathCollection_4">
    <defs>
     <path d="M 0 3 
C 0.795609 3 1.55874 2.683901 2.12132 2.12132 
C 2.683901 1.55874 3 0.795609 3 0 
C 3 -0.795609 2.683901 -1.55874 2.12132 -2.12132 
C 1.55874 -2.683901 0.795609 -3 0 -3 
C -0.795609 -3 -1.55874 -2.683901 -2.12132 -2.12132 
C -2.683901 -1.55874 -3 -0.795609 -3 0 
C -3 0.795609 -2.683901 1.55874 -2.12132 2.12132 
C -1.55874 2.683901 -0.795609 3 0 3 
z
" id="m556ed06224" style="stroke:#800080;"/>
    </defs>
    <g clip-path="url(#p8853447f74)">
     <use style="fill:#800080;stroke:#800080;" x="144.801" xlink:href="#m556ed06224" y="327.746164"/>
     <use style="fill:#800080;stroke:#800080;" x="152.663727" xlink:href="#m556ed06224" y="327.753325"/>
    </g>
   </g>
   <g id="PathCollection_5">
    <g clip-path="url(#p8853447f74)">
     <use style="fill:#800080;stroke:#800080;" x="133.006909" xlink:href="#m556ed06224" y="327.558103"/>
     <use style="fill:#800080;stroke:#800080;" x="139.297091" xlink:href="#m556ed06224" y="327.734858"/>
    </g>
   </g>
   <g id="PathCollection_6">
    <g clip-path="url(#p8853447f74)">
     <use style="fill:#800080;stroke:#800080;" x="125.144182" xlink:href="#m556ed06224" y="327.651192"/>
     <use style="fill:#800080;stroke:#800080;" x="129.861818" xlink:href="#m556ed06224" y="327.691894"/>
    </g>
   </g>
   <g id="PathCollection_7">
    <g clip-path="url(#p8853447f74)">
     <use style="fill:#800080;stroke:#800080;" x="120.426545" xlink:href="#m556ed06224" y="327.642147"/>
     <use style="fill:#800080;stroke:#800080;" x="123.571636" xlink:href="#m556ed06224" y="327.673804"/>
    </g>
   </g>
   <g id="PathCollection_8">
    <g clip-path="url(#p8853447f74)">
     <use style="fill:#800080;stroke:#800080;" x="115.708909" xlink:href="#m556ed06224" y="327.673239"/>
     <use style="fill:#800080;stroke:#800080;" x="118.539491" xlink:href="#m556ed06224" y="327.682755"/>
    </g>
   </g>
   <g id="matplotlib.axis_1">
    <g id="xtick_1">
     <g id="line2d_1">
      <path clip-path="url(#p8853447f74)" d="M 85.830545 342.828 
L 85.830545 46.224 
" style="fill:none;stroke:#b0b0b0;stroke-linecap:square;stroke-width:0.8;"/>
     </g>
     <g id="line2d_2">
      <defs>
       <path d="M 0 0 
L 0 3.5 
" id="m5f764665eb" style="stroke:#000000;stroke-width:0.8;"/>
      </defs>
      <g>
       <use style="stroke:#000000;stroke-width:0.8;" x="85.830545" xlink:href="#m5f764665eb" y="342.828"/>
      </g>
     </g>
     <g id="text_1">
      <!-- 0 -->
      <g transform="translate(82.649295 357.426438)scale(0.1 -0.1)">
       <defs>
        <path d="M 2034 4250 
Q 1547 4250 1301 3770 
Q 1056 3291 1056 2328 
Q 1056 1369 1301 889 
Q 1547 409 2034 409 
Q 2525 409 2770 889 
Q 3016 1369 3016 2328 
Q 3016 3291 2770 3770 
Q 2525 4250 2034 4250 
z
M 2034 4750 
Q 2819 4750 3233 4129 
Q 3647 3509 3647 2328 
Q 3647 1150 3233 529 
Q 2819 -91 2034 -91 
Q 1250 -91 836 529 
Q 422 1150 422 2328 
Q 422 3509 836 4129 
Q 1250 4750 2034 4750 
z
" id="DejaVuSans-30" transform="scale(0.015625)"/>
       </defs>
       <use xlink:href="#DejaVuSans-30"/>
      </g>
     </g>
    </g>
    <g id="xtick_2">
     <g id="line2d_3">
      <path clip-path="url(#p8853447f74)" d="M 148.732364 342.828 
L 148.732364 46.224 
" style="fill:none;stroke:#b0b0b0;stroke-linecap:square;stroke-width:0.8;"/>
     </g>
     <g id="line2d_4">
      <g>
       <use style="stroke:#000000;stroke-width:0.8;" x="148.732364" xlink:href="#m5f764665eb" y="342.828"/>
      </g>
     </g>
     <g id="text_2">
      <!-- 2 -->
      <g transform="translate(145.551114 357.426438)scale(0.1 -0.1)">
       <defs>
        <path d="M 1228 531 
L 3431 531 
L 3431 0 
L 469 0 
L 469 531 
Q 828 903 1448 1529 
Q 2069 2156 2228 2338 
Q 2531 2678 2651 2914 
Q 2772 3150 2772 3378 
Q 2772 3750 2511 3984 
Q 2250 4219 1831 4219 
Q 1534 4219 1204 4116 
Q 875 4013 500 3803 
L 500 4441 
Q 881 4594 1212 4672 
Q 1544 4750 1819 4750 
Q 2544 4750 2975 4387 
Q 3406 4025 3406 3419 
Q 3406 3131 3298 2873 
Q 3191 2616 2906 2266 
Q 2828 2175 2409 1742 
Q 1991 1309 1228 531 
z
" id="DejaVuSans-32" transform="scale(0.015625)"/>
       </defs>
       <use xlink:href="#DejaVuSans-32"/>
      </g>
     </g>
    </g>
    <g id="xtick_3">
     <g id="line2d_5">
      <path clip-path="url(#p8853447f74)" d="M 211.634182 342.828 
L 211.634182 46.224 
" style="fill:none;stroke:#b0b0b0;stroke-linecap:square;stroke-width:0.8;"/>
     </g>
     <g id="line2d_6">
      <g>
       <use style="stroke:#000000;stroke-width:0.8;" x="211.634182" xlink:href="#m5f764665eb" y="342.828"/>
      </g>
     </g>
     <g id="text_3">
      <!-- 4 -->
      <g transform="translate(208.452932 357.426438)scale(0.1 -0.1)">
       <defs>
        <path d="M 2419 4116 
L 825 1625 
L 2419 1625 
L 2419 4116 
z
M 2253 4666 
L 3047 4666 
L 3047 1625 
L 3713 1625 
L 3713 1100 
L 3047 1100 
L 3047 0 
L 2419 0 
L 2419 1100 
L 313 1100 
L 313 1709 
L 2253 4666 
z
" id="DejaVuSans-34" transform="scale(0.015625)"/>
       </defs>
       <use xlink:href="#DejaVuSans-34"/>
      </g>
     </g>
    </g>
    <g id="xtick_4">
     <g id="line2d_7">
      <path clip-path="url(#p8853447f74)" d="M 274.536 342.828 
L 274.536 46.224 
" style="fill:none;stroke:#b0b0b0;stroke-linecap:square;stroke-width:0.8;"/>
     </g>
     <g id="line2d_8">
      <g>
       <use style="stroke:#000000;stroke-width:0.8;" x="274.536" xlink:href="#m5f764665eb" y="342.828"/>
      </g>
     </g>
     <g id="text_4">
      <!-- 6 -->
      <g transform="translate(271.35475 357.426438)scale(0.1 -0.1)">
       <defs>
        <path d="M 2113 2584 
Q 1688 2584 1439 2293 
Q 1191 2003 1191 1497 
Q 1191 994 1439 701 
Q 1688 409 2113 409 
Q 2538 409 2786 701 
Q 3034 994 3034 1497 
Q 3034 2003 2786 2293 
Q 2538 2584 2113 2584 
z
M 3366 4563 
L 3366 3988 
Q 3128 4100 2886 4159 
Q 2644 4219 2406 4219 
Q 1781 4219 1451 3797 
Q 1122 3375 1075 2522 
Q 1259 2794 1537 2939 
Q 1816 3084 2150 3084 
Q 2853 3084 3261 2657 
Q 3669 2231 3669 1497 
Q 3669 778 3244 343 
Q 2819 -91 2113 -91 
Q 1303 -91 875 529 
Q 447 1150 447 2328 
Q 447 3434 972 4092 
Q 1497 4750 2381 4750 
Q 2619 4750 2861 4703 
Q 3103 4656 3366 4563 
z
" id="DejaVuSans-36" transform="scale(0.015625)"/>
       </defs>
       <use xlink:href="#DejaVuSans-36"/>
      </g>
     </g>
    </g>
    <g id="xtick_5">
     <g id="line2d_9">
      <path clip-path="url(#p8853447f74)" d="M 337.437818 342.828 
L 337.437818 46.224 
" style="fill:none;stroke:#b0b0b0;stroke-linecap:square;stroke-width:0.8;"/>
     </g>
     <g id="line2d_10">
      <g>
       <use style="stroke:#000000;stroke-width:0.8;" x="337.437818" xlink:href="#m5f764665eb" y="342.828"/>
      </g>
     </g>
     <g id="text_5">
      <!-- 8 -->
      <g transform="translate(334.256568 357.426438)scale(0.1 -0.1)">
       <defs>
        <path d="M 2034 2216 
Q 1584 2216 1326 1975 
Q 1069 1734 1069 1313 
Q 1069 891 1326 650 
Q 1584 409 2034 409 
Q 2484 409 2743 651 
Q 3003 894 3003 1313 
Q 3003 1734 2745 1975 
Q 2488 2216 2034 2216 
z
M 1403 2484 
Q 997 2584 770 2862 
Q 544 3141 544 3541 
Q 544 4100 942 4425 
Q 1341 4750 2034 4750 
Q 2731 4750 3128 4425 
Q 3525 4100 3525 3541 
Q 3525 3141 3298 2862 
Q 3072 2584 2669 2484 
Q 3125 2378 3379 2068 
Q 3634 1759 3634 1313 
Q 3634 634 3220 271 
Q 2806 -91 2034 -91 
Q 1263 -91 848 271 
Q 434 634 434 1313 
Q 434 1759 690 2068 
Q 947 2378 1403 2484 
z
M 1172 3481 
Q 1172 3119 1398 2916 
Q 1625 2713 2034 2713 
Q 2441 2713 2670 2916 
Q 2900 3119 2900 3481 
Q 2900 3844 2670 4047 
Q 2441 4250 2034 4250 
Q 1625 4250 1398 4047 
Q 1172 3844 1172 3481 
z
" id="DejaVuSans-38" transform="scale(0.015625)"/>
       </defs>
       <use xlink:href="#DejaVuSans-38"/>
      </g>
     </g>
    </g>
    <g id="xtick_6">
     <g id="line2d_11">
      <path clip-path="url(#p8853447f74)" d="M 400.339636 342.828 
L 400.339636 46.224 
" style="fill:none;stroke:#b0b0b0;stroke-linecap:square;stroke-width:0.8;"/>
     </g>
     <g id="line2d_12">
      <g>
       <use style="stroke:#000000;stroke-width:0.8;" x="400.339636" xlink:href="#m5f764665eb" y="342.828"/>
      </g>
     </g>
     <g id="text_6">
      <!-- 10 -->
      <g transform="translate(393.977136 357.426438)scale(0.1 -0.1)">
       <defs>
        <path d="M 794 531 
L 1825 531 
L 1825 4091 
L 703 3866 
L 703 4441 
L 1819 4666 
L 2450 4666 
L 2450 531 
L 3481 531 
L 3481 0 
L 794 0 
L 794 531 
z
" id="DejaVuSans-31" transform="scale(0.015625)"/>
       </defs>
       <use xlink:href="#DejaVuSans-31"/>
       <use x="63.623047" xlink:href="#DejaVuSans-30"/>
      </g>
     </g>
    </g>
    <g id="xtick_7">
     <g id="line2d_13">
      <path clip-path="url(#p8853447f74)" d="M 463.241455 342.828 
L 463.241455 46.224 
" style="fill:none;stroke:#b0b0b0;stroke-linecap:square;stroke-width:0.8;"/>
     </g>
     <g id="line2d_14">
      <g>
       <use style="stroke:#000000;stroke-width:0.8;" x="463.241455" xlink:href="#m5f764665eb" y="342.828"/>
      </g>
     </g>
     <g id="text_7">
      <!-- 12 -->
      <g transform="translate(456.878955 357.426438)scale(0.1 -0.1)">
       <use xlink:href="#DejaVuSans-31"/>
       <use x="63.623047" xlink:href="#DejaVuSans-32"/>
      </g>
     </g>
    </g>
    <g id="text_8">
     <!-- $B$ (T) -->
     <g transform="translate(262.536 371.104562)scale(0.1 -0.1)">
      <defs>
       <path d="M 1081 4666 
L 2694 4666 
Q 3350 4666 3675 4422 
Q 4000 4178 4000 3688 
Q 4000 3238 3720 2911 
Q 3441 2584 2988 2516 
Q 3375 2428 3569 2181 
Q 3763 1934 3763 1522 
Q 3763 819 3242 409 
Q 2722 0 1819 0 
L 172 0 
L 1081 4666 
z
M 1234 2228 
L 903 519 
L 1919 519 
Q 2491 519 2800 781 
Q 3109 1044 3109 1522 
Q 3109 1891 2904 2059 
Q 2700 2228 2247 2228 
L 1234 2228 
z
M 1606 4147 
L 1331 2741 
L 2272 2741 
Q 2775 2741 3058 2959 
Q 3341 3178 3341 3566 
Q 3341 3869 3150 4008 
Q 2959 4147 2541 4147 
L 1606 4147 
z
" id="DejaVuSans-Oblique-42" transform="scale(0.015625)"/>
       <path id="DejaVuSans-20" transform="scale(0.015625)"/>
       <path d="M 1984 4856 
Q 1566 4138 1362 3434 
Q 1159 2731 1159 2009 
Q 1159 1288 1364 580 
Q 1569 -128 1984 -844 
L 1484 -844 
Q 1016 -109 783 600 
Q 550 1309 550 2009 
Q 550 2706 781 3412 
Q 1013 4119 1484 4856 
L 1984 4856 
z
" id="DejaVuSans-28" transform="scale(0.015625)"/>
       <path d="M -19 4666 
L 3928 4666 
L 3928 4134 
L 2272 4134 
L 2272 0 
L 1638 0 
L 1638 4134 
L -19 4134 
L -19 4666 
z
" id="DejaVuSans-54" transform="scale(0.015625)"/>
       <path d="M 513 4856 
L 1013 4856 
Q 1481 4119 1714 3412 
Q 1947 2706 1947 2009 
Q 1947 1309 1714 600 
Q 1481 -109 1013 -844 
L 513 -844 
Q 928 -128 1133 580 
Q 1338 1288 1338 2009 
Q 1338 2731 1133 3434 
Q 928 4138 513 4856 
z
" id="DejaVuSans-29" transform="scale(0.015625)"/>
      </defs>
      <use transform="translate(0 0.125)" xlink:href="#DejaVuSans-Oblique-42"/>
      <use transform="translate(68.603516 0.125)" xlink:href="#DejaVuSans-20"/>
      <use transform="translate(100.390625 0.125)" xlink:href="#DejaVuSans-28"/>
      <use transform="translate(139.404297 0.125)" xlink:href="#DejaVuSans-54"/>
      <use transform="translate(200.488281 0.125)" xlink:href="#DejaVuSans-29"/>
     </g>
    </g>
   </g>
   <g id="matplotlib.axis_2">
    <g id="ytick_1">
     <g id="line2d_15">
      <path clip-path="url(#p8853447f74)" d="M 66.96 327.630463 
L 482.112 327.630463 
" style="fill:none;stroke:#b0b0b0;stroke-linecap:square;stroke-width:0.8;"/>
     </g>
     <g id="line2d_16">
      <defs>
       <path d="M 0 0 
L -3.5 0 
" id="mc5f97afda7" style="stroke:#000000;stroke-width:0.8;"/>
      </defs>
      <g>
       <use style="stroke:#000000;stroke-width:0.8;" x="66.96" xlink:href="#mc5f97afda7" y="327.630463"/>
      </g>
     </g>
     <g id="text_9">
      <!-- 0.000 -->
      <g transform="translate(31.331875 331.429682)scale(0.1 -0.1)">
       <defs>
        <path d="M 684 794 
L 1344 794 
L 1344 0 
L 684 0 
L 684 794 
z
" id="DejaVuSans-2e" transform="scale(0.015625)"/>
       </defs>
       <use xlink:href="#DejaVuSans-30"/>
       <use x="63.623047" xlink:href="#DejaVuSans-2e"/>
       <use x="95.410156" xlink:href="#DejaVuSans-30"/>
       <use x="159.033203" xlink:href="#DejaVuSans-30"/>
       <use x="222.65625" xlink:href="#DejaVuSans-30"/>
      </g>
     </g>
    </g>
    <g id="ytick_2">
     <g id="line2d_17">
      <path clip-path="url(#p8853447f74)" d="M 66.96 264.401661 
L 482.112 264.401661 
" style="fill:none;stroke:#b0b0b0;stroke-linecap:square;stroke-width:0.8;"/>
     </g>
     <g id="line2d_18">
      <g>
       <use style="stroke:#000000;stroke-width:0.8;" x="66.96" xlink:href="#mc5f97afda7" y="264.401661"/>
      </g>
     </g>
     <g id="text_10">
      <!-- 0.005 -->
      <g transform="translate(31.331875 268.20088)scale(0.1 -0.1)">
       <defs>
        <path d="M 691 4666 
L 3169 4666 
L 3169 4134 
L 1269 4134 
L 1269 2991 
Q 1406 3038 1543 3061 
Q 1681 3084 1819 3084 
Q 2600 3084 3056 2656 
Q 3513 2228 3513 1497 
Q 3513 744 3044 326 
Q 2575 -91 1722 -91 
Q 1428 -91 1123 -41 
Q 819 9 494 109 
L 494 744 
Q 775 591 1075 516 
Q 1375 441 1709 441 
Q 2250 441 2565 725 
Q 2881 1009 2881 1497 
Q 2881 1984 2565 2268 
Q 2250 2553 1709 2553 
Q 1456 2553 1204 2497 
Q 953 2441 691 2322 
L 691 4666 
z
" id="DejaVuSans-35" transform="scale(0.015625)"/>
       </defs>
       <use xlink:href="#DejaVuSans-30"/>
       <use x="63.623047" xlink:href="#DejaVuSans-2e"/>
       <use x="95.410156" xlink:href="#DejaVuSans-30"/>
       <use x="159.033203" xlink:href="#DejaVuSans-30"/>
       <use x="222.65625" xlink:href="#DejaVuSans-35"/>
      </g>
     </g>
    </g>
    <g id="ytick_3">
     <g id="line2d_19">
      <path clip-path="url(#p8853447f74)" d="M 66.96 201.172858 
L 482.112 201.172858 
" style="fill:none;stroke:#b0b0b0;stroke-linecap:square;stroke-width:0.8;"/>
     </g>
     <g id="line2d_20">
      <g>
       <use style="stroke:#000000;stroke-width:0.8;" x="66.96" xlink:href="#mc5f97afda7" y="201.172858"/>
      </g>
     </g>
     <g id="text_11">
      <!-- 0.010 -->
      <g transform="translate(31.331875 204.972077)scale(0.1 -0.1)">
       <use xlink:href="#DejaVuSans-30"/>
       <use x="63.623047" xlink:href="#DejaVuSans-2e"/>
       <use x="95.410156" xlink:href="#DejaVuSans-30"/>
       <use x="159.033203" xlink:href="#DejaVuSans-31"/>
       <use x="222.65625" xlink:href="#DejaVuSans-30"/>
      </g>
     </g>
    </g>
    <g id="ytick_4">
     <g id="line2d_21">
      <path clip-path="url(#p8853447f74)" d="M 66.96 137.944056 
L 482.112 137.944056 
" style="fill:none;stroke:#b0b0b0;stroke-linecap:square;stroke-width:0.8;"/>
     </g>
     <g id="line2d_22">
      <g>
       <use style="stroke:#000000;stroke-width:0.8;" x="66.96" xlink:href="#mc5f97afda7" y="137.944056"/>
      </g>
     </g>
     <g id="text_12">
      <!-- 0.015 -->
      <g transform="translate(31.331875 141.743274)scale(0.1 -0.1)">
       <use xlink:href="#DejaVuSans-30"/>
       <use x="63.623047" xlink:href="#DejaVuSans-2e"/>
       <use x="95.410156" xlink:href="#DejaVuSans-30"/>
       <use x="159.033203" xlink:href="#DejaVuSans-31"/>
       <use x="222.65625" xlink:href="#DejaVuSans-35"/>
      </g>
     </g>
    </g>
    <g id="ytick_5">
     <g id="line2d_23">
      <path clip-path="url(#p8853447f74)" d="M 66.96 74.715253 
L 482.112 74.715253 
" style="fill:none;stroke:#b0b0b0;stroke-linecap:square;stroke-width:0.8;"/>
     </g>
     <g id="line2d_24">
      <g>
       <use style="stroke:#000000;stroke-width:0.8;" x="66.96" xlink:href="#mc5f97afda7" y="74.715253"/>
      </g>
     </g>
     <g id="text_13">
      <!-- 0.020 -->
      <g transform="translate(31.331875 78.514472)scale(0.1 -0.1)">
       <use xlink:href="#DejaVuSans-30"/>
       <use x="63.623047" xlink:href="#DejaVuSans-2e"/>
       <use x="95.410156" xlink:href="#DejaVuSans-30"/>
       <use x="159.033203" xlink:href="#DejaVuSans-32"/>
       <use x="222.65625" xlink:href="#DejaVuSans-30"/>
      </g>
     </g>
    </g>
    <g id="text_14">
     <!-- $\rho_\mathrm{xx}$ ($\Omega$) -->
     <g transform="translate(25.231875 211.326)rotate(-90)scale(0.1 -0.1)">
      <defs>
       <path d="M 1203 2875 
Q 1453 3194 1981 3475 
Q 2188 3584 2756 3584 
Q 3394 3584 3694 3078 
Q 3994 2572 3834 1747 
Q 3672 922 3175 415 
Q 2678 -91 2041 -91 
Q 1656 -91 1409 63 
Q 1163 213 1044 525 
L 681 -1331 
L 103 -1331 
L 697 1716 
Q 838 2438 1203 2875 
z
M 3238 1747 
Q 3359 2381 3169 2744 
Q 2978 3103 2522 3103 
Q 2066 3103 1734 2744 
Q 1403 2381 1281 1747 
Q 1156 1113 1347 750 
Q 1538 391 1994 391 
Q 2450 391 2781 750 
Q 3113 1113 3238 1747 
z
" id="DejaVuSans-Oblique-3c1" transform="scale(0.015625)"/>
       <path d="M 3513 3500 
L 2247 1797 
L 3578 0 
L 2900 0 
L 1881 1375 
L 863 0 
L 184 0 
L 1544 1831 
L 300 3500 
L 978 3500 
L 1906 2253 
L 2834 3500 
L 3513 3500 
z
" id="DejaVuSans-78" transform="scale(0.015625)"/>
       <path d="M 4647 556 
L 4647 0 
L 2772 0 
L 2772 556 
Q 3325 859 3634 1378 
Q 3944 1897 3944 2528 
Q 3944 3278 3531 3731 
Q 3119 4184 2444 4184 
Q 1769 4184 1355 3729 
Q 941 3275 941 2528 
Q 941 1897 1250 1378 
Q 1563 859 2119 556 
L 2119 0 
L 244 0 
L 244 556 
L 1241 556 
Q 747 991 519 1456 
Q 294 1922 294 2497 
Q 294 3491 894 4106 
Q 1491 4722 2444 4722 
Q 3391 4722 3994 4106 
Q 4594 3494 4594 2528 
Q 4594 1922 4372 1459 
Q 4150 997 3647 556 
L 4647 556 
z
" id="DejaVuSans-3a9" transform="scale(0.015625)"/>
      </defs>
      <use transform="translate(0 0.125)" xlink:href="#DejaVuSans-Oblique-3c1"/>
      <use transform="translate(63.476562 -16.28125)scale(0.7)" xlink:href="#DejaVuSans-78"/>
      <use transform="translate(104.902344 -16.28125)scale(0.7)" xlink:href="#DejaVuSans-78"/>
      <use transform="translate(149.0625 0.125)" xlink:href="#DejaVuSans-20"/>
      <use transform="translate(180.849609 0.125)" xlink:href="#DejaVuSans-28"/>
      <use transform="translate(219.863281 0.125)" xlink:href="#DejaVuSans-3a9"/>
      <use transform="translate(296.279297 0.125)" xlink:href="#DejaVuSans-29"/>
     </g>
    </g>
   </g>
   <g id="line2d_25">
    <path clip-path="url(#p8853447f74)" d="M 85.830545 327.11909 
L 86.380936 327.181133 
L 86.931327 327.194372 
L 89.4474 327.206384 
L 89.526027 327.335841 
L 89.683282 327.156354 
L 89.761909 327.311862 
L 89.919164 327.249726 
L 89.997791 327.281666 
L 90.076418 327.143399 
L 90.155045 327.328068 
L 90.233673 327.090919 
L 90.3123 327.347618 
L 90.390927 327.087952 
L 90.469555 327.338339 
L 90.548182 327.191216 
L 90.626809 327.257546 
L 90.705436 327.401747 
L 90.784064 327.025062 
L 90.862691 327.43397 
L 90.941318 327.116736 
L 91.019945 327.210012 
L 91.098573 327.472835 
L 91.1772 326.937485 
L 91.334455 327.48353 
L 91.413082 326.926085 
L 91.570336 327.514292 
L 91.727591 326.974938 
L 91.806218 327.477971 
L 91.884845 327.445701 
L 91.963473 326.762896 
L 92.120727 327.51627 
L 92.199355 327.427327 
L 92.277982 326.716682 
L 92.513864 327.507555 
L 92.671118 326.607719 
L 92.828373 327.561166 
L 92.907 327.467701 
L 93.064255 326.479298 
L 93.221509 327.558951 
L 93.300136 327.546797 
L 93.457391 326.356251 
L 93.536018 326.691761 
L 93.693273 327.585757 
L 93.7719 327.558904 
L 94.007782 326.270134 
L 94.165036 327.534549 
L 94.322291 327.559752 
L 94.558173 325.998402 
L 94.794055 327.626035 
L 94.951309 327.548635 
L 95.187191 325.82824 
L 95.265818 326.305744 
L 95.423073 327.568797 
L 95.658955 327.598523 
L 95.737582 327.321945 
L 95.894836 325.798561 
L 95.973464 325.913979 
L 96.287973 327.633149 
L 96.523855 327.588348 
L 96.602482 327.312664 
L 96.759736 325.741187 
L 96.838364 325.860462 
L 96.995618 326.706082 
L 97.152873 327.576382 
L 97.388755 327.645256 
L 97.546009 327.58081 
L 97.624636 327.26923 
L 97.781891 325.784524 
L 97.860518 325.92689 
L 98.0964 326.734253 
L 98.332282 327.635646 
L 98.725418 327.627637 
L 98.804045 327.503551 
L 99.039927 325.872994 
L 99.118555 326.061807 
L 99.354436 326.410614 
L 99.668945 327.642052 
L 99.983455 327.655149 
L 100.219336 327.613316 
L 100.297964 327.470481 
L 100.533845 325.980596 
L 100.612473 326.35371 
L 100.6911 326.313572 
L 100.769727 326.110342 
L 100.848355 326.184585 
L 101.162864 327.281195 
L 101.398745 327.653264 
L 102.027764 327.561778 
L 102.185018 327.212602 
L 102.342273 325.748635 
L 102.4209 325.855656 
L 102.656782 327.112166 
L 102.892664 326.219816 
L 103.128545 326.982898 
L 103.364427 327.56093 
L 103.678936 327.658729 
L 104.307955 327.614446 
L 104.465209 327.207138 
L 104.779718 325.299875 
L 104.858345 325.659407 
L 105.094227 327.437975 
L 105.251482 327.558857 
L 105.408736 327.275259 
L 105.644618 326.601688 
L 106.273636 327.650909 
L 107.453045 327.650344 
L 107.531673 327.537752 
L 107.688927 326.526408 
L 107.924809 325.270853 
L 108.003436 325.136302 
L 108.082064 325.354897 
L 108.396573 327.511371 
L 108.632455 327.668434 
L 109.182845 327.620759 
L 109.497355 327.190273 
L 109.811864 327.566866 
L 110.440882 327.669847 
L 111.9348 327.617461 
L 112.092055 327.045082 
L 112.406564 325.267085 
L 112.563818 325.534656 
L 113.114209 327.591551 
L 113.428718 327.678232 
L 113.900482 327.676913 
L 114.844009 327.555183 
L 115.001264 326.36765 
L 115.079891 325.673911 
L 115.551655 327.629427 
L 116.337927 327.684451 
L 116.731064 327.680211 
L 117.202827 327.678515 
L 118.854 327.577795 
L 119.011255 327.089647 
L 119.325764 325.019481 
L 119.483018 324.910183 
L 119.640273 325.151009 
L 120.112036 327.2909 
L 120.269291 327.591268 
L 120.898309 327.692648 
L 123.728891 327.590138 
L 123.886145 327.39567 
L 124.0434 326.712018 
L 124.357909 324.716476 
L 124.515164 325.19623 
L 124.829673 326.914779 
L 124.986927 327.500064 
L 125.301436 327.68511 
L 126.244964 327.712622 
L 127.345745 327.689633 
L 128.446527 327.696794 
L 130.176327 327.718652 
L 130.648091 327.617273 
L 130.805345 327.399816 
L 131.119855 326.010276 
L 131.591618 320.233149 
L 131.748873 319.652013 
L 131.906127 319.871354 
L 132.063382 320.90173 
L 132.535145 325.647343 
L 133.006909 327.558103 
L 133.635927 327.729205 
L 137.567291 327.722044 
L 140.083364 327.682849 
L 140.397873 327.494035 
L 140.712382 326.633629 
L 141.026891 324.341086 
L 141.970418 311.988669 
L 142.127673 311.69162 
L 142.284927 312.333899 
L 142.599436 315.764946 
L 143.0712 322.924053 
L 143.385709 325.724988 
L 143.700218 327.052337 
L 144.014727 327.609735 
L 144.329236 327.736366 
L 148.417855 327.754079 
L 149.204127 327.747295 
L 152.978236 327.708853 
L 153.292745 327.380595 
L 153.607255 325.886664 
L 153.921764 322.366653 
L 154.550782 313.735808 
L 155.022545 305.393399 
L 155.808818 295.90655 
L 156.437836 293.250434 
L 156.9096 292.68656 
L 157.066855 292.593108 
L 157.695873 292.99714 
L 158.010382 293.304685 
L 158.6394 294.055463 
L 159.111164 294.507676 
L 160.054691 296.398091 
L 161.155473 300.42311 
L 161.627236 303.34466 
L 162.099 306.836028 
L 163.671545 324.770739 
L 163.986055 326.480241 
L 164.300564 327.163892 
L 164.615073 327.766892 
L 165.401345 327.796289 
L 166.973891 327.799303 
L 168.703691 327.80684 
L 170.433491 327.797042 
L 173.735836 327.787997 
L 174.364855 327.811364 
L 175.780145 327.769153 
L 176.094655 327.543029 
L 176.251909 327.30409 
L 176.566418 326.207385 
L 177.038182 321.604999 
L 177.509945 314.352415 
L 178.138964 300.552729 
L 178.610727 291.950956 
L 179.082491 284.199484 
L 179.554255 279.577459 
L 179.868764 278.024559 
L 180.340527 277.355219 
L 180.655036 277.442601 
L 181.598564 278.983487 
L 182.070327 279.821648 
L 182.384836 280.391466 
L 182.8566 281.09103 
L 183.485618 281.70005 
L 184.271891 282.11306 
L 185.058164 282.29693 
L 186.945218 282.903041 
L 188.046 283.379407 
L 189.146782 283.665833 
L 189.933055 283.683917 
L 191.5056 283.334135 
L 192.449127 282.933138 
L 192.920891 282.806554 
L 193.2354 282.800484 
L 194.021673 282.47789 
L 194.650691 282.399487 
L 194.9652 282.266833 
L 195.279709 282.492939 
L 195.751473 282.47789 
L 196.065982 282.761282 
L 196.223236 282.47182 
L 196.537745 282.866747 
L 196.695 283.111064 
L 197.009509 283.979322 
L 197.324018 284.467701 
L 197.795782 286.846621 
L 198.110291 289.029406 
L 198.739309 294.869471 
L 199.682836 308.081256 
L 199.840091 312.45593 
L 200.1546 315.72123 
L 200.311855 317.361385 
L 200.626364 322.520046 
L 201.098127 325.816935 
L 201.255382 325.895326 
L 201.727145 327.351576 
L 202.041655 327.784982 
L 202.356164 327.87091 
L 207.388309 327.91312 
L 209.747127 327.932717 
L 225.472582 327.841514 
L 225.944345 327.475945 
L 226.258855 326.979978 
L 226.573364 326.182511 
L 226.887873 325.011944 
L 227.359636 321.264271 
L 227.988655 313.253372 
L 229.246691 284.781316 
L 230.190218 265.213898 
L 230.504727 261.396902 
L 230.819236 259.419105 
L 230.976491 259.244214 
L 231.133745 259.612079 
L 231.448255 262.126562 
L 231.762764 266.492258 
L 232.234527 274.029637 
L 232.863545 287.723984 
L 233.492564 299.735686 
L 234.121582 310.167553 
L 234.7506 317.599568 
L 235.536873 323.171277 
L 236.008636 325.126502 
L 236.637655 326.626467 
L 237.109418 327.132988 
L 237.581182 327.517401 
L 238.681964 327.864127 
L 239.468236 327.956083 
L 240.411764 327.995278 
L 241.984309 327.903321 
L 243.085091 327.518908 
L 243.3996 327.206856 
L 244.028618 325.997833 
L 244.343127 324.690843 
L 244.657636 322.611993 
L 245.286655 315.856906 
L 245.915673 305.039065 
L 246.230182 299.829138 
L 246.8592 287.163145 
L 247.488218 275.491993 
L 248.117236 269.579594 
L 248.746255 266.486188 
L 249.060764 265.883238 
L 249.375273 265.587707 
L 250.004291 265.67825 
L 250.633309 266.118323 
L 251.262327 266.462035 
L 251.891345 266.329381 
L 252.520364 265.792821 
L 253.149382 264.839963 
L 253.463891 264.267236 
L 256.923491 254.932768 
L 257.552509 253.744826 
L 258.181527 252.973055 
L 258.810545 252.67158 
L 259.125055 252.701677 
L 259.439564 252.954971 
L 259.754073 253.352933 
L 260.383091 254.727781 
L 261.012109 256.524743 
L 262.270145 262.210909 
L 263.213673 267.276169 
L 264.471709 274.011554 
L 265.729745 280.439773 
L 266.673273 283.732097 
L 267.302291 285.64363 
L 267.931309 286.927933 
L 268.874836 288.001306 
L 269.189345 288.031529 
L 270.447382 287.742068 
L 270.761891 287.977152 
L 271.0764 288.459588 
L 271.390909 289.297749 
L 271.705418 290.913751 
L 272.019927 293.506637 
L 272.648945 301.496355 
L 273.906982 319.061835 
L 274.536 323.397396 
L 275.165018 325.72046 
L 275.794036 326.736514 
L 276.423055 327.206856 
L 277.052073 327.46916 
L 277.9956 327.613881 
L 279.253636 327.526446 
L 280.197164 327.247559 
L 280.511673 327.128466 
L 281.140691 326.555616 
L 281.769709 325.60288 
L 282.398727 324.117977 
L 282.713236 322.905957 
L 283.342255 319.215595 
L 284.285782 311.097649 
L 286.172836 284.606425 
L 286.801855 274.976425 
L 288.3744 256.120711 
L 289.317927 248.643526 
L 290.261455 242.963303 
L 291.204982 238.50719 
L 292.463018 233.695225 
L 294.664582 226.597539 
L 296.237127 224.083056 
L 296.866145 224.698146 
L 297.495164 225.898102 
L 297.809673 227.031795 
L 298.124182 228.66588 
L 298.7532 233.514391 
L 300.011236 248.10684 
L 300.954764 264.39989 
L 301.898291 282.067788 
L 303.470836 306.839063 
L 304.414364 316.44482 
L 305.043382 320.843686 
L 305.6724 323.723025 
L 305.986909 324.9637 
L 306.615927 326.285777 
L 307.244945 327.315396 
L 308.188473 327.972665 
L 308.817491 328.241001 
L 310.704545 328.462605 
L 321.712364 328.455067 
L 323.284909 328.467127 
L 325.800982 328.46562 
L 330.204109 328.462605 
L 331.147636 328.468635 
L 332.720182 328.467127 
L 333.978218 328.45356 
L 335.236255 328.45959 
L 339.324873 328.444515 
L 340.582909 328.452052 
L 344.986036 328.468635 
L 348.131127 328.468635 
L 361.026 328.498785 
L 362.913055 328.510845 
L 366.058145 328.559085 
L 369.203236 328.623907 
L 371.4048 328.286226 
L 372.662836 327.882217 
L 373.920873 327.265648 
L 374.8644 326.448584 
L 375.178909 326.138036 
L 375.493418 325.984276 
L 375.807927 325.334537 
L 376.122436 325.135556 
L 376.751455 323.686845 
L 377.380473 322.2894 
L 377.694982 321.308001 
L 378.009491 320.784896 
L 379.582036 313.229345 
L 380.525564 307.199341 
L 380.840073 303.441147 
L 381.154582 301.38482 
L 382.412618 284.051655 
L 383.356145 268.916324 
L 384.614182 237.795613 
L 384.928691 231.247132 
L 389.331818 85.127772 
L 389.960836 71.211113 
L 390.589855 62.888938 
L 390.904364 60.477391 
L 391.218873 59.946269 
L 391.533382 59.706 
L 391.847891 61.224756 
L 392.1624 63.516168 
L 393.105927 76.251713 
L 393.734945 87.033488 
L 397.509055 168.02832 
L 399.396109 198.925707 
L 400.968655 218.439 
L 401.912182 228.497059 
L 403.799236 242.969373 
L 405.057273 250.10879 
L 406.315309 255.294564 
L 407.258836 257.754796 
L 407.887855 258.912516 
L 408.516873 259.684413 
L 408.831382 260.118542 
L 410.089418 260.311516 
L 411.032945 259.419105 
L 412.92 255.005102 
L 413.863527 251.531944 
L 415.750582 242.462784 
L 416.3796 238.145395 
L 417.008618 234.213828 
L 420.468218 215.15869 
L 420.782727 214.266279 
L 421.097236 212.794945 
L 422.040764 210.431199 
L 422.669782 209.27348 
L 422.984291 209.056352 
L 423.613309 208.139914 
L 423.927818 207.922786 
L 424.242327 208.260428 
L 424.556836 208.429249 
L 425.185855 209.104659 
L 425.500364 208.887531 
L 425.814873 209.056352 
L 426.129382 209.924736 
L 426.7584 211.058302 
L 428.016436 215.88228 
L 428.959964 221.526336 
L 429.274473 224.034876 
L 429.588982 225.43375 
L 429.903491 225.626724 
L 430.532509 230.83703 
L 432.734073 250.66356 
L 433.048582 252.954971 
L 436.508182 291.450437 
L 437.451709 303.136637 
L 437.766218 305.916428 
L 438.080727 307.007884 
L 438.709745 311.554414 
L 439.338764 314.671973 
L 439.653273 315.437826 
L 440.5968 320.931119 
L 440.911309 322.254725 
L 441.225818 322.857726 
L 441.540327 323.918996 
L 441.854836 324.410436 
L 442.483855 326.418434 
L 442.798364 327.027464 
L 443.112873 327.322934 
L 443.427382 327.217407 
L 444.0564 327.362128 
L 444.370909 327.253589 
L 444.999927 327.645538 
L 445.628945 328.293763 
L 445.943455 328.302808 
L 446.886982 328.670639 
L 447.201491 328.501799 
L 448.145018 328.945003 
L 449.088545 329.204292 
L 450.032073 329.346 
L 452.862655 329.285705 
L 454.120691 329.291737 
L 456.007745 329.252535 
L 463.241455 329.246503 
L 463.241455 329.246503 
" style="fill:none;stroke:#1f77b4;stroke-linecap:square;stroke-width:1.5;"/>
   </g>
   <g id="patch_3">
    <path d="M 66.96 342.828 
L 66.96 46.224 
" style="fill:none;stroke:#000000;stroke-linecap:square;stroke-linejoin:miter;stroke-width:0.8;"/>
   </g>
   <g id="patch_4">
    <path d="M 482.112 342.828 
L 482.112 46.224 
" style="fill:none;stroke:#000000;stroke-linecap:square;stroke-linejoin:miter;stroke-width:0.8;"/>
   </g>
   <g id="patch_5">
    <path d="M 66.96 342.828 
L 482.112 342.828 
" style="fill:none;stroke:#000000;stroke-linecap:square;stroke-linejoin:miter;stroke-width:0.8;"/>
   </g>
   <g id="patch_6">
    <path d="M 66.96 46.224 
L 482.112 46.224 
" style="fill:none;stroke:#000000;stroke-linecap:square;stroke-linejoin:miter;stroke-width:0.8;"/>
   </g>
   <g id="text_15">
    <!-- Long. Resistivity with scattered filling factor minima start &amp; endpoints -->
    <g transform="translate(64.383188 40.224)scale(0.12 -0.12)">
     <defs>
      <path d="M 628 4666 
L 1259 4666 
L 1259 531 
L 3531 531 
L 3531 0 
L 628 0 
L 628 4666 
z
" id="DejaVuSans-4c" transform="scale(0.015625)"/>
      <path d="M 1959 3097 
Q 1497 3097 1228 2736 
Q 959 2375 959 1747 
Q 959 1119 1226 758 
Q 1494 397 1959 397 
Q 2419 397 2687 759 
Q 2956 1122 2956 1747 
Q 2956 2369 2687 2733 
Q 2419 3097 1959 3097 
z
M 1959 3584 
Q 2709 3584 3137 3096 
Q 3566 2609 3566 1747 
Q 3566 888 3137 398 
Q 2709 -91 1959 -91 
Q 1206 -91 779 398 
Q 353 888 353 1747 
Q 353 2609 779 3096 
Q 1206 3584 1959 3584 
z
" id="DejaVuSans-6f" transform="scale(0.015625)"/>
      <path d="M 3513 2113 
L 3513 0 
L 2938 0 
L 2938 2094 
Q 2938 2591 2744 2837 
Q 2550 3084 2163 3084 
Q 1697 3084 1428 2787 
Q 1159 2491 1159 1978 
L 1159 0 
L 581 0 
L 581 3500 
L 1159 3500 
L 1159 2956 
Q 1366 3272 1645 3428 
Q 1925 3584 2291 3584 
Q 2894 3584 3203 3211 
Q 3513 2838 3513 2113 
z
" id="DejaVuSans-6e" transform="scale(0.015625)"/>
      <path d="M 2906 1791 
Q 2906 2416 2648 2759 
Q 2391 3103 1925 3103 
Q 1463 3103 1205 2759 
Q 947 2416 947 1791 
Q 947 1169 1205 825 
Q 1463 481 1925 481 
Q 2391 481 2648 825 
Q 2906 1169 2906 1791 
z
M 3481 434 
Q 3481 -459 3084 -895 
Q 2688 -1331 1869 -1331 
Q 1566 -1331 1297 -1286 
Q 1028 -1241 775 -1147 
L 775 -588 
Q 1028 -725 1275 -790 
Q 1522 -856 1778 -856 
Q 2344 -856 2625 -561 
Q 2906 -266 2906 331 
L 2906 616 
Q 2728 306 2450 153 
Q 2172 0 1784 0 
Q 1141 0 747 490 
Q 353 981 353 1791 
Q 353 2603 747 3093 
Q 1141 3584 1784 3584 
Q 2172 3584 2450 3431 
Q 2728 3278 2906 2969 
L 2906 3500 
L 3481 3500 
L 3481 434 
z
" id="DejaVuSans-67" transform="scale(0.015625)"/>
      <path d="M 2841 2188 
Q 3044 2119 3236 1894 
Q 3428 1669 3622 1275 
L 4263 0 
L 3584 0 
L 2988 1197 
Q 2756 1666 2539 1819 
Q 2322 1972 1947 1972 
L 1259 1972 
L 1259 0 
L 628 0 
L 628 4666 
L 2053 4666 
Q 2853 4666 3247 4331 
Q 3641 3997 3641 3322 
Q 3641 2881 3436 2590 
Q 3231 2300 2841 2188 
z
M 1259 4147 
L 1259 2491 
L 2053 2491 
Q 2509 2491 2742 2702 
Q 2975 2913 2975 3322 
Q 2975 3731 2742 3939 
Q 2509 4147 2053 4147 
L 1259 4147 
z
" id="DejaVuSans-52" transform="scale(0.015625)"/>
      <path d="M 3597 1894 
L 3597 1613 
L 953 1613 
Q 991 1019 1311 708 
Q 1631 397 2203 397 
Q 2534 397 2845 478 
Q 3156 559 3463 722 
L 3463 178 
Q 3153 47 2828 -22 
Q 2503 -91 2169 -91 
Q 1331 -91 842 396 
Q 353 884 353 1716 
Q 353 2575 817 3079 
Q 1281 3584 2069 3584 
Q 2775 3584 3186 3129 
Q 3597 2675 3597 1894 
z
M 3022 2063 
Q 3016 2534 2758 2815 
Q 2500 3097 2075 3097 
Q 1594 3097 1305 2825 
Q 1016 2553 972 2059 
L 3022 2063 
z
" id="DejaVuSans-65" transform="scale(0.015625)"/>
      <path d="M 2834 3397 
L 2834 2853 
Q 2591 2978 2328 3040 
Q 2066 3103 1784 3103 
Q 1356 3103 1142 2972 
Q 928 2841 928 2578 
Q 928 2378 1081 2264 
Q 1234 2150 1697 2047 
L 1894 2003 
Q 2506 1872 2764 1633 
Q 3022 1394 3022 966 
Q 3022 478 2636 193 
Q 2250 -91 1575 -91 
Q 1294 -91 989 -36 
Q 684 19 347 128 
L 347 722 
Q 666 556 975 473 
Q 1284 391 1588 391 
Q 1994 391 2212 530 
Q 2431 669 2431 922 
Q 2431 1156 2273 1281 
Q 2116 1406 1581 1522 
L 1381 1569 
Q 847 1681 609 1914 
Q 372 2147 372 2553 
Q 372 3047 722 3315 
Q 1072 3584 1716 3584 
Q 2034 3584 2315 3537 
Q 2597 3491 2834 3397 
z
" id="DejaVuSans-73" transform="scale(0.015625)"/>
      <path d="M 603 3500 
L 1178 3500 
L 1178 0 
L 603 0 
L 603 3500 
z
M 603 4863 
L 1178 4863 
L 1178 4134 
L 603 4134 
L 603 4863 
z
" id="DejaVuSans-69" transform="scale(0.015625)"/>
      <path d="M 1172 4494 
L 1172 3500 
L 2356 3500 
L 2356 3053 
L 1172 3053 
L 1172 1153 
Q 1172 725 1289 603 
Q 1406 481 1766 481 
L 2356 481 
L 2356 0 
L 1766 0 
Q 1100 0 847 248 
Q 594 497 594 1153 
L 594 3053 
L 172 3053 
L 172 3500 
L 594 3500 
L 594 4494 
L 1172 4494 
z
" id="DejaVuSans-74" transform="scale(0.015625)"/>
      <path d="M 191 3500 
L 800 3500 
L 1894 563 
L 2988 3500 
L 3597 3500 
L 2284 0 
L 1503 0 
L 191 3500 
z
" id="DejaVuSans-76" transform="scale(0.015625)"/>
      <path d="M 2059 -325 
Q 1816 -950 1584 -1140 
Q 1353 -1331 966 -1331 
L 506 -1331 
L 506 -850 
L 844 -850 
Q 1081 -850 1212 -737 
Q 1344 -625 1503 -206 
L 1606 56 
L 191 3500 
L 800 3500 
L 1894 763 
L 2988 3500 
L 3597 3500 
L 2059 -325 
z
" id="DejaVuSans-79" transform="scale(0.015625)"/>
      <path d="M 269 3500 
L 844 3500 
L 1563 769 
L 2278 3500 
L 2956 3500 
L 3675 769 
L 4391 3500 
L 4966 3500 
L 4050 0 
L 3372 0 
L 2619 2869 
L 1863 0 
L 1184 0 
L 269 3500 
z
" id="DejaVuSans-77" transform="scale(0.015625)"/>
      <path d="M 3513 2113 
L 3513 0 
L 2938 0 
L 2938 2094 
Q 2938 2591 2744 2837 
Q 2550 3084 2163 3084 
Q 1697 3084 1428 2787 
Q 1159 2491 1159 1978 
L 1159 0 
L 581 0 
L 581 4863 
L 1159 4863 
L 1159 2956 
Q 1366 3272 1645 3428 
Q 1925 3584 2291 3584 
Q 2894 3584 3203 3211 
Q 3513 2838 3513 2113 
z
" id="DejaVuSans-68" transform="scale(0.015625)"/>
      <path d="M 3122 3366 
L 3122 2828 
Q 2878 2963 2633 3030 
Q 2388 3097 2138 3097 
Q 1578 3097 1268 2742 
Q 959 2388 959 1747 
Q 959 1106 1268 751 
Q 1578 397 2138 397 
Q 2388 397 2633 464 
Q 2878 531 3122 666 
L 3122 134 
Q 2881 22 2623 -34 
Q 2366 -91 2075 -91 
Q 1284 -91 818 406 
Q 353 903 353 1747 
Q 353 2603 823 3093 
Q 1294 3584 2113 3584 
Q 2378 3584 2631 3529 
Q 2884 3475 3122 3366 
z
" id="DejaVuSans-63" transform="scale(0.015625)"/>
      <path d="M 2194 1759 
Q 1497 1759 1228 1600 
Q 959 1441 959 1056 
Q 959 750 1161 570 
Q 1363 391 1709 391 
Q 2188 391 2477 730 
Q 2766 1069 2766 1631 
L 2766 1759 
L 2194 1759 
z
M 3341 1997 
L 3341 0 
L 2766 0 
L 2766 531 
Q 2569 213 2275 61 
Q 1981 -91 1556 -91 
Q 1019 -91 701 211 
Q 384 513 384 1019 
Q 384 1609 779 1909 
Q 1175 2209 1959 2209 
L 2766 2209 
L 2766 2266 
Q 2766 2663 2505 2880 
Q 2244 3097 1772 3097 
Q 1472 3097 1187 3025 
Q 903 2953 641 2809 
L 641 3341 
Q 956 3463 1253 3523 
Q 1550 3584 1831 3584 
Q 2591 3584 2966 3190 
Q 3341 2797 3341 1997 
z
" id="DejaVuSans-61" transform="scale(0.015625)"/>
      <path d="M 2631 2963 
Q 2534 3019 2420 3045 
Q 2306 3072 2169 3072 
Q 1681 3072 1420 2755 
Q 1159 2438 1159 1844 
L 1159 0 
L 581 0 
L 581 3500 
L 1159 3500 
L 1159 2956 
Q 1341 3275 1631 3429 
Q 1922 3584 2338 3584 
Q 2397 3584 2469 3576 
Q 2541 3569 2628 3553 
L 2631 2963 
z
" id="DejaVuSans-72" transform="scale(0.015625)"/>
      <path d="M 2906 2969 
L 2906 4863 
L 3481 4863 
L 3481 0 
L 2906 0 
L 2906 525 
Q 2725 213 2448 61 
Q 2172 -91 1784 -91 
Q 1150 -91 751 415 
Q 353 922 353 1747 
Q 353 2572 751 3078 
Q 1150 3584 1784 3584 
Q 2172 3584 2448 3432 
Q 2725 3281 2906 2969 
z
M 947 1747 
Q 947 1113 1208 752 
Q 1469 391 1925 391 
Q 2381 391 2643 752 
Q 2906 1113 2906 1747 
Q 2906 2381 2643 2742 
Q 2381 3103 1925 3103 
Q 1469 3103 1208 2742 
Q 947 2381 947 1747 
z
" id="DejaVuSans-64" transform="scale(0.015625)"/>
      <path d="M 2375 4863 
L 2375 4384 
L 1825 4384 
Q 1516 4384 1395 4259 
Q 1275 4134 1275 3809 
L 1275 3500 
L 2222 3500 
L 2222 3053 
L 1275 3053 
L 1275 0 
L 697 0 
L 697 3053 
L 147 3053 
L 147 3500 
L 697 3500 
L 697 3744 
Q 697 4328 969 4595 
Q 1241 4863 1831 4863 
L 2375 4863 
z
" id="DejaVuSans-66" transform="scale(0.015625)"/>
      <path d="M 603 4863 
L 1178 4863 
L 1178 0 
L 603 0 
L 603 4863 
z
" id="DejaVuSans-6c" transform="scale(0.015625)"/>
      <path d="M 3328 2828 
Q 3544 3216 3844 3400 
Q 4144 3584 4550 3584 
Q 5097 3584 5394 3201 
Q 5691 2819 5691 2113 
L 5691 0 
L 5113 0 
L 5113 2094 
Q 5113 2597 4934 2840 
Q 4756 3084 4391 3084 
Q 3944 3084 3684 2787 
Q 3425 2491 3425 1978 
L 3425 0 
L 2847 0 
L 2847 2094 
Q 2847 2600 2669 2842 
Q 2491 3084 2119 3084 
Q 1678 3084 1418 2786 
Q 1159 2488 1159 1978 
L 1159 0 
L 581 0 
L 581 3500 
L 1159 3500 
L 1159 2956 
Q 1356 3278 1631 3431 
Q 1906 3584 2284 3584 
Q 2666 3584 2933 3390 
Q 3200 3197 3328 2828 
z
" id="DejaVuSans-6d" transform="scale(0.015625)"/>
      <path d="M 1556 2509 
Q 1272 2256 1139 2004 
Q 1006 1753 1006 1478 
Q 1006 1022 1337 719 
Q 1669 416 2169 416 
Q 2466 416 2725 514 
Q 2984 613 3213 813 
L 1556 2509 
z
M 1997 2859 
L 3584 1234 
Q 3769 1513 3872 1830 
Q 3975 2147 3994 2503 
L 4575 2503 
Q 4538 2091 4375 1687 
Q 4213 1284 3922 891 
L 4794 0 
L 4006 0 
L 3559 459 
Q 3234 181 2878 45 
Q 2522 -91 2113 -91 
Q 1359 -91 881 339 
Q 403 769 403 1441 
Q 403 1841 612 2192 
Q 822 2544 1241 2853 
Q 1091 3050 1012 3245 
Q 934 3441 934 3628 
Q 934 4134 1281 4442 
Q 1628 4750 2203 4750 
Q 2463 4750 2720 4694 
Q 2978 4638 3244 4525 
L 3244 3956 
Q 2972 4103 2725 4179 
Q 2478 4256 2266 4256 
Q 1938 4256 1733 4082 
Q 1528 3909 1528 3634 
Q 1528 3475 1620 3314 
Q 1713 3153 1997 2859 
z
" id="DejaVuSans-26" transform="scale(0.015625)"/>
      <path d="M 1159 525 
L 1159 -1331 
L 581 -1331 
L 581 3500 
L 1159 3500 
L 1159 2969 
Q 1341 3281 1617 3432 
Q 1894 3584 2278 3584 
Q 2916 3584 3314 3078 
Q 3713 2572 3713 1747 
Q 3713 922 3314 415 
Q 2916 -91 2278 -91 
Q 1894 -91 1617 61 
Q 1341 213 1159 525 
z
M 3116 1747 
Q 3116 2381 2855 2742 
Q 2594 3103 2138 3103 
Q 1681 3103 1420 2742 
Q 1159 2381 1159 1747 
Q 1159 1113 1420 752 
Q 1681 391 2138 391 
Q 2594 391 2855 752 
Q 3116 1113 3116 1747 
z
" id="DejaVuSans-70" transform="scale(0.015625)"/>
     </defs>
     <use xlink:href="#DejaVuSans-4c"/>
     <use x="53.962891" xlink:href="#DejaVuSans-6f"/>
     <use x="115.144531" xlink:href="#DejaVuSans-6e"/>
     <use x="178.523438" xlink:href="#DejaVuSans-67"/>
     <use x="242" xlink:href="#DejaVuSans-2e"/>
     <use x="273.787109" xlink:href="#DejaVuSans-20"/>
     <use x="305.574219" xlink:href="#DejaVuSans-52"/>
     <use x="370.556641" xlink:href="#DejaVuSans-65"/>
     <use x="432.080078" xlink:href="#DejaVuSans-73"/>
     <use x="484.179688" xlink:href="#DejaVuSans-69"/>
     <use x="511.962891" xlink:href="#DejaVuSans-73"/>
     <use x="564.0625" xlink:href="#DejaVuSans-74"/>
     <use x="603.271484" xlink:href="#DejaVuSans-69"/>
     <use x="631.054688" xlink:href="#DejaVuSans-76"/>
     <use x="690.234375" xlink:href="#DejaVuSans-69"/>
     <use x="718.017578" xlink:href="#DejaVuSans-74"/>
     <use x="757.226562" xlink:href="#DejaVuSans-79"/>
     <use x="816.40625" xlink:href="#DejaVuSans-20"/>
     <use x="848.193359" xlink:href="#DejaVuSans-77"/>
     <use x="929.980469" xlink:href="#DejaVuSans-69"/>
     <use x="957.763672" xlink:href="#DejaVuSans-74"/>
     <use x="996.972656" xlink:href="#DejaVuSans-68"/>
     <use x="1060.351562" xlink:href="#DejaVuSans-20"/>
     <use x="1092.138672" xlink:href="#DejaVuSans-73"/>
     <use x="1144.238281" xlink:href="#DejaVuSans-63"/>
     <use x="1199.21875" xlink:href="#DejaVuSans-61"/>
     <use x="1260.498047" xlink:href="#DejaVuSans-74"/>
     <use x="1299.707031" xlink:href="#DejaVuSans-74"/>
     <use x="1338.916016" xlink:href="#DejaVuSans-65"/>
     <use x="1400.439453" xlink:href="#DejaVuSans-72"/>
     <use x="1439.302734" xlink:href="#DejaVuSans-65"/>
     <use x="1500.826172" xlink:href="#DejaVuSans-64"/>
     <use x="1564.302734" xlink:href="#DejaVuSans-20"/>
     <use x="1596.089844" xlink:href="#DejaVuSans-66"/>
     <use x="1631.294922" xlink:href="#DejaVuSans-69"/>
     <use x="1659.078125" xlink:href="#DejaVuSans-6c"/>
     <use x="1686.861328" xlink:href="#DejaVuSans-6c"/>
     <use x="1714.644531" xlink:href="#DejaVuSans-69"/>
     <use x="1742.427734" xlink:href="#DejaVuSans-6e"/>
     <use x="1805.806641" xlink:href="#DejaVuSans-67"/>
     <use x="1869.283203" xlink:href="#DejaVuSans-20"/>
     <use x="1901.070312" xlink:href="#DejaVuSans-66"/>
     <use x="1936.275391" xlink:href="#DejaVuSans-61"/>
     <use x="1997.554688" xlink:href="#DejaVuSans-63"/>
     <use x="2052.535156" xlink:href="#DejaVuSans-74"/>
     <use x="2091.744141" xlink:href="#DejaVuSans-6f"/>
     <use x="2152.925781" xlink:href="#DejaVuSans-72"/>
     <use x="2194.039062" xlink:href="#DejaVuSans-20"/>
     <use x="2225.826172" xlink:href="#DejaVuSans-6d"/>
     <use x="2323.238281" xlink:href="#DejaVuSans-69"/>
     <use x="2351.021484" xlink:href="#DejaVuSans-6e"/>
     <use x="2414.400391" xlink:href="#DejaVuSans-69"/>
     <use x="2442.183594" xlink:href="#DejaVuSans-6d"/>
     <use x="2539.595703" xlink:href="#DejaVuSans-61"/>
     <use x="2600.875" xlink:href="#DejaVuSans-20"/>
     <use x="2632.662109" xlink:href="#DejaVuSans-73"/>
     <use x="2684.761719" xlink:href="#DejaVuSans-74"/>
     <use x="2723.970703" xlink:href="#DejaVuSans-61"/>
     <use x="2785.25" xlink:href="#DejaVuSans-72"/>
     <use x="2826.363281" xlink:href="#DejaVuSans-74"/>
     <use x="2865.572266" xlink:href="#DejaVuSans-20"/>
     <use x="2897.359375" xlink:href="#DejaVuSans-26"/>
     <use x="2975.337891" xlink:href="#DejaVuSans-20"/>
     <use x="3007.125" xlink:href="#DejaVuSans-65"/>
     <use x="3068.648438" xlink:href="#DejaVuSans-6e"/>
     <use x="3132.027344" xlink:href="#DejaVuSans-64"/>
     <use x="3195.503906" xlink:href="#DejaVuSans-70"/>
     <use x="3258.980469" xlink:href="#DejaVuSans-6f"/>
     <use x="3320.162109" xlink:href="#DejaVuSans-69"/>
     <use x="3347.945312" xlink:href="#DejaVuSans-6e"/>
     <use x="3411.324219" xlink:href="#DejaVuSans-74"/>
     <use x="3450.533203" xlink:href="#DejaVuSans-73"/>
    </g>
   </g>
   <g id="legend_1">
    <g id="patch_7">
     <path d="M 419.512 171.649 
L 475.112 171.649 
Q 477.112 171.649 477.112 169.649 
L 477.112 53.224 
Q 477.112 51.224 475.112 51.224 
L 419.512 51.224 
Q 417.512 51.224 417.512 53.224 
L 417.512 169.649 
Q 417.512 171.649 419.512 171.649 
z
" style="fill:#ffffff;opacity:0.8;stroke:#cccccc;stroke-linejoin:miter;"/>
    </g>
    <g id="PathCollection_9">
     <g>
      <use style="fill:#0000ff;stroke:#0000ff;" x="431.512" xlink:href="#mc90b0d973e" y="60.197438"/>
     </g>
    </g>
    <g id="text_16">
     <!-- $\nu$= 1 -->
     <g transform="translate(449.512 62.822438)scale(0.1 -0.1)">
      <defs>
       <path d="M 959 0 
L 572 3500 
L 1191 3500 
L 1522 563 
Q 1972 950 2391 1488 
Q 2706 1891 2788 2241 
Q 2825 2406 2809 2719 
Q 2794 3091 2544 3500 
L 3125 3500 
L 3125 3500 
Q 3288 3222 3353 2834 
Q 3416 2478 3369 2234 
Q 3250 1622 2719 1075 
Q 2025 363 1572 0 
L 959 0 
z
" id="DejaVuSans-Oblique-3bd" transform="scale(0.015625)"/>
       <path d="M 678 2906 
L 4684 2906 
L 4684 2381 
L 678 2381 
L 678 2906 
z
M 678 1631 
L 4684 1631 
L 4684 1100 
L 678 1100 
L 678 1631 
z
" id="DejaVuSans-3d" transform="scale(0.015625)"/>
      </defs>
      <use transform="translate(0 0.09375)" xlink:href="#DejaVuSans-Oblique-3bd"/>
      <use transform="translate(55.859375 0.09375)" xlink:href="#DejaVuSans-3d"/>
      <use transform="translate(139.648438 0.09375)" xlink:href="#DejaVuSans-20"/>
      <use transform="translate(171.435547 0.09375)" xlink:href="#DejaVuSans-31"/>
     </g>
    </g>
    <g id="PathCollection_10">
     <g>
      <use style="fill:#ff0000;stroke:#ff0000;" x="431.512" xlink:href="#m61856343ed" y="74.875563"/>
     </g>
    </g>
    <g id="text_17">
     <!-- $\nu$= 2 -->
     <g transform="translate(449.512 77.500563)scale(0.1 -0.1)">
      <use transform="translate(0 0.78125)" xlink:href="#DejaVuSans-Oblique-3bd"/>
      <use transform="translate(55.859375 0.78125)" xlink:href="#DejaVuSans-3d"/>
      <use transform="translate(139.648438 0.78125)" xlink:href="#DejaVuSans-20"/>
      <use transform="translate(171.435547 0.78125)" xlink:href="#DejaVuSans-32"/>
     </g>
    </g>
    <g id="PathCollection_11">
     <g>
      <use style="fill:#ffa500;stroke:#ffa500;" x="431.512" xlink:href="#m8707ed82fe" y="89.553688"/>
     </g>
    </g>
    <g id="text_18">
     <!-- $\nu$= 3 -->
     <g transform="translate(449.512 92.178688)scale(0.1 -0.1)">
      <defs>
       <path d="M 2597 2516 
Q 3050 2419 3304 2112 
Q 3559 1806 3559 1356 
Q 3559 666 3084 287 
Q 2609 -91 1734 -91 
Q 1441 -91 1130 -33 
Q 819 25 488 141 
L 488 750 
Q 750 597 1062 519 
Q 1375 441 1716 441 
Q 2309 441 2620 675 
Q 2931 909 2931 1356 
Q 2931 1769 2642 2001 
Q 2353 2234 1838 2234 
L 1294 2234 
L 1294 2753 
L 1863 2753 
Q 2328 2753 2575 2939 
Q 2822 3125 2822 3475 
Q 2822 3834 2567 4026 
Q 2313 4219 1838 4219 
Q 1578 4219 1281 4162 
Q 984 4106 628 3988 
L 628 4550 
Q 988 4650 1302 4700 
Q 1616 4750 1894 4750 
Q 2613 4750 3031 4423 
Q 3450 4097 3450 3541 
Q 3450 3153 3228 2886 
Q 3006 2619 2597 2516 
z
" id="DejaVuSans-33" transform="scale(0.015625)"/>
      </defs>
      <use transform="translate(0 0.78125)" xlink:href="#DejaVuSans-Oblique-3bd"/>
      <use transform="translate(55.859375 0.78125)" xlink:href="#DejaVuSans-3d"/>
      <use transform="translate(139.648438 0.78125)" xlink:href="#DejaVuSans-20"/>
      <use transform="translate(171.435547 0.78125)" xlink:href="#DejaVuSans-33"/>
     </g>
    </g>
    <g id="PathCollection_12">
     <g>
      <use style="fill:#800080;stroke:#800080;" x="431.512" xlink:href="#m556ed06224" y="104.231813"/>
     </g>
    </g>
    <g id="text_19">
     <!-- $\nu$= 4 -->
     <g transform="translate(449.512 106.856813)scale(0.1 -0.1)">
      <use transform="translate(0 0.09375)" xlink:href="#DejaVuSans-Oblique-3bd"/>
      <use transform="translate(55.859375 0.09375)" xlink:href="#DejaVuSans-3d"/>
      <use transform="translate(139.648438 0.09375)" xlink:href="#DejaVuSans-20"/>
      <use transform="translate(171.435547 0.09375)" xlink:href="#DejaVuSans-34"/>
     </g>
    </g>
    <g id="PathCollection_13">
     <g>
      <use style="fill:#800080;stroke:#800080;" x="431.512" xlink:href="#m556ed06224" y="118.909938"/>
     </g>
    </g>
    <g id="text_20">
     <!-- $\nu$= 5 -->
     <g transform="translate(449.512 121.534938)scale(0.1 -0.1)">
      <use transform="translate(0 0.09375)" xlink:href="#DejaVuSans-Oblique-3bd"/>
      <use transform="translate(55.859375 0.09375)" xlink:href="#DejaVuSans-3d"/>
      <use transform="translate(139.648438 0.09375)" xlink:href="#DejaVuSans-20"/>
      <use transform="translate(171.435547 0.09375)" xlink:href="#DejaVuSans-35"/>
     </g>
    </g>
    <g id="PathCollection_14">
     <g>
      <use style="fill:#800080;stroke:#800080;" x="431.512" xlink:href="#m556ed06224" y="133.588063"/>
     </g>
    </g>
    <g id="text_21">
     <!-- $\nu$= 6 -->
     <g transform="translate(449.512 136.213063)scale(0.1 -0.1)">
      <use transform="translate(0 0.78125)" xlink:href="#DejaVuSans-Oblique-3bd"/>
      <use transform="translate(55.859375 0.78125)" xlink:href="#DejaVuSans-3d"/>
      <use transform="translate(139.648438 0.78125)" xlink:href="#DejaVuSans-20"/>
      <use transform="translate(171.435547 0.78125)" xlink:href="#DejaVuSans-36"/>
     </g>
    </g>
    <g id="PathCollection_15">
     <g>
      <use style="fill:#800080;stroke:#800080;" x="431.512" xlink:href="#m556ed06224" y="148.266188"/>
     </g>
    </g>
    <g id="text_22">
     <!-- $\nu$= 7 -->
     <g transform="translate(449.512 150.891188)scale(0.1 -0.1)">
      <defs>
       <path d="M 525 4666 
L 3525 4666 
L 3525 4397 
L 1831 0 
L 1172 0 
L 2766 4134 
L 525 4134 
L 525 4666 
z
" id="DejaVuSans-37" transform="scale(0.015625)"/>
      </defs>
      <use transform="translate(0 0.09375)" xlink:href="#DejaVuSans-Oblique-3bd"/>
      <use transform="translate(55.859375 0.09375)" xlink:href="#DejaVuSans-3d"/>
      <use transform="translate(139.648438 0.09375)" xlink:href="#DejaVuSans-20"/>
      <use transform="translate(171.435547 0.09375)" xlink:href="#DejaVuSans-37"/>
     </g>
    </g>
    <g id="PathCollection_16">
     <g>
      <use style="fill:#800080;stroke:#800080;" x="431.512" xlink:href="#m556ed06224" y="162.944313"/>
     </g>
    </g>
    <g id="text_23">
     <!-- $\nu$= 8 -->
     <g transform="translate(449.512 165.569313)scale(0.1 -0.1)">
      <use transform="translate(0 0.78125)" xlink:href="#DejaVuSans-Oblique-3bd"/>
      <use transform="translate(55.859375 0.78125)" xlink:href="#DejaVuSans-3d"/>
      <use transform="translate(139.648438 0.78125)" xlink:href="#DejaVuSans-20"/>
      <use transform="translate(171.435547 0.78125)" xlink:href="#DejaVuSans-38"/>
     </g>
    </g>
   </g>
  </g>
 </g>
 <defs>
  <clipPath id="p8853447f74">
   <rect height="296.604" width="415.152" x="66.96" y="46.224"/>
  </clipPath>
 </defs>
</svg>
