<?xml version="1.0" encoding="utf-8" standalone="no"?>
<!DOCTYPE svg PUBLIC "-//W3C//DTD SVG 1.1//EN"
  "http://www.w3.org/Graphics/SVG/1.1/DTD/svg11.dtd">
<svg height="345.6pt" version="1.1" viewBox="0 0 460.8 345.6" width="460.8pt" xmlns="http://www.w3.org/2000/svg" xmlns:xlink="http://www.w3.org/1999/xlink">
 <metadata>
  <rdf:RDF xmlns:cc="http://creativecommons.org/ns#" xmlns:dc="http://purl.org/dc/elements/1.1/" xmlns:rdf="http://www.w3.org/1999/02/22-rdf-syntax-ns#">
   <cc:Work>
    <dc:type rdf:resource="http://purl.org/dc/dcmitype/StillImage"/>
    <dc:date>2023-10-27T04:14:24.940350</dc:date>
    <dc:format>image/svg+xml</dc:format>
    <dc:creator>
     <cc:Agent>
      <dc:title>Matplotlib v3.4.3, https://matplotlib.org/</dc:title>
     </cc:Agent>
    </dc:creator>
   </cc:Work>
  </rdf:RDF>
 </metadata>
 <defs>
  <style type="text/css">*{stroke-linecap:butt;stroke-linejoin:round;}</style>
 </defs>
 <g id="figure_1">
  <g id="patch_1">
   <path d="M 0 345.6 
L 460.8 345.6 
L 460.8 0 
L 0 0 
z
" style="fill:#ffffff;"/>
  </g>
  <g id="axes_1">
   <g id="patch_2">
    <path d="M 57.6 307.584 
L 414.72 307.584 
L 414.72 41.472 
L 57.6 41.472 
z
" style="fill:#ffffff;"/>
   </g>
   <g id="matplotlib.axis_1">
    <g id="xtick_1">
     <g id="line2d_1">
      <defs>
       <path d="M 0 0 
L 0 3.5 
" id="m7d0c7fe803" style="stroke:#000000;stroke-width:0.8;"/>
      </defs>
      <g>
       <use style="stroke:#000000;stroke-width:0.8;" x="75.851723" xlink:href="#m7d0c7fe803" y="307.584"/>
      </g>
     </g>
     <g id="text_1">
      <!-- 1 -->
      <g transform="translate(72.670473 322.182437)scale(0.1 -0.1)">
       <defs>
        <path d="M 794 531 
L 1825 531 
L 1825 4091 
L 703 3866 
L 703 4441 
L 1819 4666 
L 2450 4666 
L 2450 531 
L 3481 531 
L 3481 0 
L 794 0 
L 794 531 
z
" id="DejaVuSans-31" transform="scale(0.015625)"/>
       </defs>
       <use xlink:href="#DejaVuSans-31"/>
      </g>
     </g>
    </g>
    <g id="xtick_2">
     <g id="line2d_2">
      <g>
       <use style="stroke:#000000;stroke-width:0.8;" x="116.231642" xlink:href="#m7d0c7fe803" y="307.584"/>
      </g>
     </g>
     <g id="text_2">
      <!-- 2 -->
      <g transform="translate(113.050392 322.182437)scale(0.1 -0.1)">
       <defs>
        <path d="M 1228 531 
L 3431 531 
L 3431 0 
L 469 0 
L 469 531 
Q 828 903 1448 1529 
Q 2069 2156 2228 2338 
Q 2531 2678 2651 2914 
Q 2772 3150 2772 3378 
Q 2772 3750 2511 3984 
Q 2250 4219 1831 4219 
Q 1534 4219 1204 4116 
Q 875 4013 500 3803 
L 500 4441 
Q 881 4594 1212 4672 
Q 1544 4750 1819 4750 
Q 2544 4750 2975 4387 
Q 3406 4025 3406 3419 
Q 3406 3131 3298 2873 
Q 3191 2616 2906 2266 
Q 2828 2175 2409 1742 
Q 1991 1309 1228 531 
z
" id="DejaVuSans-32" transform="scale(0.015625)"/>
       </defs>
       <use xlink:href="#DejaVuSans-32"/>
      </g>
     </g>
    </g>
    <g id="xtick_3">
     <g id="line2d_3">
      <g>
       <use style="stroke:#000000;stroke-width:0.8;" x="156.61156" xlink:href="#m7d0c7fe803" y="307.584"/>
      </g>
     </g>
     <g id="text_3">
      <!-- 3 -->
      <g transform="translate(153.43031 322.182437)scale(0.1 -0.1)">
       <defs>
        <path d="M 2597 2516 
Q 3050 2419 3304 2112 
Q 3559 1806 3559 1356 
Q 3559 666 3084 287 
Q 2609 -91 1734 -91 
Q 1441 -91 1130 -33 
Q 819 25 488 141 
L 488 750 
Q 750 597 1062 519 
Q 1375 441 1716 441 
Q 2309 441 2620 675 
Q 2931 909 2931 1356 
Q 2931 1769 2642 2001 
Q 2353 2234 1838 2234 
L 1294 2234 
L 1294 2753 
L 1863 2753 
Q 2328 2753 2575 2939 
Q 2822 3125 2822 3475 
Q 2822 3834 2567 4026 
Q 2313 4219 1838 4219 
Q 1578 4219 1281 4162 
Q 984 4106 628 3988 
L 628 4550 
Q 988 4650 1302 4700 
Q 1616 4750 1894 4750 
Q 2613 4750 3031 4423 
Q 3450 4097 3450 3541 
Q 3450 3153 3228 2886 
Q 3006 2619 2597 2516 
z
" id="DejaVuSans-33" transform="scale(0.015625)"/>
       </defs>
       <use xlink:href="#DejaVuSans-33"/>
      </g>
     </g>
    </g>
    <g id="xtick_4">
     <g id="line2d_4">
      <g>
       <use style="stroke:#000000;stroke-width:0.8;" x="196.991479" xlink:href="#m7d0c7fe803" y="307.584"/>
      </g>
     </g>
     <g id="text_4">
      <!-- 4 -->
      <g transform="translate(193.810229 322.182437)scale(0.1 -0.1)">
       <defs>
        <path d="M 2419 4116 
L 825 1625 
L 2419 1625 
L 2419 4116 
z
M 2253 4666 
L 3047 4666 
L 3047 1625 
L 3713 1625 
L 3713 1100 
L 3047 1100 
L 3047 0 
L 2419 0 
L 2419 1100 
L 313 1100 
L 313 1709 
L 2253 4666 
z
" id="DejaVuSans-34" transform="scale(0.015625)"/>
       </defs>
       <use xlink:href="#DejaVuSans-34"/>
      </g>
     </g>
    </g>
    <g id="xtick_5">
     <g id="line2d_5">
      <g>
       <use style="stroke:#000000;stroke-width:0.8;" x="237.371398" xlink:href="#m7d0c7fe803" y="307.584"/>
      </g>
     </g>
     <g id="text_5">
      <!-- 5 -->
      <g transform="translate(234.190148 322.182437)scale(0.1 -0.1)">
       <defs>
        <path d="M 691 4666 
L 3169 4666 
L 3169 4134 
L 1269 4134 
L 1269 2991 
Q 1406 3038 1543 3061 
Q 1681 3084 1819 3084 
Q 2600 3084 3056 2656 
Q 3513 2228 3513 1497 
Q 3513 744 3044 326 
Q 2575 -91 1722 -91 
Q 1428 -91 1123 -41 
Q 819 9 494 109 
L 494 744 
Q 775 591 1075 516 
Q 1375 441 1709 441 
Q 2250 441 2565 725 
Q 2881 1009 2881 1497 
Q 2881 1984 2565 2268 
Q 2250 2553 1709 2553 
Q 1456 2553 1204 2497 
Q 953 2441 691 2322 
L 691 4666 
z
" id="DejaVuSans-35" transform="scale(0.015625)"/>
       </defs>
       <use xlink:href="#DejaVuSans-35"/>
      </g>
     </g>
    </g>
    <g id="xtick_6">
     <g id="line2d_6">
      <g>
       <use style="stroke:#000000;stroke-width:0.8;" x="277.751316" xlink:href="#m7d0c7fe803" y="307.584"/>
      </g>
     </g>
     <g id="text_6">
      <!-- 6 -->
      <g transform="translate(274.570066 322.182437)scale(0.1 -0.1)">
       <defs>
        <path d="M 2113 2584 
Q 1688 2584 1439 2293 
Q 1191 2003 1191 1497 
Q 1191 994 1439 701 
Q 1688 409 2113 409 
Q 2538 409 2786 701 
Q 3034 994 3034 1497 
Q 3034 2003 2786 2293 
Q 2538 2584 2113 2584 
z
M 3366 4563 
L 3366 3988 
Q 3128 4100 2886 4159 
Q 2644 4219 2406 4219 
Q 1781 4219 1451 3797 
Q 1122 3375 1075 2522 
Q 1259 2794 1537 2939 
Q 1816 3084 2150 3084 
Q 2853 3084 3261 2657 
Q 3669 2231 3669 1497 
Q 3669 778 3244 343 
Q 2819 -91 2113 -91 
Q 1303 -91 875 529 
Q 447 1150 447 2328 
Q 447 3434 972 4092 
Q 1497 4750 2381 4750 
Q 2619 4750 2861 4703 
Q 3103 4656 3366 4563 
z
" id="DejaVuSans-36" transform="scale(0.015625)"/>
       </defs>
       <use xlink:href="#DejaVuSans-36"/>
      </g>
     </g>
    </g>
    <g id="xtick_7">
     <g id="line2d_7">
      <g>
       <use style="stroke:#000000;stroke-width:0.8;" x="318.131235" xlink:href="#m7d0c7fe803" y="307.584"/>
      </g>
     </g>
     <g id="text_7">
      <!-- 7 -->
      <g transform="translate(314.949985 322.182437)scale(0.1 -0.1)">
       <defs>
        <path d="M 525 4666 
L 3525 4666 
L 3525 4397 
L 1831 0 
L 1172 0 
L 2766 4134 
L 525 4134 
L 525 4666 
z
" id="DejaVuSans-37" transform="scale(0.015625)"/>
       </defs>
       <use xlink:href="#DejaVuSans-37"/>
      </g>
     </g>
    </g>
    <g id="xtick_8">
     <g id="line2d_8">
      <g>
       <use style="stroke:#000000;stroke-width:0.8;" x="358.511153" xlink:href="#m7d0c7fe803" y="307.584"/>
      </g>
     </g>
     <g id="text_8">
      <!-- 8 -->
      <g transform="translate(355.329903 322.182437)scale(0.1 -0.1)">
       <defs>
        <path d="M 2034 2216 
Q 1584 2216 1326 1975 
Q 1069 1734 1069 1313 
Q 1069 891 1326 650 
Q 1584 409 2034 409 
Q 2484 409 2743 651 
Q 3003 894 3003 1313 
Q 3003 1734 2745 1975 
Q 2488 2216 2034 2216 
z
M 1403 2484 
Q 997 2584 770 2862 
Q 544 3141 544 3541 
Q 544 4100 942 4425 
Q 1341 4750 2034 4750 
Q 2731 4750 3128 4425 
Q 3525 4100 3525 3541 
Q 3525 3141 3298 2862 
Q 3072 2584 2669 2484 
Q 3125 2378 3379 2068 
Q 3634 1759 3634 1313 
Q 3634 634 3220 271 
Q 2806 -91 2034 -91 
Q 1263 -91 848 271 
Q 434 634 434 1313 
Q 434 1759 690 2068 
Q 947 2378 1403 2484 
z
M 1172 3481 
Q 1172 3119 1398 2916 
Q 1625 2713 2034 2713 
Q 2441 2713 2670 2916 
Q 2900 3119 2900 3481 
Q 2900 3844 2670 4047 
Q 2441 4250 2034 4250 
Q 1625 4250 1398 4047 
Q 1172 3844 1172 3481 
z
" id="DejaVuSans-38" transform="scale(0.015625)"/>
       </defs>
       <use xlink:href="#DejaVuSans-38"/>
      </g>
     </g>
    </g>
    <g id="xtick_9">
     <g id="line2d_9">
      <g>
       <use style="stroke:#000000;stroke-width:0.8;" x="398.891072" xlink:href="#m7d0c7fe803" y="307.584"/>
      </g>
     </g>
     <g id="text_9">
      <!-- 9 -->
      <g transform="translate(395.709822 322.182437)scale(0.1 -0.1)">
       <defs>
        <path d="M 703 97 
L 703 672 
Q 941 559 1184 500 
Q 1428 441 1663 441 
Q 2288 441 2617 861 
Q 2947 1281 2994 2138 
Q 2813 1869 2534 1725 
Q 2256 1581 1919 1581 
Q 1219 1581 811 2004 
Q 403 2428 403 3163 
Q 403 3881 828 4315 
Q 1253 4750 1959 4750 
Q 2769 4750 3195 4129 
Q 3622 3509 3622 2328 
Q 3622 1225 3098 567 
Q 2575 -91 1691 -91 
Q 1453 -91 1209 -44 
Q 966 3 703 97 
z
M 1959 2075 
Q 2384 2075 2632 2365 
Q 2881 2656 2881 3163 
Q 2881 3666 2632 3958 
Q 2384 4250 1959 4250 
Q 1534 4250 1286 3958 
Q 1038 3666 1038 3163 
Q 1038 2656 1286 2365 
Q 1534 2075 1959 2075 
z
" id="DejaVuSans-39" transform="scale(0.015625)"/>
       </defs>
       <use xlink:href="#DejaVuSans-39"/>
      </g>
     </g>
    </g>
    <g id="text_10">
     <!-- $B$ (T) -->
     <g transform="translate(224.16 335.860562)scale(0.1 -0.1)">
      <defs>
       <path d="M 1081 4666 
L 2694 4666 
Q 3350 4666 3675 4422 
Q 4000 4178 4000 3688 
Q 4000 3238 3720 2911 
Q 3441 2584 2988 2516 
Q 3375 2428 3569 2181 
Q 3763 1934 3763 1522 
Q 3763 819 3242 409 
Q 2722 0 1819 0 
L 172 0 
L 1081 4666 
z
M 1234 2228 
L 903 519 
L 1919 519 
Q 2491 519 2800 781 
Q 3109 1044 3109 1522 
Q 3109 1891 2904 2059 
Q 2700 2228 2247 2228 
L 1234 2228 
z
M 1606 4147 
L 1331 2741 
L 2272 2741 
Q 2775 2741 3058 2959 
Q 3341 3178 3341 3566 
Q 3341 3869 3150 4008 
Q 2959 4147 2541 4147 
L 1606 4147 
z
" id="DejaVuSans-Oblique-42" transform="scale(0.015625)"/>
       <path id="DejaVuSans-20" transform="scale(0.015625)"/>
       <path d="M 1984 4856 
Q 1566 4138 1362 3434 
Q 1159 2731 1159 2009 
Q 1159 1288 1364 580 
Q 1569 -128 1984 -844 
L 1484 -844 
Q 1016 -109 783 600 
Q 550 1309 550 2009 
Q 550 2706 781 3412 
Q 1013 4119 1484 4856 
L 1984 4856 
z
" id="DejaVuSans-28" transform="scale(0.015625)"/>
       <path d="M -19 4666 
L 3928 4666 
L 3928 4134 
L 2272 4134 
L 2272 0 
L 1638 0 
L 1638 4134 
L -19 4134 
L -19 4666 
z
" id="DejaVuSans-54" transform="scale(0.015625)"/>
       <path d="M 513 4856 
L 1013 4856 
Q 1481 4119 1714 3412 
Q 1947 2706 1947 2009 
Q 1947 1309 1714 600 
Q 1481 -109 1013 -844 
L 513 -844 
Q 928 -128 1133 580 
Q 1338 1288 1338 2009 
Q 1338 2731 1133 3434 
Q 928 4138 513 4856 
z
" id="DejaVuSans-29" transform="scale(0.015625)"/>
      </defs>
      <use transform="translate(0 0.125)" xlink:href="#DejaVuSans-Oblique-42"/>
      <use transform="translate(68.603516 0.125)" xlink:href="#DejaVuSans-20"/>
      <use transform="translate(100.390625 0.125)" xlink:href="#DejaVuSans-28"/>
      <use transform="translate(139.404297 0.125)" xlink:href="#DejaVuSans-54"/>
      <use transform="translate(200.488281 0.125)" xlink:href="#DejaVuSans-29"/>
     </g>
    </g>
   </g>
   <g id="matplotlib.axis_2">
    <g id="ytick_1">
     <g id="line2d_10">
      <defs>
       <path d="M 0 0 
L -3.5 0 
" id="m6341fb981e" style="stroke:#000000;stroke-width:0.8;"/>
      </defs>
      <g>
       <use style="stroke:#000000;stroke-width:0.8;" x="57.6" xlink:href="#m6341fb981e" y="287.947692"/>
      </g>
     </g>
     <g id="text_11">
      <!-- −1.4 -->
      <g transform="translate(26.317187 291.746911)scale(0.1 -0.1)">
       <defs>
        <path d="M 678 2272 
L 4684 2272 
L 4684 1741 
L 678 1741 
L 678 2272 
z
" id="DejaVuSans-2212" transform="scale(0.015625)"/>
        <path d="M 684 794 
L 1344 794 
L 1344 0 
L 684 0 
L 684 794 
z
" id="DejaVuSans-2e" transform="scale(0.015625)"/>
       </defs>
       <use xlink:href="#DejaVuSans-2212"/>
       <use x="83.789062" xlink:href="#DejaVuSans-31"/>
       <use x="147.412109" xlink:href="#DejaVuSans-2e"/>
       <use x="179.199219" xlink:href="#DejaVuSans-34"/>
      </g>
     </g>
    </g>
    <g id="ytick_2">
     <g id="line2d_11">
      <g>
       <use style="stroke:#000000;stroke-width:0.8;" x="57.6" xlink:href="#m6341fb981e" y="256.862106"/>
      </g>
     </g>
     <g id="text_12">
      <!-- −1.2 -->
      <g transform="translate(26.317187 260.661325)scale(0.1 -0.1)">
       <use xlink:href="#DejaVuSans-2212"/>
       <use x="83.789062" xlink:href="#DejaVuSans-31"/>
       <use x="147.412109" xlink:href="#DejaVuSans-2e"/>
       <use x="179.199219" xlink:href="#DejaVuSans-32"/>
      </g>
     </g>
    </g>
    <g id="ytick_3">
     <g id="line2d_12">
      <g>
       <use style="stroke:#000000;stroke-width:0.8;" x="57.6" xlink:href="#m6341fb981e" y="225.776519"/>
      </g>
     </g>
     <g id="text_13">
      <!-- −1.0 -->
      <g transform="translate(26.317187 229.575738)scale(0.1 -0.1)">
       <defs>
        <path d="M 2034 4250 
Q 1547 4250 1301 3770 
Q 1056 3291 1056 2328 
Q 1056 1369 1301 889 
Q 1547 409 2034 409 
Q 2525 409 2770 889 
Q 3016 1369 3016 2328 
Q 3016 3291 2770 3770 
Q 2525 4250 2034 4250 
z
M 2034 4750 
Q 2819 4750 3233 4129 
Q 3647 3509 3647 2328 
Q 3647 1150 3233 529 
Q 2819 -91 2034 -91 
Q 1250 -91 836 529 
Q 422 1150 422 2328 
Q 422 3509 836 4129 
Q 1250 4750 2034 4750 
z
" id="DejaVuSans-30" transform="scale(0.015625)"/>
       </defs>
       <use xlink:href="#DejaVuSans-2212"/>
       <use x="83.789062" xlink:href="#DejaVuSans-31"/>
       <use x="147.412109" xlink:href="#DejaVuSans-2e"/>
       <use x="179.199219" xlink:href="#DejaVuSans-30"/>
      </g>
     </g>
    </g>
    <g id="ytick_4">
     <g id="line2d_13">
      <g>
       <use style="stroke:#000000;stroke-width:0.8;" x="57.6" xlink:href="#m6341fb981e" y="194.690933"/>
      </g>
     </g>
     <g id="text_14">
      <!-- −0.8 -->
      <g transform="translate(26.317187 198.490151)scale(0.1 -0.1)">
       <use xlink:href="#DejaVuSans-2212"/>
       <use x="83.789062" xlink:href="#DejaVuSans-30"/>
       <use x="147.412109" xlink:href="#DejaVuSans-2e"/>
       <use x="179.199219" xlink:href="#DejaVuSans-38"/>
      </g>
     </g>
    </g>
    <g id="ytick_5">
     <g id="line2d_14">
      <g>
       <use style="stroke:#000000;stroke-width:0.8;" x="57.6" xlink:href="#m6341fb981e" y="163.605346"/>
      </g>
     </g>
     <g id="text_15">
      <!-- −0.6 -->
      <g transform="translate(26.317187 167.404565)scale(0.1 -0.1)">
       <use xlink:href="#DejaVuSans-2212"/>
       <use x="83.789062" xlink:href="#DejaVuSans-30"/>
       <use x="147.412109" xlink:href="#DejaVuSans-2e"/>
       <use x="179.199219" xlink:href="#DejaVuSans-36"/>
      </g>
     </g>
    </g>
    <g id="ytick_6">
     <g id="line2d_15">
      <g>
       <use style="stroke:#000000;stroke-width:0.8;" x="57.6" xlink:href="#m6341fb981e" y="132.519759"/>
      </g>
     </g>
     <g id="text_16">
      <!-- −0.4 -->
      <g transform="translate(26.317187 136.318978)scale(0.1 -0.1)">
       <use xlink:href="#DejaVuSans-2212"/>
       <use x="83.789062" xlink:href="#DejaVuSans-30"/>
       <use x="147.412109" xlink:href="#DejaVuSans-2e"/>
       <use x="179.199219" xlink:href="#DejaVuSans-34"/>
      </g>
     </g>
    </g>
    <g id="ytick_7">
     <g id="line2d_16">
      <g>
       <use style="stroke:#000000;stroke-width:0.8;" x="57.6" xlink:href="#m6341fb981e" y="101.434173"/>
      </g>
     </g>
     <g id="text_17">
      <!-- −0.2 -->
      <g transform="translate(26.317187 105.233392)scale(0.1 -0.1)">
       <use xlink:href="#DejaVuSans-2212"/>
       <use x="83.789062" xlink:href="#DejaVuSans-30"/>
       <use x="147.412109" xlink:href="#DejaVuSans-2e"/>
       <use x="179.199219" xlink:href="#DejaVuSans-32"/>
      </g>
     </g>
    </g>
    <g id="ytick_8">
     <g id="line2d_17">
      <g>
       <use style="stroke:#000000;stroke-width:0.8;" x="57.6" xlink:href="#m6341fb981e" y="70.348586"/>
      </g>
     </g>
     <g id="text_18">
      <!-- 0.0 -->
      <g transform="translate(34.696875 74.147805)scale(0.1 -0.1)">
       <use xlink:href="#DejaVuSans-30"/>
       <use x="63.623047" xlink:href="#DejaVuSans-2e"/>
       <use x="95.410156" xlink:href="#DejaVuSans-30"/>
      </g>
     </g>
    </g>
    <g id="text_19">
     <!-- $\rho\mathrm{xx}$ ($\Omega$) -->
     <g transform="translate(20.217187 192.978)rotate(-90)scale(0.1 -0.1)">
      <defs>
       <path d="M 1203 2875 
Q 1453 3194 1981 3475 
Q 2188 3584 2756 3584 
Q 3394 3584 3694 3078 
Q 3994 2572 3834 1747 
Q 3672 922 3175 415 
Q 2678 -91 2041 -91 
Q 1656 -91 1409 63 
Q 1163 213 1044 525 
L 681 -1331 
L 103 -1331 
L 697 1716 
Q 838 2438 1203 2875 
z
M 3238 1747 
Q 3359 2381 3169 2744 
Q 2978 3103 2522 3103 
Q 2066 3103 1734 2744 
Q 1403 2381 1281 1747 
Q 1156 1113 1347 750 
Q 1538 391 1994 391 
Q 2450 391 2781 750 
Q 3113 1113 3238 1747 
z
" id="DejaVuSans-Oblique-3c1" transform="scale(0.015625)"/>
       <path d="M 3513 3500 
L 2247 1797 
L 3578 0 
L 2900 0 
L 1881 1375 
L 863 0 
L 184 0 
L 1544 1831 
L 300 3500 
L 978 3500 
L 1906 2253 
L 2834 3500 
L 3513 3500 
z
" id="DejaVuSans-78" transform="scale(0.015625)"/>
       <path d="M 4647 556 
L 4647 0 
L 2772 0 
L 2772 556 
Q 3325 859 3634 1378 
Q 3944 1897 3944 2528 
Q 3944 3278 3531 3731 
Q 3119 4184 2444 4184 
Q 1769 4184 1355 3729 
Q 941 3275 941 2528 
Q 941 1897 1250 1378 
Q 1563 859 2119 556 
L 2119 0 
L 244 0 
L 244 556 
L 1241 556 
Q 747 991 519 1456 
Q 294 1922 294 2497 
Q 294 3491 894 4106 
Q 1491 4722 2444 4722 
Q 3391 4722 3994 4106 
Q 4594 3494 4594 2528 
Q 4594 1922 4372 1459 
Q 4150 997 3647 556 
L 4647 556 
z
" id="DejaVuSans-3a9" transform="scale(0.015625)"/>
      </defs>
      <use transform="translate(0 0.125)" xlink:href="#DejaVuSans-Oblique-3c1"/>
      <use transform="translate(63.476562 0.125)" xlink:href="#DejaVuSans-78"/>
      <use transform="translate(122.65625 0.125)" xlink:href="#DejaVuSans-78"/>
      <use transform="translate(181.835938 0.125)" xlink:href="#DejaVuSans-20"/>
      <use transform="translate(213.623047 0.125)" xlink:href="#DejaVuSans-28"/>
      <use transform="translate(252.636719 0.125)" xlink:href="#DejaVuSans-3a9"/>
      <use transform="translate(329.052734 0.125)" xlink:href="#DejaVuSans-29"/>
     </g>
    </g>
    <g id="text_20">
     <!-- 1e−5 -->
     <g transform="translate(57.6 38.472)scale(0.1 -0.1)">
      <defs>
       <path d="M 3597 1894 
L 3597 1613 
L 953 1613 
Q 991 1019 1311 708 
Q 1631 397 2203 397 
Q 2534 397 2845 478 
Q 3156 559 3463 722 
L 3463 178 
Q 3153 47 2828 -22 
Q 2503 -91 2169 -91 
Q 1331 -91 842 396 
Q 353 884 353 1716 
Q 353 2575 817 3079 
Q 1281 3584 2069 3584 
Q 2775 3584 3186 3129 
Q 3597 2675 3597 1894 
z
M 3022 2063 
Q 3016 2534 2758 2815 
Q 2500 3097 2075 3097 
Q 1594 3097 1305 2825 
Q 1016 2553 972 2059 
L 3022 2063 
z
" id="DejaVuSans-65" transform="scale(0.015625)"/>
      </defs>
      <use xlink:href="#DejaVuSans-31"/>
      <use x="63.623047" xlink:href="#DejaVuSans-65"/>
      <use x="125.146484" xlink:href="#DejaVuSans-2212"/>
      <use x="208.935547" xlink:href="#DejaVuSans-35"/>
     </g>
    </g>
   </g>
   <g id="line2d_18">
    <path clip-path="url(#pe08246a4e9)" d="M 322.169227 223.121634 
L 322.976825 250.390439 
L 323.380624 252.837695 
L 323.784423 260.878305 
L 324.188223 263.325562 
L 324.592022 262.626429 
L 324.995821 263.325562 
L 325.39962 265.073393 
L 325.803419 262.975996 
L 326.207218 262.975996 
L 326.611018 265.073393 
L 327.014817 261.227871 
L 327.418616 261.927297 
L 327.822415 263.675128 
L 328.226214 262.626429 
L 328.630014 264.723827 
L 329.033813 261.577437 
L 329.437612 262.975996 
L 329.841411 263.325562 
L 330.24521 262.276863 
L 330.649009 262.626429 
L 331.052809 262.276863 
L 331.860407 265.422959 
L 332.264206 264.723827 
L 333.071805 261.227871 
L 333.475604 265.073393 
L 333.879403 261.227871 
L 334.283202 262.975996 
L 335.090801 263.675128 
L 335.4946 262.975996 
L 335.898399 262.975996 
L 336.302198 264.024694 
L 336.705997 262.276863 
L 337.109796 259.130474 
L 337.513596 263.325562 
L 337.917395 262.626429 
L 338.321194 261.577437 
L 338.724993 266.471951 
L 339.128792 264.024694 
L 339.532592 262.276863 
L 340.34019 264.37426 
L 340.743989 261.577437 
L 341.147788 264.723827 
L 341.551588 262.975996 
L 341.955387 265.422959 
L 342.359186 265.772819 
L 342.762985 258.081775 
L 343.166784 263.675128 
L 343.570583 264.024694 
L 343.974383 265.422959 
L 344.378182 261.577437 
L 344.781981 264.723827 
L 345.18578 260.878305 
L 345.589579 261.227871 
L 345.993379 263.325562 
L 346.397178 258.431341 
L 346.800977 264.37426 
L 347.204776 260.878305 
L 347.608575 262.276863 
L 348.416174 267.52065 
L 348.819973 265.073393 
L 349.223772 263.325562 
L 349.627571 258.081775 
L 350.43517 264.723827 
L 350.838969 269.61834 
L 351.242768 265.073393 
L 351.646567 262.626429 
L 352.050366 261.927297 
L 352.454166 264.37426 
L 352.857965 257.731916 
L 353.261764 262.626429 
L 353.665563 260.528739 
L 354.069362 261.227871 
L 354.473161 266.821517 
L 354.876961 261.577437 
L 355.28076 261.577437 
L 355.684559 262.626429 
L 356.088358 260.878305 
L 356.492157 258.431341 
L 356.895957 266.821517 
L 357.299756 267.52065 
L 357.703555 262.975996 
L 358.107354 261.577437 
L 358.511153 264.37426 
L 358.914953 265.422959 
L 359.318752 265.772819 
L 359.722551 265.422959 
L 360.12635 266.471951 
L 360.530149 266.821517 
L 360.933948 259.130474 
L 361.337748 265.073393 
L 361.741547 265.772819 
L 362.549145 260.878305 
L 363.356744 264.723827 
L 363.760543 266.471951 
L 364.568141 262.626429 
L 364.97194 258.081775 
L 365.375739 262.626429 
L 365.779539 262.276863 
L 366.183338 264.37426 
L 366.587137 264.024694 
L 366.990936 260.528739 
L 367.394735 266.821517 
L 367.798535 264.723827 
L 368.202334 264.723827 
L 368.606133 262.276863 
L 369.009932 265.422959 
L 369.413731 266.471951 
L 369.817531 261.227871 
L 370.22133 264.024694 
L 370.625129 264.723827 
L 371.028928 267.52065 
L 371.432727 261.577437 
L 371.836526 267.870216 
L 372.240326 264.723827 
L 372.644125 265.422959 
L 373.047924 261.577437 
L 373.451723 262.975996 
L 373.855522 263.325562 
L 374.259322 262.626429 
L 374.663121 264.723827 
L 375.06692 261.577437 
L 375.470719 262.276863 
L 375.874518 262.626429 
L 376.682117 266.471951 
L 377.085916 264.723827 
L 377.489715 264.024694 
L 377.893514 266.471951 
L 378.297313 262.626429 
L 378.701113 264.37426 
L 379.104912 266.821517 
L 379.508711 265.073393 
L 379.91251 293.041036 
L 380.316309 266.122385 
L 380.720109 266.471951 
L 381.123908 265.772819 
L 381.527707 266.471951 
L 381.931506 263.325562 
L 382.335305 268.219782 
L 382.739104 262.975996 
L 383.142904 267.171083 
L 383.546703 265.073393 
L 383.950502 265.073393 
L 384.354301 262.626429 
L 384.7581 261.227871 
L 385.1619 265.073393 
L 385.565699 267.52065 
L 385.969498 266.122385 
L 386.777096 265.422959 
L 387.180896 267.171083 
L 387.584695 267.52065 
L 388.392293 269.61834 
L 388.796092 271.715738 
L 389.199891 268.219782 
L 389.603691 269.967906 
L 390.00749 286.049126 
L 390.411289 271.016605 
L 390.815088 274.862127 
L 391.218887 274.512561 
L 391.622687 273.114296 
L 392.026486 270.667039 
L 392.430285 272.764436 
L 392.834084 272.764436 
L 393.237883 271.016605 
L 393.641682 277.309384 
L 394.045482 278.358082 
L 394.449281 281.854038 
L 394.85308 284.301294 
L 395.256879 285.699559 
L 395.660678 289.195515 
L 396.064478 287.097824 
L 396.468277 286.748258 
L 396.872076 290.244213 
L 397.275875 295.488 
L 397.679674 295.488 
L 398.083474 292.69147 
L 398.487273 293.740169 
L 398.487273 293.740169 
" style="fill:none;stroke:#000000;stroke-linecap:square;stroke-width:1.5;"/>
   </g>
   <g id="line2d_19">
    <path clip-path="url(#pe08246a4e9)" d="M 322.169227 223.121634 
L 322.976825 250.390438 
L 323.380624 252.837695 
L 323.784423 260.878305 
L 324.188223 263.325562 
L 324.592022 262.626429 
L 324.995821 263.325562 
L 325.39962 265.073393 
L 325.803419 262.975995 
L 326.207218 262.975995 
L 326.611018 265.073393 
L 327.014817 261.227871 
L 327.418616 261.927297 
L 327.822415 263.675128 
L 328.226214 262.626429 
L 328.630014 264.723826 
L 329.033813 261.577437 
L 329.437612 262.975995 
L 329.841411 263.325562 
L 330.24521 262.276863 
L 330.649009 262.626429 
L 331.052809 262.276863 
L 331.860407 265.422959 
L 332.264206 264.723826 
L 333.071805 261.227871 
L 333.475604 265.073393 
L 333.879403 261.227871 
L 334.283202 262.975995 
L 335.090801 263.675128 
L 335.4946 262.975995 
L 335.898399 262.975995 
L 336.302198 264.024694 
L 336.705997 262.276863 
L 337.109796 259.130474 
L 337.513596 263.325562 
L 337.917395 262.626429 
L 338.321194 261.577437 
L 338.724993 266.471951 
L 339.128792 264.024694 
L 339.532592 262.276863 
L 340.34019 264.37426 
L 340.743989 261.577437 
L 341.147788 264.723826 
L 341.551588 262.975995 
L 341.955387 265.422959 
L 342.359186 265.772818 
L 342.762985 258.081775 
L 343.166784 263.675128 
L 343.570583 264.024694 
L 343.974383 265.422959 
L 344.378182 261.577437 
L 344.781981 264.723826 
L 345.18578 260.878305 
L 345.589579 261.227871 
L 345.993379 263.325562 
L 346.397178 258.431341 
L 346.800977 264.37426 
L 347.204776 260.878305 
L 347.608575 262.276863 
L 348.416174 267.520649 
L 348.819973 265.073393 
L 349.223772 263.325562 
L 349.627571 258.081775 
L 350.43517 264.723826 
L 350.838969 269.61834 
L 351.242768 265.073393 
L 351.646567 262.626429 
L 352.050366 261.927297 
L 352.454166 264.37426 
L 352.857965 257.731916 
L 353.261764 262.626429 
L 353.665563 260.528739 
L 354.069362 261.227871 
L 354.473161 266.821517 
L 354.876961 261.577437 
L 355.28076 261.577437 
L 355.684559 262.626429 
L 356.088358 260.878305 
L 356.492157 258.431341 
L 356.895957 266.821517 
L 357.299756 267.520649 
L 357.703555 262.975995 
L 358.107354 261.577437 
L 358.511153 264.37426 
L 358.914953 265.422959 
L 359.318752 265.772818 
L 359.722551 265.422959 
L 360.12635 266.471951 
L 360.530149 266.821517 
L 360.933948 259.130474 
L 361.337748 265.073393 
L 361.741547 265.772818 
L 362.549145 260.878305 
L 363.356744 264.723826 
L 363.760543 266.471951 
L 364.568141 262.626429 
L 364.97194 258.081775 
L 365.375739 262.626429 
L 365.779539 262.276863 
L 366.183338 264.37426 
L 366.587137 264.024694 
L 366.990936 260.528739 
L 367.394735 266.821517 
L 367.798535 264.723826 
L 368.202334 264.723826 
L 368.606133 262.276863 
L 369.009932 265.422959 
L 369.413731 266.471951 
L 369.817531 261.227871 
L 370.22133 264.024694 
L 370.625129 264.723826 
L 371.028928 267.520649 
L 371.432727 261.577437 
L 371.836526 267.870216 
L 372.240326 264.723826 
L 372.644125 265.422959 
L 373.047924 261.577437 
L 373.451723 262.975995 
L 373.855522 263.325562 
L 374.259322 262.626429 
L 374.663121 264.723826 
L 375.06692 261.577437 
L 375.470719 262.276863 
L 375.874518 262.626429 
L 376.682117 266.471951 
L 377.085916 264.723826 
L 377.489715 264.024694 
L 377.893514 266.471951 
L 378.297313 262.626429 
L 378.701113 264.37426 
L 379.104912 266.821517 
L 379.508711 265.073393 
L 379.91251 293.041036 
L 380.316309 266.122385 
L 380.720109 266.471951 
L 381.123908 265.772818 
L 381.527707 266.471951 
L 381.931506 263.325562 
L 382.335305 268.219782 
L 382.739104 262.975995 
L 383.142904 267.171083 
L 383.546703 265.073393 
L 383.950502 265.073393 
L 384.354301 262.626429 
L 384.7581 261.227871 
L 385.1619 265.073393 
L 385.565699 267.520649 
L 385.969498 266.122385 
L 386.777096 265.422959 
L 387.180896 267.171083 
L 387.584695 267.520649 
L 388.392293 269.61834 
L 388.796092 271.715737 
L 389.199891 268.219782 
L 389.603691 269.967906 
L 390.00749 286.049125 
L 390.411289 271.016605 
L 390.815088 274.862127 
L 391.218887 274.51256 
L 391.622687 273.114295 
L 392.026486 270.667039 
L 392.430285 272.764436 
L 392.834084 272.764436 
L 393.237883 271.016605 
L 393.641682 277.309383 
L 394.045482 278.358082 
L 394.449281 281.854037 
L 394.85308 284.301294 
L 395.256879 285.699559 
L 395.660678 289.195515 
L 396.064478 287.097824 
L 396.468277 286.748258 
L 396.872076 290.244213 
L 397.275875 295.488 
L 397.679674 295.488 
L 398.083474 292.69147 
L 398.487273 293.740169 
L 398.487273 293.740169 
" style="fill:none;stroke:#0000ff;stroke-dasharray:1.5,2.475;stroke-dashoffset:0;stroke-width:1.5;"/>
   </g>
   <g id="line2d_20">
    <path clip-path="url(#pe08246a4e9)" d="M 184.877503 128.73113 
L 185.079403 126.10909 
L 185.281303 127.157789 
L 185.483202 141.316394 
L 185.685102 140.617261 
L 185.887001 143.414084 
L 186.088901 143.414084 
L 186.290801 137.645655 
L 186.4927 140.966828 
L 186.6946 139.568563 
L 186.896499 140.442478 
L 187.098399 136.77174 
L 187.300299 138.694354 
L 187.502198 138.344788 
L 187.704098 139.04392 
L 187.905997 133.625351 
L 188.107897 135.023615 
L 188.309796 140.442478 
L 188.511696 140.267695 
L 188.713596 140.442478 
L 188.915495 138.519571 
L 189.319294 140.092912 
L 189.521194 136.946523 
L 189.723094 141.316394 
L 189.924993 137.995222 
L 190.126893 137.820438 
L 190.328792 137.121306 
L 190.530692 138.694354 
L 190.732592 138.344788 
L 190.934491 139.39378 
L 191.136391 138.170005 
L 191.33829 140.966828 
L 191.54019 135.897824 
L 191.74209 134.499266 
L 191.943989 135.547965 
L 192.145889 141.316394 
L 192.347788 135.897824 
L 192.751588 140.617261 
L 192.953487 136.77174 
L 193.155387 137.645655 
L 193.559186 134.324483 
L 193.761085 138.344788 
L 193.962985 137.820438 
L 194.164885 138.694354 
L 194.366784 137.296089 
L 194.568684 140.442478 
L 194.770583 140.442478 
L 194.972483 139.918129 
L 195.174383 138.344788 
L 195.578182 137.296089 
L 195.780081 141.491177 
L 195.981981 139.918129 
L 196.183881 135.023615 
L 196.38578 137.645655 
L 196.58768 135.547965 
L 196.991479 139.04392 
L 197.193379 138.694354 
L 197.395278 141.316394 
L 197.597178 140.966828 
L 197.799077 137.470872 
L 198.000977 141.491177 
L 198.202877 139.39378 
L 198.404776 139.568563 
L 198.606676 137.470872 
L 198.808575 137.645655 
L 199.010475 139.218703 
L 199.212374 137.995222 
L 199.414274 143.239301 
L 199.616174 138.344788 
L 199.818073 138.519571 
L 200.019973 139.218703 
L 200.221872 136.24739 
L 200.423772 135.373182 
L 200.625672 136.596957 
L 200.827571 139.218703 
L 201.23137 134.848832 
L 201.43327 135.897824 
L 201.837069 139.568563 
L 202.038969 143.064225 
L 202.240868 138.694354 
L 202.644668 140.442478 
L 202.846567 138.869137 
L 203.048467 141.491177 
L 203.250366 142.539876 
L 203.452266 139.743346 
L 203.654166 141.141611 
L 203.856065 139.39378 
L 204.259864 137.820438 
L 204.461764 142.015526 
L 205.067463 135.198399 
L 205.269362 137.470872 
L 205.471262 136.24739 
L 205.673161 138.519571 
L 205.875061 137.121306 
L 206.076961 141.840743 
L 206.27886 139.39378 
L 206.48076 141.66596 
L 206.682659 137.820438 
L 206.884559 143.938434 
L 207.086459 139.568563 
L 207.490258 139.568563 
L 207.692157 139.04392 
L 207.894057 143.588868 
L 208.095957 139.39378 
L 208.297856 139.568563 
L 208.701655 141.491177 
L 208.903555 140.092912 
L 209.105455 137.470872 
L 209.307354 144.462783 
L 209.509254 139.04392 
L 209.711153 142.015526 
L 209.913053 142.365093 
L 210.114953 143.414084 
L 210.316852 139.39378 
L 210.518752 139.743346 
L 210.720651 143.763651 
L 210.922551 139.568563 
L 211.12445 141.840743 
L 211.32635 138.344788 
L 211.52825 141.316394 
L 211.730149 140.792045 
L 211.932049 144.288 
L 212.133948 143.938434 
L 212.335848 142.365093 
L 212.537748 142.190309 
L 212.739647 145.161916 
L 212.941547 143.588868 
L 212.941547 143.588868 
" style="fill:none;stroke:#000000;stroke-linecap:square;stroke-width:1.5;"/>
   </g>
   <g id="line2d_21">
    <path clip-path="url(#pe08246a4e9)" d="M 184.877503 128.73113 
L 185.079403 126.10909 
L 185.281303 127.157789 
L 185.483202 141.316394 
L 185.685102 140.617261 
L 185.887001 143.414084 
L 186.088901 143.414084 
L 186.290801 137.645655 
L 186.4927 140.966828 
L 186.6946 139.568563 
L 186.896499 140.442478 
L 187.098399 136.77174 
L 187.300299 138.694354 
L 187.502198 138.344788 
L 187.704098 139.04392 
L 187.905997 133.62535 
L 188.107897 135.023615 
L 188.309796 140.442478 
L 188.511696 140.267695 
L 188.713596 140.442478 
L 188.915495 138.519571 
L 189.319294 140.092912 
L 189.521194 136.946523 
L 189.723094 141.316394 
L 189.924993 137.995221 
L 190.126893 137.820438 
L 190.328792 137.121306 
L 190.530692 138.694354 
L 190.732592 138.344788 
L 190.934491 139.39378 
L 191.136391 138.170005 
L 191.33829 140.966828 
L 191.54019 135.897824 
L 191.74209 134.499266 
L 191.943989 135.547965 
L 192.145889 141.316394 
L 192.347788 135.897824 
L 192.751588 140.617261 
L 192.953487 136.77174 
L 193.155387 137.645655 
L 193.559186 134.324483 
L 193.761085 138.344788 
L 193.962985 137.820438 
L 194.164885 138.694354 
L 194.366784 137.296089 
L 194.568684 140.442478 
L 194.770583 140.442478 
L 194.972483 139.918129 
L 195.174383 138.344788 
L 195.578182 137.296089 
L 195.780081 141.491177 
L 195.981981 139.918129 
L 196.183881 135.023615 
L 196.38578 137.645655 
L 196.58768 135.547965 
L 196.991479 139.04392 
L 197.193379 138.694354 
L 197.395278 141.316394 
L 197.597178 140.966828 
L 197.799077 137.470872 
L 198.000977 141.491177 
L 198.202877 139.39378 
L 198.404776 139.568563 
L 198.606676 137.470872 
L 198.808575 137.645655 
L 199.010475 139.218703 
L 199.212374 137.995221 
L 199.414274 143.239301 
L 199.616174 138.344788 
L 199.818073 138.519571 
L 200.019973 139.218703 
L 200.221872 136.24739 
L 200.423772 135.373182 
L 200.625672 136.596957 
L 200.827571 139.218703 
L 201.23137 134.848832 
L 201.43327 135.897824 
L 201.837069 139.568563 
L 202.038969 143.064225 
L 202.240868 138.694354 
L 202.644668 140.442478 
L 202.846567 138.869137 
L 203.048467 141.491177 
L 203.250366 142.539876 
L 203.452266 139.743346 
L 203.654166 141.141611 
L 203.856065 139.39378 
L 204.259864 137.820438 
L 204.461764 142.015526 
L 205.067463 135.198398 
L 205.269362 137.470872 
L 205.471262 136.24739 
L 205.673161 138.519571 
L 205.875061 137.121306 
L 206.076961 141.840743 
L 206.27886 139.39378 
L 206.48076 141.66596 
L 206.682659 137.820438 
L 206.884559 143.938434 
L 207.086459 139.568563 
L 207.490258 139.568563 
L 207.692157 139.04392 
L 207.894057 143.588868 
L 208.095957 139.39378 
L 208.297856 139.568563 
L 208.701655 141.491177 
L 208.903555 140.092912 
L 209.105455 137.470872 
L 209.307354 144.462783 
L 209.509254 139.04392 
L 209.711153 142.015526 
L 209.913053 142.365092 
L 210.114953 143.414084 
L 210.316852 139.39378 
L 210.518752 139.743346 
L 210.720651 143.763651 
L 210.922551 139.568563 
L 211.12445 141.840743 
L 211.32635 138.344788 
L 211.52825 141.316394 
L 211.730149 140.792045 
L 211.932049 144.288 
L 212.133948 143.938434 
L 212.335848 142.365092 
L 212.537748 142.190309 
L 212.739647 145.161915 
L 212.941547 143.588868 
L 212.941547 143.588868 
" style="fill:none;stroke:#ff0000;stroke-dasharray:1.5,2.475;stroke-dashoffset:0;stroke-width:1.5;"/>
   </g>
   <g id="line2d_22">
    <path clip-path="url(#pe08246a4e9)" d="M 137.431099 109.503229 
L 137.632999 108.804096 
L 137.834898 106.531622 
L 138.036798 110.551927 
L 138.238697 111.600919 
L 138.440597 105.308141 
L 138.642497 110.202361 
L 138.844396 108.279747 
L 139.046296 110.551927 
L 139.248195 110.72671 
L 139.450095 111.775702 
L 139.651995 109.503229 
L 139.853894 111.600919 
L 140.055794 108.104964 
L 140.257693 108.804096 
L 140.459593 107.755397 
L 140.661493 109.503229 
L 140.863392 106.706406 
L 141.065292 108.45453 
L 141.267191 111.25106 
L 141.469091 105.83249 
L 141.670991 108.804096 
L 141.87289 111.25106 
L 142.07479 108.804096 
L 142.276689 110.377144 
L 142.478589 105.657707 
L 142.680488 109.678012 
L 142.882388 110.377144 
L 143.084288 108.804096 
L 143.286187 107.755397 
L 143.488087 108.629313 
L 143.689986 110.72671 
L 143.891886 110.377144 
L 144.093786 108.978879 
L 144.295685 107.755397 
L 144.497585 109.328445 
L 144.699484 108.279747 
L 144.901384 108.104964 
L 145.103284 107.755397 
L 145.305183 113.698316 
L 145.507083 110.202361 
L 145.708982 110.377144 
L 145.910882 111.076277 
L 146.112782 106.531622 
L 146.314681 110.72671 
L 146.516581 107.930181 
L 146.71848 111.950485 
L 146.92038 107.230755 
L 147.12228 111.600919 
L 147.324179 110.202361 
L 147.526079 109.328445 
L 147.727978 107.405538 
L 147.929878 110.202361 
L 148.131777 110.202361 
L 148.333677 106.881189 
L 148.535577 114.397449 
L 148.737476 109.852795 
L 148.939376 109.852795 
L 149.141275 112.300052 
L 149.343175 113.698316 
" style="fill:none;stroke:#000000;stroke-linecap:square;stroke-width:1.5;"/>
   </g>
   <g id="line2d_23">
    <path clip-path="url(#pe08246a4e9)" d="M 137.431099 109.503229 
L 137.632999 108.804096 
L 137.834898 106.531622 
L 138.036798 110.551927 
L 138.238697 111.600919 
L 138.440597 105.308141 
L 138.642497 110.202361 
L 138.844396 108.279747 
L 139.046296 110.551927 
L 139.248195 110.72671 
L 139.450095 111.775702 
L 139.651995 109.503229 
L 139.853894 111.600919 
L 140.055794 108.104964 
L 140.257693 108.804096 
L 140.459593 107.755397 
L 140.661493 109.503229 
L 140.863392 106.706406 
L 141.065292 108.45453 
L 141.267191 111.25106 
L 141.469091 105.83249 
L 141.670991 108.804096 
L 141.87289 111.25106 
L 142.07479 108.804096 
L 142.276689 110.377144 
L 142.478589 105.657707 
L 142.680488 109.678012 
L 142.882388 110.377144 
L 143.084288 108.804096 
L 143.286187 107.755397 
L 143.488087 108.629313 
L 143.689986 110.72671 
L 143.891886 110.377144 
L 144.093786 108.978879 
L 144.295685 107.755397 
L 144.497585 109.328445 
L 144.699484 108.279747 
L 144.901384 108.104964 
L 145.103284 107.755397 
L 145.305183 113.698316 
L 145.507083 110.202361 
L 145.708982 110.377144 
L 145.910882 111.076277 
L 146.112782 106.531622 
L 146.314681 110.72671 
L 146.516581 107.930181 
L 146.71848 111.950485 
L 146.92038 107.230755 
L 147.12228 111.600919 
L 147.324179 110.202361 
L 147.526079 109.328445 
L 147.727978 107.405538 
L 147.929878 110.202361 
L 148.131777 110.202361 
L 148.333677 106.881189 
L 148.535577 114.397449 
L 148.737476 109.852795 
L 148.939376 109.852795 
L 149.141275 112.300052 
L 149.343175 113.698316 
" style="fill:none;stroke:#ffa500;stroke-dasharray:1.5,2.475;stroke-dashoffset:0;stroke-width:1.5;"/>
   </g>
   <g id="line2d_24">
    <path clip-path="url(#pe08246a4e9)" d="M 111.184152 97.180052 
L 111.386052 97.529647 
L 111.587951 94.732912 
L 111.789851 94.208504 
L 111.99175 96.218686 
L 112.19365 95.169899 
L 112.39555 98.491042 
L 112.597449 98.228838 
L 112.799349 99.801886 
L 113.001248 94.645491 
L 113.203148 94.995087 
L 113.405047 97.267443 
L 113.606947 98.578434 
L 113.808847 96.131265 
L 114.010746 99.5398 
L 114.212646 96.131265 
L 114.414545 97.354864 
L 114.616445 95.956482 
L 114.818345 99.277625 
L 115.020244 99.102812 
L 115.222144 98.665825 
L 115.424043 96.218686 
L 115.625943 99.102812 
L 115.827843 99.015421 
L 116.029742 93.596734 
L 116.231642 96.917848 
L 116.433541 97.966634 
L 116.635441 97.966634 
L 116.837341 97.442256 
L 117.03924 96.743065 
L 117.24114 96.393469 
L 117.443039 97.791851 
L 117.644939 97.09266 
L 117.846839 99.714495 
L 118.048738 94.5581 
L 118.250638 95.781669 
L 118.452537 95.781669 
L 118.654437 95.169899 
L 118.856336 97.529647 
L 119.058236 96.917848 
L 119.260136 100.326529 
L 119.462035 102.07436 
L 119.663935 96.218686 
L 119.865834 98.578434 
L 120.067734 96.830456 
L 120.269634 99.102812 
L 120.471533 97.966634 
L 120.673433 101.200444 
L 120.875332 97.005268 
L 121.077232 97.70446 
" style="fill:none;stroke:#000000;stroke-linecap:square;stroke-width:1.5;"/>
   </g>
   <g id="line2d_25">
    <path clip-path="url(#pe08246a4e9)" d="M 111.184152 97.180052 
L 111.386052 97.529647 
L 111.587951 94.732912 
L 111.789851 94.208504 
L 111.99175 96.218686 
L 112.19365 95.169899 
L 112.39555 98.491042 
L 112.597449 98.228838 
L 112.799349 99.801886 
L 113.001248 94.645491 
L 113.203148 94.995087 
L 113.405047 97.267443 
L 113.606947 98.578434 
L 113.808847 96.131265 
L 114.010746 99.5398 
L 114.212646 96.131265 
L 114.414545 97.354864 
L 114.616445 95.956482 
L 114.818345 99.277625 
L 115.020244 99.102812 
L 115.222144 98.665825 
L 115.424043 96.218686 
L 115.625943 99.102812 
L 115.827843 99.015421 
L 116.029742 93.596734 
L 116.231642 96.917848 
L 116.433541 97.966634 
L 116.635441 97.966634 
L 116.837341 97.442256 
L 117.03924 96.743064 
L 117.24114 96.393469 
L 117.443039 97.791851 
L 117.644939 97.09266 
L 117.846839 99.714495 
L 118.048738 94.5581 
L 118.250638 95.781669 
L 118.452537 95.781669 
L 118.654437 95.169899 
L 118.856336 97.529647 
L 119.058236 96.917848 
L 119.260136 100.326529 
L 119.462035 102.07436 
L 119.663935 96.218686 
L 119.865834 98.578434 
L 120.067734 96.830456 
L 120.269634 99.102812 
L 120.471533 97.966634 
L 120.673433 101.200444 
L 120.875332 97.005268 
L 121.077232 97.70446 
" style="fill:none;stroke:#800080;stroke-dasharray:1.5,2.475;stroke-dashoffset:0;stroke-width:1.5;"/>
   </g>
   <g id="line2d_26">
    <path clip-path="url(#pe08246a4e9)" d="M 96.041682 53.568 
L 96.243582 70.348586 
L 96.445482 81.710456 
L 96.647381 90.537707 
L 96.849281 93.247138 
L 97.05118 92.198264 
L 97.25308 94.208504 
L 97.45498 93.684125 
L 97.656879 88.265351 
L 97.858779 91.499073 
L 98.060678 91.761277 
L 98.262578 88.614917 
L 98.464478 88.003147 
L 98.666377 89.314108 
L 98.868277 90.71249 
L 99.070176 91.32429 
L 99.272076 85.468586 
L 99.473976 93.159717 
L 99.675875 93.247138 
L 99.877775 90.450286 
L 100.079674 90.10069 
L 100.281574 91.586464 
L 100.483474 94.121113 
L 100.685373 92.635251 
L 100.887273 92.547859 
L 101.089172 91.32429 
L 101.291072 90.71249 
L 101.492972 92.198264 
L 101.694871 89.139325 
L 101.896771 91.586464 
L 102.09867 91.761277 
L 102.30057 91.761277 
L 102.502469 90.799882 
L 102.704369 90.013299 
L 102.906269 91.673885 
L 103.108168 89.48892 
L 103.310068 93.33453 
L 103.511967 91.32429 
L 103.713867 92.897543 
L 103.915767 92.897543 
" style="fill:none;stroke:#000000;stroke-linecap:square;stroke-width:1.5;"/>
   </g>
   <g id="line2d_27">
    <path clip-path="url(#pe08246a4e9)" d="M 96.041682 53.568 
M 96.445482 81.710456 
L 96.647381 90.537707 
L 96.849281 93.247138 
L 97.05118 92.198264 
L 97.25308 94.208504 
L 97.45498 93.684125 
L 97.656879 88.265351 
L 97.858779 91.499073 
L 98.060678 91.761277 
L 98.262578 88.614917 
L 98.464478 88.003147 
L 98.666377 89.314108 
L 98.868277 90.71249 
L 99.070176 91.32429 
L 99.272076 85.468586 
L 99.473976 93.159717 
L 99.675875 93.247138 
L 99.877775 90.450286 
L 100.079674 90.10069 
L 100.281574 91.586464 
L 100.483474 94.121113 
L 100.685373 92.635251 
L 100.887273 92.547859 
L 101.089172 91.32429 
L 101.291072 90.71249 
L 101.492972 92.198264 
L 101.694871 89.139325 
L 101.896771 91.586464 
L 102.09867 91.761277 
L 102.30057 91.761277 
L 102.502469 90.799882 
L 102.704369 90.013299 
L 102.906269 91.673885 
L 103.108168 89.48892 
L 103.310068 93.33453 
L 103.511967 91.32429 
L 103.713867 92.897543 
L 103.915767 92.897543 
" style="fill:none;stroke:#ffff00;stroke-dasharray:1.5,2.475;stroke-dashoffset:0;stroke-width:1.5;"/>
   </g>
   <g id="line2d_28">
    <path clip-path="url(#pe08246a4e9)" d="M 85.946703 75.155532 
L 86.148602 83.021447 
L 86.350502 88.003147 
L 86.552402 87.391347 
L 86.754301 85.206382 
L 86.956201 90.362894 
L 87.1581 84.070204 
L 87.36 89.401529 
L 87.5619 84.944208 
L 87.763799 88.614917 
L 87.965699 86.167777 
L 88.167598 85.293803 
L 88.369498 87.041751 
L 88.571398 87.216564 
L 88.773297 84.070204 
L 88.975197 87.915755 
L 89.177096 86.604764 
L 89.378996 89.139325 
L 89.580896 85.73079 
L 89.782795 87.566159 
L 89.984695 87.041751 
L 90.186594 85.73079 
L 90.388494 87.915755 
L 90.590393 87.129172 
L 90.792293 86.34256 
L 90.994193 86.779577 
L 91.196092 84.070204 
L 91.397992 88.003147 
L 91.599891 85.031599 
L 91.801791 85.118991 
" style="fill:none;stroke:#000000;stroke-linecap:square;stroke-width:1.5;"/>
   </g>
   <g id="line2d_29">
    <path clip-path="url(#pe08246a4e9)" d="M 85.946703 75.155532 
L 86.148602 83.021447 
L 86.350502 88.003147 
L 86.552402 87.391347 
L 86.754301 85.206382 
L 86.956201 90.362894 
L 87.1581 84.070204 
L 87.36 89.401529 
L 87.5619 84.944208 
L 87.763799 88.614917 
L 87.965699 86.167777 
L 88.167598 85.293803 
L 88.369498 87.041751 
L 88.571398 87.216564 
L 88.773297 84.070204 
L 88.975197 87.915755 
L 89.177096 86.604764 
L 89.378996 89.139325 
L 89.580896 85.73079 
L 89.782795 87.566159 
L 89.984695 87.041751 
L 90.186594 85.73079 
L 90.388494 87.915755 
L 90.590393 87.129172 
L 90.792293 86.34256 
L 90.994193 86.779577 
L 91.196092 84.070204 
L 91.397992 88.003147 
L 91.599891 85.031599 
L 91.801791 85.118991 
" style="fill:none;stroke:#ffc0cb;stroke-dasharray:1.5,2.475;stroke-dashoffset:0;stroke-width:1.5;"/>
   </g>
   <g id="line2d_30">
    <path clip-path="url(#pe08246a4e9)" d="M 79.889715 73.057947 
L 80.091615 86.692156 
L 80.293514 86.080386 
L 80.495414 84.769395 
L 80.697313 83.633217 
L 80.899213 85.031599 
L 81.101113 81.885268 
L 81.303012 85.992965 
L 81.504912 83.720608 
L 81.706811 83.545825 
L 81.908711 83.545825 
L 82.110611 85.118991 
L 82.31251 84.856787 
L 82.51441 85.206382 
L 82.716309 84.769395 
L 82.918209 84.594612 
L 83.120109 84.332408 
L 83.322008 83.545825 
L 83.523908 84.50722 
L 83.725807 85.381195 
" style="fill:none;stroke:#000000;stroke-linecap:square;stroke-width:1.5;"/>
   </g>
   <g id="line2d_31">
    <path clip-path="url(#pe08246a4e9)" d="M 79.889715 73.057947 
L 80.091615 86.692156 
L 80.293514 86.080386 
L 80.495414 84.769395 
L 80.697313 83.633217 
L 80.899213 85.031599 
L 81.101113 81.885268 
L 81.303012 85.992965 
L 81.504912 83.720608 
L 81.706811 83.545825 
L 81.908711 83.545825 
L 82.110611 85.118991 
L 82.31251 84.856787 
L 82.51441 85.206382 
L 82.716309 84.769395 
L 82.918209 84.594612 
L 83.120109 84.332408 
L 83.322008 83.545825 
L 83.523908 84.50722 
L 83.725807 85.381195 
" style="fill:none;stroke:#00ffff;stroke-dasharray:1.5,2.475;stroke-dashoffset:0;stroke-width:1.5;"/>
   </g>
   <g id="line2d_32">
    <path clip-path="url(#pe08246a4e9)" d="M 73.832727 80.268349 
L 73.933677 79.743941 
L 74.034627 84.4198 
L 74.135577 81.776 
L 74.236526 81.841543 
L 74.337476 81.120475 
L 74.438426 79.787666 
L 74.539376 80.814575 
L 74.640326 82.868482 
L 74.741275 78.192623 
L 74.842225 84.332408 
L 74.943175 82.365951 
L 75.044125 82.628155 
L 75.145075 81.885268 
L 75.246024 85.621521 
L 75.346974 81.054931 
L 75.447924 80.443132 
L 75.548874 82.387799 
L 75.649824 82.103747 
L 75.750773 81.491919 
L 75.851723 80.901967 
L 76.053623 81.688608 
L 76.255522 80.552401 
L 76.457422 80.749032 
L 76.659322 80.923844 
L 76.861221 81.754152 
L 77.063121 80.290197 
L 77.26502 82.802938 
" style="fill:none;stroke:#000000;stroke-linecap:square;stroke-width:1.5;"/>
   </g>
   <g id="line2d_33">
    <path clip-path="url(#pe08246a4e9)" d="M 73.832727 80.268349 
L 73.933677 79.743941 
L 74.034627 84.4198 
L 74.135577 81.776 
L 74.236526 81.841543 
L 74.337476 81.120475 
L 74.438426 79.787666 
L 74.539376 80.814575 
L 74.640326 82.868482 
L 74.741275 78.192623 
L 74.842225 84.332408 
L 74.943175 82.365951 
L 75.044125 82.628155 
L 75.145075 81.885268 
L 75.246024 85.621521 
L 75.346974 81.054931 
L 75.447924 80.443132 
L 75.548874 82.387799 
L 75.649824 82.103747 
L 75.750773 81.491919 
L 75.851723 80.901967 
L 76.053623 81.688608 
L 76.255522 80.552401 
L 76.457422 80.749032 
L 76.659322 80.923844 
L 76.861221 81.754152 
L 77.063121 80.290197 
L 77.26502 82.802938 
" style="fill:none;stroke:#008000;stroke-dasharray:1.5,2.475;stroke-dashoffset:0;stroke-width:1.5;"/>
   </g>
   <g id="patch_3">
    <path d="M 57.6 307.584 
L 57.6 41.472 
" style="fill:none;stroke:#000000;stroke-linecap:square;stroke-linejoin:miter;stroke-width:0.8;"/>
   </g>
   <g id="patch_4">
    <path d="M 414.72 307.584 
L 414.72 41.472 
" style="fill:none;stroke:#000000;stroke-linecap:square;stroke-linejoin:miter;stroke-width:0.8;"/>
   </g>
   <g id="patch_5">
    <path d="M 57.6 307.584 
L 414.72 307.584 
" style="fill:none;stroke:#000000;stroke-linecap:square;stroke-linejoin:miter;stroke-width:0.8;"/>
   </g>
   <g id="patch_6">
    <path d="M 57.6 41.472 
L 414.72 41.472 
" style="fill:none;stroke:#000000;stroke-linecap:square;stroke-linejoin:miter;stroke-width:0.8;"/>
   </g>
   <g id="text_21">
    <!-- Parallel Resistivity, $\nu$ = 1-8 -->
    <g transform="translate(155.34 35.472)scale(0.12 -0.12)">
     <defs>
      <path d="M 1259 4147 
L 1259 2394 
L 2053 2394 
Q 2494 2394 2734 2622 
Q 2975 2850 2975 3272 
Q 2975 3691 2734 3919 
Q 2494 4147 2053 4147 
L 1259 4147 
z
M 628 4666 
L 2053 4666 
Q 2838 4666 3239 4311 
Q 3641 3956 3641 3272 
Q 3641 2581 3239 2228 
Q 2838 1875 2053 1875 
L 1259 1875 
L 1259 0 
L 628 0 
L 628 4666 
z
" id="DejaVuSans-50" transform="scale(0.015625)"/>
      <path d="M 2194 1759 
Q 1497 1759 1228 1600 
Q 959 1441 959 1056 
Q 959 750 1161 570 
Q 1363 391 1709 391 
Q 2188 391 2477 730 
Q 2766 1069 2766 1631 
L 2766 1759 
L 2194 1759 
z
M 3341 1997 
L 3341 0 
L 2766 0 
L 2766 531 
Q 2569 213 2275 61 
Q 1981 -91 1556 -91 
Q 1019 -91 701 211 
Q 384 513 384 1019 
Q 384 1609 779 1909 
Q 1175 2209 1959 2209 
L 2766 2209 
L 2766 2266 
Q 2766 2663 2505 2880 
Q 2244 3097 1772 3097 
Q 1472 3097 1187 3025 
Q 903 2953 641 2809 
L 641 3341 
Q 956 3463 1253 3523 
Q 1550 3584 1831 3584 
Q 2591 3584 2966 3190 
Q 3341 2797 3341 1997 
z
" id="DejaVuSans-61" transform="scale(0.015625)"/>
      <path d="M 2631 2963 
Q 2534 3019 2420 3045 
Q 2306 3072 2169 3072 
Q 1681 3072 1420 2755 
Q 1159 2438 1159 1844 
L 1159 0 
L 581 0 
L 581 3500 
L 1159 3500 
L 1159 2956 
Q 1341 3275 1631 3429 
Q 1922 3584 2338 3584 
Q 2397 3584 2469 3576 
Q 2541 3569 2628 3553 
L 2631 2963 
z
" id="DejaVuSans-72" transform="scale(0.015625)"/>
      <path d="M 603 4863 
L 1178 4863 
L 1178 0 
L 603 0 
L 603 4863 
z
" id="DejaVuSans-6c" transform="scale(0.015625)"/>
      <path d="M 2841 2188 
Q 3044 2119 3236 1894 
Q 3428 1669 3622 1275 
L 4263 0 
L 3584 0 
L 2988 1197 
Q 2756 1666 2539 1819 
Q 2322 1972 1947 1972 
L 1259 1972 
L 1259 0 
L 628 0 
L 628 4666 
L 2053 4666 
Q 2853 4666 3247 4331 
Q 3641 3997 3641 3322 
Q 3641 2881 3436 2590 
Q 3231 2300 2841 2188 
z
M 1259 4147 
L 1259 2491 
L 2053 2491 
Q 2509 2491 2742 2702 
Q 2975 2913 2975 3322 
Q 2975 3731 2742 3939 
Q 2509 4147 2053 4147 
L 1259 4147 
z
" id="DejaVuSans-52" transform="scale(0.015625)"/>
      <path d="M 2834 3397 
L 2834 2853 
Q 2591 2978 2328 3040 
Q 2066 3103 1784 3103 
Q 1356 3103 1142 2972 
Q 928 2841 928 2578 
Q 928 2378 1081 2264 
Q 1234 2150 1697 2047 
L 1894 2003 
Q 2506 1872 2764 1633 
Q 3022 1394 3022 966 
Q 3022 478 2636 193 
Q 2250 -91 1575 -91 
Q 1294 -91 989 -36 
Q 684 19 347 128 
L 347 722 
Q 666 556 975 473 
Q 1284 391 1588 391 
Q 1994 391 2212 530 
Q 2431 669 2431 922 
Q 2431 1156 2273 1281 
Q 2116 1406 1581 1522 
L 1381 1569 
Q 847 1681 609 1914 
Q 372 2147 372 2553 
Q 372 3047 722 3315 
Q 1072 3584 1716 3584 
Q 2034 3584 2315 3537 
Q 2597 3491 2834 3397 
z
" id="DejaVuSans-73" transform="scale(0.015625)"/>
      <path d="M 603 3500 
L 1178 3500 
L 1178 0 
L 603 0 
L 603 3500 
z
M 603 4863 
L 1178 4863 
L 1178 4134 
L 603 4134 
L 603 4863 
z
" id="DejaVuSans-69" transform="scale(0.015625)"/>
      <path d="M 1172 4494 
L 1172 3500 
L 2356 3500 
L 2356 3053 
L 1172 3053 
L 1172 1153 
Q 1172 725 1289 603 
Q 1406 481 1766 481 
L 2356 481 
L 2356 0 
L 1766 0 
Q 1100 0 847 248 
Q 594 497 594 1153 
L 594 3053 
L 172 3053 
L 172 3500 
L 594 3500 
L 594 4494 
L 1172 4494 
z
" id="DejaVuSans-74" transform="scale(0.015625)"/>
      <path d="M 191 3500 
L 800 3500 
L 1894 563 
L 2988 3500 
L 3597 3500 
L 2284 0 
L 1503 0 
L 191 3500 
z
" id="DejaVuSans-76" transform="scale(0.015625)"/>
      <path d="M 2059 -325 
Q 1816 -950 1584 -1140 
Q 1353 -1331 966 -1331 
L 506 -1331 
L 506 -850 
L 844 -850 
Q 1081 -850 1212 -737 
Q 1344 -625 1503 -206 
L 1606 56 
L 191 3500 
L 800 3500 
L 1894 763 
L 2988 3500 
L 3597 3500 
L 2059 -325 
z
" id="DejaVuSans-79" transform="scale(0.015625)"/>
      <path d="M 750 794 
L 1409 794 
L 1409 256 
L 897 -744 
L 494 -744 
L 750 256 
L 750 794 
z
" id="DejaVuSans-2c" transform="scale(0.015625)"/>
      <path d="M 959 0 
L 572 3500 
L 1191 3500 
L 1522 563 
Q 1972 950 2391 1488 
Q 2706 1891 2788 2241 
Q 2825 2406 2809 2719 
Q 2794 3091 2544 3500 
L 3125 3500 
L 3125 3500 
Q 3288 3222 3353 2834 
Q 3416 2478 3369 2234 
Q 3250 1622 2719 1075 
Q 2025 363 1572 0 
L 959 0 
z
" id="DejaVuSans-Oblique-3bd" transform="scale(0.015625)"/>
      <path d="M 678 2906 
L 4684 2906 
L 4684 2381 
L 678 2381 
L 678 2906 
z
M 678 1631 
L 4684 1631 
L 4684 1100 
L 678 1100 
L 678 1631 
z
" id="DejaVuSans-3d" transform="scale(0.015625)"/>
      <path d="M 313 2009 
L 1997 2009 
L 1997 1497 
L 313 1497 
L 313 2009 
z
" id="DejaVuSans-2d" transform="scale(0.015625)"/>
     </defs>
     <use transform="translate(0 0.015625)" xlink:href="#DejaVuSans-50"/>
     <use transform="translate(60.302734 0.015625)" xlink:href="#DejaVuSans-61"/>
     <use transform="translate(121.582031 0.015625)" xlink:href="#DejaVuSans-72"/>
     <use transform="translate(162.695312 0.015625)" xlink:href="#DejaVuSans-61"/>
     <use transform="translate(223.974609 0.015625)" xlink:href="#DejaVuSans-6c"/>
     <use transform="translate(251.757812 0.015625)" xlink:href="#DejaVuSans-6c"/>
     <use transform="translate(279.541016 0.015625)" xlink:href="#DejaVuSans-65"/>
     <use transform="translate(341.064453 0.015625)" xlink:href="#DejaVuSans-6c"/>
     <use transform="translate(368.847656 0.015625)" xlink:href="#DejaVuSans-20"/>
     <use transform="translate(400.634766 0.015625)" xlink:href="#DejaVuSans-52"/>
     <use transform="translate(470.117188 0.015625)" xlink:href="#DejaVuSans-65"/>
     <use transform="translate(531.640625 0.015625)" xlink:href="#DejaVuSans-73"/>
     <use transform="translate(583.740234 0.015625)" xlink:href="#DejaVuSans-69"/>
     <use transform="translate(611.523438 0.015625)" xlink:href="#DejaVuSans-73"/>
     <use transform="translate(663.623047 0.015625)" xlink:href="#DejaVuSans-74"/>
     <use transform="translate(702.832031 0.015625)" xlink:href="#DejaVuSans-69"/>
     <use transform="translate(730.615234 0.015625)" xlink:href="#DejaVuSans-76"/>
     <use transform="translate(789.794922 0.015625)" xlink:href="#DejaVuSans-69"/>
     <use transform="translate(817.578125 0.015625)" xlink:href="#DejaVuSans-74"/>
     <use transform="translate(856.787109 0.015625)" xlink:href="#DejaVuSans-79"/>
     <use transform="translate(915.966797 0.015625)" xlink:href="#DejaVuSans-2c"/>
     <use transform="translate(947.753906 0.015625)" xlink:href="#DejaVuSans-20"/>
     <use transform="translate(979.541016 0.015625)" xlink:href="#DejaVuSans-Oblique-3bd"/>
     <use transform="translate(1035.400391 0.015625)" xlink:href="#DejaVuSans-20"/>
     <use transform="translate(1067.1875 0.015625)" xlink:href="#DejaVuSans-3d"/>
     <use transform="translate(1150.976562 0.015625)" xlink:href="#DejaVuSans-20"/>
     <use transform="translate(1182.763672 0.015625)" xlink:href="#DejaVuSans-31"/>
     <use transform="translate(1246.386719 0.015625)" xlink:href="#DejaVuSans-2d"/>
     <use transform="translate(1282.470703 0.015625)" xlink:href="#DejaVuSans-38"/>
    </g>
   </g>
   <g id="legend_1">
    <g id="patch_7">
     <path d="M 358.82 83.272 
L 407.72 83.272 
Q 409.72 83.272 409.72 81.272 
L 409.72 48.472 
Q 409.72 46.472 407.72 46.472 
L 358.82 46.472 
Q 356.82 46.472 356.82 48.472 
L 356.82 81.272 
Q 356.82 83.272 358.82 83.272 
z
" style="fill:#ffffff;opacity:0.8;stroke:#cccccc;stroke-linejoin:miter;"/>
    </g>
    <g id="line2d_34">
     <path d="M 360.82 55.772 
L 380.82 55.772 
" style="fill:none;stroke:#000000;stroke-linecap:square;stroke-width:1.5;"/>
    </g>
    <g id="line2d_35"/>
    <g id="text_22">
     <!-- $\rho_\mathrm{xx}^\mathrm{tot}$ -->
     <g transform="translate(388.82 59.272)scale(0.1 -0.1)">
      <defs>
       <path d="M 1959 3097 
Q 1497 3097 1228 2736 
Q 959 2375 959 1747 
Q 959 1119 1226 758 
Q 1494 397 1959 397 
Q 2419 397 2687 759 
Q 2956 1122 2956 1747 
Q 2956 2369 2687 2733 
Q 2419 3097 1959 3097 
z
M 1959 3584 
Q 2709 3584 3137 3096 
Q 3566 2609 3566 1747 
Q 3566 888 3137 398 
Q 2709 -91 1959 -91 
Q 1206 -91 779 398 
Q 353 888 353 1747 
Q 353 2609 779 3096 
Q 1206 3584 1959 3584 
z
" id="DejaVuSans-6f" transform="scale(0.015625)"/>
      </defs>
      <use transform="translate(0 0.565625)" xlink:href="#DejaVuSans-Oblique-3c1"/>
      <use transform="translate(68.126458 38.846875)scale(0.7)" xlink:href="#DejaVuSans-74"/>
      <use transform="translate(95.572747 38.846875)scale(0.7)" xlink:href="#DejaVuSans-6f"/>
      <use transform="translate(138.399896 38.846875)scale(0.7)" xlink:href="#DejaVuSans-74"/>
      <use transform="translate(63.476562 -26.778125)scale(0.7)" xlink:href="#DejaVuSans-78"/>
      <use transform="translate(104.902344 -26.778125)scale(0.7)" xlink:href="#DejaVuSans-78"/>
     </g>
    </g>
    <g id="line2d_36">
     <path d="M 360.82 72.972 
L 380.82 72.972 
" style="fill:none;stroke:#0000ff;stroke-dasharray:1.5,2.475;stroke-dashoffset:0;stroke-width:1.5;"/>
    </g>
    <g id="line2d_37"/>
    <g id="text_23">
     <!-- $\rho_\mathrm{xx}^\mathrm{\|\|}$ -->
     <g transform="translate(388.82 76.472)scale(0.1 -0.1)">
      <defs>
       <path d="M 1344 4891 
L 1344 -1509 
L 813 -1509 
L 813 4891 
L 1344 4891 
z
" id="DejaVuSans-7c" transform="scale(0.015625)"/>
      </defs>
      <use transform="translate(0 0.5625)" xlink:href="#DejaVuSans-Oblique-3c1"/>
      <use transform="translate(68.126458 40.504688)scale(0.7)" xlink:href="#DejaVuSans-7c"/>
      <use transform="translate(91.710443 40.504688)scale(0.7)" xlink:href="#DejaVuSans-7c"/>
      <use transform="translate(63.476562 -26.78125)scale(0.7)" xlink:href="#DejaVuSans-78"/>
      <use transform="translate(104.902344 -26.78125)scale(0.7)" xlink:href="#DejaVuSans-78"/>
     </g>
    </g>
   </g>
  </g>
 </g>
 <defs>
  <clipPath id="pe08246a4e9">
   <rect height="266.112" width="357.12" x="57.6" y="41.472"/>
  </clipPath>
 </defs>
</svg>
