<?xml version="1.0" encoding="utf-8" standalone="no"?>
<!DOCTYPE svg PUBLIC "-//W3C//DTD SVG 1.1//EN"
  "http://www.w3.org/Graphics/SVG/1.1/DTD/svg11.dtd">
<svg height="345.6pt" version="1.1" viewBox="0 0 460.8 345.6" width="460.8pt" xmlns="http://www.w3.org/2000/svg" xmlns:xlink="http://www.w3.org/1999/xlink">
 <metadata>
  <rdf:RDF xmlns:cc="http://creativecommons.org/ns#" xmlns:dc="http://purl.org/dc/elements/1.1/" xmlns:rdf="http://www.w3.org/1999/02/22-rdf-syntax-ns#">
   <cc:Work>
    <dc:type rdf:resource="http://purl.org/dc/dcmitype/StillImage"/>
    <dc:date>2023-10-27T10:47:22.482785</dc:date>
    <dc:format>image/svg+xml</dc:format>
    <dc:creator>
     <cc:Agent>
      <dc:title>Matplotlib v3.4.3, https://matplotlib.org/</dc:title>
     </cc:Agent>
    </dc:creator>
   </cc:Work>
  </rdf:RDF>
 </metadata>
 <defs>
  <style type="text/css">*{stroke-linecap:butt;stroke-linejoin:round;}</style>
 </defs>
 <g id="figure_1">
  <g id="patch_1">
   <path d="M 0 345.6 
L 460.8 345.6 
L 460.8 0 
L 0 0 
z
" style="fill:#ffffff;"/>
  </g>
  <g id="axes_1">
   <g id="patch_2">
    <path d="M 57.6 307.584 
L 414.72 307.584 
L 414.72 41.472 
L 57.6 41.472 
z
" style="fill:#ffffff;"/>
   </g>
   <g id="matplotlib.axis_1">
    <g id="xtick_1">
     <g id="line2d_1">
      <path clip-path="url(#p3486536dd4)" d="M 73.832727 307.584 
L 73.832727 41.472 
" style="fill:none;stroke:#b0b0b0;stroke-linecap:square;stroke-width:0.8;"/>
     </g>
     <g id="line2d_2">
      <defs>
       <path d="M 0 0 
L 0 3.5 
" id="ma2a0ddb0fc" style="stroke:#000000;stroke-width:0.8;"/>
      </defs>
      <g>
       <use style="stroke:#000000;stroke-width:0.8;" x="73.832727" xlink:href="#ma2a0ddb0fc" y="307.584"/>
      </g>
     </g>
     <g id="text_1">
      <!-- 0 -->
      <g transform="translate(70.651477 322.182437)scale(0.1 -0.1)">
       <defs>
        <path d="M 2034 4250 
Q 1547 4250 1301 3770 
Q 1056 3291 1056 2328 
Q 1056 1369 1301 889 
Q 1547 409 2034 409 
Q 2525 409 2770 889 
Q 3016 1369 3016 2328 
Q 3016 3291 2770 3770 
Q 2525 4250 2034 4250 
z
M 2034 4750 
Q 2819 4750 3233 4129 
Q 3647 3509 3647 2328 
Q 3647 1150 3233 529 
Q 2819 -91 2034 -91 
Q 1250 -91 836 529 
Q 422 1150 422 2328 
Q 422 3509 836 4129 
Q 1250 4750 2034 4750 
z
" id="DejaVuSans-30" transform="scale(0.015625)"/>
       </defs>
       <use xlink:href="#DejaVuSans-30"/>
      </g>
     </g>
    </g>
    <g id="xtick_2">
     <g id="line2d_3">
      <path clip-path="url(#p3486536dd4)" d="M 127.941818 307.584 
L 127.941818 41.472 
" style="fill:none;stroke:#b0b0b0;stroke-linecap:square;stroke-width:0.8;"/>
     </g>
     <g id="line2d_4">
      <g>
       <use style="stroke:#000000;stroke-width:0.8;" x="127.941818" xlink:href="#ma2a0ddb0fc" y="307.584"/>
      </g>
     </g>
     <g id="text_2">
      <!-- 2 -->
      <g transform="translate(124.760568 322.182437)scale(0.1 -0.1)">
       <defs>
        <path d="M 1228 531 
L 3431 531 
L 3431 0 
L 469 0 
L 469 531 
Q 828 903 1448 1529 
Q 2069 2156 2228 2338 
Q 2531 2678 2651 2914 
Q 2772 3150 2772 3378 
Q 2772 3750 2511 3984 
Q 2250 4219 1831 4219 
Q 1534 4219 1204 4116 
Q 875 4013 500 3803 
L 500 4441 
Q 881 4594 1212 4672 
Q 1544 4750 1819 4750 
Q 2544 4750 2975 4387 
Q 3406 4025 3406 3419 
Q 3406 3131 3298 2873 
Q 3191 2616 2906 2266 
Q 2828 2175 2409 1742 
Q 1991 1309 1228 531 
z
" id="DejaVuSans-32" transform="scale(0.015625)"/>
       </defs>
       <use xlink:href="#DejaVuSans-32"/>
      </g>
     </g>
    </g>
    <g id="xtick_3">
     <g id="line2d_5">
      <path clip-path="url(#p3486536dd4)" d="M 182.050909 307.584 
L 182.050909 41.472 
" style="fill:none;stroke:#b0b0b0;stroke-linecap:square;stroke-width:0.8;"/>
     </g>
     <g id="line2d_6">
      <g>
       <use style="stroke:#000000;stroke-width:0.8;" x="182.050909" xlink:href="#ma2a0ddb0fc" y="307.584"/>
      </g>
     </g>
     <g id="text_3">
      <!-- 4 -->
      <g transform="translate(178.869659 322.182437)scale(0.1 -0.1)">
       <defs>
        <path d="M 2419 4116 
L 825 1625 
L 2419 1625 
L 2419 4116 
z
M 2253 4666 
L 3047 4666 
L 3047 1625 
L 3713 1625 
L 3713 1100 
L 3047 1100 
L 3047 0 
L 2419 0 
L 2419 1100 
L 313 1100 
L 313 1709 
L 2253 4666 
z
" id="DejaVuSans-34" transform="scale(0.015625)"/>
       </defs>
       <use xlink:href="#DejaVuSans-34"/>
      </g>
     </g>
    </g>
    <g id="xtick_4">
     <g id="line2d_7">
      <path clip-path="url(#p3486536dd4)" d="M 236.16 307.584 
L 236.16 41.472 
" style="fill:none;stroke:#b0b0b0;stroke-linecap:square;stroke-width:0.8;"/>
     </g>
     <g id="line2d_8">
      <g>
       <use style="stroke:#000000;stroke-width:0.8;" x="236.16" xlink:href="#ma2a0ddb0fc" y="307.584"/>
      </g>
     </g>
     <g id="text_4">
      <!-- 6 -->
      <g transform="translate(232.97875 322.182437)scale(0.1 -0.1)">
       <defs>
        <path d="M 2113 2584 
Q 1688 2584 1439 2293 
Q 1191 2003 1191 1497 
Q 1191 994 1439 701 
Q 1688 409 2113 409 
Q 2538 409 2786 701 
Q 3034 994 3034 1497 
Q 3034 2003 2786 2293 
Q 2538 2584 2113 2584 
z
M 3366 4563 
L 3366 3988 
Q 3128 4100 2886 4159 
Q 2644 4219 2406 4219 
Q 1781 4219 1451 3797 
Q 1122 3375 1075 2522 
Q 1259 2794 1537 2939 
Q 1816 3084 2150 3084 
Q 2853 3084 3261 2657 
Q 3669 2231 3669 1497 
Q 3669 778 3244 343 
Q 2819 -91 2113 -91 
Q 1303 -91 875 529 
Q 447 1150 447 2328 
Q 447 3434 972 4092 
Q 1497 4750 2381 4750 
Q 2619 4750 2861 4703 
Q 3103 4656 3366 4563 
z
" id="DejaVuSans-36" transform="scale(0.015625)"/>
       </defs>
       <use xlink:href="#DejaVuSans-36"/>
      </g>
     </g>
    </g>
    <g id="xtick_5">
     <g id="line2d_9">
      <path clip-path="url(#p3486536dd4)" d="M 290.269091 307.584 
L 290.269091 41.472 
" style="fill:none;stroke:#b0b0b0;stroke-linecap:square;stroke-width:0.8;"/>
     </g>
     <g id="line2d_10">
      <g>
       <use style="stroke:#000000;stroke-width:0.8;" x="290.269091" xlink:href="#ma2a0ddb0fc" y="307.584"/>
      </g>
     </g>
     <g id="text_5">
      <!-- 8 -->
      <g transform="translate(287.087841 322.182437)scale(0.1 -0.1)">
       <defs>
        <path d="M 2034 2216 
Q 1584 2216 1326 1975 
Q 1069 1734 1069 1313 
Q 1069 891 1326 650 
Q 1584 409 2034 409 
Q 2484 409 2743 651 
Q 3003 894 3003 1313 
Q 3003 1734 2745 1975 
Q 2488 2216 2034 2216 
z
M 1403 2484 
Q 997 2584 770 2862 
Q 544 3141 544 3541 
Q 544 4100 942 4425 
Q 1341 4750 2034 4750 
Q 2731 4750 3128 4425 
Q 3525 4100 3525 3541 
Q 3525 3141 3298 2862 
Q 3072 2584 2669 2484 
Q 3125 2378 3379 2068 
Q 3634 1759 3634 1313 
Q 3634 634 3220 271 
Q 2806 -91 2034 -91 
Q 1263 -91 848 271 
Q 434 634 434 1313 
Q 434 1759 690 2068 
Q 947 2378 1403 2484 
z
M 1172 3481 
Q 1172 3119 1398 2916 
Q 1625 2713 2034 2713 
Q 2441 2713 2670 2916 
Q 2900 3119 2900 3481 
Q 2900 3844 2670 4047 
Q 2441 4250 2034 4250 
Q 1625 4250 1398 4047 
Q 1172 3844 1172 3481 
z
" id="DejaVuSans-38" transform="scale(0.015625)"/>
       </defs>
       <use xlink:href="#DejaVuSans-38"/>
      </g>
     </g>
    </g>
    <g id="xtick_6">
     <g id="line2d_11">
      <path clip-path="url(#p3486536dd4)" d="M 344.378182 307.584 
L 344.378182 41.472 
" style="fill:none;stroke:#b0b0b0;stroke-linecap:square;stroke-width:0.8;"/>
     </g>
     <g id="line2d_12">
      <g>
       <use style="stroke:#000000;stroke-width:0.8;" x="344.378182" xlink:href="#ma2a0ddb0fc" y="307.584"/>
      </g>
     </g>
     <g id="text_6">
      <!-- 10 -->
      <g transform="translate(338.015682 322.182437)scale(0.1 -0.1)">
       <defs>
        <path d="M 794 531 
L 1825 531 
L 1825 4091 
L 703 3866 
L 703 4441 
L 1819 4666 
L 2450 4666 
L 2450 531 
L 3481 531 
L 3481 0 
L 794 0 
L 794 531 
z
" id="DejaVuSans-31" transform="scale(0.015625)"/>
       </defs>
       <use xlink:href="#DejaVuSans-31"/>
       <use x="63.623047" xlink:href="#DejaVuSans-30"/>
      </g>
     </g>
    </g>
    <g id="xtick_7">
     <g id="line2d_13">
      <path clip-path="url(#p3486536dd4)" d="M 398.487273 307.584 
L 398.487273 41.472 
" style="fill:none;stroke:#b0b0b0;stroke-linecap:square;stroke-width:0.8;"/>
     </g>
     <g id="line2d_14">
      <g>
       <use style="stroke:#000000;stroke-width:0.8;" x="398.487273" xlink:href="#ma2a0ddb0fc" y="307.584"/>
      </g>
     </g>
     <g id="text_7">
      <!-- 12 -->
      <g transform="translate(392.124773 322.182437)scale(0.1 -0.1)">
       <use xlink:href="#DejaVuSans-31"/>
       <use x="63.623047" xlink:href="#DejaVuSans-32"/>
      </g>
     </g>
    </g>
    <g id="text_8">
     <!-- $B$ (T) -->
     <g transform="translate(224.16 335.860562)scale(0.1 -0.1)">
      <defs>
       <path d="M 1081 4666 
L 2694 4666 
Q 3350 4666 3675 4422 
Q 4000 4178 4000 3688 
Q 4000 3238 3720 2911 
Q 3441 2584 2988 2516 
Q 3375 2428 3569 2181 
Q 3763 1934 3763 1522 
Q 3763 819 3242 409 
Q 2722 0 1819 0 
L 172 0 
L 1081 4666 
z
M 1234 2228 
L 903 519 
L 1919 519 
Q 2491 519 2800 781 
Q 3109 1044 3109 1522 
Q 3109 1891 2904 2059 
Q 2700 2228 2247 2228 
L 1234 2228 
z
M 1606 4147 
L 1331 2741 
L 2272 2741 
Q 2775 2741 3058 2959 
Q 3341 3178 3341 3566 
Q 3341 3869 3150 4008 
Q 2959 4147 2541 4147 
L 1606 4147 
z
" id="DejaVuSans-Oblique-42" transform="scale(0.015625)"/>
       <path id="DejaVuSans-20" transform="scale(0.015625)"/>
       <path d="M 1984 4856 
Q 1566 4138 1362 3434 
Q 1159 2731 1159 2009 
Q 1159 1288 1364 580 
Q 1569 -128 1984 -844 
L 1484 -844 
Q 1016 -109 783 600 
Q 550 1309 550 2009 
Q 550 2706 781 3412 
Q 1013 4119 1484 4856 
L 1984 4856 
z
" id="DejaVuSans-28" transform="scale(0.015625)"/>
       <path d="M -19 4666 
L 3928 4666 
L 3928 4134 
L 2272 4134 
L 2272 0 
L 1638 0 
L 1638 4134 
L -19 4134 
L -19 4666 
z
" id="DejaVuSans-54" transform="scale(0.015625)"/>
       <path d="M 513 4856 
L 1013 4856 
Q 1481 4119 1714 3412 
Q 1947 2706 1947 2009 
Q 1947 1309 1714 600 
Q 1481 -109 1013 -844 
L 513 -844 
Q 928 -128 1133 580 
Q 1338 1288 1338 2009 
Q 1338 2731 1133 3434 
Q 928 4138 513 4856 
z
" id="DejaVuSans-29" transform="scale(0.015625)"/>
      </defs>
      <use transform="translate(0 0.125)" xlink:href="#DejaVuSans-Oblique-42"/>
      <use transform="translate(68.603516 0.125)" xlink:href="#DejaVuSans-20"/>
      <use transform="translate(100.390625 0.125)" xlink:href="#DejaVuSans-28"/>
      <use transform="translate(139.404297 0.125)" xlink:href="#DejaVuSans-54"/>
      <use transform="translate(200.488281 0.125)" xlink:href="#DejaVuSans-29"/>
     </g>
    </g>
   </g>
   <g id="matplotlib.axis_2">
    <g id="ytick_1">
     <g id="line2d_15">
      <path clip-path="url(#p3486536dd4)" d="M 57.6 291.953076 
L 414.72 291.953076 
" style="fill:none;stroke:#b0b0b0;stroke-linecap:square;stroke-width:0.8;"/>
     </g>
     <g id="line2d_16">
      <defs>
       <path d="M 0 0 
L -3.5 0 
" id="medf21d9b91" style="stroke:#000000;stroke-width:0.8;"/>
      </defs>
      <g>
       <use style="stroke:#000000;stroke-width:0.8;" x="57.6" xlink:href="#medf21d9b91" y="291.953076"/>
      </g>
     </g>
     <g id="text_9">
      <!-- 0.000 -->
      <g transform="translate(21.971875 295.752295)scale(0.1 -0.1)">
       <defs>
        <path d="M 684 794 
L 1344 794 
L 1344 0 
L 684 0 
L 684 794 
z
" id="DejaVuSans-2e" transform="scale(0.015625)"/>
       </defs>
       <use xlink:href="#DejaVuSans-30"/>
       <use x="63.623047" xlink:href="#DejaVuSans-2e"/>
       <use x="95.410156" xlink:href="#DejaVuSans-30"/>
       <use x="159.033203" xlink:href="#DejaVuSans-30"/>
       <use x="222.65625" xlink:href="#DejaVuSans-30"/>
      </g>
     </g>
    </g>
    <g id="ytick_2">
     <g id="line2d_17">
      <path clip-path="url(#p3486536dd4)" d="M 57.6 255.501923 
L 414.72 255.501923 
" style="fill:none;stroke:#b0b0b0;stroke-linecap:square;stroke-width:0.8;"/>
     </g>
     <g id="line2d_18">
      <g>
       <use style="stroke:#000000;stroke-width:0.8;" x="57.6" xlink:href="#medf21d9b91" y="255.501923"/>
      </g>
     </g>
     <g id="text_10">
      <!-- 0.002 -->
      <g transform="translate(21.971875 259.301142)scale(0.1 -0.1)">
       <use xlink:href="#DejaVuSans-30"/>
       <use x="63.623047" xlink:href="#DejaVuSans-2e"/>
       <use x="95.410156" xlink:href="#DejaVuSans-30"/>
       <use x="159.033203" xlink:href="#DejaVuSans-30"/>
       <use x="222.65625" xlink:href="#DejaVuSans-32"/>
      </g>
     </g>
    </g>
    <g id="ytick_3">
     <g id="line2d_19">
      <path clip-path="url(#p3486536dd4)" d="M 57.6 219.050769 
L 414.72 219.050769 
" style="fill:none;stroke:#b0b0b0;stroke-linecap:square;stroke-width:0.8;"/>
     </g>
     <g id="line2d_20">
      <g>
       <use style="stroke:#000000;stroke-width:0.8;" x="57.6" xlink:href="#medf21d9b91" y="219.050769"/>
      </g>
     </g>
     <g id="text_11">
      <!-- 0.004 -->
      <g transform="translate(21.971875 222.849988)scale(0.1 -0.1)">
       <use xlink:href="#DejaVuSans-30"/>
       <use x="63.623047" xlink:href="#DejaVuSans-2e"/>
       <use x="95.410156" xlink:href="#DejaVuSans-30"/>
       <use x="159.033203" xlink:href="#DejaVuSans-30"/>
       <use x="222.65625" xlink:href="#DejaVuSans-34"/>
      </g>
     </g>
    </g>
    <g id="ytick_4">
     <g id="line2d_21">
      <path clip-path="url(#p3486536dd4)" d="M 57.6 182.599616 
L 414.72 182.599616 
" style="fill:none;stroke:#b0b0b0;stroke-linecap:square;stroke-width:0.8;"/>
     </g>
     <g id="line2d_22">
      <g>
       <use style="stroke:#000000;stroke-width:0.8;" x="57.6" xlink:href="#medf21d9b91" y="182.599616"/>
      </g>
     </g>
     <g id="text_12">
      <!-- 0.006 -->
      <g transform="translate(21.971875 186.398835)scale(0.1 -0.1)">
       <use xlink:href="#DejaVuSans-30"/>
       <use x="63.623047" xlink:href="#DejaVuSans-2e"/>
       <use x="95.410156" xlink:href="#DejaVuSans-30"/>
       <use x="159.033203" xlink:href="#DejaVuSans-30"/>
       <use x="222.65625" xlink:href="#DejaVuSans-36"/>
      </g>
     </g>
    </g>
    <g id="ytick_5">
     <g id="line2d_23">
      <path clip-path="url(#p3486536dd4)" d="M 57.6 146.148462 
L 414.72 146.148462 
" style="fill:none;stroke:#b0b0b0;stroke-linecap:square;stroke-width:0.8;"/>
     </g>
     <g id="line2d_24">
      <g>
       <use style="stroke:#000000;stroke-width:0.8;" x="57.6" xlink:href="#medf21d9b91" y="146.148462"/>
      </g>
     </g>
     <g id="text_13">
      <!-- 0.008 -->
      <g transform="translate(21.971875 149.947681)scale(0.1 -0.1)">
       <use xlink:href="#DejaVuSans-30"/>
       <use x="63.623047" xlink:href="#DejaVuSans-2e"/>
       <use x="95.410156" xlink:href="#DejaVuSans-30"/>
       <use x="159.033203" xlink:href="#DejaVuSans-30"/>
       <use x="222.65625" xlink:href="#DejaVuSans-38"/>
      </g>
     </g>
    </g>
    <g id="ytick_6">
     <g id="line2d_25">
      <path clip-path="url(#p3486536dd4)" d="M 57.6 109.697309 
L 414.72 109.697309 
" style="fill:none;stroke:#b0b0b0;stroke-linecap:square;stroke-width:0.8;"/>
     </g>
     <g id="line2d_26">
      <g>
       <use style="stroke:#000000;stroke-width:0.8;" x="57.6" xlink:href="#medf21d9b91" y="109.697309"/>
      </g>
     </g>
     <g id="text_14">
      <!-- 0.010 -->
      <g transform="translate(21.971875 113.496528)scale(0.1 -0.1)">
       <use xlink:href="#DejaVuSans-30"/>
       <use x="63.623047" xlink:href="#DejaVuSans-2e"/>
       <use x="95.410156" xlink:href="#DejaVuSans-30"/>
       <use x="159.033203" xlink:href="#DejaVuSans-31"/>
       <use x="222.65625" xlink:href="#DejaVuSans-30"/>
      </g>
     </g>
    </g>
    <g id="ytick_7">
     <g id="line2d_27">
      <path clip-path="url(#p3486536dd4)" d="M 57.6 73.246155 
L 414.72 73.246155 
" style="fill:none;stroke:#b0b0b0;stroke-linecap:square;stroke-width:0.8;"/>
     </g>
     <g id="line2d_28">
      <g>
       <use style="stroke:#000000;stroke-width:0.8;" x="57.6" xlink:href="#medf21d9b91" y="73.246155"/>
      </g>
     </g>
     <g id="text_15">
      <!-- 0.012 -->
      <g transform="translate(21.971875 77.045374)scale(0.1 -0.1)">
       <use xlink:href="#DejaVuSans-30"/>
       <use x="63.623047" xlink:href="#DejaVuSans-2e"/>
       <use x="95.410156" xlink:href="#DejaVuSans-30"/>
       <use x="159.033203" xlink:href="#DejaVuSans-31"/>
       <use x="222.65625" xlink:href="#DejaVuSans-32"/>
      </g>
     </g>
    </g>
    <g id="text_16">
     <!-- $\rho_\mathrm{xx}$ ($\Omega$) -->
     <g transform="translate(15.871875 191.328)rotate(-90)scale(0.1 -0.1)">
      <defs>
       <path d="M 1203 2875 
Q 1453 3194 1981 3475 
Q 2188 3584 2756 3584 
Q 3394 3584 3694 3078 
Q 3994 2572 3834 1747 
Q 3672 922 3175 415 
Q 2678 -91 2041 -91 
Q 1656 -91 1409 63 
Q 1163 213 1044 525 
L 681 -1331 
L 103 -1331 
L 697 1716 
Q 838 2438 1203 2875 
z
M 3238 1747 
Q 3359 2381 3169 2744 
Q 2978 3103 2522 3103 
Q 2066 3103 1734 2744 
Q 1403 2381 1281 1747 
Q 1156 1113 1347 750 
Q 1538 391 1994 391 
Q 2450 391 2781 750 
Q 3113 1113 3238 1747 
z
" id="DejaVuSans-Oblique-3c1" transform="scale(0.015625)"/>
       <path d="M 3513 3500 
L 2247 1797 
L 3578 0 
L 2900 0 
L 1881 1375 
L 863 0 
L 184 0 
L 1544 1831 
L 300 3500 
L 978 3500 
L 1906 2253 
L 2834 3500 
L 3513 3500 
z
" id="DejaVuSans-78" transform="scale(0.015625)"/>
       <path d="M 4647 556 
L 4647 0 
L 2772 0 
L 2772 556 
Q 3325 859 3634 1378 
Q 3944 1897 3944 2528 
Q 3944 3278 3531 3731 
Q 3119 4184 2444 4184 
Q 1769 4184 1355 3729 
Q 941 3275 941 2528 
Q 941 1897 1250 1378 
Q 1563 859 2119 556 
L 2119 0 
L 244 0 
L 244 556 
L 1241 556 
Q 747 991 519 1456 
Q 294 1922 294 2497 
Q 294 3491 894 4106 
Q 1491 4722 2444 4722 
Q 3391 4722 3994 4106 
Q 4594 3494 4594 2528 
Q 4594 1922 4372 1459 
Q 4150 997 3647 556 
L 4647 556 
z
" id="DejaVuSans-3a9" transform="scale(0.015625)"/>
      </defs>
      <use transform="translate(0 0.125)" xlink:href="#DejaVuSans-Oblique-3c1"/>
      <use transform="translate(63.476562 -16.28125)scale(0.7)" xlink:href="#DejaVuSans-78"/>
      <use transform="translate(104.902344 -16.28125)scale(0.7)" xlink:href="#DejaVuSans-78"/>
      <use transform="translate(149.0625 0.125)" xlink:href="#DejaVuSans-20"/>
      <use transform="translate(180.849609 0.125)" xlink:href="#DejaVuSans-28"/>
      <use transform="translate(219.863281 0.125)" xlink:href="#DejaVuSans-3a9"/>
      <use transform="translate(296.279297 0.125)" xlink:href="#DejaVuSans-29"/>
     </g>
    </g>
   </g>
   <g id="line2d_29">
    <path clip-path="url(#p3486536dd4)" d="M 73.832727 291.567427 
L 74.441455 291.31078 
L 74.779636 291.139684 
L 75.929455 290.801696 
L 76.2 290.780375 
L 76.808727 290.67799 
L 76.944 290.65409 
L 77.282182 290.611315 
L 77.485091 290.60412 
L 77.552727 290.81188 
L 77.688 290.554012 
L 77.755636 290.647708 
L 77.823273 290.56311 
L 77.890909 290.398395 
L 77.958545 290.664953 
L 78.026182 290.246716 
L 78.093818 290.598552 
L 78.161455 290.354127 
L 78.229091 290.502818 
L 78.432 290.292342 
L 78.499636 290.461131 
L 78.567273 290.369473 
L 78.770182 290.491956 
L 78.905455 290.39758 
L 78.973091 290.582393 
L 79.040727 290.452984 
L 79.108364 290.588502 
L 79.176 290.493991 
L 79.311273 290.73896 
L 79.378909 290.337968 
L 79.446545 290.585243 
L 79.514182 290.871631 
L 79.649455 290.435602 
L 79.717091 290.693605 
L 79.852364 290.370965 
L 79.92 290.880866 
L 79.987636 290.731084 
L 80.055273 289.989672 
L 80.122909 290.464661 
L 80.190545 290.907481 
L 80.325818 290.005692 
L 80.461091 290.999682 
L 80.596364 290.008134 
L 80.731636 290.870953 
L 80.866909 289.884565 
L 80.934545 290.024027 
L 81.069818 290.74154 
L 81.137455 290.724159 
L 81.272727 290.156009 
L 81.475636 290.629105 
L 81.543273 290.516533 
L 81.610909 290.332265 
L 81.678545 290.587144 
L 81.746182 290.496437 
L 82.016727 290.455971 
L 82.219636 290.233138 
L 82.422545 290.678124 
L 82.557818 290.460453 
L 82.625455 290.595699 
L 82.693091 290.507165 
L 82.828364 290.215893 
L 82.896 290.439269 
L 82.963636 290.299947 
L 83.166545 290.87394 
L 83.234182 290.826001 
L 83.301818 290.853165 
L 83.369455 290.623809 
L 83.504727 289.509355 
L 83.572364 289.698245 
L 83.910545 291.148645 
L 84.181091 289.451252 
L 84.248727 289.520217 
L 84.316364 289.369218 
L 84.586909 290.8662 
L 84.654545 290.707048 
L 84.857455 289.373574 
L 84.992727 290.013419 
L 85.060364 289.944454 
L 85.128 289.630482 
L 85.263273 290.208424 
L 85.466182 290.244272 
L 85.601455 288.132449 
L 85.669091 288.20577 
L 85.736727 288.326898 
L 85.872 288.849953 
L 85.939636 288.616939 
L 86.007273 288.699501 
L 86.210182 290.258938 
L 86.345455 290.191042 
L 86.548364 288.482234 
L 86.616 288.490928 
L 86.683636 288.725582 
L 86.751273 288.33776 
L 86.818909 288.523515 
L 86.886545 288.556102 
L 87.089455 289.204641 
L 87.157091 289.073198 
L 87.224727 289.54032 
L 87.292364 289.437127 
L 87.562909 286.842953 
L 87.833455 288.510484 
L 87.901091 288.443122 
L 87.968727 288.120493 
L 88.239273 289.996597 
L 88.306909 289.697844 
L 88.645091 286.837522 
L 88.712727 286.887496 
L 88.780364 286.468162 
L 88.848 286.65718 
L 88.983273 287.759827 
L 89.186182 286.279145 
L 89.253818 287.352431 
L 89.321455 287.287256 
L 89.389091 287.38068 
L 89.456727 287.066726 
L 89.592 288.0477 
L 89.727273 289.308928 
L 89.862545 289.31219 
L 90.268364 286.568111 
L 90.403636 287.476273 
L 90.538909 289.514257 
L 90.741818 287.809801 
L 90.944727 284.015236 
L 91.08 283.947893 
L 91.418182 287.948844 
L 91.485818 287.983619 
L 91.553455 287.784814 
L 91.621091 288.085737 
L 91.688727 287.897795 
L 91.891636 286.175951 
L 92.094545 285.658855 
L 92.162182 285.665362 
L 92.229818 286.336719 
L 92.365091 288.50179 
L 92.432727 288.877656 
L 92.568 287.404574 
L 92.635636 287.768521 
L 92.770909 287.634909 
L 92.838545 287.927119 
L 92.906182 287.396974 
L 92.973818 288.098768 
L 93.109091 283.047276 
L 93.244364 284.614894 
L 93.379636 283.994605 
L 93.582545 285.664287 
L 93.717818 285.822886 
L 93.785455 286.695216 
L 94.191273 281.554674 
L 94.258909 281.566612 
L 94.326545 280.127229 
L 94.394182 280.81488 
L 94.664727 287.462167 
L 94.732364 286.459468 
L 94.8 287.092807 
L 94.867636 288.846162 
L 94.935273 288.322542 
L 95.002909 289.05038 
L 95.476364 281.30482 
L 95.544 282.067414 
L 95.679273 282.3151 
L 95.746909 281.813222 
L 95.949818 286.981996 
L 96.017455 286.67566 
L 96.558545 281.782804 
L 96.626182 280.179372 
L 96.693818 281.089721 
L 96.761455 281.493837 
L 96.896727 280.705162 
L 97.032 277.46573 
L 97.099636 277.357087 
L 97.167273 274.413146 
L 97.234909 274.671694 
L 97.302545 274.7499 
L 97.370182 275.23224 
L 97.573091 280.440089 
L 97.843636 284.596414 
L 97.911273 284.461727 
L 98.114182 287.866283 
L 98.181818 287.653371 
L 98.317091 285.363364 
L 98.384727 286.091202 
L 98.52 285.172178 
L 98.587636 285.180871 
L 98.722909 287.659896 
L 98.790545 287.368742 
L 98.858182 287.575147 
L 99.196364 275.860129 
L 99.264 276.401119 
L 99.466909 284.111923 
L 99.534545 284.229241 
L 99.669818 285.758786 
L 99.737455 285.328608 
L 99.872727 286.4649 
L 99.940364 286.22157 
L 100.075636 283.764288 
L 100.210909 278.825813 
L 100.278545 281.763248 
L 100.481455 273.611403 
L 100.549091 275.37562 
L 100.616727 275.214853 
L 100.684364 274.784656 
L 100.887273 272.33379 
L 101.157818 269.179125 
L 101.428364 272.377349 
L 101.698909 277.852458 
L 101.834182 278.226155 
L 101.969455 280.642156 
L 102.104727 280.863761 
L 102.24 278.421697 
L 102.375273 280.772505 
L 102.645818 279.764394 
L 102.781091 280.724718 
L 102.916364 280.029467 
L 103.051636 281.758892 
L 103.186909 281.741523 
L 103.322182 274.867218 
L 103.457455 275.397345 
L 103.728 278.430391 
L 103.863273 275.293059 
L 103.998545 277.122451 
L 104.133818 277.231075 
L 104.269091 281.650267 
L 104.404364 280.672574 
L 104.674909 275.436457 
L 104.810182 276.883459 
L 104.945455 275.618968 
L 105.080727 278.061032 
L 105.351273 274.719481 
L 105.757091 279.65577 
L 106.704 263.643288 
L 106.839273 264.529598 
L 106.974545 259.880253 
L 107.109818 259.754132 
L 107.380364 265.776774 
L 107.515636 264.447036 
L 108.056727 277.387505 
L 108.462545 272.455537 
L 108.733091 275.327833 
L 108.868364 270.056869 
L 109.003636 271.638666 
L 109.138909 275.067116 
L 109.274182 269.009627 
L 109.409455 273.737378 
L 109.544727 274.254529 
L 109.815273 269.765806 
L 109.950545 271.751483 
L 110.085818 270.18299 
L 110.356364 275.414732 
L 110.491636 271.351796 
L 110.626909 271.920981 
L 110.762182 270.200304 
L 110.897455 266.415581 
L 111.032727 269.861308 
L 111.168 269.843994 
L 111.303273 271.334481 
L 111.438545 270.83911 
L 111.709091 278.000195 
L 111.844364 276.279445 
L 111.979636 276.470649 
L 112.656 269.292123 
L 112.791273 269.405122 
L 112.926545 270.356679 
L 113.197091 268.636003 
L 113.467636 262.361301 
L 113.602909 265.537837 
L 113.738182 259.037138 
L 113.873455 259.58026 
L 114.008727 257.242466 
L 114.144 259.762881 
L 114.279273 252.810188 
L 114.414545 257.920457 
L 114.549818 247.04398 
L 114.685091 250.676701 
L 114.820364 259.284824 
L 114.955636 249.542524 
L 115.090909 255.930224 
L 115.767273 248.14772 
L 116.037818 250.920013 
L 116.173091 249.003776 
L 116.443636 251.550071 
L 116.578909 257.151338 
L 116.714182 255.339169 
L 116.984727 266.406832 
L 117.12 264.903404 
L 117.255273 267.006454 
L 117.390545 263.469416 
L 117.525818 270.256803 
L 117.661091 259.350071 
L 117.796364 266.072211 
L 117.931636 262.86542 
L 118.066909 272.994285 
L 118.202182 271.112858 
L 118.337455 264.99034 
L 118.472727 269.713681 
L 118.608 265.820151 
L 118.743273 273.354969 
L 119.013818 265.898339 
L 119.149091 269.822305 
L 119.284364 267.440952 
L 119.419636 270.217618 
L 119.554909 269.392 
L 119.690182 271.80379 
L 119.825455 262.635049 
L 119.960727 268.110195 
L 120.096 264.964096 
L 120.231273 268.049321 
L 120.366545 263.917036 
L 120.501818 267.632138 
L 120.637091 268.249256 
L 120.907636 273.64184 
L 121.042909 268.744627 
L 121.313455 269.67887 
L 121.448727 265.907087 
L 121.584 267.697385 
L 121.719273 261.813805 
L 121.854545 264.368848 
L 121.989818 263.373732 
L 122.125091 261.540057 
L 122.260364 261.870304 
L 122.395636 261.805056 
L 122.530909 261.431432 
L 122.666182 261.609678 
L 122.801455 260.297254 
L 122.936727 260.288688 
L 123.072 259.775821 
L 123.342545 254.291927 
L 123.477818 255.352291 
L 123.613091 259.241447 
L 123.748364 258.476702 
L 124.018909 251.384947 
L 124.154182 251.85863 
L 124.289455 254.739547 
L 124.695273 246.018426 
L 124.830545 247.643601 
L 124.965818 244.293375 
L 125.101091 244.814809 
L 125.236364 242.133827 
L 125.371636 242.446578 
L 125.642182 236.819431 
L 125.777455 239.339664 
L 125.912727 235.637502 
L 126.048 238.149169 
L 126.183273 236.893245 
L 126.318545 233.447517 
L 126.453818 233.256331 
L 126.859636 229.25855 
L 126.994909 229.51061 
L 127.130182 229.606294 
L 127.400727 227.068565 
L 127.536 227.92462 
L 127.806545 225.599766 
L 127.941818 226.964315 
L 128.482909 222.584162 
L 128.618182 222.445101 
L 128.753455 221.119737 
L 128.888727 220.958987 
L 129.024 221.032983 
L 129.159273 220.898114 
L 129.429818 219.06863 
L 129.565091 218.603514 
L 129.700364 218.742575 
L 129.835636 218.508012 
L 130.106182 217.643208 
L 130.376727 216.735028 
L 130.512 216.678711 
L 130.647273 216.795901 
L 131.323636 220.98505 
L 131.864727 227.763871 
L 132.270545 237.614613 
L 132.541091 244.041316 
L 132.946909 249.364278 
L 133.217455 251.024263 
L 133.623273 251.867196 
L 133.893818 251.802131 
L 134.029091 251.51526 
L 134.164364 251.702072 
L 134.434909 252.149693 
L 134.570182 252.154067 
L 134.705455 250.094394 
L 134.840727 250.176956 
L 134.976 251.936818 
L 135.111273 251.897633 
L 135.246545 252.015006 
L 135.381818 251.85863 
L 135.517091 252.38863 
L 135.787636 251.328448 
L 135.922909 251.536949 
L 136.058182 252.736374 
L 136.193455 251.941192 
L 136.464 253.509867 
L 136.599273 251.993317 
L 136.734545 252.579816 
L 137.140364 247.869598 
L 137.275636 249.842335 
L 137.410909 248.369343 
L 137.681455 250.289955 
L 137.952 254.556927 
L 138.357818 265.172778 
L 138.628364 259.967007 
L 138.763636 267.440952 
L 138.898909 261.813805 
L 139.034182 263.347669 
L 139.169455 268.066818 
L 139.304727 264.942407 
L 139.44 252.762436 
L 139.710545 265.737589 
L 139.845818 255.856228 
L 139.981091 254.552735 
L 140.116364 255.052298 
L 140.251636 264.581723 
L 140.386909 261.644307 
L 140.657455 264.238535 
L 140.792727 263.143543 
L 141.063273 264.477473 
L 141.198545 264.646971 
L 141.333818 265.515966 
L 141.469091 265.094591 
L 141.604364 269.652808 
L 141.739636 265.737589 
L 142.010182 255.708601 
L 142.145455 255.990915 
L 142.280727 252.471192 
L 142.957091 267.058579 
L 143.227636 258.198579 
L 143.362909 262.674234 
L 143.498182 261.987677 
L 143.633455 256.868841 
L 143.768727 256.169161 
L 143.904 257.659649 
L 144.174545 263.478164 
L 144.445091 259.541258 
L 144.580364 261.005683 
L 144.850909 259.237073 
L 145.121455 253.144809 
L 145.256727 257.942145 
L 145.392 257.312087 
L 145.797818 253.557618 
L 146.068364 255.869351 
L 146.203636 254.852546 
L 146.474182 249.48165 
L 146.609455 250.772204 
L 146.744727 253.166498 
L 146.88 251.432698 
L 147.015273 251.245886 
L 147.150545 252.023754 
L 147.421091 248.682094 
L 147.691636 249.616337 
L 148.368 243.606818 
L 148.773818 245.027684 
L 149.044364 243.454817 
L 149.179636 243.850129 
L 149.450182 241.308208 
L 149.585455 240.730275 
L 149.720727 241.334271 
L 149.856 240.408594 
L 150.126545 241.573208 
L 150.397091 241.972895 
L 150.667636 244.197691 
L 150.938182 246.561549 
L 151.073455 247.222043 
L 151.344 249.964081 
L 151.479273 249.412211 
L 151.614545 251.189387 
L 151.749818 251.363259 
L 152.020364 254.50061 
L 152.155636 253.779241 
L 152.426182 256.555908 
L 152.561455 257.425086 
L 152.832 257.772648 
L 153.102545 260.714438 
L 153.237818 260.327691 
L 153.373091 259.497698 
L 153.508364 262.06149 
L 153.778909 262.617735 
L 154.184727 266.180835 
L 154.32 266.363455 
L 154.455273 267.371512 
L 154.590545 267.28895 
L 154.996364 269.639685 
L 155.266909 269.522495 
L 155.537455 271.360544 
L 155.672727 271.143295 
L 155.943273 271.781919 
L 156.213818 272.064416 
L 156.754909 269.48331 
L 157.296 266.38077 
L 157.431273 266.476272 
L 158.513455 270.904176 
L 158.919273 271.829853 
L 160.813091 275.045391 
L 161.083636 275.23224 
L 161.895273 275.98831 
L 162.301091 276.010053 
L 162.706909 276.149096 
L 163.383273 276.079565 
L 163.789091 275.949216 
L 164.059636 275.758011 
L 164.330182 275.336527 
L 165.006545 274.43704 
L 166.494545 269.974307 
L 166.900364 267.671323 
L 167.847273 259.702007 
L 168.658909 248.629969 
L 169.876364 222.66235 
L 170.552727 204.542117 
L 171.499636 177.097132 
L 171.905455 171.283173 
L 172.040727 171.170174 
L 172.446545 168.519447 
L 172.581818 168.145822 
L 172.717091 167.389643 
L 172.852364 168.137074 
L 173.393455 175.306834 
L 174.340364 200.692146 
L 174.475636 202.63882 
L 174.881455 213.636862 
L 175.828364 228.428558 
L 177.451636 242.085894 
L 177.857455 245.627305 
L 178.128 247.926097 
L 178.263273 248.338907 
L 179.074909 256.321163 
L 179.210182 256.947029 
L 179.480727 260.282127 
L 179.616 261.370559 
L 179.886545 263.929976 
L 180.021818 264.086352 
L 180.698182 272.301166 
L 180.833455 272.162287 
L 180.968727 274.42184 
L 181.104 274.067625 
L 181.374545 275.647218 
L 181.780364 277.676472 
L 182.186182 279.61232 
L 182.321455 279.349416 
L 182.727273 281.992452 
L 182.862545 282.289019 
L 183.268364 281.815391 
L 183.538909 283.608952 
L 183.809455 283.934843 
L 184.08 285.42637 
L 184.215273 287.193832 
L 184.350545 286.456224 
L 184.621091 288.236736 
L 185.026909 289.601157 
L 185.297455 289.883617 
L 185.703273 291.273031 
L 185.838545 291.265425 
L 185.973818 291.563082 
L 186.109091 291.554392 
L 186.379636 292.085609 
L 186.514909 292.088868 
L 186.785455 292.341985 
L 187.191273 292.347416 
L 187.597091 292.160566 
L 187.732364 292.037811 
L 188.138182 292.173602 
L 189.220364 292.250733 
L 190.302545 292.349588 
L 193.549091 292.336554 
L 194.631273 292.382179 
L 195.578182 292.222487 
L 195.984 291.981321 
L 196.525091 291.251304 
L 196.795636 290.536495 
L 197.607273 287.788077 
L 199.095273 280.288015 
L 199.365818 279.253823 
L 199.501091 279.24296 
L 199.906909 277.754696 
L 200.583273 276.520624 
L 201.530182 275.679805 
L 201.800727 275.673281 
L 202.071273 275.521188 
L 202.612364 275.40387 
L 203.559273 275.397345 
L 204.776727 276.062196 
L 205.182545 276.505406 
L 205.723636 277.428786 
L 206.805818 280.351021 
L 207.211636 281.895766 
L 207.888 283.566577 
L 208.158545 284.088029 
L 208.699636 284.985329 
L 208.834909 285.687105 
L 208.970182 285.700136 
L 209.376 285.015748 
L 209.917091 285.424201 
L 210.728727 285.543706 
L 210.999273 285.743586 
L 211.269818 286.462731 
L 211.540364 285.432895 
L 213.975273 284.396534 
L 214.245818 284.520376 
L 214.516364 284.781093 
L 214.786909 284.101061 
L 215.057455 283.94463 
L 215.328 283.618721 
L 215.869091 283.327585 
L 216.680727 282.236876 
L 217.221818 281.763248 
L 217.492364 281.376501 
L 217.762909 281.428644 
L 218.033455 281.36347 
L 218.304 280.172866 
L 218.845091 279.077836 
L 219.927273 276.887796 
L 220.468364 275.340864 
L 220.738909 275.640693 
L 221.009455 273.728684 
L 222.632727 268.42732 
L 223.985455 263.378106 
L 225.879273 252.98406 
L 227.232 242.033768 
L 228.043636 233.708143 
L 229.125818 219.994125 
L 229.937455 211.025319 
L 230.208 209.408893 
L 230.478545 203.812182 
L 231.019636 198.458784 
L 231.831273 194.14807 
L 232.101818 193.818005 
L 232.372364 193.696258 
L 232.642909 194.04382 
L 233.184 195.486557 
L 234.807273 202.71719 
L 235.348364 204.489992 
L 236.430545 207.879402 
L 237.512727 209.982451 
L 238.865455 214.136607 
L 239.406545 216.778587 
L 239.947636 219.942 
L 240.488727 222.497226 
L 241.300364 226.807757 
L 242.382545 231.170596 
L 242.653091 230.127728 
L 243.464727 230.788223 
L 243.735273 230.353543 
L 244.005818 230.284104 
L 244.276364 229.693048 
L 244.546909 229.623609 
L 245.629091 228.354744 
L 246.711273 225.000144 
L 248.334545 215.753034 
L 249.146182 208.244278 
L 249.957818 199.640712 
L 250.769455 188.55136 
L 253.204364 142.264592 
L 254.016 126.951645 
L 255.909818 99.802643 
L 256.721455 90.172248 
L 257.262545 81.325553 
L 257.803636 70.689107 
L 258.344727 62.762803 
L 258.885818 56.713735 
L 259.426909 53.950737 
L 259.697455 53.568 
L 259.968 53.96714 
L 260.238545 57.357097 
L 260.509091 57.357097 
L 260.779636 57.078246 
L 261.050182 61.215452 
L 261.320727 61.146195 
L 261.861818 71.33247 
L 262.402909 81.620808 
L 263.755636 101.158626 
L 265.108364 117.270218 
L 267.002182 133.200284 
L 267.543273 138.258246 
L 268.084364 142.603405 
L 268.896 149.286542 
L 269.437091 152.615626 
L 270.248727 158.073275 
L 272.142545 170.918115 
L 272.683636 174.915713 
L 272.954182 176.558384 
L 273.495273 182.302903 
L 274.306909 192.01021 
L 275.389091 204.585676 
L 276.471273 218.564511 
L 277.012364 226.273383 
L 277.282909 229.236862 
L 277.824 237.784111 
L 278.365091 244.727873 
L 279.447273 258.459205 
L 280.8 270.723925 
L 281.070545 271.51692 
L 282.693818 282.593204 
L 283.505455 285.630606 
L 283.776 287.110194 
L 284.587636 289.60225 
L 284.858182 289.939023 
L 285.128727 289.860798 
L 285.669818 290.658164 
L 285.940364 290.345302 
L 286.210909 290.249705 
L 286.481455 290.899334 
L 286.752 290.497387 
L 287.293091 291.264339 
L 287.563636 291.066628 
L 288.916364 292.748273 
L 289.186909 292.333293 
L 289.457455 292.205105 
L 290.539636 292.578806 
L 290.810182 292.461481 
L 291.621818 293.128493 
L 294.056727 293.135011 
L 295.950545 293.145875 
L 298.114909 293.167602 
L 298.656 293.152392 
L 300.008727 293.171947 
L 301.632 293.15022 
L 305.960727 293.169774 
L 306.772364 293.265371 
L 307.584 292.880806 
L 307.854545 293.019856 
L 308.125091 292.969885 
L 308.936727 291.818371 
L 309.207273 292.13558 
L 309.477818 292.848217 
L 310.018909 293.213227 
L 311.912727 293.156737 
L 313.536 293.137183 
L 316.782545 293.156737 
L 318.405818 293.137183 
L 319.217455 293.15891 
L 320.570182 293.15891 
L 330.309818 293.180637 
L 334.097455 293.304477 
L 334.638545 293.252334 
L 340.32 293.374003 
L 351.412364 293.56737 
L 353.035636 293.59127 
L 354.658909 293.602132 
L 356.282182 293.634723 
L 360.881455 293.743355 
L 361.963636 293.745527 
L 369.809455 293.96713 
L 371.973818 294.056217 
L 373.326545 294.104023 
L 373.867636 294.182247 
L 375.220364 294.193109 
L 375.761455 294.275671 
L 376.032 294.299565 
L 376.302545 294.47772 
L 376.573091 294.340846 
L 378.466909 294.592869 
L 379.008 294.432101 
L 379.549091 294.699325 
L 382.795636 294.929641 
L 383.336727 294.968735 
L 384.148364 294.957873 
L 384.689455 295.049128 
L 385.230545 295.109965 
L 387.394909 295.233808 
L 388.477091 295.22947 
L 389.018182 295.303338 
L 389.288727 295.201221 
L 389.559273 295.275089 
L 389.829818 295.199052 
L 390.100364 295.361988 
L 390.912 295.33157 
L 393.617455 295.333757 
L 393.888 295.368513 
L 394.158545 295.281614 
L 394.429091 295.375038 
L 394.699636 295.281614 
L 395.240727 295.394576 
L 398.487273 295.464106 
L 398.487273 295.464106 
" style="fill:none;stroke:#1f77b4;stroke-linecap:square;stroke-width:1.5;"/>
   </g>
   <g id="patch_3">
    <path d="M 57.6 307.584 
L 57.6 41.472 
" style="fill:none;stroke:#000000;stroke-linecap:square;stroke-linejoin:miter;stroke-width:0.8;"/>
   </g>
   <g id="patch_4">
    <path d="M 414.72 307.584 
L 414.72 41.472 
" style="fill:none;stroke:#000000;stroke-linecap:square;stroke-linejoin:miter;stroke-width:0.8;"/>
   </g>
   <g id="patch_5">
    <path d="M 57.6 307.584 
L 414.72 307.584 
" style="fill:none;stroke:#000000;stroke-linecap:square;stroke-linejoin:miter;stroke-width:0.8;"/>
   </g>
   <g id="patch_6">
    <path d="M 57.6 41.472 
L 414.72 41.472 
" style="fill:none;stroke:#000000;stroke-linecap:square;stroke-linejoin:miter;stroke-width:0.8;"/>
   </g>
   <g id="text_17">
    <!-- Long. Resistivity with minima start &amp; endpoints, $V_\mathrm{g}$ =450mV -->
    <g transform="translate(54.54 35.472)scale(0.12 -0.12)">
     <defs>
      <path d="M 628 4666 
L 1259 4666 
L 1259 531 
L 3531 531 
L 3531 0 
L 628 0 
L 628 4666 
z
" id="DejaVuSans-4c" transform="scale(0.015625)"/>
      <path d="M 1959 3097 
Q 1497 3097 1228 2736 
Q 959 2375 959 1747 
Q 959 1119 1226 758 
Q 1494 397 1959 397 
Q 2419 397 2687 759 
Q 2956 1122 2956 1747 
Q 2956 2369 2687 2733 
Q 2419 3097 1959 3097 
z
M 1959 3584 
Q 2709 3584 3137 3096 
Q 3566 2609 3566 1747 
Q 3566 888 3137 398 
Q 2709 -91 1959 -91 
Q 1206 -91 779 398 
Q 353 888 353 1747 
Q 353 2609 779 3096 
Q 1206 3584 1959 3584 
z
" id="DejaVuSans-6f" transform="scale(0.015625)"/>
      <path d="M 3513 2113 
L 3513 0 
L 2938 0 
L 2938 2094 
Q 2938 2591 2744 2837 
Q 2550 3084 2163 3084 
Q 1697 3084 1428 2787 
Q 1159 2491 1159 1978 
L 1159 0 
L 581 0 
L 581 3500 
L 1159 3500 
L 1159 2956 
Q 1366 3272 1645 3428 
Q 1925 3584 2291 3584 
Q 2894 3584 3203 3211 
Q 3513 2838 3513 2113 
z
" id="DejaVuSans-6e" transform="scale(0.015625)"/>
      <path d="M 2906 1791 
Q 2906 2416 2648 2759 
Q 2391 3103 1925 3103 
Q 1463 3103 1205 2759 
Q 947 2416 947 1791 
Q 947 1169 1205 825 
Q 1463 481 1925 481 
Q 2391 481 2648 825 
Q 2906 1169 2906 1791 
z
M 3481 434 
Q 3481 -459 3084 -895 
Q 2688 -1331 1869 -1331 
Q 1566 -1331 1297 -1286 
Q 1028 -1241 775 -1147 
L 775 -588 
Q 1028 -725 1275 -790 
Q 1522 -856 1778 -856 
Q 2344 -856 2625 -561 
Q 2906 -266 2906 331 
L 2906 616 
Q 2728 306 2450 153 
Q 2172 0 1784 0 
Q 1141 0 747 490 
Q 353 981 353 1791 
Q 353 2603 747 3093 
Q 1141 3584 1784 3584 
Q 2172 3584 2450 3431 
Q 2728 3278 2906 2969 
L 2906 3500 
L 3481 3500 
L 3481 434 
z
" id="DejaVuSans-67" transform="scale(0.015625)"/>
      <path d="M 2841 2188 
Q 3044 2119 3236 1894 
Q 3428 1669 3622 1275 
L 4263 0 
L 3584 0 
L 2988 1197 
Q 2756 1666 2539 1819 
Q 2322 1972 1947 1972 
L 1259 1972 
L 1259 0 
L 628 0 
L 628 4666 
L 2053 4666 
Q 2853 4666 3247 4331 
Q 3641 3997 3641 3322 
Q 3641 2881 3436 2590 
Q 3231 2300 2841 2188 
z
M 1259 4147 
L 1259 2491 
L 2053 2491 
Q 2509 2491 2742 2702 
Q 2975 2913 2975 3322 
Q 2975 3731 2742 3939 
Q 2509 4147 2053 4147 
L 1259 4147 
z
" id="DejaVuSans-52" transform="scale(0.015625)"/>
      <path d="M 3597 1894 
L 3597 1613 
L 953 1613 
Q 991 1019 1311 708 
Q 1631 397 2203 397 
Q 2534 397 2845 478 
Q 3156 559 3463 722 
L 3463 178 
Q 3153 47 2828 -22 
Q 2503 -91 2169 -91 
Q 1331 -91 842 396 
Q 353 884 353 1716 
Q 353 2575 817 3079 
Q 1281 3584 2069 3584 
Q 2775 3584 3186 3129 
Q 3597 2675 3597 1894 
z
M 3022 2063 
Q 3016 2534 2758 2815 
Q 2500 3097 2075 3097 
Q 1594 3097 1305 2825 
Q 1016 2553 972 2059 
L 3022 2063 
z
" id="DejaVuSans-65" transform="scale(0.015625)"/>
      <path d="M 2834 3397 
L 2834 2853 
Q 2591 2978 2328 3040 
Q 2066 3103 1784 3103 
Q 1356 3103 1142 2972 
Q 928 2841 928 2578 
Q 928 2378 1081 2264 
Q 1234 2150 1697 2047 
L 1894 2003 
Q 2506 1872 2764 1633 
Q 3022 1394 3022 966 
Q 3022 478 2636 193 
Q 2250 -91 1575 -91 
Q 1294 -91 989 -36 
Q 684 19 347 128 
L 347 722 
Q 666 556 975 473 
Q 1284 391 1588 391 
Q 1994 391 2212 530 
Q 2431 669 2431 922 
Q 2431 1156 2273 1281 
Q 2116 1406 1581 1522 
L 1381 1569 
Q 847 1681 609 1914 
Q 372 2147 372 2553 
Q 372 3047 722 3315 
Q 1072 3584 1716 3584 
Q 2034 3584 2315 3537 
Q 2597 3491 2834 3397 
z
" id="DejaVuSans-73" transform="scale(0.015625)"/>
      <path d="M 603 3500 
L 1178 3500 
L 1178 0 
L 603 0 
L 603 3500 
z
M 603 4863 
L 1178 4863 
L 1178 4134 
L 603 4134 
L 603 4863 
z
" id="DejaVuSans-69" transform="scale(0.015625)"/>
      <path d="M 1172 4494 
L 1172 3500 
L 2356 3500 
L 2356 3053 
L 1172 3053 
L 1172 1153 
Q 1172 725 1289 603 
Q 1406 481 1766 481 
L 2356 481 
L 2356 0 
L 1766 0 
Q 1100 0 847 248 
Q 594 497 594 1153 
L 594 3053 
L 172 3053 
L 172 3500 
L 594 3500 
L 594 4494 
L 1172 4494 
z
" id="DejaVuSans-74" transform="scale(0.015625)"/>
      <path d="M 191 3500 
L 800 3500 
L 1894 563 
L 2988 3500 
L 3597 3500 
L 2284 0 
L 1503 0 
L 191 3500 
z
" id="DejaVuSans-76" transform="scale(0.015625)"/>
      <path d="M 2059 -325 
Q 1816 -950 1584 -1140 
Q 1353 -1331 966 -1331 
L 506 -1331 
L 506 -850 
L 844 -850 
Q 1081 -850 1212 -737 
Q 1344 -625 1503 -206 
L 1606 56 
L 191 3500 
L 800 3500 
L 1894 763 
L 2988 3500 
L 3597 3500 
L 2059 -325 
z
" id="DejaVuSans-79" transform="scale(0.015625)"/>
      <path d="M 269 3500 
L 844 3500 
L 1563 769 
L 2278 3500 
L 2956 3500 
L 3675 769 
L 4391 3500 
L 4966 3500 
L 4050 0 
L 3372 0 
L 2619 2869 
L 1863 0 
L 1184 0 
L 269 3500 
z
" id="DejaVuSans-77" transform="scale(0.015625)"/>
      <path d="M 3513 2113 
L 3513 0 
L 2938 0 
L 2938 2094 
Q 2938 2591 2744 2837 
Q 2550 3084 2163 3084 
Q 1697 3084 1428 2787 
Q 1159 2491 1159 1978 
L 1159 0 
L 581 0 
L 581 4863 
L 1159 4863 
L 1159 2956 
Q 1366 3272 1645 3428 
Q 1925 3584 2291 3584 
Q 2894 3584 3203 3211 
Q 3513 2838 3513 2113 
z
" id="DejaVuSans-68" transform="scale(0.015625)"/>
      <path d="M 3328 2828 
Q 3544 3216 3844 3400 
Q 4144 3584 4550 3584 
Q 5097 3584 5394 3201 
Q 5691 2819 5691 2113 
L 5691 0 
L 5113 0 
L 5113 2094 
Q 5113 2597 4934 2840 
Q 4756 3084 4391 3084 
Q 3944 3084 3684 2787 
Q 3425 2491 3425 1978 
L 3425 0 
L 2847 0 
L 2847 2094 
Q 2847 2600 2669 2842 
Q 2491 3084 2119 3084 
Q 1678 3084 1418 2786 
Q 1159 2488 1159 1978 
L 1159 0 
L 581 0 
L 581 3500 
L 1159 3500 
L 1159 2956 
Q 1356 3278 1631 3431 
Q 1906 3584 2284 3584 
Q 2666 3584 2933 3390 
Q 3200 3197 3328 2828 
z
" id="DejaVuSans-6d" transform="scale(0.015625)"/>
      <path d="M 2194 1759 
Q 1497 1759 1228 1600 
Q 959 1441 959 1056 
Q 959 750 1161 570 
Q 1363 391 1709 391 
Q 2188 391 2477 730 
Q 2766 1069 2766 1631 
L 2766 1759 
L 2194 1759 
z
M 3341 1997 
L 3341 0 
L 2766 0 
L 2766 531 
Q 2569 213 2275 61 
Q 1981 -91 1556 -91 
Q 1019 -91 701 211 
Q 384 513 384 1019 
Q 384 1609 779 1909 
Q 1175 2209 1959 2209 
L 2766 2209 
L 2766 2266 
Q 2766 2663 2505 2880 
Q 2244 3097 1772 3097 
Q 1472 3097 1187 3025 
Q 903 2953 641 2809 
L 641 3341 
Q 956 3463 1253 3523 
Q 1550 3584 1831 3584 
Q 2591 3584 2966 3190 
Q 3341 2797 3341 1997 
z
" id="DejaVuSans-61" transform="scale(0.015625)"/>
      <path d="M 2631 2963 
Q 2534 3019 2420 3045 
Q 2306 3072 2169 3072 
Q 1681 3072 1420 2755 
Q 1159 2438 1159 1844 
L 1159 0 
L 581 0 
L 581 3500 
L 1159 3500 
L 1159 2956 
Q 1341 3275 1631 3429 
Q 1922 3584 2338 3584 
Q 2397 3584 2469 3576 
Q 2541 3569 2628 3553 
L 2631 2963 
z
" id="DejaVuSans-72" transform="scale(0.015625)"/>
      <path d="M 1556 2509 
Q 1272 2256 1139 2004 
Q 1006 1753 1006 1478 
Q 1006 1022 1337 719 
Q 1669 416 2169 416 
Q 2466 416 2725 514 
Q 2984 613 3213 813 
L 1556 2509 
z
M 1997 2859 
L 3584 1234 
Q 3769 1513 3872 1830 
Q 3975 2147 3994 2503 
L 4575 2503 
Q 4538 2091 4375 1687 
Q 4213 1284 3922 891 
L 4794 0 
L 4006 0 
L 3559 459 
Q 3234 181 2878 45 
Q 2522 -91 2113 -91 
Q 1359 -91 881 339 
Q 403 769 403 1441 
Q 403 1841 612 2192 
Q 822 2544 1241 2853 
Q 1091 3050 1012 3245 
Q 934 3441 934 3628 
Q 934 4134 1281 4442 
Q 1628 4750 2203 4750 
Q 2463 4750 2720 4694 
Q 2978 4638 3244 4525 
L 3244 3956 
Q 2972 4103 2725 4179 
Q 2478 4256 2266 4256 
Q 1938 4256 1733 4082 
Q 1528 3909 1528 3634 
Q 1528 3475 1620 3314 
Q 1713 3153 1997 2859 
z
" id="DejaVuSans-26" transform="scale(0.015625)"/>
      <path d="M 2906 2969 
L 2906 4863 
L 3481 4863 
L 3481 0 
L 2906 0 
L 2906 525 
Q 2725 213 2448 61 
Q 2172 -91 1784 -91 
Q 1150 -91 751 415 
Q 353 922 353 1747 
Q 353 2572 751 3078 
Q 1150 3584 1784 3584 
Q 2172 3584 2448 3432 
Q 2725 3281 2906 2969 
z
M 947 1747 
Q 947 1113 1208 752 
Q 1469 391 1925 391 
Q 2381 391 2643 752 
Q 2906 1113 2906 1747 
Q 2906 2381 2643 2742 
Q 2381 3103 1925 3103 
Q 1469 3103 1208 2742 
Q 947 2381 947 1747 
z
" id="DejaVuSans-64" transform="scale(0.015625)"/>
      <path d="M 1159 525 
L 1159 -1331 
L 581 -1331 
L 581 3500 
L 1159 3500 
L 1159 2969 
Q 1341 3281 1617 3432 
Q 1894 3584 2278 3584 
Q 2916 3584 3314 3078 
Q 3713 2572 3713 1747 
Q 3713 922 3314 415 
Q 2916 -91 2278 -91 
Q 1894 -91 1617 61 
Q 1341 213 1159 525 
z
M 3116 1747 
Q 3116 2381 2855 2742 
Q 2594 3103 2138 3103 
Q 1681 3103 1420 2742 
Q 1159 2381 1159 1747 
Q 1159 1113 1420 752 
Q 1681 391 2138 391 
Q 2594 391 2855 752 
Q 3116 1113 3116 1747 
z
" id="DejaVuSans-70" transform="scale(0.015625)"/>
      <path d="M 750 794 
L 1409 794 
L 1409 256 
L 897 -744 
L 494 -744 
L 750 256 
L 750 794 
z
" id="DejaVuSans-2c" transform="scale(0.015625)"/>
      <path d="M 1319 0 
L 500 4666 
L 1119 4666 
L 1797 653 
L 4063 4666 
L 4750 4666 
L 2053 0 
L 1319 0 
z
" id="DejaVuSans-Oblique-56" transform="scale(0.015625)"/>
      <path d="M 678 2906 
L 4684 2906 
L 4684 2381 
L 678 2381 
L 678 2906 
z
M 678 1631 
L 4684 1631 
L 4684 1100 
L 678 1100 
L 678 1631 
z
" id="DejaVuSans-3d" transform="scale(0.015625)"/>
      <path d="M 691 4666 
L 3169 4666 
L 3169 4134 
L 1269 4134 
L 1269 2991 
Q 1406 3038 1543 3061 
Q 1681 3084 1819 3084 
Q 2600 3084 3056 2656 
Q 3513 2228 3513 1497 
Q 3513 744 3044 326 
Q 2575 -91 1722 -91 
Q 1428 -91 1123 -41 
Q 819 9 494 109 
L 494 744 
Q 775 591 1075 516 
Q 1375 441 1709 441 
Q 2250 441 2565 725 
Q 2881 1009 2881 1497 
Q 2881 1984 2565 2268 
Q 2250 2553 1709 2553 
Q 1456 2553 1204 2497 
Q 953 2441 691 2322 
L 691 4666 
z
" id="DejaVuSans-35" transform="scale(0.015625)"/>
      <path d="M 1831 0 
L 50 4666 
L 709 4666 
L 2188 738 
L 3669 4666 
L 4325 4666 
L 2547 0 
L 1831 0 
z
" id="DejaVuSans-56" transform="scale(0.015625)"/>
     </defs>
     <use transform="translate(0 0.015625)" xlink:href="#DejaVuSans-4c"/>
     <use transform="translate(55.712891 0.015625)" xlink:href="#DejaVuSans-6f"/>
     <use transform="translate(116.894531 0.015625)" xlink:href="#DejaVuSans-6e"/>
     <use transform="translate(180.273438 0.015625)" xlink:href="#DejaVuSans-67"/>
     <use transform="translate(243.75 0.015625)" xlink:href="#DejaVuSans-2e"/>
     <use transform="translate(275.537109 0.015625)" xlink:href="#DejaVuSans-20"/>
     <use transform="translate(307.324219 0.015625)" xlink:href="#DejaVuSans-52"/>
     <use transform="translate(376.806641 0.015625)" xlink:href="#DejaVuSans-65"/>
     <use transform="translate(438.330078 0.015625)" xlink:href="#DejaVuSans-73"/>
     <use transform="translate(490.429688 0.015625)" xlink:href="#DejaVuSans-69"/>
     <use transform="translate(518.212891 0.015625)" xlink:href="#DejaVuSans-73"/>
     <use transform="translate(570.3125 0.015625)" xlink:href="#DejaVuSans-74"/>
     <use transform="translate(609.521484 0.015625)" xlink:href="#DejaVuSans-69"/>
     <use transform="translate(637.304688 0.015625)" xlink:href="#DejaVuSans-76"/>
     <use transform="translate(696.484375 0.015625)" xlink:href="#DejaVuSans-69"/>
     <use transform="translate(724.267578 0.015625)" xlink:href="#DejaVuSans-74"/>
     <use transform="translate(763.476562 0.015625)" xlink:href="#DejaVuSans-79"/>
     <use transform="translate(822.65625 0.015625)" xlink:href="#DejaVuSans-20"/>
     <use transform="translate(854.443359 0.015625)" xlink:href="#DejaVuSans-77"/>
     <use transform="translate(936.230469 0.015625)" xlink:href="#DejaVuSans-69"/>
     <use transform="translate(964.013672 0.015625)" xlink:href="#DejaVuSans-74"/>
     <use transform="translate(1003.222656 0.015625)" xlink:href="#DejaVuSans-68"/>
     <use transform="translate(1066.601562 0.015625)" xlink:href="#DejaVuSans-20"/>
     <use transform="translate(1098.388672 0.015625)" xlink:href="#DejaVuSans-6d"/>
     <use transform="translate(1195.800781 0.015625)" xlink:href="#DejaVuSans-69"/>
     <use transform="translate(1223.583984 0.015625)" xlink:href="#DejaVuSans-6e"/>
     <use transform="translate(1286.962891 0.015625)" xlink:href="#DejaVuSans-69"/>
     <use transform="translate(1314.746094 0.015625)" xlink:href="#DejaVuSans-6d"/>
     <use transform="translate(1412.158203 0.015625)" xlink:href="#DejaVuSans-61"/>
     <use transform="translate(1473.4375 0.015625)" xlink:href="#DejaVuSans-20"/>
     <use transform="translate(1505.224609 0.015625)" xlink:href="#DejaVuSans-73"/>
     <use transform="translate(1557.324219 0.015625)" xlink:href="#DejaVuSans-74"/>
     <use transform="translate(1596.533203 0.015625)" xlink:href="#DejaVuSans-61"/>
     <use transform="translate(1657.8125 0.015625)" xlink:href="#DejaVuSans-72"/>
     <use transform="translate(1698.925781 0.015625)" xlink:href="#DejaVuSans-74"/>
     <use transform="translate(1738.134766 0.015625)" xlink:href="#DejaVuSans-20"/>
     <use transform="translate(1769.921875 0.015625)" xlink:href="#DejaVuSans-26"/>
     <use transform="translate(1847.900391 0.015625)" xlink:href="#DejaVuSans-20"/>
     <use transform="translate(1879.6875 0.015625)" xlink:href="#DejaVuSans-65"/>
     <use transform="translate(1941.210938 0.015625)" xlink:href="#DejaVuSans-6e"/>
     <use transform="translate(2004.589844 0.015625)" xlink:href="#DejaVuSans-64"/>
     <use transform="translate(2068.066406 0.015625)" xlink:href="#DejaVuSans-70"/>
     <use transform="translate(2131.542969 0.015625)" xlink:href="#DejaVuSans-6f"/>
     <use transform="translate(2192.724609 0.015625)" xlink:href="#DejaVuSans-69"/>
     <use transform="translate(2220.507812 0.015625)" xlink:href="#DejaVuSans-6e"/>
     <use transform="translate(2283.886719 0.015625)" xlink:href="#DejaVuSans-74"/>
     <use transform="translate(2323.095703 0.015625)" xlink:href="#DejaVuSans-73"/>
     <use transform="translate(2375.195312 0.015625)" xlink:href="#DejaVuSans-2c"/>
     <use transform="translate(2406.982422 0.015625)" xlink:href="#DejaVuSans-20"/>
     <use transform="translate(2438.769531 0.015625)" xlink:href="#DejaVuSans-Oblique-56"/>
     <use transform="translate(2507.177734 -16.390625)scale(0.7)" xlink:href="#DejaVuSans-67"/>
     <use transform="translate(2554.345703 0.015625)" xlink:href="#DejaVuSans-20"/>
     <use transform="translate(2586.132812 0.015625)" xlink:href="#DejaVuSans-3d"/>
     <use transform="translate(2669.921875 0.015625)" xlink:href="#DejaVuSans-34"/>
     <use transform="translate(2733.544922 0.015625)" xlink:href="#DejaVuSans-35"/>
     <use transform="translate(2797.167969 0.015625)" xlink:href="#DejaVuSans-30"/>
     <use transform="translate(2860.791016 0.015625)" xlink:href="#DejaVuSans-6d"/>
     <use transform="translate(2958.203125 0.015625)" xlink:href="#DejaVuSans-56"/>
    </g>
   </g>
   <g id="legend_1">
    <g id="patch_7">
     <path d="M 403.72 54.472 
L 407.72 54.472 
Q 409.72 54.472 409.72 52.472 
L 409.72 48.472 
Q 409.72 46.472 407.72 46.472 
L 403.72 46.472 
Q 401.72 46.472 401.72 48.472 
L 401.72 52.472 
Q 401.72 54.472 403.72 54.472 
z
" style="fill:#ffffff;opacity:0.8;stroke:#cccccc;stroke-linejoin:miter;"/>
    </g>
   </g>
  </g>
 </g>
 <defs>
  <clipPath id="p3486536dd4">
   <rect height="266.112" width="357.12" x="57.6" y="41.472"/>
  </clipPath>
 </defs>
</svg>
